<svg id="Grupo_1114784" data-name="Grupo 1114784" xmlns="http://www.w3.org/2000/svg" xmlns:xlink="http://www.w3.org/1999/xlink" width="543.445" height="373.102" viewBox="0 0 543.445 373.102">
  <defs>
    <clipPath id="clip-path">
      <rect id="Rectángulo_407912" data-name="Rectángulo 407912" width="543.445" height="373.102" fill="none"/>
    </clipPath>
    <clipPath id="clip-path-3">
      <rect id="Rectángulo_407886" data-name="Rectángulo 407886" width="88.33" height="78.372" fill="none"/>
    </clipPath>
    <clipPath id="clip-path-4">
      <rect id="Rectángulo_407887" data-name="Rectángulo 407887" width="141.146" height="13.14" fill="none"/>
    </clipPath>
    <clipPath id="clip-path-5">
      <rect id="Rectángulo_407892" data-name="Rectángulo 407892" width="0.741" height="124.456" fill="none"/>
    </clipPath>
    <clipPath id="clip-path-6">
      <rect id="Rectángulo_407893" data-name="Rectángulo 407893" width="127.365" height="0.6" fill="none"/>
    </clipPath>
    <clipPath id="clip-path-7">
      <rect id="Rectángulo_407894" data-name="Rectángulo 407894" width="7.785" height="9.508" fill="none"/>
    </clipPath>
    <clipPath id="clip-path-8">
      <rect id="Rectángulo_407895" data-name="Rectángulo 407895" width="6.304" height="9.229" fill="none"/>
    </clipPath>
    <clipPath id="clip-path-9">
      <rect id="Rectángulo_407896" data-name="Rectángulo 407896" width="3.356" height="3.514" fill="none"/>
    </clipPath>
    <clipPath id="clip-path-10">
      <rect id="Rectángulo_407897" data-name="Rectángulo 407897" width="5.708" height="6.055" fill="none"/>
    </clipPath>
    <clipPath id="clip-path-11">
      <rect id="Rectángulo_407898" data-name="Rectángulo 407898" width="5.428" height="6.162" fill="none"/>
    </clipPath>
    <clipPath id="clip-path-12">
      <rect id="Rectángulo_407899" data-name="Rectángulo 407899" width="5.661" height="7.29" fill="none"/>
    </clipPath>
    <clipPath id="clip-path-13">
      <rect id="Rectángulo_407900" data-name="Rectángulo 407900" width="2.991" height="3.542" fill="none"/>
    </clipPath>
    <clipPath id="clip-path-14">
      <rect id="Rectángulo_407901" data-name="Rectángulo 407901" width="44.726" height="32.85" fill="none"/>
    </clipPath>
    <clipPath id="clip-path-15">
      <rect id="Rectángulo_407903" data-name="Rectángulo 407903" width="7.368" height="24.251" fill="none"/>
    </clipPath>
    <clipPath id="clip-path-16">
      <rect id="Rectángulo_407904" data-name="Rectángulo 407904" width="7.368" height="13.371" fill="none"/>
    </clipPath>
    <clipPath id="clip-path-17">
      <rect id="Rectángulo_407908" data-name="Rectángulo 407908" width="69.074" height="102.821" fill="none"/>
    </clipPath>
    <clipPath id="clip-path-18">
      <rect id="Rectángulo_407905" data-name="Rectángulo 407905" width="10.502" height="27.635" fill="none"/>
    </clipPath>
    <clipPath id="clip-path-19">
      <rect id="Rectángulo_407906" data-name="Rectángulo 407906" width="14.596" height="21.649" fill="none"/>
    </clipPath>
    <clipPath id="clip-path-20">
      <rect id="Rectángulo_407907" data-name="Rectángulo 407907" width="33.732" height="62.99" fill="none"/>
    </clipPath>
    <clipPath id="clip-path-21">
      <path id="Trazado_903797" data-name="Trazado 903797" d="M102.2,184.084S79.541,186.4,78.114,205.158s8,96.566,8,96.566l61.758-3.942-5.821-88.188a27.325,27.325,0,0,0-4.27-13.42c-2.369-3.7-5.143-7.892-6.718-8.089l-25.405-6.531Z" transform="translate(-77.967 -181.554)" fill="none"/>
    </clipPath>
    <clipPath id="clip-path-23">
      <path id="Trazado_903812" data-name="Trazado 903812" d="M85.11,193.806c-11,6.746-1.067,56.193,5.046,62.939l30.879-23-19.215-30.668s-3.894-10.932-11.451-10.934a10.029,10.029,0,0,0-5.258,1.658" transform="translate(-80.167 -192.148)" fill="none"/>
    </clipPath>
  </defs>
  <g id="Grupo_1114783" data-name="Grupo 1114783" clip-path="url(#clip-path)">
    <g id="Grupo_1114774" data-name="Grupo 1114774">
      <g id="Grupo_1114773" data-name="Grupo 1114773" clip-path="url(#clip-path)">
        <path id="Trazado_903660" data-name="Trazado 903660" d="M133.1,179.1s-.574-4.655,3.73-5.332,17.082-4.6,48.289-1.643c0,0,5.128-26.283,5.179-28.593.129-6.013,2.035-13.818,6.688-17.94.381-.337.658,14.911.825,23.048,0,0,3.927,40.968-.862,45.086s-68.612-.59-63.85-14.627" transform="translate(-45.625 -43.133)" fill="#d1744f"/>
        <path id="Trazado_903661" data-name="Trazado 903661" d="M168.185,194.868c-19.143-.448-27.935,2.139-31.358,2.677-4.3.677-3.729,5.332-3.729,5.332-3.193,9.41,24.436,14.627,44.441,15.8a233.033,233.033,0,0,1-9.354-23.812" transform="translate(-45.625 -66.909)" fill="#944438"/>
        <path id="Trazado_903662" data-name="Trazado 903662" d="M142.479,187.512s-16.648-2.763-16.163,10.219,32.922,21.791,41.738,19.683l.035-28.047Z" transform="translate(-43.379 -64.316)" fill="#ffe18f"/>
        <path id="Trazado_903663" data-name="Trazado 903663" d="M156.206,187.539c-1.91.651-4.133,1.295-5.5,2.88a5.2,5.2,0,0,0-.135,6.309c1.44,1.843,3.948,2.427,6.181,2.257,2.933-.224,5.711-1.241,8.676-1.291a22.014,22.014,0,0,1,9.8,2.124c.714.339,1.341-.725.623-1.066a23.373,23.373,0,0,0-14.5-1.854c-2.456.478-5.051,1.365-7.536.567a4,4,0,0,1-2.675-5.481c.855-1.953,3.569-2.631,5.391-3.253.748-.255.427-1.448-.328-1.191" transform="translate(-51.37 -64.397)" fill="#fbf3e8"/>
        <path id="Trazado_903664" data-name="Trazado 903664" d="M173.6,220.851c-2.588,3.105-27.917-3.413-30.694-7.642,0,0-.433-14.178.646-14.47,11-2.981,30.048,22.112,30.048,22.112" transform="translate(-49.05 -68.172)" fill="#ffc557"/>
        <path id="Trazado_903665" data-name="Trazado 903665" d="M689.209,452.272a126.593,126.593,0,0,1-4.581-38.343q.188-5.449.849-10.867c.1-.819-1.188-.813-1.286,0a127.716,127.716,0,0,0,1.267,38.784q1.018,5.436,2.511,10.767a.643.643,0,0,0,1.24-.342" transform="translate(-234.669 -138.221)" fill="#34755a"/>
        <path id="Trazado_903666" data-name="Trazado 903666" d="M641.644,427.97a19.3,19.3,0,0,1-21.326-10.783,28.188,28.188,0,0,0,12.046,1.088c-12.386-3.671-20.048-16.1-24.243-28.317a105.251,105.251,0,0,1-5.678-35.563l10.051,9.223c-3.22-3.339-6.5-6.767-8.4-11s-2.186-9.49.475-13.289A171.65,171.65,0,0,1,633.043,360.4a6.552,6.552,0,0,1,2.044,2.672,6.692,6.692,0,0,1-.307,3.78q-2.016,7.174-4.033,14.348a64.411,64.411,0,0,1,7.677-11.924A87.528,87.528,0,0,1,652.4,430.02" transform="translate(-206.904 -116.543)" fill="#34755a"/>
        <path id="Trazado_903667" data-name="Trazado 903667" d="M692.285,453.859a55.91,55.91,0,0,1,5.113-24.866c2.753-5.956,7.961-12.107,14.474-11.311,3.78.462,6.842,3.192,9.526,5.892a147.932,147.932,0,0,1,22.213,28.657c2.933,4.935,5.636,10.238,5.991,15.967-9.818-8.208-11.76-23.923-22.839-30.325-1.051-.607-2.492-1.072-3.38-.246-2.435,2.262,4.77,6.143,2.467,8.539l-8.7-9.019a5.119,5.119,0,0,0-2.281-1.619c-1.542-.384-3.031.7-4.216,1.762a71.772,71.772,0,0,0-14.768,18.389" transform="translate(-237.757 -143.428)" fill="#34755a"/>
        <path id="Trazado_903668" data-name="Trazado 903668" d="M683.661,385.383a77.787,77.787,0,0,1,9.384-35.256,42.21,42.21,0,0,0,1.243,18.993c-.257-8.176-.308-17.047,4.562-23.619a33.777,33.777,0,0,1,7.678-6.949A206.947,206.947,0,0,1,736.2,320.743q-3.206,12.229-6.412,24.459a2.345,2.345,0,0,1-2.915,2.154l-10.626-.085a20.733,20.733,0,0,0,8.148,4.153c.817.207,1.781.476,2.06,1.272a2.408,2.408,0,0,1-.32,1.766,60.644,60.644,0,0,1-41.382,32.8" transform="translate(-234.802 -110.158)" fill="#34755a"/>
        <g id="Grupo_1114721" data-name="Grupo 1114721" transform="translate(409.074 230.588)" opacity="0.3">
          <g id="Grupo_1114720" data-name="Grupo 1114720">
            <g id="Grupo_1114719" data-name="Grupo 1114719" clip-path="url(#clip-path-3)">
              <path id="Trazado_903669" data-name="Trazado 903669" d="M631.894,363.878a74.083,74.083,0,0,1,.554,15.879c-.034.476.707.474.741,0a74.989,74.989,0,0,0-.58-16.076c-.068-.47-.781-.27-.714.2" transform="translate(-626.095 -355.401)" fill="#fbf3e8"/>
              <path id="Trazado_903670" data-name="Trazado 903670" d="M639.17,369.633l-1.637,14.429c-.054.473.687.469.741,0q.818-7.215,1.637-14.429c.054-.473-.687-.469-.74,0" transform="translate(-628.033 -357.416)" fill="#fbf3e8"/>
              <path id="Trazado_903671" data-name="Trazado 903671" d="M655.917,435.695a227.4,227.4,0,0,0-24.085-45.625q-4.082-5.97-8.54-11.67c-.293-.375-.814.153-.524.524A226.671,226.671,0,0,1,649.474,422.5q3.081,6.6,5.728,13.389c.171.439.888.248.714-.2" transform="translate(-622.933 -360.504)" fill="#fbf3e8"/>
              <path id="Trazado_903672" data-name="Trazado 903672" d="M711.273,372.843q.761-7.981,1.523-15.962c.045-.475-.7-.471-.741,0q-.762,7.981-1.523,15.962c-.045.475.7.471.741,0" transform="translate(-653.104 -353.036)" fill="#fbf3e8"/>
              <path id="Trazado_903673" data-name="Trazado 903673" d="M718.827,351a62.724,62.724,0,0,0-3.917,16.044c-.051.473.69.469.741,0a62.016,62.016,0,0,1,3.891-15.847c.173-.444-.542-.637-.714-.2" transform="translate(-654.607 -351.052)" fill="#fbf3e8"/>
              <path id="Trazado_903674" data-name="Trazado 903674" d="M688.292,399.915a62.531,62.531,0,0,1,26.988-28.885c.419-.228.045-.868-.374-.639A63.74,63.74,0,0,0,692.015,391.6a62.562,62.562,0,0,0-4.363,7.936c-.2.431.441.808.639.374" transform="translate(-645.234 -357.781)" fill="#fbf3e8"/>
              <path id="Trazado_903675" data-name="Trazado 903675" d="M719.772,430.06l8.361,8.361a.371.371,0,0,0,.524-.524l-8.361-8.361a.371.371,0,0,0-.524.524" transform="translate(-656.241 -378.074)" fill="#fbf3e8"/>
              <path id="Trazado_903676" data-name="Trazado 903676" d="M726.62,429.23a104.375,104.375,0,0,1,19.928,17.135c.32.355.843-.171.524-.524a105.151,105.151,0,0,0-20.077-17.251c-.4-.264-.771.378-.374.639" transform="translate(-658.572 -377.765)" fill="#fbf3e8"/>
              <path id="Trazado_903677" data-name="Trazado 903677" d="M719.13,430.073c-3.889-2.582-8.688-.2-11.248,3.09a30.673,30.673,0,0,0-3.574,6.436q-1.636,3.661-2.922,7.464a84.658,84.658,0,0,0-2.507,9.1c-.1.465.613.664.714.2a82.82,82.82,0,0,1,6.219-18.259c1.223-2.544,2.7-5.178,5.054-6.839,2.281-1.608,5.468-2.161,7.89-.553.4.265.77-.377.374-.639" transform="translate(-649.099 -377.92)" fill="#fbf3e8"/>
            </g>
          </g>
        </g>
        <path id="Trazado_903678" data-name="Trazado 903678" d="M684.475,528.007H652.846a17.33,17.33,0,0,1-17.33-17.33v-46.5H701.8v46.5a17.33,17.33,0,0,1-17.33,17.33" transform="translate(-218.266 -159.419)" fill="#944438"/>
        <path id="Trazado_903679" data-name="Trazado 903679" d="M684.475,528.007H652.846a17.33,17.33,0,0,1-17.33-17.33v-46.5" transform="translate(-218.266 -159.419)" fill="#d1744f"/>
        <path id="Trazado_903680" data-name="Trazado 903680" d="M459.506,60.12a24.7,24.7,0,0,0-24.7-24.7l-224.086.146A31.546,31.546,0,0,0,179.2,67.116V347.879a34.575,34.575,0,0,0,34.575,34.575H401.223l59.3-.825Z" transform="translate(-61.545 -12.166)" fill="#fbf3e8"/>
        <path id="Trazado_903681" data-name="Trazado 903681" d="M224.968,552.845c9.253,0,22.667-12.428,22.667-21.681H502.881s-.985,21.681-25.623,21.681Z" transform="translate(-77.265 -182.427)" fill="#944438"/>
        <g id="Grupo_1114724" data-name="Grupo 1114724" transform="translate(179.724 32.414)" style="mix-blend-mode: multiply;isolation: isolate">
          <g id="Grupo_1114723" data-name="Grupo 1114723">
            <g id="Grupo_1114722" data-name="Grupo 1114722" clip-path="url(#clip-path-4)">
              <path id="Trazado_903682" data-name="Trazado 903682" d="M286.879,55.939a6.57,6.57,0,1,0-6.57,6.571,6.57,6.57,0,0,0,6.57-6.571" transform="translate(-273.739 -49.37)" fill="#f7ead7"/>
              <path id="Trazado_903683" data-name="Trazado 903683" d="M385.446,55.939a6.57,6.57,0,1,0-6.57,6.571,6.57,6.57,0,0,0,6.57-6.571" transform="translate(-307.592 -49.37)" fill="#f7ead7"/>
              <path id="Trazado_903684" data-name="Trazado 903684" d="M481.846,55.939a6.57,6.57,0,1,0-6.57,6.571,6.57,6.57,0,0,0,6.57-6.571" transform="translate(-340.7 -49.37)" fill="#f7ead7"/>
            </g>
          </g>
        </g>
        <path id="Trazado_903685" data-name="Trazado 903685" d="M275.985,35.394a20.774,20.774,0,1,0-3.547-11.613" transform="translate(-93.568 -1.034)" fill="none" stroke="#944438" stroke-miterlimit="10" stroke-width="6.018"/>
        <path id="Trazado_903686" data-name="Trazado 903686" d="M373.552,35.394a20.774,20.774,0,1,0-3.547-11.613" transform="translate(-127.077 -1.034)" fill="none" stroke="#944438" stroke-miterlimit="10" stroke-width="6.018"/>
        <path id="Trazado_903687" data-name="Trazado 903687" d="M471.119,35.394a20.774,20.774,0,1,0-3.547-11.613" transform="translate(-160.586 -1.034)" fill="none" stroke="#944438" stroke-miterlimit="10" stroke-width="6.018"/>
        <rect id="Rectángulo_407888" data-name="Rectángulo 407888" width="47.358" height="17.694" transform="translate(314.564 275.192)" fill="#f67d68"/>
        <rect id="Rectángulo_407889" data-name="Rectángulo 407889" width="47.358" height="17.694" transform="translate(314.837 251.773)" fill="#064260"/>
        <path id="Trazado_903688" data-name="Trazado 903688" d="M306.4,225.893h-39.87V173.671h52.222v39.87L306.4,225.893" transform="translate(-91.54 -59.647)" fill="#f67d68"/>
        <path id="Trazado_903689" data-name="Trazado 903689" d="M326.857,246.456c3.227-4.694.587-12.029.587-12.029l12.029-.03s-8.647,13.87-12.616,12.058" transform="translate(-112.258 -80.503)" fill="#f6ada0"/>
        <rect id="Rectángulo_407890" data-name="Rectángulo 407890" width="24.644" height="9.667" transform="translate(187.544 108.384)" fill="#ffe18f"/>
        <path id="Trazado_903690" data-name="Trazado 903690" d="M265.118,162.265h-39.87V110.043H277.47v39.87l-12.352,12.352" transform="translate(-77.361 -37.794)" fill="#34755a"/>
        <path id="Trazado_903691" data-name="Trazado 903691" d="M285.573,182.828c3.227-4.694.587-12.029.587-12.029l12.029-.03s-8.647,13.87-12.616,12.058" transform="translate(-98.079 -58.651)" fill="#659c85"/>
        <rect id="Rectángulo_407891" data-name="Rectángulo 407891" width="24.644" height="9.667" transform="translate(160.438 66.609)" fill="#ffe18f"/>
        <path id="Trazado_903692" data-name="Trazado 903692" d="M415.624,143.55c-26.17,0-30.136-30.136-30.136-30.136l-10.31,3.172s15.464,70.184-7.666,66.087v48.9h48.9" transform="translate(-126.221 -38.952)" fill="none" stroke="#064260" stroke-miterlimit="10" stroke-width="0.752"/>
        <g id="Grupo_1114727" data-name="Grupo 1114727" transform="translate(289.825 82.815)" opacity="0.49">
          <g id="Grupo_1114726" data-name="Grupo 1114726">
            <g id="Grupo_1114725" data-name="Grupo 1114725" clip-path="url(#clip-path-5)">
              <line id="Línea_840" data-name="Línea 840" y2="2.964" transform="translate(0.37 0.371)" fill="none" stroke="#064260" stroke-linecap="round" stroke-linejoin="round" stroke-width="1.128"/>
              <line id="Línea_841" data-name="Línea 841" y2="108.489" transform="translate(0.37 9.534)" fill="none" stroke="#064260" stroke-linecap="round" stroke-linejoin="round" stroke-width="1.128" stroke-dasharray="9.442 9.442"/>
              <line id="Línea_842" data-name="Línea 842" y2="2.964" transform="translate(0.37 121.122)" fill="none" stroke="#064260" stroke-linecap="round" stroke-linejoin="round" stroke-width="1.128"/>
            </g>
          </g>
        </g>
        <line id="Línea_843" data-name="Línea 843" y1="30.879" transform="translate(267.313 161.406)" fill="none" stroke="#064260" stroke-miterlimit="10" stroke-width="1.816"/>
        <path id="Trazado_903693" data-name="Trazado 903693" d="M265.133,402.726c0-14.194,4.4-16.152,10.278-23.493s5.384-12.725,5.384-12.725l85.653,12.725v41.6L280.8,433.561s.49-5.384-5.384-12.726-10.278-9.3-10.278-23.493" transform="translate(-91.059 -125.876)" fill="none" stroke="#064260" stroke-miterlimit="10" stroke-width="0.913"/>
        <g id="Grupo_1114730" data-name="Grupo 1114730" transform="translate(163.006 271.655)" opacity="0.49">
          <g id="Grupo_1114729" data-name="Grupo 1114729">
            <g id="Grupo_1114728" data-name="Grupo 1114728" clip-path="url(#clip-path-6)">
              <line id="Línea_844" data-name="Línea 844" x2="126.765" transform="translate(0.3 0.3)" fill="none" stroke="#064260" stroke-linecap="round" stroke-linejoin="round" stroke-width="0.913" stroke-dasharray="7.306 7.306"/>
            </g>
          </g>
        </g>
        <path id="Trazado_903694" data-name="Trazado 903694" d="M323.253,299.477a24.449,24.449,0,0,1,11.3,32.743c-.347.712.718,1.339,1.066.624a26.172,26.172,0,0,0,2.2-16.269,25.773,25.773,0,0,0-13.949-18.164c-.711-.348-1.337.717-.623,1.066" transform="translate(-110.912 -102.465)" fill="#064260"/>
        <path id="Trazado_903695" data-name="Trazado 903695" d="M333.906,335.552a32.666,32.666,0,0,1,2.631,11.546.626.626,0,0,0,1.054.437l11.581-9.441c.616-.5-.262-1.372-.873-.873l-11.581,9.441,1.054.437a34.327,34.327,0,0,0-2.8-12.169c-.314-.727-1.378-.1-1.066.623" transform="translate(-114.66 -114.919)" fill="#064260"/>
        <path id="Trazado_903696" data-name="Trazado 903696" d="M356.467,181.755h29.565a.618.618,0,0,0,0-1.235H356.467a.618.618,0,0,0,0,1.235" transform="translate(-122.223 -61.999)" fill="#064260"/>
        <path id="Trazado_903697" data-name="Trazado 903697" d="M394.984,169.421a20.793,20.793,0,0,0,6.416,8.091l-.125-.97a37.626,37.626,0,0,1-6.1,5.818c-.626.473-.012,1.546.623,1.066a38.9,38.9,0,0,0,6.355-6.011.632.632,0,0,0-.125-.97,19.593,19.593,0,0,1-5.973-7.648c-.321-.725-1.385-.1-1.066.622" transform="translate(-135.63 -57.863)" fill="#064260"/>
        <path id="Trazado_903698" data-name="Trazado 903698" d="M444.358,120.059a7.384,7.384,0,1,0-7.384,7.384,7.384,7.384,0,0,0,7.384-7.384" transform="translate(-147.542 -38.698)" fill="#34755a"/>
        <path id="Trazado_903699" data-name="Trazado 903699" d="M241.807,409.177a7.384,7.384,0,1,0-7.384,7.384,7.384,7.384,0,0,0,7.384-7.384" transform="translate(-77.976 -137.995)" fill="#f67d68"/>
        <path id="Trazado_903700" data-name="Trazado 903700" d="M611.385,150.022a15.854,15.854,0,0,0-3.662,6.611,11.907,11.907,0,0,0,.442,7.487" transform="translate(-208.583 -51.525)" fill="none" stroke="#0d294d" stroke-linecap="round" stroke-miterlimit="10" stroke-width="1.505"/>
        <path id="Trazado_903701" data-name="Trazado 903701" d="M652.41,154.576c-.288-3.441-7.686-6.772-5.6-11.024s2.612-5.315-2.561-8.112-2.993-2.587-3.483-8.818-8.732-6.478-8.732-6.478c-5.771-.426-11.863.794-16.464,4.3-1.68,1.282-4.776,6.74-4.244,8.778,0,0,4.283-.135-.96,7.846s-1.525,12.3.275,13.383l33.55-.616.157-3.831,1.33,3.8Z" transform="translate(-208.705 -41.235)" fill="#0d294d"/>
        <path id="Trazado_903702" data-name="Trazado 903702" d="M614.093,153.626a5.254,5.254,0,1,0,2.544.293" transform="translate(-209.339 -52.762)" fill="none" stroke="#34755a" stroke-miterlimit="10" stroke-width="1.505"/>
        <path id="Trazado_903703" data-name="Trazado 903703" d="M616.264,153.163a.547.547,0,1,0-.471.615A.548.548,0,0,0,616.264,153.163Z" transform="translate(-211.28 -52.44)" fill="none" stroke="#34755a" stroke-miterlimit="10" stroke-width="1.505"/>
        <path id="Trazado_903704" data-name="Trazado 903704" d="M633.759,139.563a.49.49,0,0,0,.553.439c1.154-.158,3.786-.756,4.561,2.216.784,3-1.9,5.1-3.637,5.431-.5.095-1.654.352-1.947.769-.9,1.284-1.066,3.852-1.465,7.078a8.937,8.937,0,0,0,4.947,9.559s-16.877,11.255-17.883,2.337c0,0-.733-16.552-.827-16.625-1.595-1.223-7.147-1.106-5.245-13.224,1.761-11.226,9.79-11.5,11.852-11.412,1.741.077,7.693-.332,9.092,13.429" transform="translate(-210.335 -43.317)" fill="#f79354"/>
        <path id="Trazado_903705" data-name="Trazado 903705" d="M648.823,151.625s-2.32-3.589-3.946,1.845" transform="translate(-221.481 -51.676)" fill="#d96c21"/>
        <path id="Trazado_903706" data-name="Trazado 903706" d="M628.366,148.621a2.735,2.735,0,1,0,3.016,2.423,2.735,2.735,0,0,0-3.016-2.423" transform="translate(-214.973 -51.038)" fill="#f78737"/>
        <path id="Trazado_903707" data-name="Trazado 903707" d="M612.544,149.766a2.736,2.736,0,0,0,.247-5.115,13.336,13.336,0,0,0-.247,5.115" transform="translate(-210.315 -49.68)" fill="#f78737"/>
        <path id="Trazado_903708" data-name="Trazado 903708" d="M615.831,149.855l4.406,1.514s-1.828,1.738-3.027,1.077-1.379-2.591-1.379-2.591" transform="translate(-211.505 -51.467)" fill="#fff"/>
        <path id="Trazado_903709" data-name="Trazado 903709" d="M619.653,144.726l-.265,3.037-1.52-.445a.385.385,0,0,1-.164-.641Z" transform="translate(-212.11 -49.706)" fill="#f67216"/>
        <path id="Trazado_903710" data-name="Trazado 903710" d="M626.688,140.98c.425.454-.014-1.268-.656-1.591a1.223,1.223,0,0,0-1.67.417,3.826,3.826,0,0,1,2.326,1.175" transform="translate(-214.436 -47.818)"/>
        <path id="Trazado_903711" data-name="Trazado 903711" d="M615.355,138.343c-.571.245.522-1.156,1.24-1.194a1.224,1.224,0,0,1,1.362,1.054,3.825,3.825,0,0,0-2.6.141" transform="translate(-211.287 -47.103)"/>
        <path id="Trazado_903712" data-name="Trazado 903712" d="M624.2,145.122c-.134.521-.448.89-.7.825s-.348-.54-.214-1.06.448-.89.7-.825.348.54.213,1.06" transform="translate(-214.045 -49.475)"/>
        <path id="Trazado_903713" data-name="Trazado 903713" d="M618.025,143.14c-.128.5-.427.85-.668.787s-.333-.515-.2-1.012.427-.85.668-.787.332.515.2,1.012" transform="translate(-211.939 -48.811)"/>
        <path id="Trazado_903714" data-name="Trazado 903714" d="M621.009,163.543a43.743,43.743,0,0,0,7.862-.207c2.579-.511-6.336,8.653-7.862.207" transform="translate(-213.284 -56.09)" fill="#d96c21"/>
        <path id="Trazado_903715" data-name="Trazado 903715" d="M653.332,123.512c1.818,1.513,3.737,3.507,3.43,5.852a10.613,10.613,0,0,0-.475,2.777,3.173,3.173,0,0,0,1.9,2.236,26.248,26.248,0,0,0,2.9.96c2.956,1.027,5.475,4.14,4.616,7.149-.3,1.046-.973,2-1,3.089A5.409,5.409,0,0,0,666.428,149l4.518,5.225" transform="translate(-224.385 -42.42)" fill="none" stroke="#0d294d" stroke-linecap="round" stroke-miterlimit="10" stroke-width="1.505"/>
        <path id="Trazado_903716" data-name="Trazado 903716" d="M621.313,124.02s-1.57,5.675,2.556,4.3,4.974-2.479,7.148,2.7.869,7.837,7.622,6.284c0,0,3.727-27-17.326-13.287" transform="translate(-213.288 -41.26)" fill="#0d294d"/>
        <path id="Trazado_903717" data-name="Trazado 903717" d="M610.438,141.9l.585.119a.586.586,0,0,0,.691-.456l.025-.122a.585.585,0,0,0-.456-.691l-.585-.119Z" transform="translate(-209.653 -48.299)"/>
        <path id="Trazado_903718" data-name="Trazado 903718" d="M610.438,141.9l.585.119a.586.586,0,0,0,.691-.456l.025-.122a.585.585,0,0,0-.456-.691l-.585-.119Z" transform="translate(-209.653 -48.299)" fill="none" stroke="#000" stroke-miterlimit="10" stroke-width="0.44"/>
        <g id="Grupo_1114733" data-name="Grupo 1114733" transform="translate(407.887 90.918)" opacity="0.27">
          <g id="Grupo_1114732" data-name="Grupo 1114732">
            <g id="Grupo_1114731" data-name="Grupo 1114731" clip-path="url(#clip-path-7)">
              <path id="Trazado_903719" data-name="Trazado 903719" d="M621.375,142.462c-.529,2.59.731,5.035,2.815,5.461s4.2-1.33,4.729-3.921-.731-5.035-2.815-5.46-4.2,1.33-4.73,3.92" transform="translate(-621.255 -138.478)" fill="#fff"/>
            </g>
          </g>
        </g>
        <path id="Trazado_903720" data-name="Trazado 903720" d="M621.375,142.462c-.529,2.59.731,5.035,2.815,5.461s4.2-1.33,4.729-3.921-.731-5.035-2.815-5.46S621.9,139.872,621.375,142.462Z" transform="translate(-213.368 -47.56)" fill="none" stroke="#34755a" stroke-miterlimit="10" stroke-width="0.499"/>
        <path id="Trazado_903721" data-name="Trazado 903721" d="M610.165,140c-.515,2.525.414,4.847,2.077,5.187s3.427-1.433,3.943-3.958-.414-4.847-2.076-5.187S610.68,137.478,610.165,140Z" transform="translate(-209.511 -46.71)" fill="none" stroke="#000" stroke-miterlimit="10" stroke-width="0.44"/>
        <path id="Trazado_903722" data-name="Trazado 903722" d="M610.165,140c-.515,2.525.414,4.847,2.077,5.187s3.427-1.433,3.943-3.958-.414-4.847-2.076-5.187S610.68,137.478,610.165,140Z" transform="translate(-209.511 -46.71)" fill="none" stroke="#000" stroke-miterlimit="10" stroke-width="0.44"/>
        <g id="Grupo_1114736" data-name="Grupo 1114736" transform="translate(400.512 89.294)" opacity="0.27">
          <g id="Grupo_1114735" data-name="Grupo 1114735">
            <g id="Grupo_1114734" data-name="Grupo 1114734" clip-path="url(#clip-path-8)">
              <path id="Trazado_903723" data-name="Trazado 903723" d="M610.165,140c-.515,2.525.414,4.847,2.077,5.187s3.427-1.433,3.943-3.958-.414-4.847-2.076-5.187-3.428,1.433-3.943,3.958" transform="translate(-610.022 -136.004)" fill="#fff"/>
            </g>
          </g>
        </g>
        <g id="Grupo_1114739" data-name="Grupo 1114739" transform="translate(412.254 90.923)" opacity="0.27">
          <g id="Grupo_1114738" data-name="Grupo 1114738">
            <g id="Grupo_1114737" data-name="Grupo 1114737" clip-path="url(#clip-path-9)">
              <path id="Trazado_903724" data-name="Trazado 903724" d="M627.907,138.485a3.1,3.1,0,0,1,.483.058A3.909,3.909,0,0,1,631.263,142c-1.165-1.126-2.274-2.307-3.356-3.514" transform="translate(-627.907 -138.485)" fill="#fff"/>
            </g>
          </g>
        </g>
        <g id="Grupo_1114742" data-name="Grupo 1114742" transform="translate(409.749 91.466)" opacity="0.27">
          <g id="Grupo_1114741" data-name="Grupo 1114741">
            <g id="Grupo_1114740" data-name="Grupo 1114740" clip-path="url(#clip-path-10)">
              <path id="Trazado_903725" data-name="Trazado 903725" d="M624.091,139.7a4.289,4.289,0,0,1,.519-.385,66.176,66.176,0,0,0,5.189,5.367,5.769,5.769,0,0,1-.241.687q-2.765-2.8-5.467-5.67" transform="translate(-624.091 -139.313)" fill="#fff"/>
            </g>
          </g>
        </g>
        <g id="Grupo_1114745" data-name="Grupo 1114745" transform="translate(407.887 94.263)" opacity="0.27">
          <g id="Grupo_1114744" data-name="Grupo 1114744">
            <g id="Grupo_1114743" data-name="Grupo 1114743" clip-path="url(#clip-path-11)">
              <path id="Trazado_903726" data-name="Trazado 903726" d="M626.683,149.171a3.382,3.382,0,0,1-2.494.5c-2.083-.425-3.344-2.87-2.815-5.461a5.836,5.836,0,0,1,.169-.638c1.671,1.9,3.375,3.78,5.139,5.6" transform="translate(-621.255 -143.573)" fill="#fff"/>
            </g>
          </g>
        </g>
        <g id="Grupo_1114748" data-name="Grupo 1114748" transform="translate(400.512 90.986)" opacity="0.27">
          <g id="Grupo_1114747" data-name="Grupo 1114747">
            <g id="Grupo_1114746" data-name="Grupo 1114746" clip-path="url(#clip-path-12)">
              <path id="Trazado_903727" data-name="Trazado 903727" d="M613.676,145.872c-1.174-1.189-2.4-2.322-3.65-3.43a6.855,6.855,0,0,1,.139-1.553,6.525,6.525,0,0,1,.941-2.307,34.4,34.4,0,0,0,4.578,5.061,4.542,4.542,0,0,1-2.008,2.23" transform="translate(-610.023 -138.582)" fill="#fff"/>
            </g>
          </g>
        </g>
        <g id="Grupo_1114751" data-name="Grupo 1114751" transform="translate(403.817 89.294)" opacity="0.27">
          <g id="Grupo_1114750" data-name="Grupo 1114750">
            <g id="Grupo_1114749" data-name="Grupo 1114749" clip-path="url(#clip-path-13)">
              <path id="Trazado_903728" data-name="Trazado 903728" d="M615.056,136.036a2.1,2.1,0,0,1,.781.01c1.28.261,2.125,1.7,2.211,3.5q-1.484-1.765-2.991-3.51" transform="translate(-615.056 -136.004)" fill="#fff"/>
            </g>
          </g>
        </g>
        <path id="Trazado_903729" data-name="Trazado 903729" d="M610.165,140c-.515,2.525.414,4.847,2.077,5.187s3.427-1.433,3.943-3.958-.414-4.847-2.076-5.187S610.68,137.478,610.165,140Z" transform="translate(-209.511 -46.71)" fill="none" stroke="#34755a" stroke-miterlimit="10" stroke-width="0.44"/>
        <path id="Trazado_903730" data-name="Trazado 903730" d="M620.623,144.759s-.3-2.188-1.379-.282" transform="translate(-212.678 -49.352)" fill="none" stroke="#34755a" stroke-miterlimit="10" stroke-width="0.499"/>
        <path id="Trazado_903731" data-name="Trazado 903731" d="M632.962,146.5l.585.119a.586.586,0,0,0,.691-.456l.025-.122a.585.585,0,0,0-.456-.691l-.585-.119Z" transform="translate(-217.389 -49.878)" fill="#34755a"/>
        <path id="Trazado_903732" data-name="Trazado 903732" d="M632.962,146.5l.585.119a.586.586,0,0,0,.691-.456l.025-.122a.585.585,0,0,0-.456-.691l-.585-.119Z" transform="translate(-217.389 -49.878)" fill="none" stroke="#34755a" stroke-miterlimit="10" stroke-width="0.44"/>
        <line id="Línea_845" data-name="Línea 845" x1="8.159" y1="0.588" transform="translate(415.716 95.986)" fill="none" stroke="#34755a" stroke-miterlimit="10" stroke-width="0.44"/>
        <path id="Trazado_903733" data-name="Trazado 903733" d="M646.175,154.524a5.254,5.254,0,1,0,2.544.293" transform="translate(-220.358 -53.071)" fill="none" stroke="#34755a" stroke-miterlimit="10" stroke-width="1.505"/>
        <path id="Trazado_903734" data-name="Trazado 903734" d="M648.345,154.061a.548.548,0,1,0-.471.615A.548.548,0,0,0,648.345,154.061Z" transform="translate(-222.298 -52.748)" fill="none" stroke="#34755a" stroke-miterlimit="10" stroke-width="1.505"/>
        <path id="Trazado_903735" data-name="Trazado 903735" d="M706.741,558.776c0-1.724-24.3-3.122-54.265-3.122s-54.266,1.4-54.266,3.122,24.3,3.122,54.266,3.122,54.265-1.4,54.265-3.122" transform="translate(-205.454 -190.838)" fill="#064260"/>
        <path id="Trazado_903736" data-name="Trazado 903736" d="M619.733,513.293l-3.2,24.09a28.005,28.005,0,0,1,1.478,6.9c-3.185,2.188-14.1,1.742-15.521,0a23.747,23.747,0,0,0,4.927-7.556l-3.449-23.871Z" transform="translate(-206.923 -176.139)" fill="#d96c21"/>
        <path id="Trazado_903737" data-name="Trazado 903737" d="M617,519.314l4.188,28.58s.924.724,1.807-1.15c.53-1.125-.164-1.971-1.4-6.488l2.546-21.188Z" transform="translate(-211.906 -178.273)" fill="#f78737"/>
        <path id="Trazado_903738" data-name="Trazado 903738" d="M692.132,512.855l7.336,22.01s-.985,7.994-1.2,8.541c-.777,1.942,7.993-8.869,7.993-8.869l.766-21.243Z" transform="translate(-237.711 -176.139)" fill="#d96c21"/>
        <path id="Trazado_903739" data-name="Trazado 903739" d="M703.473,512.855l4.241,26.01s7.544,5.193,8.132,3.555c.245-.681-4.482-6.186-5.454-7.938l.527-21.19Z" transform="translate(-241.606 -176.139)" fill="#f78737"/>
        <path id="Trazado_903740" data-name="Trazado 903740" d="M588.978,558.117c-.575.427-.165,1.147.658,1.154l16.6.135c.4,0,7.959-.416,8.256-.614.031-.021-.821-3.162-.821-3.162l-7.535,1.889s-2.932-6.853-3.449-7.309c-.349-.308-13.706,7.908-13.706,7.908" transform="translate(-202.191 -188.965)" fill="#ffe18f"/>
        <path id="Trazado_903741" data-name="Trazado 903741" d="M715.72,554.635a2.084,2.084,0,0,1-.93,3.014c-2,1.188-5.261,2.974-5.261,2.974s-5.42-1.707-7.477-2.6c-1.38-.6-2.461-1.483-2.29-2.637l.24-1.548c.02-.133,3.614-6.131,3.614-6.131l5.256-.657Z" transform="translate(-240.326 -187.881)" fill="#ffe18f"/>
        <path id="Trazado_903742" data-name="Trazado 903742" d="M636.951,256.828c5.155,9.112,7.879,15.787,10.841,27.372,3.435,13.436,36.026,116.636,43.034,142.04-4.234,1.021-37.806-.243-40.48-.391-8.512-24.39-25.395-93.007-29.044-108.372-.561-2.362-3.031-1.834-2.746.576,2.071,17.547,11.826,84.972,11.826,110.815-2.22,1.13-37.293,1.2-39.858.876-2.789-30.1-8.966-136.726,13.38-173.657,10.217-1.41,22.686.432,33.047.741" transform="translate(-201.803 -87.772)" fill="#064260"/>
        <path id="Trazado_903743" data-name="Trazado 903743" d="M608.152,262.456s-12.085,23.111-12.085,54.9,2.627,114.756,2.627,114.756" transform="translate(-204.718 -90.14)" fill="none" stroke="#fff" stroke-miterlimit="10" stroke-width="0.607"/>
        <line id="Línea_846" data-name="Línea 846" x1="48.509" y1="168.521" transform="translate(430.003 169.509)" fill="none" stroke="#fff" stroke-miterlimit="10" stroke-width="0.607"/>
        <path id="Trazado_903744" data-name="Trazado 903744" d="M644.6,257.513s.833,32.214,13.9,29.918" transform="translate(-221.386 -88.442)" fill="none" stroke="#fff" stroke-miterlimit="10" stroke-width="0.607"/>
        <g id="Grupo_1114754" data-name="Grupo 1114754" transform="translate(400.716 166.114)" opacity="0.21" style="mix-blend-mode: multiply;isolation: isolate">
          <g id="Grupo_1114753" data-name="Grupo 1114753">
            <g id="Grupo_1114752" data-name="Grupo 1114752" clip-path="url(#clip-path-14)">
              <path id="Trazado_903745" data-name="Trazado 903745" d="M610.333,256.081l44.726,29.779s-2.628-17.52-11.826-32.851Z" transform="translate(-610.333 -253.01)"/>
            </g>
          </g>
        </g>
        <path id="Trazado_903746" data-name="Trazado 903746" d="M599.4,291.335c13.068,2.3,14.045-26.847,14.045-26.847" transform="translate(-205.863 -90.838)" fill="none" stroke="#fff" stroke-miterlimit="10" stroke-width="0.607"/>
        <path id="Trazado_903747" data-name="Trazado 903747" d="M513.6,228.936c9.412-.29,15.7-.279,16.575-.21l30.341-.664-.091-.078s1.532-.008,2.61-.089a1.2,1.2,0,0,0,1.078-.915c2.911-12.28,8.8-44.649,19.358-42.009.153.038,3.714.559,3.335,1.037-3.457,4.356-9.762,25.757-9.762,25.757-.074.324-.063,1.759-.056,3.828,3.717,21.3-.728,22.954-.728,22.954a10.185,10.185,0,0,1-2.24.987c-.016.022-.032.045-.049.066l-.043-.037c-13.549,4.21-52.747-4.942-52.747-4.942-3.193-.858-10.309-5.6-7.58-5.685" transform="translate(-176.185 -63.476)" fill="#f79354"/>
        <path id="Trazado_903748" data-name="Trazado 903748" d="M613.814,184.971c-5.241-1.31-9.33,6-12.477,15.2,2.1,3.979,4.161,7.971,6.007,12.065a3.233,3.233,0,0,1,.042-.475s6.3-21.4,9.762-25.757c.379-.478-3.182-1-3.334-1.037" transform="translate(-206.528 -63.476)" fill="#d96c21"/>
        <path id="Trazado_903749" data-name="Trazado 903749" d="M599.893,260.313a17.316,17.316,0,0,0-.06,3.011,22.616,22.616,0,0,0,3.908-.789l.043.037c.016-.021.032-.045.049-.067a10.131,10.131,0,0,0,2.24-.986s2.395-.9,2.2-9.811c-4.246.372-7.911,4.63-8.376,8.6" transform="translate(-205.998 -86.449)" fill="#d96c21"/>
        <path id="Trazado_903750" data-name="Trazado 903750" d="M608.736,198.551,597.567,193.3s5.585-9.856,16.1-8.87" transform="translate(-205.233 -63.317)" fill="#34755a"/>
        <path id="Trazado_903751" data-name="Trazado 903751" d="M530.655,249.732s-7.118-4.507-7.416-3.415c-.586,2.147,5.329,4.405,4.586,5.074,0,0,1.715-1.065,2.83-1.659" transform="translate(-179.691 -84.538)" fill="#fcb6a3"/>
        <path id="Trazado_903752" data-name="Trazado 903752" d="M614.6,182.3c.3.721-10.825,22.361-10.471,29.436.357,7.128,2.637,10.555,2.259,11.627,0,0,4.971,4.8,35.479,0,.438-7.446,9.855-23.652-2.19-36.573-1.323-2.063-7.276-6.453-10.293-7.665,0,0-2.75,6.747-14.782,3.176" transform="translate(-207.484 -61.52)" fill="#34755a"/>
        <path id="Trazado_903753" data-name="Trazado 903753" d="M642.558,251.445l2.3-9.183s.219.438-4.38,1.533-5.913-4.38-9.636-2.409,0,5.037-5.256,4.6-7.008-7.884-10.512-5.694-11.169,1.314-11.169,1.314l5.606,9.1Z" transform="translate(-207.41 -82.389)" fill="#064260"/>
        <line id="Línea_847" data-name="Línea 847" x2="33.047" y2="0.741" transform="translate(402.101 168.315)" fill="none" stroke="#fff" stroke-miterlimit="10" stroke-width="0.607"/>
        <path id="Trazado_903754" data-name="Trazado 903754" d="M570.65,225.4c-3.926,0-9.448-1.828-15.472-9.406l4.64-3.689c3.958,4.981,8.071,7.523,11.543,7.13,2.62-.288,4.977-2.207,6.466-5.268.716-1.473,1.463-3.038,2.236-4.658,5.791-12.139,9.62-34.35,18.818-33.474l.219,5.147c-6.9,2.409-8.508,20.022-13.688,30.879-.781,1.636-1.533,3.214-2.256,4.7-2.4,4.929-6.462,8.051-11.148,8.566a12.55,12.55,0,0,1-1.359.074" transform="translate(-190.674 -60.448)" fill="#ffe18f"/>
        <path id="Trazado_903755" data-name="Trazado 903755" d="M631.2,171.206c-1.331,3.336-.719,5.524-1.614,9.026a4.808,4.808,0,0,1-1.165,2.174,46.254,46.254,0,0,1-5.093,8.962c-.344.517-.689,1.033-1.028,1.548-7.924,12.033-12.108,23.046-12.792,33.675-.879,13.656,4.584,26.445,14.26,33.376l3.451-4.819c-8.024-5.748-12.544-16.545-11.8-28.176.616-9.573,4.485-19.646,11.827-30.8.332-.5.67-1.01,1.008-1.517,2.956-4.428,6.011-9.005,6.906-14.583.632-3.939-1.907-6.093-3.965-8.87" transform="translate(-209.302 -58.8)" fill="#ffe18f"/>
        <path id="Trazado_903756" data-name="Trazado 903756" d="M576.458,211.5s26.924,34.715,33.254,30.25c0,0,32.85-40.3,18.4-51.027-8.584-6.374-14.673,19.052-23.214,33.507-.261.442-22.234-19.107-22.234-19.107s-10.372-13.713-11.1-12.929c-1.048,1.136,2.97,7.251,2.97,7.251a2.057,2.057,0,0,1-1.049,1.048A2.484,2.484,0,0,0,572,202.418c-.262,1.049-1.31,1.66-1.485,2.271s3.727,5.213,5.94,6.814" transform="translate(-195.941 -65.159)" fill="#f79354"/>
        <path id="Trazado_903757" data-name="Trazado 903757" d="M653.564,210.865c3.421-8.385,4.44-16.226-.829-20.138-3.861-2.867-7.218.709-10.519,6.817q5.83,6.529,11.349,13.321" transform="translate(-220.567 -65.159)" fill="#d96c21"/>
        <path id="Trazado_903758" data-name="Trazado 903758" d="M622.072,262.156a15.5,15.5,0,0,0-1.25,2.052c2.658,1.783,4.856,2.544,6.169,1.618,0,0,1.286-1.58,3.235-4.189-2.826-2.123-5.621-2.911-8.154.519" transform="translate(-213.22 -89.232)" fill="#d96c21"/>
        <path id="Trazado_903759" data-name="Trazado 903759" d="M639.263,199.274l22.994,6.789s-4.237-14.011-10.73-18.177c-5.8-3.723-6.352-1.971-6.352-1.971Z" transform="translate(-219.553 -63.711)" fill="#34755a"/>
        <rect id="Rectángulo_407902" data-name="Rectángulo 407902" width="7.367" height="144.541" transform="translate(323.24 224.259)" fill="#165c80"/>
        <g id="Grupo_1114757" data-name="Grupo 1114757" transform="translate(323.239 224.259)" style="mix-blend-mode: multiply;isolation: isolate">
          <g id="Grupo_1114756" data-name="Grupo 1114756">
            <g id="Grupo_1114755" data-name="Grupo 1114755" clip-path="url(#clip-path-15)">
              <path id="Trazado_903760" data-name="Trazado 903760" d="M499.7,346.764V341.57h-7.367v24.252q3.561-9.574,7.367-19.058" transform="translate(-492.328 -341.571)" fill="#064260"/>
            </g>
          </g>
        </g>
        <g id="Grupo_1114760" data-name="Grupo 1114760" transform="translate(323.239 355.428)" style="mix-blend-mode: multiply;isolation: isolate">
          <g id="Grupo_1114759" data-name="Grupo 1114759">
            <g id="Grupo_1114758" data-name="Grupo 1114758" clip-path="url(#clip-path-16)">
              <path id="Trazado_903761" data-name="Trazado 903761" d="M492.328,541.356v13.371H499.7V543.71q-3.67-1.217-7.367-2.354" transform="translate(-492.328 -541.356)" fill="#064260"/>
            </g>
          </g>
        </g>
        <path id="Trazado_903762" data-name="Trazado 903762" d="M506.647,558.823H468.979a9.776,9.776,0,0,1,9.777-9.776h18.116a9.776,9.776,0,0,1,9.776,9.776" transform="translate(-161.07 -188.569)" fill="#f67d68"/>
        <path id="Trazado_903763" data-name="Trazado 903763" d="M501.524,238.19a16.4,16.4,0,0,1-1.607-11.569c2.419-10.731,8.557-26.183,8.557-26.183a13.589,13.589,0,0,0-8.161-16.407l-7.658-2.964c-1.826-.707-5.541-2.463-5.541-4.421v-9.2H465.653v9.2c0,1.958-3.794,3.714-5.619,4.421l-7.658,2.964a13.589,13.589,0,0,0-8.161,16.407s6.139,15.456,8.558,26.187a16.744,16.744,0,0,1-1.651,11.667c-12.28,22.662-16.059,47.859-16.059,47.859h82.563s-.97-20.691-16.1-47.96" transform="translate(-149.421 -57.51)" fill="#064260"/>
        <g id="Grupo_1114772" data-name="Grupo 1114772" transform="translate(285.641 125.818)" opacity="0.45">
          <g id="Grupo_1114771" data-name="Grupo 1114771">
            <g id="Grupo_1114770" data-name="Grupo 1114770" clip-path="url(#clip-path-17)">
              <g id="Grupo_1114763" data-name="Grupo 1114763" transform="translate(8.626)" style="mix-blend-mode: multiply;isolation: isolate">
                <g id="Grupo_1114762" data-name="Grupo 1114762">
                  <g id="Grupo_1114761" data-name="Grupo 1114761" clip-path="url(#clip-path-18)">
                    <path id="Trazado_903764" data-name="Trazado 903764" d="M452.608,219.27a39.955,39.955,0,0,1-.482-7.856c.257-6.467,2.574-12.343,5.6-17.985.323-.6.651-1.2.98-1.794l-1.815.7a13.589,13.589,0,0,0-8.161,16.407s1.827,4.6,3.881,10.526" transform="translate(-448.201 -191.635)" fill="#064260"/>
                  </g>
                </g>
              </g>
              <g id="Grupo_1114766" data-name="Grupo 1114766" transform="translate(54.477 38.125)" style="mix-blend-mode: multiply;isolation: isolate">
                <g id="Grupo_1114765" data-name="Grupo 1114765">
                  <g id="Grupo_1114764" data-name="Grupo 1114764" clip-path="url(#clip-path-19)">
                    <path id="Trazado_903765" data-name="Trazado 903765" d="M529.748,249.7c-6.711,3.934-15.009,10.08-10.358,16.527,2.544,3.526,8.022,4.638,13.243,5.122q-1.231-2.417-2.612-4.912a16.4,16.4,0,0,1-1.607-11.569c.368-1.636.827-3.384,1.333-5.168" transform="translate(-518.037 -249.704)" fill="#064260"/>
                  </g>
                </g>
              </g>
              <g id="Grupo_1114769" data-name="Grupo 1114769" transform="translate(0 39.831)" style="mix-blend-mode: multiply;isolation: isolate">
                <g id="Grupo_1114768" data-name="Grupo 1114768">
                  <g id="Grupo_1114767" data-name="Grupo 1114767" clip-path="url(#clip-path-20)">
                    <path id="Trazado_903766" data-name="Trazado 903766" d="M457.667,305.475a30.624,30.624,0,0,1-6.035-21.737c.75-7.716,4.113-13.574,8.343-19.356a49.538,49.538,0,0,1-8.065-12.08c.32,1.19.612,2.354.862,3.465a16.747,16.747,0,0,1-1.651,11.667c-12.28,22.662-16.059,47.859-16.059,47.859h33.732a40.788,40.788,0,0,1-11.127-9.817" transform="translate(-435.062 -252.302)" fill="#064260"/>
                  </g>
                </g>
              </g>
            </g>
          </g>
        </g>
        <path id="Trazado_903767" data-name="Trazado 903767" d="M512.423,183.128s-2.227,5.508-7.023,7.437l-6.212,9.3.533,39.108,23.652.219,3.285-21.681s-11.827-3.066-7.227-30.879Z" transform="translate(-171.445 -62.895)" fill="#f67d68"/>
        <path id="Trazado_903768" data-name="Trazado 903768" d="M507.167,203.663l-1.767-9.207-6.212,9.3Z" transform="translate(-171.445 -66.785)" fill="#f6ada0"/>
        <line id="Línea_848" data-name="Línea 848" x1="2.753" y2="9.391" transform="translate(341.62 112.404)" fill="none" stroke="#064260" stroke-linecap="round" stroke-miterlimit="10" stroke-width="0.752"/>
        <path id="Trazado_903769" data-name="Trazado 903769" d="M525.143,170.516a1.314,1.314,0,1,0-1.314,1.314,1.314,1.314,0,0,0,1.314-1.314" transform="translate(-179.456 -58.112)" fill="#f67d68"/>
        <line id="Línea_849" data-name="Línea 849" x1="9.767" y1="0.619" transform="translate(353.166 157.118)" fill="none" stroke="#064260" stroke-linecap="round" stroke-miterlimit="10" stroke-width="0.752"/>
        <path id="Trazado_903770" data-name="Trazado 903770" d="M552.388,240.845a1.314,1.314,0,1,0-1.571-.993,1.314,1.314,0,0,0,1.571.993" transform="translate(-189.166 -81.826)" fill="#f67d68"/>
        <line id="Línea_850" data-name="Línea 850" x1="4.864" y2="8.492" transform="translate(346.571 116.018)" fill="none" stroke="#064260" stroke-linecap="round" stroke-miterlimit="10" stroke-width="0.752"/>
        <path id="Trazado_903771" data-name="Trazado 903771" d="M535.865,176.325a1.314,1.314,0,1,0-1.584.972,1.314,1.314,0,0,0,1.584-.972" transform="translate(-183.151 -60.002)" fill="#ffe18f"/>
        <circle id="Elipse_11624" data-name="Elipse 11624" cx="4.566" cy="4.566" r="4.566" transform="translate(464.553 198.136) rotate(-22.5)" fill="none" stroke="#34755a" stroke-miterlimit="10" stroke-width="1.505"/>
        <circle id="Elipse_11625" data-name="Elipse 11625" cx="4.566" cy="4.566" r="4.566" transform="translate(47.032 277.128)" fill="none" stroke="#34755a" stroke-miterlimit="10" stroke-width="1.505"/>
        <path id="Trazado_903772" data-name="Trazado 903772" d="M743.956,271.916a6.9,6.9,0,1,0-6.9,6.9,6.9,6.9,0,0,0,6.9-6.9" transform="translate(-250.771 -91.02)" fill="#fbf3e8"/>
        <path id="Trazado_903773" data-name="Trazado 903773" d="M235.392,11.3a4.927,4.927,0,1,0-4.927,4.927,4.927,4.927,0,0,0,4.927-4.927" transform="translate(-77.46 -2.187)" fill="#fbf3e8"/>
        <path id="Trazado_903774" data-name="Trazado 903774" d="M819.477,504.061a7.884,7.884,0,1,0-7.884,7.884,7.884,7.884,0,0,0,7.884-7.884" transform="translate(-276.032 -170.411)" fill="#fbf3e8"/>
        <path id="Trazado_903775" data-name="Trazado 903775" d="M59.751,397.391a8.87,8.87,0,1,0-8.869,8.869,8.869,8.869,0,0,0,8.869-8.869" transform="translate(-14.429 -133.437)" fill="#fbf3e8"/>
        <path id="Trazado_903776" data-name="Trazado 903776" d="M124.2,560.963c0-1.973-27.8-3.573-62.1-3.573S0,558.99,0,560.963s27.8,3.573,62.1,3.573,62.1-1.6,62.1-3.573" transform="translate(0 -191.434)" fill="#064260"/>
        <path id="Trazado_903777" data-name="Trazado 903777" d="M168.364,540.859l-.219-11.826-11.389.876.286,11.365,5.325,9.238,9.585-7.391Z" transform="translate(-53.838 -181.695)" fill="#d1744f"/>
        <path id="Trazado_903778" data-name="Trazado 903778" d="M167.269,529.366l-8.76,18.615s1.69-2.918-1.751-6V529.366Z" transform="translate(-53.838 -181.809)" fill="#944438"/>
        <path id="Trazado_903779" data-name="Trazado 903779" d="M169.039,545.6a53.614,53.614,0,0,1-6.871,6.324c-2.306,1.749-5.738-5.707-6.805-6.64-.217-.19-.512-.019-.55.318l-1.339,12.2H187.2a.78.78,0,0,0,.71-.924c-1.787-9.062-18.869-11.279-18.869-11.279" transform="translate(-52.71 -187.25)" fill="#ffc557"/>
        <path id="Trazado_903780" data-name="Trazado 903780" d="M173.339,557.328s1.314-6.241,5.749-7.392c0,0,6.98,2.3,8.623,7.556H154.04" transform="translate(-52.905 -188.874)" fill="none" stroke="#fff" stroke-miterlimit="10" stroke-width="0.752"/>
        <line id="Línea_851" data-name="Línea 851" x2="6.98" y2="7.638" transform="translate(101.875 360.898)" fill="none" stroke="#fff" stroke-miterlimit="10" stroke-width="0.752"/>
        <path id="Trazado_903781" data-name="Trazado 903781" d="M86.089,543.194l3.5-11.388-12.264-.438L74.7,543.413l4.537,7.9,9.585-7.391Z" transform="translate(-25.656 -182.497)" fill="#d1744f"/>
        <path id="Trazado_903782" data-name="Trazado 903782" d="M86.392,531.806,76.318,545.822s.156.456-3.285-2.628l3.942-11.826Z" transform="translate(-25.083 -182.497)" fill="#944438"/>
        <path id="Trazado_903783" data-name="Trazado 903783" d="M86.364,547.881a53.64,53.64,0,0,1-6.871,6.324c-2.306,1.749-5.738-5.707-6.806-6.64-.217-.19-.512-.019-.55.318l-1.339,12.2h33.725a.78.78,0,0,0,.71-.924c-1.787-9.062-18.869-11.279-18.869-11.279" transform="translate(-24.315 -188.033)" fill="#ffc557"/>
        <path id="Trazado_903784" data-name="Trazado 903784" d="M90.664,559.607s1.314-6.241,5.749-7.391c0,0,6.98,2.3,8.623,7.556H71.365" transform="translate(-24.51 -189.657)" fill="none" stroke="#fff" stroke-miterlimit="10" stroke-width="0.752"/>
        <line id="Línea_852" data-name="Línea 852" x2="6.98" y2="7.638" transform="translate(47.594 362.394)" fill="none" stroke="#fff" stroke-miterlimit="10" stroke-width="0.752"/>
        <path id="Trazado_903785" data-name="Trazado 903785" d="M150.525,322.759s4.337,51.881,4.745,66.215-3.276,70.309-3.276,70.309l-14.494-.046s-15.347-98.913-32.871-133.484Z" transform="translate(-35.935 -110.851)" fill="#053142"/>
        <path id="Trazado_903786" data-name="Trazado 903786" d="M158.9,462.717l-2.3-65.7-10.184-38.435" transform="translate(-50.286 -123.154)" fill="none" stroke="#fff" stroke-miterlimit="10" stroke-width="0.607"/>
        <path id="Trazado_903787" data-name="Trazado 903787" d="M151.061,526.046l16.753-.328.985-9.527H149.418Z" transform="translate(-51.317 -177.284)" fill="#2a7396"/>
        <path id="Trazado_903788" data-name="Trazado 903788" d="M140.677,322.759s-10.029,43.247-20.215,73.844c-8.231,24.725-30.037,63.776-30.037,63.776l-14.577-.638,15.491-62.4A61.585,61.585,0,0,0,93.1,386.069c.9-14.367-2.05-43.4-3.285-62Z" transform="translate(-26.05 -110.851)" fill="#064260"/>
        <path id="Trazado_903789" data-name="Trazado 903789" d="M87.874,464.764c-.328-.985,20.039-60.116,20.039-67.672s-.328-33.507-.328-33.507" transform="translate(-30.179 -124.872)" fill="none" stroke="#fff" stroke-miterlimit="10" stroke-width="0.607"/>
        <path id="Trazado_903790" data-name="Trazado 903790" d="M73.366,526.389l16.206.766,5.475-8.979-20.368-.985Z" transform="translate(-25.197 -177.628)" fill="#2a7396"/>
        <path id="Trazado_903791" data-name="Trazado 903791" d="M102.2,184.084S79.541,186.4,78.114,205.159s8,96.566,8,96.566l61.759-3.943-5.822-88.188a27.32,27.32,0,0,0-4.27-13.42c-2.368-3.7-5.142-7.892-6.718-8.089l-25.4-6.531Z" transform="translate(-26.778 -62.354)" fill="#ffe18f"/>
        <path id="Trazado_903792" data-name="Trazado 903792" d="M96.956,188.465c-15.111,2.3-18.129,9.687-18.842,19.067-1.427,18.761,8,95.909,8,95.909l61.1-3.285" transform="translate(-26.778 -64.728)" fill="#ffc557"/>
      </g>
    </g>
    <g id="Grupo_1114776" data-name="Grupo 1114776" transform="translate(51.19 119.2)">
      <g id="Grupo_1114775" data-name="Grupo 1114775" clip-path="url(#clip-path-21)">
        <path id="Trazado_903793" data-name="Trazado 903793" d="M122.892,190.728a93,93,0,0,0,4.15,10.951,57.019,57.019,0,0,0,4.944,9.051,25.4,25.4,0,0,0,6.357,6.58c2.963,2.032,6.255,2.689,9.745,3.234s7.955,1.513,9.426,5.223c.29.73,1.484.412,1.191-.328-2.775-7-11.852-5.215-17.433-7.862-5.931-2.813-9.507-8.879-12.251-14.566a90.332,90.332,0,0,1-4.939-12.61c-.234-.757-1.427-.434-1.191.328" transform="translate(-93.386 -184.444)" fill="#fbf3e8"/>
        <path id="Trazado_903794" data-name="Trazado 903794" d="M79.8,308.368c4.394-.534,9.684-1.029,13.576,1.537,4.6,3.035,3.654,9.048,5.311,13.626,1.632,4.51,5.764,6.824,9.916,8.667a65.724,65.724,0,0,1,6.478,3.056,24.743,24.743,0,0,1,5.858,4.767,25.562,25.562,0,0,1,6.606,15.421c.051.789,1.286.794,1.235,0a26.687,26.687,0,0,0-5.23-14.177,27.035,27.035,0,0,0-5.392-5.444,32.308,32.308,0,0,0-6.557-3.65c-4.275-1.884-9.413-3.714-11.458-8.306-2.091-4.7-.861-10.649-5.169-14.294-4.1-3.471-10.2-3.042-15.173-2.437-.779.095-.789,1.331,0,1.235" transform="translate(-78.394 -224.543)" fill="#fbf3e8"/>
        <path id="Trazado_903795" data-name="Trazado 903795" d="M166.437,338.249c-7.5-2.858-15.114-7.132-19.718-13.918a21.233,21.233,0,0,1-2.772-5.508,1.861,1.861,0,0,1,0-1.548,3.538,3.538,0,0,1,1.224-1.048,18.876,18.876,0,0,1,3.186-1.567,36.215,36.215,0,0,0,5.735-2.528c1.953-1.208,3.338-3.118,5.3-4.3a11.087,11.087,0,0,1,12.45.836c.611.5,1.489-.37.873-.873a12.357,12.357,0,0,0-11.79-2.037,16.021,16.021,0,0,0-5.5,3.79,19.875,19.875,0,0,1-6.65,3.633,30.378,30.378,0,0,0-3.2,1.389,7.229,7.229,0,0,0-2.566,1.9,3.158,3.158,0,0,0-.128,3.065,24.023,24.023,0,0,0,1.283,2.94,29.783,29.783,0,0,0,8.527,9.776,52.929,52.929,0,0,0,13.412,7.2c.743.283,1.065-.911.328-1.191" transform="translate(-100.149 -223.976)" fill="#fbf3e8"/>
        <path id="Trazado_903796" data-name="Trazado 903796" d="M145.533,250.541a16.484,16.484,0,0,0-13.62,11.3c-2.1,6.6-.462,13.8-2.786,20.343a13.423,13.423,0,0,1-13.085,8.7,12.787,12.787,0,0,1-7.608-2.507c-2.563-1.968-4.117-4.95-6.688-6.915-2.715-2.075-6.127-2.295-9.418-2.425-3.208-.127-6.851-.126-9.209-2.65-.544-.582-1.416.293-.873.873,4.3,4.6,11.38,1.917,16.679,4,3.232,1.269,5,4.457,7.337,6.822a13.394,13.394,0,0,0,7.1,3.767c5.243.982,11.175-.779,14.587-5,4.348-5.377,3.535-12.794,4.132-19.24.358-3.875,1.341-7.715,3.955-10.707a15.255,15.255,0,0,1,9.5-5.124c.778-.1.788-1.333,0-1.235" transform="translate(-79.378 -205.246)" fill="#fbf3e8"/>
      </g>
    </g>
    <g id="Grupo_1114778" data-name="Grupo 1114778">
      <g id="Grupo_1114777" data-name="Grupo 1114777" clip-path="url(#clip-path)">
        <path id="Trazado_903798" data-name="Trazado 903798" d="M122.268,158.457l-6.623,17.664,4.927,2.463c7.556,2.793,14.385,1.029,15.451-2.1L135,165.941l-10.6-9.592a10.347,10.347,0,0,0-1.834,1.582,2.338,2.338,0,0,1-.306.527" transform="translate(-39.718 -53.698)" fill="#d1744f"/>
        <path id="Trazado_903799" data-name="Trazado 903799" d="M128.36,156.35l10.6,9.592.351,3.774s-8.87,2.135-12.155-11.99" transform="translate(-43.67 -53.698)" fill="#944438"/>
        <path id="Trazado_903800" data-name="Trazado 903800" d="M170.081,254.884l12.629-39.629a7.874,7.874,0,0,1,4.35-4.861l25.859-11.169a.978.978,0,0,1,1.284,1.241l-12.76,38.825a7.884,7.884,0,0,1-4.124,4.7L171.392,256.1a.977.977,0,0,1-1.312-1.221" transform="translate(-58.396 -68.396)" fill="#f67d68"/>
        <path id="Trazado_903801" data-name="Trazado 903801" d="M173.388,258.419,184.9,219.49c.7-2.2,3.407-4.67,5.47-5.561l25.858-11.169A.979.979,0,0,1,217.509,204l-12.76,38.825a7.885,7.885,0,0,1-4.124,4.7L174.7,259.64a.977.977,0,0,1-1.312-1.221" transform="translate(-59.532 -69.61)" fill="#34755a"/>
        <path id="Trazado_903802" data-name="Trazado 903802" d="M181.449,245.484l10.028,1.45-12.027,4.872Z" transform="translate(-61.632 -84.311)" fill="#020f2b"/>
        <path id="Trazado_903803" data-name="Trazado 903803" d="M181.449,245.484l10.028,1.45-12.027,4.872Z" transform="translate(-61.632 -84.311)" fill="none" stroke="#1d254a" stroke-miterlimit="10" stroke-width="0"/>
        <path id="Trazado_903804" data-name="Trazado 903804" d="M184,267.491l22.668-10.935-1.559,5.015-23.113,11.391Z" transform="translate(-62.506 -88.113)" fill="#fbf3e8"/>
        <path id="Trazado_903805" data-name="Trazado 903805" d="M153.4,255.591c-1.4,1.255-16.593,20.6-29.894,30.715-3.668,2.79-9.877-.827-12.155-4.763L90.718,248.325l20.027-15.539c.142.221,8.4,21.8,13.092,28.882,1.677,2.536.9,2.28,3.285.821l18.067-14.125a15.329,15.329,0,0,0,1.771-3.061c.773-2.3,4.437-5.38,4.437-5.38l-1.587,4.873c-.286.821.252.885,1.621-.045l9.143-6.132s2.152-.921,1.15.219-4.472,4.386-4.6,4.49c-2.268,1.845,5.964-4.2,6.1-3.347s-4.518,4.849-4.406,4.935,5.2-3.59,5.365-2.792-4.325,4.216-4.489,4.27c-.316.106,3.557-3,3.668-2.573s-9.165,11.054-9.965,11.771" transform="translate(-31.157 -79.95)" fill="#d1744f"/>
        <path id="Trazado_903806" data-name="Trazado 903806" d="M116.831,247.554c-3.232-7.441-6-14.642-6.086-14.768L90.718,248.325l13.1,21.088c4.191-7.374,8.462-14.7,13.012-21.859" transform="translate(-31.157 -79.95)" fill="#944438"/>
        <path id="Trazado_903807" data-name="Trazado 903807" d="M131.844,305.94c-2.28-.926-7.527-1.561-8.838,1.309,2.61,3.577,8.192,6.5,11.593,3.914.515-.392,1.033-.8,1.552-1.219a7.969,7.969,0,0,0-4.307-4" transform="translate(-42.246 -104.806)" fill="#944438"/>
        <path id="Trazado_903808" data-name="Trazado 903808" d="M101.819,203.082s-5.705-16.021-16.709-9.275S84.043,250,90.156,256.745l30.88-23Z" transform="translate(-27.533 -65.993)" fill="#ffe18f"/>
      </g>
    </g>
    <g id="Grupo_1114780" data-name="Grupo 1114780" transform="translate(52.634 126.155)">
      <g id="Grupo_1114779" data-name="Grupo 1114779" clip-path="url(#clip-path-23)">
        <path id="Trazado_903809" data-name="Trazado 903809" d="M92.255,191.918c2.391,7.675,3.358,16.017,1.368,23.9a27.952,27.952,0,0,1-11.192,16.391,21.732,21.732,0,0,1-10.21,3.729c-.785.069-.792,1.3,0,1.235,6.875-.6,13-4.484,17.19-9.864,4.807-6.166,6.725-13.979,6.5-21.712a52.452,52.452,0,0,0-2.459-14c-.236-.756-1.428-.433-1.191.328" transform="translate(-77.235 -191.808)" fill="#fbf3e8"/>
        <path id="Trazado_903810" data-name="Trazado 903810" d="M116.479,224.112a21.2,21.2,0,0,0-3.558,3.585c-.953,1.226-2.1,2.7-2.259,4.3-.252,2.59,2.257,4.017,3.676,5.773,2.428,3.006-.517,6.154-2.362,8.529a10.27,10.27,0,0,0,2.057,15c.66.446,1.279-.623.623-1.066a9.175,9.175,0,0,1-3.424-10.152,11.809,11.809,0,0,1,2.3-3.769c1.717-2.116,3.764-4.833,2.7-7.725-.79-2.149-3.077-3.136-4.073-5.114-.812-1.615.436-3.26,1.362-4.537a20.327,20.327,0,0,1,3.828-3.951c.622-.494-.257-1.363-.873-.873" transform="translate(-90.274 -203.076)" fill="#fbf3e8"/>
        <path id="Trazado_903811" data-name="Trazado 903811" d="M87.826,272.5a3.935,3.935,0,0,1,3.356-1.265,4.2,4.2,0,0,1,2.763,1.695c1.448,1.861,1.974,4.277,3.2,6.27.417.675,1.486.056,1.066-.623-1.389-2.249-1.925-5.059-3.811-6.992a5.139,5.139,0,0,0-7.451.042c-.534.587.337,1.463.873.873" transform="translate(-82.44 -218.889)" fill="#fbf3e8"/>
      </g>
    </g>
    <g id="Grupo_1114782" data-name="Grupo 1114782">
      <g id="Grupo_1114781" data-name="Grupo 1114781" clip-path="url(#clip-path)">
        <path id="Trazado_903813" data-name="Trazado 903813" d="M144.558,123.071c2.677-3.771-.117-4.519.55-6.161a7.684,7.684,0,0,0,.692-3.358,3.623,3.623,0,0,0-1.617-2.9,3.693,3.693,0,0,0-3.554.11,8.613,8.613,0,0,0-2.672,2.542c-.5-1.752-.627-3.589-3.083-4.161-4.553-.851-4.868,2.793-5.757,3.967-.657-3.176-3.394-3.5-5.377-2.947a5.159,5.159,0,0,0-3.618,3.106c-.557,1.593-3.323-1.528-3.981,4.714-.162,1.541,3.285,5.256,3.285,5.256s.657,7.72.821,14.29c.021.861,3.449,1.479,3.449,1.479a176.689,176.689,0,0,1,16.754-12.976s3.373-1.925,4.106-2.956" transform="translate(-39.887 -37.44)" fill="#0d294d"/>
        <path id="Trazado_903814" data-name="Trazado 903814" d="M125.284,143.591a.485.485,0,0,1-.8.186c-.863-.846-2.58-2.008-3.2,1.364-.836,4.58,3.942,3.792,4.323,4.409.772,1.25,3.249,5.451,6.942,7.081a7.3,7.3,0,0,0,8.041-1.209c2.457-2.36,3.813.423,2.782-24.806a2.411,2.411,0,0,1-3,1.565c-1.679-.338-3-1.749-4.843-2.263-1.5-.418-5.615-1.452-7.389,3.756-.815,2.393-2.111,7.931-2.863,9.916" transform="translate(-41.623 -44.493)" fill="#d1744f"/>
        <path id="Trazado_903815" data-name="Trazado 903815" d="M151.8,157.047s-1.482.738-5.1.4c0,0,1.949,2.641,3.375,2.13s1.729-2.527,1.729-2.527" transform="translate(-50.381 -53.937)" fill="#fff"/>
        <path id="Trazado_903816" data-name="Trazado 903816" d="M122.434,152.336l2.524,1.9s-.941-4.6-2.524-1.9" transform="translate(-42.05 -52.028)" fill="#944438"/>
        <path id="Trazado_903817" data-name="Trazado 903817" d="M149.451,148.377c0,.551-.218,1-.488,1s-.487-.447-.487-1,.218-1,.487-1,.488.447.488,1" transform="translate(-50.994 -50.617)" fill="#020f2b"/>
        <path id="Trazado_903818" data-name="Trazado 903818" d="M154.283,147.633c0,.551-.218,1-.487,1s-.488-.447-.488-1,.218-1,.488-1,.487.447.487,1" transform="translate(-52.653 -50.361)" fill="#020f2b"/>
        <path id="Trazado_903819" data-name="Trazado 903819" d="M143.6,141.252c-.723.5.408-1.777,1.39-2.031a1.715,1.715,0,0,1,2.166,1.112,5.279,5.279,0,0,0-3.556.92" transform="translate(-49.239 -47.792)" fill="#020f2b"/>
        <path id="Trazado_903820" data-name="Trazado 903820" d="M154.091,141.263a5.285,5.285,0,0,0-1.779.049,1.8,1.8,0,0,1,1.8-1.42" transform="translate(-52.311 -48.045)" fill="#020f2b"/>
        <path id="Trazado_903821" data-name="Trazado 903821" d="M152.277,148.074l1.486,4.228a.109.109,0,0,1-.087.148l-1.754.133a.106.106,0,0,1-.108-.117l.268-4.36a.1.1,0,0,1,.194-.032" transform="translate(-52.14 -50.832)" fill="#944438"/>
      </g>
    </g>
  </g>
</svg>
