<svg xmlns="http://www.w3.org/2000/svg" width="86.076" height="93.087" viewBox="0 0 86.076 93.087">
  <g id="Grupo_1114942" data-name="Grupo 1114942" transform="translate(-789.215 -382.787)">
    <g id="Grupo_1101473" data-name="Grupo 1101473" transform="translate(76.703 -61.625)">
      <path id="Unión_37" data-name="Unión 37" d="M18014.729,11697.78v-20a30.039,30.039,0,0,1,.982-7.641,2.312,2.312,0,0,1,.117-3.857l1.666-1.1a30.107,30.107,0,0,1,8.83-11.1c-2.1.466-4.414-2.183-2.346-3.8l23.91-18.658-15.789,8.146c-2.652,1.367-5-2.64-2.338-4.007l37.84-19.524c2.221-1.145,4.975,1.953,2.813,3.644q-13.843,10.8-27.68,21.6,17.716-8.175,35.434-16.347a2.32,2.32,0,0,1,2.344,4l-27.586,18.205,42.682-21.785c2.648-1.349,4.93,2.48,2.34,4.007l-25.01,14.731,20.912-10.2a2.32,2.32,0,0,1,2.344,4l-16.848,11.244c.279.095.555.192.828.294l13.008-5.8c2.662-1.19,5,2.508,2.34,4l-8.715,4.9,10.055-3.814c2.508-.954,4.012,2.985,1.785,4.238l-7.111,4a30.13,30.13,0,0,1,3.008,3.737,2.423,2.423,0,0,1,1.793,2.99,29.871,29.871,0,0,1,3.4,13.881v20Zm24.164-49.431a30.179,30.179,0,0,1,4.953-.554l8.709-5.748Z" transform="translate(-17301.717 -11160.781)" fill="#f4e6e6" stroke="rgba(0,0,0,0)" stroke-miterlimit="10" stroke-width="1"/>
      <g id="camisa" transform="translate(663.619 444.413)">
        <path id="Trazado_878677" data-name="Trazado 878677" d="M276.752,0a2.583,2.583,0,0,1,2.1,1.068L284.629,9a2.592,2.592,0,0,1,.124,2.874l-9.635,15.945a2.6,2.6,0,0,1-4.106.447l-7.634-8.026a2.6,2.6,0,0,1-.221-3.316L274.649,1.072A2.605,2.605,0,0,1,276.752,0Zm-3.825,26.62a.114.114,0,0,0,.109-.06l9.635-15.945a.166.166,0,0,0-.008-.184L276.887,2.5l-.135-.068h0a.159.159,0,0,0-.135.069L265.125,18.349a.167.167,0,0,0,.014.213l7.634,8.026A.537.537,0,0,0,272.927,26.619Z" transform="translate(-169.48 0)" fill="#8f0000"/>
        <path id="Trazado_878678" data-name="Trazado 878678" d="M119.12,0a2.6,2.6,0,0,1,2.1,1.073l11.493,15.849a2.6,2.6,0,0,1-.221,3.316l-7.634,8.026a2.6,2.6,0,0,1-4.106-.447l-9.635-15.945A2.592,2.592,0,0,1,111.243,9l5.777-7.93A2.606,2.606,0,0,1,119.12,0Zm3.86,26.64,7.753-8.078a.167.167,0,0,0,.014-.213L119.255,2.5l-.135-.069h0a.159.159,0,0,0-.135.068l-5.777,7.93a.166.166,0,0,0-.008.184l9.635,15.945A.163.163,0,0,0,122.98,26.64Z" transform="translate(-42.19 -0.001)" fill="#8f0000"/>
        <path id="Trazado_878679" data-name="Trazado 878679" d="M66.208,57.007h3.565a1.216,1.216,0,0,1,1.214,1.278l9.658,16.04a.161.161,0,0,0,.144.081l7.753-8.078a1.378,1.378,0,0,1,.373-.93,1.331,1.331,0,0,1,.889-.421H94.4a1.216,1.216,0,0,1,1.216,1.234l7.68,8.144c.155.052.221.041.263-.029l9.635-15.945a1.337,1.337,0,0,1,.344-.947,1.291,1.291,0,0,1,.893-.426h3.565a5.824,5.824,0,0,1,5.817,5.817v62.123a5.824,5.824,0,0,1-5.817,5.817H66.208a5.824,5.824,0,0,1-5.817-5.817V62.825A5.824,5.824,0,0,1,66.208,57.007Zm2.612,2.432H66.208a3.39,3.39,0,0,0-3.386,3.386v62.123a3.39,3.39,0,0,0,3.386,3.386h51.785a3.39,3.39,0,0,0,3.386-3.386V62.825a3.39,3.39,0,0,0-3.386-3.386h-2.612q-.05.1-.109.2l-9.635,15.945a2.6,2.6,0,0,1-4.106.447L93.9,68a2.606,2.606,0,0,1-.425-.6H90.731a2.607,2.607,0,0,1-.425.6L82.671,76.03a2.6,2.6,0,0,1-4.106-.447L68.929,59.638Q68.87,59.54,68.82,59.439Z" transform="translate(0 -47.766)" fill="#8f0000"/>
        <g id="Grupo_1099929" data-name="Grupo 1099929" transform="translate(75.783 -0.001)">
          <path id="Trazado_878680" data-name="Trazado 878680" d="M156.485,0h30.34a1.216,1.216,0,0,1,0,2.432L175.2,18.35a1.328,1.328,0,0,1-1.247,1.293h-4.593a1.216,1.216,0,0,1-1.216-1.2L156.618,2.5a1.3,1.3,0,0,1-1.282-1.251A1.19,1.19,0,0,1,156.485,0Zm27.253,2.432H159.572l10.508,14.49a2.621,2.621,0,0,1,.182.289h2.786a2.621,2.621,0,0,1,.182-.288Z" transform="translate(-155.337)" fill="#8f0000"/>
        </g>
        <path id="Trazado_878681" data-name="Trazado 878681" d="M225.345,0h7.9a1.216,1.216,0,0,1,1.216,1.216v3.7a2.846,2.846,0,0,1-2.843,2.843h-4.647a2.846,2.846,0,0,1-2.843-2.843v-3.7A1.216,1.216,0,0,1,225.345,0Zm6.685,2.432h-5.469V4.915a.412.412,0,0,0,.411.411h4.647a.412.412,0,0,0,.411-.411Z" transform="translate(-137.194 -0.001)" fill="#8f0000"/>
        <path id="Trazado_878682" data-name="Trazado 878682" d="M339.381,269.117h-9.242a5.692,5.692,0,0,1-5.685-5.685v-17.55a2.219,2.219,0,0,1,2.216-2.216h5.253a1.216,1.216,0,0,1,0,2.432h-5.038v17.334a3.257,3.257,0,0,0,3.254,3.254h9.242a3.257,3.257,0,0,0,3.254-3.254V246.1H337.6a1.216,1.216,0,1,1,0-2.432h6.254a1.216,1.216,0,0,1,1.216,1.216v18.55A5.692,5.692,0,0,1,339.381,269.117Z" transform="translate(-221.256 -204.166)" fill="#8f0000"/>
        <path id="Trazado_878683" data-name="Trazado 878683" d="M235.3,171.955h-6.914a1.216,1.216,0,0,1-1.216-1.216V109.176a1.216,1.216,0,0,1,.335-.838l.78-.82a1.379,1.379,0,0,1,.373-.93,1.332,1.332,0,0,1,.889-.421h4.593a1.216,1.216,0,0,1,1.216,1.234l.826.938a1.216,1.216,0,0,1,.335.838v27.048a1.216,1.216,0,0,1-2.432,0V109.662l-.446-.468a2.607,2.607,0,0,1-.425-.6h-2.741a2.607,2.607,0,0,1-.425.6l-.446.468v59.862h4.483V141.9a1.216,1.216,0,1,1,2.432,0v28.842A1.216,1.216,0,0,1,235.3,171.955Z" transform="translate(-139.745 -88.956)" fill="#8f0000"/>
      </g>
    </g>
  </g>
</svg>
