<svg xmlns="http://www.w3.org/2000/svg" xmlns:xlink="http://www.w3.org/1999/xlink" width="85" height="82.674" viewBox="0 0 85 82.674">
  <defs>
    <clipPath id="clip-path">
      <path id="Trazado_878607" data-name="Trazado 878607" d="M871.309,136.04c-1.491-.328-2.985-.639-4.471-.988a12.219,12.219,0,0,0-8.031.839,36.006,36.006,0,0,0-7.321,4.756c-1.339,1.049-2.64,2.145-3.986,3.184a29.01,29.01,0,0,1-8.105,4.487c-7.58,2.669-12.974-1.422-15.753-6.376A16.263,16.263,0,0,1,821.7,132.1c-7.5-29.255-15.51-86.667,69.962-57.644a8.279,8.279,0,0,1,6.6,7.368,25.01,25.01,0,0,1-.52,7.939c-.385,1.959-.9,3.893-1.13,5.883a22.287,22.287,0,0,0,1.957,11.516c.648,1.506,1.3,3.008,1.993,4.5,3.969,8.567.957,15.78-5.777,20.833a23.385,23.385,0,0,1-19.541,4.381c-1.314-.277-2.624-.576-3.935-.865l-.007.032" transform="translate(-817.345 -66.487)" fill="#2f5e34"/>
    </clipPath>
  </defs>
  <g id="Grupo_1101483" data-name="Grupo 1101483" transform="translate(-178.087 -2040.379)">
    <path id="Trazado_878608" data-name="Trazado 878608" d="M870.93,135.361c-1.491-.328-2.985-.639-4.471-.988a12.219,12.219,0,0,0-8.031.839,36.006,36.006,0,0,0-7.321,4.756c-1.339,1.049-2.64,2.145-3.986,3.184a29.01,29.01,0,0,1-8.105,4.487c-7.58,2.669-12.974-1.422-15.753-6.376a16.263,16.263,0,0,1-1.938-9.841c.588-5.661,2.476-10.716,7.123-14.407a21.378,21.378,0,0,1,5.419-2.976c1.807-.727,3.655-1.358,5.444-2.126,3.951-1.7,5.469-4.473,4.833-8.719a21.133,21.133,0,0,0-1.991-5.836,24.105,24.105,0,0,1-1.61-3.86,8.84,8.84,0,0,1,3.073-9.776,15.323,15.323,0,0,1,8.352-3.344,76.323,76.323,0,0,1,8.957-.2,39.74,39.74,0,0,0,16.346-3.37c1.948-.859,3.92-1.678,5.93-2.38a13.781,13.781,0,0,1,8.086-.646,8.279,8.279,0,0,1,6.6,7.368,25.01,25.01,0,0,1-.52,7.939c-.385,1.959-.9,3.893-1.13,5.883a22.287,22.287,0,0,0,1.957,11.516c.648,1.506,1.3,3.008,1.993,4.5,3.969,8.567.957,15.78-5.777,20.833a23.385,23.385,0,0,1-19.541,4.381c-1.314-.277-2.624-.576-3.935-.865l-.007.032" transform="translate(-638.879 1974.571)" fill="#8f0000"/>
    <g id="Enmascarar_grupo_1098707" data-name="Enmascarar grupo 1098707" transform="translate(178.087 2040.379)" clip-path="url(#clip-path)">
      <g id="equipo-de-polo" transform="translate(2.078 6.523)">
        <path id="Trazado_878615" data-name="Trazado 878615" d="M12.03,111.69,7.5,114.305v13.362h4.53l9.06-15.978Z" transform="translate(-6.367 -94.824)" fill="#69aaff"/>
        <path id="Trazado_878616" data-name="Trazado 878616" d="M428.09,114.305l-4.53-2.615H414.5l9.06,15.978h4.53Z" transform="translate(-351.909 -94.824)" fill="#357df0"/>
        <path id="Trazado_878617" data-name="Trazado 878617" d="M37.5,94.091H56.9l-9.06-21.95L37.5,78.113Z" transform="translate(-31.837 -61.247)" fill="#61c5ff"/>
        <path id="Trazado_878618" data-name="Trazado 878618" d="M355.059,72.141,346,94.091h19.4V78.113Z" transform="translate(-293.752 -61.247)" fill="#69aaff"/>
        <path id="Trazado_878619" data-name="Trazado 878619" d="M299.59,54.82H286l13.59,67.9h4.53V57.436Z" transform="translate(-242.813 -46.542)" fill="#abecff"/>
        <path id="Trazado_878620" data-name="Trazado 878620" d="M142.241,37.5H115.06L106,42.731v65.288h40.771v-67.9Z" transform="translate(-89.994 -31.837)" fill="#def7ff"/>
        <path id="Trazado_878621" data-name="Trazado 878621" d="M233.5,194.3h6.8v-4.53l-3.4-2.265-3.4,2.265Z" transform="translate(-198.241 -159.187)" fill="#61c5ff"/>
        <rect id="Rectángulo_401553" data-name="Rectángulo 401553" width="6.795" height="18.424" transform="translate(35.259 12.154)" fill="#fff"/>
        <circle id="Elipse_11531" data-name="Elipse 11531" cx="5.096" cy="5.096" r="5.096" transform="translate(46.584 27.747)" fill="#657ba7"/>
        <path id="Trazado_878622" data-name="Trazado 878622" d="M296.9,7.5h-.938L293.5,24.36l4.53,2.615a2.265,2.265,0,0,0,3.4-1.962V12.03A4.53,4.53,0,0,0,296.9,7.5Z" transform="translate(-249.18 -6.367)" fill="#61c5ff"/>
        <path id="Trazado_878623" data-name="Trazado 878623" d="M187.712,9.765,179.59,14.3l-8.122-6.8h-.938A4.53,4.53,0,0,0,166,12.03V25.013a2.265,2.265,0,0,0,3.4,1.962L179.59,21.09l5.663,3.269a2.265,2.265,0,0,0,3.4-1.962V9.765h-.938Z" transform="translate(-140.933 -6.367)" fill="#73dcff"/>
        <path id="Trazado_878624" data-name="Trazado 878624" d="M207.3,11.367A2.265,2.265,0,0,0,205.7,7.5H189.452a2.265,2.265,0,0,0-1.6,3.867l.664.664,9.06,2.265,9.06-2.265Z" transform="translate(-158.917 -6.367)" fill="#69aaff"/>
        <path id="Trazado_878625" data-name="Trazado 878625" d="M214.12,37.5H196l9.06,9.06Z" transform="translate(-166.403 -31.837)" fill="#abecff"/>
        <path id="Línea_593" data-name="Línea 593" d="M-6.367,35.989A1.133,1.133,0,0,1-7.5,34.856V-6.367A1.133,1.133,0,0,1-6.367-7.5,1.133,1.133,0,0,1-5.235-6.367V34.856A1.133,1.133,0,0,1-6.367,35.989Z" transform="translate(22.374 17.391)"/>
        <path id="Trazado_878626" data-name="Trazado 878626" d="M144.933,390.169h-45.3a1.133,1.133,0,0,1-1.133-1.133v-19.4a1.133,1.133,0,1,1,2.265,0V387.9H143.8V369.633a1.133,1.133,0,0,1,1.133-1.133h0a1.133,1.133,0,0,1,1.133,1.133v19.4A1.133,1.133,0,0,1,144.933,390.169Z" transform="translate(-83.626 -312.855)"/>
        <path id="Línea_594" data-name="Línea 594" d="M-6.367,35.989A1.133,1.133,0,0,1-7.5,34.856V-6.367A1.133,1.133,0,0,1-6.367-7.5,1.133,1.133,0,0,1-5.235-6.367V34.856A1.133,1.133,0,0,1-6.367,35.989Z" transform="translate(67.675 17.391)"/>
        <path id="Trazado_878627" data-name="Trazado 878627" d="M363.566,59.445H348.691a1.133,1.133,0,1,1,0-2.265h13.742V45.6L339.065,32.112a1.133,1.133,0,1,1,1.133-1.962l23.934,13.818a1.132,1.132,0,0,1,.566.981V58.312A1.133,1.133,0,0,1,363.566,59.445Z" transform="translate(-287.384 -25.469)"/>
        <path id="Trazado_878628" data-name="Trazado 878628" d="M16.006,59.445H1.133A1.133,1.133,0,0,1,0,58.312V44.95a1.133,1.133,0,0,1,.566-.981L24.5,30.151a1.133,1.133,0,1,1,1.133,1.962L2.265,45.6V57.18H16.006a1.133,1.133,0,1,1,0,2.265Z" transform="translate(0 -25.469)"/>
        <path id="Línea_595" data-name="Línea 595" d="M-6.367,10.743A1.133,1.133,0,0,1-7.5,9.61V-6.367A1.133,1.133,0,0,1-6.367-7.5,1.133,1.133,0,0,1-5.235-6.367V9.61A1.133,1.133,0,0,1-6.367,10.743Z" transform="translate(12.03 23.233)"/>
        <path id="Línea_596" data-name="Línea 596" d="M-6.367,10.743A1.133,1.133,0,0,1-7.5,9.61V-6.367A1.133,1.133,0,0,1-6.367-7.5,1.133,1.133,0,0,1-5.235-6.367V9.61A1.133,1.133,0,0,1-6.367,10.743Z" transform="translate(78.019 23.233)"/>
        <path id="Trazado_878629" data-name="Trazado 878629" d="M184.545,22.047h0a3.4,3.4,0,0,1-1.7-.459l-9.626-5.558L163.6,21.588a3.393,3.393,0,0,1-5.1-2.942V5.663A5.669,5.669,0,0,1,164.163,0h18.12a5.669,5.669,0,0,1,5.663,5.663V18.646a3.359,3.359,0,0,1-1.039,2.448A3.446,3.446,0,0,1,184.545,22.047ZM173.223,13.59a1.132,1.132,0,0,1,.566.152l10.193,5.885a1.115,1.115,0,0,0,.563.155,1.16,1.16,0,0,0,.794-.323,1.1,1.1,0,0,0,.342-.812V5.663a3.4,3.4,0,0,0-3.4-3.4h-18.12a3.4,3.4,0,0,0-3.4,3.4V18.646a1.138,1.138,0,0,0,1.136,1.136,1.114,1.114,0,0,0,.563-.155l10.193-5.885A1.132,1.132,0,0,1,173.223,13.59Z" transform="translate(-134.566 0)"/>
        <path id="Línea_597" data-name="Línea 597" d="M11.753-5.235H-6.367A1.133,1.133,0,0,1-7.5-6.367,1.133,1.133,0,0,1-6.367-7.5h18.12a1.133,1.133,0,0,1,1.133,1.133A1.133,1.133,0,0,1,11.753-5.235Z" transform="translate(35.964 12.03)"/>
        <path id="Trazado_878630" data-name="Trazado 878630" d="M191.184,15.855a1.129,1.129,0,0,1-.8-.332L180.66,5.8a3.345,3.345,0,0,1-.737-3.7A3.345,3.345,0,0,1,183.062,0a1.133,1.133,0,1,1,0,2.265,1.133,1.133,0,0,0-.8,1.933l8.923,8.923L200.107,4.2a1.133,1.133,0,0,0-.8-1.933,1.133,1.133,0,1,1,0-2.265,3.345,3.345,0,0,1,3.139,2.1,3.345,3.345,0,0,1-.736,3.7l-9.724,9.724A1.129,1.129,0,0,1,191.184,15.855Z" transform="translate(-152.527 0)"/>
        <path id="Trazado_878631" data-name="Trazado 878631" d="M233.928,123.679h-6.8A1.133,1.133,0,0,1,226,122.547V104.123a1.133,1.133,0,0,1,2.265,0v17.291h4.53V104.123a1.133,1.133,0,1,1,2.265,0v18.424A1.133,1.133,0,0,1,233.928,123.679Z" transform="translate(-191.873 -87.438)"/>
        <path id="Línea_598" data-name="Línea 598" d="M.428-5.235h-6.8A1.133,1.133,0,0,1-7.5-6.367,1.133,1.133,0,0,1-6.367-7.5h6.8A1.133,1.133,0,0,1,1.56-6.367,1.133,1.133,0,0,1,.428-5.235Z" transform="translate(41.627 36.946)"/>
        <path id="Elipse_11532" data-name="Elipse 11532" d="M-1.271-7.5A6.236,6.236,0,0,1,4.958-1.271,6.236,6.236,0,0,1-1.271,4.958,6.236,6.236,0,0,1-7.5-1.271,6.236,6.236,0,0,1-1.271-7.5Zm0,10.193A3.968,3.968,0,0,0,2.693-1.271,3.968,3.968,0,0,0-1.271-5.235,3.968,3.968,0,0,0-5.235-1.271,3.968,3.968,0,0,0-1.271,2.693Z" transform="translate(52.952 34.114)"/>
      </g>
    </g>
  </g>
</svg>
