<svg xmlns="http://www.w3.org/2000/svg" width="319.918" height="546.666" viewBox="0 0 319.918 546.666">
  <g id="Grupo_1114945" data-name="Grupo 1114945" transform="translate(-938.132 -14240.276)">
    <path id="Trazado_904076" data-name="Trazado 904076" d="M0,223.128V0" transform="translate(1213.221 14476.42)" fill="none" stroke="#1d1d1b" stroke-width="0.889"/>
    <path id="Trazado_904077" data-name="Trazado 904077" d="M0,0H4.577V.7H0Z" transform="translate(1210.933 14699.196)" fill="#1d1d1b"/>
    <path id="Trazado_904078" data-name="Trazado 904078" d="M0,0H4.577V.7H0Z" transform="translate(1210.933 14476.068)" fill="#1d1d1b"/>
    <path id="Trazado_904079" data-name="Trazado 904079" d="M0,0H198.546" transform="translate(996.202 14242.998)" fill="none" stroke="#1d1d1b" stroke-width="1.057"/>
    <path id="Trazado_904080" data-name="Trazado 904080" d="M0,0H.837V5.443H0Z" transform="translate(995.783 14240.276)" fill="#1d1d1b"/>
    <path id="Trazado_904081" data-name="Trazado 904081" d="M0,0H.837V5.443H0Z" transform="translate(1194.33 14240.276)" fill="#1d1d1b"/>
    <path id="Trazado_904082" data-name="Trazado 904082" d="M0,0V115.862" transform="translate(1204.325 14262.565)" fill="none" stroke="#1d1d1b" stroke-width="1.057"/>
    <path id="Trazado_904083" data-name="Trazado 904083" d="M0,0H5.444V.837H0Z" transform="translate(1201.604 14262.146)" fill="#1d1d1b"/>
    <path id="Trazado_904084" data-name="Trazado 904084" d="M0,0H5.444V.837H0Z" transform="translate(1201.604 14378.008)" fill="#1d1d1b"/>
    <path id="Trazado_904085" data-name="Trazado 904085" d="M0,0H198.591" transform="translate(994.871 14394.414)" fill="none" stroke="#1d1d1b" stroke-width="1"/>
    <path id="Trazado_904086" data-name="Trazado 904086" d="M0,0H.792V5.15H0Z" transform="translate(994.475 14391.839)" fill="#1d1d1b"/>
    <path id="Trazado_904087" data-name="Trazado 904087" d="M0,0H.792V5.15H0Z" transform="translate(1193.067 14391.839)" fill="#1d1d1b"/>
    <path id="Trazado_904088" data-name="Trazado 904088" d="M5.7,0H4.242V-9.633L1.328-8.562V-9.875L5.469-11.43H5.7Zm6.336-6.391h1.086a2.387,2.387,0,0,0,1.609-.539,1.8,1.8,0,0,0,.586-1.414,1.764,1.764,0,0,0-1.992-2,2.072,2.072,0,0,0-1.5.535,1.873,1.873,0,0,0-.559,1.418H9.82a2.9,2.9,0,0,1,.988-2.246,3.6,3.6,0,0,1,2.512-.895,3.558,3.558,0,0,1,2.523.852,3.076,3.076,0,0,1,.914,2.367,2.5,2.5,0,0,1-.48,1.438,2.9,2.9,0,0,1-1.309,1.039,2.8,2.8,0,0,1,1.449.984,2.734,2.734,0,0,1,.512,1.68,3.1,3.1,0,0,1-1,2.43,3.745,3.745,0,0,1-2.6.9,3.844,3.844,0,0,1-2.605-.867A2.877,2.877,0,0,1,9.719-3h1.453a1.859,1.859,0,0,0,.586,1.438,2.229,2.229,0,0,0,1.57.539,2.187,2.187,0,0,0,1.6-.547,2.108,2.108,0,0,0,.555-1.57,1.912,1.912,0,0,0-.609-1.523,2.655,2.655,0,0,0-1.758-.547H12.031ZM26.414-1.023a2.082,2.082,0,0,0,1.352-.469,1.649,1.649,0,0,0,.641-1.172h1.367a2.621,2.621,0,0,1-.5,1.383,3.293,3.293,0,0,1-1.23,1.047,3.55,3.55,0,0,1-1.629.391A3.482,3.482,0,0,1,23.668-1a4.59,4.59,0,0,1-1.02-3.152v-.242a5.089,5.089,0,0,1,.453-2.2,3.451,3.451,0,0,1,1.3-1.492,3.7,3.7,0,0,1,2-.531,3.39,3.39,0,0,1,2.363.852,3.043,3.043,0,0,1,1,2.211H28.406a1.992,1.992,0,0,0-.621-1.348,1.932,1.932,0,0,0-1.379-.527,2.023,2.023,0,0,0-1.707.793,3.724,3.724,0,0,0-.605,2.293v.273a3.65,3.65,0,0,0,.6,2.25A2.033,2.033,0,0,0,26.414-1.023Zm6.344-7.43.039.938A3.122,3.122,0,0,1,35.3-8.609,2.417,2.417,0,0,1,37.719-7.25a3.2,3.2,0,0,1,1.1-.984,3.242,3.242,0,0,1,1.6-.375q2.781,0,2.828,2.945V0H41.8V-5.578a1.941,1.941,0,0,0-.414-1.355,1.823,1.823,0,0,0-1.391-.449,1.917,1.917,0,0,0-1.336.48,1.949,1.949,0,0,0-.617,1.293V0H36.586V-5.539a1.613,1.613,0,0,0-1.8-1.844,1.934,1.934,0,0,0-1.945,1.211V0H31.391V-8.453Z" transform="translate(1073.163 14256.909)"/>
    <path id="Trazado_904089" data-name="Trazado 904089" d="M0,0H319.918V546.666H0Z" transform="translate(938.132 14240.276)" fill="none"/>
    <path id="Trazado_904090" data-name="Trazado 904090" d="M6.051,0H4.507V-10.235L1.411-9.1v-1.395l4.4-1.652h.241Zm4.964,1.038H9.7l5.047-13.124h1.312ZM25.475,0H17.556V-1.1L21.74-5.752a9.939,9.939,0,0,0,1.282-1.714,2.861,2.861,0,0,0,.353-1.365,2.169,2.169,0,0,0-.573-1.552,2,2,0,0,0-1.527-.606,2.372,2.372,0,0,0-1.781.652,2.489,2.489,0,0,0-.635,1.814H17.324a3.565,3.565,0,0,1,1.075-2.7,3.985,3.985,0,0,1,2.876-1.029,3.829,3.829,0,0,1,2.665.884,3.015,3.015,0,0,1,.979,2.353q0,1.785-2.274,4.25L19.407-1.253h6.068Z" transform="translate(1082.416 14420.376)"/>
    <path id="Trazado_904091" data-name="Trazado 904091" d="M6.051,0H4.507V-10.235L1.411-9.1v-1.395l4.4-1.652h.241Zm4.964,1.038H9.7l5.047-13.124h1.312ZM25.475,0H17.556V-1.1L21.74-5.752a9.939,9.939,0,0,0,1.282-1.714,2.861,2.861,0,0,0,.353-1.365,2.169,2.169,0,0,0-.573-1.552,2,2,0,0,0-1.527-.606,2.372,2.372,0,0,0-1.781.652,2.489,2.489,0,0,0-.635,1.814H17.324a3.565,3.565,0,0,1,1.075-2.7,3.985,3.985,0,0,1,2.876-1.029,3.829,3.829,0,0,1,2.665.884,3.015,3.015,0,0,1,.979,2.353q0,1.785-2.274,4.25L19.407-1.253h6.068Z" transform="translate(1082.416 14758.898)"/>
    <path id="Trazado_904092" data-name="Trazado 904092" d="M8.289-10.562,3.578,0H2.063l4.7-10.187H.6v-1.187H8.289ZM17.43-1.023a2.082,2.082,0,0,0,1.352-.469,1.649,1.649,0,0,0,.641-1.172h1.367a2.621,2.621,0,0,1-.5,1.383,3.293,3.293,0,0,1-1.23,1.047A3.55,3.55,0,0,1,17.43.156,3.482,3.482,0,0,1,14.684-1a4.59,4.59,0,0,1-1.02-3.152v-.242a5.089,5.089,0,0,1,.453-2.2,3.451,3.451,0,0,1,1.3-1.492,3.7,3.7,0,0,1,2-.531,3.39,3.39,0,0,1,2.363.852,3.043,3.043,0,0,1,1,2.211H19.422A1.992,1.992,0,0,0,18.8-6.895a1.932,1.932,0,0,0-1.379-.527,2.023,2.023,0,0,0-1.707.793,3.724,3.724,0,0,0-.605,2.293v.273a3.65,3.65,0,0,0,.6,2.25A2.033,2.033,0,0,0,17.43-1.023Zm6.344-7.43.039.938A3.122,3.122,0,0,1,26.32-8.609,2.417,2.417,0,0,1,28.734-7.25a3.2,3.2,0,0,1,1.1-.984,3.242,3.242,0,0,1,1.6-.375q2.781,0,2.828,2.945V0H32.813V-5.578A1.941,1.941,0,0,0,32.4-6.934a1.823,1.823,0,0,0-1.391-.449,1.916,1.916,0,0,0-1.336.48,1.949,1.949,0,0,0-.617,1.293V0H27.6V-5.539a1.613,1.613,0,0,0-1.8-1.844,1.934,1.934,0,0,0-1.945,1.211V0H22.406V-8.453Z" transform="translate(1219.154 14319.557)"/>
    <path id="Trazado_904093" data-name="Trazado 904093" d="M3.047-6.391H4.133A2.387,2.387,0,0,0,5.742-6.93a1.8,1.8,0,0,0,.586-1.414,1.764,1.764,0,0,0-1.992-2,2.072,2.072,0,0,0-1.5.535,1.873,1.873,0,0,0-.559,1.418H.836a2.9,2.9,0,0,1,.988-2.246,3.6,3.6,0,0,1,2.512-.895,3.558,3.558,0,0,1,2.523.852,3.076,3.076,0,0,1,.914,2.367,2.5,2.5,0,0,1-.48,1.438A2.9,2.9,0,0,1,5.984-5.836a2.8,2.8,0,0,1,1.449.984,2.734,2.734,0,0,1,.512,1.68,3.1,3.1,0,0,1-1,2.43,3.745,3.745,0,0,1-2.6.9A3.844,3.844,0,0,1,1.738-.711,2.877,2.877,0,0,1,.734-3H2.188a1.859,1.859,0,0,0,.586,1.438,2.229,2.229,0,0,0,1.57.539,2.187,2.187,0,0,0,1.6-.547A2.108,2.108,0,0,0,6.5-3.141a1.912,1.912,0,0,0-.609-1.523,2.655,2.655,0,0,0-1.758-.547H3.047ZM17.43-1.023a2.082,2.082,0,0,0,1.352-.469,1.649,1.649,0,0,0,.641-1.172h1.367a2.621,2.621,0,0,1-.5,1.383,3.293,3.293,0,0,1-1.23,1.047A3.55,3.55,0,0,1,17.43.156,3.482,3.482,0,0,1,14.684-1a4.59,4.59,0,0,1-1.02-3.152v-.242a5.089,5.089,0,0,1,.453-2.2,3.451,3.451,0,0,1,1.3-1.492,3.7,3.7,0,0,1,2-.531,3.39,3.39,0,0,1,2.363.852,3.043,3.043,0,0,1,1,2.211H19.422A1.992,1.992,0,0,0,18.8-6.895a1.932,1.932,0,0,0-1.379-.527,2.023,2.023,0,0,0-1.707.793,3.724,3.724,0,0,0-.605,2.293v.273a3.65,3.65,0,0,0,.6,2.25A2.033,2.033,0,0,0,17.43-1.023Zm6.344-7.43.039.938A3.122,3.122,0,0,1,26.32-8.609,2.417,2.417,0,0,1,28.734-7.25a3.2,3.2,0,0,1,1.1-.984,3.242,3.242,0,0,1,1.6-.375q2.781,0,2.828,2.945V0H32.813V-5.578A1.941,1.941,0,0,0,32.4-6.934a1.823,1.823,0,0,0-1.391-.449,1.916,1.916,0,0,0-1.336.48,1.949,1.949,0,0,0-.617,1.293V0H27.6V-5.539a1.613,1.613,0,0,0-1.8-1.844,1.934,1.934,0,0,0-1.945,1.211V0H22.406V-8.453Z" transform="translate(1219.154 14460.336)"/>
    <path id="Trazado_904094" data-name="Trazado 904094" d="M3.047-6.391H4.133A2.387,2.387,0,0,0,5.742-6.93a1.8,1.8,0,0,0,.586-1.414,1.764,1.764,0,0,0-1.992-2,2.072,2.072,0,0,0-1.5.535,1.873,1.873,0,0,0-.559,1.418H.836a2.9,2.9,0,0,1,.988-2.246,3.6,3.6,0,0,1,2.512-.895,3.558,3.558,0,0,1,2.523.852,3.076,3.076,0,0,1,.914,2.367,2.5,2.5,0,0,1-.48,1.438A2.9,2.9,0,0,1,5.984-5.836a2.8,2.8,0,0,1,1.449.984,2.734,2.734,0,0,1,.512,1.68,3.1,3.1,0,0,1-1,2.43,3.745,3.745,0,0,1-2.6.9A3.844,3.844,0,0,1,1.738-.711,2.877,2.877,0,0,1,.734-3H2.188a1.859,1.859,0,0,0,.586,1.438,2.229,2.229,0,0,0,1.57.539,2.187,2.187,0,0,0,1.6-.547A2.108,2.108,0,0,0,6.5-3.141a1.912,1.912,0,0,0-.609-1.523,2.655,2.655,0,0,0-1.758-.547H3.047ZM17.43-1.023a2.082,2.082,0,0,0,1.352-.469,1.649,1.649,0,0,0,.641-1.172h1.367a2.621,2.621,0,0,1-.5,1.383,3.293,3.293,0,0,1-1.23,1.047A3.55,3.55,0,0,1,17.43.156,3.482,3.482,0,0,1,14.684-1a4.59,4.59,0,0,1-1.02-3.152v-.242a5.089,5.089,0,0,1,.453-2.2,3.451,3.451,0,0,1,1.3-1.492,3.7,3.7,0,0,1,2-.531,3.39,3.39,0,0,1,2.363.852,3.043,3.043,0,0,1,1,2.211H19.422A1.992,1.992,0,0,0,18.8-6.895a1.932,1.932,0,0,0-1.379-.527,2.023,2.023,0,0,0-1.707.793,3.724,3.724,0,0,0-.605,2.293v.273a3.65,3.65,0,0,0,.6,2.25A2.033,2.033,0,0,0,17.43-1.023Zm6.344-7.43.039.938A3.122,3.122,0,0,1,26.32-8.609,2.417,2.417,0,0,1,28.734-7.25a3.2,3.2,0,0,1,1.1-.984,3.242,3.242,0,0,1,1.6-.375q2.781,0,2.828,2.945V0H32.813V-5.578A1.941,1.941,0,0,0,32.4-6.934a1.823,1.823,0,0,0-1.391-.449,1.916,1.916,0,0,0-1.336.48,1.949,1.949,0,0,0-.617,1.293V0H27.6V-5.539a1.613,1.613,0,0,0-1.8-1.844,1.934,1.934,0,0,0-1.945,1.211V0H22.406V-8.453Z" transform="translate(938.141 14460.336)"/>
    <path id="Trazado_904095" data-name="Trazado 904095" d="M0,0H319.918V546.666H0Z" transform="translate(938.132 14240.276)" fill="none"/>
    <path id="Trazado_904096" data-name="Trazado 904096" d="M2.828-1.227H8.219V0H1.32V-11.375H2.828ZM14.922,0a3.036,3.036,0,0,1-.2-.891A3.225,3.225,0,0,1,12.313.156a2.984,2.984,0,0,1-2.051-.707,2.287,2.287,0,0,1-.8-1.793,2.39,2.39,0,0,1,1-2.051,4.733,4.733,0,0,1,2.824-.73H14.7v-.664A1.623,1.623,0,0,0,14.242-7a1.821,1.821,0,0,0-1.336-.449,2.107,2.107,0,0,0-1.3.391,1.151,1.151,0,0,0-.523.945H9.633a2,2,0,0,1,.449-1.223A3.066,3.066,0,0,1,11.3-8.266a4.1,4.1,0,0,1,1.691-.344,3.342,3.342,0,0,1,2.289.73,2.635,2.635,0,0,1,.859,2.012v3.891a4.757,4.757,0,0,0,.3,1.852V0Zm-2.4-1.1a2.54,2.54,0,0,0,1.289-.352,2.127,2.127,0,0,0,.883-.914V-4.1H13.563q-2.656,0-2.656,1.555a1.316,1.316,0,0,0,.453,1.063A1.742,1.742,0,0,0,12.523-1.1Zm9.969-6.055a4.331,4.331,0,0,0-.711-.055A1.9,1.9,0,0,0,19.852-6V0H18.406V-8.453h1.406l.023.977a2.251,2.251,0,0,1,2.016-1.133,1.477,1.477,0,0,1,.641.109ZM23.184-4.3A4.968,4.968,0,0,1,24.1-7.441,2.923,2.923,0,0,1,26.52-8.609a2.908,2.908,0,0,1,2.414,1.094L29-8.453h1.32V-.2a3.439,3.439,0,0,1-.973,2.586,3.589,3.589,0,0,1-2.613.945,4.348,4.348,0,0,1-1.789-.391,3.08,3.08,0,0,1-1.336-1.07L24.364,1a2.826,2.826,0,0,0,2.273,1.148,2.214,2.214,0,0,0,1.645-.594,2.269,2.269,0,0,0,.59-1.672V-.844a2.971,2.971,0,0,1-2.367,1,2.887,2.887,0,0,1-2.4-1.2A5.224,5.224,0,0,1,23.184-4.3Zm1.453.164a3.79,3.79,0,0,0,.586,2.246,1.9,1.9,0,0,0,1.641.816,2.117,2.117,0,0,0,2.008-1.242V-6.172a2.142,2.142,0,0,0-1.992-1.211,1.921,1.921,0,0,0-1.648.82A4.128,4.128,0,0,0,24.637-4.133ZM32.122-4.3a4.993,4.993,0,0,1,.488-2.234A3.643,3.643,0,0,1,33.969-8.07a3.7,3.7,0,0,1,1.988-.539,3.565,3.565,0,0,1,2.793,1.2,4.6,4.6,0,0,1,1.066,3.18v.1a5.036,5.036,0,0,1-.473,2.215A3.589,3.589,0,0,1,37.993-.391a3.743,3.743,0,0,1-2.02.547,3.556,3.556,0,0,1-2.785-1.2A4.575,4.575,0,0,1,32.122-4.2Zm1.453.172a3.616,3.616,0,0,0,.652,2.258,2.088,2.088,0,0,0,1.746.852,2.075,2.075,0,0,0,1.75-.863A3.955,3.955,0,0,0,38.372-4.3a3.61,3.61,0,0,0-.66-2.254,2.1,2.1,0,0,0-1.754-.863,2.075,2.075,0,0,0-1.727.852A3.925,3.925,0,0,0,33.575-4.133ZM45.817,0V-11.375h3.719a4.317,4.317,0,0,1,2.785.766,2.759,2.759,0,0,1,.934,2.266,2.31,2.31,0,0,1-.453,1.41,2.937,2.937,0,0,1-1.234.949A2.638,2.638,0,0,1,53.024-5a2.814,2.814,0,0,1,.535,1.723,3.042,3.042,0,0,1-.992,2.406,4.1,4.1,0,0,1-2.8.875Zm1.5-5.32v4.094h2.477a2.385,2.385,0,0,0,1.652-.543,1.907,1.907,0,0,0,.605-1.5q0-2.055-2.234-2.055Zm0-1.2h2.266a2.375,2.375,0,0,0,1.574-.493,1.654,1.654,0,0,0,.59-1.339A1.626,1.626,0,0,0,51.2-9.722a2.686,2.686,0,0,0-1.664-.427H47.317ZM55.168-4.3a4.993,4.993,0,0,1,.488-2.234A3.643,3.643,0,0,1,57.016-8.07,3.7,3.7,0,0,1,59-8.609a3.565,3.565,0,0,1,2.793,1.2,4.6,4.6,0,0,1,1.066,3.18v.1a5.036,5.036,0,0,1-.473,2.215A3.589,3.589,0,0,1,61.04-.391a3.743,3.743,0,0,1-2.02.547,3.556,3.556,0,0,1-2.785-1.2A4.575,4.575,0,0,1,55.168-4.2Zm1.453.172a3.616,3.616,0,0,0,.652,2.258,2.088,2.088,0,0,0,1.746.852,2.075,2.075,0,0,0,1.75-.863A3.955,3.955,0,0,0,61.418-4.3a3.61,3.61,0,0,0-.66-2.254A2.1,2.1,0,0,0,59-7.422a2.075,2.075,0,0,0-1.727.852A3.925,3.925,0,0,0,56.622-4.133ZM66.247,0H64.8V-12h1.445Zm7.234-2.242a1.064,1.064,0,0,0-.441-.91A4.249,4.249,0,0,0,71.5-3.711a7.277,7.277,0,0,1-1.742-.562,2.479,2.479,0,0,1-.953-.781A1.869,1.869,0,0,1,68.5-6.133a2.193,2.193,0,0,1,.879-1.758,3.432,3.432,0,0,1,2.246-.719,3.532,3.532,0,0,1,2.332.742,2.357,2.357,0,0,1,.895,1.9H73.4a1.3,1.3,0,0,0-.5-1.023,1.888,1.888,0,0,0-1.27-.43,1.976,1.976,0,0,0-1.234.344,1.082,1.082,0,0,0-.445.9.877.877,0,0,0,.414.789,5.1,5.1,0,0,0,1.5.508,7.8,7.8,0,0,1,1.754.578,2.558,2.558,0,0,1,1,.809,1.988,1.988,0,0,1,.324,1.152A2.163,2.163,0,0,1,74.02-.527a3.8,3.8,0,0,1-2.352.684,4.257,4.257,0,0,1-1.8-.359,2.922,2.922,0,0,1-1.223-1A2.42,2.42,0,0,1,68.208-2.6h1.445a1.5,1.5,0,0,0,.582,1.152,2.258,2.258,0,0,0,1.434.426,2.331,2.331,0,0,0,1.316-.332A1.02,1.02,0,0,0,73.481-2.242ZM78.379,0H76.934V-8.453h1.445ZM76.817-10.7a.863.863,0,0,1,.215-.594.807.807,0,0,1,.637-.242.819.819,0,0,1,.641.242.854.854,0,0,1,.219.594.826.826,0,0,1-.219.586.834.834,0,0,1-.641.234.821.821,0,0,1-.637-.234A.834.834,0,0,1,76.817-10.7ZM82.262,0H80.817V-12h1.445Zm3.883,0H84.7V-12h1.445Zm1.93-4.3a4.993,4.993,0,0,1,.488-2.234A3.643,3.643,0,0,1,89.922-8.07a3.7,3.7,0,0,1,1.988-.539,3.565,3.565,0,0,1,2.793,1.2,4.6,4.6,0,0,1,1.066,3.18v.1A5.036,5.036,0,0,1,95.3-1.918,3.589,3.589,0,0,1,93.946-.391a3.743,3.743,0,0,1-2.02.547,3.556,3.556,0,0,1-2.785-1.2A4.575,4.575,0,0,1,88.075-4.2Zm1.453.172a3.616,3.616,0,0,0,.652,2.258,2.088,2.088,0,0,0,1.746.852,2.075,2.075,0,0,0,1.75-.863A3.955,3.955,0,0,0,94.325-4.3a3.61,3.61,0,0,0-.66-2.254,2.1,2.1,0,0,0-1.754-.863,2.075,2.075,0,0,0-1.727.852A3.925,3.925,0,0,0,89.528-4.133Z" transform="translate(1232.517 14639.604) rotate(-90)"/>
    <path id="Trazado_904097" data-name="Trazado 904097" d="M7.6-2.977H2.836L1.766,0H.219L4.563-11.375H5.875L10.227,0H8.688ZM3.289-4.2H7.156L5.219-9.523ZM12.9-8.453l.047,1.063a3.08,3.08,0,0,1,2.531-1.219q2.68,0,2.7,3.023V0H16.734V-5.594a1.946,1.946,0,0,0-.418-1.352,1.675,1.675,0,0,0-1.277-.437,2.086,2.086,0,0,0-1.234.375,2.546,2.546,0,0,0-.828.984V0H11.531V-8.453ZM23.75-1.023A2.082,2.082,0,0,0,25.1-1.492a1.649,1.649,0,0,0,.641-1.172h1.367a2.621,2.621,0,0,1-.5,1.383,3.293,3.293,0,0,1-1.23,1.047A3.55,3.55,0,0,1,23.75.156,3.482,3.482,0,0,1,21-1a4.59,4.59,0,0,1-1.02-3.152v-.242a5.089,5.089,0,0,1,.453-2.2,3.451,3.451,0,0,1,1.3-1.492,3.7,3.7,0,0,1,2-.531,3.39,3.39,0,0,1,2.363.852,3.043,3.043,0,0,1,1,2.211H25.742a1.992,1.992,0,0,0-.621-1.348,1.932,1.932,0,0,0-1.379-.527,2.023,2.023,0,0,0-1.707.793,3.724,3.724,0,0,0-.605,2.293v.273a3.65,3.65,0,0,0,.6,2.25A2.033,2.033,0,0,0,23.75-1.023ZM30.18-7.43a3.073,3.073,0,0,1,2.5-1.18q2.68,0,2.7,3.023V0H33.938V-5.594a1.946,1.946,0,0,0-.418-1.352,1.675,1.675,0,0,0-1.277-.437,2.086,2.086,0,0,0-1.234.375,2.546,2.546,0,0,0-.828.984V0H28.734V-12H30.18ZM37.164-4.3a4.993,4.993,0,0,1,.488-2.234A3.643,3.643,0,0,1,39.012-8.07,3.7,3.7,0,0,1,41-8.609a3.565,3.565,0,0,1,2.793,1.2,4.6,4.6,0,0,1,1.066,3.18v.1a5.036,5.036,0,0,1-.473,2.215A3.589,3.589,0,0,1,43.035-.391a3.743,3.743,0,0,1-2.02.547,3.556,3.556,0,0,1-2.785-1.2A4.575,4.575,0,0,1,37.164-4.2Zm1.453.172a3.616,3.616,0,0,0,.652,2.258,2.088,2.088,0,0,0,1.746.852,2.075,2.075,0,0,0,1.75-.863A3.955,3.955,0,0,0,43.414-4.3a3.61,3.61,0,0,0-.66-2.254A2.1,2.1,0,0,0,41-7.422a2.075,2.075,0,0,0-1.727.852A3.925,3.925,0,0,0,38.617-4.133ZM50.859,0V-11.375h3.719a4.317,4.317,0,0,1,2.785.766A2.759,2.759,0,0,1,58.3-8.344a2.31,2.31,0,0,1-.453,1.41,2.937,2.937,0,0,1-1.234.949A2.638,2.638,0,0,1,58.066-5,2.814,2.814,0,0,1,58.6-3.281a3.042,3.042,0,0,1-.992,2.406A4.1,4.1,0,0,1,54.8,0Zm1.5-5.32v4.094h2.477a2.385,2.385,0,0,0,1.652-.543,1.907,1.907,0,0,0,.605-1.5q0-2.055-2.234-2.055Zm0-1.2h2.266A2.375,2.375,0,0,0,56.2-7.017a1.654,1.654,0,0,0,.59-1.339,1.626,1.626,0,0,0-.547-1.366,2.686,2.686,0,0,0-1.664-.427H52.359ZM60.211-4.3A4.993,4.993,0,0,1,60.7-6.539,3.643,3.643,0,0,1,62.059-8.07a3.7,3.7,0,0,1,1.988-.539,3.565,3.565,0,0,1,2.793,1.2,4.6,4.6,0,0,1,1.066,3.18v.1a5.036,5.036,0,0,1-.473,2.215A3.589,3.589,0,0,1,66.082-.391a3.743,3.743,0,0,1-2.02.547,3.556,3.556,0,0,1-2.785-1.2A4.575,4.575,0,0,1,60.211-4.2Zm1.453.172a3.616,3.616,0,0,0,.652,2.258,2.088,2.088,0,0,0,1.746.852,2.075,2.075,0,0,0,1.75-.863A3.955,3.955,0,0,0,66.461-4.3a3.61,3.61,0,0,0-.66-2.254,2.1,2.1,0,0,0-1.754-.863,2.075,2.075,0,0,0-1.727.852A3.925,3.925,0,0,0,61.664-4.133ZM71.289,0H69.844V-12h1.445Zm7.234-2.242a1.064,1.064,0,0,0-.441-.91,4.249,4.249,0,0,0-1.539-.559A7.277,7.277,0,0,1,74.8-4.273a2.479,2.479,0,0,1-.953-.781,1.869,1.869,0,0,1-.309-1.078,2.193,2.193,0,0,1,.879-1.758,3.432,3.432,0,0,1,2.246-.719A3.532,3.532,0,0,1,79-7.867a2.357,2.357,0,0,1,.895,1.9H78.438a1.3,1.3,0,0,0-.5-1.023,1.888,1.888,0,0,0-1.27-.43,1.976,1.976,0,0,0-1.234.344,1.082,1.082,0,0,0-.445.9.877.877,0,0,0,.414.789,5.1,5.1,0,0,0,1.5.508,7.8,7.8,0,0,1,1.754.578,2.558,2.558,0,0,1,1,.809,1.988,1.988,0,0,1,.324,1.152,2.163,2.163,0,0,1-.906,1.816,3.8,3.8,0,0,1-2.352.684,4.257,4.257,0,0,1-1.8-.359,2.922,2.922,0,0,1-1.223-1A2.42,2.42,0,0,1,73.25-2.6H74.7a1.5,1.5,0,0,0,.582,1.152,2.258,2.258,0,0,0,1.434.426,2.331,2.331,0,0,0,1.316-.332A1.02,1.02,0,0,0,78.523-2.242ZM83.422,0H81.977V-8.453h1.445ZM81.859-10.7a.863.863,0,0,1,.215-.594.807.807,0,0,1,.637-.242.819.819,0,0,1,.641.242.854.854,0,0,1,.219.594.826.826,0,0,1-.219.586.834.834,0,0,1-.641.234.821.821,0,0,1-.637-.234A.834.834,0,0,1,81.859-10.7ZM87.3,0H85.859V-12H87.3Zm3.883,0H89.742V-12h1.445Zm1.93-4.3a4.993,4.993,0,0,1,.488-2.234A3.643,3.643,0,0,1,94.965-8.07a3.7,3.7,0,0,1,1.988-.539,3.565,3.565,0,0,1,2.793,1.2,4.6,4.6,0,0,1,1.066,3.18v.1a5.036,5.036,0,0,1-.473,2.215A3.589,3.589,0,0,1,98.988-.391a3.743,3.743,0,0,1-2.02.547,3.556,3.556,0,0,1-2.785-1.2A4.575,4.575,0,0,1,93.117-4.2Zm1.453.172a3.616,3.616,0,0,0,.652,2.258,2.088,2.088,0,0,0,1.746.852,2.075,2.075,0,0,0,1.75-.863A3.955,3.955,0,0,0,99.367-4.3a3.61,3.61,0,0,0-.66-2.254,2.1,2.1,0,0,0-1.754-.863,2.075,2.075,0,0,0-1.727.852A3.925,3.925,0,0,0,94.57-4.133ZM111.188,0h-1.453V-9.633l-2.914,1.07V-9.875l4.141-1.555h.227Zm6.336-6.391h1.086a2.387,2.387,0,0,0,1.609-.539,1.8,1.8,0,0,0,.586-1.414,1.764,1.764,0,0,0-1.992-2,2.072,2.072,0,0,0-1.5.535,1.873,1.873,0,0,0-.559,1.418h-1.445a2.9,2.9,0,0,1,.988-2.246,3.6,3.6,0,0,1,2.512-.895,3.558,3.558,0,0,1,2.523.852,3.076,3.076,0,0,1,.914,2.367,2.5,2.5,0,0,1-.48,1.438,2.9,2.9,0,0,1-1.309,1.039,2.8,2.8,0,0,1,1.449.984,2.734,2.734,0,0,1,.512,1.68,3.1,3.1,0,0,1-1,2.43,3.745,3.745,0,0,1-2.6.9,3.844,3.844,0,0,1-2.605-.867,2.877,2.877,0,0,1-1-2.289h1.453a1.859,1.859,0,0,0,.586,1.438,2.229,2.229,0,0,0,1.57.539,2.187,2.187,0,0,0,1.6-.547,2.108,2.108,0,0,0,.555-1.57,1.912,1.912,0,0,0-.609-1.523,2.655,2.655,0,0,0-1.758-.547h-1.086Zm14.383,5.367a2.082,2.082,0,0,0,1.352-.469,1.649,1.649,0,0,0,.641-1.172h1.367a2.621,2.621,0,0,1-.5,1.383,3.293,3.293,0,0,1-1.23,1.047,3.55,3.55,0,0,1-1.629.391A3.482,3.482,0,0,1,129.16-1a4.59,4.59,0,0,1-1.02-3.152v-.242a5.089,5.089,0,0,1,.453-2.2,3.451,3.451,0,0,1,1.3-1.492,3.7,3.7,0,0,1,2-.531,3.39,3.39,0,0,1,2.363.852,3.043,3.043,0,0,1,1,2.211H133.9a1.992,1.992,0,0,0-.621-1.348,1.932,1.932,0,0,0-1.379-.527,2.023,2.023,0,0,0-1.707.793,3.724,3.724,0,0,0-.605,2.293v.273a3.65,3.65,0,0,0,.6,2.25A2.033,2.033,0,0,0,131.906-1.023Zm6.344-7.43.039.938A3.122,3.122,0,0,1,140.8-8.609a2.417,2.417,0,0,1,2.414,1.359,3.2,3.2,0,0,1,1.1-.984,3.242,3.242,0,0,1,1.6-.375q2.781,0,2.828,2.945V0h-1.445V-5.578a1.941,1.941,0,0,0-.414-1.355,1.823,1.823,0,0,0-1.391-.449,1.917,1.917,0,0,0-1.336.48,1.949,1.949,0,0,0-.617,1.293V0h-1.453V-5.539a1.613,1.613,0,0,0-1.8-1.844,1.934,1.934,0,0,0-1.945,1.211V0h-1.445V-8.453Z" transform="translate(1011.031 14780.533)"/>
    <path id="Trazado_904098" data-name="Trazado 904098" d="M0,0H319.918V546.666H0Z" transform="translate(938.132 14240.276)" fill="none"/>
    <path id="Trazado_904099" data-name="Trazado 904099" d="M6.824,0H.768V-.844L3.967-4.4A7.6,7.6,0,0,0,4.948-5.71a2.188,2.188,0,0,0,.27-1.044A1.658,1.658,0,0,0,4.78-7.941,1.531,1.531,0,0,0,3.612-8.4a1.814,1.814,0,0,0-1.362.5,1.9,1.9,0,0,0-.486,1.387H.59a2.726,2.726,0,0,1,.822-2.063,3.047,3.047,0,0,1,2.2-.787,2.928,2.928,0,0,1,2.038.676,2.306,2.306,0,0,1,.749,1.8,5.287,5.287,0,0,1-1.739,3.25L2.184-.958h4.64Zm1.39-.616a.735.735,0,0,1,.181-.508.689.689,0,0,1,.543-.2.71.71,0,0,1,.549.2.721.721,0,0,1,.187.508.681.681,0,0,1-.187.489.723.723,0,0,1-.549.2.7.7,0,0,1-.543-.2A.7.7,0,0,1,8.214-.616Zm3.815-4.018.47-4.608h4.735v1.085H13.5l-.279,2.52a2.983,2.983,0,0,1,1.542-.4,2.55,2.55,0,0,1,2.006.835,3.271,3.271,0,0,1,.743,2.257A3.158,3.158,0,0,1,16.736-.7a2.811,2.811,0,0,1-2.155.822,2.921,2.921,0,0,1-2-.679A2.711,2.711,0,0,1,11.7-2.431H12.81a1.865,1.865,0,0,0,.565,1.2,1.757,1.757,0,0,0,1.206.4,1.585,1.585,0,0,0,1.285-.559,2.335,2.335,0,0,0,.467-1.542,2.143,2.143,0,0,0-.5-1.489,1.717,1.717,0,0,0-1.343-.562,1.936,1.936,0,0,0-1.206.336l-.311.254Zm12.854,3.8a1.692,1.692,0,0,0,1.1-.381,1.34,1.34,0,0,0,.521-.952h1.111a2.13,2.13,0,0,1-.406,1.124,2.676,2.676,0,0,1-1,.851,2.885,2.885,0,0,1-1.323.317,2.829,2.829,0,0,1-2.231-.936,3.729,3.729,0,0,1-.828-2.561v-.2a4.135,4.135,0,0,1,.368-1.784,2.8,2.8,0,0,1,1.057-1.212A3,3,0,0,1,24.876-7,2.755,2.755,0,0,1,26.8-6.3a2.473,2.473,0,0,1,.816,1.8H26.5A1.618,1.618,0,0,0,26-5.6a1.57,1.57,0,0,0-1.12-.428,1.644,1.644,0,0,0-1.387.644A3.026,3.026,0,0,0,23-3.523V-3.3a2.965,2.965,0,0,0,.489,1.828A1.651,1.651,0,0,0,24.883-.832Zm5.154-6.037.032.762A2.536,2.536,0,0,1,32.106-7a1.964,1.964,0,0,1,1.961,1.1,2.6,2.6,0,0,1,.892-.8,2.634,2.634,0,0,1,1.3-.3q2.26,0,2.3,2.393V0H37.381V-4.532a1.577,1.577,0,0,0-.336-1.1A1.482,1.482,0,0,0,35.915-6a1.557,1.557,0,0,0-1.085.39,1.584,1.584,0,0,0-.5,1.051V0H33.147V-4.5A1.31,1.31,0,0,0,31.681-6a1.571,1.571,0,0,0-1.581.984V0H28.926V-6.868Z" transform="translate(998.741 14371.01)"/>
    <path id="Trazado_904100" data-name="Trazado 904100" d="M6.824,0H.768V-.844L3.967-4.4A7.6,7.6,0,0,0,4.948-5.71a2.188,2.188,0,0,0,.27-1.044A1.658,1.658,0,0,0,4.78-7.941,1.531,1.531,0,0,0,3.612-8.4a1.814,1.814,0,0,0-1.362.5,1.9,1.9,0,0,0-.486,1.387H.59a2.726,2.726,0,0,1,.822-2.063,3.047,3.047,0,0,1,2.2-.787,2.928,2.928,0,0,1,2.038.676,2.306,2.306,0,0,1,.749,1.8,5.287,5.287,0,0,1-1.739,3.25L2.184-.958h4.64Zm1.39-.616a.735.735,0,0,1,.181-.508.689.689,0,0,1,.543-.2.71.71,0,0,1,.549.2.721.721,0,0,1,.187.508.681.681,0,0,1-.187.489.723.723,0,0,1-.549.2.7.7,0,0,1-.543-.2A.7.7,0,0,1,8.214-.616Zm3.815-4.018.47-4.608h4.735v1.085H13.5l-.279,2.52a2.983,2.983,0,0,1,1.542-.4,2.55,2.55,0,0,1,2.006.835,3.271,3.271,0,0,1,.743,2.257A3.158,3.158,0,0,1,16.736-.7a2.811,2.811,0,0,1-2.155.822,2.921,2.921,0,0,1-2-.679A2.711,2.711,0,0,1,11.7-2.431H12.81a1.865,1.865,0,0,0,.565,1.2,1.757,1.757,0,0,0,1.206.4,1.585,1.585,0,0,0,1.285-.559,2.335,2.335,0,0,0,.467-1.542,2.143,2.143,0,0,0-.5-1.489,1.717,1.717,0,0,0-1.343-.562,1.936,1.936,0,0,0-1.206.336l-.311.254Zm12.854,3.8a1.692,1.692,0,0,0,1.1-.381,1.34,1.34,0,0,0,.521-.952h1.111a2.13,2.13,0,0,1-.406,1.124,2.676,2.676,0,0,1-1,.851,2.885,2.885,0,0,1-1.323.317,2.829,2.829,0,0,1-2.231-.936,3.729,3.729,0,0,1-.828-2.561v-.2a4.135,4.135,0,0,1,.368-1.784,2.8,2.8,0,0,1,1.057-1.212A3,3,0,0,1,24.876-7,2.755,2.755,0,0,1,26.8-6.3a2.473,2.473,0,0,1,.816,1.8H26.5A1.618,1.618,0,0,0,26-5.6a1.57,1.57,0,0,0-1.12-.428,1.644,1.644,0,0,0-1.387.644A3.026,3.026,0,0,0,23-3.523V-3.3a2.965,2.965,0,0,0,.489,1.828A1.651,1.651,0,0,0,24.883-.832Zm5.154-6.037.032.762A2.536,2.536,0,0,1,32.106-7a1.964,1.964,0,0,1,1.961,1.1,2.6,2.6,0,0,1,.892-.8,2.634,2.634,0,0,1,1.3-.3q2.26,0,2.3,2.393V0H37.381V-4.532a1.577,1.577,0,0,0-.336-1.1A1.482,1.482,0,0,0,35.915-6a1.557,1.557,0,0,0-1.085.39,1.584,1.584,0,0,0-.5,1.051V0H33.147V-4.5A1.31,1.31,0,0,0,31.681-6a1.571,1.571,0,0,0-1.581.984V0H28.926V-6.868Z" transform="translate(1144.226 14371.01)"/>
    <path id="Trazado_904101" data-name="Trazado 904101" d="M0,35.934V0" transform="translate(1204.325 14440.135)" fill="none" stroke="#1d1d1b" stroke-width="1.011"/>
    <path id="Trazado_903828" data-name="Trazado 903828" d="M338.943,251.934l-3.991-6.913-3.992,6.913Z" transform="translate(869.374 14189.372)" fill="#1d1d1b"/>
    <path id="Trazado_904102" data-name="Trazado 904102" d="M0,29.734V0" transform="translate(1204.325 14678.995)" fill="none" stroke="#1d1d1b" stroke-width="0.926"/>
    <path id="Trazado_903829" data-name="Trazado 903829" d="M338.7,553.457l-3.658-6.335-3.658,6.335Z" transform="translate(869.287 14126.609)" fill="#1d1d1b"/>
    <path id="Trazado_904103" data-name="Trazado 904103" d="M0,29.734V0" transform="translate(982.438 14678.995)" fill="none" stroke="#1d1d1b" stroke-width="0.926"/>
    <path id="Trazado_903830" data-name="Trazado 903830" d="M58.624,553.457l-3.658-6.335-3.658,6.335Z" transform="translate(927.473 14126.609)" fill="#1d1d1b"/>
    <path id="Trazado_904104" data-name="Trazado 904104" d="M0,0H191.273" transform="translate(992.12 14474.612)" fill="none" stroke="#222221" stroke-width="0.839" stroke-dasharray="4.772 4.772"/>
    <path id="Trazado_903831" data-name="Trazado 903831" d="M321.714,303.452V282.674l-10.389,10.389Z" transform="translate(873.453 14181.55)"/>
    <path id="Trazado_903832" data-name="Trazado 903832" d="M67.2,282.674v20.777l10.389-10.389Z" transform="translate(924.17 14181.55)"/>
    <path id="Trazado_903833" data-name="Trazado 903833" d="M68.145,30.063s201.477-1.57,201.477,0v74.311l-100.738,40.3-100.739-40.3Z" transform="translate(923.975 14234.176)" fill="none" stroke="#1d1d1b" stroke-miterlimit="10" stroke-width="1"/>
    <path id="Trazado_903834" data-name="Trazado 903834" d="M68.145,130.65v35.062H269.622V130.65" transform="translate(923.975 14213.134)" fill="none" stroke="#1d1d1b" stroke-miterlimit="10" stroke-width="1" stroke-dasharray="5.733 5.733"/>
    <path id="Trazado_904105" data-name="Trazado 904105" d="M0,0H319.918V546.666H0Z" transform="translate(938.132 14240.276)" fill="none"/>
    <path id="Trazado_904106" data-name="Trazado 904106" d="M4.627,0H3.447V-7.827l-2.368.87V-8.023L4.443-9.287h.184ZM8.214-.616a.735.735,0,0,1,.181-.508.689.689,0,0,1,.543-.2.71.71,0,0,1,.549.2.721.721,0,0,1,.187.508.681.681,0,0,1-.187.489.723.723,0,0,1-.549.2.7.7,0,0,1-.543-.2A.7.7,0,0,1,8.214-.616Zm3.815-4.018.47-4.608h4.735v1.085H13.5l-.279,2.52a2.983,2.983,0,0,1,1.542-.4,2.55,2.55,0,0,1,2.006.835,3.271,3.271,0,0,1,.743,2.257A3.158,3.158,0,0,1,16.736-.7a2.811,2.811,0,0,1-2.155.822,2.921,2.921,0,0,1-2-.679A2.711,2.711,0,0,1,11.7-2.431H12.81a1.865,1.865,0,0,0,.565,1.2,1.757,1.757,0,0,0,1.206.4,1.585,1.585,0,0,0,1.285-.559,2.335,2.335,0,0,0,.467-1.542,2.143,2.143,0,0,0-.5-1.489,1.717,1.717,0,0,0-1.343-.562,1.936,1.936,0,0,0-1.206.336l-.311.254Zm12.854,3.8a1.692,1.692,0,0,0,1.1-.381,1.34,1.34,0,0,0,.521-.952h1.111a2.13,2.13,0,0,1-.406,1.124,2.676,2.676,0,0,1-1,.851,2.885,2.885,0,0,1-1.323.317,2.829,2.829,0,0,1-2.231-.936,3.729,3.729,0,0,1-.828-2.561v-.2a4.135,4.135,0,0,1,.368-1.784,2.8,2.8,0,0,1,1.057-1.212A3,3,0,0,1,24.876-7,2.755,2.755,0,0,1,26.8-6.3a2.473,2.473,0,0,1,.816,1.8H26.5A1.618,1.618,0,0,0,26-5.6a1.57,1.57,0,0,0-1.12-.428,1.644,1.644,0,0,0-1.387.644A3.026,3.026,0,0,0,23-3.523V-3.3a2.965,2.965,0,0,0,.489,1.828A1.651,1.651,0,0,0,24.883-.832Zm5.154-6.037.032.762A2.536,2.536,0,0,1,32.106-7a1.964,1.964,0,0,1,1.961,1.1,2.6,2.6,0,0,1,.892-.8,2.634,2.634,0,0,1,1.3-.3q2.26,0,2.3,2.393V0H37.381V-4.532a1.577,1.577,0,0,0-.336-1.1A1.482,1.482,0,0,0,35.915-6a1.557,1.557,0,0,0-1.085.39,1.584,1.584,0,0,0-.5,1.051V0H33.147V-4.5A1.31,1.31,0,0,0,31.681-6a1.571,1.571,0,0,0-1.581.984V0H28.926V-6.868Z" transform="translate(998.741 14700.894)"/>
    <path id="Trazado_904107" data-name="Trazado 904107" d="M4.627,0H3.447V-7.827l-2.368.87V-8.023L4.443-9.287h.184ZM8.214-.616a.735.735,0,0,1,.181-.508.689.689,0,0,1,.543-.2.71.71,0,0,1,.549.2.721.721,0,0,1,.187.508.681.681,0,0,1-.187.489.723.723,0,0,1-.549.2.7.7,0,0,1-.543-.2A.7.7,0,0,1,8.214-.616Zm3.815-4.018.47-4.608h4.735v1.085H13.5l-.279,2.52a2.983,2.983,0,0,1,1.542-.4,2.55,2.55,0,0,1,2.006.835,3.271,3.271,0,0,1,.743,2.257A3.158,3.158,0,0,1,16.736-.7a2.811,2.811,0,0,1-2.155.822,2.921,2.921,0,0,1-2-.679A2.711,2.711,0,0,1,11.7-2.431H12.81a1.865,1.865,0,0,0,.565,1.2,1.757,1.757,0,0,0,1.206.4,1.585,1.585,0,0,0,1.285-.559,2.335,2.335,0,0,0,.467-1.542,2.143,2.143,0,0,0-.5-1.489,1.717,1.717,0,0,0-1.343-.562,1.936,1.936,0,0,0-1.206.336l-.311.254Zm12.854,3.8a1.692,1.692,0,0,0,1.1-.381,1.34,1.34,0,0,0,.521-.952h1.111a2.13,2.13,0,0,1-.406,1.124,2.676,2.676,0,0,1-1,.851,2.885,2.885,0,0,1-1.323.317,2.829,2.829,0,0,1-2.231-.936,3.729,3.729,0,0,1-.828-2.561v-.2a4.135,4.135,0,0,1,.368-1.784,2.8,2.8,0,0,1,1.057-1.212A3,3,0,0,1,24.876-7,2.755,2.755,0,0,1,26.8-6.3a2.473,2.473,0,0,1,.816,1.8H26.5A1.618,1.618,0,0,0,26-5.6a1.57,1.57,0,0,0-1.12-.428,1.644,1.644,0,0,0-1.387.644A3.026,3.026,0,0,0,23-3.523V-3.3a2.965,2.965,0,0,0,.489,1.828A1.651,1.651,0,0,0,24.883-.832Zm5.154-6.037.032.762A2.536,2.536,0,0,1,32.106-7a1.964,1.964,0,0,1,1.961,1.1,2.6,2.6,0,0,1,.892-.8,2.634,2.634,0,0,1,1.3-.3q2.26,0,2.3,2.393V0H37.381V-4.532a1.577,1.577,0,0,0-.336-1.1A1.482,1.482,0,0,0,35.915-6a1.557,1.557,0,0,0-1.085.39,1.584,1.584,0,0,0-.5,1.051V0H33.147V-4.5A1.31,1.31,0,0,0,31.681-6a1.571,1.571,0,0,0-1.581.984V0H28.926V-6.868Z" transform="translate(1144.226 14700.894)"/>
    <path id="Trazado_903835" data-name="Trazado 903835" d="M68.145,547.04V582.1H269.622V547.04" transform="translate(923.975 14126.627)" fill="none" stroke="#1d1d1b" stroke-miterlimit="10" stroke-width="1" stroke-dasharray="5.733 5.733"/>
    <path id="Trazado_904108" data-name="Trazado 904108" d="M0,0V14.13" transform="translate(1094.167 14387.35)" fill="none" stroke="#1d1d1b" stroke-width="1"/>
    <path id="Trazado_904109" data-name="Trazado 904109" d="M0,0H198.591" transform="translate(994.871 14733.11)" fill="none" stroke="#1d1d1b" stroke-width="1"/>
    <path id="Trazado_904110" data-name="Trazado 904110" d="M0,0H.792V5.15H0Z" transform="translate(994.475 14730.535)" fill="#1d1d1b"/>
    <path id="Trazado_904111" data-name="Trazado 904111" d="M0,0H.792V5.15H0Z" transform="translate(1193.067 14730.535)" fill="#1d1d1b"/>
    <path id="Trazado_904112" data-name="Trazado 904112" d="M0,0V14.13" transform="translate(1094.167 14726.045)" fill="none" stroke="#1d1d1b" stroke-width="1"/>
    <path id="Trazado_903836" data-name="Trazado 903836" d="M271.192,485.127,169.668,510.509,68.145,485.127v-240.2H271.192Z" transform="translate(923.975 14189.393)" fill="none" stroke="#1d1d1b" stroke-miterlimit="10" stroke-width="1"/>
    <path id="Trazado_904113" data-name="Trazado 904113" d="M0,0H8.9" transform="translate(992.12 14470.905)" fill="none" stroke="#1d1d1b" stroke-width="1" stroke-dasharray="5.733 5.733"/>
    <path id="Trazado_904114" data-name="Trazado 904114" d="M0,0H319.918V546.666H0Z" transform="translate(938.132 14240.276)" fill="none"/>
  </g>
</svg>
