<svg xmlns="http://www.w3.org/2000/svg" width="459.023" height="440.702" viewBox="0 0 459.023 440.702">
  <g id="Grupo_1114944" data-name="Grupo 1114944" transform="translate(-265 -14282.219)">
    <path id="Trazado_903822" data-name="Trazado 903822" d="M72.6,355l152.71,38.883L375.549,355V.5H72.6Z" transform="translate(252.883 14282.218)" fill="none" stroke="#1d1d1b" stroke-miterlimit="10" stroke-width="1"/>
    <path id="Trazado_904071" data-name="Trazado 904071" d="M0,0H459.023V440.62H0Z" transform="translate(265 14282.302)" fill="none"/>
    <path id="Trazado_904054" data-name="Trazado 904054" d="M0,0H285.61" transform="translate(330.44 14338.024)" fill="none" stroke="#222221" stroke-width="1" stroke-dasharray="5.686 5.686"/>
    <path id="Trazado_904055" data-name="Trazado 904055" d="M0,0H297.159" transform="translate(325.904 14687.859)" fill="none" stroke="#1d1d1b" stroke-width="1"/>
    <path id="Trazado_904056" data-name="Trazado 904056" d="M0,0H.833V5.416H0Z" transform="translate(325.488 14685.15)" fill="#1d1d1b"/>
    <path id="Trazado_904057" data-name="Trazado 904057" d="M0,0H.833V5.416H0Z" transform="translate(622.646 14685.15)" fill="#1d1d1b"/>
    <path id="Trazado_903823" data-name="Trazado 903823" d="M72.6,428.011v38.883H375.549V428.011" transform="translate(252.883 14210.87)" fill="none" stroke="#1d1d1b" stroke-miterlimit="10" stroke-width="1.008" stroke-dasharray="5.733 5.733"/>
    <path id="Trazado_904058" data-name="Trazado 904058" d="M0,332.032V0" transform="translate(650.792 14338.465)" fill="none" stroke="#1d1d1b" stroke-width="1.057"/>
    <path id="Trazado_904059" data-name="Trazado 904059" d="M0,0H5.723V.881H0Z" transform="translate(647.931 14670.056)" fill="#1d1d1b"/>
    <path id="Trazado_904060" data-name="Trazado 904060" d="M0,0H5.723V.881H0Z" transform="translate(647.931 14338.025)" fill="#1d1d1b"/>
    <path id="Trazado_904061" data-name="Trazado 904061" d="M0,0H297.159" transform="translate(325.904 14720.214)" fill="none" stroke="#1d1d1b" stroke-width="1"/>
    <path id="Trazado_904062" data-name="Trazado 904062" d="M0,0H.833V5.415H0Z" transform="translate(325.488 14717.506)" fill="#1d1d1b"/>
    <path id="Trazado_904063" data-name="Trazado 904063" d="M0,0H.833V5.415H0Z" transform="translate(622.646 14717.506)" fill="#1d1d1b"/>
    <path id="Trazado_904064" data-name="Trazado 904064" d="M8.552-3.349H3.19L1.986,0H.246L5.133-12.8H6.609L11.5,0H9.773ZM3.7-4.729H8.051l-2.18-5.985ZM14.511-9.51l.053,1.2a3.465,3.465,0,0,1,2.848-1.371q3.015,0,3.041,3.4V0H18.826V-6.293a2.189,2.189,0,0,0-.47-1.521,1.884,1.884,0,0,0-1.437-.492,2.347,2.347,0,0,0-1.389.422A2.865,2.865,0,0,0,14.6-6.776V0H12.973V-9.51ZM26.719-1.151a2.342,2.342,0,0,0,1.521-.527A1.855,1.855,0,0,0,28.96-3H30.5a2.949,2.949,0,0,1-.562,1.556A3.7,3.7,0,0,1,28.551-.264a3.994,3.994,0,0,1-1.833.439,3.918,3.918,0,0,1-3.089-1.3,5.163,5.163,0,0,1-1.147-3.546v-.272a5.725,5.725,0,0,1,.51-2.47,3.883,3.883,0,0,1,1.463-1.679,4.157,4.157,0,0,1,2.254-.6,3.814,3.814,0,0,1,2.659.958A3.424,3.424,0,0,1,30.5-6.24H28.96a2.241,2.241,0,0,0-.7-1.516A2.174,2.174,0,0,0,26.71-8.35a2.276,2.276,0,0,0-1.92.892,4.19,4.19,0,0,0-.681,2.58v.308a4.106,4.106,0,0,0,.677,2.531A2.287,2.287,0,0,0,26.719-1.151Zm7.233-7.207a3.457,3.457,0,0,1,2.813-1.327q3.015,0,3.041,3.4V0H38.18V-6.293a2.189,2.189,0,0,0-.47-1.521,1.884,1.884,0,0,0-1.437-.492,2.347,2.347,0,0,0-1.389.422,2.865,2.865,0,0,0-.932,1.107V0H32.326V-13.5h1.626ZM41.81-4.843a5.617,5.617,0,0,1,.549-2.514,4.1,4.1,0,0,1,1.529-1.723,4.163,4.163,0,0,1,2.237-.606,4.01,4.01,0,0,1,3.142,1.345,5.174,5.174,0,0,1,1.2,3.577v.114a5.666,5.666,0,0,1-.532,2.492A4.038,4.038,0,0,1,48.415-.439a4.211,4.211,0,0,1-2.272.615,4,4,0,0,1-3.133-1.345,5.147,5.147,0,0,1-1.2-3.56Zm1.635.193a4.068,4.068,0,0,0,.734,2.54,2.349,2.349,0,0,0,1.964.958,2.335,2.335,0,0,0,1.969-.971,4.449,4.449,0,0,0,.729-2.72A4.061,4.061,0,0,0,48.1-7.378a2.361,2.361,0,0,0-1.973-.971,2.335,2.335,0,0,0-1.942.958A4.416,4.416,0,0,0,43.444-4.649ZM57.217,0V-12.8H61.4a4.856,4.856,0,0,1,3.133.861,3.1,3.1,0,0,1,1.05,2.549,2.6,2.6,0,0,1-.51,1.586,3.3,3.3,0,0,1-1.389,1.068,2.968,2.968,0,0,1,1.639,1.1,3.166,3.166,0,0,1,.6,1.938A3.423,3.423,0,0,1,64.811-.984,4.616,4.616,0,0,1,61.655,0ZM58.9-5.985V-1.38H61.69a2.683,2.683,0,0,0,1.859-.611,2.145,2.145,0,0,0,.681-1.683q0-2.312-2.514-2.312Zm0-1.354h2.549a2.672,2.672,0,0,0,1.771-.555A1.86,1.86,0,0,0,63.888-9.4a1.829,1.829,0,0,0-.615-1.537,3.021,3.021,0,0,0-1.872-.48H58.9Zm8.833,2.5a5.617,5.617,0,0,1,.549-2.514,4.1,4.1,0,0,1,1.529-1.723,4.163,4.163,0,0,1,2.237-.606,4.01,4.01,0,0,1,3.142,1.345,5.174,5.174,0,0,1,1.2,3.577v.114a5.666,5.666,0,0,1-.532,2.492A4.038,4.038,0,0,1,74.342-.439,4.211,4.211,0,0,1,72.07.176a4,4,0,0,1-3.133-1.345,5.147,5.147,0,0,1-1.2-3.56Zm1.635.193a4.068,4.068,0,0,0,.734,2.54,2.349,2.349,0,0,0,1.964.958,2.335,2.335,0,0,0,1.969-.971,4.449,4.449,0,0,0,.729-2.72,4.061,4.061,0,0,0-.743-2.536,2.361,2.361,0,0,0-1.973-.971,2.335,2.335,0,0,0-1.942.958A4.416,4.416,0,0,0,69.372-4.649ZM80.2,0H78.574V-13.5H80.2Zm8.139-2.522a1.2,1.2,0,0,0-.5-1.024,4.78,4.78,0,0,0-1.731-.628,8.186,8.186,0,0,1-1.96-.633,2.788,2.788,0,0,1-1.072-.879A2.1,2.1,0,0,1,82.731-6.9a2.467,2.467,0,0,1,.989-1.978,3.861,3.861,0,0,1,2.527-.809,3.974,3.974,0,0,1,2.624.835,2.652,2.652,0,0,1,1.006,2.136H88.242a1.468,1.468,0,0,0-.567-1.151,2.124,2.124,0,0,0-1.428-.483,2.223,2.223,0,0,0-1.389.387,1.217,1.217,0,0,0-.5,1.011.986.986,0,0,0,.466.888,5.731,5.731,0,0,0,1.683.571,8.77,8.77,0,0,1,1.973.65,2.878,2.878,0,0,1,1.121.91,2.237,2.237,0,0,1,.365,1.3,2.434,2.434,0,0,1-1.02,2.043A4.277,4.277,0,0,1,86.3.176a4.789,4.789,0,0,1-2.021-.4A3.288,3.288,0,0,1,82.9-1.358a2.722,2.722,0,0,1-.5-1.569h1.626a1.683,1.683,0,0,0,.655,1.3,2.54,2.54,0,0,0,1.613.479,2.622,2.622,0,0,0,1.481-.374A1.148,1.148,0,0,0,88.339-2.522ZM93.85,0H92.224V-9.51H93.85ZM92.092-12.032a.971.971,0,0,1,.242-.668.907.907,0,0,1,.716-.272.922.922,0,0,1,.721.272.96.96,0,0,1,.246.668.929.929,0,0,1-.246.659.938.938,0,0,1-.721.264.924.924,0,0,1-.716-.264A.938.938,0,0,1,92.092-12.032ZM98.218,0H96.592V-13.5h1.626Zm4.368,0H100.96V-13.5h1.626Zm2.171-4.843a5.617,5.617,0,0,1,.549-2.514,4.1,4.1,0,0,1,1.529-1.723,4.163,4.163,0,0,1,2.237-.606,4.01,4.01,0,0,1,3.142,1.345,5.174,5.174,0,0,1,1.2,3.577v.114a5.666,5.666,0,0,1-.532,2.492,4.038,4.038,0,0,1-1.521,1.718,4.211,4.211,0,0,1-2.272.615,4,4,0,0,1-3.133-1.345,5.147,5.147,0,0,1-1.2-3.56Zm1.635.193a4.068,4.068,0,0,0,.734,2.54,2.349,2.349,0,0,0,1.964.958,2.335,2.335,0,0,0,1.969-.971,4.449,4.449,0,0,0,.729-2.72,4.061,4.061,0,0,0-.743-2.536,2.361,2.361,0,0,0-1.973-.971,2.335,2.335,0,0,0-1.942.958A4.416,4.416,0,0,0,106.392-4.649ZM125.086,0h-1.635V-10.837l-3.278,1.2v-1.477l4.658-1.749h.255Zm7.128-7.189h1.222a2.685,2.685,0,0,0,1.811-.606,2.026,2.026,0,0,0,.659-1.591,1.985,1.985,0,0,0-2.241-2.25,2.331,2.331,0,0,0-1.683.6,2.107,2.107,0,0,0-.628,1.6h-1.626a3.264,3.264,0,0,1,1.112-2.527,4.05,4.05,0,0,1,2.826-1.006,4,4,0,0,1,2.839.958,3.461,3.461,0,0,1,1.028,2.663,2.809,2.809,0,0,1-.541,1.617,3.264,3.264,0,0,1-1.472,1.169,3.145,3.145,0,0,1,1.63,1.107,3.076,3.076,0,0,1,.576,1.89A3.491,3.491,0,0,1,136.6-.835,4.213,4.213,0,0,1,133.673.176,4.324,4.324,0,0,1,130.742-.8a3.236,3.236,0,0,1-1.129-2.575h1.635a2.092,2.092,0,0,0,.659,1.617,2.507,2.507,0,0,0,1.767.606,2.46,2.46,0,0,0,1.8-.615,2.371,2.371,0,0,0,.624-1.767,2.151,2.151,0,0,0-.686-1.714,2.987,2.987,0,0,0-1.978-.615h-1.222Zm16.181,6.038a2.342,2.342,0,0,0,1.521-.527A1.855,1.855,0,0,0,150.636-3h1.538a2.949,2.949,0,0,1-.562,1.556,3.7,3.7,0,0,1-1.384,1.178,3.994,3.994,0,0,1-1.833.439,3.918,3.918,0,0,1-3.089-1.3,5.163,5.163,0,0,1-1.147-3.546v-.272a5.725,5.725,0,0,1,.51-2.47,3.883,3.883,0,0,1,1.463-1.679,4.157,4.157,0,0,1,2.254-.6,3.814,3.814,0,0,1,2.659.958,3.424,3.424,0,0,1,1.129,2.487h-1.538a2.241,2.241,0,0,0-.7-1.516,2.174,2.174,0,0,0-1.551-.593,2.276,2.276,0,0,0-1.92.892,4.19,4.19,0,0,0-.681,2.58v.308a4.106,4.106,0,0,0,.677,2.531A2.287,2.287,0,0,0,148.395-1.151Zm7.137-8.358.044,1.055a3.512,3.512,0,0,1,2.821-1.23,2.719,2.719,0,0,1,2.716,1.529,3.6,3.6,0,0,1,1.235-1.107,3.647,3.647,0,0,1,1.8-.422q3.129,0,3.182,3.313V0H165.7V-6.275a2.184,2.184,0,0,0-.466-1.525,2.051,2.051,0,0,0-1.564-.505,2.156,2.156,0,0,0-1.5.541,2.193,2.193,0,0,0-.694,1.455V0h-1.635V-6.231a1.814,1.814,0,0,0-2.03-2.074,2.175,2.175,0,0,0-2.188,1.362V0h-1.626V-9.51Z" transform="translate(389.625 14710.567)"/>
    <path id="Trazado_904072" data-name="Trazado 904072" d="M3.428-7.189H4.649A2.685,2.685,0,0,0,6.46-7.8a2.026,2.026,0,0,0,.659-1.591,1.985,1.985,0,0,0-2.241-2.25,2.331,2.331,0,0,0-1.683.6,2.107,2.107,0,0,0-.628,1.6H.94a3.264,3.264,0,0,1,1.112-2.527,4.05,4.05,0,0,1,2.826-1.006,4,4,0,0,1,2.839.958A3.461,3.461,0,0,1,8.745-9.352,2.809,2.809,0,0,1,8.2-7.734,3.264,3.264,0,0,1,6.732-6.565a3.145,3.145,0,0,1,1.63,1.107,3.076,3.076,0,0,1,.576,1.89A3.491,3.491,0,0,1,7.813-.835,4.213,4.213,0,0,1,4.887.176,4.324,4.324,0,0,1,1.956-.8,3.236,3.236,0,0,1,.826-3.375H2.461A2.092,2.092,0,0,0,3.12-1.758a2.507,2.507,0,0,0,1.767.606,2.46,2.46,0,0,0,1.8-.615,2.371,2.371,0,0,0,.624-1.767,2.151,2.151,0,0,0-.686-1.714,2.987,2.987,0,0,0-1.978-.615H3.428ZM19.608-1.151a2.342,2.342,0,0,0,1.521-.527A1.855,1.855,0,0,0,21.85-3h1.538a2.949,2.949,0,0,1-.562,1.556A3.7,3.7,0,0,1,21.441-.264a3.994,3.994,0,0,1-1.833.439,3.918,3.918,0,0,1-3.089-1.3,5.163,5.163,0,0,1-1.147-3.546v-.272a5.725,5.725,0,0,1,.51-2.47,3.883,3.883,0,0,1,1.463-1.679,4.157,4.157,0,0,1,2.254-.6,3.814,3.814,0,0,1,2.659.958A3.424,3.424,0,0,1,23.388-6.24H21.85a2.241,2.241,0,0,0-.7-1.516A2.174,2.174,0,0,0,19.6-8.35a2.276,2.276,0,0,0-1.92.892A4.19,4.19,0,0,0,17-4.878v.308a4.106,4.106,0,0,0,.677,2.531A2.287,2.287,0,0,0,19.608-1.151ZM26.745-9.51l.044,1.055a3.512,3.512,0,0,1,2.821-1.23,2.719,2.719,0,0,1,2.716,1.529,3.6,3.6,0,0,1,1.235-1.107,3.647,3.647,0,0,1,1.8-.422q3.129,0,3.182,3.313V0H36.914V-6.275A2.184,2.184,0,0,0,36.448-7.8a2.051,2.051,0,0,0-1.564-.505,2.156,2.156,0,0,0-1.5.541,2.193,2.193,0,0,0-.694,1.455V0H31.052V-6.231a1.814,1.814,0,0,0-2.03-2.074,2.175,2.175,0,0,0-2.188,1.362V0H25.207V-9.51Z" transform="translate(265 14320.099)"/>
    <path id="Trazado_904073" data-name="Trazado 904073" d="M0,0H459.023V440.62H0Z" transform="translate(265 14282.302)" fill="none"/>
    <path id="Trazado_904065" data-name="Trazado 904065" d="M6.407,0H4.772V-10.837l-3.278,1.2v-1.477l4.658-1.749h.255Zm4.966-.853a1.018,1.018,0,0,1,.25-.7.954.954,0,0,1,.751-.281.983.983,0,0,1,.76.281,1,1,0,0,1,.259.7.944.944,0,0,1-.259.677,1,1,0,0,1-.76.272.971.971,0,0,1-.751-.272A.962.962,0,0,1,11.373-.853Zm5.282-5.563.65-6.381h6.557v1.5H18.686L18.3-7.8a4.13,4.13,0,0,1,2.136-.554A3.531,3.531,0,0,1,23.212-7.2,4.53,4.53,0,0,1,24.24-4.078,4.372,4.372,0,0,1,23.172-.962,3.892,3.892,0,0,1,20.188.176a4.045,4.045,0,0,1-2.769-.94,3.754,3.754,0,0,1-1.222-2.6h1.538a2.582,2.582,0,0,0,.782,1.657,2.432,2.432,0,0,0,1.67.558,2.194,2.194,0,0,0,1.78-.773,3.233,3.233,0,0,0,.646-2.136,2.968,2.968,0,0,0-.7-2.061A2.377,2.377,0,0,0,20.057-6.9a2.681,2.681,0,0,0-1.67.466l-.431.352Zm17.8,5.265a2.342,2.342,0,0,0,1.521-.527A1.855,1.855,0,0,0,36.694-3h1.538a2.949,2.949,0,0,1-.562,1.556A3.7,3.7,0,0,1,36.286-.264a3.994,3.994,0,0,1-1.833.439,3.918,3.918,0,0,1-3.089-1.3,5.163,5.163,0,0,1-1.147-3.546v-.272a5.725,5.725,0,0,1,.51-2.47A3.883,3.883,0,0,1,32.19-9.088a4.157,4.157,0,0,1,2.254-.6,3.814,3.814,0,0,1,2.659.958A3.424,3.424,0,0,1,38.232-6.24H36.694A2.241,2.241,0,0,0,36-7.756a2.174,2.174,0,0,0-1.551-.593,2.276,2.276,0,0,0-1.92.892,4.19,4.19,0,0,0-.681,2.58v.308a4.106,4.106,0,0,0,.677,2.531A2.287,2.287,0,0,0,34.453-1.151ZM41.59-9.51l.044,1.055a3.512,3.512,0,0,1,2.821-1.23,2.719,2.719,0,0,1,2.716,1.529,3.6,3.6,0,0,1,1.235-1.107,3.647,3.647,0,0,1,1.8-.422q3.129,0,3.182,3.313V0H51.759V-6.275A2.184,2.184,0,0,0,51.293-7.8a2.051,2.051,0,0,0-1.564-.505,2.156,2.156,0,0,0-1.5.541,2.193,2.193,0,0,0-.694,1.455V0H45.9V-6.231a1.814,1.814,0,0,0-2.03-2.074,2.175,2.175,0,0,0-2.188,1.362V0H40.052V-9.51Z" transform="translate(328.301 14671.382)"/>
    <path id="Trazado_904066" data-name="Trazado 904066" d="M6.407,0H4.772V-10.837l-3.278,1.2v-1.477l4.658-1.749h.255Zm4.966-.853a1.018,1.018,0,0,1,.25-.7.954.954,0,0,1,.751-.281.983.983,0,0,1,.76.281,1,1,0,0,1,.259.7.944.944,0,0,1-.259.677,1,1,0,0,1-.76.272.971.971,0,0,1-.751-.272A.962.962,0,0,1,11.373-.853Zm5.282-5.563.65-6.381h6.557v1.5H18.686L18.3-7.8a4.13,4.13,0,0,1,2.136-.554A3.531,3.531,0,0,1,23.212-7.2,4.53,4.53,0,0,1,24.24-4.078,4.372,4.372,0,0,1,23.172-.962,3.892,3.892,0,0,1,20.188.176a4.045,4.045,0,0,1-2.769-.94,3.754,3.754,0,0,1-1.222-2.6h1.538a2.582,2.582,0,0,0,.782,1.657,2.432,2.432,0,0,0,1.67.558,2.194,2.194,0,0,0,1.78-.773,3.233,3.233,0,0,0,.646-2.136,2.968,2.968,0,0,0-.7-2.061A2.377,2.377,0,0,0,20.057-6.9a2.681,2.681,0,0,0-1.67.466l-.431.352Zm17.8,5.265a2.342,2.342,0,0,0,1.521-.527A1.855,1.855,0,0,0,36.694-3h1.538a2.949,2.949,0,0,1-.562,1.556A3.7,3.7,0,0,1,36.286-.264a3.994,3.994,0,0,1-1.833.439,3.918,3.918,0,0,1-3.089-1.3,5.163,5.163,0,0,1-1.147-3.546v-.272a5.725,5.725,0,0,1,.51-2.47A3.883,3.883,0,0,1,32.19-9.088a4.157,4.157,0,0,1,2.254-.6,3.814,3.814,0,0,1,2.659.958A3.424,3.424,0,0,1,38.232-6.24H36.694A2.241,2.241,0,0,0,36-7.756a2.174,2.174,0,0,0-1.551-.593,2.276,2.276,0,0,0-1.92.892,4.19,4.19,0,0,0-.681,2.58v.308a4.106,4.106,0,0,0,.677,2.531A2.287,2.287,0,0,0,34.453-1.151ZM41.59-9.51l.044,1.055a3.512,3.512,0,0,1,2.821-1.23,2.719,2.719,0,0,1,2.716,1.529,3.6,3.6,0,0,1,1.235-1.107,3.647,3.647,0,0,1,1.8-.422q3.129,0,3.182,3.313V0H51.759V-6.275A2.184,2.184,0,0,0,51.293-7.8a2.051,2.051,0,0,0-1.564-.505,2.156,2.156,0,0,0-1.5.541,2.193,2.193,0,0,0-.694,1.455V0H45.9V-6.231a1.814,1.814,0,0,0-2.03-2.074,2.175,2.175,0,0,0-2.188,1.362V0H40.052V-9.51Z" transform="translate(568.479 14671.382)"/>
    <path id="Trazado_904067" data-name="Trazado 904067" d="M3.428-7.189H4.649A2.685,2.685,0,0,0,6.46-7.8a2.026,2.026,0,0,0,.659-1.591,1.985,1.985,0,0,0-2.241-2.25,2.331,2.331,0,0,0-1.683.6,2.107,2.107,0,0,0-.628,1.6H.94a3.264,3.264,0,0,1,1.112-2.527,4.05,4.05,0,0,1,2.826-1.006,4,4,0,0,1,2.839.958A3.461,3.461,0,0,1,8.745-9.352,2.809,2.809,0,0,1,8.2-7.734,3.264,3.264,0,0,1,6.732-6.565a3.145,3.145,0,0,1,1.63,1.107,3.076,3.076,0,0,1,.576,1.89A3.491,3.491,0,0,1,7.813-.835,4.213,4.213,0,0,1,4.887.176,4.324,4.324,0,0,1,1.956-.8,3.236,3.236,0,0,1,.826-3.375H2.461A2.092,2.092,0,0,0,3.12-1.758a2.507,2.507,0,0,0,1.767.606,2.46,2.46,0,0,0,1.8-.615,2.371,2.371,0,0,0,.624-1.767,2.151,2.151,0,0,0-.686-1.714,2.987,2.987,0,0,0-1.978-.615H3.428ZM19.608-1.151a2.342,2.342,0,0,0,1.521-.527A1.855,1.855,0,0,0,21.85-3h1.538a2.949,2.949,0,0,1-.562,1.556A3.7,3.7,0,0,1,21.441-.264a3.994,3.994,0,0,1-1.833.439,3.918,3.918,0,0,1-3.089-1.3,5.163,5.163,0,0,1-1.147-3.546v-.272a5.725,5.725,0,0,1,.51-2.47,3.883,3.883,0,0,1,1.463-1.679,4.157,4.157,0,0,1,2.254-.6,3.814,3.814,0,0,1,2.659.958A3.424,3.424,0,0,1,23.388-6.24H21.85a2.241,2.241,0,0,0-.7-1.516A2.174,2.174,0,0,0,19.6-8.35a2.276,2.276,0,0,0-1.92.892A4.19,4.19,0,0,0,17-4.878v.308a4.106,4.106,0,0,0,.677,2.531A2.287,2.287,0,0,0,19.608-1.151ZM26.745-9.51l.044,1.055a3.512,3.512,0,0,1,2.821-1.23,2.719,2.719,0,0,1,2.716,1.529,3.6,3.6,0,0,1,1.235-1.107,3.647,3.647,0,0,1,1.8-.422q3.129,0,3.182,3.313V0H36.914V-6.275A2.184,2.184,0,0,0,36.448-7.8a2.051,2.051,0,0,0-1.564-.505,2.156,2.156,0,0,0-1.5.541,2.193,2.193,0,0,0-.694,1.455V0H31.052V-6.231a1.814,1.814,0,0,0-2.03-2.074,2.175,2.175,0,0,0-2.188,1.362V0H25.207V-9.51Z" transform="translate(653.86 14314.325)"/>
    <path id="Trazado_904074" data-name="Trazado 904074" d="M6.407,0H4.772V-10.837l-3.278,1.2v-1.477l4.658-1.749h.255ZM18.035-4.3h1.775v1.327H18.035V0H16.4V-2.971H10.573v-.958L16.3-12.8h1.731Zm-5.616,0H16.4v-6.275l-.193.352Zm17.3,3.146a2.342,2.342,0,0,0,1.521-.527A1.855,1.855,0,0,0,31.957-3H33.5a2.949,2.949,0,0,1-.562,1.556A3.7,3.7,0,0,1,31.548-.264a3.994,3.994,0,0,1-1.833.439,3.918,3.918,0,0,1-3.089-1.3,5.163,5.163,0,0,1-1.147-3.546v-.272a5.725,5.725,0,0,1,.51-2.47,3.883,3.883,0,0,1,1.463-1.679,4.157,4.157,0,0,1,2.254-.6,3.814,3.814,0,0,1,2.659.958A3.424,3.424,0,0,1,33.5-6.24H31.957a2.241,2.241,0,0,0-.7-1.516,2.174,2.174,0,0,0-1.551-.593,2.276,2.276,0,0,0-1.92.892,4.19,4.19,0,0,0-.681,2.58v.308a4.106,4.106,0,0,0,.677,2.531A2.287,2.287,0,0,0,29.716-1.151Zm10.2-6.9a4.873,4.873,0,0,0-.8-.062A2.143,2.143,0,0,0,36.949-6.75V0H35.323V-9.51h1.582l.026,1.1A2.532,2.532,0,0,1,39.2-9.686a1.661,1.661,0,0,1,.721.123Z" transform="translate(682.396 14511.469)"/>
    <path id="Trazado_904075" data-name="Trazado 904075" d="M0,0H459.023V440.62H0Z" transform="translate(265 14282.302)" fill="none"/>
    <path id="Trazado_904068" data-name="Trazado 904068" d="M3.182-1.38H9.246V0H1.485V-12.8h1.7ZM16.787,0a3.416,3.416,0,0,1-.229-1A3.628,3.628,0,0,1,13.852.176a3.357,3.357,0,0,1-2.307-.8,2.573,2.573,0,0,1-.9-2.017,2.688,2.688,0,0,1,1.129-2.307,5.325,5.325,0,0,1,3.177-.822h1.582v-.747a1.826,1.826,0,0,0-.51-1.358,2.049,2.049,0,0,0-1.5-.505,2.371,2.371,0,0,0-1.459.439,1.3,1.3,0,0,0-.589,1.063H10.837a2.244,2.244,0,0,1,.505-1.375A3.449,3.449,0,0,1,12.713-9.3a4.613,4.613,0,0,1,1.9-.387,3.759,3.759,0,0,1,2.575.822A2.964,2.964,0,0,1,18.158-6.6v4.377a5.351,5.351,0,0,0,.334,2.083V0Zm-2.7-1.239a2.858,2.858,0,0,0,1.45-.4,2.392,2.392,0,0,0,.993-1.028V-4.614H15.258q-2.988,0-2.988,1.749a1.48,1.48,0,0,0,.51,1.2A1.959,1.959,0,0,0,14.089-1.239ZM25.3-8.051a4.873,4.873,0,0,0-.8-.062A2.143,2.143,0,0,0,22.333-6.75V0H20.707V-9.51h1.582l.026,1.1a2.532,2.532,0,0,1,2.268-1.274,1.661,1.661,0,0,1,.721.123Zm.778,3.217A5.589,5.589,0,0,1,27.11-8.372a3.289,3.289,0,0,1,2.725-1.314,3.271,3.271,0,0,1,2.716,1.23L32.63-9.51h1.485V-.229a3.869,3.869,0,0,1-1.094,2.909,4.038,4.038,0,0,1-2.94,1.063A4.891,4.891,0,0,1,28.068,3.3a3.465,3.465,0,0,1-1.5-1.2l.844-.976a3.18,3.18,0,0,0,2.558,1.292,2.491,2.491,0,0,0,1.85-.668,2.553,2.553,0,0,0,.664-1.881V-.949A3.342,3.342,0,0,1,29.817.176a3.248,3.248,0,0,1-2.7-1.345A5.876,5.876,0,0,1,26.082-4.834Zm1.635.185a4.264,4.264,0,0,0,.659,2.527,2.142,2.142,0,0,0,1.846.918,2.382,2.382,0,0,0,2.259-1.4V-6.943a2.41,2.41,0,0,0-2.241-1.362,2.161,2.161,0,0,0-1.854.923A4.644,4.644,0,0,0,27.717-4.649Zm8.42-.193a5.617,5.617,0,0,1,.549-2.514,4.1,4.1,0,0,1,1.529-1.723,4.163,4.163,0,0,1,2.237-.606,4.01,4.01,0,0,1,3.142,1.345,5.174,5.174,0,0,1,1.2,3.577v.114a5.666,5.666,0,0,1-.532,2.492A4.038,4.038,0,0,1,42.742-.439,4.211,4.211,0,0,1,40.47.176a4,4,0,0,1-3.133-1.345,5.147,5.147,0,0,1-1.2-3.56Zm1.635.193a4.068,4.068,0,0,0,.734,2.54,2.349,2.349,0,0,0,1.964.958,2.335,2.335,0,0,0,1.969-.971,4.449,4.449,0,0,0,.729-2.72,4.061,4.061,0,0,0-.743-2.536,2.361,2.361,0,0,0-1.973-.971,2.335,2.335,0,0,0-1.942.958A4.416,4.416,0,0,0,37.772-4.649ZM51.544,0V-12.8h4.184a4.856,4.856,0,0,1,3.133.861,3.1,3.1,0,0,1,1.05,2.549A2.6,2.6,0,0,1,59.4-7.8a3.3,3.3,0,0,1-1.389,1.068,2.968,2.968,0,0,1,1.639,1.1,3.166,3.166,0,0,1,.6,1.938A3.423,3.423,0,0,1,59.138-.984,4.616,4.616,0,0,1,55.983,0Zm1.688-5.985V-1.38h2.786a2.683,2.683,0,0,0,1.859-.611,2.145,2.145,0,0,0,.681-1.683q0-2.312-2.514-2.312Zm0-1.354H55.78a2.672,2.672,0,0,0,1.771-.555A1.86,1.86,0,0,0,58.215-9.4a1.829,1.829,0,0,0-.615-1.537,3.021,3.021,0,0,0-1.872-.48h-2.5Zm8.833,2.5a5.617,5.617,0,0,1,.549-2.514,4.1,4.1,0,0,1,1.529-1.723,4.163,4.163,0,0,1,2.237-.606,4.01,4.01,0,0,1,3.142,1.345,5.174,5.174,0,0,1,1.2,3.577v.114a5.666,5.666,0,0,1-.532,2.492A4.038,4.038,0,0,1,68.67-.439,4.211,4.211,0,0,1,66.4.176a4,4,0,0,1-3.133-1.345,5.147,5.147,0,0,1-1.2-3.56Zm1.635.193a4.068,4.068,0,0,0,.734,2.54,2.349,2.349,0,0,0,1.964.958,2.335,2.335,0,0,0,1.969-.971,4.449,4.449,0,0,0,.729-2.72,4.061,4.061,0,0,0-.743-2.536A2.361,2.361,0,0,0,66.38-8.35a2.335,2.335,0,0,0-1.942.958A4.416,4.416,0,0,0,63.7-4.649ZM74.527,0H72.9V-13.5h1.626Zm8.139-2.522a1.2,1.2,0,0,0-.5-1.024,4.78,4.78,0,0,0-1.731-.628,8.186,8.186,0,0,1-1.96-.633,2.788,2.788,0,0,1-1.072-.879A2.1,2.1,0,0,1,77.059-6.9a2.467,2.467,0,0,1,.989-1.978,3.861,3.861,0,0,1,2.527-.809,3.974,3.974,0,0,1,2.624.835A2.652,2.652,0,0,1,84.2-6.715H82.569A1.468,1.468,0,0,0,82-7.866a2.124,2.124,0,0,0-1.428-.483,2.223,2.223,0,0,0-1.389.387,1.217,1.217,0,0,0-.5,1.011.986.986,0,0,0,.466.888,5.731,5.731,0,0,0,1.683.571,8.77,8.77,0,0,1,1.973.65,2.878,2.878,0,0,1,1.121.91,2.237,2.237,0,0,1,.365,1.3,2.434,2.434,0,0,1-1.02,2.043,4.277,4.277,0,0,1-2.646.769,4.789,4.789,0,0,1-2.021-.4A3.288,3.288,0,0,1,77.23-1.358a2.722,2.722,0,0,1-.5-1.569h1.626a1.683,1.683,0,0,0,.655,1.3,2.54,2.54,0,0,0,1.613.479,2.622,2.622,0,0,0,1.481-.374A1.148,1.148,0,0,0,82.666-2.522ZM88.177,0H86.551V-9.51h1.626ZM86.419-12.032a.971.971,0,0,1,.242-.668.907.907,0,0,1,.716-.272.922.922,0,0,1,.721.272.96.96,0,0,1,.246.668.929.929,0,0,1-.246.659.938.938,0,0,1-.721.264.924.924,0,0,1-.716-.264A.938.938,0,0,1,86.419-12.032ZM92.545,0H90.919V-13.5h1.626Zm4.368,0H95.287V-13.5h1.626Zm2.171-4.843a5.617,5.617,0,0,1,.549-2.514,4.1,4.1,0,0,1,1.529-1.723,4.163,4.163,0,0,1,2.237-.606,4.01,4.01,0,0,1,3.142,1.345,5.174,5.174,0,0,1,1.2,3.577v.114a5.666,5.666,0,0,1-.532,2.492,4.038,4.038,0,0,1-1.521,1.718,4.211,4.211,0,0,1-2.272.615,4,4,0,0,1-3.133-1.345,5.147,5.147,0,0,1-1.2-3.56Zm1.635.193a4.068,4.068,0,0,0,.734,2.54,2.349,2.349,0,0,0,1.964.958,2.335,2.335,0,0,0,1.969-.971,4.449,4.449,0,0,0,.729-2.72,4.061,4.061,0,0,0-.743-2.536A2.361,2.361,0,0,0,103.4-8.35a2.335,2.335,0,0,0-1.942.958A4.416,4.416,0,0,0,100.719-4.649Z" transform="translate(658.667 14440.255) rotate(90)"/>
    <path id="Trazado_904069" data-name="Trazado 904069" d="M0,48.508V0" transform="translate(638.37 14289.518)" fill="none" stroke="#1d1d1b" stroke-width="1.135"/>
    <path id="Trazado_903824" data-name="Trazado 903824" d="M442.507,8.682h9.429L447.221.517Z" transform="translate(191.149 14282.216)" fill="#1d1d1b"/>
    <path id="Trazado_904070" data-name="Trazado 904070" d="M0,48.508V0" transform="translate(316.407 14289.518)" fill="none" stroke="#1d1d1b" stroke-width="1.135"/>
    <path id="Trazado_903825" data-name="Trazado 903825" d="M56.046,8.682h9.43L60.761.517Z" transform="translate(255.646 14282.216)" fill="#1d1d1b"/>
    <path id="Trazado_903826" data-name="Trazado 903826" d="M72.6,53.773V75.622L83.529,64.7Z" transform="translate(252.883 14273.327)"/>
    <path id="Trazado_903827" data-name="Trazado 903827" d="M434.048,75.622V53.773L423.124,64.7Z" transform="translate(194.384 14273.327)"/>
  </g>
</svg>
