<svg xmlns="http://www.w3.org/2000/svg" width="390.744" height="371.593" viewBox="0 0 390.744 371.593">
  <g id="Grupo_1114941" data-name="Grupo 1114941" transform="translate(-839.084 -8537.249)">
    <path id="Trazado_903617" data-name="Trazado 903617" d="M565.057,424.515,667.3,460.121S636.271,620.845,715.116,625.3L686.121,794.921H502.49V489.3S550.815,488.31,565.057,424.515Z" transform="translate(514.11 8113.408)" fill="none" stroke="#000" stroke-miterlimit="10" stroke-width="1.026"/>
    <path id="Trazado_904043" data-name="Trazado 904043" d="M0,64.044V0" transform="translate(1138.358 8815.304)" fill="none" stroke="#000" stroke-width="1" stroke-dasharray="6 6"/>
    <path id="Trazado_903623" data-name="Trazado 903623" d="M591.122,689.268h15.619l-7.809,7.806Z" transform="translate(539.427 8189.033)"/>
    <path id="Trazado_903624" data-name="Trazado 903624" d="M591.122,642.817h15.619l-7.809-7.806Z" transform="translate(539.427 8173.535)"/>
    <path id="Trazado_904045" data-name="Trazado 904045" d="M1.98,0V-17.062H7.559a6.475,6.475,0,0,1,4.178,1.148,4.139,4.139,0,0,1,1.4,3.4,3.466,3.466,0,0,1-.68,2.115,4.406,4.406,0,0,1-1.852,1.424,3.957,3.957,0,0,1,2.186,1.471,4.221,4.221,0,0,1,.8,2.584,4.563,4.563,0,0,1-1.488,3.609A6.155,6.155,0,0,1,7.9,0ZM4.23-7.98V-1.84H7.945a3.577,3.577,0,0,0,2.479-.814A2.86,2.86,0,0,0,11.332-4.9q0-3.082-3.352-3.082Zm0-1.8h3.4a3.562,3.562,0,0,0,2.361-.74,2.48,2.48,0,0,0,.885-2.008,2.439,2.439,0,0,0-.82-2.049,4.028,4.028,0,0,0-2.5-.64H4.23ZM16.008-6.457a7.489,7.489,0,0,1,.732-3.352,5.464,5.464,0,0,1,2.039-2.3,5.551,5.551,0,0,1,2.982-.809,5.347,5.347,0,0,1,4.189,1.793,6.9,6.9,0,0,1,1.6,4.77V-6.2a7.555,7.555,0,0,1-.709,3.322A5.383,5.383,0,0,1,24.814-.586a5.614,5.614,0,0,1-3.029.82,5.334,5.334,0,0,1-4.178-1.793,6.863,6.863,0,0,1-1.6-4.746Zm2.18.258a5.424,5.424,0,0,0,.979,3.387,3.132,3.132,0,0,0,2.619,1.277A3.113,3.113,0,0,0,24.41-2.83a5.932,5.932,0,0,0,.973-3.627,5.415,5.415,0,0,0-.99-3.381,3.148,3.148,0,0,0-2.631-1.295,3.113,3.113,0,0,0-2.59,1.277A5.888,5.888,0,0,0,18.188-6.2ZM33.211-15.75v3.07h2.367V-11H33.211v7.873a1.76,1.76,0,0,0,.316,1.144,1.332,1.332,0,0,0,1.078.381,5.249,5.249,0,0,0,1.031-.141V0a6.322,6.322,0,0,1-1.664.233,2.7,2.7,0,0,1-2.191-.879,3.776,3.776,0,0,1-.738-2.5V-11H28.734V-12.68h2.309v-3.07ZM37.3-6.457a7.489,7.489,0,0,1,.732-3.352,5.464,5.464,0,0,1,2.039-2.3,5.551,5.551,0,0,1,2.982-.809,5.347,5.347,0,0,1,4.189,1.793,6.9,6.9,0,0,1,1.6,4.77V-6.2a7.555,7.555,0,0,1-.709,3.322A5.383,5.383,0,0,1,46.107-.586a5.614,5.614,0,0,1-3.029.82A5.334,5.334,0,0,1,38.9-1.559,6.863,6.863,0,0,1,37.3-6.3Zm2.18.258a5.424,5.424,0,0,0,.979,3.387,3.132,3.132,0,0,0,2.619,1.277A3.113,3.113,0,0,0,45.7-2.83a5.932,5.932,0,0,0,.973-3.627,5.415,5.415,0,0,0-.99-3.381,3.148,3.148,0,0,0-2.631-1.295,3.113,3.113,0,0,0-2.59,1.277A5.888,5.888,0,0,0,39.48-6.2Zm14.133-6.48.07,1.594a4.621,4.621,0,0,1,3.8-1.828q4.02,0,4.055,4.535V0H59.367V-8.391a2.919,2.919,0,0,0-.627-2.027,2.512,2.512,0,0,0-1.916-.656,3.129,3.129,0,0,0-1.852.563A3.82,3.82,0,0,0,53.73-9.035V0H51.563V-12.68ZM70.066.234a5.54,5.54,0,0,1-4.2-1.693,6.285,6.285,0,0,1-1.617-4.529v-.4a7.609,7.609,0,0,1,.721-3.369,5.622,5.622,0,0,1,2.016-2.32,5.068,5.068,0,0,1,2.807-.838,4.749,4.749,0,0,1,3.844,1.629,7.053,7.053,0,0,1,1.371,4.664v.9h-8.59a4.507,4.507,0,0,0,1.1,3.029,3.444,3.444,0,0,0,2.666,1.154A3.776,3.776,0,0,0,72.129-2a4.888,4.888,0,0,0,1.395-1.242l1.324,1.031A5.325,5.325,0,0,1,70.066.234ZM69.8-11.133a2.892,2.892,0,0,0-2.2.955,4.642,4.642,0,0,0-1.1,2.678h6.352v-.164a4.129,4.129,0,0,0-.891-2.561A2.723,2.723,0,0,0,69.8-11.133Zm13.852.4a6.5,6.5,0,0,0-1.066-.082A2.857,2.857,0,0,0,79.688-9V0H77.52V-12.68h2.109l.035,1.465a3.376,3.376,0,0,1,3.023-1.7,2.215,2.215,0,0,1,.961.164ZM93,0a4.554,4.554,0,0,1-.3-1.336A4.837,4.837,0,0,1,89.086.234,4.476,4.476,0,0,1,86.01-.826a3.431,3.431,0,0,1-1.2-2.689,3.584,3.584,0,0,1,1.506-3.076,7.1,7.1,0,0,1,4.236-1.1H92.66v-1a2.435,2.435,0,0,0-.68-1.811,2.732,2.732,0,0,0-2-.674,3.161,3.161,0,0,0-1.945.586,1.727,1.727,0,0,0-.785,1.418h-2.18A2.992,2.992,0,0,1,85.74-11a4.6,4.6,0,0,1,1.828-1.4,6.15,6.15,0,0,1,2.537-.516,5.013,5.013,0,0,1,3.434,1.1A3.953,3.953,0,0,1,94.828-8.8v5.836a7.135,7.135,0,0,0,.445,2.777V0ZM89.4-1.652a3.81,3.81,0,0,0,1.934-.527A3.19,3.19,0,0,0,92.66-3.551v-2.6h-1.7q-3.984,0-3.984,2.332a1.974,1.974,0,0,0,.68,1.594A2.612,2.612,0,0,0,89.4-1.652Z" transform="translate(1035.959 8723.276)"/>
    <path id="Trazado_904046" data-name="Trazado 904046" d="M6.716-7.289a10.139,10.139,0,0,1-4.037-1.96,3.744,3.744,0,0,1-1.263-2.869,3.955,3.955,0,0,1,1.544-3.2,6.137,6.137,0,0,1,4.015-1.263,6.7,6.7,0,0,1,3,.651,4.94,4.94,0,0,1,2.044,1.8,4.6,4.6,0,0,1,.724,2.5H10.579a2.99,2.99,0,0,0-.943-2.339,3.836,3.836,0,0,0-2.662-.851,3.927,3.927,0,0,0-2.488.7,2.346,2.346,0,0,0-.893,1.952,2.11,2.11,0,0,0,.848,1.693A8.317,8.317,0,0,0,7.328-9.2a13.392,13.392,0,0,1,3.189,1.264,4.84,4.84,0,0,1,1.707,1.612,4.113,4.113,0,0,1,.556,2.167A3.82,3.82,0,0,1,11.23-.971,6.608,6.608,0,0,1,7.086.225,7.686,7.686,0,0,1,3.942-.421,5.292,5.292,0,0,1,1.69-2.19,4.317,4.317,0,0,1,.9-4.739H3.066A2.816,2.816,0,0,0,4.161-2.4a4.61,4.61,0,0,0,2.926.859,4.238,4.238,0,0,0,2.617-.7,2.262,2.262,0,0,0,.91-1.9,2.22,2.22,0,0,0-.842-1.859A9.711,9.711,0,0,0,6.716-7.289ZM20.26.225A5.309,5.309,0,0,1,16.239-1.4a6.023,6.023,0,0,1-1.55-4.341v-.382a7.292,7.292,0,0,1,.691-3.229,5.388,5.388,0,0,1,1.932-2.224,4.857,4.857,0,0,1,2.69-.8,4.551,4.551,0,0,1,3.684,1.561A6.759,6.759,0,0,1,25-6.345v.865H16.767a4.319,4.319,0,0,0,1.05,2.9,3.3,3.3,0,0,0,2.555,1.106,3.619,3.619,0,0,0,1.864-.449,4.684,4.684,0,0,0,1.336-1.19l1.269.988A5.1,5.1,0,0,1,20.26.225ZM20-10.669a2.771,2.771,0,0,0-2.111.915,4.449,4.449,0,0,0-1.056,2.566h6.087v-.157A3.957,3.957,0,0,0,22.068-9.8,2.609,2.609,0,0,0,20-10.669ZM37.667-5.941A7.276,7.276,0,0,1,36.4-1.471a4.067,4.067,0,0,1-3.437,1.7,4.456,4.456,0,0,1-3.481-1.4V4.672H27.4V-12.151h1.9l.1,1.348a4.28,4.28,0,0,1,3.526-1.572,4.144,4.144,0,0,1,3.465,1.651,7.355,7.355,0,0,1,1.275,4.593Zm-2.078-.236a5.369,5.369,0,0,0-.876-3.246,2.822,2.822,0,0,0-2.4-1.19,3.054,3.054,0,0,0-2.83,1.673v5.806a3.06,3.06,0,0,0,2.853,1.662,2.809,2.809,0,0,0,2.375-1.185A5.861,5.861,0,0,0,35.589-6.177ZM47.808,0a4.364,4.364,0,0,1-.292-1.28,4.636,4.636,0,0,1-3.459,1.5A4.289,4.289,0,0,1,41.109-.792a3.288,3.288,0,0,1-1.151-2.577A3.435,3.435,0,0,1,41.4-6.317a6.8,6.8,0,0,1,4.06-1.05h2.021v-.955a2.333,2.333,0,0,0-.651-1.735,2.618,2.618,0,0,0-1.92-.646,3.03,3.03,0,0,0-1.864.562,1.655,1.655,0,0,0-.752,1.359H40.205a2.867,2.867,0,0,1,.646-1.758A4.407,4.407,0,0,1,42.6-11.882a5.894,5.894,0,0,1,2.431-.494,4.8,4.8,0,0,1,3.291,1.05A3.788,3.788,0,0,1,49.56-8.434v5.593A6.838,6.838,0,0,0,49.987-.18V0ZM44.36-1.583a3.651,3.651,0,0,0,1.853-.505A3.057,3.057,0,0,0,47.482-3.4V-5.9H45.854q-3.818,0-3.818,2.235a1.891,1.891,0,0,0,.651,1.527A2.5,2.5,0,0,0,44.36-1.583Zm14.33-8.7a6.226,6.226,0,0,0-1.022-.079,2.738,2.738,0,0,0-2.774,1.741V0H52.817V-12.151h2.021l.034,1.4a3.235,3.235,0,0,1,2.9-1.628,2.123,2.123,0,0,1,.921.157ZM67.652,0a4.364,4.364,0,0,1-.292-1.28A4.636,4.636,0,0,1,63.9.225,4.289,4.289,0,0,1,60.953-.792,3.288,3.288,0,0,1,59.8-3.369a3.435,3.435,0,0,1,1.443-2.948,6.8,6.8,0,0,1,4.06-1.05h2.021v-.955a2.333,2.333,0,0,0-.651-1.735,2.618,2.618,0,0,0-1.92-.646,3.03,3.03,0,0,0-1.864.562,1.655,1.655,0,0,0-.752,1.359H60.049A2.867,2.867,0,0,1,60.7-10.54a4.407,4.407,0,0,1,1.752-1.342,5.894,5.894,0,0,1,2.431-.494,4.8,4.8,0,0,1,3.291,1.05A3.788,3.788,0,0,1,69.4-8.434v5.593A6.838,6.838,0,0,0,69.831-.18V0ZM64.2-1.583a3.651,3.651,0,0,0,1.853-.505A3.057,3.057,0,0,0,67.327-3.4V-5.9H65.7q-3.818,0-3.818,2.235a1.891,1.891,0,0,0,.651,1.527A2.5,2.5,0,0,0,64.2-1.583Zm7.951-4.593a7.118,7.118,0,0,1,1.325-4.5,4.191,4.191,0,0,1,3.47-1.7,4.214,4.214,0,0,1,3.38,1.46V-17.25h2.078V0H80.5l-.1-1.3A4.231,4.231,0,0,1,76.929.225,4.15,4.15,0,0,1,73.487-1.5,7.2,7.2,0,0,1,72.156-6.02Zm2.078.236a5.39,5.39,0,0,0,.854,3.234,2.759,2.759,0,0,0,2.358,1.168,3.031,3.031,0,0,0,2.886-1.774V-8.895a3.054,3.054,0,0,0-2.864-1.718,2.772,2.772,0,0,0-2.381,1.179A5.934,5.934,0,0,0,74.233-5.941ZM93.134,0a4.364,4.364,0,0,1-.292-1.28,4.636,4.636,0,0,1-3.459,1.5A4.289,4.289,0,0,1,86.435-.792a3.288,3.288,0,0,1-1.151-2.577,3.435,3.435,0,0,1,1.443-2.948,6.8,6.8,0,0,1,4.06-1.05h2.021v-.955a2.333,2.333,0,0,0-.651-1.735,2.618,2.618,0,0,0-1.92-.646,3.03,3.03,0,0,0-1.864.562,1.655,1.655,0,0,0-.752,1.359H85.531a2.867,2.867,0,0,1,.646-1.758,4.407,4.407,0,0,1,1.752-1.342,5.894,5.894,0,0,1,2.431-.494,4.8,4.8,0,0,1,3.291,1.05,3.788,3.788,0,0,1,1.235,2.892v5.593A6.838,6.838,0,0,0,95.313-.18V0ZM89.687-1.583a3.651,3.651,0,0,0,1.853-.505A3.057,3.057,0,0,0,92.809-3.4V-5.9H91.18q-3.818,0-3.818,2.235a1.891,1.891,0,0,0,.651,1.527A2.5,2.5,0,0,0,89.687-1.583Z" transform="translate(1036.894 8746.244)"/>
    <path id="Trazado_904047" data-name="Trazado 904047" d="M0,0V306.6" transform="translate(889.817 8601.727)" fill="none" stroke="#000" stroke-width="0.948" stroke-dasharray="5.686 5.686"/>
    <path id="Trazado_904048" data-name="Trazado 904048" d="M0,0V306.6" transform="translate(953.896 8601.727)" fill="none" stroke="#000" stroke-width="0.948" stroke-dasharray="5.686 5.686"/>
    <path id="Trazado_904044" data-name="Trazado 904044" d="M0,0V306.6" transform="translate(1024.562 8601.727)" fill="none" stroke="#000" stroke-width="0.948" stroke-dasharray="5.686 5.686"/>
    <path id="Trazado_904049" data-name="Trazado 904049" d="M4.38-9.187H5.941a3.431,3.431,0,0,0,2.313-.775A2.589,2.589,0,0,0,9.1-11.994a2.536,2.536,0,0,0-2.864-2.875,2.979,2.979,0,0,0-2.151.769,2.692,2.692,0,0,0-.8,2.038H1.2A4.171,4.171,0,0,1,2.622-15.29a5.175,5.175,0,0,1,3.611-1.286A5.114,5.114,0,0,1,9.86-15.352a4.422,4.422,0,0,1,1.314,3.4,3.589,3.589,0,0,1-.691,2.066A4.17,4.17,0,0,1,8.6-8.389a4.018,4.018,0,0,1,2.083,1.415,3.93,3.93,0,0,1,.736,2.415A4.461,4.461,0,0,1,9.984-1.067,5.383,5.383,0,0,1,6.244.225,5.525,5.525,0,0,1,2.5-1.022,4.135,4.135,0,0,1,1.056-4.312H3.145a2.673,2.673,0,0,0,.842,2.066,3.2,3.2,0,0,0,2.257.775,3.144,3.144,0,0,0,2.3-.786,3.03,3.03,0,0,0,.8-2.257A2.749,2.749,0,0,0,8.468-6.7a3.817,3.817,0,0,0-2.527-.786H4.38ZM25.055-1.471A2.993,2.993,0,0,0,27-2.145a2.371,2.371,0,0,0,.921-1.685h1.965a3.768,3.768,0,0,1-.719,1.988A4.734,4.734,0,0,1,27.4-.337a5.1,5.1,0,0,1-2.342.562,5.006,5.006,0,0,1-3.948-1.656,6.6,6.6,0,0,1-1.466-4.531v-.348a7.316,7.316,0,0,1,.651-3.156,4.961,4.961,0,0,1,1.87-2.145,5.312,5.312,0,0,1,2.881-.764,4.873,4.873,0,0,1,3.4,1.224,4.375,4.375,0,0,1,1.443,3.178H27.919a2.863,2.863,0,0,0-.893-1.937,2.777,2.777,0,0,0-1.982-.758,2.908,2.908,0,0,0-2.454,1.14,5.353,5.353,0,0,0-.87,3.3v.393a5.247,5.247,0,0,0,.865,3.234A2.922,2.922,0,0,0,25.055-1.471Zm9.119-10.68L34.23-10.8a4.488,4.488,0,0,1,3.6-1.572,3.474,3.474,0,0,1,3.47,1.954,4.6,4.6,0,0,1,1.578-1.415,4.66,4.66,0,0,1,2.3-.539q4,0,4.065,4.234V0H47.168V-8.019a2.79,2.79,0,0,0-.6-1.948,2.621,2.621,0,0,0-2-.646,2.755,2.755,0,0,0-1.92.691,2.8,2.8,0,0,0-.887,1.859V0H39.677V-7.962a2.318,2.318,0,0,0-2.594-2.65,2.78,2.78,0,0,0-2.8,1.741V0H32.209V-12.151Z" transform="translate(869.146 8781.5) rotate(-90)"/>
    <path id="Trazado_904050" data-name="Trazado 904050" d="M11.612-6.974A9.5,9.5,0,0,1,10.366-1.55,4.433,4.433,0,0,1,6.469.225,4.466,4.466,0,0,1,2.594-1.51a9.019,9.019,0,0,1-1.3-5.183V-9.467a9.291,9.291,0,0,1,1.247-5.357,4.468,4.468,0,0,1,3.908-1.752,4.508,4.508,0,0,1,3.886,1.69,8.966,8.966,0,0,1,1.28,5.217ZM9.535-9.815a7.613,7.613,0,0,0-.741-3.846,2.551,2.551,0,0,0-2.347-1.207,2.518,2.518,0,0,0-2.325,1.2,7.433,7.433,0,0,0-.752,3.695v3.324a7.735,7.735,0,0,0,.769,3.914,2.546,2.546,0,0,0,2.33,1.263,2.511,2.511,0,0,0,2.285-1.19,7.455,7.455,0,0,0,.781-3.751ZM14.42,3.257l-1.179-.809a5.419,5.419,0,0,0,1.1-3.032V-2.459h2.033V-.831a5.115,5.115,0,0,1-.556,2.269A5.311,5.311,0,0,1,14.42,3.257ZM19.743-8.2l.831-8.153h8.378v1.92H22.337l-.494,4.458a5.277,5.277,0,0,1,2.729-.708A4.511,4.511,0,0,1,28.121-9.2a5.788,5.788,0,0,1,1.314,3.992A5.586,5.586,0,0,1,28.071-1.23,4.973,4.973,0,0,1,24.258.225a5.169,5.169,0,0,1-3.538-1.2A4.8,4.8,0,0,1,19.159-4.3h1.965a3.3,3.3,0,0,0,1,2.117,3.108,3.108,0,0,0,2.134.713,2.8,2.8,0,0,0,2.274-.988,4.131,4.131,0,0,0,.825-2.729,3.792,3.792,0,0,0-.893-2.634,3.037,3.037,0,0,0-2.375-.994,3.425,3.425,0,0,0-2.134.6l-.55.449ZM42.485-1.471a2.993,2.993,0,0,0,1.943-.674,2.371,2.371,0,0,0,.921-1.685h1.965A3.768,3.768,0,0,1,46.6-1.842a4.734,4.734,0,0,1-1.769,1.5,5.1,5.1,0,0,1-2.342.562,5.006,5.006,0,0,1-3.948-1.656,6.6,6.6,0,0,1-1.466-4.531v-.348a7.316,7.316,0,0,1,.651-3.156,4.961,4.961,0,0,1,1.87-2.145,5.312,5.312,0,0,1,2.881-.764,4.873,4.873,0,0,1,3.4,1.224,4.375,4.375,0,0,1,1.443,3.178H45.349a2.863,2.863,0,0,0-.893-1.937,2.777,2.777,0,0,0-1.982-.758,2.908,2.908,0,0,0-2.454,1.14,5.353,5.353,0,0,0-.87,3.3v.393a5.247,5.247,0,0,0,.865,3.234A2.922,2.922,0,0,0,42.485-1.471ZM51.6-12.151,51.66-10.8a4.488,4.488,0,0,1,3.6-1.572,3.474,3.474,0,0,1,3.47,1.954,4.6,4.6,0,0,1,1.578-1.415,4.66,4.66,0,0,1,2.3-.539q4,0,4.065,4.234V0H64.6V-8.019A2.79,2.79,0,0,0,64-9.967a2.621,2.621,0,0,0-2-.646,2.755,2.755,0,0,0-1.92.691A2.8,2.8,0,0,0,59.2-8.063V0H57.107V-7.962a2.318,2.318,0,0,0-2.594-2.65,2.78,2.78,0,0,0-2.8,1.741V0H49.639V-12.151Z" transform="translate(981.018 8575.197)"/>
    <path id="Trazado_904051" data-name="Trazado 904051" d="M4.38-9.187H5.941a3.431,3.431,0,0,0,2.313-.775A2.589,2.589,0,0,0,9.1-11.994a2.536,2.536,0,0,0-2.864-2.875,2.979,2.979,0,0,0-2.151.769,2.692,2.692,0,0,0-.8,2.038H1.2A4.171,4.171,0,0,1,2.622-15.29a5.175,5.175,0,0,1,3.611-1.286A5.114,5.114,0,0,1,9.86-15.352a4.422,4.422,0,0,1,1.314,3.4,3.589,3.589,0,0,1-.691,2.066A4.17,4.17,0,0,1,8.6-8.389a4.018,4.018,0,0,1,2.083,1.415,3.93,3.93,0,0,1,.736,2.415A4.461,4.461,0,0,1,9.984-1.067,5.383,5.383,0,0,1,6.244.225,5.525,5.525,0,0,1,2.5-1.022,4.135,4.135,0,0,1,1.056-4.312H3.145a2.673,2.673,0,0,0,.842,2.066,3.2,3.2,0,0,0,2.257.775,3.144,3.144,0,0,0,2.3-.786,3.03,3.03,0,0,0,.8-2.257A2.749,2.749,0,0,0,8.468-6.7a3.817,3.817,0,0,0-2.527-.786H4.38ZM25.055-1.471A2.993,2.993,0,0,0,27-2.145a2.371,2.371,0,0,0,.921-1.685h1.965a3.768,3.768,0,0,1-.719,1.988A4.734,4.734,0,0,1,27.4-.337a5.1,5.1,0,0,1-2.342.562,5.006,5.006,0,0,1-3.948-1.656,6.6,6.6,0,0,1-1.466-4.531v-.348a7.316,7.316,0,0,1,.651-3.156,4.961,4.961,0,0,1,1.87-2.145,5.312,5.312,0,0,1,2.881-.764,4.873,4.873,0,0,1,3.4,1.224,4.375,4.375,0,0,1,1.443,3.178H27.919a2.863,2.863,0,0,0-.893-1.937,2.777,2.777,0,0,0-1.982-.758,2.908,2.908,0,0,0-2.454,1.14,5.353,5.353,0,0,0-.87,3.3v.393a5.247,5.247,0,0,0,.865,3.234A2.922,2.922,0,0,0,25.055-1.471Zm9.119-10.68L34.23-10.8a4.488,4.488,0,0,1,3.6-1.572,3.474,3.474,0,0,1,3.47,1.954,4.6,4.6,0,0,1,1.578-1.415,4.66,4.66,0,0,1,2.3-.539q4,0,4.065,4.234V0H47.168V-8.019a2.79,2.79,0,0,0-.6-1.948,2.621,2.621,0,0,0-2-.646,2.755,2.755,0,0,0-1.92.691,2.8,2.8,0,0,0-.887,1.859V0H39.677V-7.962a2.318,2.318,0,0,0-2.594-2.65,2.78,2.78,0,0,0-2.8,1.741V0H32.209V-12.151Z" transform="translate(934.253 8781.5) rotate(-90)"/>
    <path id="Trazado_904052" data-name="Trazado 904052" d="M8.543,0H6.363V-14.449L1.992-12.844v-1.969L8.2-17.145h.34Zm6.621-1.137a1.358,1.358,0,0,1,.334-.937,1.273,1.273,0,0,1,1-.375,1.311,1.311,0,0,1,1.014.375,1.33,1.33,0,0,1,.346.938,1.258,1.258,0,0,1-.346.9A1.334,1.334,0,0,1,16.5.129a1.3,1.3,0,0,1-1-.363A1.283,1.283,0,0,1,15.164-1.137Zm7.043-7.418.867-8.508h8.742v2h-6.9L24.4-10.406a5.506,5.506,0,0,1,2.848-.738,4.707,4.707,0,0,1,3.7,1.541A6.04,6.04,0,0,1,32.32-5.437,5.829,5.829,0,0,1,30.9-1.283,5.19,5.19,0,0,1,26.918.234,5.393,5.393,0,0,1,23.227-1.02,5,5,0,0,1,21.6-4.488h2.051a3.443,3.443,0,0,0,1.043,2.209,3.243,3.243,0,0,0,2.227.744,2.925,2.925,0,0,0,2.373-1.031,4.311,4.311,0,0,0,.861-2.848,3.957,3.957,0,0,0-.932-2.748A3.169,3.169,0,0,0,26.742-9.2a3.574,3.574,0,0,0-2.227.621l-.574.469Zm23.73,7.02a3.123,3.123,0,0,0,2.027-.7A2.474,2.474,0,0,0,48.926-4h2.051a3.931,3.931,0,0,1-.75,2.074,4.94,4.94,0,0,1-1.846,1.57,5.326,5.326,0,0,1-2.443.586,5.223,5.223,0,0,1-4.119-1.729,6.884,6.884,0,0,1-1.529-4.729v-.363a7.634,7.634,0,0,1,.68-3.293,5.177,5.177,0,0,1,1.951-2.238,5.543,5.543,0,0,1,3.006-.8,5.085,5.085,0,0,1,3.545,1.277A4.565,4.565,0,0,1,50.977-8.32H48.926a2.988,2.988,0,0,0-.932-2.021,2.9,2.9,0,0,0-2.068-.791,3.034,3.034,0,0,0-2.561,1.189A5.586,5.586,0,0,0,42.457-6.5v.41a5.475,5.475,0,0,0,.9,3.375A3.049,3.049,0,0,0,45.938-1.535ZM55.453-12.68l.059,1.406a4.683,4.683,0,0,1,3.762-1.641,3.625,3.625,0,0,1,3.621,2.039,4.8,4.8,0,0,1,1.646-1.477,4.863,4.863,0,0,1,2.4-.562q4.172,0,4.242,4.418V0H69.012V-8.367a2.911,2.911,0,0,0-.621-2.033,2.735,2.735,0,0,0-2.086-.674,2.875,2.875,0,0,0-2,.721,2.924,2.924,0,0,0-.926,1.939V0H61.2V-8.309q0-2.766-2.707-2.766A2.9,2.9,0,0,0,55.57-9.258V0H53.4V-12.68Z" transform="translate(975.302 8791.445) rotate(-90)"/>
    <path id="Trazado_904053" data-name="Trazado 904053" d="M0,0H139.274V306.6H0Z" transform="translate(839.584 8601.728)" fill="none" stroke="#000" stroke-width="1"/>
  </g>
</svg>
