<svg xmlns="http://www.w3.org/2000/svg" width="890.225" height="556.96" viewBox="0 0 890.225 556.96">
  <g id="Grupo_1114948" data-name="Grupo 1114948" transform="translate(-386 -15731.27)">
    <path id="Trazado_904115" data-name="Trazado 904115" d="M0,370.323V0" transform="translate(736.73 15772.742) rotate(-90)" fill="none" stroke="#1d1d1b" stroke-width="0.946"/>
    <path id="Trazado_904116" data-name="Trazado 904116" d="M0,0H7.134V1.1H0Z" transform="translate(1106.505 15776.309) rotate(-90)" fill="#1d1d1b"/>
    <path id="Trazado_904117" data-name="Trazado 904117" d="M0,0H7.134V1.1H0Z" transform="translate(736.182 15776.309) rotate(-90)" fill="#1d1d1b"/>
    <path id="Trazado_904118" data-name="Trazado 904118" d="M4.419-1.917h8.423V0H2.063V-17.773H4.419ZM23.315,0A4.744,4.744,0,0,1,23-1.392,5.039,5.039,0,0,1,19.238.244a4.662,4.662,0,0,1-3.2-1.1,3.574,3.574,0,0,1-1.251-2.8,3.734,3.734,0,0,1,1.569-3.2,7.4,7.4,0,0,1,4.413-1.141h2.2V-9.045a2.536,2.536,0,0,0-.708-1.886,2.845,2.845,0,0,0-2.087-.7,3.293,3.293,0,0,0-2.026.61,1.8,1.8,0,0,0-.818,1.477H15.051a3.117,3.117,0,0,1,.7-1.91,4.791,4.791,0,0,1,1.9-1.459,6.406,6.406,0,0,1,2.643-.537,5.221,5.221,0,0,1,3.577,1.141A4.117,4.117,0,0,1,25.22-9.167v6.079A7.432,7.432,0,0,0,25.684-.2V0ZM19.568-1.721a3.969,3.969,0,0,0,2.014-.549A3.323,3.323,0,0,0,22.961-3.7v-2.71h-1.77q-4.15,0-4.15,2.429a2.056,2.056,0,0,0,.708,1.66A2.721,2.721,0,0,0,19.568-1.721Zm15.576-9.46a6.768,6.768,0,0,0-1.111-.085,2.976,2.976,0,0,0-3.015,1.892V0H28.76V-13.208h2.2l.037,1.526a3.516,3.516,0,0,1,3.149-1.77,2.307,2.307,0,0,1,1,.171Zm1.081,4.468a7.763,7.763,0,0,1,1.428-4.913,4.568,4.568,0,0,1,3.784-1.825,4.543,4.543,0,0,1,3.772,1.709l.11-1.465h2.063V-.317a5.373,5.373,0,0,1-1.52,4.041A5.608,5.608,0,0,1,41.779,5.2a6.793,6.793,0,0,1-2.8-.61A4.812,4.812,0,0,1,36.9,2.917l1.172-1.355a4.416,4.416,0,0,0,3.552,1.794,3.46,3.46,0,0,0,2.57-.928,3.546,3.546,0,0,0,.922-2.612V-1.318a4.641,4.641,0,0,1-3.7,1.563A4.512,4.512,0,0,1,37.66-1.624,8.162,8.162,0,0,1,36.225-6.714Zm2.271.256a5.922,5.922,0,0,0,.916,3.51,2.975,2.975,0,0,0,2.563,1.276,3.308,3.308,0,0,0,3.137-1.941v-6.03A3.347,3.347,0,0,0,42-11.536a3,3,0,0,0-2.576,1.282A6.45,6.45,0,0,0,38.5-6.458ZM50.19-6.726a7.8,7.8,0,0,1,.763-3.491,5.691,5.691,0,0,1,2.124-2.393,5.782,5.782,0,0,1,3.107-.842,5.57,5.57,0,0,1,4.364,1.868,7.186,7.186,0,0,1,1.666,4.968v.159A7.869,7.869,0,0,1,61.475-3,5.608,5.608,0,0,1,59.364-.61a5.848,5.848,0,0,1-3.156.854,5.556,5.556,0,0,1-4.352-1.868A7.149,7.149,0,0,1,50.19-6.567Zm2.271.269A5.651,5.651,0,0,0,53.48-2.93,3.262,3.262,0,0,0,56.208-1.6a3.242,3.242,0,0,0,2.734-1.349,6.179,6.179,0,0,0,1.013-3.778,5.641,5.641,0,0,0-1.031-3.522,3.279,3.279,0,0,0-2.74-1.349,3.243,3.243,0,0,0-2.7,1.331A6.133,6.133,0,0,0,52.461-6.458ZM71.589,0V-17.773H77.4a6.745,6.745,0,0,1,4.352,1.2,4.312,4.312,0,0,1,1.459,3.54,3.61,3.61,0,0,1-.708,2.2,4.59,4.59,0,0,1-1.929,1.483A4.122,4.122,0,0,1,82.85-7.819a4.4,4.4,0,0,1,.836,2.692,4.754,4.754,0,0,1-1.55,3.76A6.411,6.411,0,0,1,77.754,0Zm2.344-8.313v6.4H77.8a3.726,3.726,0,0,0,2.582-.848A2.98,2.98,0,0,0,81.33-5.1q0-3.21-3.491-3.21Zm0-1.88h3.54a3.711,3.711,0,0,0,2.46-.771,2.584,2.584,0,0,0,.922-2.092A2.541,2.541,0,0,0,80-15.19a4.2,4.2,0,0,0-2.6-.667H73.933ZM86.2-6.726a7.8,7.8,0,0,1,.763-3.491,5.691,5.691,0,0,1,2.124-2.393,5.782,5.782,0,0,1,3.107-.842,5.57,5.57,0,0,1,4.364,1.868,7.186,7.186,0,0,1,1.666,4.968v.159A7.869,7.869,0,0,1,97.486-3,5.608,5.608,0,0,1,95.374-.61a5.848,5.848,0,0,1-3.156.854,5.556,5.556,0,0,1-4.352-1.868A7.149,7.149,0,0,1,86.2-6.567Zm2.271.269A5.65,5.65,0,0,0,89.491-2.93,3.262,3.262,0,0,0,92.219-1.6a3.242,3.242,0,0,0,2.734-1.349,6.179,6.179,0,0,0,1.013-3.778,5.641,5.641,0,0,0-1.031-3.522,3.279,3.279,0,0,0-2.74-1.349,3.243,3.243,0,0,0-2.7,1.331A6.133,6.133,0,0,0,88.471-6.458ZM103.51,0h-2.258V-18.75h2.258Zm11.3-3.5a1.662,1.662,0,0,0-.69-1.422,6.639,6.639,0,0,0-2.4-.873A11.37,11.37,0,0,1,109-6.677,3.873,3.873,0,0,1,107.508-7.9a2.92,2.92,0,0,1-.482-1.685,3.426,3.426,0,0,1,1.373-2.747,5.363,5.363,0,0,1,3.51-1.123,5.519,5.519,0,0,1,3.644,1.16,3.683,3.683,0,0,1,1.4,2.966H114.68a2.039,2.039,0,0,0-.787-1.6,2.95,2.95,0,0,0-1.984-.671,3.088,3.088,0,0,0-1.929.537,1.691,1.691,0,0,0-.7,1.4,1.37,1.37,0,0,0,.647,1.233,7.96,7.96,0,0,0,2.338.793,12.18,12.18,0,0,1,2.74.9,4,4,0,0,1,1.556,1.263,3.106,3.106,0,0,1,.507,1.8,3.38,3.38,0,0,1-1.416,2.838A5.94,5.94,0,0,1,111.982.244a6.651,6.651,0,0,1-2.808-.562,4.566,4.566,0,0,1-1.91-1.569,3.781,3.781,0,0,1-.69-2.179h2.258a2.338,2.338,0,0,0,.909,1.8,3.528,3.528,0,0,0,2.24.665,3.642,3.642,0,0,0,2.057-.519A1.594,1.594,0,0,0,114.814-3.5ZM122.468,0H120.21V-13.208h2.258Zm-2.441-16.711a1.348,1.348,0,0,1,.336-.928,1.26,1.26,0,0,1,.995-.378,1.28,1.28,0,0,1,1,.378,1.334,1.334,0,0,1,.342.928,1.29,1.29,0,0,1-.342.916,1.3,1.3,0,0,1-1,.366,1.283,1.283,0,0,1-.995-.366A1.3,1.3,0,0,1,120.026-16.711ZM128.535,0h-2.258V-18.75h2.258ZM134.6,0h-2.258V-18.75H134.6Zm3.015-6.726a7.8,7.8,0,0,1,.763-3.491A5.691,5.691,0,0,1,140.5-12.61a5.782,5.782,0,0,1,3.107-.842,5.57,5.57,0,0,1,4.364,1.868,7.186,7.186,0,0,1,1.666,4.968v.159A7.869,7.869,0,0,1,148.9-3,5.608,5.608,0,0,1,146.79-.61a5.848,5.848,0,0,1-3.156.854,5.556,5.556,0,0,1-4.352-1.868,7.149,7.149,0,0,1-1.666-4.944Zm2.271.269a5.651,5.651,0,0,0,1.019,3.528A3.262,3.262,0,0,0,143.635-1.6a3.242,3.242,0,0,0,2.734-1.349,6.179,6.179,0,0,0,1.013-3.778,5.641,5.641,0,0,0-1.031-3.522,3.279,3.279,0,0,0-2.74-1.349,3.243,3.243,0,0,0-2.7,1.331A6.133,6.133,0,0,0,139.887-6.458Z" transform="translate(992.161 15739.621) rotate(180)"/>
    <path id="Trazado_904119" data-name="Trazado 904119" d="M0,0H556.96V890.225H0Z" transform="translate(386 16288.229) rotate(-90)" fill="none"/>
    <path id="Trazado_904120" data-name="Trazado 904120" d="M11.877-4.651H4.431L2.759,0H.342L7.129-17.773H9.18L15.979,0h-2.4ZM5.139-6.567h6.042L8.154-14.88Zm15.015-6.641.073,1.66a4.813,4.813,0,0,1,3.955-1.9q4.187,0,4.224,4.724V0H26.147V-8.74a3.041,3.041,0,0,0-.653-2.112,2.617,2.617,0,0,0-2-.684,3.259,3.259,0,0,0-1.929.586,3.979,3.979,0,0,0-1.294,1.538V0H18.018V-13.208ZM37.109-1.6a3.253,3.253,0,0,0,2.112-.732,2.577,2.577,0,0,0,1-1.831h2.136A4.1,4.1,0,0,1,41.577-2,5.146,5.146,0,0,1,39.655-.366a5.548,5.548,0,0,1-2.545.61,5.441,5.441,0,0,1-4.291-1.8,7.171,7.171,0,0,1-1.593-4.926V-6.86a7.952,7.952,0,0,1,.708-3.43,5.393,5.393,0,0,1,2.032-2.332,5.774,5.774,0,0,1,3.131-.83,5.3,5.3,0,0,1,3.693,1.331,4.755,4.755,0,0,1,1.569,3.455H40.222a3.112,3.112,0,0,0-.97-2.106A3.019,3.019,0,0,0,37.1-11.6a3.161,3.161,0,0,0-2.667,1.239,5.819,5.819,0,0,0-.946,3.583v.427a5.7,5.7,0,0,0,.94,3.516A3.176,3.176,0,0,0,37.109-1.6Zm10.046-10.01a4.8,4.8,0,0,1,3.906-1.843q4.187,0,4.224,4.724V0H53.027V-8.74a3.041,3.041,0,0,0-.653-2.112,2.617,2.617,0,0,0-2-.684,3.259,3.259,0,0,0-1.929.586,3.979,3.979,0,0,0-1.294,1.538V0H44.9V-18.75h2.258ZM58.069-6.726a7.8,7.8,0,0,1,.763-3.491,5.691,5.691,0,0,1,2.124-2.393,5.782,5.782,0,0,1,3.107-.842,5.57,5.57,0,0,1,4.364,1.868,7.186,7.186,0,0,1,1.666,4.968v.159A7.869,7.869,0,0,1,69.354-3,5.608,5.608,0,0,1,67.242-.61a5.848,5.848,0,0,1-3.156.854,5.556,5.556,0,0,1-4.352-1.868,7.149,7.149,0,0,1-1.666-4.944Zm2.271.269A5.651,5.651,0,0,0,61.359-2.93,3.262,3.262,0,0,0,64.087-1.6a3.242,3.242,0,0,0,2.734-1.349,6.179,6.179,0,0,0,1.013-3.778A5.641,5.641,0,0,0,66.8-10.248a3.279,3.279,0,0,0-2.74-1.349,3.243,3.243,0,0,0-2.7,1.331A6.133,6.133,0,0,0,60.339-6.458ZM79.468,0V-17.773h5.811a6.745,6.745,0,0,1,4.352,1.2,4.312,4.312,0,0,1,1.459,3.54,3.61,3.61,0,0,1-.708,2.2,4.59,4.59,0,0,1-1.929,1.483,4.122,4.122,0,0,1,2.277,1.532,4.4,4.4,0,0,1,.836,2.692,4.754,4.754,0,0,1-1.55,3.76A6.411,6.411,0,0,1,85.632,0Zm2.344-8.313v6.4h3.87a3.726,3.726,0,0,0,2.582-.848A2.98,2.98,0,0,0,89.209-5.1q0-3.21-3.491-3.21Zm0-1.88h3.54a3.711,3.711,0,0,0,2.46-.771,2.584,2.584,0,0,0,.922-2.092,2.541,2.541,0,0,0-.854-2.135,4.2,4.2,0,0,0-2.6-.667H81.812ZM94.08-6.726a7.8,7.8,0,0,1,.763-3.491,5.691,5.691,0,0,1,2.124-2.393,5.782,5.782,0,0,1,3.107-.842,5.57,5.57,0,0,1,4.364,1.868A7.186,7.186,0,0,1,106.1-6.616v.159A7.869,7.869,0,0,1,105.365-3,5.608,5.608,0,0,1,103.253-.61,5.848,5.848,0,0,1,100.1.244a5.556,5.556,0,0,1-4.352-1.868A7.149,7.149,0,0,1,94.08-6.567Zm2.271.269A5.65,5.65,0,0,0,97.369-2.93,3.262,3.262,0,0,0,100.1-1.6a3.242,3.242,0,0,0,2.734-1.349,6.179,6.179,0,0,0,1.013-3.778,5.641,5.641,0,0,0-1.031-3.522,3.279,3.279,0,0,0-2.74-1.349,3.243,3.243,0,0,0-2.7,1.331A6.133,6.133,0,0,0,96.35-6.458ZM111.389,0h-2.258V-18.75h2.258Zm11.3-3.5A1.662,1.662,0,0,0,122-4.926a6.639,6.639,0,0,0-2.4-.873,11.37,11.37,0,0,1-2.722-.879A3.873,3.873,0,0,1,115.387-7.9a2.92,2.92,0,0,1-.482-1.685,3.426,3.426,0,0,1,1.373-2.747,5.363,5.363,0,0,1,3.51-1.123,5.519,5.519,0,0,1,3.644,1.16,3.683,3.683,0,0,1,1.4,2.966h-2.271a2.039,2.039,0,0,0-.787-1.6,2.95,2.95,0,0,0-1.984-.671,3.088,3.088,0,0,0-1.929.537,1.691,1.691,0,0,0-.7,1.4,1.37,1.37,0,0,0,.647,1.233,7.96,7.96,0,0,0,2.338.793,12.18,12.18,0,0,1,2.74.9,4,4,0,0,1,1.556,1.263,3.106,3.106,0,0,1,.507,1.8,3.38,3.38,0,0,1-1.416,2.838A5.94,5.94,0,0,1,119.861.244a6.651,6.651,0,0,1-2.808-.562,4.566,4.566,0,0,1-1.91-1.569,3.781,3.781,0,0,1-.69-2.179h2.258a2.338,2.338,0,0,0,.909,1.8,3.528,3.528,0,0,0,2.24.665,3.642,3.642,0,0,0,2.057-.519A1.594,1.594,0,0,0,122.693-3.5ZM130.347,0h-2.258V-13.208h2.258Zm-2.441-16.711a1.348,1.348,0,0,1,.336-.928,1.26,1.26,0,0,1,.995-.378,1.28,1.28,0,0,1,1,.378,1.334,1.334,0,0,1,.342.928,1.29,1.29,0,0,1-.342.916,1.3,1.3,0,0,1-1,.366,1.283,1.283,0,0,1-.995-.366A1.3,1.3,0,0,1,127.905-16.711ZM136.414,0h-2.258V-18.75h2.258Zm6.067,0h-2.258V-18.75h2.258ZM145.5-6.726a7.8,7.8,0,0,1,.763-3.491,5.691,5.691,0,0,1,2.124-2.393,5.782,5.782,0,0,1,3.107-.842,5.57,5.57,0,0,1,4.364,1.868,7.186,7.186,0,0,1,1.666,4.968v.159A7.869,7.869,0,0,1,156.781-3,5.608,5.608,0,0,1,154.669-.61a5.848,5.848,0,0,1-3.156.854,5.556,5.556,0,0,1-4.352-1.868A7.149,7.149,0,0,1,145.5-6.567Zm2.271.269a5.651,5.651,0,0,0,1.019,3.528A3.262,3.262,0,0,0,151.514-1.6a3.242,3.242,0,0,0,2.734-1.349,6.179,6.179,0,0,0,1.013-3.778,5.641,5.641,0,0,0-1.031-3.522,3.279,3.279,0,0,0-2.74-1.349,3.243,3.243,0,0,0-2.7,1.331A6.133,6.133,0,0,0,147.766-6.458ZM173.73,0H171.46V-15.051l-4.553,1.672V-15.43l6.47-2.429h.354Zm9.9-9.985h1.7a3.729,3.729,0,0,0,2.515-.842,2.814,2.814,0,0,0,.916-2.209q0-3.125-3.113-3.125a3.238,3.238,0,0,0-2.338.836,2.927,2.927,0,0,0-.873,2.216h-2.258a4.534,4.534,0,0,1,1.544-3.51,5.625,5.625,0,0,1,3.925-1.4,5.559,5.559,0,0,1,3.943,1.331,4.807,4.807,0,0,1,1.428,3.7,3.9,3.9,0,0,1-.751,2.246,4.533,4.533,0,0,1-2.045,1.624,4.368,4.368,0,0,1,2.264,1.538,4.272,4.272,0,0,1,.8,2.625,4.848,4.848,0,0,1-1.562,3.8,5.851,5.851,0,0,1-4.065,1.4,6.006,6.006,0,0,1-4.071-1.355,4.5,4.5,0,0,1-1.569-3.577h2.271a2.9,2.9,0,0,0,.916,2.246,3.482,3.482,0,0,0,2.454.842,3.417,3.417,0,0,0,2.5-.854,3.293,3.293,0,0,0,.867-2.454,2.988,2.988,0,0,0-.952-2.38,4.148,4.148,0,0,0-2.747-.854h-1.7ZM206.1-1.6a3.253,3.253,0,0,0,2.112-.732,2.577,2.577,0,0,0,1-1.831h2.136A4.1,4.1,0,0,1,210.571-2a5.146,5.146,0,0,1-1.923,1.636,5.548,5.548,0,0,1-2.545.61,5.441,5.441,0,0,1-4.291-1.8,7.171,7.171,0,0,1-1.593-4.926V-6.86a7.952,7.952,0,0,1,.708-3.43,5.392,5.392,0,0,1,2.032-2.332,5.774,5.774,0,0,1,3.131-.83,5.3,5.3,0,0,1,3.693,1.331,4.755,4.755,0,0,1,1.569,3.455h-2.136a3.112,3.112,0,0,0-.97-2.106,3.019,3.019,0,0,0-2.155-.824,3.161,3.161,0,0,0-2.667,1.239,5.819,5.819,0,0,0-.946,3.583v.427a5.7,5.7,0,0,0,.94,3.516A3.176,3.176,0,0,0,206.1-1.6Zm9.912-11.609.061,1.465A4.878,4.878,0,0,1,220-13.452a3.776,3.776,0,0,1,3.772,2.124,5,5,0,0,1,1.715-1.538,5.066,5.066,0,0,1,2.5-.586q4.346,0,4.419,4.6V0h-2.258V-8.716a3.033,3.033,0,0,0-.647-2.118,2.849,2.849,0,0,0-2.173-.7,3,3,0,0,0-2.087.751,3.046,3.046,0,0,0-.964,2.02V0H222V-8.655q0-2.881-2.82-2.881a3.021,3.021,0,0,0-3.04,1.892V0h-2.258V-13.208Z" transform="translate(1204.908 16123.982) rotate(-90)"/>
    <path id="Trazado_904121" data-name="Trazado 904121" d="M10.5,0H1.182V-1.3L6.1-6.768A11.693,11.693,0,0,0,7.612-8.784a3.366,3.366,0,0,0,.415-1.606,2.551,2.551,0,0,0-.674-1.826,2.356,2.356,0,0,0-1.8-.713,2.79,2.79,0,0,0-2.095.767,2.928,2.928,0,0,0-.747,2.134H.908A4.194,4.194,0,0,1,2.173-13.2a4.688,4.688,0,0,1,3.384-1.211,4.5,4.5,0,0,1,3.135,1.04,3.548,3.548,0,0,1,1.152,2.769q0,2.1-2.676,5L3.359-1.475H10.5Zm2.139-.947a1.131,1.131,0,0,1,.278-.781,1.061,1.061,0,0,1,.835-.312,1.092,1.092,0,0,1,.845.313,1.109,1.109,0,0,1,.288.781,1.048,1.048,0,0,1-.288.752,1.112,1.112,0,0,1-.845.3,1.079,1.079,0,0,1-.835-.3A1.069,1.069,0,0,1,12.637-.947Zm5.869-6.182.723-7.09h7.285v1.67H20.762l-.43,3.877a4.588,4.588,0,0,1,2.373-.615A3.923,3.923,0,0,1,25.791-8a5.033,5.033,0,0,1,1.143,3.472,4.858,4.858,0,0,1-1.187,3.462A4.325,4.325,0,0,1,22.432.2,4.494,4.494,0,0,1,19.355-.85,4.171,4.171,0,0,1,18-3.74h1.709A2.869,2.869,0,0,0,20.576-1.9a2.7,2.7,0,0,0,1.855.62,2.438,2.438,0,0,0,1.978-.859,3.593,3.593,0,0,0,.718-2.373,3.3,3.3,0,0,0-.776-2.29,2.641,2.641,0,0,0-2.065-.864,2.978,2.978,0,0,0-1.855.518l-.479.391Zm19.775,5.85a2.6,2.6,0,0,0,1.689-.586,2.061,2.061,0,0,0,.8-1.465H42.48A3.276,3.276,0,0,1,41.855-1.6,4.116,4.116,0,0,1,40.317-.293,4.438,4.438,0,0,1,38.281.2a4.353,4.353,0,0,1-3.433-1.44,5.737,5.737,0,0,1-1.274-3.94v-.3a6.361,6.361,0,0,1,.566-2.744A4.314,4.314,0,0,1,35.767-10.1a4.619,4.619,0,0,1,2.5-.664A4.238,4.238,0,0,1,41.226-9.7,3.8,3.8,0,0,1,42.48-6.934H40.771A2.49,2.49,0,0,0,40-8.618a2.415,2.415,0,0,0-1.724-.659,2.529,2.529,0,0,0-2.134.991,4.655,4.655,0,0,0-.757,2.866v.342a4.562,4.562,0,0,0,.752,2.813A2.541,2.541,0,0,0,38.281-1.279Zm7.93-9.287.049,1.172a3.9,3.9,0,0,1,3.135-1.367,3.021,3.021,0,0,1,3.018,1.7,4,4,0,0,1,1.372-1.23,4.052,4.052,0,0,1,2-.469q3.477,0,3.535,3.682V0H57.51V-6.973a2.426,2.426,0,0,0-.518-1.694,2.279,2.279,0,0,0-1.738-.562,2.4,2.4,0,0,0-1.67.6,2.436,2.436,0,0,0-.771,1.616V0H51V-6.924a2.016,2.016,0,0,0-2.256-2.3,2.417,2.417,0,0,0-2.432,1.514V0H44.5V-10.566Z" transform="translate(479.957 16177.634) rotate(-90)"/>
    <path id="Trazado_904122" data-name="Trazado 904122" d="M10.5,0H1.182V-1.3L6.1-6.768A11.693,11.693,0,0,0,7.612-8.784a3.366,3.366,0,0,0,.415-1.606,2.551,2.551,0,0,0-.674-1.826,2.356,2.356,0,0,0-1.8-.713,2.79,2.79,0,0,0-2.095.767,2.928,2.928,0,0,0-.747,2.134H.908A4.194,4.194,0,0,1,2.173-13.2a4.688,4.688,0,0,1,3.384-1.211,4.5,4.5,0,0,1,3.135,1.04,3.548,3.548,0,0,1,1.152,2.769q0,2.1-2.676,5L3.359-1.475H10.5Zm2.139-.947a1.131,1.131,0,0,1,.278-.781,1.061,1.061,0,0,1,.835-.312,1.092,1.092,0,0,1,.845.313,1.109,1.109,0,0,1,.288.781,1.048,1.048,0,0,1-.288.752,1.112,1.112,0,0,1-.845.3,1.079,1.079,0,0,1-.835-.3A1.069,1.069,0,0,1,12.637-.947Zm5.869-6.182.723-7.09h7.285v1.67H20.762l-.43,3.877a4.588,4.588,0,0,1,2.373-.615A3.923,3.923,0,0,1,25.791-8a5.033,5.033,0,0,1,1.143,3.472,4.858,4.858,0,0,1-1.187,3.462A4.325,4.325,0,0,1,22.432.2,4.494,4.494,0,0,1,19.355-.85,4.171,4.171,0,0,1,18-3.74h1.709A2.869,2.869,0,0,0,20.576-1.9a2.7,2.7,0,0,0,1.855.62,2.438,2.438,0,0,0,1.978-.859,3.593,3.593,0,0,0,.718-2.373,3.3,3.3,0,0,0-.776-2.29,2.641,2.641,0,0,0-2.065-.864,2.978,2.978,0,0,0-1.855.518l-.479.391Zm19.775,5.85a2.6,2.6,0,0,0,1.689-.586,2.061,2.061,0,0,0,.8-1.465H42.48A3.276,3.276,0,0,1,41.855-1.6,4.116,4.116,0,0,1,40.317-.293,4.438,4.438,0,0,1,38.281.2a4.353,4.353,0,0,1-3.433-1.44,5.737,5.737,0,0,1-1.274-3.94v-.3a6.361,6.361,0,0,1,.566-2.744A4.314,4.314,0,0,1,35.767-10.1a4.619,4.619,0,0,1,2.5-.664A4.238,4.238,0,0,1,41.226-9.7,3.8,3.8,0,0,1,42.48-6.934H40.771A2.49,2.49,0,0,0,40-8.618a2.415,2.415,0,0,0-1.724-.659,2.529,2.529,0,0,0-2.134.991,4.655,4.655,0,0,0-.757,2.866v.342a4.562,4.562,0,0,0,.752,2.813A2.541,2.541,0,0,0,38.281-1.279Zm7.93-9.287.049,1.172a3.9,3.9,0,0,1,3.135-1.367,3.021,3.021,0,0,1,3.018,1.7,4,4,0,0,1,1.372-1.23,4.052,4.052,0,0,1,2-.469q3.477,0,3.535,3.682V0H57.51V-6.973a2.426,2.426,0,0,0-.518-1.694,2.279,2.279,0,0,0-1.738-.562,2.4,2.4,0,0,0-1.67.6,2.436,2.436,0,0,0-.771,1.616V0H51V-6.924a2.016,2.016,0,0,0-2.256-2.3,2.417,2.417,0,0,0-2.432,1.514V0H44.5V-10.566Z" transform="translate(479.957 15905.198) rotate(-90)"/>
    <path id="Trazado_904123" data-name="Trazado 904123" d="M4.761-9.985h1.7a3.729,3.729,0,0,0,2.515-.842,2.814,2.814,0,0,0,.916-2.209q0-3.125-3.113-3.125a3.238,3.238,0,0,0-2.338.836,2.926,2.926,0,0,0-.873,2.216H1.306A4.534,4.534,0,0,1,2.85-16.62a5.625,5.625,0,0,1,3.925-1.4,5.559,5.559,0,0,1,3.943,1.331,4.807,4.807,0,0,1,1.428,3.7,3.9,3.9,0,0,1-.751,2.246A4.533,4.533,0,0,1,9.351-9.119a4.368,4.368,0,0,1,2.264,1.538,4.272,4.272,0,0,1,.8,2.625,4.848,4.848,0,0,1-1.562,3.8A5.851,5.851,0,0,1,6.787.244,6.006,6.006,0,0,1,2.716-1.111,4.5,4.5,0,0,1,1.147-4.687H3.418a2.9,2.9,0,0,0,.916,2.246A3.482,3.482,0,0,0,6.787-1.6a3.417,3.417,0,0,0,2.5-.854,3.293,3.293,0,0,0,.867-2.454A2.988,2.988,0,0,0,9.2-7.288a4.148,4.148,0,0,0-2.747-.854h-1.7ZM27.234-1.6a3.253,3.253,0,0,0,2.112-.732,2.577,2.577,0,0,0,1-1.831h2.136A4.1,4.1,0,0,1,31.7-2,5.145,5.145,0,0,1,29.779-.366a5.548,5.548,0,0,1-2.545.61,5.441,5.441,0,0,1-4.291-1.8A7.171,7.171,0,0,1,21.35-6.482V-6.86a7.952,7.952,0,0,1,.708-3.43,5.393,5.393,0,0,1,2.032-2.332,5.774,5.774,0,0,1,3.131-.83,5.3,5.3,0,0,1,3.693,1.331,4.755,4.755,0,0,1,1.569,3.455H30.347a3.112,3.112,0,0,0-.97-2.106,3.019,3.019,0,0,0-2.155-.824,3.161,3.161,0,0,0-2.667,1.239,5.819,5.819,0,0,0-.946,3.583v.427a5.7,5.7,0,0,0,.94,3.516A3.176,3.176,0,0,0,27.234-1.6Zm9.912-11.609.061,1.465a4.878,4.878,0,0,1,3.918-1.709A3.776,3.776,0,0,1,44.9-11.328a5,5,0,0,1,1.715-1.538,5.066,5.066,0,0,1,2.5-.586q4.346,0,4.419,4.6V0H51.27V-8.716a3.033,3.033,0,0,0-.647-2.118,2.849,2.849,0,0,0-2.173-.7,3,3,0,0,0-2.087.751,3.046,3.046,0,0,0-.964,2.02V0H43.127V-8.655q0-2.881-2.82-2.881a3.021,3.021,0,0,0-3.04,1.892V0H35.01V-13.208Z" transform="translate(704.793 16288.229) rotate(-90)"/>
    <path id="Trazado_904124" data-name="Trazado 904124" d="M0,0H556.96V890.225H0Z" transform="translate(386 16288.229) rotate(-90)" fill="none"/>
    <path id="Trazado_904125" data-name="Trazado 904125" d="M4.761-9.985h1.7a3.729,3.729,0,0,0,2.515-.842,2.814,2.814,0,0,0,.916-2.209q0-3.125-3.113-3.125a3.238,3.238,0,0,0-2.338.836,2.926,2.926,0,0,0-.873,2.216H1.306A4.534,4.534,0,0,1,2.85-16.62a5.625,5.625,0,0,1,3.925-1.4,5.559,5.559,0,0,1,3.943,1.331,4.807,4.807,0,0,1,1.428,3.7,3.9,3.9,0,0,1-.751,2.246A4.533,4.533,0,0,1,9.351-9.119a4.368,4.368,0,0,1,2.264,1.538,4.272,4.272,0,0,1,.8,2.625,4.848,4.848,0,0,1-1.562,3.8A5.851,5.851,0,0,1,6.787.244,6.006,6.006,0,0,1,2.716-1.111,4.5,4.5,0,0,1,1.147-4.687H3.418a2.9,2.9,0,0,0,.916,2.246A3.482,3.482,0,0,0,6.787-1.6a3.417,3.417,0,0,0,2.5-.854,3.293,3.293,0,0,0,.867-2.454A2.988,2.988,0,0,0,9.2-7.288a4.148,4.148,0,0,0-2.747-.854h-1.7ZM27.234-1.6a3.253,3.253,0,0,0,2.112-.732,2.577,2.577,0,0,0,1-1.831h2.136A4.1,4.1,0,0,1,31.7-2,5.145,5.145,0,0,1,29.779-.366a5.548,5.548,0,0,1-2.545.61,5.441,5.441,0,0,1-4.291-1.8A7.171,7.171,0,0,1,21.35-6.482V-6.86a7.952,7.952,0,0,1,.708-3.43,5.393,5.393,0,0,1,2.032-2.332,5.774,5.774,0,0,1,3.131-.83,5.3,5.3,0,0,1,3.693,1.331,4.755,4.755,0,0,1,1.569,3.455H30.347a3.112,3.112,0,0,0-.97-2.106,3.019,3.019,0,0,0-2.155-.824,3.161,3.161,0,0,0-2.667,1.239,5.819,5.819,0,0,0-.946,3.583v.427a5.7,5.7,0,0,0,.94,3.516A3.176,3.176,0,0,0,27.234-1.6Zm9.912-11.609.061,1.465a4.878,4.878,0,0,1,3.918-1.709A3.776,3.776,0,0,1,44.9-11.328a5,5,0,0,1,1.715-1.538,5.066,5.066,0,0,1,2.5-.586q4.346,0,4.419,4.6V0H51.27V-8.716a3.033,3.033,0,0,0-.647-2.118,2.849,2.849,0,0,0-2.173-.7,3,3,0,0,0-2.087.751,3.046,3.046,0,0,0-.964,2.02V0H43.127V-8.655q0-2.881-2.82-2.881a3.021,3.021,0,0,0-3.04,1.892V0H35.01V-13.208Z" transform="translate(704.793 15792.794) rotate(-90)"/>
    <path id="Trazado_904126" data-name="Trazado 904126" d="M0,0V66.413" transform="translate(660.255 16211.853) rotate(-90)" fill="none" stroke="#1d1d1b" stroke-width="1.126"/>
    <path id="Trazado_903837" data-name="Trazado 903837" d="M60.218,292l6.514,11.281L73.247,292Z" transform="translate(432.763 16278.586) rotate(-90)" fill="#1d1d1b"/>
    <path id="Trazado_904127" data-name="Trazado 904127" d="M0,0V66.413" transform="translate(660.255 15808.882) rotate(-90)" fill="none" stroke="#1d1d1b" stroke-width="1.126"/>
    <path id="Trazado_903838" data-name="Trazado 903838" d="M407.563,292l6.514,11.281L420.591,292Z" transform="translate(432.763 16222.959) rotate(-90)" fill="#1d1d1b"/>
    <path id="Trazado_904128" data-name="Trazado 904128" d="M0,0V66.413" transform="translate(449.43 16211.853) rotate(-90)" fill="none" stroke="#1d1d1b" stroke-width="1.126"/>
    <path id="Trazado_903839" data-name="Trazado 903839" d="M60.218,110.275l6.514,11.281,6.514-11.281Z" transform="translate(403.661 16278.586) rotate(-90)" fill="#1d1d1b"/>
    <path id="Trazado_904129" data-name="Trazado 904129" d="M0,0V66.413" transform="translate(449.43 15808.882) rotate(-90)" fill="none" stroke="#1d1d1b" stroke-width="1.126"/>
    <path id="Trazado_903840" data-name="Trazado 903840" d="M407.563,110.275l6.514,11.281,6.514-11.281Z" transform="translate(403.661 16222.959) rotate(-90)" fill="#1d1d1b"/>
    <path id="Trazado_904130" data-name="Trazado 904130" d="M7.119,0H5.3V-12.041L1.66-10.7v-1.641l5.176-1.943h.283Zm5.518-.947a1.131,1.131,0,0,1,.278-.781,1.061,1.061,0,0,1,.835-.312,1.092,1.092,0,0,1,.845.313,1.109,1.109,0,0,1,.288.781,1.048,1.048,0,0,1-.288.752,1.112,1.112,0,0,1-.845.3,1.079,1.079,0,0,1-.835-.3A1.069,1.069,0,0,1,12.637-.947Zm5.869-6.182.723-7.09h7.285v1.67H20.762l-.43,3.877a4.588,4.588,0,0,1,2.373-.615A3.923,3.923,0,0,1,25.791-8a5.033,5.033,0,0,1,1.143,3.472,4.858,4.858,0,0,1-1.187,3.462A4.325,4.325,0,0,1,22.432.2,4.494,4.494,0,0,1,19.355-.85,4.171,4.171,0,0,1,18-3.74h1.709A2.869,2.869,0,0,0,20.576-1.9a2.7,2.7,0,0,0,1.855.62,2.438,2.438,0,0,0,1.978-.859,3.593,3.593,0,0,0,.718-2.373,3.3,3.3,0,0,0-.776-2.29,2.641,2.641,0,0,0-2.065-.864,2.978,2.978,0,0,0-1.855.518l-.479.391Zm19.775,5.85a2.6,2.6,0,0,0,1.689-.586,2.061,2.061,0,0,0,.8-1.465H42.48A3.276,3.276,0,0,1,41.855-1.6,4.116,4.116,0,0,1,40.317-.293,4.438,4.438,0,0,1,38.281.2a4.353,4.353,0,0,1-3.433-1.44,5.737,5.737,0,0,1-1.274-3.94v-.3a6.361,6.361,0,0,1,.566-2.744A4.314,4.314,0,0,1,35.767-10.1a4.619,4.619,0,0,1,2.5-.664A4.238,4.238,0,0,1,41.226-9.7,3.8,3.8,0,0,1,42.48-6.934H40.771A2.49,2.49,0,0,0,40-8.618a2.415,2.415,0,0,0-1.724-.659,2.529,2.529,0,0,0-2.134.991,4.655,4.655,0,0,0-.757,2.866v.342a4.562,4.562,0,0,0,.752,2.813A2.541,2.541,0,0,0,38.281-1.279Zm7.93-9.287.049,1.172a3.9,3.9,0,0,1,3.135-1.367,3.021,3.021,0,0,1,3.018,1.7,4,4,0,0,1,1.372-1.23,4.052,4.052,0,0,1,2-.469q3.477,0,3.535,3.682V0H57.51V-6.973a2.426,2.426,0,0,0-.518-1.694,2.279,2.279,0,0,0-1.738-.562,2.4,2.4,0,0,0-1.67.6,2.436,2.436,0,0,0-.771,1.616V0H51V-6.924a2.016,2.016,0,0,0-2.256-2.3,2.417,2.417,0,0,0-2.432,1.514V0H44.5V-10.566Z" transform="translate(1134.624 16185.246) rotate(-90)"/>
    <path id="Trazado_904131" data-name="Trazado 904131" d="M7.119,0H5.3V-12.041L1.66-10.7v-1.641l5.176-1.943h.283Zm5.518-.947a1.131,1.131,0,0,1,.278-.781,1.061,1.061,0,0,1,.835-.312,1.092,1.092,0,0,1,.845.313,1.109,1.109,0,0,1,.288.781,1.048,1.048,0,0,1-.288.752,1.112,1.112,0,0,1-.845.3,1.079,1.079,0,0,1-.835-.3A1.069,1.069,0,0,1,12.637-.947Zm5.869-6.182.723-7.09h7.285v1.67H20.762l-.43,3.877a4.588,4.588,0,0,1,2.373-.615A3.923,3.923,0,0,1,25.791-8a5.033,5.033,0,0,1,1.143,3.472,4.858,4.858,0,0,1-1.187,3.462A4.325,4.325,0,0,1,22.432.2,4.494,4.494,0,0,1,19.355-.85,4.171,4.171,0,0,1,18-3.74h1.709A2.869,2.869,0,0,0,20.576-1.9a2.7,2.7,0,0,0,1.855.62,2.438,2.438,0,0,0,1.978-.859,3.593,3.593,0,0,0,.718-2.373,3.3,3.3,0,0,0-.776-2.29,2.641,2.641,0,0,0-2.065-.864,2.978,2.978,0,0,0-1.855.518l-.479.391Zm19.775,5.85a2.6,2.6,0,0,0,1.689-.586,2.061,2.061,0,0,0,.8-1.465H42.48A3.276,3.276,0,0,1,41.855-1.6,4.116,4.116,0,0,1,40.317-.293,4.438,4.438,0,0,1,38.281.2a4.353,4.353,0,0,1-3.433-1.44,5.737,5.737,0,0,1-1.274-3.94v-.3a6.361,6.361,0,0,1,.566-2.744A4.314,4.314,0,0,1,35.767-10.1a4.619,4.619,0,0,1,2.5-.664A4.238,4.238,0,0,1,41.226-9.7,3.8,3.8,0,0,1,42.48-6.934H40.771A2.49,2.49,0,0,0,40-8.618a2.415,2.415,0,0,0-1.724-.659,2.529,2.529,0,0,0-2.134.991,4.655,4.655,0,0,0-.757,2.866v.342a4.562,4.562,0,0,0,.752,2.813A2.541,2.541,0,0,0,38.281-1.279Zm7.93-9.287.049,1.172a3.9,3.9,0,0,1,3.135-1.367,3.021,3.021,0,0,1,3.018,1.7,4,4,0,0,1,1.372-1.23,4.052,4.052,0,0,1,2-.469q3.477,0,3.535,3.682V0H57.51V-6.973a2.426,2.426,0,0,0-.518-1.694,2.279,2.279,0,0,0-1.738-.562,2.4,2.4,0,0,0-1.67.6,2.436,2.436,0,0,0-.771,1.616V0H51V-6.924a2.016,2.016,0,0,0-2.256-2.3,2.417,2.417,0,0,0-2.432,1.514V0H44.5V-10.566Z" transform="translate(1134.624 15899.027) rotate(-90)"/>
    <path id="Trazado_903841" data-name="Trazado 903841" d="M81.582,611.006v51.345h366.43V611.006" transform="translate(483.852 16275.164) rotate(-90)" fill="none" stroke="#1d1d1b" stroke-miterlimit="10" stroke-width="1.114" stroke-dasharray="6.389 6.389"/>
    <path id="Trazado_903842" data-name="Trazado 903842" d="M448.012,129.169V55.759H81.582v73.411" transform="translate(394.93 16275.164) rotate(-90)" fill="none" stroke="#1d1d1b" stroke-miterlimit="10" stroke-width="1.333" stroke-dasharray="7.64 7.64"/>
    <path id="Trazado_904132" data-name="Trazado 904132" d="M0,0H365.13" transform="translate(1230.546 16192.933) rotate(-90)" fill="none" stroke="#1d1d1b" stroke-width="1.12"/>
    <path id="Trazado_904133" data-name="Trazado 904133" d="M0,0H1.3V8.448H0Z" transform="translate(1226.321 16193.582) rotate(-90)" fill="#1d1d1b"/>
    <path id="Trazado_904134" data-name="Trazado 904134" d="M0,0H1.3V8.448H0Z" transform="translate(1226.321 15828.452) rotate(-90)" fill="#1d1d1b"/>
    <path id="Trazado_904135" data-name="Trazado 904135" d="M0,0H365.13" transform="translate(1168.343 16192.933) rotate(-90)" fill="none" stroke="#1d1d1b" stroke-width="1.12"/>
    <path id="Trazado_904136" data-name="Trazado 904136" d="M0,0H1.3V8.448H0Z" transform="translate(1164.119 16193.582) rotate(-90)" fill="#1d1d1b"/>
    <path id="Trazado_904137" data-name="Trazado 904137" d="M0,0H1.3V8.448H0Z" transform="translate(1164.119 15828.452) rotate(-90)" fill="#1d1d1b"/>
    <path id="Trazado_904138" data-name="Trazado 904138" d="M8.9,0H6.628V-15.051L2.075-13.379V-15.43l6.47-2.429H8.9Zm7.3,1.526H14.258l7.422-19.3h1.929ZM37.463,0H25.818V-1.624L31.97-8.459a14.616,14.616,0,0,0,1.886-2.521,4.207,4.207,0,0,0,.519-2.008,3.189,3.189,0,0,0-.842-2.283,2.945,2.945,0,0,0-2.246-.891,3.488,3.488,0,0,0-2.618.958,3.66,3.66,0,0,0-.934,2.667H25.476A5.242,5.242,0,0,1,27.057-16.5a5.86,5.86,0,0,1,4.23-1.514,5.631,5.631,0,0,1,3.918,1.3,4.435,4.435,0,0,1,1.44,3.461q0,2.625-3.345,6.25L28.54-1.843h8.923Z" transform="translate(1267.874 16027.575) rotate(-90)"/>
    <path id="Trazado_904139" data-name="Trazado 904139" d="M0,0H556.96V890.225H0Z" transform="translate(386 16288.229) rotate(-90)" fill="none"/>
    <path id="Trazado_904140" data-name="Trazado 904140" d="M0,0V20.691" transform="translate(1220.201 16010.367) rotate(-90)" fill="none" stroke="#1d1d1b" stroke-width="1"/>
    <path id="Trazado_904141" data-name="Trazado 904141" d="M0,0H365.13" transform="translate(396.346 16192.933) rotate(-90)" fill="none" stroke="#1d1d1b" stroke-width="1.12"/>
    <path id="Trazado_904142" data-name="Trazado 904142" d="M0,0H1.3V8.448H0Z" transform="translate(392.121 16193.582) rotate(-90)" fill="#1d1d1b"/>
    <path id="Trazado_904143" data-name="Trazado 904143" d="M0,0H1.3V8.448H0Z" transform="translate(392.121 15828.452) rotate(-90)" fill="#1d1d1b"/>
    <path id="Trazado_904144" data-name="Trazado 904144" d="M8.9,0H6.628V-15.051L2.075-13.379V-15.43l6.47-2.429H8.9Zm7.3,1.526H14.258l7.422-19.3h1.929ZM37.463,0H25.818V-1.624L31.97-8.459a14.616,14.616,0,0,0,1.886-2.521,4.207,4.207,0,0,0,.519-2.008,3.189,3.189,0,0,0-.842-2.283,2.945,2.945,0,0,0-2.246-.891,3.488,3.488,0,0,0-2.618.958,3.66,3.66,0,0,0-.934,2.667H25.476A5.242,5.242,0,0,1,27.057-16.5a5.86,5.86,0,0,1,4.23-1.514,5.631,5.631,0,0,1,3.918,1.3,4.435,4.435,0,0,1,1.44,3.461q0,2.625-3.345,6.25L28.54-1.843h8.923Z" transform="translate(433.674 16027.575) rotate(-90)"/>
    <path id="Trazado_904145" data-name="Trazado 904145" d="M0,0V20.691" transform="translate(386 16010.367) rotate(-90)" fill="none" stroke="#1d1d1b" stroke-width="1"/>
    <path id="Trazado_903843" data-name="Trazado 903843" d="M448.012,264.194s-366.43,2.855-366.43,0V129.044L264.8,55.757l183.214,73.287Z" transform="translate(394.93 16275.164) rotate(-90)" fill="none" stroke="#1d1d1b" stroke-miterlimit="10" stroke-width="1.242"/>
    <path id="Trazado_903844" data-name="Trazado 903844" d="M81.582,238.065s366.43-2.855,366.43,0V674.544L264.8,720.322,81.582,674.544Z" transform="translate(423.923 16275.164) rotate(-90)" fill="none" stroke="#1d1d1b" stroke-miterlimit="10" stroke-width="1.242"/>
    <path id="Trazado_904146" data-name="Trazado 904146" d="M0,0H367.869" transform="translate(736.181 16195.021) rotate(-90)" fill="none" stroke="#222221" stroke-width="0.962" stroke-dasharray="5.468 5.468"/>
    <path id="Trazado_903845" data-name="Trazado 903845" d="M399.48,319.155V288.729l-15.213,15.213Z" transform="translate(432.24 16226.689) rotate(-90)"/>
    <path id="Trazado_903846" data-name="Trazado 903846" d="M81.582,288.729v30.426L96.8,303.942Z" transform="translate(432.24 16275.164) rotate(-90)"/>
    <path id="Trazado_904147" data-name="Trazado 904147" d="M0,0H556.96V890.225H0Z" transform="translate(386 16288.229) rotate(-90)" fill="none"/>
  </g>
</svg>
