<svg xmlns="http://www.w3.org/2000/svg" width="344.174" height="371.578" viewBox="0 0 344.174 371.578">
  <g id="Grupo_1114940" data-name="Grupo 1114940" transform="translate(-395.786 -8537.254)">
    <path id="Trazado_903616" data-name="Trazado 903616" d="M188.3,424.515l98.007,35.606S256.564,620.845,332.14,625.3L304.348,794.921H128.326V489.3S174.648,488.31,188.3,424.515Z" transform="translate(407.234 8113.408)" fill="none" stroke="#000" stroke-miterlimit="10" stroke-width="1.005"/>
    <path id="Trazado_904035" data-name="Trazado 904035" d="M0,0V306.6" transform="translate(446.52 8601.727)" fill="none" stroke="#000" stroke-width="0.948" stroke-dasharray="5.686 5.686"/>
    <path id="Trazado_904036" data-name="Trazado 904036" d="M0,0V306.6" transform="translate(510.599 8601.727)" fill="none" stroke="#000" stroke-width="0.948" stroke-dasharray="5.686 5.686"/>
    <path id="Trazado_904037" data-name="Trazado 904037" d="M0,64.044V0" transform="translate(650.052 8815.304)" fill="none" stroke="#000" stroke-width="1" stroke-dasharray="6 6"/>
    <path id="Trazado_903621" data-name="Trazado 903621" d="M211.306,689.268h15.619l-7.809,7.806Z" transform="translate(430.936 8189.033)"/>
    <path id="Trazado_903622" data-name="Trazado 903622" d="M211.306,642.817h15.619l-7.809-7.806Z" transform="translate(430.936 8173.535)"/>
    <path id="Trazado_904038" data-name="Trazado 904038" d="M1.9,0V-16.352H7.244a6.205,6.205,0,0,1,4,1.1,3.967,3.967,0,0,1,1.342,3.257,3.321,3.321,0,0,1-.651,2.027A4.223,4.223,0,0,1,10.164-8.6a3.792,3.792,0,0,1,2.094,1.409,4.045,4.045,0,0,1,.769,2.476A4.373,4.373,0,0,1,11.6-1.258,5.9,5.9,0,0,1,7.569,0ZM4.054-7.648v5.885h3.56A3.428,3.428,0,0,0,9.99-2.544a2.741,2.741,0,0,0,.87-2.151q0-2.954-3.212-2.954Zm0-1.729H7.311a3.414,3.414,0,0,0,2.263-.709,2.377,2.377,0,0,0,.848-1.925,2.338,2.338,0,0,0-.786-1.964,3.861,3.861,0,0,0-2.392-.613H4.054ZM15.341-6.188a7.177,7.177,0,0,1,.7-3.212A5.236,5.236,0,0,1,18-11.6a5.319,5.319,0,0,1,2.858-.775,5.124,5.124,0,0,1,4.015,1.718A6.611,6.611,0,0,1,26.4-6.087v.146a7.24,7.24,0,0,1-.679,3.184,5.159,5.159,0,0,1-1.943,2.2,5.38,5.38,0,0,1-2.9.786,5.112,5.112,0,0,1-4-1.718,6.577,6.577,0,0,1-1.533-4.548Zm2.089.247A5.2,5.2,0,0,0,18.367-2.7a3,3,0,0,0,2.51,1.224,2.983,2.983,0,0,0,2.516-1.241,5.685,5.685,0,0,0,.932-3.476,5.189,5.189,0,0,0-.949-3.24,3.017,3.017,0,0,0-2.521-1.241,2.983,2.983,0,0,0-2.482,1.224A5.642,5.642,0,0,0,17.43-5.941Zm14.4-9.153v2.942H34.1v1.606H31.827V-3a1.687,1.687,0,0,0,.3,1.1,1.276,1.276,0,0,0,1.033.365,5.03,5.03,0,0,0,.988-.135V0a6.059,6.059,0,0,1-1.595.223,2.587,2.587,0,0,1-2.1-.842A3.618,3.618,0,0,1,29.75-3.01v-7.536H27.537v-1.606H29.75v-2.942Zm3.919,8.906a7.177,7.177,0,0,1,.7-3.212A5.236,5.236,0,0,1,38.4-11.6a5.319,5.319,0,0,1,2.858-.775,5.124,5.124,0,0,1,4.015,1.718,6.611,6.611,0,0,1,1.533,4.571v.146a7.24,7.24,0,0,1-.679,3.184,5.159,5.159,0,0,1-1.943,2.2,5.38,5.38,0,0,1-2.9.786,5.112,5.112,0,0,1-4-1.718,6.577,6.577,0,0,1-1.533-4.548Zm2.089.247A5.2,5.2,0,0,0,38.773-2.7a3,3,0,0,0,2.51,1.224A2.983,2.983,0,0,0,43.8-2.712a5.685,5.685,0,0,0,.932-3.476,5.189,5.189,0,0,0-.949-3.24,3.017,3.017,0,0,0-2.521-1.241,2.983,2.983,0,0,0-2.482,1.224A5.642,5.642,0,0,0,37.835-5.941Zm13.544-6.21.067,1.527a4.428,4.428,0,0,1,3.639-1.752q3.852,0,3.886,4.346V0H56.894V-8.041a2.8,2.8,0,0,0-.6-1.943,2.408,2.408,0,0,0-1.836-.629,3,3,0,0,0-1.774.539,3.661,3.661,0,0,0-1.19,1.415V0H49.414V-12.151ZM67.147.225A5.309,5.309,0,0,1,63.126-1.4a6.023,6.023,0,0,1-1.55-4.341v-.382a7.292,7.292,0,0,1,.691-3.229A5.388,5.388,0,0,1,64.2-11.573a4.857,4.857,0,0,1,2.69-.8,4.551,4.551,0,0,1,3.684,1.561,6.759,6.759,0,0,1,1.314,4.47v.865H63.654a4.319,4.319,0,0,0,1.05,2.9,3.3,3.3,0,0,0,2.555,1.106,3.619,3.619,0,0,0,1.864-.449,4.684,4.684,0,0,0,1.336-1.19l1.269.988A5.1,5.1,0,0,1,67.147.225Zm-.258-10.894a2.771,2.771,0,0,0-2.111.915,4.449,4.449,0,0,0-1.056,2.566h6.087v-.157A3.957,3.957,0,0,0,68.955-9.8,2.609,2.609,0,0,0,66.889-10.669Zm13.274.382a6.226,6.226,0,0,0-1.022-.079,2.738,2.738,0,0,0-2.774,1.741V0H74.29V-12.151h2.021l.034,1.4a3.235,3.235,0,0,1,2.9-1.628,2.123,2.123,0,0,1,.921.157ZM89.125,0a4.364,4.364,0,0,1-.292-1.28,4.636,4.636,0,0,1-3.459,1.5A4.289,4.289,0,0,1,82.426-.792a3.288,3.288,0,0,1-1.151-2.577,3.435,3.435,0,0,1,1.443-2.948,6.8,6.8,0,0,1,4.06-1.05H88.8v-.955a2.333,2.333,0,0,0-.651-1.735,2.618,2.618,0,0,0-1.92-.646,3.03,3.03,0,0,0-1.864.562,1.655,1.655,0,0,0-.752,1.359H81.522a2.867,2.867,0,0,1,.646-1.758,4.407,4.407,0,0,1,1.752-1.342,5.894,5.894,0,0,1,2.431-.494,4.8,4.8,0,0,1,3.291,1.05,3.788,3.788,0,0,1,1.235,2.892v5.593A6.838,6.838,0,0,0,91.3-.18V0ZM85.677-1.583a3.651,3.651,0,0,0,1.853-.505A3.057,3.057,0,0,0,88.8-3.4V-5.9H87.171q-3.818,0-3.818,2.235A1.891,1.891,0,0,0,84-2.134,2.5,2.5,0,0,0,85.677-1.583Zm27.054-6.064a10.115,10.115,0,0,1-.809,4.195,6.125,6.125,0,0,1-2.291,2.735,6.3,6.3,0,0,1-3.459.943,6.25,6.25,0,0,1-3.425-.949,6.271,6.271,0,0,1-2.319-2.707A9.705,9.705,0,0,1,99.581-7.5V-8.681a9.995,9.995,0,0,1,.82-4.167,6.249,6.249,0,0,1,2.319-2.768,6.223,6.223,0,0,1,3.431-.96,6.339,6.339,0,0,1,3.465.949,6.113,6.113,0,0,1,2.308,2.751,10.164,10.164,0,0,1,.809,4.195ZM110.586-8.7a7.331,7.331,0,0,0-1.168-4.464,3.852,3.852,0,0,0-3.268-1.555,3.811,3.811,0,0,0-3.218,1.555,7.181,7.181,0,0,0-1.207,4.318v1.2a7.342,7.342,0,0,0,1.185,4.43,3.827,3.827,0,0,0,3.262,1.612,3.812,3.812,0,0,0,3.234-1.522,7.3,7.3,0,0,0,1.179-4.363Zm9.928,7.232a2.993,2.993,0,0,0,1.943-.674,2.371,2.371,0,0,0,.921-1.685h1.965a3.768,3.768,0,0,1-.719,1.988,4.734,4.734,0,0,1-1.769,1.5,5.1,5.1,0,0,1-2.342.562,5.006,5.006,0,0,1-3.948-1.656A6.6,6.6,0,0,1,115.1-5.963v-.348a7.316,7.316,0,0,1,.651-3.156,4.961,4.961,0,0,1,1.87-2.145,5.312,5.312,0,0,1,2.881-.764,4.873,4.873,0,0,1,3.4,1.224,4.375,4.375,0,0,1,1.443,3.178h-1.965a2.863,2.863,0,0,0-.893-1.937,2.777,2.777,0,0,0-1.982-.758,2.908,2.908,0,0,0-2.454,1.14,5.353,5.353,0,0,0-.87,3.3v.393a5.247,5.247,0,0,0,.865,3.234A2.922,2.922,0,0,0,120.514-1.471Zm14.667.27a4.413,4.413,0,0,1-3.56,1.426A3.777,3.777,0,0,1,128.662-.9a4.885,4.885,0,0,1-1.028-3.341v-7.906h2.078V-4.3q0,2.763,2.246,2.763a3.11,3.11,0,0,0,3.167-1.774v-8.838H137.2V0h-1.977ZM142.616,0h-2.078V-17.25h2.078Zm6.143-15.094v2.942h2.269v1.606h-2.269V-3a1.687,1.687,0,0,0,.3,1.1,1.276,1.276,0,0,0,1.033.365,5.03,5.03,0,0,0,.988-.135V0a6.059,6.059,0,0,1-1.595.223,2.587,2.587,0,0,1-2.1-.842,3.618,3.618,0,0,1-.708-2.392v-7.536h-2.212v-1.606h2.212v-2.942ZM160.955,0a4.364,4.364,0,0,1-.292-1.28A4.636,4.636,0,0,1,157.2.225a4.289,4.289,0,0,1-2.948-1.016A3.288,3.288,0,0,1,153.1-3.369a3.435,3.435,0,0,1,1.443-2.948,6.8,6.8,0,0,1,4.06-1.05h2.021v-.955a2.333,2.333,0,0,0-.651-1.735,2.618,2.618,0,0,0-1.92-.646,3.03,3.03,0,0,0-1.864.562,1.655,1.655,0,0,0-.752,1.359h-2.089A2.867,2.867,0,0,1,154-10.54a4.407,4.407,0,0,1,1.752-1.342,5.894,5.894,0,0,1,2.431-.494,4.8,4.8,0,0,1,3.291,1.05,3.788,3.788,0,0,1,1.235,2.892v5.593a6.838,6.838,0,0,0,.427,2.662V0Zm-3.448-1.583a3.651,3.651,0,0,0,1.853-.505A3.057,3.057,0,0,0,160.629-3.4V-5.9H159q-3.818,0-3.818,2.235a1.891,1.891,0,0,0,.651,1.527A2.5,2.5,0,0,0,157.507-1.583Z" transform="translate(546.829 8771.434)"/>
    <path id="Trazado_904039" data-name="Trazado 904039" d="M10.13-5.492H12.4v1.7H10.13V0H8.041V-3.8H.6V-5.02L7.917-16.352H10.13Zm-7.176,0H8.041V-13.51l-.247.449Zm22.1,4.021A2.993,2.993,0,0,0,27-2.145a2.371,2.371,0,0,0,.921-1.685h1.965a3.768,3.768,0,0,1-.719,1.988A4.734,4.734,0,0,1,27.4-.337a5.1,5.1,0,0,1-2.342.562,5.006,5.006,0,0,1-3.948-1.656,6.6,6.6,0,0,1-1.466-4.531v-.348a7.316,7.316,0,0,1,.651-3.156,4.961,4.961,0,0,1,1.87-2.145,5.312,5.312,0,0,1,2.881-.764,4.873,4.873,0,0,1,3.4,1.224,4.375,4.375,0,0,1,1.443,3.178H27.919a2.863,2.863,0,0,0-.893-1.937,2.777,2.777,0,0,0-1.982-.758,2.908,2.908,0,0,0-2.454,1.14,5.353,5.353,0,0,0-.87,3.3v.393a5.247,5.247,0,0,0,.865,3.234A2.922,2.922,0,0,0,25.055-1.471Zm9.119-10.68L34.23-10.8a4.488,4.488,0,0,1,3.6-1.572,3.474,3.474,0,0,1,3.47,1.954,4.6,4.6,0,0,1,1.578-1.415,4.66,4.66,0,0,1,2.3-.539q4,0,4.065,4.234V0H47.168V-8.019a2.79,2.79,0,0,0-.6-1.948,2.621,2.621,0,0,0-2-.646,2.755,2.755,0,0,0-1.92.691,2.8,2.8,0,0,0-.887,1.859V0H39.677V-7.962a2.318,2.318,0,0,0-2.594-2.65,2.78,2.78,0,0,0-2.8,1.741V0H32.209V-12.151Z" transform="translate(425.853 8781.503) rotate(-90)"/>
    <path id="Trazado_904040" data-name="Trazado 904040" d="M9.512-16.363V-14.6H9.13a5.47,5.47,0,0,0-3.863,1.438A5.982,5.982,0,0,0,3.6-9.243a4.435,4.435,0,0,1,3.526-1.482,4.24,4.24,0,0,1,3.408,1.5,5.8,5.8,0,0,1,1.275,3.886,5.786,5.786,0,0,1-1.376,4.043A4.737,4.737,0,0,1,6.75.225a4.667,4.667,0,0,1-3.807-1.8,7.144,7.144,0,0,1-1.46-4.644v-.8q0-4.515,1.926-6.9a7.074,7.074,0,0,1,5.733-2.443ZM6.783-9a3.315,3.315,0,0,0-1.965.64A3.336,3.336,0,0,0,3.571-6.75v.764a5.364,5.364,0,0,0,.91,3.257A2.726,2.726,0,0,0,6.75-1.494,2.641,2.641,0,0,0,8.956-2.527a4.287,4.287,0,0,0,.8-2.707,4.289,4.289,0,0,0-.814-2.723A2.61,2.61,0,0,0,6.783-9ZM25.055-1.471A2.993,2.993,0,0,0,27-2.145a2.371,2.371,0,0,0,.921-1.685h1.965a3.768,3.768,0,0,1-.719,1.988A4.734,4.734,0,0,1,27.4-.337a5.1,5.1,0,0,1-2.342.562,5.006,5.006,0,0,1-3.948-1.656,6.6,6.6,0,0,1-1.466-4.531v-.348a7.316,7.316,0,0,1,.651-3.156,4.961,4.961,0,0,1,1.87-2.145,5.312,5.312,0,0,1,2.881-.764,4.873,4.873,0,0,1,3.4,1.224,4.375,4.375,0,0,1,1.443,3.178H27.919a2.863,2.863,0,0,0-.893-1.937,2.777,2.777,0,0,0-1.982-.758,2.908,2.908,0,0,0-2.454,1.14,5.353,5.353,0,0,0-.87,3.3v.393a5.247,5.247,0,0,0,.865,3.234A2.922,2.922,0,0,0,25.055-1.471Zm9.119-10.68L34.23-10.8a4.488,4.488,0,0,1,3.6-1.572,3.474,3.474,0,0,1,3.47,1.954,4.6,4.6,0,0,1,1.578-1.415,4.66,4.66,0,0,1,2.3-.539q4,0,4.065,4.234V0H47.168V-8.019a2.79,2.79,0,0,0-.6-1.948,2.621,2.621,0,0,0-2-.646,2.755,2.755,0,0,0-1.92.691,2.8,2.8,0,0,0-.887,1.859V0H39.677V-7.962a2.318,2.318,0,0,0-2.594-2.65,2.78,2.78,0,0,0-2.8,1.741V0H32.209V-12.151Z" transform="translate(490.948 8781.504) rotate(-90)"/>
    <path id="Trazado_904041" data-name="Trazado 904041" d="M8.543,0H6.363V-14.449L1.992-12.844v-1.969L8.2-17.145h.34Zm6.621-1.137a1.358,1.358,0,0,1,.334-.937,1.273,1.273,0,0,1,1-.375,1.311,1.311,0,0,1,1.014.375,1.33,1.33,0,0,1,.346.938,1.258,1.258,0,0,1-.346.9A1.334,1.334,0,0,1,16.5.129a1.3,1.3,0,0,1-1-.363A1.283,1.283,0,0,1,15.164-1.137Zm7.043-7.418.867-8.508h8.742v2h-6.9L24.4-10.406a5.506,5.506,0,0,1,2.848-.738,4.707,4.707,0,0,1,3.7,1.541A6.04,6.04,0,0,1,32.32-5.437,5.829,5.829,0,0,1,30.9-1.283,5.19,5.19,0,0,1,26.918.234,5.393,5.393,0,0,1,23.227-1.02,5,5,0,0,1,21.6-4.488h2.051a3.443,3.443,0,0,0,1.043,2.209,3.243,3.243,0,0,0,2.227.744,2.925,2.925,0,0,0,2.373-1.031,4.311,4.311,0,0,0,.861-2.848,3.957,3.957,0,0,0-.932-2.748A3.169,3.169,0,0,0,26.742-9.2a3.574,3.574,0,0,0-2.227.621l-.574.469Zm23.73,7.02a3.123,3.123,0,0,0,2.027-.7A2.474,2.474,0,0,0,48.926-4h2.051a3.931,3.931,0,0,1-.75,2.074,4.94,4.94,0,0,1-1.846,1.57,5.326,5.326,0,0,1-2.443.586,5.223,5.223,0,0,1-4.119-1.729,6.884,6.884,0,0,1-1.529-4.729v-.363a7.634,7.634,0,0,1,.68-3.293,5.177,5.177,0,0,1,1.951-2.238,5.543,5.543,0,0,1,3.006-.8,5.085,5.085,0,0,1,3.545,1.277A4.565,4.565,0,0,1,50.977-8.32H48.926a2.988,2.988,0,0,0-.932-2.021,2.9,2.9,0,0,0-2.068-.791,3.034,3.034,0,0,0-2.561,1.189A5.586,5.586,0,0,0,42.457-6.5v.41a5.475,5.475,0,0,0,.9,3.375A3.049,3.049,0,0,0,45.938-1.535ZM55.453-12.68l.059,1.406a4.683,4.683,0,0,1,3.762-1.641,3.625,3.625,0,0,1,3.621,2.039,4.8,4.8,0,0,1,1.646-1.477,4.863,4.863,0,0,1,2.4-.562q4.172,0,4.242,4.418V0H69.012V-8.367a2.911,2.911,0,0,0-.621-2.033,2.735,2.735,0,0,0-2.086-.674,2.875,2.875,0,0,0-2,.721,2.924,2.924,0,0,0-.926,1.939V0H61.2V-8.309q0-2.766-2.707-2.766A2.9,2.9,0,0,0,55.57-9.258V0H53.4V-12.68Z" transform="translate(531.998 8791.448) rotate(-90)"/>
    <path id="Trazado_904042" data-name="Trazado 904042" d="M0,0H139.273V306.6H0Z" transform="translate(396.286 8601.728)" fill="none" stroke="#000" stroke-width="1"/>
  </g>
</svg>
