<svg xmlns="http://www.w3.org/2000/svg" xmlns:xlink="http://www.w3.org/1999/xlink" width="610" height="504" viewBox="0 0 610 504">
  <defs>
    <clipPath id="clip-path">
      <rect id="Rectángulo_407628" data-name="Rectángulo 407628" width="440" height="376.81" fill="none"/>
    </clipPath>
    <clipPath id="clip-path-2">
      <path id="Trazado_900956" data-name="Trazado 900956" d="M146.189,81.588c-19.61,79.833-32.674,111.385-30.332,177.073,1.954,54.827-1.55,58.833,5.863,68.972,1.423,6.359,33.157,5.177,33.268-.979,6.773-12.723,4.109-16.342,4.883-50.275.2-8.672,1.188-33.093,2.109-38.6.356-2.124,1.727-6.919.916-9.006-.637-1.642-.252-2.946.772-4.915.937-1.8,1.347-1.933,1.724-4.172.513-3.068-1.535-5.967.7-8.818.725-.926.966-4.74,1.165-6,.81-5.066,11.142-46.344,15.495-59.571-.588-17.1.206-36.563-3.378-53.249-4.978-20.834-5.815-33.252-4.539-53.764-11.085,5.681-22.954,20.145-28.644,43.3" transform="translate(-115.586 -38.285)" fill="none"/>
    </clipPath>
    <clipPath id="clip-path-4">
      <path id="Trazado_900964" data-name="Trazado 900964" d="M265.975,23.1c-20.988,0-30.392-4.6-35.633-8.749-21.174,14.243-41.879,16.321-60.965,26.415-2.382,24.108-.257,41.374,1.623,57.4,2.059,17.572,5.975,45.354,6.137,49.439,1.448,36.619,2.423,46.774,1.56,84.494-.616,26.878-4.507,48.816-6.182,104.393,7.435,27.038,17.009,38.065,93.459,38.065S352,363.531,359.432,336.493c-1.674-55.577-5.565-77.515-6.182-104.393-.959-41.928.353-49.8,2.061-97.81a233.8,233.8,0,0,1,4.49-37.507c4.555-21.922,4.321-27.8,2.77-56.022-19.088-10.093-39.79-12.171-60.964-26.415-5.241,4.15-14.645,8.749-35.632,8.749" transform="translate(-168.319 -14.347)" fill="none"/>
    </clipPath>
    <clipPath id="clip-path-6">
      <path id="Trazado_900980" data-name="Trazado 900980" d="M340.562,92.049c-3.585,16.685-2.79,36.151-3.378,53.249,4.354,13.227,14.685,54.505,15.495,59.571.2,1.255.44,5.069,1.166,6,2.23,2.85.183,5.75.7,8.818.375,2.239.787,2.37,1.724,4.172,1.025,1.969,1.409,3.273.772,4.915-.81,2.088.561,6.882.915,9.006.921,5.511,1.911,29.931,2.11,38.6.774,33.933-1.889,37.552,4.883,50.275.111,6.156,31.844,7.338,33.269.979,7.412-10.139,3.906-14.145,5.863-68.972,2.342-65.688-10.723-97.239-30.333-177.073-5.688-23.158-17.557-37.623-28.644-43.3,1.277,20.512.44,32.93-4.539,53.764" transform="translate(-337.184 -38.285)" fill="none"/>
    </clipPath>
  </defs>
  <g id="Grupo_1114945" data-name="Grupo 1114945" transform="translate(-810.051 -6037)">
    <path id="Trazado_904023" data-name="Trazado 904023" d="M25,0H585a25,25,0,0,1,25,25V479a25,25,0,0,1-25,25H25A25,25,0,0,1,0,479V25A25,25,0,0,1,25,0Z" transform="translate(810.051 6037)" fill="#ecf9ff"/>
    <path id="Trazado_904027" data-name="Trazado 904027" d="M5.4-3.164h7.16V0H1.289V-17.062H5.4ZM21.258,0a4.459,4.459,0,0,1-.375-1.137A3.672,3.672,0,0,1,17.836.234,4.5,4.5,0,0,1,14.789-.85a3.45,3.45,0,0,1-1.254-2.725,3.546,3.546,0,0,1,1.523-3.117,7.761,7.761,0,0,1,4.43-1.055h1.219v-.671q0-1.755-1.512-1.755a1.236,1.236,0,0,0-1.406,1.39H13.84A3.54,3.54,0,0,1,15.4-11.767a6.575,6.575,0,0,1,3.99-1.147,5.764,5.764,0,0,1,3.832,1.184,4.115,4.115,0,0,1,1.441,3.246v5.613A5.748,5.748,0,0,0,25.207-.2V0ZM18.785-2.578a2.2,2.2,0,0,0,1.225-.316,1.983,1.983,0,0,0,.7-.715V-5.637H19.559q-2.062,0-2.062,1.852a1.131,1.131,0,0,0,.363.873A1.315,1.315,0,0,0,18.785-2.578Zm19.406-.234a1.756,1.756,0,0,0,1.289-.451,1.654,1.654,0,0,0,.445-1.26h3.7A4.384,4.384,0,0,1,42.135-1.1,5.558,5.558,0,0,1,38.285.234,5.627,5.627,0,0,1,33.926-1.5a6.834,6.834,0,0,1-1.594-4.8v-.164a7.723,7.723,0,0,1,.709-3.393,5.162,5.162,0,0,1,2.045-2.262,6.1,6.1,0,0,1,3.164-.791,5.488,5.488,0,0,1,3.926,1.371,4.863,4.863,0,0,1,1.453,3.715h-3.7a2.168,2.168,0,0,0-.48-1.512,1.658,1.658,0,0,0-1.289-.527q-1.535,0-1.793,1.957A13.809,13.809,0,0,0,36.281-6.2a5.424,5.424,0,0,0,.457,2.648A1.582,1.582,0,0,0,38.191-2.812ZM52.441,0a4.459,4.459,0,0,1-.375-1.137A3.672,3.672,0,0,1,49.02.234,4.5,4.5,0,0,1,45.973-.85a3.45,3.45,0,0,1-1.254-2.725,3.546,3.546,0,0,1,1.523-3.117,7.761,7.761,0,0,1,4.43-1.055h1.219v-.671q0-1.755-1.512-1.755a1.236,1.236,0,0,0-1.406,1.39H45.023a3.54,3.54,0,0,1,1.564-2.985,6.575,6.575,0,0,1,3.99-1.147A5.764,5.764,0,0,1,54.41-11.73a4.115,4.115,0,0,1,1.441,3.246v5.613A5.748,5.748,0,0,0,56.391-.2V0ZM49.969-2.578a2.2,2.2,0,0,0,1.225-.316,1.983,1.983,0,0,0,.7-.715V-5.637H50.742q-2.062,0-2.062,1.852a1.131,1.131,0,0,0,.363.873A1.315,1.315,0,0,0,49.969-2.578Zm11.8-10.1.129,1.488a4.36,4.36,0,0,1,3.621-1.723A3.21,3.21,0,0,1,68.766-11a4.22,4.22,0,0,1,3.727-1.91q3.855,0,3.961,4.664V0H72.492V-8a2.417,2.417,0,0,0-.328-1.418,1.4,1.4,0,0,0-1.2-.445,1.871,1.871,0,0,0-1.746,1.043l.012.164V0H65.273V-7.98a2.541,2.541,0,0,0-.316-1.441,1.393,1.393,0,0,0-1.207-.445,1.894,1.894,0,0,0-1.734,1.043V0H58.066V-12.68ZM82.875,0H78.914V-12.68h3.961Zm-4.2-15.961a1.778,1.778,0,0,1,.609-1.391,2.29,2.29,0,0,1,1.582-.542,2.29,2.29,0,0,1,1.582.542,1.778,1.778,0,0,1,.609,1.391,1.778,1.778,0,0,1-.609,1.391,2.29,2.29,0,0,1-1.582.542,2.29,2.29,0,0,1-1.582-.542A1.778,1.778,0,0,1,78.68-15.961Zm13.266,12.4a.912.912,0,0,0-.527-.809,8.021,8.021,0,0,0-2-.633,9.138,9.138,0,0,1-2.437-.861A4.083,4.083,0,0,1,85.512-7.16a3.092,3.092,0,0,1-.5-1.746,3.5,3.5,0,0,1,1.441-2.877,5.938,5.938,0,0,1,3.773-1.131,6.579,6.579,0,0,1,4.031,1.137,3.555,3.555,0,0,1,1.523,2.988H91.816q0-1.523-1.605-1.523a1.591,1.591,0,0,0-1.043.346,1.07,1.07,0,0,0-.422.861.982.982,0,0,0,.516.855,4.872,4.872,0,0,0,1.646.539,14.228,14.228,0,0,1,1.986.5q2.859.984,2.859,3.527A3.321,3.321,0,0,1,94.213-.855a6.758,6.758,0,0,1-3.99,1.09,6.9,6.9,0,0,1-2.906-.586,4.86,4.86,0,0,1-1.992-1.594,3.609,3.609,0,0,1-.715-2.121H88.3a1.526,1.526,0,0,0,.586,1.283,2.41,2.41,0,0,0,1.441.4,1.9,1.9,0,0,0,1.213-.328A1.05,1.05,0,0,0,91.945-3.562ZM104.742,0a4.459,4.459,0,0,1-.375-1.137A3.672,3.672,0,0,1,101.32.234,4.5,4.5,0,0,1,98.273-.85,3.45,3.45,0,0,1,97.02-3.574a3.546,3.546,0,0,1,1.523-3.117,7.761,7.761,0,0,1,4.43-1.055h1.219v-.671q0-1.755-1.512-1.755a1.236,1.236,0,0,0-1.406,1.39H97.324a3.54,3.54,0,0,1,1.564-2.985,6.575,6.575,0,0,1,3.99-1.147,5.764,5.764,0,0,1,3.832,1.184,4.115,4.115,0,0,1,1.441,3.246v5.613A5.748,5.748,0,0,0,108.691-.2V0ZM102.27-2.578a2.2,2.2,0,0,0,1.225-.316,1.983,1.983,0,0,0,.7-.715V-5.637h-1.148q-2.062,0-2.062,1.852a1.131,1.131,0,0,0,.363.873A1.315,1.315,0,0,0,102.27-2.578ZM12.879,23.754a7.646,7.646,0,0,1-1.33,4.717,4.264,4.264,0,0,1-3.592,1.764,3.655,3.655,0,0,1-2.871-1.277v5.918H1.137V17.32H4.828l.117,1.172a3.656,3.656,0,0,1,2.988-1.406,4.3,4.3,0,0,1,3.645,1.729,7.741,7.741,0,0,1,1.3,4.752ZM8.93,23.508q0-3.375-1.969-3.375a1.859,1.859,0,0,0-1.875,1.008v4.992a1.919,1.919,0,0,0,1.9,1.055q1.887,0,1.945-3.258ZM21.762,30a4.459,4.459,0,0,1-.375-1.137,3.672,3.672,0,0,1-3.047,1.371,4.5,4.5,0,0,1-3.047-1.084,3.45,3.45,0,0,1-1.254-2.725,3.546,3.546,0,0,1,1.523-3.117,7.761,7.761,0,0,1,4.43-1.055h1.219v-.671q0-1.755-1.512-1.755a1.236,1.236,0,0,0-1.406,1.39H14.344a3.54,3.54,0,0,1,1.564-2.985,6.575,6.575,0,0,1,3.99-1.147A5.764,5.764,0,0,1,23.73,18.27a4.115,4.115,0,0,1,1.441,3.246v5.613a5.748,5.748,0,0,0,.539,2.672V30Zm-2.473-2.578a2.2,2.2,0,0,0,1.225-.316,1.983,1.983,0,0,0,.7-.715V24.363H20.063Q18,24.363,18,26.215a1.131,1.131,0,0,0,.363.873A1.315,1.315,0,0,0,19.289,27.422Zm15.738-6.527-1.3-.094a2.336,2.336,0,0,0-2.391,1.172V30H27.387V17.32h3.7l.129,1.629A3.058,3.058,0,0,1,34,17.086a3.851,3.851,0,0,1,1.1.141Zm6.609-6.727V17.32h2.086v2.742H41.637v5.8a1.481,1.481,0,0,0,.258,1,1.383,1.383,0,0,0,1.02.281,5.793,5.793,0,0,0,.984-.07v2.824a7.288,7.288,0,0,1-2.227.34,4.137,4.137,0,0,1-3.012-.961,3.939,3.939,0,0,1-.973-2.918V20.063H36.07V17.32h1.617V14.168ZM51.41,30.234a6.518,6.518,0,0,1-4.723-1.74,6.009,6.009,0,0,1-1.8-4.529v-.328A7.787,7.787,0,0,1,45.6,20.2a5.274,5.274,0,0,1,2.1-2.3,6.35,6.35,0,0,1,3.281-.814,5.489,5.489,0,0,1,4.219,1.658,6.516,6.516,0,0,1,1.547,4.623V24.9H48.9a2.846,2.846,0,0,0,.926,1.676,2.755,2.755,0,0,0,1.852.609,3.549,3.549,0,0,0,2.93-1.312l1.8,2.133a5.045,5.045,0,0,1-2.092,1.623A7.069,7.069,0,0,1,51.41,30.234Zm-.445-10.1q-1.734,0-2.062,2.3h3.984v-.3a1.956,1.956,0,0,0-.48-1.471A1.912,1.912,0,0,0,50.965,20.133ZM63.82,23.566a7.746,7.746,0,0,1,1.3-4.746,4.282,4.282,0,0,1,3.633-1.734,3.641,3.641,0,0,1,2.859,1.336V12h3.961V30H72.023l-.2-1.359a3.739,3.739,0,0,1-3.094,1.594A4.274,4.274,0,0,1,65.145,28.5,7.991,7.991,0,0,1,63.82,23.566Zm3.949.246q0,3.375,1.969,3.375a1.944,1.944,0,0,0,1.875-1.1V21.258a1.892,1.892,0,0,0-1.852-1.125q-1.828,0-1.98,2.953Zm16.184,6.422a6.518,6.518,0,0,1-4.723-1.74,6.009,6.009,0,0,1-1.8-4.529v-.328a7.787,7.787,0,0,1,.721-3.434,5.274,5.274,0,0,1,2.1-2.3,6.35,6.35,0,0,1,3.281-.814,5.489,5.489,0,0,1,4.219,1.658A6.516,6.516,0,0,1,89.3,23.367V24.9H81.445a2.846,2.846,0,0,0,.926,1.676,2.755,2.755,0,0,0,1.852.609,3.549,3.549,0,0,0,2.93-1.312l1.8,2.133a5.045,5.045,0,0,1-2.092,1.623A7.069,7.069,0,0,1,83.953,30.234Zm-.445-10.1q-1.734,0-2.062,2.3H85.43v-.3a1.956,1.956,0,0,0-.48-1.471A1.912,1.912,0,0,0,83.508,20.133ZM95.051,30H91.09V12h3.961Zm13.008-15.832V17.32h2.086v2.742h-2.086v5.8a1.481,1.481,0,0,0,.258,1,1.383,1.383,0,0,0,1.02.281,5.793,5.793,0,0,0,.984-.07v2.824a7.288,7.288,0,0,1-2.227.34,4.137,4.137,0,0,1-3.012-.961,3.939,3.939,0,0,1-.973-2.918V20.063h-1.617V17.32h1.617V14.168Zm11.309,6.727-1.3-.094a2.336,2.336,0,0,0-2.391,1.172V30h-3.949V17.32h3.7l.129,1.629a3.058,3.058,0,0,1,2.777-1.863,3.851,3.851,0,0,1,1.1.141ZM127.582,30a4.459,4.459,0,0,1-.375-1.137,3.672,3.672,0,0,1-3.047,1.371,4.5,4.5,0,0,1-3.047-1.084,3.45,3.45,0,0,1-1.254-2.725,3.546,3.546,0,0,1,1.523-3.117,7.761,7.761,0,0,1,4.43-1.055h1.219v-.671q0-1.755-1.512-1.755a1.236,1.236,0,0,0-1.406,1.39h-3.949a3.54,3.54,0,0,1,1.564-2.985,6.575,6.575,0,0,1,3.99-1.147,5.764,5.764,0,0,1,3.832,1.184,4.115,4.115,0,0,1,1.441,3.246v5.613a5.748,5.748,0,0,0,.539,2.672V30Zm-2.473-2.578a2.2,2.2,0,0,0,1.225-.316,1.983,1.983,0,0,0,.7-.715V24.363h-1.148q-2.062,0-2.062,1.852a1.131,1.131,0,0,0,.363.873A1.315,1.315,0,0,0,125.109,27.422Zm14.707-.984a.912.912,0,0,0-.527-.809,8.021,8.021,0,0,0-2-.633,9.138,9.138,0,0,1-2.437-.861,4.083,4.083,0,0,1-1.465-1.295,3.092,3.092,0,0,1-.5-1.746,3.5,3.5,0,0,1,1.441-2.877,5.938,5.938,0,0,1,3.773-1.131,6.579,6.579,0,0,1,4.031,1.137,3.555,3.555,0,0,1,1.523,2.988h-3.961q0-1.523-1.605-1.523a1.591,1.591,0,0,0-1.043.346,1.07,1.07,0,0,0-.422.861.982.982,0,0,0,.516.855,4.872,4.872,0,0,0,1.646.539,14.228,14.228,0,0,1,1.986.5q2.859.984,2.859,3.527a3.321,3.321,0,0,1-1.541,2.824,6.758,6.758,0,0,1-3.99,1.09,6.9,6.9,0,0,1-2.906-.586,4.86,4.86,0,0,1-1.992-1.594,3.609,3.609,0,0,1-.715-2.121h3.691a1.526,1.526,0,0,0,.586,1.283,2.41,2.41,0,0,0,1.441.4,1.9,1.9,0,0,0,1.213-.328A1.05,1.05,0,0,0,139.816,26.438Zm11.789,3.8a6.518,6.518,0,0,1-4.723-1.74,6.009,6.009,0,0,1-1.8-4.529v-.328A7.787,7.787,0,0,1,145.8,20.2a5.274,5.274,0,0,1,2.1-2.3,6.35,6.35,0,0,1,3.281-.814,5.489,5.489,0,0,1,4.219,1.658,6.516,6.516,0,0,1,1.547,4.623V24.9H149.1a2.846,2.846,0,0,0,.926,1.676,2.755,2.755,0,0,0,1.852.609,3.549,3.549,0,0,0,2.93-1.312l1.8,2.133a5.045,5.045,0,0,1-2.092,1.623A7.069,7.069,0,0,1,151.605,30.234Zm-.445-10.1q-1.734,0-2.062,2.3h3.984v-.3a1.956,1.956,0,0,0-.48-1.471A1.912,1.912,0,0,0,151.16,20.133Zm15.047.762-1.3-.094a2.336,2.336,0,0,0-2.391,1.172V30h-3.949V17.32h3.7l.129,1.629a3.058,3.058,0,0,1,2.777-1.863,3.851,3.851,0,0,1,1.1.141Zm.5,2.648a7.484,7.484,0,0,1,.738-3.381,5.28,5.28,0,0,1,2.121-2.279,6.388,6.388,0,0,1,3.246-.8A5.83,5.83,0,0,1,177.3,18.85a6.768,6.768,0,0,1,1.641,4.8v.141a6.566,6.566,0,0,1-1.646,4.705,5.846,5.846,0,0,1-4.459,1.74,5.912,5.912,0,0,1-4.348-1.623,6.348,6.348,0,0,1-1.77-4.4Zm3.949.246a4.718,4.718,0,0,0,.551,2.578,1.835,1.835,0,0,0,1.629.82q2.109,0,2.156-3.246v-.4q0-3.41-2.18-3.41-1.98,0-2.145,2.941Z" transform="translate(840.051 6086)" fill="#730000"/>
    <g id="Grupo_1114413" data-name="Grupo 1114413" transform="translate(895 6104.889)" clip-path="url(#clip-path)">
      <path id="Trazado_900954" data-name="Trazado 900954" d="M154.989,326.653c-.113,6.156-31.845,7.339-33.269.98-7.413-10.139-3.907-14.145-5.863-68.972-2.342-65.688,10.722-97.239,30.333-177.073,5.688-23.159,17.557-37.623,28.644-43.3-1.278,20.511-.44,32.93,4.539,53.763,3.584,16.687,2.79,36.151,3.378,53.249-4.354,13.228-14.686,54.506-15.495,59.573-.2,1.254-.441,5.069-1.166,6-2.231,2.85-.184,5.75-.7,8.818-.375,2.239-.787,2.37-1.723,4.171-1.025,1.969-1.409,3.274-.772,4.916.81,2.087-.561,6.882-.916,9.006-.921,5.511-1.911,29.931-2.109,38.6-.775,33.933,1.889,37.552-4.883,50.274" transform="translate(11.959 3.961)" fill="#fff" fill-rule="evenodd"/>
    </g>
    <g id="Grupo_1114415" data-name="Grupo 1114415" transform="translate(1022.545 6147.135)" clip-path="url(#clip-path-2)">
      <path id="Trazado_900955" data-name="Trazado 900955" d="M131.986,207.914c-4.089-.385-6.847,1.586-10.381-1.238a2.543,2.543,0,0,0-2.333-.632c.04,3.294,4.582,5.923,7.351,6.614a6.385,6.385,0,0,0,5.11-.587c.813-.548,2.2-2.8,1.388-3.713a1.7,1.7,0,0,0-1.135-.444" transform="translate(-115.205 -20.938)" fill="#e6e6e6"/>
    </g>
    <g id="Grupo_1114417" data-name="Grupo 1114417" transform="translate(895 6104.889)" clip-path="url(#clip-path)">
      <path id="Trazado_900957" data-name="Trazado 900957" d="M154.989,326.653c-.113,6.156-31.845,7.339-33.269.98-7.413-10.139-3.907-14.145-5.863-68.972-2.342-65.688,10.722-97.239,30.333-177.073,5.688-23.159,17.557-37.623,28.644-43.3-1.278,20.511-.44,32.93,4.539,53.763,3.584,16.687,2.79,36.151,3.378,53.249-4.354,13.228-14.686,54.506-15.495,59.573-.2,1.254-.441,5.069-1.166,6-2.231,2.85-.184,5.75-.7,8.818-.375,2.239-.787,2.37-1.723,4.171-1.025,1.969-1.409,3.274-.772,4.916.81,2.087-.561,6.882-.916,9.006-.921,5.511-1.911,29.931-2.109,38.6C159.1,310.312,161.761,313.931,154.989,326.653Z" transform="translate(11.959 3.961)" fill="none" stroke="#231f20" stroke-linecap="round" stroke-linejoin="round" stroke-width="1.391"/>
      <path id="Trazado_900958" data-name="Trazado 900958" d="M143.691,301.372v27.737c3.9.088,7.544-.263,7.575-2.339a255.275,255.275,0,0,1,.815-27.153c-1.419.811-4.564,1.39-8.391,1.756" transform="translate(14.867 30.999)" fill="#fff" fill-rule="evenodd"/>
      <path id="Trazado_900959" data-name="Trazado 900959" d="M143.691,301.372v27.737c3.9.088,7.544-.263,7.575-2.339a255.275,255.275,0,0,1,.815-27.153C150.663,300.427,147.518,301.006,143.691,301.372Z" transform="translate(14.867 30.999)" fill="none" stroke="#000" stroke-linecap="round" stroke-linejoin="round" stroke-width="1.391"/>
      <path id="Trazado_900960" data-name="Trazado 900960" d="M265.974,374.559c-76.449,0-86.024-11.028-93.458-38.065,1.675-55.577,5.565-77.515,6.182-104.394.862-37.721-.113-47.875-1.561-84.494-.161-4.084-4.077-31.868-6.137-49.439-1.879-16.03-4-33.3-1.622-57.4,19.087-10.093,39.791-12.171,60.965-26.415,5.24,4.15,14.645,8.749,35.632,8.749s30.392-4.6,35.633-8.749c21.173,14.243,41.876,16.321,60.963,26.415,1.551,28.219,1.787,34.1-2.77,56.023a234.032,234.032,0,0,0-4.49,37.506c-1.708,48.014-3.019,55.882-2.06,97.81.617,26.879,4.507,48.817,6.18,104.394-7.433,27.037-17.008,38.065-93.457,38.065" transform="translate(17.415 1.484)" fill="#fff" fill-rule="evenodd"/>
    </g>
    <g id="Grupo_1114419" data-name="Grupo 1114419" transform="translate(1080.734 6120.72)" clip-path="url(#clip-path-4)">
      <path id="Trazado_900961" data-name="Trazado 900961" d="M181.844,204.041c-.414-5.241-1.116-10.453-1.874-15.654-.657-4.067-1.13-8.114-1.869-12.181-.071-.385-.435-.886-.723-.621-.527,13.425-.438,26.8-1.153,40.212-.394,7.4-.512,14.808-.666,22.215-.082,3.882.159,7.965-.319,11.818-.262,2.105-1.568,4.853-.18,6.636,2.357-3.282,2.665-10.311,3.775-14.337.873-3.167,3.121-7.751,2.461-11-.637-3.14-1.82-5.009-1.269-8.27.444-2.627,1.393-5.243,1.642-7.892a62.3,62.3,0,0,0,.175-10.925" transform="translate(-167.687 2.327)" fill="#e6e6e6"/>
      <path id="Trazado_900962" data-name="Trazado 900962" d="M337.541,206.9c-.049-4.93.164-9.92-.122-14.81-.23-3.89-1.614-10.289-.469-14.011-1.451,5.353-3.079,11.038-3.6,16.575-.323,3.447,1.549,8.308.524,11.413a13.44,13.44,0,0,1-.856,1.643c-1.9,3.867,1.275,6.783,2.312,10.257,1.088,3.645,1.507,7.394,3,11.025-.458-7.457-.717-14.761-.789-22.092" transform="translate(-151.34 2.593)" fill="#e6e6e6"/>
      <path id="Trazado_900963" data-name="Trazado 900963" d="M332.517,219.932q.675,1.514,1.218,3.082c.509,1.471,3.635,13.473,7.319,10.77,1.58-1.16-1.416-5.939-2.2-7.1-3.364-4.947-5.628-9.888-10.409-13.8a38.7,38.7,0,0,1,4.075,7.043" transform="translate(-151.752 6.195)" fill="#e6e6e6"/>
    </g>
    <g id="Grupo_1114421" data-name="Grupo 1114421" transform="translate(895 6104.889)" clip-path="url(#clip-path)">
      <path id="Trazado_900965" data-name="Trazado 900965" d="M265.974,374.559c-76.449,0-86.024-11.028-93.458-38.065,1.675-55.577,5.565-77.515,6.182-104.394.862-37.721-.113-47.875-1.561-84.494-.161-4.084-4.077-31.868-6.137-49.439-1.879-16.03-4-33.3-1.622-57.4,19.087-10.093,39.791-12.171,60.965-26.415,5.24,4.15,14.645,8.749,35.632,8.749s30.392-4.6,35.633-8.749c21.173,14.243,41.876,16.321,60.963,26.415,1.551,28.219,1.787,34.1-2.77,56.023a234.032,234.032,0,0,0-4.49,37.506c-1.708,48.014-3.019,55.882-2.06,97.81.617,26.879,4.507,48.817,6.18,104.394C352,363.531,342.423,374.559,265.974,374.559Z" transform="translate(17.415 1.484)" fill="none" stroke="#231f20" stroke-linecap="round" stroke-linejoin="round" stroke-width="1.391"/>
      <path id="Trazado_900966" data-name="Trazado 900966" d="M252.26,103.773c.751-27.788-1.342-33.287-1.151-43.207a100.16,100.16,0,0,0-1.676,24.359" transform="translate(25.794 6.266)" fill="none" stroke="#231f20" stroke-linecap="round" stroke-linejoin="round" stroke-width="0.675"/>
      <path id="Trazado_900967" data-name="Trazado 900967" d="M265.077,103.773c-.751-27.788,1.342-33.287,1.151-43.207A100.159,100.159,0,0,1,267.9,84.925" transform="translate(27.409 6.266)" fill="none" stroke="#231f20" stroke-linecap="round" stroke-linejoin="round" stroke-width="0.675"/>
      <path id="Trazado_900968" data-name="Trazado 900968" d="M168.147,60.53H363.839" transform="translate(17.397 6.263)" fill="none" stroke="#231f20" stroke-linecap="round" stroke-linejoin="round" stroke-width="1.391"/>
      <path id="Trazado_900969" data-name="Trazado 900969" d="M136.518,308.349c2.718-.178,5.418-.671,7.914-.94V249.645l-3.956-3.169-3.958,3.169Z" transform="translate(14.124 25.501)" fill="#fff" fill-rule="evenodd"/>
      <path id="Trazado_900970" data-name="Trazado 900970" d="M136.518,308.349c2.718-.178,5.418-.671,7.914-.94V249.645l-3.956-3.169-3.958,3.169Z" transform="translate(14.124 25.501)" fill="none" stroke="#231f20" stroke-linecap="round" stroke-linejoin="round" stroke-width="1.391"/>
      <path id="Trazado_900971" data-name="Trazado 900971" d="M127.265,274.315c0,14.814-.939,20.351,2.108,30.042a40.989,40.989,0,0,1-5.552-20.179" transform="translate(12.81 28.381)" fill="none" stroke="#231f20" stroke-linecap="round" stroke-linejoin="round" stroke-width="0.675"/>
      <path id="Trazado_900972" data-name="Trazado 900972" d="M140.356,284.2a2.672,2.672,0,1,0-2.673-2.671,2.677,2.677,0,0,0,2.673,2.671" transform="translate(14.245 28.851)" fill="#fff" fill-rule="evenodd"/>
      <path id="Trazado_900973" data-name="Trazado 900973" d="M140.356,284.2a2.672,2.672,0,1,0-2.673-2.671A2.677,2.677,0,0,0,140.356,284.2Z" transform="translate(14.245 28.851)" fill="none" stroke="#231f20" stroke-linecap="round" stroke-linejoin="round" stroke-width="1.391"/>
      <path id="Trazado_900974" data-name="Trazado 900974" d="M146.024,301.28c-8.925.852-21.583.534-24.879-.776a246.414,246.414,0,0,1,2.172,27.313c2.133,3,10.23.8,14.754.8,1.775,0,4.941.33,7.953.4Z" transform="translate(12.534 31.091)" fill="#fff" fill-rule="evenodd"/>
      <path id="Trazado_900975" data-name="Trazado 900975" d="M146.024,301.28c-8.925.852-21.583.534-24.879-.776a246.414,246.414,0,0,1,2.172,27.313c2.133,3,10.23.8,14.754.8,1.775,0,4.941.33,7.953.4Z" transform="translate(12.534 31.091)" fill="none" stroke="#000" stroke-linecap="round" stroke-linejoin="round" stroke-width="1.391"/>
      <path id="Trazado_900976" data-name="Trazado 900976" d="M140.356,316.928a2.673,2.673,0,1,0-2.673-2.673,2.678,2.678,0,0,0,2.673,2.673" transform="translate(14.245 32.237)" fill="#fff" fill-rule="evenodd"/>
      <path id="Trazado_900977" data-name="Trazado 900977" d="M140.356,316.928a2.673,2.673,0,1,0-2.673-2.673A2.678,2.678,0,0,0,140.356,316.928Z" transform="translate(14.245 32.237)" fill="none" stroke="#231f20" stroke-linecap="round" stroke-linejoin="round" stroke-width="1.391"/>
      <path id="Trazado_900978" data-name="Trazado 900978" d="M364.944,326.653c.113,6.156,31.845,7.339,33.269.98,7.413-10.139,3.907-14.145,5.863-68.972,2.342-65.688-10.722-97.239-30.333-177.073-5.688-23.159-17.557-37.623-28.644-43.3,1.278,20.511.44,32.93-4.539,53.763-3.584,16.687-2.79,36.151-3.378,53.249,4.354,13.228,14.686,54.506,15.495,59.573.2,1.254.441,5.069,1.166,6,2.231,2.85.184,5.75.7,8.818.375,2.239.787,2.37,1.723,4.171,1.025,1.969,1.409,3.274.772,4.916-.81,2.087.561,6.882.916,9.006.921,5.511,1.911,29.931,2.109,38.6.775,33.933-1.889,37.552,4.883,50.274" transform="translate(34.886 3.961)" fill="#fff" fill-rule="evenodd"/>
    </g>
    <g id="Grupo_1114423" data-name="Grupo 1114423" transform="translate(1267.07 6147.135)" clip-path="url(#clip-path-6)">
      <path id="Trazado_900979" data-name="Trazado 900979" d="M393.22,200.258c-.425.349-.839.756-1.245,1.074-1.416,1.107-3.362,1.18-5.158,1.1a48.456,48.456,0,0,1-6.222-.665c.238.041,2.415,1.826,2.891,2.148,1.271.86,2.561,2.039,4.095,2.395,4.363,1.011,8.349-2.2,7.762-6.664-.743-.352-1.447.053-2.123.608" transform="translate(-332.693 -21.603)" fill="#e6e6e6"/>
    </g>
    <g id="Grupo_1114425" data-name="Grupo 1114425" transform="translate(895 6104.889)" clip-path="url(#clip-path)">
      <path id="Trazado_900981" data-name="Trazado 900981" d="M364.944,326.653c.113,6.156,31.845,7.339,33.269.98,7.413-10.139,3.907-14.145,5.863-68.972,2.342-65.688-10.722-97.239-30.333-177.073-5.688-23.159-17.557-37.623-28.644-43.3,1.278,20.511.44,32.93-4.539,53.763-3.584,16.687-2.79,36.151-3.378,53.249,4.354,13.228,14.686,54.506,15.495,59.573.2,1.254.441,5.069,1.166,6,2.231,2.85.184,5.75.7,8.818.375,2.239.787,2.37,1.723,4.171,1.025,1.969,1.409,3.274.772,4.916-.81,2.087.561,6.882.916,9.006.921,5.511,1.911,29.931,2.109,38.6C360.836,310.312,358.172,313.931,364.944,326.653Z" transform="translate(34.886 3.961)" fill="none" stroke="#231f20" stroke-linecap="round" stroke-linejoin="round" stroke-width="1.391"/>
      <path id="Trazado_900982" data-name="Trazado 900982" d="M370.732,301.372v27.737c-3.9.088-7.544-.263-7.575-2.339a255.279,255.279,0,0,0-.815-27.153c1.419.811,4.564,1.39,8.391,1.756" transform="translate(37.489 30.999)" fill="#fff" fill-rule="evenodd"/>
      <path id="Trazado_900983" data-name="Trazado 900983" d="M370.732,301.372v27.737c-3.9.088-7.544-.263-7.575-2.339a255.279,255.279,0,0,0-.815-27.153C363.76,300.427,366.9,301.006,370.732,301.372Z" transform="translate(37.489 30.999)" fill="none" stroke="#000" stroke-linecap="round" stroke-linejoin="round" stroke-width="1.391"/>
      <path id="Trazado_900984" data-name="Trazado 900984" d="M377.86,308.349c-2.718-.178-5.418-.671-7.914-.94V249.645l3.956-3.169,3.958,3.169Z" transform="translate(38.275 25.501)" fill="#fff" fill-rule="evenodd"/>
      <path id="Trazado_900985" data-name="Trazado 900985" d="M377.86,308.349c-2.718-.178-5.418-.671-7.914-.94V249.645l3.956-3.169,3.958,3.169Z" transform="translate(38.275 25.501)" fill="none" stroke="#231f20" stroke-linecap="round" stroke-linejoin="round" stroke-width="1.391"/>
      <path id="Trazado_900986" data-name="Trazado 900986" d="M386.892,274.315c0,14.814.939,20.351-2.108,30.042a40.989,40.989,0,0,0,5.552-20.179" transform="translate(39.811 28.381)" fill="none" stroke="#231f20" stroke-linecap="round" stroke-linejoin="round" stroke-width="0.675"/>
      <path id="Trazado_900987" data-name="Trazado 900987" d="M373.781,284.2a2.672,2.672,0,1,1,2.673-2.671,2.677,2.677,0,0,1-2.673,2.671" transform="translate(38.396 28.851)" fill="#fff" fill-rule="evenodd"/>
      <path id="Trazado_900988" data-name="Trazado 900988" d="M373.781,284.2a2.672,2.672,0,1,1,2.673-2.671A2.677,2.677,0,0,1,373.781,284.2Z" transform="translate(38.396 28.851)" fill="none" stroke="#231f20" stroke-linecap="round" stroke-linejoin="round" stroke-width="1.391"/>
      <path id="Trazado_900989" data-name="Trazado 900989" d="M369.945,301.28c8.925.852,21.583.534,24.879-.776a246.412,246.412,0,0,0-2.172,27.313c-2.133,3-10.23.8-14.754.8-1.775,0-4.941.33-7.953.4Z" transform="translate(38.275 31.091)" fill="#fff" fill-rule="evenodd"/>
      <path id="Trazado_900990" data-name="Trazado 900990" d="M369.945,301.28c8.925.852,21.583.534,24.879-.776a246.412,246.412,0,0,0-2.172,27.313c-2.133,3-10.23.8-14.754.8-1.775,0-4.941.33-7.953.4Z" transform="translate(38.275 31.091)" fill="none" stroke="#000" stroke-linecap="round" stroke-linejoin="round" stroke-width="1.391"/>
      <path id="Trazado_900991" data-name="Trazado 900991" d="M373.781,316.928a2.673,2.673,0,1,1,2.673-2.673,2.678,2.678,0,0,1-2.673,2.673" transform="translate(38.396 32.237)" fill="#fff" fill-rule="evenodd"/>
      <path id="Trazado_900992" data-name="Trazado 900992" d="M373.781,316.928a2.673,2.673,0,1,1,2.673-2.673A2.678,2.678,0,0,1,373.781,316.928Z" transform="translate(38.396 32.237)" fill="none" stroke="#231f20" stroke-linecap="round" stroke-linejoin="round" stroke-width="1.391"/>
      <path id="Trazado_900993" data-name="Trazado 900993" d="M260.813,25.364c-10.789,0-31.632-.393-42.608-5.644C223.934,13.738,228.936,2.266,232.9.7c8.181,1.917,18.866,1.917,27.911,1.917s19.729,0,27.911-1.917c3.966,1.57,8.968,13.042,14.7,19.024-10.976,5.251-31.821,5.644-42.609,5.644" transform="translate(22.576 0.072)" fill="#fff" fill-rule="evenodd"/>
      <path id="Trazado_900994" data-name="Trazado 900994" d="M260.813,25.364c-10.789,0-31.632-.393-42.608-5.644C223.934,13.738,228.936,2.266,232.9.7c8.181,1.917,18.866,1.917,27.911,1.917s19.729,0,27.911-1.917c3.966,1.57,8.968,13.042,14.7,19.024C292.446,24.971,271.6,25.364,260.813,25.364Z" transform="translate(22.576 0.072)" fill="none" stroke="#000" stroke-linecap="round" stroke-linejoin="round" stroke-width="1.391"/>
      <text id="Canesú_o_bata" data-name="Canesú o bata" transform="translate(0 59.04)" fill="#3c3c3b" font-size="13" font-family="Roboto-Regular, Roboto"><tspan x="0" y="0">Canesú o bata</tspan></text>
      <text id="Manga" transform="translate(0 88.29)" fill="#3c3c3b" font-size="13" font-family="Roboto-Regular, Roboto"><tspan x="0" y="0">Manga</tspan></text>
      <text id="Bucle" transform="translate(0 118.071)" fill="#3c3c3b" font-size="13" font-family="Roboto-Regular, Roboto"><tspan x="0" y="0">Bucle</tspan></text>
      <text id="Pliegue_de_espalda" data-name="Pliegue de espalda" transform="translate(0 146.5)" fill="#3c3c3b" font-size="13" font-family="Roboto-Regular, Roboto"><tspan x="0" y="0">Pliegue de espalda</tspan></text>
      <text id="Pinza" transform="translate(0 228.624)" fill="#3c3c3b" font-size="13" font-family="Roboto-Regular, Roboto"><tspan x="0" y="0">Pinza</tspan></text>
      <text id="Aletilla" transform="translate(0 274.043)" fill="#3c3c3b" font-size="13" font-family="Roboto-Regular, Roboto"><tspan x="0" y="0">Aletilla</tspan></text>
      <text id="Faldón_de_camisa" data-name="Faldón de camisa" transform="translate(0 333.709)" fill="#3c3c3b" font-size="13" font-family="Roboto-Regular, Roboto"><tspan x="0" y="0" letter-spacing="-0.016em">F</tspan><tspan y="0">aldón de camisa</tspan></text>
      <line id="Línea_687" data-name="Línea 687" y1="7.288" x2="182.418" transform="translate(88.35 48.056)" fill="#999"/>
      <line id="Línea_688" data-name="Línea 688" y1="7.132" x2="178.479" transform="translate(88.35 48.213)" fill="none" stroke="#7d9199" stroke-miterlimit="22.926" stroke-width="1"/>
      <path id="Trazado_900995" data-name="Trazado 900995" d="M242.179,48.235a4.149,4.149,0,1,0-4.311-3.98,4.149,4.149,0,0,0,4.311,3.98" transform="translate(24.61 4.132)" fill="#7d9199"/>
      <line id="Línea_689" data-name="Línea 689" y1="3.645" x2="126.137" transform="translate(47.124 80.126)" fill="#999"/>
      <line id="Línea_690" data-name="Línea 690" y1="3.531" x2="122.196" transform="translate(47.124 80.24)" fill="none" stroke="#7d9199" stroke-miterlimit="22.926" stroke-width="1"/>
      <path id="Trazado_900996" data-name="Trazado 900996" d="M153.765,77.259a4.149,4.149,0,1,0-4.267-4.028,4.15,4.15,0,0,0,4.267,4.028" transform="translate(15.467 7.135)" fill="#7d9199"/>
      <line id="Línea_691" data-name="Línea 691" x2="107.476" transform="translate(47.124 271.976)" fill="#999"/>
      <line id="Línea_692" data-name="Línea 692" x2="103.536" transform="translate(47.124 271.976)" fill="none" stroke="#7d9199" stroke-miterlimit="22.926" stroke-width="1"/>
      <path id="Trazado_900997" data-name="Trazado 900997" d="M136.734,251.013a4.149,4.149,0,1,0-4.149-4.149,4.15,4.15,0,0,0,4.149,4.149" transform="translate(13.718 25.112)" fill="#7d9199"/>
      <line id="Línea_693" data-name="Línea 693" x2="214.569" y2="29.156" transform="translate(36.644 224.447)" fill="#999"/>
      <line id="Línea_694" data-name="Línea 694" x2="210.664" y2="28.625" transform="translate(36.644 224.447)" fill="none" stroke="#7d9199" stroke-miterlimit="22.926" stroke-width="1"/>
      <path id="Trazado_900998" data-name="Trazado 900998" d="M223.765,233.819a4.149,4.149,0,1,0-3.552-4.67,4.15,4.15,0,0,0,3.552,4.67" transform="translate(22.78 23.337)" fill="#7d9199"/>
      <line id="Línea_695" data-name="Línea 695" y1="46.056" x2="244.074" transform="translate(36.644 66.832)" fill="#999"/>
      <line id="Línea_696" data-name="Línea 696" y1="45.325" x2="240.201" transform="translate(36.644 67.563)" fill="none" stroke="#7d9199" stroke-miterlimit="22.926" stroke-width="1"/>
      <path id="Trazado_900999" data-name="Trazado 900999" d="M251.861,65.728a4.149,4.149,0,1,0-4.846-3.307,4.149,4.149,0,0,0,4.846,3.307" transform="translate(25.549 5.949)" fill="#7d9199"/>
      <line id="Línea_697" data-name="Línea 697" y1="30.409" x2="161.155" transform="translate(119.562 108.554)" fill="#999"/>
      <line id="Línea_698" data-name="Línea 698" y1="29.679" x2="157.282" transform="translate(119.562 109.284)" fill="none" stroke="#7d9199" stroke-miterlimit="22.926" stroke-width="1"/>
      <path id="Trazado_901000" data-name="Trazado 901000" d="M251.861,103.538a4.149,4.149,0,1,0-4.846-3.307,4.149,4.149,0,0,0,4.846,3.307" transform="translate(25.549 9.861)" fill="#7d9199"/>
      <path id="Trazado_901001" data-name="Trazado 901001" d="M291.239,250.526c-.751-27.788,1.342-33.287,1.151-43.207" transform="translate(30.115 21.45)" fill="none" stroke="#231f20" stroke-linecap="round" stroke-linejoin="round" stroke-width="0.675"/>
      <path id="Trazado_901002" data-name="Trazado 901002" d="M224.522,250.526c.751-27.788-1.342-33.287-1.151-43.207" transform="translate(23.109 21.45)" fill="none" stroke="#231f20" stroke-linecap="round" stroke-linejoin="round" stroke-width="0.675"/>
      <line id="Línea_699" data-name="Línea 699" x2="108.173" transform="translate(107.622 332.738)" fill="#999"/>
      <line id="Línea_700" data-name="Línea 700" x2="104.232" transform="translate(107.622 332.738)" fill="none" stroke="#7d9199" stroke-miterlimit="22.926" stroke-width="1"/>
      <path id="Trazado_901003" data-name="Trazado 901003" d="M192.192,306.078a4.149,4.149,0,1,0-4.149-4.149,4.15,4.15,0,0,0,4.149,4.149" transform="translate(19.455 30.809)" fill="#7d9199"/>
    </g>
    <path id="Trazado_904024" data-name="Trazado 904024" d="M0,0H17.131V17.131H0Z" transform="translate(1161.74 6517.167) rotate(-45.002)" fill="#ffb845"/>
    <path id="Trazado_904025" data-name="Trazado 904025" d="M0,0H112.293V26.422H0Z" transform="translate(1117.707 6514.578)" fill="#2d5f32"/>
    <path id="Trazado_904026" data-name="Trazado 904026" d="M8.565-8.1H5.578V0h-2.4V-8.1H.246V-9.953H8.565Zm5.216,2.789-.759-.055a1.363,1.363,0,0,0-1.395.684V0h-2.3V-7.4h2.16l.075.95a1.784,1.784,0,0,1,1.62-1.087,2.247,2.247,0,0,1,.643.082ZM18.853,0a2.6,2.6,0,0,1-.219-.663,2.142,2.142,0,0,1-1.777.8A2.624,2.624,0,0,1,15.08-.5a2.013,2.013,0,0,1-.731-1.589A2.069,2.069,0,0,1,15.237-3.9a4.527,4.527,0,0,1,2.584-.615h.711V-4.91q0-1.023-.882-1.023a.721.721,0,0,0-.82.811h-2.3a2.065,2.065,0,0,1,.913-1.741,3.835,3.835,0,0,1,2.328-.669A3.363,3.363,0,0,1,20-6.843a2.4,2.4,0,0,1,.841,1.894v3.274a3.353,3.353,0,0,0,.314,1.559V0ZM17.411-1.5a1.285,1.285,0,0,0,.714-.185,1.157,1.157,0,0,0,.407-.417V-3.288h-.67q-1.2,0-1.2,1.08a.659.659,0,0,0,.212.509A.767.767,0,0,0,17.411-1.5Zm8.859-.574a.532.532,0,0,0-.308-.472,4.679,4.679,0,0,0-1.169-.369,5.33,5.33,0,0,1-1.422-.5,2.382,2.382,0,0,1-.854-.755A1.8,1.8,0,0,1,22.223-5.2a2.044,2.044,0,0,1,.841-1.678,3.464,3.464,0,0,1,2.2-.66,3.837,3.837,0,0,1,2.352.663,2.074,2.074,0,0,1,.889,1.743H26.194q0-.889-.937-.889a.928.928,0,0,0-.608.2.624.624,0,0,0-.246.5.573.573,0,0,0,.3.5,2.842,2.842,0,0,0,.96.314,8.3,8.3,0,0,1,1.159.294,2.105,2.105,0,0,1,1.668,2.058,1.937,1.937,0,0,1-.9,1.647,3.942,3.942,0,0,1-2.328.636,4.023,4.023,0,0,1-1.7-.342,2.835,2.835,0,0,1-1.162-.93,2.105,2.105,0,0,1-.417-1.237h2.153a.89.89,0,0,0,.342.749,1.406,1.406,0,0,0,.841.236,1.106,1.106,0,0,0,.708-.191A.612.612,0,0,0,26.27-2.078ZM33.427.137A3.8,3.8,0,0,1,30.672-.878a3.506,3.506,0,0,1-1.053-2.642v-.191a4.542,4.542,0,0,1,.42-2,3.076,3.076,0,0,1,1.227-1.343,3.7,3.7,0,0,1,1.914-.475,3.2,3.2,0,0,1,2.461.967,3.8,3.8,0,0,1,.9,2.7v.9h-4.58A1.66,1.66,0,0,0,32.5-2a1.607,1.607,0,0,0,1.08.355,2.07,2.07,0,0,0,1.709-.766l1.053,1.244a2.943,2.943,0,0,1-1.22.947A4.123,4.123,0,0,1,33.427.137Zm-.26-5.893q-1.012,0-1.2,1.34h2.324v-.178a1.141,1.141,0,0,0-.28-.858A1.115,1.115,0,0,0,33.167-5.756Zm9.057.444-.759-.055a1.363,1.363,0,0,0-1.395.684V0h-2.3V-7.4h2.16l.075.95a1.784,1.784,0,0,1,1.62-1.087,2.247,2.247,0,0,1,.643.082ZM42.8-3.767a4.366,4.366,0,0,1,.431-1.972,3.08,3.08,0,0,1,1.237-1.33,3.726,3.726,0,0,1,1.894-.465A3.4,3.4,0,0,1,48.978-6.5a3.948,3.948,0,0,1,.957,2.8v.082a3.83,3.83,0,0,1-.96,2.745,3.41,3.41,0,0,1-2.6,1.015A3.449,3.449,0,0,1,43.837-.81a3.7,3.7,0,0,1-1.032-2.567Zm2.3.144a2.752,2.752,0,0,0,.321,1.5,1.07,1.07,0,0,0,.95.479q1.23,0,1.258-1.894v-.232q0-1.989-1.271-1.989-1.155,0-1.251,1.716Z" transform="translate(1148.843 6533.026)" fill="#ffb751"/>
  </g>
</svg>
