<svg xmlns="http://www.w3.org/2000/svg" xmlns:xlink="http://www.w3.org/1999/xlink" width="505.562" height="210.474" viewBox="0 0 505.562 210.474">
  <defs>
    <clipPath id="clip-path">
      <rect id="Rectángulo_407864" data-name="Rectángulo 407864" width="505.562" height="210.474" fill="none"/>
    </clipPath>
  </defs>
  <g id="Grupo_1114946" data-name="Grupo 1114946" transform="translate(3298.647 3570)">
    <g id="Grupo_1114669" data-name="Grupo 1114669" transform="translate(-3298.647 -3570)" clip-path="url(#clip-path)">
      <path id="Trazado_903386" data-name="Trazado 903386" d="M1.553,30.414s21.016-7.506,20.115-7.506S31.875,33.417,54.993,33.117,88.617,22.908,88.617,22.908l24.918,10.214" transform="translate(0.565 8.327)" fill="none" stroke="#000" stroke-miterlimit="10" stroke-width="1"/>
      <path id="Trazado_903387" data-name="Trazado 903387" d="M16.306,29.406V8.992s-.3-6.3,5.4-3S43.92,18.953,43.92,18.953s5.71,3.369,5.71,8.352V39.613" transform="translate(5.926 1.829)" fill="none" stroke="#000" stroke-miterlimit="10" stroke-width="1"/>
      <path id="Trazado_903388" data-name="Trazado 903388" d="M74.07,28.856V8.442s.3-6.3-5.4-3S46.456,18.4,46.456,18.4s-5.71,3.369-5.71,8.352V39.063" transform="translate(14.812 1.629)" fill="none" stroke="#000" stroke-miterlimit="10" stroke-width="1"/>
    </g>
    <path id="Trazado_904041" data-name="Trazado 904041" d="M2.443-8.531,5.232-1.57,8.021-8.531H9.48V0H8.355V-3.322l.105-3.586L5.66,0H4.8L2-6.891l.111,3.568V0H.99V-8.531Zm13.936,6.3H12.8L12,0h-1.16L14.1-8.531h.984L18.348,0H17.194Zm-3.234-.92h2.9l-1.453-3.99ZM26.053,0H24.922L20.627-6.574V0H19.5V-8.531h1.131l4.307,6.6v-6.6h1.119Zm2,0V-8.531h2.408a3.877,3.877,0,0,1,1.969.492,3.329,3.329,0,0,1,1.321,1.4,4.558,4.558,0,0,1,.472,2.086v.545a4.574,4.574,0,0,1-.466,2.115A3.277,3.277,0,0,1,32.425-.5a4.124,4.124,0,0,1-2.013.5Zm1.125-7.611V-.92H30.36a2.575,2.575,0,0,0,2.024-.809,3.344,3.344,0,0,0,.724-2.3v-.5a3.4,3.4,0,0,0-.683-2.261,2.429,2.429,0,0,0-1.937-.818ZM40.4-2.232H36.826L36.023,0h-1.16l3.258-8.531h.984L42.369,0H41.215Zm-3.234-.92h2.9l-1.453-3.99Zm9.48-.3h-2V0H43.511V-8.531h2.824a3.343,3.343,0,0,1,2.218.656,2.361,2.361,0,0,1,.776,1.91A2.3,2.3,0,0,1,48.9-4.576a2.571,2.571,0,0,1-1.2.885l2,3.621V0H48.5Zm-2-.92h1.729A1.95,1.95,0,0,0,47.7-4.805a1.469,1.469,0,0,0,.5-1.162,1.547,1.547,0,0,0-.472-1.215,2,2,0,0,0-1.362-.429H44.642ZM52.113,0H50.988V-8.531h1.125Zm-.035-10.875H53.39L51.82-9.152l-.873,0ZM60.726,0H59.6L55.3-6.574V0H54.17V-8.531H55.3l4.307,6.6v-6.6h1.119Z" transform="translate(-3277.498 -3489.567)"/>
    <path id="Trazado_904042" data-name="Trazado 904042" d="M7.553-3.99A5.277,5.277,0,0,1,7.131-1.8a3.2,3.2,0,0,1-1.2,1.427,3.289,3.289,0,0,1-1.8.492,3.261,3.261,0,0,1-1.787-.5A3.272,3.272,0,0,1,1.134-1.79,5.064,5.064,0,0,1,.691-3.914v-.615A5.215,5.215,0,0,1,1.119-6.7a3.26,3.26,0,0,1,1.21-1.444,3.247,3.247,0,0,1,1.79-.5,3.307,3.307,0,0,1,1.808.5,3.19,3.19,0,0,1,1.2,1.436,5.3,5.3,0,0,1,.422,2.188ZM6.434-4.541A3.825,3.825,0,0,0,5.824-6.87a2.01,2.01,0,0,0-1.705-.812A1.988,1.988,0,0,0,2.44-6.87a3.747,3.747,0,0,0-.63,2.253v.627a3.831,3.831,0,0,0,.618,2.312,2,2,0,0,0,1.7.841,1.989,1.989,0,0,0,1.688-.794,3.809,3.809,0,0,0,.615-2.276Zm7.23-3.99L16.453-1.57l2.789-6.961H20.7V0H19.576V-3.322l.105-3.586L16.881,0H16.02L13.225-6.891l.111,3.568V0H12.211V-8.531ZM27.6-2.232H24.026L23.223,0h-1.16l3.258-8.531H26.3L29.569,0H28.414Zm-3.234-.92h2.9l-1.453-3.99Zm12.79-.838A5.277,5.277,0,0,1,36.733-1.8a3.2,3.2,0,0,1-1.2,1.427,3.289,3.289,0,0,1-1.8.492,3.261,3.261,0,0,1-1.787-.5,3.272,3.272,0,0,1-1.21-1.412,5.064,5.064,0,0,1-.442-2.124v-.615A5.215,5.215,0,0,1,30.722-6.7a3.26,3.26,0,0,1,1.21-1.444,3.247,3.247,0,0,1,1.79-.5,3.307,3.307,0,0,1,1.808.5,3.19,3.19,0,0,1,1.2,1.436,5.3,5.3,0,0,1,.422,2.188Zm-1.119-.551a3.825,3.825,0,0,0-.609-2.329,2.01,2.01,0,0,0-1.705-.812,1.988,1.988,0,0,0-1.679.812,3.747,3.747,0,0,0-.63,2.253v.627a3.831,3.831,0,0,0,.618,2.312,2,2,0,0,0,1.7.841,1.989,1.989,0,0,0,1.688-.794,3.809,3.809,0,0,0,.615-2.276Z" transform="translate(-3263.727 -3475.932)"/>
    <path id="Trazado_904043" data-name="Trazado 904043" d="M7.266-2.707a3.139,3.139,0,0,1-1,2.089A3.274,3.274,0,0,1,4.031.117,3.006,3.006,0,0,1,1.608-.967,4.361,4.361,0,0,1,.7-3.867v-.82a4.861,4.861,0,0,1,.425-2.092,3.173,3.173,0,0,1,1.2-1.386,3.353,3.353,0,0,1,1.8-.483,3.083,3.083,0,0,1,2.18.759,3.176,3.176,0,0,1,.955,2.1H6.135A2.451,2.451,0,0,0,5.5-7.27a1.924,1.924,0,0,0-1.368-.458,2.013,2.013,0,0,0-1.69.8,3.661,3.661,0,0,0-.612,2.269v.827a3.764,3.764,0,0,0,.58,2.211A1.874,1.874,0,0,0,4.031-.8,2.165,2.165,0,0,0,5.47-1.228a2.357,2.357,0,0,0,.665-1.479ZM9.932-.92h4.043V0H8.8V-8.531H9.932ZM20.188-2.232H16.614L15.811,0h-1.16l3.258-8.531h.984L22.157,0H21Zm-3.234-.92h2.9L18.4-7.143Zm2-7.652H20.27L18.7-9.082l-.873,0Zm6.861,7a5.29,5.29,0,0,1-2.106-1.022,1.954,1.954,0,0,1-.659-1.5,2.064,2.064,0,0,1,.806-1.667,3.2,3.2,0,0,1,2.095-.659,3.5,3.5,0,0,1,1.567.34,2.577,2.577,0,0,1,1.066.938,2.4,2.4,0,0,1,.378,1.307H27.835a1.56,1.56,0,0,0-.492-1.22,2,2,0,0,0-1.389-.444,2.049,2.049,0,0,0-1.3.367,1.224,1.224,0,0,0-.466,1.018,1.1,1.1,0,0,0,.442.883,4.339,4.339,0,0,0,1.506.66,6.987,6.987,0,0,1,1.664.66,2.525,2.525,0,0,1,.891.841,2.146,2.146,0,0,1,.29,1.131,1.993,1.993,0,0,1-.809,1.661,3.448,3.448,0,0,1-2.162.624A4.01,4.01,0,0,1,24.372-.22,2.761,2.761,0,0,1,23.2-1.143a2.252,2.252,0,0,1-.413-1.33h1.131a1.469,1.469,0,0,0,.571,1.222A2.4,2.4,0,0,0,26.012-.8a2.211,2.211,0,0,0,1.365-.363,1.18,1.18,0,0,0,.475-.99,1.158,1.158,0,0,0-.439-.97A5.067,5.067,0,0,0,25.819-3.8ZM31.631,0H30.506V-8.531h1.125Zm8.332-2.707a3.139,3.139,0,0,1-1,2.089,3.274,3.274,0,0,1-2.235.735A3.006,3.006,0,0,1,34.306-.967a4.361,4.361,0,0,1-.911-2.9v-.82a4.861,4.861,0,0,1,.425-2.092,3.173,3.173,0,0,1,1.2-1.386,3.353,3.353,0,0,1,1.8-.483,3.083,3.083,0,0,1,2.18.759,3.176,3.176,0,0,1,.955,2.1H38.833A2.451,2.451,0,0,0,38.2-7.27a1.924,1.924,0,0,0-1.368-.458,2.013,2.013,0,0,0-1.69.8,3.661,3.661,0,0,0-.612,2.269v.827a3.764,3.764,0,0,0,.58,2.211A1.874,1.874,0,0,0,36.729-.8a2.165,2.165,0,0,0,1.438-.425,2.357,2.357,0,0,0,.665-1.479Zm8.1-1.283A5.277,5.277,0,0,1,47.639-1.8a3.2,3.2,0,0,1-1.2,1.427,3.289,3.289,0,0,1-1.8.492,3.261,3.261,0,0,1-1.787-.5,3.272,3.272,0,0,1-1.21-1.412A5.064,5.064,0,0,1,41.2-3.914v-.615A5.215,5.215,0,0,1,41.628-6.7a3.26,3.26,0,0,1,1.21-1.444,3.247,3.247,0,0,1,1.79-.5,3.307,3.307,0,0,1,1.808.5,3.19,3.19,0,0,1,1.2,1.436,5.3,5.3,0,0,1,.422,2.188Zm-1.119-.551a3.825,3.825,0,0,0-.609-2.329,2.01,2.01,0,0,0-1.705-.812,1.988,1.988,0,0,0-1.679.812,3.747,3.747,0,0,0-.63,2.253v.627a3.831,3.831,0,0,0,.618,2.312,2,2,0,0,0,1.7.841,1.989,1.989,0,0,0,1.688-.794,3.809,3.809,0,0,0,.615-2.276Z" transform="translate(-3269.986 -3378.127)"/>
    <g id="Grupo_1114671" data-name="Grupo 1114671" transform="translate(-3298.647 -3570)" clip-path="url(#clip-path)">
      <text id="O_INGLÉS" data-name="O INGLÉS" transform="translate(26.8 205.508)" font-size="12" font-family="Roboto-Regular, Roboto"><tspan x="0" y="0">O INGLÉS</tspan></text>
    </g>
    <path id="Trazado_904044" data-name="Trazado 904044" d="M2.115-3.34V0H.99V-8.531H4.137a3.161,3.161,0,0,1,2.194.715,2.423,2.423,0,0,1,.794,1.893,2.391,2.391,0,0,1-.776,1.913,3.3,3.3,0,0,1-2.224.671Zm0-.92H4.137A2.021,2.021,0,0,0,5.52-4.685,1.556,1.556,0,0,0,6-5.915a1.608,1.608,0,0,0-.48-1.221A1.894,1.894,0,0,0,4.2-7.611H2.115Zm9.544,2.027H8.085L7.282,0H6.122L9.38-8.531h.984L13.628,0H12.473Zm-3.234-.92h2.9L9.872-7.143ZM18.35-8.531h1.131V-2.49a2.5,2.5,0,0,1-.735,1.916,2.745,2.745,0,0,1-1.96.691,2.821,2.821,0,0,1-1.98-.65A2.349,2.349,0,0,1,14.1-2.355h1.125a1.564,1.564,0,0,0,.4,1.143,1.555,1.555,0,0,0,1.163.41,1.509,1.509,0,0,0,1.128-.439,1.7,1.7,0,0,0,.437-1.23Zm7.509,6.3H22.285L21.482,0h-1.16L23.58-8.531h.984L27.828,0H26.674Zm-3.234-.92h2.9l-1.453-3.99Zm9.48-.3h-2V0H28.971V-8.531h2.824a3.343,3.343,0,0,1,2.218.656,2.361,2.361,0,0,1,.776,1.91,2.3,2.3,0,0,1-.431,1.389,2.571,2.571,0,0,1-1.2.885l2,3.621V0H33.957Zm-2-.92H31.83a1.95,1.95,0,0,0,1.333-.434,1.469,1.469,0,0,0,.5-1.162,1.547,1.547,0,0,0-.472-1.215,2,2,0,0,0-1.362-.429H30.1ZM37.572,0H36.447V-8.531h1.125ZM45.2-7.611H42.455V0H41.336V-7.611H38.6v-.92h6.6Zm5.058,5.379H46.681L45.878,0h-1.16l3.258-8.531h.984L52.224,0H51.069Zm-3.234-.92h2.9l-1.453-3.99ZM62.905-3.99A5.277,5.277,0,0,1,62.484-1.8a3.2,3.2,0,0,1-1.2,1.427,3.289,3.289,0,0,1-1.8.492,3.261,3.261,0,0,1-1.787-.5,3.272,3.272,0,0,1-1.21-1.412,5.064,5.064,0,0,1-.442-2.124v-.615A5.215,5.215,0,0,1,56.472-6.7a3.26,3.26,0,0,1,1.21-1.444,3.247,3.247,0,0,1,1.79-.5,3.307,3.307,0,0,1,1.808.5,3.19,3.19,0,0,1,1.2,1.436,5.3,5.3,0,0,1,.422,2.188Zm-1.119-.551a3.825,3.825,0,0,0-.609-2.329,2.01,2.01,0,0,0-1.705-.812,1.988,1.988,0,0,0-1.679.812,3.747,3.747,0,0,0-.63,2.253v.627a3.831,3.831,0,0,0,.618,2.312,2,2,0,0,0,1.7.841,1.989,1.989,0,0,0,1.688-.794,3.809,3.809,0,0,0,.615-2.276Z" transform="translate(-3149.985 -3378.86)"/>
    <g id="Grupo_1114673" data-name="Grupo 1114673" transform="translate(-3298.647 -3570)" clip-path="url(#clip-path)">
      <text id="SMOKING" transform="translate(155.044 204.775)" font-size="12" font-family="Roboto-Regular, Roboto"><tspan x="0" y="0">SMOKING</tspan></text>
    </g>
    <path id="Trazado_904045" data-name="Trazado 904045" d="M.99,0V-8.531H3.779a3.238,3.238,0,0,1,2.089.574,2.07,2.07,0,0,1,.7,1.7A1.733,1.733,0,0,1,6.229-5.2a2.2,2.2,0,0,1-.926.712A1.979,1.979,0,0,1,6.4-3.753a2.11,2.11,0,0,1,.4,1.292,2.282,2.282,0,0,1-.744,1.8A3.077,3.077,0,0,1,3.949,0ZM2.115-3.99V-.92H3.973a1.788,1.788,0,0,0,1.239-.407,1.43,1.43,0,0,0,.454-1.122q0-1.541-1.676-1.541Zm0-.9h1.7A1.781,1.781,0,0,0,5-5.262a1.24,1.24,0,0,0,.442-1,1.22,1.22,0,0,0-.41-1.025,2.014,2.014,0,0,0-1.248-.32H2.115Zm11.057,2.66H9.6L8.795,0H7.635l3.258-8.531h.984L15.141,0H13.986Zm-3.234-.92h2.9l-1.453-3.99ZM22.846,0H21.715L17.42-6.574V0H16.289V-8.531H17.42l4.307,6.6v-6.6h1.119Zm2,0V-8.531h2.408a3.877,3.877,0,0,1,1.969.492,3.329,3.329,0,0,1,1.321,1.4,4.558,4.558,0,0,1,.472,2.086v.545a4.574,4.574,0,0,1-.466,2.115A3.277,3.277,0,0,1,29.218-.5a4.124,4.124,0,0,1-2.013.5Zm1.125-7.611V-.92h1.184a2.575,2.575,0,0,0,2.024-.809,3.344,3.344,0,0,0,.724-2.3v-.5a3.4,3.4,0,0,0-.683-2.261,2.429,2.429,0,0,0-1.937-.818ZM37.181-2.232H33.607L32.8,0h-1.16L34.9-8.531h.984L39.15,0H38Zm-3.234-.92h2.9l-1.453-3.99Z" transform="translate(-3009.918 -3378.861)"/>
    <path id="Trazado_904046" data-name="Trazado 904046" d="M5.7-3.768H2.115V0H.99V-8.531H6.275v.92H2.115v2.924H5.7Zm5.057.316h-2V0H7.617V-8.531h2.824a3.343,3.343,0,0,1,2.218.656,2.361,2.361,0,0,1,.776,1.91A2.3,2.3,0,0,1,13-4.576a2.571,2.571,0,0,1-1.2.885l2,3.621V0H12.6Zm-2-.92h1.729a1.95,1.95,0,0,0,1.333-.434,1.469,1.469,0,0,0,.5-1.162,1.547,1.547,0,0,0-.472-1.215,2,2,0,0,0-1.362-.429H8.748ZM19.723-2.232H16.148L15.346,0h-1.16l3.258-8.531h.984L21.691,0H20.537Zm-3.234-.92h2.9l-1.453-3.99ZM29.4,0H28.266L23.971-6.574V0H22.84V-8.531h1.131l4.307,6.6v-6.6H29.4ZM37.67-2.707a3.139,3.139,0,0,1-1,2.089,3.274,3.274,0,0,1-2.235.735A3.006,3.006,0,0,1,32.013-.967a4.361,4.361,0,0,1-.911-2.9v-.82a4.861,4.861,0,0,1,.425-2.092,3.173,3.173,0,0,1,1.2-1.386,3.353,3.353,0,0,1,1.8-.483,3.083,3.083,0,0,1,2.18.759,3.176,3.176,0,0,1,.955,2.1H36.539A2.451,2.451,0,0,0,35.9-7.27a1.924,1.924,0,0,0-1.368-.458,2.013,2.013,0,0,0-1.69.8,3.661,3.661,0,0,0-.612,2.269v.827a3.764,3.764,0,0,0,.58,2.211A1.874,1.874,0,0,0,34.436-.8a2.165,2.165,0,0,0,1.438-.425,2.357,2.357,0,0,0,.665-1.479Zm6.357-1.236h-3.7V-.92h4.295V0h-5.42V-8.531h5.361v.92H40.33v2.748h3.7Zm-1.652-6.932h1.313l-1.57,1.723-.873,0ZM48.539-3.8a5.29,5.29,0,0,1-2.106-1.022,1.954,1.954,0,0,1-.659-1.5,2.064,2.064,0,0,1,.806-1.667,3.2,3.2,0,0,1,2.095-.659,3.5,3.5,0,0,1,1.567.34,2.577,2.577,0,0,1,1.066.938,2.4,2.4,0,0,1,.378,1.307H50.555a1.56,1.56,0,0,0-.492-1.22,2,2,0,0,0-1.389-.444,2.049,2.049,0,0,0-1.3.367,1.224,1.224,0,0,0-.466,1.018,1.1,1.1,0,0,0,.442.883,4.339,4.339,0,0,0,1.506.66,6.987,6.987,0,0,1,1.664.66,2.525,2.525,0,0,1,.891.841,2.146,2.146,0,0,1,.29,1.131,1.993,1.993,0,0,1-.809,1.661,3.448,3.448,0,0,1-2.162.624A4.01,4.01,0,0,1,47.092-.22a2.761,2.761,0,0,1-1.175-.923,2.252,2.252,0,0,1-.413-1.33h1.131a1.469,1.469,0,0,0,.571,1.222A2.4,2.4,0,0,0,48.732-.8,2.211,2.211,0,0,0,50.1-1.166a1.18,1.18,0,0,0,.475-.99,1.158,1.158,0,0,0-.439-.97A5.066,5.066,0,0,0,48.539-3.8Z" transform="translate(-3142.643 -3489.564)"/>
    <path id="Trazado_904047" data-name="Trazado 904047" d="M.99,0V-8.531H3.779a3.238,3.238,0,0,1,2.089.574,2.07,2.07,0,0,1,.7,1.7A1.733,1.733,0,0,1,6.229-5.2a2.2,2.2,0,0,1-.926.712A1.979,1.979,0,0,1,6.4-3.753a2.11,2.11,0,0,1,.4,1.292,2.282,2.282,0,0,1-.744,1.8A3.077,3.077,0,0,1,3.949,0ZM2.115-3.99V-.92H3.973a1.788,1.788,0,0,0,1.239-.407,1.43,1.43,0,0,0,.454-1.122q0-1.541-1.676-1.541Zm0-.9h1.7A1.781,1.781,0,0,0,5-5.262a1.24,1.24,0,0,0,.442-1,1.22,1.22,0,0,0-.41-1.025,2.014,2.014,0,0,0-1.248-.32H2.115Zm12.908.9A5.277,5.277,0,0,1,14.6-1.8a3.2,3.2,0,0,1-1.2,1.427,3.289,3.289,0,0,1-1.8.492,3.261,3.261,0,0,1-1.787-.5A3.272,3.272,0,0,1,8.6-1.79a5.064,5.064,0,0,1-.442-2.124v-.615A5.215,5.215,0,0,1,8.59-6.7,3.26,3.26,0,0,1,9.8-8.147a3.247,3.247,0,0,1,1.79-.5,3.307,3.307,0,0,1,1.808.5,3.19,3.19,0,0,1,1.2,1.436,5.3,5.3,0,0,1,.422,2.188ZM13.9-4.541a3.825,3.825,0,0,0-.609-2.329,2.01,2.01,0,0,0-1.705-.812,1.988,1.988,0,0,0-1.679.812,3.747,3.747,0,0,0-.63,2.253v.627A3.831,3.831,0,0,0,9.9-1.679a2,2,0,0,0,1.7.841,1.989,1.989,0,0,0,1.688-.794A3.809,3.809,0,0,0,13.9-3.908Zm8.387-3.07H19.549V0H18.43V-7.611H15.694v-.92h6.6ZM29.8-3.99A5.277,5.277,0,0,1,29.377-1.8a3.2,3.2,0,0,1-1.2,1.427,3.289,3.289,0,0,1-1.8.492,3.261,3.261,0,0,1-1.787-.5A3.272,3.272,0,0,1,23.38-1.79a5.064,5.064,0,0,1-.442-2.124v-.615A5.215,5.215,0,0,1,23.366-6.7a3.26,3.26,0,0,1,1.21-1.444,3.247,3.247,0,0,1,1.79-.5,3.307,3.307,0,0,1,1.808.5,3.19,3.19,0,0,1,1.2,1.436A5.3,5.3,0,0,1,29.8-4.529ZM28.68-4.541a3.825,3.825,0,0,0-.609-2.329,2.01,2.01,0,0,0-1.705-.812,1.988,1.988,0,0,0-1.679.812,3.747,3.747,0,0,0-.63,2.253v.627a3.831,3.831,0,0,0,.618,2.312,2,2,0,0,0,1.7.841,1.989,1.989,0,0,0,1.688-.794,3.809,3.809,0,0,0,.615-2.276ZM38.043,0H36.913L32.618-6.574V0H31.487V-8.531h1.131l4.307,6.6v-6.6h1.119Zm6.82-3.943h-3.7V-.92h4.295V0h-5.42V-8.531H45.4v.92H41.167v2.748h3.7Zm4.512.141a5.29,5.29,0,0,1-2.106-1.022,1.954,1.954,0,0,1-.659-1.5,2.064,2.064,0,0,1,.806-1.667,3.2,3.2,0,0,1,2.095-.659,3.5,3.5,0,0,1,1.567.34,2.577,2.577,0,0,1,1.066.938,2.4,2.4,0,0,1,.378,1.307H51.391a1.56,1.56,0,0,0-.492-1.22,2,2,0,0,0-1.389-.444,2.049,2.049,0,0,0-1.3.367,1.224,1.224,0,0,0-.466,1.018,1.1,1.1,0,0,0,.442.883,4.339,4.339,0,0,0,1.506.66,6.987,6.987,0,0,1,1.664.66,2.525,2.525,0,0,1,.891.841,2.146,2.146,0,0,1,.29,1.131,1.993,1.993,0,0,1-.809,1.661,3.448,3.448,0,0,1-2.162.624A4.01,4.01,0,0,1,47.928-.22a2.761,2.761,0,0,1-1.175-.923,2.252,2.252,0,0,1-.413-1.33h1.131a1.469,1.469,0,0,0,.571,1.222A2.4,2.4,0,0,0,49.569-.8a2.211,2.211,0,0,0,1.365-.363,1.18,1.18,0,0,0,.475-.99,1.158,1.158,0,0,0-.439-.97A5.066,5.066,0,0,0,49.375-3.8Z" transform="translate(-3017.868 -3490.3)"/>
    <path id="Trazado_904048" data-name="Trazado 904048" d="M5.7-2.232H2.127L1.324,0H.164L3.422-8.531h.984L7.67,0H6.516Zm-3.234-.92h2.9L3.914-7.143ZM8.818,0V-8.531h2.789a3.238,3.238,0,0,1,2.089.574,2.07,2.07,0,0,1,.7,1.7,1.733,1.733,0,0,1-.34,1.058,2.2,2.2,0,0,1-.926.712,1.979,1.979,0,0,1,1.093.735,2.11,2.11,0,0,1,.4,1.292,2.282,2.282,0,0,1-.744,1.8,3.077,3.077,0,0,1-2.1.656ZM9.943-3.99V-.92H11.8a1.788,1.788,0,0,0,1.239-.407,1.43,1.43,0,0,0,.454-1.122q0-1.541-1.676-1.541Zm0-.9h1.7a1.781,1.781,0,0,0,1.181-.37,1.24,1.24,0,0,0,.442-1,1.22,1.22,0,0,0-.41-1.025,2.014,2.014,0,0,0-1.248-.32H9.943ZM21-2.232H17.426L16.623,0h-1.16l3.258-8.531h.984L22.969,0H21.814Zm-3.234-.92h2.9l-1.453-3.99Zm9.926-5.379h1.131V-2.49a2.5,2.5,0,0,1-.735,1.916,2.745,2.745,0,0,1-1.96.691,2.821,2.821,0,0,1-1.98-.65,2.349,2.349,0,0,1-.709-1.822h1.125a1.564,1.564,0,0,0,.4,1.143,1.555,1.555,0,0,0,1.163.41,1.509,1.509,0,0,0,1.128-.439,1.7,1.7,0,0,0,.437-1.23ZM37.3-3.99A5.277,5.277,0,0,1,36.879-1.8a3.2,3.2,0,0,1-1.2,1.427,3.289,3.289,0,0,1-1.8.492,3.261,3.261,0,0,1-1.787-.5,3.272,3.272,0,0,1-1.21-1.412,5.064,5.064,0,0,1-.442-2.124v-.615A5.215,5.215,0,0,1,30.867-6.7a3.26,3.26,0,0,1,1.21-1.444,3.247,3.247,0,0,1,1.79-.5,3.307,3.307,0,0,1,1.808.5,3.19,3.19,0,0,1,1.2,1.436A5.3,5.3,0,0,1,37.3-4.529Zm-1.119-.551a3.825,3.825,0,0,0-.609-2.329,2.01,2.01,0,0,0-1.705-.812,1.988,1.988,0,0,0-1.679.812,3.747,3.747,0,0,0-.63,2.253v.627a3.831,3.831,0,0,0,.618,2.312,2,2,0,0,0,1.7.841,1.989,1.989,0,0,0,1.688-.794,3.809,3.809,0,0,0,.615-2.276Z" transform="translate(-3008.95 -3476.665)"/>
    <g id="Grupo_1114675" data-name="Grupo 1114675" transform="translate(-3298.647 -3570)" clip-path="url(#clip-path)">
      <line id="Línea_814" data-name="Línea 814" y1="8.106" x2="19.815" transform="translate(127.009 35.139)" fill="none" stroke="#000" stroke-miterlimit="10" stroke-width="1"/>
      <path id="Trazado_903389" data-name="Trazado 903389" d="M141.506,25.958S118.989,11.247,116.588,6.743c0,0-2.1-4.8-4.2,0s-3.6,21.016-3.6,26.721,8.706,18.313,10.207,19.513S129.8,31.361,141.506,25.958Z" transform="translate(39.544 1.675)" fill="none" stroke="#000" stroke-miterlimit="10" stroke-width="1"/>
      <path id="Trazado_903390" data-name="Trazado 903390" d="M136.195,25.958s22.517-14.711,24.918-19.215c0,0,2.1-4.8,4.2,0s3.6,21.016,3.6,26.721-8.706,18.313-10.207,19.513S147.9,31.361,136.195,25.958Z" transform="translate(49.509 1.675)" fill="none" stroke="#000" stroke-miterlimit="10" stroke-width="1"/>
      <path id="Trazado_903391" data-name="Trazado 903391" d="M183.1,33.877c-2.1-.9-21.916-8.106-21.916-8.106" transform="translate(58.593 9.368)" fill="none" stroke="#000" stroke-miterlimit="10" stroke-width="1"/>
      <line id="Línea_815" data-name="Línea 815" x2="30.954" transform="translate(167.899 40.693)" fill="none" stroke="#000" stroke-miterlimit="10" stroke-width="1"/>
      <path id="Trazado_903392" data-name="Trazado 903392" d="M137.436,26.336a2.327,2.327,0,1,1-2.326-2.326A2.327,2.327,0,0,1,137.436,26.336Z" transform="translate(48.268 8.728)" fill="none" stroke="#000" stroke-miterlimit="10" stroke-width="1"/>
      <path id="Trazado_903393" data-name="Trazado 903393" d="M233.9,23.108s-22.817-10.93-25.819-20.237c0,0-5.4,4.5-6.6,27.321,0,0,12.91,30.623,18.915,30.322Z" transform="translate(73.24 1.044)" fill="none" stroke="#000" stroke-miterlimit="10" stroke-width="1"/>
      <path id="Trazado_903394" data-name="Trazado 903394" d="M186.727,30.464S203.149,25.51,205,24.009" transform="translate(67.877 8.728)" fill="none" stroke="#000" stroke-miterlimit="10" stroke-width="1"/>
      <path id="Trazado_903395" data-name="Trazado 903395" d="M216.551,37.71a2.252,2.252,0,1,1-2.251-2.251A2.251,2.251,0,0,1,216.551,37.71Z" transform="translate(77.082 12.89)" fill="none" stroke="#000" stroke-miterlimit="10" stroke-width="1"/>
      <path id="Trazado_903396" data-name="Trazado 903396" d="M230.9,23.108s22.817-10.93,25.819-20.237c0,0,5.4,4.5,6.6,27.321,0,0-12.91,30.623-18.915,30.322Z" transform="translate(83.933 1.044)" fill="none" stroke="#000" stroke-miterlimit="10" stroke-width="1"/>
      <path id="Trazado_903397" data-name="Trazado 903397" d="M274.3,30.464s-16.422-4.954-18.268-6.455" transform="translate(93.07 8.728)" fill="none" stroke="#000" stroke-miterlimit="10" stroke-width="1"/>
      <path id="Trazado_903398" data-name="Trazado 903398" d="M240.8,37.71a2.252,2.252,0,1,0,2.251-2.251A2.251,2.251,0,0,0,240.8,37.71Z" transform="translate(87.535 12.89)" fill="none" stroke="#000" stroke-miterlimit="10" stroke-width="1"/>
      <path id="Trazado_903399" data-name="Trazado 903399" d="M231.194,24.614a2.252,2.252,0,1,1-2.251-2.251A2.251,2.251,0,0,1,231.194,24.614Z" transform="translate(82.405 8.129)" fill="none" stroke="#000" stroke-miterlimit="10" stroke-width="1"/>
      <line id="Línea_816" data-name="Línea 816" x2="18.642" transform="translate(301.711 39.192)" fill="none" stroke="#000" stroke-miterlimit="10" stroke-width="1"/>
      <line id="Línea_817" data-name="Línea 817" x2="8.677" transform="translate(306.572 25.734)" fill="none" stroke="#000" stroke-miterlimit="10" stroke-width="1"/>
      <path id="Trazado_903400" data-name="Trazado 903400" d="M50.01,108.728,33.347,142.954s-19.365-19.365-18.463-30.623,2.7-21.616,6.3-27.921C18.936,84.86,31.546,102.423,50.01,108.728Z" transform="translate(5.399 30.684)" fill="none" stroke="#000" stroke-miterlimit="10" stroke-width="1"/>
      <path id="Trazado_903401" data-name="Trazado 903401" d="M40.637,108.728,57.3,142.954s19.365-19.365,18.463-30.623-2.7-21.616-6.3-27.921C71.71,84.86,59.1,102.423,40.637,108.728Z" transform="translate(14.772 30.684)" fill="none" stroke="#000" stroke-miterlimit="10" stroke-width="1"/>
      <line id="Línea_818" data-name="Línea 818" y1="7.656" x2="20.04" transform="translate(0.243 143.015)" fill="none" stroke="#000" stroke-miterlimit="10" stroke-width="1"/>
      <line id="Línea_819" data-name="Línea 819" x1="22.742" y1="8.556" transform="translate(90.535 143.016)" fill="none" stroke="#000" stroke-miterlimit="10" stroke-width="1"/>
      <line id="Línea_820" data-name="Línea 820" x2="14.286" transform="translate(48.266 154.085)" fill="none" stroke="#000" stroke-miterlimit="10" stroke-width="1"/>
      <path id="Trazado_903402" data-name="Trazado 903402" d="M42.846,113.434a3.04,3.04,0,1,1,1.3-4.1A3.04,3.04,0,0,1,42.846,113.434Z" transform="translate(13.962 39.148)" fill="none" stroke="#000" stroke-miterlimit="10" stroke-width="1"/>
      <path id="Trazado_903403" data-name="Trazado 903403" d="M136.776,110.231a3.039,3.039,0,1,1,1.3-4.1A3.039,3.039,0,0,1,136.776,110.231Z" transform="translate(48.106 37.984)" fill="none" stroke="#000" stroke-miterlimit="10" stroke-width="1"/>
      <path id="Trazado_903404" data-name="Trazado 903404" d="M228.468,113.434a3.04,3.04,0,1,1,1.3-4.1A3.04,3.04,0,0,1,228.468,113.434Z" transform="translate(81.438 39.148)" fill="none" stroke="#000" stroke-miterlimit="10" stroke-width="1"/>
      <path id="Trazado_903405" data-name="Trazado 903405" d="M96.288,111.252c.9-.225,21.391-7.656,21.391-7.656s9.007,11.708,28.6,10.809l14.636-.9s17.97-2.026,19.568-11.257l23.665,9.006" transform="translate(35.002 37.168)" fill="none" stroke="#000" stroke-miterlimit="10" stroke-width="1"/>
      <path id="Trazado_903406" data-name="Trazado 903406" d="M112.021,109.6a155.848,155.848,0,0,1,.9-23.868c-.9.676,46.7,32.989,46.7,32.989V95.491" transform="translate(40.66 31.164)" fill="none" stroke="#000" stroke-linejoin="round" stroke-width="1"/>
      <path id="Trazado_903407" data-name="Trazado 903407" d="M122.332,96.464V118.28l46-31.723s3.109,5.179,2.681,21.391" transform="translate(44.469 31.464)" fill="none" stroke="#000" stroke-linejoin="round" stroke-width="1"/>
      <path id="Trazado_903408" data-name="Trazado 903408" d="M185.518,113.084l21.314-7.2s10.809,12.608,28.222,12.908,33.023-3.3,36.027-12.908c0,0,26.418,10.729,25.519,9.718" transform="translate(67.438 38.488)" fill="none" stroke="#000" stroke-miterlimit="10" stroke-width="1"/>
      <line id="Línea_821" data-name="Línea 821" y2="14.636" transform="translate(277.724 118.022)" fill="none" stroke="#000" stroke-linecap="round" stroke-miterlimit="10" stroke-width="1"/>
      <line id="Línea_822" data-name="Línea 822" y2="14.636" transform="translate(335.516 118.022)" fill="none" stroke="#000" stroke-linecap="round" stroke-miterlimit="10" stroke-width="1"/>
      <path id="Trazado_903409" data-name="Trazado 903409" d="M265.4,109.52l-.9-12.46c-7.8,8.707-21.316,10.509-21.316,10.509H226.369c-16.662-1.5-24.618-11.708-24.618-11.708l-.6,13.66" transform="translate(73.121 34.846)" fill="none" stroke="#000" stroke-linecap="round" stroke-linejoin="round" stroke-width="1"/>
      <line id="Línea_823" data-name="Línea 823" y1="14.745" transform="translate(300.214 142.415)" fill="none" stroke="#000" stroke-miterlimit="10" stroke-width="1"/>
    </g>
    <path id="Trazado_904049" data-name="Trazado 904049" d="M.99,0V-8.531H3.4a3.877,3.877,0,0,1,1.969.492,3.329,3.329,0,0,1,1.321,1.4A4.558,4.558,0,0,1,7.16-4.553v.545a4.574,4.574,0,0,1-.466,2.115A3.277,3.277,0,0,1,5.364-.5,4.124,4.124,0,0,1,3.352,0ZM2.115-7.611V-.92H3.3a2.575,2.575,0,0,0,2.024-.809,3.344,3.344,0,0,0,.724-2.3v-.5a3.4,3.4,0,0,0-.683-2.261,2.429,2.429,0,0,0-1.937-.818ZM13.682-3.943h-3.7V-.92h4.295V0H8.859V-8.531h5.361v.92H9.984v2.748h3.7ZM25.213-3.99A5.277,5.277,0,0,1,24.791-1.8,3.2,3.2,0,0,1,23.6-.375a3.289,3.289,0,0,1-1.8.492A3.261,3.261,0,0,1,20-.378a3.272,3.272,0,0,1-1.21-1.412,5.064,5.064,0,0,1-.442-2.124v-.615A5.215,5.215,0,0,1,18.779-6.7a3.26,3.26,0,0,1,1.21-1.444,3.247,3.247,0,0,1,1.79-.5,3.307,3.307,0,0,1,1.808.5,3.19,3.19,0,0,1,1.2,1.436,5.3,5.3,0,0,1,.422,2.188Zm-1.119-.551a3.825,3.825,0,0,0-.609-2.329,2.01,2.01,0,0,0-1.705-.812A1.988,1.988,0,0,0,20.1-6.87a3.747,3.747,0,0,0-.63,2.253v.627a3.831,3.831,0,0,0,.618,2.312,2,2,0,0,0,1.7.841,1.989,1.989,0,0,0,1.688-.794,3.809,3.809,0,0,0,.615-2.276Zm6.381-3.99h1.131V-2.49A2.5,2.5,0,0,1,30.87-.574a2.745,2.745,0,0,1-1.96.691,2.821,2.821,0,0,1-1.98-.65,2.349,2.349,0,0,1-.709-1.822h1.125a1.564,1.564,0,0,0,.4,1.143A1.555,1.555,0,0,0,28.91-.8a1.509,1.509,0,0,0,1.128-.439,1.7,1.7,0,0,0,.437-1.23Zm7.5,6.3H34.4L33.595,0h-1.16l3.258-8.531h.984L39.94,0H38.786Zm-3.234-.92h2.9l-1.453-3.99ZM42.22-.92h4.043V0H41.089V-8.531H42.22Z" transform="translate(-2880.671 -3389.904)"/>
    <g id="Grupo_1114677" data-name="Grupo 1114677" transform="translate(-3298.647 -3570)" clip-path="url(#clip-path)">
      <path id="Trazado_903410" data-name="Trazado 903410" d="M286.784,113.174s21.616-7.881,20.716-7.431" transform="translate(104.249 38.432)" fill="none" stroke="#000" stroke-linejoin="round" stroke-width="1"/>
      <path id="Trazado_903411" data-name="Trazado 903411" d="M333.268,104.3c-8.556-2.477-18.688-11.483-18.688-11.483s-6.981-7.2-6.53-10.357c0,0-3.323-2.253-6.053,30.622,0,0,12.582,19.815,22.49,21.842l8.781-30.623" transform="translate(109.78 29.964)" fill="none" stroke="#000" stroke-linecap="round" stroke-linejoin="round" stroke-width="1"/>
      <path id="Trazado_903412" data-name="Trazado 903412" d="M331.111,104.3C339.667,101.826,349.8,92.82,349.8,92.82s6.981-7.2,6.53-10.357c0,0,3.323-2.253,6.053,30.622,0,0-12.583,19.815-22.49,21.842L331.111,104.3" transform="translate(120.363 29.964)" fill="none" stroke="#000" stroke-linecap="round" stroke-linejoin="round" stroke-width="1"/>
      <rect id="Rectángulo_407868" data-name="Rectángulo 407868" width="38.152" height="3.827" transform="translate(427.411 150.03)" fill="none" stroke="#000" stroke-linejoin="round" stroke-width="1"/>
      <path id="Trazado_903413" data-name="Trazado 903413" d="M330.229,109.234a3.04,3.04,0,1,1,1.3-4.1A3.04,3.04,0,0,1,330.229,109.234Z" transform="translate(118.429 37.622)" fill="none" stroke="#000" stroke-miterlimit="10" stroke-width="1"/>
      <line id="Línea_824" data-name="Línea 824" x2="9.246" transform="translate(442.228 137.123)" fill="none" stroke="#000" stroke-miterlimit="10" stroke-width="1"/>
      <path id="Trazado_903414" data-name="Trazado 903414" d="M375.417,113.807c-.95-.338-21.373-8.894-21.373-8.894" transform="translate(128.699 38.137)" fill="none" stroke="#000" stroke-miterlimit="10" stroke-width="1"/>
    </g>
    <path id="Trazado_904050" data-name="Trazado 904050" d="M2.2,0H1.072V-8.531H2.2ZM9.811-7.611H7.068V0H5.949V-7.611H3.213v-.92h6.6Zm5.058,5.379H11.294L10.491,0H9.331l3.258-8.531h.984L16.837,0H15.683Zm-3.234-.92h2.9l-1.453-3.99ZM19.116-.92h4.043V0H17.985V-8.531h1.131ZM25.649,0H24.524V-8.531h1.125Zm6.969-2.232H29.044L28.242,0h-1.16l3.258-8.531h.984L34.587,0H33.433Zm-3.234-.92h2.9l-1.453-3.99ZM42.292,0H41.161L36.867-6.574V0H35.736V-8.531h1.131l4.307,6.6v-6.6h1.119Zm8.561-3.99A5.277,5.277,0,0,1,50.431-1.8a3.2,3.2,0,0,1-1.2,1.427,3.289,3.289,0,0,1-1.8.492,3.261,3.261,0,0,1-1.787-.5,3.272,3.272,0,0,1-1.21-1.412,5.064,5.064,0,0,1-.442-2.124v-.615A5.215,5.215,0,0,1,44.419-6.7a3.26,3.26,0,0,1,1.21-1.444,3.247,3.247,0,0,1,1.79-.5,3.307,3.307,0,0,1,1.808.5,3.19,3.19,0,0,1,1.2,1.436,5.3,5.3,0,0,1,.422,2.188Zm-1.119-.551a3.825,3.825,0,0,0-.609-2.329,2.01,2.01,0,0,0-1.705-.812,1.988,1.988,0,0,0-1.679.812,3.747,3.747,0,0,0-.63,2.253v.627a3.831,3.831,0,0,0,.618,2.312,2,2,0,0,0,1.7.841,1.989,1.989,0,0,0,1.688-.794,3.809,3.809,0,0,0,.615-2.276Z" transform="translate(-2881.91 -3498.948)"/>
    <g id="Grupo_1114679" data-name="Grupo 1114679" transform="translate(-3298.647 -3570)" clip-path="url(#clip-path)">
      <path id="Trazado_903415" data-name="Trazado 903415" d="M330.243,28.217a3.04,3.04,0,1,1,1.3-4.1A3.04,3.04,0,0,1,330.243,28.217Z" transform="translate(118.434 8.171)" fill="none" stroke="#000" stroke-miterlimit="10" stroke-width="1"/>
      <line id="Línea_825" data-name="Línea 825" y1="8.21" x2="22.066" transform="translate(390.27 30.628)" fill="none" stroke="#000" stroke-linecap="round" stroke-linejoin="round" stroke-width="1"/>
      <path id="Trazado_903416" data-name="Trazado 903416" d="M334.821,27.9c-1.414.3-22.13,10.2-25.732,12.907,0,0-4.954,3.264-5.855-2.533S301.207,6.354,309.314.5a10.474,10.474,0,0,0,2.927,9.457C316.518,14.46,334.821,27.9,334.821,27.9Z" transform="translate(110.002 0.181)" fill="none" stroke="#000" stroke-linecap="round" stroke-linejoin="round" stroke-width="1"/>
      <path id="Trazado_903417" data-name="Trazado 903417" d="M330.265,27.9c1.414.3,22.13,10.2,25.732,12.907,0,0,4.954,3.264,5.855-2.533S363.878,6.354,355.772.5a10.474,10.474,0,0,1-2.927,9.457C348.567,14.46,330.265,27.9,330.265,27.9Z" transform="translate(120.055 0.181)" fill="none" stroke="#000" stroke-linecap="round" stroke-linejoin="round" stroke-width="1"/>
      <line id="Línea_826" data-name="Línea 826" x1="22.348" y1="8.21" transform="translate(482.531 30.628)" fill="none" stroke="#000" stroke-linecap="round" stroke-linejoin="round" stroke-width="1"/>
      <path id="Trazado_903418" data-name="Trazado 903418" d="M315.249,25.752a18.459,18.459,0,0,0,7.258,3.339c7.719,1.409,21.089,1.666,28.244-3.339" transform="translate(114.597 9.361)" fill="none" stroke="#000" stroke-linecap="round" stroke-linejoin="round" stroke-width="1"/>
      <path id="Trazado_903419" data-name="Trazado 903419" d="M326.233,20.593s5.83.828,8.737,0" transform="translate(118.59 7.486)" fill="none" stroke="#000" stroke-miterlimit="10" stroke-width="1"/>
      <path id="Trazado_903420" data-name="Trazado 903420" d="M201.6,96.45s-.45-1.313,2.852-2.214" transform="translate(73.275 34.256)" fill="none" stroke="#000" stroke-linecap="round" stroke-miterlimit="10" stroke-width="1"/>
      <path id="Trazado_903421" data-name="Trazado 903421" d="M246.068,95.048s1.988.742,2.1,2.308" transform="translate(89.449 34.551)" fill="none" stroke="#000" stroke-linecap="round" stroke-linejoin="round" stroke-width="1"/>
    </g>
  </g>
</svg>
