<svg xmlns="http://www.w3.org/2000/svg" width="493.914" height="218.316" viewBox="0 0 493.914 218.316">
  <g id="Grupo_1114937" data-name="Grupo 1114937" transform="translate(3299 3180.57)">
    <path id="Trazado_903955" data-name="Trazado 903955" d="M17.038,27.565,32.385,14.741s27.542,2.1,29.013-7.359c0,0,2.733-5.046-13.245-6.1S20.192.444,20.192.444,2.322,1.075,1.061,4.859,12.2,11.588,12.2,11.588Z" transform="translate(-3298.777 -3180.472)" fill="none" stroke="#000" stroke-miterlimit="10" stroke-width="0.777"/>
    <path id="Trazado_903956" data-name="Trazado 903956" d="M27.883,30.192a4.1,4.1,0,1,1-4.1-4.1A4.1,4.1,0,0,1,27.883,30.192Z" transform="translate(-3294.484 -3174.584)" fill="none" stroke="#000" stroke-miterlimit="10" stroke-width="0.777"/>
    <path id="Trazado_903997" data-name="Trazado 903997" d="M0,0V31.326" transform="translate(-3281.739 -3152.907)" fill="none" stroke="#000" stroke-width="0.777"/>
    <path id="Trazado_903957" data-name="Trazado 903957" d="M.97,4.887V53.452s1.772,4.416,27.106,5.467,33.5-5.467,33.5-5.467V4.887" transform="translate(-3298.777 -3179.449)" fill="none" stroke="#000" stroke-miterlimit="10" stroke-width="0.777"/>
    <path id="Trazado_903958" data-name="Trazado 903958" d="M116,26.875a4.1,4.1,0,1,1-4.1-4.1A4.1,4.1,0,0,1,116,26.875Z" transform="translate(-3274.268 -3175.345)" fill="none" stroke="#000" stroke-miterlimit="10" stroke-width="0.777"/>
    <path id="Trazado_903959" data-name="Trazado 903959" d="M116,39.359a4.1,4.1,0,1,1-4.1-4.1A4.1,4.1,0,0,1,116,39.359Z" transform="translate(-3274.268 -3172.481)" fill="none" stroke="#000" stroke-miterlimit="10" stroke-width="0.777"/>
    <path id="Trazado_903960" data-name="Trazado 903960" d="M110.209,22.752l-9.671-10.091-5.886-.841C76.991,5.091,105.319.05,113.573.449c11.777.57,37.633-.4,36.161,6.956S120.3,15.184,120.3,15.184l-15.557,12.4.841,32.491s29.764,4.09,44.21-5.58l-.06-47.093" transform="translate(-3278.591 -3180.472)" fill="none" stroke="#000" stroke-miterlimit="10" stroke-width="0.777"/>
    <path id="Trazado_903961" data-name="Trazado 903961" d="M88.723,5.932V51.553s1.357,5.275,16.914,7.263" transform="translate(-3278.645 -3179.209)" fill="none" stroke="#000" stroke-miterlimit="10" stroke-width="0.777"/>
    <path id="Trazado_903962" data-name="Trazado 903962" d="M204.36,19.984a4.1,4.1,0,1,1-4.1-4.1A4.1,4.1,0,0,1,204.36,19.984Z" transform="translate(-3253.996 -3176.926)" fill="none" stroke="#000" stroke-miterlimit="10" stroke-width="0.777"/>
    <path id="Trazado_903963" data-name="Trazado 903963" d="M204.36,35.8a4.1,4.1,0,1,1-4.1-4.1A4.1,4.1,0,0,1,204.36,35.8Z" transform="translate(-3253.996 -3173.297)" fill="none" stroke="#000" stroke-miterlimit="10" stroke-width="0.777"/>
    <path id="Trazado_903964" data-name="Trazado 903964" d="M193.363,57.379V23.53s-1.261-8.619,8.83-9.46a110.133,110.133,0,0,1,18.291,0s16.188-1.588,15.978-7.207c0,0,2.943-5.829-15.767-6.249s-27.382,0-27.382,0-14.876.724-15.3,6.249,14.085,6.366,19.131,6.786" transform="translate(-3258.161 -3180.472)" fill="none" stroke="#000" stroke-miterlimit="10" stroke-width="0.777"/>
    <path id="Trazado_903998" data-name="Trazado 903998" d="M0,44.15V0" transform="translate(-3080.155 -3172.289)" fill="none" stroke="#000" stroke-width="0.777"/>
    <path id="Trazado_903965" data-name="Trazado 903965" d="M178.006,51.132A75.258,75.258,0,0,0,205.977,57.3c6.506.242,18.376,1.3,30.653-6.167V5.662" transform="translate(-3258.162 -3179.271)" fill="none" stroke="#000" stroke-miterlimit="10" stroke-width="0.777"/>
    <path id="Trazado_903966" data-name="Trazado 903966" d="M292.041,26.483a4.268,4.268,0,1,1-4.267-4.267A4.267,4.267,0,0,1,292.041,26.483Z" transform="translate(-3233.958 -3175.473)" fill="none" stroke="#000" stroke-miterlimit="10" stroke-width="0.809"/>
    <path id="Trazado_903967" data-name="Trazado 903967" d="M280.593,59.716V24.478s-1.313-8.972,9.192-9.849a114.659,114.659,0,0,1,19.041,0s16.853-1.654,16.634-7.5c0,0,3.064-6.067-16.415-6.5s-28.505,0-28.505,0-15.487.754-15.925,6.5,14.665,6.627,19.917,7.064" transform="translate(-3238.293 -3180.472)" fill="none" stroke="#000" stroke-miterlimit="10" stroke-width="0.809"/>
    <path id="Trazado_903999" data-name="Trazado 903999" d="M0,45.962V0" transform="translate(-2973.687 -3171.972)" fill="none" stroke="#000" stroke-width="0.809"/>
    <path id="Trazado_903968" data-name="Trazado 903968" d="M264.607,53.212a78.34,78.34,0,0,0,29.118,6.419c6.773.253,19.13,1.357,31.911-6.419V5.877" transform="translate(-3238.293 -3179.222)" fill="none" stroke="#000" stroke-miterlimit="10" stroke-width="0.809"/>
    <path id="Trazado_904000" data-name="Trazado 904000" d="M4.1,0A4.1,4.1,0,1,1,0,4.1,4.1,4.1,0,0,1,4.1,0Z" transform="translate(-2845.322 -3156.222)" fill="none" stroke="#000" stroke-width="0.777"/>
    <path id="Trazado_904001" data-name="Trazado 904001" d="M4.1,0A4.1,4.1,0,1,1,0,4.1,4.1,4.1,0,0,1,4.1,0Z" transform="translate(-2845.322 -3138.547)" fill="none" stroke="#000" stroke-width="0.777"/>
    <path id="Trazado_903969" data-name="Trazado 903969" d="M411.634,7.286c0,3.788-13.633,6.859-30.452,6.859s-30.45-3.071-30.45-6.859S364.365.427,381.182.427,411.634,3.5,411.634,7.286Z" transform="translate(-3218.534 -3180.472)" fill="none" stroke="#000" stroke-miterlimit="10" stroke-width="0.854"/>
    <path id="Trazado_903970" data-name="Trazado 903970" d="M350.732,6.006V51.6c0,2.632,6.581,4.918,16.238,6.067a121.772,121.772,0,0,0,14.212.792c16.818,0,30.45-3.071,30.45-6.859V6.006" transform="translate(-3218.534 -3179.192)" fill="none" stroke="#000" stroke-miterlimit="10" stroke-width="0.854"/>
    <path id="Trazado_904002" data-name="Trazado 904002" d="M0,0,.29,45.632" transform="translate(-2851.854 -3167.153)" fill="none" stroke="#000" stroke-width="0.854"/>
    <path id="Trazado_904003" data-name="Trazado 904003" d="M4.1,0A4.1,4.1,0,1,1,0,4.1,4.1,4.1,0,0,1,4.1,0Z" transform="translate(-3274.634 -3031.569)" fill="none" stroke="#000" stroke-width="0.777"/>
    <path id="Trazado_903971" data-name="Trazado 903971" d="M62.3,102.134c0,3.832-13.842,6.938-30.918,6.938S.471,105.966.471,102.134,14.313,95.2,31.387,95.2,62.3,98.3,62.3,102.134Z" transform="translate(-3298.892 -3158.73)" fill="none" stroke="#000" stroke-miterlimit="10" stroke-width="0.942"/>
    <path id="Trazado_903972" data-name="Trazado 903972" d="M.471,100.839v46.189c0,2.613,6.432,4.887,15.936,6.071a123.157,123.157,0,0,0,14.982.867c17.074,0,30.916-3.106,30.916-6.938V100.839" transform="translate(-3298.892 -3157.436)" fill="none" stroke="#000" stroke-miterlimit="10" stroke-width="0.942"/>
    <path id="Trazado_904004" data-name="Trazado 904004" d="M0,0V46.266" transform="translate(-3283.06 -3050.601)" fill="none" stroke="#000" stroke-width="0.942"/>
    <path id="Trazado_904005" data-name="Trazado 904005" d="M4.1,0A4.1,4.1,0,1,1,0,4.1,4.1,4.1,0,0,1,4.1,0Z" transform="translate(-3167.18 -3030.8)" fill="none" stroke="#000" stroke-width="0.777"/>
    <path id="Trazado_904006" data-name="Trazado 904006" d="M30.905,0C47.974,0,61.81,2.165,61.81,4.835S47.974,9.671,30.905,9.671,0,7.506,0,4.835,13.837,0,30.905,0Z" transform="translate(-3190.264 -3054.776)" fill="none" stroke="#000" stroke-width="0.777"/>
    <path id="Trazado_903973" data-name="Trazado 903973" d="M88.445,106.253v32.878c0,2.67,13.837,4.835,30.905,4.835s30.905-2.165,30.905-4.835V106.253" transform="translate(-3278.709 -3156.194)" fill="none" stroke="#000" stroke-miterlimit="10" stroke-width="0.777"/>
    <path id="Trazado_904007" data-name="Trazado 904007" d="M0,0V32.773" transform="translate(-3175.127 -3045.675)" fill="none" stroke="#000" stroke-width="0.85"/>
    <path id="Trazado_903974" data-name="Trazado 903974" d="M208.521,99.936h-27a5.571,5.571,0,0,0,0,11.142h25.531s14.506,1.261,19.763-7.358C226.812,103.72,223.657,99.936,208.521,99.936Z" transform="translate(-3258.634 -3157.643)" fill="none" stroke="#000" stroke-miterlimit="10" stroke-width="0.85"/>
    <path id="Trazado_903975" data-name="Trazado 903975" d="M175.947,104.8V143.38s-.644,4.835,31.1,4.2c0,0,9.46.841,19.764-6.727h6.727s6.1.841,6.1-4.626V114.367l-12.824-11.354" transform="translate(-3258.634 -3156.937)" fill="none" stroke="#000" stroke-miterlimit="10" stroke-width="0.85"/>
    <path id="Trazado_903976" data-name="Trazado 903976" d="M221.131,122.851h0a2.109,2.109,0,0,1-2.1-2.1v-4.835a2.1,2.1,0,1,1,4.2,0v4.835a2.108,2.108,0,0,1-2.1,2.1" transform="translate(-3248.75 -3154.459)" fill="#1d1d1b"/>
    <path id="Trazado_903977" data-name="Trazado 903977" d="M297.265,99.936h-27a5.571,5.571,0,0,0,0,11.142h25.531s14.506,1.261,19.763-7.358C315.556,103.72,312.4,99.936,297.265,99.936Z" transform="translate(-3238.274 -3157.643)" fill="none" stroke="#000" stroke-miterlimit="10" stroke-width="0.85"/>
    <path id="Trazado_903978" data-name="Trazado 903978" d="M264.691,104.814v38.579s-.644,4.835,31.1,4.2c0,0,9.46.841,19.763-6.727h3.862s6.1.841,6.1-4.626v-33.29l-9.958.073" transform="translate(-3238.274 -3156.95)" fill="none" stroke="#000" stroke-miterlimit="10" stroke-width="0.85"/>
    <path id="Trazado_903979" data-name="Trazado 903979" d="M309.876,122.851h0a2.109,2.109,0,0,1-2.1-2.1v-4.835a2.1,2.1,0,1,1,4.2,0v4.835a2.109,2.109,0,0,1-2.1,2.1" transform="translate(-3228.39 -3154.459)" fill="#1d1d1b"/>
    <path id="Trazado_903980" data-name="Trazado 903980" d="M383.338,99.936h-27a5.571,5.571,0,0,0,0,11.142h25.531s14.506,1.261,19.763-7.358C401.629,103.72,398.474,99.936,383.338,99.936Z" transform="translate(-3218.527 -3157.643)" fill="none" stroke="#000" stroke-miterlimit="10" stroke-width="0.85"/>
    <path id="Trazado_903981" data-name="Trazado 903981" d="M350.764,104.8V143.38s-.644,4.835,31.1,4.2c0,0,9.46.841,19.763-6.727h3.862s6.1.841,6.1-4.626V112.9a9.886,9.886,0,0,0-9.958-9.886" transform="translate(-3218.527 -3156.937)" fill="none" stroke="#000" stroke-miterlimit="10" stroke-width="0.85"/>
    <path id="Trazado_903982" data-name="Trazado 903982" d="M395.949,122.851h0a2.109,2.109,0,0,1-2.1-2.1v-4.835a2.1,2.1,0,0,1,4.2,0v4.835a2.109,2.109,0,0,1-2.1,2.1" transform="translate(-3208.643 -3154.459)" fill="#1d1d1b"/>
    <path id="Trazado_904008" data-name="Trazado 904008" d="M0,0H493.914V218.316H0Z" transform="translate(-3299 -3180.57)" fill="none"/>
    <path id="Trazado_903983" data-name="Trazado 903983" d="M4.751-1.86H1.772L1.1,0H.137L2.852-7.109h.82L6.392,0H5.43Zm-2.7-.767H4.473L3.262-5.952ZM3.726-9H4.819L3.511-7.568l-.728,0Zm9.087,9H11.87L8.291-5.479V0H7.349V-7.109h.942l3.589,5.5v-5.5h.933Zm6.914-.933a2.166,2.166,0,0,1-1.008.774A4.073,4.073,0,0,1,17.212.1,2.921,2.921,0,0,1,15.669-.31a2.716,2.716,0,0,1-1.042-1.16,4.005,4.005,0,0,1-.378-1.743v-.62A3.739,3.739,0,0,1,15-6.323,2.612,2.612,0,0,1,17.1-7.207a2.7,2.7,0,0,1,1.792.569,2.478,2.478,0,0,1,.83,1.614h-.937a1.55,1.55,0,0,0-1.68-1.416,1.66,1.66,0,0,0-1.428.662A3.233,3.233,0,0,0,15.19-3.86v.582a3.03,3.03,0,0,0,.547,1.9,1.773,1.773,0,0,0,1.479.706,3.268,3.268,0,0,0,.923-.117,1.427,1.427,0,0,0,.654-.395V-2.773H17.148V-3.54h2.578Zm6.567-6.177v4.834A2.268,2.268,0,0,1,25.662-.63a2.548,2.548,0,0,1-1.7.718L23.711.1a2.661,2.661,0,0,1-1.86-.63,2.253,2.253,0,0,1-.7-1.733V-7.109h.928v4.814A1.626,1.626,0,0,0,22.5-1.1a1.633,1.633,0,0,0,1.211.427,1.644,1.644,0,0,0,1.218-.425,1.623,1.623,0,0,0,.422-1.2V-7.109ZM28.716-.767h3.369V0H27.773V-7.109h.942ZM38-3.325A4.4,4.4,0,0,1,37.644-1.5a2.663,2.663,0,0,1-1,1.189,2.741,2.741,0,0,1-1.5.41,2.717,2.717,0,0,1-1.489-.413,2.727,2.727,0,0,1-1.008-1.177,4.22,4.22,0,0,1-.369-1.77v-.513a4.346,4.346,0,0,1,.356-1.812,2.717,2.717,0,0,1,1.008-1.2,2.706,2.706,0,0,1,1.492-.417,2.756,2.756,0,0,1,1.506.413,2.658,2.658,0,0,1,1,1.2A4.419,4.419,0,0,1,38-3.774Zm-.933-.459a3.188,3.188,0,0,0-.508-1.941A1.675,1.675,0,0,0,35.134-6.4a1.657,1.657,0,0,0-1.4.676,3.122,3.122,0,0,0-.525,1.877v.522A3.192,3.192,0,0,0,33.726-1.4a1.664,1.664,0,0,0,1.418.7A1.657,1.657,0,0,0,36.55-1.36a3.174,3.174,0,0,0,.513-1.9Z" transform="translate(-3291.417 -3101.338)"/>
    <path id="Trazado_903984" data-name="Trazado 903984" d="M3.56,0H2.651V-6.021L.83-5.352v-.82l2.588-.972H3.56ZM8.916,0V-7.109H11.24a2.7,2.7,0,0,1,1.741.479,1.725,1.725,0,0,1,.583,1.416,1.444,1.444,0,0,1-.283.881,1.836,1.836,0,0,1-.771.593,1.649,1.649,0,0,1,.911.613,1.759,1.759,0,0,1,.334,1.077,1.9,1.9,0,0,1-.62,1.5A2.564,2.564,0,0,1,11.382,0Zm.938-3.325V-.767H11.4a1.49,1.49,0,0,0,1.033-.339,1.192,1.192,0,0,0,.378-.935q0-1.284-1.4-1.284Zm0-.752H11.27a1.484,1.484,0,0,0,.984-.308,1.033,1.033,0,0,0,.369-.837,1.016,1.016,0,0,0-.342-.854,1.679,1.679,0,0,0-1.04-.267H9.854Zm10.757.752A4.4,4.4,0,0,1,20.259-1.5a2.663,2.663,0,0,1-1,1.189,2.741,2.741,0,0,1-1.5.41A2.717,2.717,0,0,1,16.27-.315a2.727,2.727,0,0,1-1.008-1.177,4.22,4.22,0,0,1-.369-1.77v-.513a4.346,4.346,0,0,1,.356-1.812,2.717,2.717,0,0,1,1.008-1.2,2.706,2.706,0,0,1,1.492-.417,2.756,2.756,0,0,1,1.506.413,2.658,2.658,0,0,1,1,1.2,4.419,4.419,0,0,1,.352,1.824Zm-.933-.459a3.188,3.188,0,0,0-.508-1.941A1.675,1.675,0,0,0,17.749-6.4a1.657,1.657,0,0,0-1.4.676,3.122,3.122,0,0,0-.525,1.877v.522A3.192,3.192,0,0,0,16.34-1.4a1.664,1.664,0,0,0,1.418.7,1.657,1.657,0,0,0,1.406-.662,3.174,3.174,0,0,0,.513-1.9Zm6.989-2.559H24.382V0h-.933V-6.343h-2.28v-.767h5.5Zm6.257,3.018A4.4,4.4,0,0,1,32.572-1.5a2.663,2.663,0,0,1-1,1.189,2.741,2.741,0,0,1-1.5.41,2.717,2.717,0,0,1-1.489-.413,2.727,2.727,0,0,1-1.008-1.177,4.22,4.22,0,0,1-.369-1.77v-.513a4.346,4.346,0,0,1,.356-1.812,2.717,2.717,0,0,1,1.008-1.2,2.706,2.706,0,0,1,1.492-.417,2.756,2.756,0,0,1,1.506.413,2.658,2.658,0,0,1,1,1.2,4.419,4.419,0,0,1,.352,1.824Zm-.933-.459a3.188,3.188,0,0,0-.508-1.941A1.675,1.675,0,0,0,30.062-6.4a1.657,1.657,0,0,0-1.4.676,3.122,3.122,0,0,0-.525,1.877v.522A3.192,3.192,0,0,0,28.654-1.4a1.664,1.664,0,0,0,1.418.7,1.657,1.657,0,0,0,1.406-.662,3.174,3.174,0,0,0,.513-1.9ZM39.794,0h-.942L35.272-5.479V0H34.33V-7.109h.942l3.589,5.5v-5.5h.933Z" transform="translate(-3292.622 -3089.044)"/>
    <path id="Trazado_903985" data-name="Trazado 903985" d="M4.751-1.86H1.772L1.1,0H.137L2.852-7.109h.82L6.392,0H5.43Zm-2.7-.767H4.473L3.262-5.952ZM3.726-9H4.819L3.511-7.568l-.728,0Zm9.087,9H11.87L8.291-5.479V0H7.349V-7.109h.942l3.589,5.5v-5.5h.933Zm6.914-.933a2.166,2.166,0,0,1-1.008.774A4.073,4.073,0,0,1,17.212.1,2.921,2.921,0,0,1,15.669-.31a2.716,2.716,0,0,1-1.042-1.16,4.005,4.005,0,0,1-.378-1.743v-.62A3.739,3.739,0,0,1,15-6.323,2.612,2.612,0,0,1,17.1-7.207a2.7,2.7,0,0,1,1.792.569,2.478,2.478,0,0,1,.83,1.614h-.937a1.55,1.55,0,0,0-1.68-1.416,1.66,1.66,0,0,0-1.428.662A3.233,3.233,0,0,0,15.19-3.86v.582a3.03,3.03,0,0,0,.547,1.9,1.773,1.773,0,0,0,1.479.706,3.268,3.268,0,0,0,.923-.117,1.427,1.427,0,0,0,.654-.395V-2.773H17.148V-3.54h2.578Zm6.567-6.177v4.834A2.268,2.268,0,0,1,25.662-.63a2.548,2.548,0,0,1-1.7.718L23.711.1a2.661,2.661,0,0,1-1.86-.63,2.253,2.253,0,0,1-.7-1.733V-7.109h.928v4.814A1.626,1.626,0,0,0,22.5-1.1a1.633,1.633,0,0,0,1.211.427,1.644,1.644,0,0,0,1.218-.425,1.623,1.623,0,0,0,.422-1.2V-7.109ZM28.716-.767h3.369V0H27.773V-7.109h.942ZM38-3.325A4.4,4.4,0,0,1,37.644-1.5a2.663,2.663,0,0,1-1,1.189,2.741,2.741,0,0,1-1.5.41,2.717,2.717,0,0,1-1.489-.413,2.727,2.727,0,0,1-1.008-1.177,4.22,4.22,0,0,1-.369-1.77v-.513a4.346,4.346,0,0,1,.356-1.812,2.717,2.717,0,0,1,1.008-1.2,2.706,2.706,0,0,1,1.492-.417,2.756,2.756,0,0,1,1.506.413,2.658,2.658,0,0,1,1,1.2A4.419,4.419,0,0,1,38-3.774Zm-.933-.459a3.188,3.188,0,0,0-.508-1.941A1.675,1.675,0,0,0,35.134-6.4a1.657,1.657,0,0,0-1.4.676,3.122,3.122,0,0,0-.525,1.877v.522A3.192,3.192,0,0,0,33.726-1.4a1.664,1.664,0,0,0,1.418.7A1.657,1.657,0,0,0,36.55-1.36a3.174,3.174,0,0,0,.513-1.9Z" transform="translate(-3183.277 -3101.338)"/>
    <path id="Trazado_903986" data-name="Trazado 903986" d="M5.249,0H.591V-.649L3.052-3.384a5.847,5.847,0,0,0,.754-1.008,1.683,1.683,0,0,0,.208-.8,1.276,1.276,0,0,0-.337-.913,1.178,1.178,0,0,0-.9-.356,1.4,1.4,0,0,0-1.047.383,1.464,1.464,0,0,0-.374,1.067h-.9A2.1,2.1,0,0,1,1.086-6.6a2.344,2.344,0,0,1,1.692-.605,2.252,2.252,0,0,1,1.567.52A1.774,1.774,0,0,1,4.922-5.3,4.067,4.067,0,0,1,3.584-2.8L1.68-.737H5.249ZM8.916,0V-7.109H11.24a2.7,2.7,0,0,1,1.741.479,1.725,1.725,0,0,1,.583,1.416,1.444,1.444,0,0,1-.283.881,1.836,1.836,0,0,1-.771.593,1.649,1.649,0,0,1,.911.613,1.759,1.759,0,0,1,.334,1.077,1.9,1.9,0,0,1-.62,1.5A2.564,2.564,0,0,1,11.382,0Zm.938-3.325V-.767H11.4a1.49,1.49,0,0,0,1.033-.339,1.192,1.192,0,0,0,.378-.935q0-1.284-1.4-1.284Zm0-.752H11.27a1.484,1.484,0,0,0,.984-.308,1.033,1.033,0,0,0,.369-.837,1.016,1.016,0,0,0-.342-.854,1.679,1.679,0,0,0-1.04-.267H9.854Zm10.757.752A4.4,4.4,0,0,1,20.259-1.5a2.663,2.663,0,0,1-1,1.189,2.741,2.741,0,0,1-1.5.41A2.717,2.717,0,0,1,16.27-.315a2.727,2.727,0,0,1-1.008-1.177,4.22,4.22,0,0,1-.369-1.77v-.513a4.346,4.346,0,0,1,.356-1.812,2.717,2.717,0,0,1,1.008-1.2,2.706,2.706,0,0,1,1.492-.417,2.756,2.756,0,0,1,1.506.413,2.658,2.658,0,0,1,1,1.2,4.419,4.419,0,0,1,.352,1.824Zm-.933-.459a3.188,3.188,0,0,0-.508-1.941A1.675,1.675,0,0,0,17.749-6.4a1.657,1.657,0,0,0-1.4.676,3.122,3.122,0,0,0-.525,1.877v.522A3.192,3.192,0,0,0,16.34-1.4a1.664,1.664,0,0,0,1.418.7,1.657,1.657,0,0,0,1.406-.662,3.174,3.174,0,0,0,.513-1.9Zm6.989-2.559H24.382V0h-.933V-6.343h-2.28v-.767h5.5Zm6.257,3.018A4.4,4.4,0,0,1,32.572-1.5a2.663,2.663,0,0,1-1,1.189,2.741,2.741,0,0,1-1.5.41,2.717,2.717,0,0,1-1.489-.413,2.727,2.727,0,0,1-1.008-1.177,4.22,4.22,0,0,1-.369-1.77v-.513a4.346,4.346,0,0,1,.356-1.812,2.717,2.717,0,0,1,1.008-1.2,2.706,2.706,0,0,1,1.492-.417,2.756,2.756,0,0,1,1.506.413,2.658,2.658,0,0,1,1,1.2,4.419,4.419,0,0,1,.352,1.824Zm-.933-.459a3.188,3.188,0,0,0-.508-1.941A1.675,1.675,0,0,0,30.062-6.4a1.657,1.657,0,0,0-1.4.676,3.122,3.122,0,0,0-.525,1.877v.522A3.192,3.192,0,0,0,28.654-1.4a1.664,1.664,0,0,0,1.418.7,1.657,1.657,0,0,0,1.406-.662,3.174,3.174,0,0,0,.513-1.9ZM39.794,0h-.942L35.272-5.479V0H34.33V-7.109h.942l3.589,5.5v-5.5h.933Zm5.684-3.286H42.4v2.52h3.579V0H41.459V-7.109h4.468v.767H42.4v2.29h3.081Zm3.76.117a4.408,4.408,0,0,1-1.755-.852,1.628,1.628,0,0,1-.549-1.248A1.72,1.72,0,0,1,47.6-6.658a2.668,2.668,0,0,1,1.746-.549,2.913,2.913,0,0,1,1.306.283,2.148,2.148,0,0,1,.889.781,2,2,0,0,1,.315,1.089h-.942a1.3,1.3,0,0,0-.41-1.017,1.668,1.668,0,0,0-1.157-.37,1.708,1.708,0,0,0-1.082.306,1.02,1.02,0,0,0-.388.849.918.918,0,0,0,.369.736A3.616,3.616,0,0,0,49.5-4a5.823,5.823,0,0,1,1.387.55,2.1,2.1,0,0,1,.742.7,1.788,1.788,0,0,1,.242.942A1.661,1.661,0,0,1,51.2-.422,2.873,2.873,0,0,1,49.4.1a3.342,3.342,0,0,1-1.367-.281,2.3,2.3,0,0,1-.979-.769,1.877,1.877,0,0,1-.344-1.108h.942a1.224,1.224,0,0,0,.476,1.018A2,2,0,0,0,49.4-.669a1.843,1.843,0,0,0,1.138-.3.983.983,0,0,0,.4-.825.965.965,0,0,0-.366-.808A4.222,4.222,0,0,0,49.237-3.169Z" transform="translate(-3191.625 -3089.044)"/>
    <path id="Trazado_903987" data-name="Trazado 903987" d="M3.433-2.876H1.763V0H.82V-7.109H3.174a2.786,2.786,0,0,1,1.848.547,1.968,1.968,0,0,1,.647,1.592A1.914,1.914,0,0,1,5.31-3.813a2.142,2.142,0,0,1-1,.737L5.981-.059V0H4.976Zm-1.67-.767H3.2A1.625,1.625,0,0,0,4.314-4a1.224,1.224,0,0,0,.413-.969,1.289,1.289,0,0,0-.393-1.013A1.664,1.664,0,0,0,3.2-6.343H1.763ZM11-3.286H7.92v2.52H11.5V0H6.982V-7.109H11.45v.767H7.92v2.29H11ZM12.666,0V-7.109h2.007a3.231,3.231,0,0,1,1.641.41,2.774,2.774,0,0,1,1.1,1.167,3.8,3.8,0,0,1,.393,1.738v.454a3.812,3.812,0,0,1-.388,1.763A2.731,2.731,0,0,1,16.311-.415,3.436,3.436,0,0,1,14.634,0ZM13.6-6.343V-.767h.986a2.146,2.146,0,0,0,1.687-.674,2.786,2.786,0,0,0,.6-1.921v-.415a2.831,2.831,0,0,0-.569-1.884A2.024,2.024,0,0,0,14.7-6.343ZM24.692-3.325A4.4,4.4,0,0,1,24.341-1.5a2.663,2.663,0,0,1-1,1.189,2.741,2.741,0,0,1-1.5.41,2.717,2.717,0,0,1-1.489-.413,2.727,2.727,0,0,1-1.008-1.177,4.22,4.22,0,0,1-.369-1.77v-.513a4.346,4.346,0,0,1,.356-1.812,2.717,2.717,0,0,1,1.008-1.2,2.706,2.706,0,0,1,1.492-.417,2.756,2.756,0,0,1,1.506.413,2.658,2.658,0,0,1,1,1.2,4.419,4.419,0,0,1,.352,1.824Zm-.933-.459a3.188,3.188,0,0,0-.508-1.941A1.675,1.675,0,0,0,21.831-6.4a1.657,1.657,0,0,0-1.4.676,3.122,3.122,0,0,0-.525,1.877v.522A3.192,3.192,0,0,0,20.422-1.4a1.664,1.664,0,0,0,1.418.7,1.657,1.657,0,0,0,1.406-.662,3.174,3.174,0,0,0,.513-1.9ZM31.563,0H30.62L27.041-5.479V0H26.1V-7.109h.942l3.589,5.5v-5.5h.933Zm1.665,0V-7.109h2.007a3.231,3.231,0,0,1,1.641.41,2.774,2.774,0,0,1,1.1,1.167,3.8,3.8,0,0,1,.393,1.738v.454a3.812,3.812,0,0,1-.388,1.763A2.731,2.731,0,0,1,36.873-.415,3.436,3.436,0,0,1,35.2,0Zm.938-6.343V-.767h.986a2.146,2.146,0,0,0,1.687-.674,2.786,2.786,0,0,0,.6-1.921v-.415a2.831,2.831,0,0,0-.569-1.884,2.024,2.024,0,0,0-1.614-.682ZM45.254-3.325A4.4,4.4,0,0,1,44.9-1.5a2.663,2.663,0,0,1-1,1.189A2.741,2.741,0,0,1,42.4.1a2.717,2.717,0,0,1-1.489-.413A2.727,2.727,0,0,1,39.9-1.492a4.22,4.22,0,0,1-.369-1.77v-.513a4.346,4.346,0,0,1,.356-1.812A2.717,2.717,0,0,1,40.9-6.79a2.706,2.706,0,0,1,1.492-.417,2.756,2.756,0,0,1,1.506.413,2.658,2.658,0,0,1,1,1.2,4.419,4.419,0,0,1,.352,1.824Zm-.933-.459a3.188,3.188,0,0,0-.508-1.941A1.675,1.675,0,0,0,42.393-6.4a1.657,1.657,0,0,0-1.4.676,3.122,3.122,0,0,0-.525,1.877v.522A3.192,3.192,0,0,0,40.984-1.4,1.664,1.664,0,0,0,42.4-.7a1.657,1.657,0,0,0,1.406-.662,3.174,3.174,0,0,0,.513-1.9Z" transform="translate(-3079.182 -3102.002)"/>
    <path id="Trazado_903988" data-name="Trazado 903988" d="M5.249,0H.591V-.649L3.052-3.384a5.847,5.847,0,0,0,.754-1.008,1.683,1.683,0,0,0,.208-.8,1.276,1.276,0,0,0-.337-.913,1.178,1.178,0,0,0-.9-.356,1.4,1.4,0,0,0-1.047.383,1.464,1.464,0,0,0-.374,1.067h-.9A2.1,2.1,0,0,1,1.086-6.6a2.344,2.344,0,0,1,1.692-.605,2.252,2.252,0,0,1,1.567.52A1.774,1.774,0,0,1,4.922-5.3,4.067,4.067,0,0,1,3.584-2.8L1.68-.737H5.249ZM8.916,0V-7.109H11.24a2.7,2.7,0,0,1,1.741.479,1.725,1.725,0,0,1,.583,1.416,1.444,1.444,0,0,1-.283.881,1.836,1.836,0,0,1-.771.593,1.649,1.649,0,0,1,.911.613,1.759,1.759,0,0,1,.334,1.077,1.9,1.9,0,0,1-.62,1.5A2.564,2.564,0,0,1,11.382,0Zm.938-3.325V-.767H11.4a1.49,1.49,0,0,0,1.033-.339,1.192,1.192,0,0,0,.378-.935q0-1.284-1.4-1.284Zm0-.752H11.27a1.484,1.484,0,0,0,.984-.308,1.033,1.033,0,0,0,.369-.837,1.016,1.016,0,0,0-.342-.854,1.679,1.679,0,0,0-1.04-.267H9.854Zm10.757.752A4.4,4.4,0,0,1,20.259-1.5a2.663,2.663,0,0,1-1,1.189,2.741,2.741,0,0,1-1.5.41A2.717,2.717,0,0,1,16.27-.315a2.727,2.727,0,0,1-1.008-1.177,4.22,4.22,0,0,1-.369-1.77v-.513a4.346,4.346,0,0,1,.356-1.812,2.717,2.717,0,0,1,1.008-1.2,2.706,2.706,0,0,1,1.492-.417,2.756,2.756,0,0,1,1.506.413,2.658,2.658,0,0,1,1,1.2,4.419,4.419,0,0,1,.352,1.824Zm-.933-.459a3.188,3.188,0,0,0-.508-1.941A1.675,1.675,0,0,0,17.749-6.4a1.657,1.657,0,0,0-1.4.676,3.122,3.122,0,0,0-.525,1.877v.522A3.192,3.192,0,0,0,16.34-1.4a1.664,1.664,0,0,0,1.418.7,1.657,1.657,0,0,0,1.406-.662,3.174,3.174,0,0,0,.513-1.9Zm6.989-2.559H24.382V0h-.933V-6.343h-2.28v-.767h5.5Zm6.257,3.018A4.4,4.4,0,0,1,32.572-1.5a2.663,2.663,0,0,1-1,1.189,2.741,2.741,0,0,1-1.5.41,2.717,2.717,0,0,1-1.489-.413,2.727,2.727,0,0,1-1.008-1.177,4.22,4.22,0,0,1-.369-1.77v-.513a4.346,4.346,0,0,1,.356-1.812,2.717,2.717,0,0,1,1.008-1.2,2.706,2.706,0,0,1,1.492-.417,2.756,2.756,0,0,1,1.506.413,2.658,2.658,0,0,1,1,1.2,4.419,4.419,0,0,1,.352,1.824Zm-.933-.459a3.188,3.188,0,0,0-.508-1.941A1.675,1.675,0,0,0,30.062-6.4a1.657,1.657,0,0,0-1.4.676,3.122,3.122,0,0,0-.525,1.877v.522A3.192,3.192,0,0,0,28.654-1.4a1.664,1.664,0,0,0,1.418.7,1.657,1.657,0,0,0,1.406-.662,3.174,3.174,0,0,0,.513-1.9ZM39.794,0h-.942L35.272-5.479V0H34.33V-7.109h.942l3.589,5.5v-5.5h.933Zm5.684-3.286H42.4v2.52h3.579V0H41.459V-7.109h4.468v.767H42.4v2.29h3.081Zm3.76.117a4.408,4.408,0,0,1-1.755-.852,1.628,1.628,0,0,1-.549-1.248A1.72,1.72,0,0,1,47.6-6.658a2.668,2.668,0,0,1,1.746-.549,2.913,2.913,0,0,1,1.306.283,2.148,2.148,0,0,1,.889.781,2,2,0,0,1,.315,1.089h-.942a1.3,1.3,0,0,0-.41-1.017,1.668,1.668,0,0,0-1.157-.37,1.708,1.708,0,0,0-1.082.306,1.02,1.02,0,0,0-.388.849.918.918,0,0,0,.369.736A3.616,3.616,0,0,0,49.5-4a5.823,5.823,0,0,1,1.387.55,2.1,2.1,0,0,1,.742.7,1.788,1.788,0,0,1,.242.942A1.661,1.661,0,0,1,51.2-.422,2.873,2.873,0,0,1,49.4.1a3.342,3.342,0,0,1-1.367-.281,2.3,2.3,0,0,1-.979-.769,1.877,1.877,0,0,1-.344-1.108h.942a1.224,1.224,0,0,0,.476,1.018A2,2,0,0,0,49.4-.669a1.843,1.843,0,0,0,1.138-.3.983.983,0,0,0,.4-.825.965.965,0,0,0-.366-.808A4.222,4.222,0,0,0,49.237-3.169Z" transform="translate(-3083.116 -3089.708)"/>
    <path id="Trazado_903989" data-name="Trazado 903989" d="M3.433-2.876H1.763V0H.82V-7.109H3.174a2.786,2.786,0,0,1,1.848.547,1.968,1.968,0,0,1,.647,1.592A1.914,1.914,0,0,1,5.31-3.813a2.142,2.142,0,0,1-1,.737L5.981-.059V0H4.976Zm-1.67-.767H3.2A1.625,1.625,0,0,0,4.314-4a1.224,1.224,0,0,0,.413-.969,1.289,1.289,0,0,0-.393-1.013A1.664,1.664,0,0,0,3.2-6.343H1.763ZM11-3.286H7.92v2.52H11.5V0H6.982V-7.109H11.45v.767H7.92v2.29H11ZM12.666,0V-7.109h2.007a3.231,3.231,0,0,1,1.641.41,2.774,2.774,0,0,1,1.1,1.167,3.8,3.8,0,0,1,.393,1.738v.454a3.812,3.812,0,0,1-.388,1.763A2.731,2.731,0,0,1,16.311-.415,3.436,3.436,0,0,1,14.634,0ZM13.6-6.343V-.767h.986a2.146,2.146,0,0,0,1.687-.674,2.786,2.786,0,0,0,.6-1.921v-.415a2.831,2.831,0,0,0-.569-1.884A2.024,2.024,0,0,0,14.7-6.343ZM24.692-3.325A4.4,4.4,0,0,1,24.341-1.5a2.663,2.663,0,0,1-1,1.189,2.741,2.741,0,0,1-1.5.41,2.717,2.717,0,0,1-1.489-.413,2.727,2.727,0,0,1-1.008-1.177,4.22,4.22,0,0,1-.369-1.77v-.513a4.346,4.346,0,0,1,.356-1.812,2.717,2.717,0,0,1,1.008-1.2,2.706,2.706,0,0,1,1.492-.417,2.756,2.756,0,0,1,1.506.413,2.658,2.658,0,0,1,1,1.2,4.419,4.419,0,0,1,.352,1.824Zm-.933-.459a3.188,3.188,0,0,0-.508-1.941A1.675,1.675,0,0,0,21.831-6.4a1.657,1.657,0,0,0-1.4.676,3.122,3.122,0,0,0-.525,1.877v.522A3.192,3.192,0,0,0,20.422-1.4a1.664,1.664,0,0,0,1.418.7,1.657,1.657,0,0,0,1.406-.662,3.174,3.174,0,0,0,.513-1.9ZM31.563,0H30.62L27.041-5.479V0H26.1V-7.109h.942l3.589,5.5v-5.5h.933Zm1.665,0V-7.109h2.007a3.231,3.231,0,0,1,1.641.41,2.774,2.774,0,0,1,1.1,1.167,3.8,3.8,0,0,1,.393,1.738v.454a3.812,3.812,0,0,1-.388,1.763A2.731,2.731,0,0,1,36.873-.415,3.436,3.436,0,0,1,35.2,0Zm.938-6.343V-.767h.986a2.146,2.146,0,0,0,1.687-.674,2.786,2.786,0,0,0,.6-1.921v-.415a2.831,2.831,0,0,0-.569-1.884,2.024,2.024,0,0,0-1.614-.682ZM45.254-3.325A4.4,4.4,0,0,1,44.9-1.5a2.663,2.663,0,0,1-1,1.189A2.741,2.741,0,0,1,42.4.1a2.717,2.717,0,0,1-1.489-.413A2.727,2.727,0,0,1,39.9-1.492a4.22,4.22,0,0,1-.369-1.77v-.513a4.346,4.346,0,0,1,.356-1.812A2.717,2.717,0,0,1,40.9-6.79a2.706,2.706,0,0,1,1.492-.417,2.756,2.756,0,0,1,1.506.413,2.658,2.658,0,0,1,1,1.2,4.419,4.419,0,0,1,.352,1.824Zm-.933-.459a3.188,3.188,0,0,0-.508-1.941A1.675,1.675,0,0,0,42.393-6.4a1.657,1.657,0,0,0-1.4.676,3.122,3.122,0,0,0-.525,1.877v.522A3.192,3.192,0,0,0,40.984-1.4,1.664,1.664,0,0,0,42.4-.7a1.657,1.657,0,0,0,1.406-.662,3.174,3.174,0,0,0,.513-1.9Z" transform="translate(-2971.521 -3102.002)"/>
    <path id="Trazado_903990" data-name="Trazado 903990" d="M3.56,0H2.651V-6.021L.83-5.352v-.82l2.588-.972H3.56ZM6.44,0V-7.109H8.765a2.7,2.7,0,0,1,1.741.479,1.725,1.725,0,0,1,.583,1.416,1.444,1.444,0,0,1-.283.881,1.836,1.836,0,0,1-.771.593,1.649,1.649,0,0,1,.911.613,1.759,1.759,0,0,1,.334,1.077,1.9,1.9,0,0,1-.62,1.5A2.564,2.564,0,0,1,8.906,0Zm.938-3.325V-.767H8.926a1.49,1.49,0,0,0,1.033-.339,1.192,1.192,0,0,0,.378-.935q0-1.284-1.4-1.284Zm0-.752H8.794a1.484,1.484,0,0,0,.984-.308,1.033,1.033,0,0,0,.369-.837A1.016,1.016,0,0,0,9.8-6.076a1.679,1.679,0,0,0-1.04-.267H7.378Zm10.757.752A4.4,4.4,0,0,1,17.783-1.5a2.663,2.663,0,0,1-1,1.189,2.741,2.741,0,0,1-1.5.41,2.717,2.717,0,0,1-1.489-.413,2.727,2.727,0,0,1-1.008-1.177,4.22,4.22,0,0,1-.369-1.77v-.513a4.346,4.346,0,0,1,.356-1.812,2.717,2.717,0,0,1,1.008-1.2,2.706,2.706,0,0,1,1.492-.417,2.756,2.756,0,0,1,1.506.413,2.658,2.658,0,0,1,1,1.2,4.419,4.419,0,0,1,.352,1.824ZM17.2-3.784a3.188,3.188,0,0,0-.508-1.941A1.675,1.675,0,0,0,15.273-6.4a1.657,1.657,0,0,0-1.4.676,3.122,3.122,0,0,0-.525,1.877v.522A3.192,3.192,0,0,0,13.865-1.4a1.664,1.664,0,0,0,1.418.7,1.657,1.657,0,0,0,1.406-.662,3.174,3.174,0,0,0,.513-1.9Zm6.989-2.559H21.906V0h-.933V-6.343h-2.28v-.767h5.5Zm6.257,3.018A4.4,4.4,0,0,1,30.1-1.5a2.663,2.663,0,0,1-1,1.189A2.741,2.741,0,0,1,27.6.1a2.717,2.717,0,0,1-1.489-.413A2.727,2.727,0,0,1,25.1-1.492a4.22,4.22,0,0,1-.369-1.77v-.513a4.346,4.346,0,0,1,.356-1.812,2.717,2.717,0,0,1,1.008-1.2,2.706,2.706,0,0,1,1.492-.417,2.756,2.756,0,0,1,1.506.413,2.658,2.658,0,0,1,1,1.2,4.419,4.419,0,0,1,.352,1.824Zm-.933-.459a3.188,3.188,0,0,0-.508-1.941A1.675,1.675,0,0,0,27.587-6.4a1.657,1.657,0,0,0-1.4.676,3.122,3.122,0,0,0-.525,1.877v.522A3.192,3.192,0,0,0,26.178-1.4,1.664,1.664,0,0,0,27.6-.7,1.657,1.657,0,0,0,29-1.36a3.174,3.174,0,0,0,.513-1.9Zm-1.47-5.229h1.094L27.831-7.578l-.728,0ZM37.318,0h-.942L32.8-5.479V0h-.942V-7.109H32.8l3.589,5.5v-5.5h.933Z" transform="translate(-2966.776 -3089.708)"/>
    <path id="Trazado_903991" data-name="Trazado 903991" d="M3.433-2.876H1.763V0H.82V-7.109H3.174a2.786,2.786,0,0,1,1.848.547,1.968,1.968,0,0,1,.647,1.592A1.914,1.914,0,0,1,5.31-3.813a2.142,2.142,0,0,1-1,.737L5.981-.059V0H4.976Zm-1.67-.767H3.2A1.625,1.625,0,0,0,4.314-4a1.224,1.224,0,0,0,.413-.969,1.289,1.289,0,0,0-.393-1.013A1.664,1.664,0,0,0,3.2-6.343H1.763ZM11-3.286H7.92v2.52H11.5V0H6.982V-7.109H11.45v.767H7.92v2.29H11ZM17.9-2.256a2.616,2.616,0,0,1-.833,1.741A2.728,2.728,0,0,1,15.2.1a2.505,2.505,0,0,1-2.019-.9,3.634,3.634,0,0,1-.759-2.417v-.684a4.051,4.051,0,0,1,.354-1.743,2.644,2.644,0,0,1,1-1.155,2.794,2.794,0,0,1,1.5-.4,2.569,2.569,0,0,1,1.816.632,2.647,2.647,0,0,1,.8,1.75h-.942a2.043,2.043,0,0,0-.53-1.234,1.6,1.6,0,0,0-1.14-.382,1.677,1.677,0,0,0-1.409.665,3.051,3.051,0,0,0-.51,1.891V-3.2a3.136,3.136,0,0,0,.483,1.842A1.562,1.562,0,0,0,15.2-.669a1.8,1.8,0,0,0,1.2-.354,1.964,1.964,0,0,0,.554-1.233Zm5.91-4.087H21.52V0h-.933V-6.343h-2.28v-.767h5.5Zm6.247,3.018A4.4,4.4,0,0,1,29.7-1.5a2.663,2.663,0,0,1-1,1.189A2.741,2.741,0,0,1,27.2.1a2.717,2.717,0,0,1-1.489-.413A2.727,2.727,0,0,1,24.7-1.492a4.22,4.22,0,0,1-.369-1.77v-.513a4.346,4.346,0,0,1,.356-1.812A2.717,2.717,0,0,1,25.7-6.79a2.706,2.706,0,0,1,1.492-.417,2.756,2.756,0,0,1,1.506.413,2.658,2.658,0,0,1,1,1.2,4.419,4.419,0,0,1,.352,1.824Zm-.933-.459a3.188,3.188,0,0,0-.508-1.941A1.675,1.675,0,0,0,27.191-6.4a1.657,1.657,0,0,0-1.4.676,3.122,3.122,0,0,0-.525,1.877v.522A3.192,3.192,0,0,0,25.782-1.4,1.664,1.664,0,0,0,27.2-.7a1.657,1.657,0,0,0,1.406-.662,3.174,3.174,0,0,0,.513-1.9Z" transform="translate(-2856.263 -3103.243)"/>
    <path id="Trazado_904009" data-name="Trazado 904009" d="M5.249,0H.591V-.649L3.052-3.384a5.847,5.847,0,0,0,.754-1.008,1.683,1.683,0,0,0,.208-.8,1.276,1.276,0,0,0-.337-.913,1.178,1.178,0,0,0-.9-.356,1.4,1.4,0,0,0-1.047.383,1.464,1.464,0,0,0-.374,1.067h-.9A2.1,2.1,0,0,1,1.086-6.6a2.344,2.344,0,0,1,1.692-.605,2.252,2.252,0,0,1,1.567.52A1.774,1.774,0,0,1,4.922-5.3,4.067,4.067,0,0,1,3.584-2.8L1.68-.737H5.249ZM8.916,0V-7.109H11.24a2.7,2.7,0,0,1,1.741.479,1.725,1.725,0,0,1,.583,1.416,1.444,1.444,0,0,1-.283.881,1.836,1.836,0,0,1-.771.593,1.649,1.649,0,0,1,.911.613,1.759,1.759,0,0,1,.334,1.077,1.9,1.9,0,0,1-.62,1.5A2.564,2.564,0,0,1,11.382,0Zm.938-3.325V-.767H11.4a1.49,1.49,0,0,0,1.033-.339,1.192,1.192,0,0,0,.378-.935q0-1.284-1.4-1.284Zm0-.752H11.27a1.484,1.484,0,0,0,.984-.308,1.033,1.033,0,0,0,.369-.837,1.016,1.016,0,0,0-.342-.854,1.679,1.679,0,0,0-1.04-.267H9.854Zm10.757.752A4.4,4.4,0,0,1,20.259-1.5a2.663,2.663,0,0,1-1,1.189,2.741,2.741,0,0,1-1.5.41A2.717,2.717,0,0,1,16.27-.315a2.727,2.727,0,0,1-1.008-1.177,4.22,4.22,0,0,1-.369-1.77v-.513a4.346,4.346,0,0,1,.356-1.812,2.717,2.717,0,0,1,1.008-1.2,2.706,2.706,0,0,1,1.492-.417,2.756,2.756,0,0,1,1.506.413,2.658,2.658,0,0,1,1,1.2,4.419,4.419,0,0,1,.352,1.824Zm-.933-.459a3.188,3.188,0,0,0-.508-1.941A1.675,1.675,0,0,0,17.749-6.4a1.657,1.657,0,0,0-1.4.676,3.122,3.122,0,0,0-.525,1.877v.522A3.192,3.192,0,0,0,16.34-1.4a1.664,1.664,0,0,0,1.418.7,1.657,1.657,0,0,0,1.406-.662,3.174,3.174,0,0,0,.513-1.9Zm6.989-2.559H24.382V0h-.933V-6.343h-2.28v-.767h5.5Zm6.257,3.018A4.4,4.4,0,0,1,32.572-1.5a2.663,2.663,0,0,1-1,1.189,2.741,2.741,0,0,1-1.5.41,2.717,2.717,0,0,1-1.489-.413,2.727,2.727,0,0,1-1.008-1.177,4.22,4.22,0,0,1-.369-1.77v-.513a4.346,4.346,0,0,1,.356-1.812,2.717,2.717,0,0,1,1.008-1.2,2.706,2.706,0,0,1,1.492-.417,2.756,2.756,0,0,1,1.506.413,2.658,2.658,0,0,1,1,1.2,4.419,4.419,0,0,1,.352,1.824Zm-.933-.459a3.188,3.188,0,0,0-.508-1.941A1.675,1.675,0,0,0,30.062-6.4a1.657,1.657,0,0,0-1.4.676,3.122,3.122,0,0,0-.525,1.877v.522A3.192,3.192,0,0,0,28.654-1.4a1.664,1.664,0,0,0,1.418.7,1.657,1.657,0,0,0,1.406-.662,3.174,3.174,0,0,0,.513-1.9ZM39.794,0h-.942L35.272-5.479V0H34.33V-7.109h.942l3.589,5.5v-5.5h.933Zm5.684-3.286H42.4v2.52h3.579V0H41.459V-7.109h4.468v.767H42.4v2.29h3.081Zm3.76.117a4.408,4.408,0,0,1-1.755-.852,1.628,1.628,0,0,1-.549-1.248A1.72,1.72,0,0,1,47.6-6.658a2.668,2.668,0,0,1,1.746-.549,2.913,2.913,0,0,1,1.306.283,2.148,2.148,0,0,1,.889.781,2,2,0,0,1,.315,1.089h-.942a1.3,1.3,0,0,0-.41-1.017,1.668,1.668,0,0,0-1.157-.37,1.708,1.708,0,0,0-1.082.306,1.02,1.02,0,0,0-.388.849.918.918,0,0,0,.369.736A3.616,3.616,0,0,0,49.5-4a5.823,5.823,0,0,1,1.387.55,2.1,2.1,0,0,1,.742.7,1.788,1.788,0,0,1,.242.942A1.661,1.661,0,0,1,51.2-.422,2.873,2.873,0,0,1,49.4.1a3.342,3.342,0,0,1-1.367-.281,2.3,2.3,0,0,1-.979-.769,1.877,1.877,0,0,1-.344-1.108h.942a1.224,1.224,0,0,0,.476,1.018A2,2,0,0,0,49.4-.669a1.843,1.843,0,0,0,1.138-.3.983.983,0,0,0,.4-.825.965.965,0,0,0-.366-.808A4.222,4.222,0,0,0,49.237-3.169Z" transform="translate(-2869.618 -3090.948)"/>
    <path id="Trazado_904010" data-name="Trazado 904010" d="M0,0H493.914V218.316H0Z" transform="translate(-3299 -3180.57)" fill="none"/>
    <path id="Trazado_903992" data-name="Trazado 903992" d="M3.433-2.876H1.763V0H.82V-7.109H3.174a2.786,2.786,0,0,1,1.848.547,1.968,1.968,0,0,1,.647,1.592A1.914,1.914,0,0,1,5.31-3.813a2.142,2.142,0,0,1-1,.737L5.981-.059V0H4.976Zm-1.67-.767H3.2A1.625,1.625,0,0,0,4.314-4a1.224,1.224,0,0,0,.413-.969,1.289,1.289,0,0,0-.393-1.013A1.664,1.664,0,0,0,3.2-6.343H1.763ZM11-3.286H7.92v2.52H11.5V0H6.982V-7.109H11.45v.767H7.92v2.29H11ZM17.9-2.256a2.616,2.616,0,0,1-.833,1.741A2.728,2.728,0,0,1,15.2.1a2.505,2.505,0,0,1-2.019-.9,3.634,3.634,0,0,1-.759-2.417v-.684a4.051,4.051,0,0,1,.354-1.743,2.644,2.644,0,0,1,1-1.155,2.794,2.794,0,0,1,1.5-.4,2.569,2.569,0,0,1,1.816.632,2.647,2.647,0,0,1,.8,1.75h-.942a2.043,2.043,0,0,0-.53-1.234,1.6,1.6,0,0,0-1.14-.382,1.677,1.677,0,0,0-1.409.665,3.051,3.051,0,0,0-.51,1.891V-3.2a3.136,3.136,0,0,0,.483,1.842A1.562,1.562,0,0,0,15.2-.669a1.8,1.8,0,0,0,1.2-.354,1.964,1.964,0,0,0,.554-1.233Zm5.91-4.087H21.52V0h-.933V-6.343h-2.28v-.767h5.5Zm6.247,3.018A4.4,4.4,0,0,1,29.7-1.5a2.663,2.663,0,0,1-1,1.189A2.741,2.741,0,0,1,27.2.1a2.717,2.717,0,0,1-1.489-.413A2.727,2.727,0,0,1,24.7-1.492a4.22,4.22,0,0,1-.369-1.77v-.513a4.346,4.346,0,0,1,.356-1.812A2.717,2.717,0,0,1,25.7-6.79a2.706,2.706,0,0,1,1.492-.417,2.756,2.756,0,0,1,1.506.413,2.658,2.658,0,0,1,1,1.2,4.419,4.419,0,0,1,.352,1.824Zm-.933-.459a3.188,3.188,0,0,0-.508-1.941A1.675,1.675,0,0,0,27.191-6.4a1.657,1.657,0,0,0-1.4.676,3.122,3.122,0,0,0-.525,1.877v.522A3.192,3.192,0,0,0,25.782-1.4,1.664,1.664,0,0,0,27.2-.7a1.657,1.657,0,0,0,1.406-.662,3.174,3.174,0,0,0,.513-1.9Z" transform="translate(-3286.395 -2979.945)"/>
    <path id="Trazado_904011" data-name="Trazado 904011" d="M3.56,0H2.651V-6.021L.83-5.352v-.82l2.588-.972H3.56ZM8.916,0V-7.109H11.24a2.7,2.7,0,0,1,1.741.479,1.725,1.725,0,0,1,.583,1.416,1.444,1.444,0,0,1-.283.881,1.836,1.836,0,0,1-.771.593,1.649,1.649,0,0,1,.911.613,1.759,1.759,0,0,1,.334,1.077,1.9,1.9,0,0,1-.62,1.5A2.564,2.564,0,0,1,11.382,0Zm.938-3.325V-.767H11.4a1.49,1.49,0,0,0,1.033-.339,1.192,1.192,0,0,0,.378-.935q0-1.284-1.4-1.284Zm0-.752H11.27a1.484,1.484,0,0,0,.984-.308,1.033,1.033,0,0,0,.369-.837,1.016,1.016,0,0,0-.342-.854,1.679,1.679,0,0,0-1.04-.267H9.854Zm10.757.752A4.4,4.4,0,0,1,20.259-1.5a2.663,2.663,0,0,1-1,1.189,2.741,2.741,0,0,1-1.5.41A2.717,2.717,0,0,1,16.27-.315a2.727,2.727,0,0,1-1.008-1.177,4.22,4.22,0,0,1-.369-1.77v-.513a4.346,4.346,0,0,1,.356-1.812,2.717,2.717,0,0,1,1.008-1.2,2.706,2.706,0,0,1,1.492-.417,2.756,2.756,0,0,1,1.506.413,2.658,2.658,0,0,1,1,1.2,4.419,4.419,0,0,1,.352,1.824Zm-.933-.459a3.188,3.188,0,0,0-.508-1.941A1.675,1.675,0,0,0,17.749-6.4a1.657,1.657,0,0,0-1.4.676,3.122,3.122,0,0,0-.525,1.877v.522A3.192,3.192,0,0,0,16.34-1.4a1.664,1.664,0,0,0,1.418.7,1.657,1.657,0,0,0,1.406-.662,3.174,3.174,0,0,0,.513-1.9Zm6.989-2.559H24.382V0h-.933V-6.343h-2.28v-.767h5.5Zm6.257,3.018A4.4,4.4,0,0,1,32.572-1.5a2.663,2.663,0,0,1-1,1.189,2.741,2.741,0,0,1-1.5.41,2.717,2.717,0,0,1-1.489-.413,2.727,2.727,0,0,1-1.008-1.177,4.22,4.22,0,0,1-.369-1.77v-.513a4.346,4.346,0,0,1,.356-1.812,2.717,2.717,0,0,1,1.008-1.2,2.706,2.706,0,0,1,1.492-.417,2.756,2.756,0,0,1,1.506.413,2.658,2.658,0,0,1,1,1.2,4.419,4.419,0,0,1,.352,1.824Zm-.933-.459a3.188,3.188,0,0,0-.508-1.941A1.675,1.675,0,0,0,30.062-6.4a1.657,1.657,0,0,0-1.4.676,3.122,3.122,0,0,0-.525,1.877v.522A3.192,3.192,0,0,0,28.654-1.4a1.664,1.664,0,0,0,1.418.7,1.657,1.657,0,0,0,1.406-.662,3.174,3.174,0,0,0,.513-1.9Zm-1.47-5.229h1.094L30.306-7.578l-.728,0ZM39.794,0h-.942L35.272-5.479V0H34.33V-7.109h.942l3.589,5.5v-5.5h.933Z" transform="translate(-3292.62 -2967.651)"/>
    <path id="Trazado_904012" data-name="Trazado 904012" d="M0,0H493.914V218.316H0Z" transform="translate(-3299 -3180.57)" fill="none"/>
    <path id="Trazado_903993" data-name="Trazado 903993" d="M.825,0V-7.109H2.832a3.231,3.231,0,0,1,1.641.41,2.774,2.774,0,0,1,1.1,1.167,3.8,3.8,0,0,1,.393,1.738v.454a3.812,3.812,0,0,1-.388,1.763A2.731,2.731,0,0,1,4.47-.415,3.436,3.436,0,0,1,2.793,0Zm.938-6.343V-.767h.986a2.146,2.146,0,0,0,1.687-.674,2.786,2.786,0,0,0,.6-1.921v-.415A2.831,2.831,0,0,0,4.47-5.661a2.024,2.024,0,0,0-1.614-.682ZM12.852-3.325A4.4,4.4,0,0,1,12.5-1.5a2.663,2.663,0,0,1-1,1.189A2.741,2.741,0,0,1,10,.1,2.717,2.717,0,0,1,8.511-.315,2.727,2.727,0,0,1,7.5-1.492a4.22,4.22,0,0,1-.369-1.77v-.513A4.346,4.346,0,0,1,7.49-5.586,2.717,2.717,0,0,1,8.5-6.79,2.706,2.706,0,0,1,9.99-7.207a2.756,2.756,0,0,1,1.506.413,2.658,2.658,0,0,1,1,1.2,4.419,4.419,0,0,1,.352,1.824Zm-.933-.459a3.188,3.188,0,0,0-.508-1.941A1.675,1.675,0,0,0,9.99-6.4a1.657,1.657,0,0,0-1.4.676,3.122,3.122,0,0,0-.525,1.877v.522A3.192,3.192,0,0,0,8.582-1.4,1.664,1.664,0,0,0,10-.7a1.657,1.657,0,0,0,1.406-.662,3.174,3.174,0,0,0,.513-1.9ZM14.258,0V-7.109h2.324a2.7,2.7,0,0,1,1.741.479,1.725,1.725,0,0,1,.583,1.416,1.444,1.444,0,0,1-.283.881,1.836,1.836,0,0,1-.771.593,1.649,1.649,0,0,1,.911.613A1.759,1.759,0,0,1,19.1-2.051a1.9,1.9,0,0,1-.62,1.5A2.564,2.564,0,0,1,16.724,0ZM15.2-3.325V-.767h1.548a1.49,1.49,0,0,0,1.033-.339,1.192,1.192,0,0,0,.378-.935q0-1.284-1.4-1.284Zm0-.752h1.416a1.484,1.484,0,0,0,.984-.308,1.033,1.033,0,0,0,.369-.837,1.016,1.016,0,0,0-.342-.854,1.679,1.679,0,0,0-1.04-.267H15.2Zm6.23,3.311h3.369V0H20.483V-7.109h.942Zm8.457-2.52H26.8v2.52h3.579V0H25.864V-7.109h4.468v.767H26.8v2.29h3.081Z" transform="translate(-3069.876 -2979.945)"/>
    <path id="Trazado_904013" data-name="Trazado 904013" d="M4.751-1.86H1.772L1.1,0H.137L2.852-7.109h.82L6.392,0H5.43Zm-2.7-.767H4.473L3.262-5.952ZM12.813,0H11.87L8.291-5.479V0H7.349V-7.109h.942l3.589,5.5v-5.5h.933Zm6.914-.933a2.166,2.166,0,0,1-1.008.774A4.073,4.073,0,0,1,17.212.1,2.921,2.921,0,0,1,15.669-.31a2.716,2.716,0,0,1-1.042-1.16,4.005,4.005,0,0,1-.378-1.743v-.62A3.739,3.739,0,0,1,15-6.323,2.612,2.612,0,0,1,17.1-7.207a2.7,2.7,0,0,1,1.792.569,2.478,2.478,0,0,1,.83,1.614h-.937a1.55,1.55,0,0,0-1.68-1.416,1.66,1.66,0,0,0-1.428.662A3.233,3.233,0,0,0,15.19-3.86v.582a3.03,3.03,0,0,0,.547,1.9,1.773,1.773,0,0,0,1.479.706,3.268,3.268,0,0,0,.923-.117,1.427,1.427,0,0,0,.654-.395V-2.773H17.148V-3.54h2.578Zm6.567-6.177v4.834A2.268,2.268,0,0,1,25.662-.63a2.548,2.548,0,0,1-1.7.718L23.711.1a2.661,2.661,0,0,1-1.86-.63,2.253,2.253,0,0,1-.7-1.733V-7.109h.928v4.814A1.626,1.626,0,0,0,22.5-1.1a1.633,1.633,0,0,0,1.211.427,1.644,1.644,0,0,0,1.218-.425,1.623,1.623,0,0,0,.422-1.2V-7.109ZM28.716-.767h3.369V0H27.773V-7.109h.942ZM37.263-1.86H34.284L33.615,0h-.967l2.715-7.109h.82L38.9,0h-.962Zm-2.7-.767h2.417L35.774-5.952ZM39.861,0V-7.109h2.007a3.231,3.231,0,0,1,1.641.41,2.774,2.774,0,0,1,1.1,1.167A3.8,3.8,0,0,1,45-3.794v.454a3.812,3.812,0,0,1-.388,1.763A2.731,2.731,0,0,1,43.506-.415,3.436,3.436,0,0,1,41.828,0ZM40.8-6.343V-.767h.986a2.146,2.146,0,0,0,1.687-.674,2.786,2.786,0,0,0,.6-1.921v-.415a2.831,2.831,0,0,0-.569-1.884,2.024,2.024,0,0,0-1.614-.682ZM51.887-3.325A4.4,4.4,0,0,1,51.535-1.5a2.663,2.663,0,0,1-1,1.189,2.741,2.741,0,0,1-1.5.41,2.717,2.717,0,0,1-1.489-.413,2.727,2.727,0,0,1-1.008-1.177,4.22,4.22,0,0,1-.369-1.77v-.513a4.346,4.346,0,0,1,.356-1.812,2.717,2.717,0,0,1,1.008-1.2,2.706,2.706,0,0,1,1.492-.417,2.756,2.756,0,0,1,1.506.413,2.658,2.658,0,0,1,1,1.2,4.419,4.419,0,0,1,.352,1.824Zm-.933-.459a3.188,3.188,0,0,0-.508-1.941A1.675,1.675,0,0,0,49.026-6.4a1.657,1.657,0,0,0-1.4.676A3.122,3.122,0,0,0,47.1-3.848v.522A3.192,3.192,0,0,0,47.617-1.4a1.664,1.664,0,0,0,1.418.7,1.657,1.657,0,0,0,1.406-.662,3.174,3.174,0,0,0,.513-1.9Z" transform="translate(-3083.059 -2967.651)"/>
    <path id="Trazado_904014" data-name="Trazado 904014" d="M0,0H493.914V218.316H0Z" transform="translate(-3299 -3180.57)" fill="none"/>
    <path id="Trazado_903994" data-name="Trazado 903994" d="M.825,0V-7.109H2.832a3.231,3.231,0,0,1,1.641.41,2.774,2.774,0,0,1,1.1,1.167,3.8,3.8,0,0,1,.393,1.738v.454a3.812,3.812,0,0,1-.388,1.763A2.731,2.731,0,0,1,4.47-.415,3.436,3.436,0,0,1,2.793,0Zm.938-6.343V-.767h.986a2.146,2.146,0,0,0,1.687-.674,2.786,2.786,0,0,0,.6-1.921v-.415A2.831,2.831,0,0,0,4.47-5.661a2.024,2.024,0,0,0-1.614-.682ZM12.852-3.325A4.4,4.4,0,0,1,12.5-1.5a2.663,2.663,0,0,1-1,1.189A2.741,2.741,0,0,1,10,.1,2.717,2.717,0,0,1,8.511-.315,2.727,2.727,0,0,1,7.5-1.492a4.22,4.22,0,0,1-.369-1.77v-.513A4.346,4.346,0,0,1,7.49-5.586,2.717,2.717,0,0,1,8.5-6.79,2.706,2.706,0,0,1,9.99-7.207a2.756,2.756,0,0,1,1.506.413,2.658,2.658,0,0,1,1,1.2,4.419,4.419,0,0,1,.352,1.824Zm-.933-.459a3.188,3.188,0,0,0-.508-1.941A1.675,1.675,0,0,0,9.99-6.4a1.657,1.657,0,0,0-1.4.676,3.122,3.122,0,0,0-.525,1.877v.522A3.192,3.192,0,0,0,8.582-1.4,1.664,1.664,0,0,0,10-.7a1.657,1.657,0,0,0,1.406-.662,3.174,3.174,0,0,0,.513-1.9ZM14.258,0V-7.109h2.324a2.7,2.7,0,0,1,1.741.479,1.725,1.725,0,0,1,.583,1.416,1.444,1.444,0,0,1-.283.881,1.836,1.836,0,0,1-.771.593,1.649,1.649,0,0,1,.911.613A1.759,1.759,0,0,1,19.1-2.051a1.9,1.9,0,0,1-.62,1.5A2.564,2.564,0,0,1,16.724,0ZM15.2-3.325V-.767h1.548a1.49,1.49,0,0,0,1.033-.339,1.192,1.192,0,0,0,.378-.935q0-1.284-1.4-1.284Zm0-.752h1.416a1.484,1.484,0,0,0,.984-.308,1.033,1.033,0,0,0,.369-.837,1.016,1.016,0,0,0-.342-.854,1.679,1.679,0,0,0-1.04-.267H15.2Zm6.23,3.311h3.369V0H20.483V-7.109h.942Zm8.457-2.52H26.8v2.52h3.579V0H25.864V-7.109h4.468v.767H26.8v2.29h3.081Z" transform="translate(-2962.204 -2979.945)"/>
    <path id="Trazado_904015" data-name="Trazado 904015" d="M3.433-2.876H1.763V0H.82V-7.109H3.174a2.786,2.786,0,0,1,1.848.547,1.968,1.968,0,0,1,.647,1.592A1.914,1.914,0,0,1,5.31-3.813a2.142,2.142,0,0,1-1,.737L5.981-.059V0H4.976Zm-1.67-.767H3.2A1.625,1.625,0,0,0,4.314-4a1.224,1.224,0,0,0,.413-.969,1.289,1.289,0,0,0-.393-1.013A1.664,1.664,0,0,0,3.2-6.343H1.763ZM11-3.286H7.92v2.52H11.5V0H6.982V-7.109H11.45v.767H7.92v2.29H11ZM17.9-2.256a2.616,2.616,0,0,1-.833,1.741A2.728,2.728,0,0,1,15.2.1a2.505,2.505,0,0,1-2.019-.9,3.634,3.634,0,0,1-.759-2.417v-.684a4.051,4.051,0,0,1,.354-1.743,2.644,2.644,0,0,1,1-1.155,2.794,2.794,0,0,1,1.5-.4,2.569,2.569,0,0,1,1.816.632,2.647,2.647,0,0,1,.8,1.75h-.942a2.043,2.043,0,0,0-.53-1.234,1.6,1.6,0,0,0-1.14-.382,1.677,1.677,0,0,0-1.409.665,3.051,3.051,0,0,0-.51,1.891V-3.2a3.136,3.136,0,0,0,.483,1.842A1.562,1.562,0,0,0,15.2-.669a1.8,1.8,0,0,0,1.2-.354,1.964,1.964,0,0,0,.554-1.233Zm5.91-4.087H21.52V0h-.933V-6.343h-2.28v-.767h5.5Zm6.247,3.018A4.4,4.4,0,0,1,29.7-1.5a2.663,2.663,0,0,1-1,1.189A2.741,2.741,0,0,1,27.2.1a2.717,2.717,0,0,1-1.489-.413A2.727,2.727,0,0,1,24.7-1.492a4.22,4.22,0,0,1-.369-1.77v-.513a4.346,4.346,0,0,1,.356-1.812A2.717,2.717,0,0,1,25.7-6.79a2.706,2.706,0,0,1,1.492-.417,2.756,2.756,0,0,1,1.506.413,2.658,2.658,0,0,1,1,1.2,4.419,4.419,0,0,1,.352,1.824Zm-.933-.459a3.188,3.188,0,0,0-.508-1.941A1.675,1.675,0,0,0,27.191-6.4a1.657,1.657,0,0,0-1.4.676,3.122,3.122,0,0,0-.525,1.877v.522A3.192,3.192,0,0,0,25.782-1.4,1.664,1.664,0,0,0,27.2-.7a1.657,1.657,0,0,0,1.406-.662,3.174,3.174,0,0,0,.513-1.9Z" transform="translate(-2962.063 -2967.651)"/>
    <path id="Trazado_904016" data-name="Trazado 904016" d="M0,0H493.914V218.316H0Z" transform="translate(-3299 -3180.57)" fill="none"/>
    <path id="Trazado_903995" data-name="Trazado 903995" d="M.825,0V-7.109H2.832a3.231,3.231,0,0,1,1.641.41,2.774,2.774,0,0,1,1.1,1.167,3.8,3.8,0,0,1,.393,1.738v.454a3.812,3.812,0,0,1-.388,1.763A2.731,2.731,0,0,1,4.47-.415,3.436,3.436,0,0,1,2.793,0Zm.938-6.343V-.767h.986a2.146,2.146,0,0,0,1.687-.674,2.786,2.786,0,0,0,.6-1.921v-.415A2.831,2.831,0,0,0,4.47-5.661a2.024,2.024,0,0,0-1.614-.682ZM12.852-3.325A4.4,4.4,0,0,1,12.5-1.5a2.663,2.663,0,0,1-1,1.189A2.741,2.741,0,0,1,10,.1,2.717,2.717,0,0,1,8.511-.315,2.727,2.727,0,0,1,7.5-1.492a4.22,4.22,0,0,1-.369-1.77v-.513A4.346,4.346,0,0,1,7.49-5.586,2.717,2.717,0,0,1,8.5-6.79,2.706,2.706,0,0,1,9.99-7.207a2.756,2.756,0,0,1,1.506.413,2.658,2.658,0,0,1,1,1.2,4.419,4.419,0,0,1,.352,1.824Zm-.933-.459a3.188,3.188,0,0,0-.508-1.941A1.675,1.675,0,0,0,9.99-6.4a1.657,1.657,0,0,0-1.4.676,3.122,3.122,0,0,0-.525,1.877v.522A3.192,3.192,0,0,0,8.582-1.4,1.664,1.664,0,0,0,10-.7a1.657,1.657,0,0,0,1.406-.662,3.174,3.174,0,0,0,.513-1.9ZM14.258,0V-7.109h2.324a2.7,2.7,0,0,1,1.741.479,1.725,1.725,0,0,1,.583,1.416,1.444,1.444,0,0,1-.283.881,1.836,1.836,0,0,1-.771.593,1.649,1.649,0,0,1,.911.613A1.759,1.759,0,0,1,19.1-2.051a1.9,1.9,0,0,1-.62,1.5A2.564,2.564,0,0,1,16.724,0ZM15.2-3.325V-.767h1.548a1.49,1.49,0,0,0,1.033-.339,1.192,1.192,0,0,0,.378-.935q0-1.284-1.4-1.284Zm0-.752h1.416a1.484,1.484,0,0,0,.984-.308,1.033,1.033,0,0,0,.369-.837,1.016,1.016,0,0,0-.342-.854,1.679,1.679,0,0,0-1.04-.267H15.2Zm6.23,3.311h3.369V0H20.483V-7.109h.942Zm8.457-2.52H26.8v2.52h3.579V0H25.864V-7.109h4.468v.767H26.8v2.29h3.081Z" transform="translate(-2856.384 -2979.945)"/>
    <path id="Trazado_904017" data-name="Trazado 904017" d="M3.433-2.876H1.763V0H.82V-7.109H3.174a2.786,2.786,0,0,1,1.848.547,1.968,1.968,0,0,1,.647,1.592A1.914,1.914,0,0,1,5.31-3.813a2.142,2.142,0,0,1-1,.737L5.981-.059V0H4.976Zm-1.67-.767H3.2A1.625,1.625,0,0,0,4.314-4a1.224,1.224,0,0,0,.413-.969,1.289,1.289,0,0,0-.393-1.013A1.664,1.664,0,0,0,3.2-6.343H1.763ZM11-3.286H7.92v2.52H11.5V0H6.982V-7.109H11.45v.767H7.92v2.29H11ZM12.666,0V-7.109h2.007a3.231,3.231,0,0,1,1.641.41,2.774,2.774,0,0,1,1.1,1.167,3.8,3.8,0,0,1,.393,1.738v.454a3.812,3.812,0,0,1-.388,1.763A2.731,2.731,0,0,1,16.311-.415,3.436,3.436,0,0,1,14.634,0ZM13.6-6.343V-.767h.986a2.146,2.146,0,0,0,1.687-.674,2.786,2.786,0,0,0,.6-1.921v-.415a2.831,2.831,0,0,0-.569-1.884A2.024,2.024,0,0,0,14.7-6.343ZM24.692-3.325A4.4,4.4,0,0,1,24.341-1.5a2.663,2.663,0,0,1-1,1.189,2.741,2.741,0,0,1-1.5.41,2.717,2.717,0,0,1-1.489-.413,2.727,2.727,0,0,1-1.008-1.177,4.22,4.22,0,0,1-.369-1.77v-.513a4.346,4.346,0,0,1,.356-1.812,2.717,2.717,0,0,1,1.008-1.2,2.706,2.706,0,0,1,1.492-.417,2.756,2.756,0,0,1,1.506.413,2.658,2.658,0,0,1,1,1.2,4.419,4.419,0,0,1,.352,1.824Zm-.933-.459a3.188,3.188,0,0,0-.508-1.941A1.675,1.675,0,0,0,21.831-6.4a1.657,1.657,0,0,0-1.4.676,3.122,3.122,0,0,0-.525,1.877v.522A3.192,3.192,0,0,0,20.422-1.4a1.664,1.664,0,0,0,1.418.7,1.657,1.657,0,0,0,1.406-.662,3.174,3.174,0,0,0,.513-1.9ZM31.563,0H30.62L27.041-5.479V0H26.1V-7.109h.942l3.589,5.5v-5.5h.933Zm1.665,0V-7.109h2.007a3.231,3.231,0,0,1,1.641.41,2.774,2.774,0,0,1,1.1,1.167,3.8,3.8,0,0,1,.393,1.738v.454a3.812,3.812,0,0,1-.388,1.763A2.731,2.731,0,0,1,36.873-.415,3.436,3.436,0,0,1,35.2,0Zm.938-6.343V-.767h.986a2.146,2.146,0,0,0,1.687-.674,2.786,2.786,0,0,0,.6-1.921v-.415a2.831,2.831,0,0,0-.569-1.884,2.024,2.024,0,0,0-1.614-.682ZM45.254-3.325A4.4,4.4,0,0,1,44.9-1.5a2.663,2.663,0,0,1-1,1.189A2.741,2.741,0,0,1,42.4.1a2.717,2.717,0,0,1-1.489-.413A2.727,2.727,0,0,1,39.9-1.492a4.22,4.22,0,0,1-.369-1.77v-.513a4.346,4.346,0,0,1,.356-1.812A2.717,2.717,0,0,1,40.9-6.79a2.706,2.706,0,0,1,1.492-.417,2.756,2.756,0,0,1,1.506.413,2.658,2.658,0,0,1,1,1.2,4.419,4.419,0,0,1,.352,1.824Zm-.933-.459a3.188,3.188,0,0,0-.508-1.941A1.675,1.675,0,0,0,42.393-6.4a1.657,1.657,0,0,0-1.4.676,3.122,3.122,0,0,0-.525,1.877v.522A3.192,3.192,0,0,0,40.984-1.4,1.664,1.664,0,0,0,42.4-.7a1.657,1.657,0,0,0,1.406-.662,3.174,3.174,0,0,0,.513-1.9Z" transform="translate(-2865.689 -2967.651)"/>
    <path id="Trazado_904018" data-name="Trazado 904018" d="M0,0H493.914V218.316H0Z" transform="translate(-3299 -3180.57)" fill="none"/>
    <path id="Trazado_903996" data-name="Trazado 903996" d="M3.433-2.876H1.763V0H.82V-7.109H3.174a2.786,2.786,0,0,1,1.848.547,1.968,1.968,0,0,1,.647,1.592A1.914,1.914,0,0,1,5.31-3.813a2.142,2.142,0,0,1-1,.737L5.981-.059V0H4.976Zm-1.67-.767H3.2A1.625,1.625,0,0,0,4.314-4a1.224,1.224,0,0,0,.413-.969,1.289,1.289,0,0,0-.393-1.013A1.664,1.664,0,0,0,3.2-6.343H1.763ZM11-3.286H7.92v2.52H11.5V0H6.982V-7.109H11.45v.767H7.92v2.29H11ZM17.9-2.256a2.616,2.616,0,0,1-.833,1.741A2.728,2.728,0,0,1,15.2.1a2.505,2.505,0,0,1-2.019-.9,3.634,3.634,0,0,1-.759-2.417v-.684a4.051,4.051,0,0,1,.354-1.743,2.644,2.644,0,0,1,1-1.155,2.794,2.794,0,0,1,1.5-.4,2.569,2.569,0,0,1,1.816.632,2.647,2.647,0,0,1,.8,1.75h-.942a2.043,2.043,0,0,0-.53-1.234,1.6,1.6,0,0,0-1.14-.382,1.677,1.677,0,0,0-1.409.665,3.051,3.051,0,0,0-.51,1.891V-3.2a3.136,3.136,0,0,0,.483,1.842A1.562,1.562,0,0,0,15.2-.669a1.8,1.8,0,0,0,1.2-.354,1.964,1.964,0,0,0,.554-1.233Zm5.91-4.087H21.52V0h-.933V-6.343h-2.28v-.767h5.5Zm6.247,3.018A4.4,4.4,0,0,1,29.7-1.5a2.663,2.663,0,0,1-1,1.189A2.741,2.741,0,0,1,27.2.1a2.717,2.717,0,0,1-1.489-.413A2.727,2.727,0,0,1,24.7-1.492a4.22,4.22,0,0,1-.369-1.77v-.513a4.346,4.346,0,0,1,.356-1.812A2.717,2.717,0,0,1,25.7-6.79a2.706,2.706,0,0,1,1.492-.417,2.756,2.756,0,0,1,1.506.413,2.658,2.658,0,0,1,1,1.2,4.419,4.419,0,0,1,.352,1.824Zm-.933-.459a3.188,3.188,0,0,0-.508-1.941A1.675,1.675,0,0,0,27.191-6.4a1.657,1.657,0,0,0-1.4.676,3.122,3.122,0,0,0-.525,1.877v.522A3.192,3.192,0,0,0,25.782-1.4,1.664,1.664,0,0,0,27.2-.7a1.657,1.657,0,0,0,1.406-.662,3.174,3.174,0,0,0,.513-1.9Z" transform="translate(-3178.249 -2979.945)"/>
    <path id="Trazado_904019" data-name="Trazado 904019" d="M6.055-2.256A2.616,2.616,0,0,1,5.222-.515,2.728,2.728,0,0,1,3.359.1a2.505,2.505,0,0,1-2.019-.9A3.634,3.634,0,0,1,.581-3.223v-.684A4.051,4.051,0,0,1,.935-5.649a2.644,2.644,0,0,1,1-1.155,2.794,2.794,0,0,1,1.5-.4,2.569,2.569,0,0,1,1.816.632,2.647,2.647,0,0,1,.8,1.75H5.112a2.043,2.043,0,0,0-.53-1.234,1.6,1.6,0,0,0-1.14-.382,1.677,1.677,0,0,0-1.409.665,3.051,3.051,0,0,0-.51,1.891V-3.2a3.136,3.136,0,0,0,.483,1.842,1.562,1.562,0,0,0,1.353.684,1.8,1.8,0,0,0,1.2-.354,1.964,1.964,0,0,0,.554-1.233ZM12.8-3.325A4.4,4.4,0,0,1,12.451-1.5a2.663,2.663,0,0,1-1,1.189,2.741,2.741,0,0,1-1.5.41A2.717,2.717,0,0,1,8.462-.315,2.727,2.727,0,0,1,7.454-1.492a4.22,4.22,0,0,1-.369-1.77v-.513a4.346,4.346,0,0,1,.356-1.812A2.717,2.717,0,0,1,8.45-6.79a2.706,2.706,0,0,1,1.492-.417,2.756,2.756,0,0,1,1.506.413,2.658,2.658,0,0,1,1,1.2A4.419,4.419,0,0,1,12.8-3.774Zm-.933-.459a3.188,3.188,0,0,0-.508-1.941A1.675,1.675,0,0,0,9.941-6.4a1.657,1.657,0,0,0-1.4.676,3.122,3.122,0,0,0-.525,1.877v.522A3.192,3.192,0,0,0,8.533-1.4a1.664,1.664,0,0,0,1.418.7,1.657,1.657,0,0,0,1.406-.662,3.174,3.174,0,0,0,.513-1.9Zm4.946.908h-1.67V0H14.2V-7.109h2.354a2.786,2.786,0,0,1,1.848.547,1.968,1.968,0,0,1,.647,1.592,1.914,1.914,0,0,1-.359,1.157,2.142,2.142,0,0,1-1,.737l1.67,3.018V0H18.359Zm-1.67-.767h1.44A1.625,1.625,0,0,0,17.7-4a1.224,1.224,0,0,0,.413-.969,1.289,1.289,0,0,0-.393-1.013,1.664,1.664,0,0,0-1.135-.357H15.146Zm9.351-2.7H22.213V0H21.28V-6.343H19v-.767h5.5Zm6.257,3.018A4.4,4.4,0,0,1,30.4-1.5a2.663,2.663,0,0,1-1,1.189A2.741,2.741,0,0,1,27.9.1a2.717,2.717,0,0,1-1.489-.413,2.727,2.727,0,0,1-1.008-1.177,4.22,4.22,0,0,1-.369-1.77v-.513a4.346,4.346,0,0,1,.356-1.812A2.717,2.717,0,0,1,26.4-6.79a2.706,2.706,0,0,1,1.492-.417,2.756,2.756,0,0,1,1.506.413,2.658,2.658,0,0,1,1,1.2,4.419,4.419,0,0,1,.352,1.824Zm-.933-.459a3.188,3.188,0,0,0-.508-1.941A1.675,1.675,0,0,0,27.893-6.4a1.657,1.657,0,0,0-1.4.676,3.122,3.122,0,0,0-.525,1.877v.522A3.192,3.192,0,0,0,26.484-1.4,1.664,1.664,0,0,0,27.9-.7a1.657,1.657,0,0,0,1.406-.662,3.174,3.174,0,0,0,.513-1.9Z" transform="translate(-3178.895 -2967.651)"/>
    <path id="Trazado_904020" data-name="Trazado 904020" d="M0,0H493.914V218.316H0Z" transform="translate(-3299 -3180.57)" fill="none"/>
  </g>
</svg>
