<svg xmlns="http://www.w3.org/2000/svg" width="297.685" height="408.993" viewBox="0 0 297.685 408.993">
  <g id="Grupo_1114939" data-name="Grupo 1114939" transform="translate(-852.262 -8013.032)">
    <path id="Trazado_904029" data-name="Trazado 904029" d="M0,0H77.573V336.546H0Z" transform="translate(852.734 8085.006)" fill="none" stroke="#000" stroke-width="0.944"/>
    <path id="Trazado_903618" data-name="Trazado 903618" d="M499.839,16.736,605.191,55.945s-31.973,176.986,49.27,181.887L624.585,424.622H435.369V88.075S485.163,86.986,499.839,16.736Z" transform="translate(494.938 7996.93)" fill="none" stroke="#000" stroke-miterlimit="10" stroke-width="0.944"/>
    <path id="Trazado_904030" data-name="Trazado 904030" d="M0,0V328.378" transform="translate(901.695 8089.362)" fill="none" stroke="#000" stroke-width="0.944" stroke-dasharray="5.662 5.662"/>
    <path id="Trazado_904031" data-name="Trazado 904031" d="M0,64.044V0" transform="translate(1050.039 8318.505)" fill="none" stroke="#000" stroke-width="1" stroke-dasharray="6 6"/>
    <path id="Trazado_903625" data-name="Trazado 903625" d="M522.424,302.847h15.619l-7.809,7.806Z" transform="translate(519.805 8078.655)"/>
    <path id="Trazado_903626" data-name="Trazado 903626" d="M522.424,256.4h15.619l-7.809-7.806Z" transform="translate(519.805 8063.157)"/>
    <path id="Trazado_904032" data-name="Trazado 904032" d="M1.9,0V-16.352H7.244a6.205,6.205,0,0,1,4,1.1,3.967,3.967,0,0,1,1.342,3.257,3.321,3.321,0,0,1-.651,2.027A4.223,4.223,0,0,1,10.164-8.6a3.792,3.792,0,0,1,2.094,1.409,4.045,4.045,0,0,1,.769,2.476A4.373,4.373,0,0,1,11.6-1.258,5.9,5.9,0,0,1,7.569,0ZM4.054-7.648v5.885h3.56A3.428,3.428,0,0,0,9.99-2.544a2.741,2.741,0,0,0,.87-2.151q0-2.954-3.212-2.954Zm0-1.729H7.311a3.414,3.414,0,0,0,2.263-.709,2.377,2.377,0,0,0,.848-1.925,2.338,2.338,0,0,0-.786-1.964,3.861,3.861,0,0,0-2.392-.613H4.054ZM15.341-6.188a7.177,7.177,0,0,1,.7-3.212A5.236,5.236,0,0,1,18-11.6a5.319,5.319,0,0,1,2.858-.775,5.124,5.124,0,0,1,4.015,1.718A6.611,6.611,0,0,1,26.4-6.087v.146a7.24,7.24,0,0,1-.679,3.184,5.159,5.159,0,0,1-1.943,2.2,5.38,5.38,0,0,1-2.9.786,5.112,5.112,0,0,1-4-1.718,6.577,6.577,0,0,1-1.533-4.548Zm2.089.247A5.2,5.2,0,0,0,18.367-2.7a3,3,0,0,0,2.51,1.224,2.983,2.983,0,0,0,2.516-1.241,5.685,5.685,0,0,0,.932-3.476,5.189,5.189,0,0,0-.949-3.24,3.017,3.017,0,0,0-2.521-1.241,2.983,2.983,0,0,0-2.482,1.224A5.642,5.642,0,0,0,17.43-5.941Zm14.4-9.153v2.942H34.1v1.606H31.827V-3a1.687,1.687,0,0,0,.3,1.1,1.276,1.276,0,0,0,1.033.365,5.03,5.03,0,0,0,.988-.135V0a6.059,6.059,0,0,1-1.595.223,2.587,2.587,0,0,1-2.1-.842A3.618,3.618,0,0,1,29.75-3.01v-7.536H27.537v-1.606H29.75v-2.942Zm3.919,8.906a7.177,7.177,0,0,1,.7-3.212A5.236,5.236,0,0,1,38.4-11.6a5.319,5.319,0,0,1,2.858-.775,5.124,5.124,0,0,1,4.015,1.718,6.611,6.611,0,0,1,1.533,4.571v.146a7.24,7.24,0,0,1-.679,3.184,5.159,5.159,0,0,1-1.943,2.2,5.38,5.38,0,0,1-2.9.786,5.112,5.112,0,0,1-4-1.718,6.577,6.577,0,0,1-1.533-4.548Zm2.089.247A5.2,5.2,0,0,0,38.773-2.7a3,3,0,0,0,2.51,1.224A2.983,2.983,0,0,0,43.8-2.712a5.685,5.685,0,0,0,.932-3.476,5.189,5.189,0,0,0-.949-3.24,3.017,3.017,0,0,0-2.521-1.241,2.983,2.983,0,0,0-2.482,1.224A5.642,5.642,0,0,0,37.835-5.941Zm13.544-6.21.067,1.527a4.428,4.428,0,0,1,3.639-1.752q3.852,0,3.886,4.346V0H56.894V-8.041a2.8,2.8,0,0,0-.6-1.943,2.408,2.408,0,0,0-1.836-.629,3,3,0,0,0-1.774.539,3.661,3.661,0,0,0-1.19,1.415V0H49.414V-12.151ZM67.147.225A5.309,5.309,0,0,1,63.126-1.4a6.023,6.023,0,0,1-1.55-4.341v-.382a7.292,7.292,0,0,1,.691-3.229A5.388,5.388,0,0,1,64.2-11.573a4.857,4.857,0,0,1,2.69-.8,4.551,4.551,0,0,1,3.684,1.561,6.759,6.759,0,0,1,1.314,4.47v.865H63.654a4.319,4.319,0,0,0,1.05,2.9,3.3,3.3,0,0,0,2.555,1.106,3.619,3.619,0,0,0,1.864-.449,4.684,4.684,0,0,0,1.336-1.19l1.269.988A5.1,5.1,0,0,1,67.147.225Zm-.258-10.894a2.771,2.771,0,0,0-2.111.915,4.449,4.449,0,0,0-1.056,2.566h6.087v-.157A3.957,3.957,0,0,0,68.955-9.8,2.609,2.609,0,0,0,66.889-10.669Zm13.274.382a6.226,6.226,0,0,0-1.022-.079,2.738,2.738,0,0,0-2.774,1.741V0H74.29V-12.151h2.021l.034,1.4a3.235,3.235,0,0,1,2.9-1.628,2.123,2.123,0,0,1,.921.157ZM89.125,0a4.364,4.364,0,0,1-.292-1.28,4.636,4.636,0,0,1-3.459,1.5A4.289,4.289,0,0,1,82.426-.792a3.288,3.288,0,0,1-1.151-2.577,3.435,3.435,0,0,1,1.443-2.948,6.8,6.8,0,0,1,4.06-1.05H88.8v-.955a2.333,2.333,0,0,0-.651-1.735,2.618,2.618,0,0,0-1.92-.646,3.03,3.03,0,0,0-1.864.562,1.655,1.655,0,0,0-.752,1.359H81.522a2.867,2.867,0,0,1,.646-1.758,4.407,4.407,0,0,1,1.752-1.342,5.894,5.894,0,0,1,2.431-.494,4.8,4.8,0,0,1,3.291,1.05,3.788,3.788,0,0,1,1.235,2.892v5.593A6.838,6.838,0,0,0,91.3-.18V0ZM85.677-1.583a3.651,3.651,0,0,0,1.853-.505A3.057,3.057,0,0,0,88.8-3.4V-5.9H87.171q-3.818,0-3.818,2.235A1.891,1.891,0,0,0,84-2.134,2.5,2.5,0,0,0,85.677-1.583Zm19.294-5.705a10.139,10.139,0,0,1-4.037-1.96,3.744,3.744,0,0,1-1.263-2.869,3.955,3.955,0,0,1,1.544-3.2,6.137,6.137,0,0,1,4.015-1.263,6.7,6.7,0,0,1,3,.651,4.94,4.94,0,0,1,2.044,1.8,4.6,4.6,0,0,1,.724,2.5h-2.167a2.99,2.99,0,0,0-.943-2.339,3.836,3.836,0,0,0-2.662-.851,3.927,3.927,0,0,0-2.488.7,2.346,2.346,0,0,0-.893,1.952,2.11,2.11,0,0,0,.848,1.693A8.317,8.317,0,0,0,105.583-9.2a13.392,13.392,0,0,1,3.189,1.264,4.84,4.84,0,0,1,1.707,1.612,4.113,4.113,0,0,1,.556,2.167,3.82,3.82,0,0,1-1.55,3.184,6.608,6.608,0,0,1-4.144,1.2A7.686,7.686,0,0,1,102.2-.421,5.292,5.292,0,0,1,99.946-2.19a4.317,4.317,0,0,1-.792-2.549h2.167A2.816,2.816,0,0,0,102.416-2.4a4.61,4.61,0,0,0,2.926.859,4.238,4.238,0,0,0,2.617-.7,2.262,2.262,0,0,0,.91-1.9,2.22,2.22,0,0,0-.842-1.859A9.711,9.711,0,0,0,104.971-7.289ZM118.515.225A5.309,5.309,0,0,1,114.495-1.4a6.023,6.023,0,0,1-1.55-4.341v-.382a7.292,7.292,0,0,1,.691-3.229,5.388,5.388,0,0,1,1.932-2.224,4.857,4.857,0,0,1,2.69-.8,4.551,4.551,0,0,1,3.684,1.561,6.759,6.759,0,0,1,1.314,4.47v.865h-8.232a4.319,4.319,0,0,0,1.05,2.9,3.3,3.3,0,0,0,2.555,1.106,3.619,3.619,0,0,0,1.864-.449,4.684,4.684,0,0,0,1.336-1.19l1.269.988A5.1,5.1,0,0,1,118.515.225Zm-.258-10.894a2.771,2.771,0,0,0-2.111.915,4.449,4.449,0,0,0-1.056,2.566h6.087v-.157a3.957,3.957,0,0,0-.854-2.454A2.609,2.609,0,0,0,118.257-10.669Zm9.366-1.482.067,1.527a4.428,4.428,0,0,1,3.639-1.752q3.852,0,3.886,4.346V0h-2.078V-8.041a2.8,2.8,0,0,0-.6-1.943,2.408,2.408,0,0,0-1.836-.629,3,3,0,0,0-1.774.539,3.661,3.661,0,0,0-1.19,1.415V0h-2.078V-12.151Zm15.6,10.68a2.993,2.993,0,0,0,1.943-.674,2.371,2.371,0,0,0,.921-1.685h1.965a3.768,3.768,0,0,1-.719,1.988,4.734,4.734,0,0,1-1.769,1.5,5.1,5.1,0,0,1-2.342.562,5.006,5.006,0,0,1-3.948-1.656,6.6,6.6,0,0,1-1.466-4.531v-.348a7.316,7.316,0,0,1,.651-3.156,4.961,4.961,0,0,1,1.87-2.145,5.312,5.312,0,0,1,2.881-.764,4.873,4.873,0,0,1,3.4,1.224,4.375,4.375,0,0,1,1.443,3.178h-1.965a2.863,2.863,0,0,0-.893-1.937,2.777,2.777,0,0,0-1.982-.758,2.908,2.908,0,0,0-2.454,1.14,5.353,5.353,0,0,0-.87,3.3v.393a5.247,5.247,0,0,0,.865,3.234A2.922,2.922,0,0,0,143.222-1.471ZM152.645,0h-2.078V-12.151h2.078ZM150.4-15.375a1.24,1.24,0,0,1,.309-.854,1.16,1.16,0,0,1,.915-.348,1.178,1.178,0,0,1,.921.348,1.227,1.227,0,0,1,.314.854,1.187,1.187,0,0,1-.314.842,1.2,1.2,0,0,1-.921.337,1.18,1.18,0,0,1-.915-.337A1.2,1.2,0,0,1,150.4-15.375ZM158.226,0h-2.078V-17.25h2.078Zm5.582,0H161.73V-17.25h2.078Zm10.826,0a4.364,4.364,0,0,1-.292-1.28,4.636,4.636,0,0,1-3.459,1.5,4.289,4.289,0,0,1-2.948-1.016,3.288,3.288,0,0,1-1.151-2.577,3.435,3.435,0,0,1,1.443-2.948,6.8,6.8,0,0,1,4.06-1.05h2.021v-.955a2.333,2.333,0,0,0-.651-1.735,2.618,2.618,0,0,0-1.92-.646,3.03,3.03,0,0,0-1.864.562,1.655,1.655,0,0,0-.752,1.359h-2.089a2.867,2.867,0,0,1,.646-1.758,4.407,4.407,0,0,1,1.752-1.342,5.894,5.894,0,0,1,2.431-.494,4.8,4.8,0,0,1,3.291,1.05,3.788,3.788,0,0,1,1.235,2.892v5.593a6.838,6.838,0,0,0,.427,2.662V0Zm-3.448-1.583a3.651,3.651,0,0,0,1.853-.505A3.057,3.057,0,0,0,174.308-3.4V-5.9H172.68q-3.818,0-3.818,2.235a1.891,1.891,0,0,0,.651,1.527A2.5,2.5,0,0,0,171.186-1.583Z" transform="translate(935.966 8267.42)"/>
    <path id="Trazado_904033" data-name="Trazado 904033" d="M4.38-9.187H5.941a3.431,3.431,0,0,0,2.313-.775A2.589,2.589,0,0,0,9.1-11.994a2.536,2.536,0,0,0-2.864-2.875,2.979,2.979,0,0,0-2.151.769,2.692,2.692,0,0,0-.8,2.038H1.2A4.171,4.171,0,0,1,2.622-15.29a5.175,5.175,0,0,1,3.611-1.286A5.114,5.114,0,0,1,9.86-15.352a4.422,4.422,0,0,1,1.314,3.4,3.589,3.589,0,0,1-.691,2.066A4.17,4.17,0,0,1,8.6-8.389a4.018,4.018,0,0,1,2.083,1.415,3.93,3.93,0,0,1,.736,2.415A4.461,4.461,0,0,1,9.984-1.067,5.383,5.383,0,0,1,6.244.225,5.525,5.525,0,0,1,2.5-1.022,4.135,4.135,0,0,1,1.056-4.312H3.145a2.673,2.673,0,0,0,.842,2.066,3.2,3.2,0,0,0,2.257.775,3.144,3.144,0,0,0,2.3-.786,3.03,3.03,0,0,0,.8-2.257A2.749,2.749,0,0,0,8.468-6.7a3.817,3.817,0,0,0-2.527-.786H4.38ZM25.055-1.471A2.993,2.993,0,0,0,27-2.145a2.371,2.371,0,0,0,.921-1.685h1.965a3.768,3.768,0,0,1-.719,1.988A4.734,4.734,0,0,1,27.4-.337a5.1,5.1,0,0,1-2.342.562,5.006,5.006,0,0,1-3.948-1.656,6.6,6.6,0,0,1-1.466-4.531v-.348a7.316,7.316,0,0,1,.651-3.156,4.961,4.961,0,0,1,1.87-2.145,5.312,5.312,0,0,1,2.881-.764,4.873,4.873,0,0,1,3.4,1.224,4.375,4.375,0,0,1,1.443,3.178H27.919a2.863,2.863,0,0,0-.893-1.937,2.777,2.777,0,0,0-1.982-.758,2.908,2.908,0,0,0-2.454,1.14,5.353,5.353,0,0,0-.87,3.3v.393a5.247,5.247,0,0,0,.865,3.234A2.922,2.922,0,0,0,25.055-1.471Zm9.119-10.68L34.23-10.8a4.488,4.488,0,0,1,3.6-1.572,3.474,3.474,0,0,1,3.47,1.954,4.6,4.6,0,0,1,1.578-1.415,4.66,4.66,0,0,1,2.3-.539q4,0,4.065,4.234V0H47.168V-8.019a2.79,2.79,0,0,0-.6-1.948,2.621,2.621,0,0,0-2-.646,2.755,2.755,0,0,0-1.92.691,2.8,2.8,0,0,0-.887,1.859V0H39.677V-7.962a2.318,2.318,0,0,0-2.594-2.65,2.78,2.78,0,0,0-2.8,1.741V0H32.209V-12.151Z" transform="translate(883.584 8275.715) rotate(-90)"/>
    <path id="Trazado_904034" data-name="Trazado 904034" d="M8.187,0H6.1V-13.847L1.909-12.309V-14.2L7.861-16.43h.326ZM25.055-1.471A2.993,2.993,0,0,0,27-2.145a2.371,2.371,0,0,0,.921-1.685h1.965a3.768,3.768,0,0,1-.719,1.988A4.734,4.734,0,0,1,27.4-.337a5.1,5.1,0,0,1-2.342.562,5.006,5.006,0,0,1-3.948-1.656,6.6,6.6,0,0,1-1.466-4.531v-.348a7.316,7.316,0,0,1,.651-3.156,4.961,4.961,0,0,1,1.87-2.145,5.312,5.312,0,0,1,2.881-.764,4.873,4.873,0,0,1,3.4,1.224,4.375,4.375,0,0,1,1.443,3.178H27.919a2.863,2.863,0,0,0-.893-1.937,2.777,2.777,0,0,0-1.982-.758,2.908,2.908,0,0,0-2.454,1.14,5.353,5.353,0,0,0-.87,3.3v.393a5.247,5.247,0,0,0,.865,3.234A2.922,2.922,0,0,0,25.055-1.471Zm9.119-10.68L34.23-10.8a4.488,4.488,0,0,1,3.6-1.572,3.474,3.474,0,0,1,3.47,1.954,4.6,4.6,0,0,1,1.578-1.415,4.66,4.66,0,0,1,2.3-.539q4,0,4.065,4.234V0H47.168V-8.019a2.79,2.79,0,0,0-.6-1.948,2.621,2.621,0,0,0-2-.646,2.755,2.755,0,0,0-1.92.691,2.8,2.8,0,0,0-.887,1.859V0H39.677V-7.962a2.318,2.318,0,0,0-2.594-2.65,2.78,2.78,0,0,0-2.8,1.741V0H32.209V-12.151Z" transform="translate(922.939 8279.479) rotate(-90)"/>
  </g>
</svg>
