<svg xmlns="http://www.w3.org/2000/svg" xmlns:xlink="http://www.w3.org/1999/xlink" width="521.058" height="394.805" viewBox="0 0 521.058 394.805">
  <defs>
    <clipPath id="clip-path">
      <rect id="Rectángulo_407983" data-name="Rectángulo 407983" width="521.058" height="394.804" transform="translate(-4761.588 -9085.727)" fill="none"/>
    </clipPath>
    <filter id="Elipse_11557" x="138.318" y="60.24" width="307" height="307" filterUnits="userSpaceOnUse">
      <feOffset dy="3" input="SourceAlpha"/>
      <feGaussianBlur stdDeviation="3" result="blur"/>
      <feFlood flood-opacity="0.161"/>
      <feComposite operator="in" in2="blur"/>
      <feComposite in="SourceGraphic"/>
    </filter>
    <filter id="Elipse_11558" x="65.318" y="40.24" width="144" height="144" filterUnits="userSpaceOnUse">
      <feOffset dy="3" input="SourceAlpha"/>
      <feGaussianBlur stdDeviation="3" result="blur-2"/>
      <feFlood flood-opacity="0.161"/>
      <feComposite operator="in" in2="blur-2"/>
      <feComposite in="SourceGraphic"/>
    </filter>
    <clipPath id="clip-path-2">
      <rect id="Rectángulo_407839" data-name="Rectángulo 407839" width="469.286" height="479.113" fill="none"/>
    </clipPath>
    <clipPath id="clip-path-3">
      <path id="Trazado_903100" data-name="Trazado 903100" d="M1819.959,1183.415l-16.8.188-10.943,3.163c-3.1,1.394-6.234,3.084-6.342,6.684-.23,7.637-.5,15.853,5.8,33.772,1.456,4.143,2.89,5.209,3.578,9.269,1.862,11-.868,27.1-.6,33.268,24.088,3.113,45.591,4.81,51.852,0-1.318-39.421-9.308-67.446-17.467-81.473-1.721-2.961-6.777-4.87-9.045-4.87h-.027" transform="translate(-1785.783 -1183.415)" fill="none"/>
    </clipPath>
    <clipPath id="clip-path-5">
      <path id="Trazado_903104" data-name="Trazado 903104" d="M1743.258,1061.492c-2.12.64-3.318,3.185-2.678,5.682s2.879,4,5,3.361,3.318-3.185,2.677-5.683a4.365,4.365,0,0,0-4-3.508,3.415,3.415,0,0,0-.993.148" transform="translate(-1740.408 -1061.344)" fill="none"/>
    </clipPath>
    <clipPath id="clip-path-7">
      <path id="Trazado_903107" data-name="Trazado 903107" d="M1827.511,1089.095l2.526,12.317c.878,4.327,3.927,6.1,8.043,5.218,3.514-.756,7.03-3.256,6.094-7.038L1839.3,1080.4Z" transform="translate(-1827.511 -1080.397)" fill="none"/>
    </clipPath>
  </defs>
  <g id="Enmascarar_grupo_1099847" data-name="Enmascarar grupo 1099847" transform="translate(4761.588 9085.727)" clip-path="url(#clip-path)">
    <rect id="Rectángulo_407582" data-name="Rectángulo 407582" width="521.058" height="394.804" transform="translate(-4761.588 -9085.727)" fill="#d5dfd6"/>
    <g transform="matrix(1, 0, 0, 1, -4761.59, -9085.73)" filter="url(#Elipse_11557)">
      <circle id="Elipse_11557-2" data-name="Elipse 11557" cx="144.5" cy="144.5" r="144.5" transform="translate(147.32 66.24)" fill="#fff"/>
    </g>
    <g transform="matrix(1, 0, 0, 1, -4761.59, -9085.73)" filter="url(#Elipse_11558)">
      <circle id="Elipse_11558-2" data-name="Elipse 11558" cx="63" cy="63" r="63" transform="translate(74.32 46.24)" fill="#d1f1ff"/>
    </g>
    <g id="Grupo_1114654" data-name="Grupo 1114654" transform="translate(-5258.167 -9170.037)">
      <rect id="Rectángulo_407784" data-name="Rectángulo 407784" width="519.286" height="50.47" transform="translate(497.756 428.646)" fill="#91857b"/>
      <rect id="Rectángulo_407785" data-name="Rectángulo 407785" width="469.286" height="15.965" transform="translate(516.756 420.233)" fill="#bdaca0"/>
      <g id="Grupo_1114641" data-name="Grupo 1114641" transform="translate(516.756 0.003)">
        <g id="Grupo_1114640" data-name="Grupo 1114640" clip-path="url(#clip-path-2)">
          <path id="Trazado_902953" data-name="Trazado 902953" d="M1701.375,2408.152c29.83,0,54.049,1.922,54.049,4.29s-24.219,4.29-54.049,4.29-54.049-1.924-54.049-4.29,24.218-4.29,54.049-4.29" transform="translate(-1438.679 -1963.728)" fill="#786b61" fill-rule="evenodd"/>
          <path id="Trazado_902954" data-name="Trazado 902954" d="M608.581,2367.689c50.68,0,91.826,1.923,91.826,4.291s-41.146,4.289-91.826,4.289-91.825-1.922-91.825-4.289,41.145-4.291,91.825-4.291" transform="translate(-516.756 -1930.732)" fill="#786b61" fill-rule="evenodd"/>
          <path id="Trazado_902955" data-name="Trazado 902955" d="M2485.327,2361.721c44.3,0,80.263,1.923,80.263,4.29s-35.966,4.29-80.263,4.29-80.265-1.921-80.265-4.29c0-.659,4.067-7.595,9.053-8.153,12.91-1.447,39.256,3.864,71.211,3.864" transform="translate(-2056.574 -1922.511)" fill="#786b61" fill-rule="evenodd"/>
          <path id="Trazado_902956" data-name="Trazado 902956" d="M1756.871,1215.693s-2.594-1.643-4.57,7.352c-2.1,9.548-6.679,26.169-6.208,40.994a7.369,7.369,0,0,0,3.51,6.051c4.765,2.9,9.13-6.209,10.062-11.444,0,0,9.729-34.837,8.261-35.6-.35-.181-11.056-7.352-11.056-7.352" transform="translate(-1519.191 -991.241)" fill="#632b20"/>
          <path id="Trazado_902957" data-name="Trazado 902957" d="M1617.209,1432.266l-29.362-1.642c2.929.485,7.185,7,4.061,9.482l28.141,6.64a6.153,6.153,0,0,0,3.5-.485,8.032,8.032,0,0,0,3.968-10.307c-1.383-3.385-3.63-3.1-10.306-3.688" transform="translate(-1390.177 -1166.602)" fill="#632b20"/>
          <rect id="Rectángulo_407786" data-name="Rectángulo 407786" width="145.055" height="6.35" transform="translate(21.784 175.357)" fill="#8f5520"/>
          <rect id="Rectángulo_407787" data-name="Rectángulo 407787" width="145.055" height="6.35" transform="translate(19.898 254.642)" fill="#8f5520"/>
          <rect id="Rectángulo_407788" data-name="Rectángulo 407788" width="145.055" height="6.349" transform="translate(19.898 338.708)" fill="#8f5520"/>
          <rect id="Rectángulo_407789" data-name="Rectángulo 407789" width="6.762" height="265.983" transform="translate(160.075 175.357)" fill="#8f5520"/>
          <rect id="Rectángulo_407790" data-name="Rectángulo 407790" width="34.451" height="81.337" transform="translate(54.559 175.357)" fill="#ce4f38"/>
          <rect id="Rectángulo_407791" data-name="Rectángulo 407791" width="34.451" height="9.093" transform="translate(54.559 175.357)" fill="#ce4f38"/>
          <rect id="Rectángulo_407792" data-name="Rectángulo 407792" width="34.451" height="81.335" transform="translate(81.588 175.359)" fill="#ffaea0"/>
          <rect id="Rectángulo_407793" data-name="Rectángulo 407793" width="34.451" height="9.091" transform="translate(81.588 175.359)" fill="#ffaea0"/>
          <path id="Trazado_902958" data-name="Trazado 902958" d="M967.887,950.2l-9.044,6.125V952.87l3.943-2.668Z" transform="translate(-877.255 -774.842)" fill="#d35540"/>
          <path id="Trazado_902959" data-name="Trazado 902959" d="M980.9,950.2l-13.418,9.091-8.637,5.85v-3.456L975.8,950.2Z" transform="translate(-877.256 -774.842)" fill="#d35540"/>
          <path id="Trazado_902960" data-name="Trazado 902960" d="M993.295,950.2v.412l-34.451,23.342V970.5l16.547-11.208,13.417-9.091Z" transform="translate(-877.256 -774.842)" fill="#d35540"/>
          <path id="Trazado_902961" data-name="Trazado 902961" d="M993.295,981.478v3.453l-34.451,23.342v-3.456L988.4,984.8Z" transform="translate(-877.256 -800.346)" fill="#d35540"/>
          <path id="Trazado_902962" data-name="Trazado 902962" d="M993.295,1029.233v3.456l-34.451,23.342v-3.456Z" transform="translate(-877.256 -839.288)" fill="#d35540"/>
          <path id="Trazado_902963" data-name="Trazado 902963" d="M993.295,1076.991v3.456l-34.451,23.339v-3.456Z" transform="translate(-877.256 -878.233)" fill="#d35540"/>
          <path id="Trazado_902964" data-name="Trazado 902964" d="M993.295,1124.761v3.456l-34.451,23.335V1148.1Z" transform="translate(-877.256 -917.186)" fill="#d35540"/>
          <path id="Trazado_902965" data-name="Trazado 902965" d="M993.295,1172.5v3.456L958.844,1199.3v-3.453Z" transform="translate(-877.256 -956.119)" fill="#d35540"/>
          <path id="Trazado_902966" data-name="Trazado 902966" d="M993.295,1220.26v3.453l-34.451,23.342V1243.6Z" transform="translate(-877.256 -995.061)" fill="#d35540"/>
          <path id="Trazado_902967" data-name="Trazado 902967" d="M997.6,1268.031v3.454l-28.376,19.225h-5.1Z" transform="translate(-881.56 -1034.016)" fill="#d35540"/>
          <path id="Trazado_902968" data-name="Trazado 902968" d="M1055.064,1315.775v3.456l-15.371,10.412h-5.1Z" transform="translate(-939.025 -1072.949)" fill="#d35540"/>
          <path id="Trazado_902969" data-name="Trazado 902969" d="M1112.575,1363.531v3.455l-2.354,1.6h-5.1Z" transform="translate(-996.536 -1111.892)" fill="#d35540"/>
          <rect id="Rectángulo_407794" data-name="Rectángulo 407794" width="24.863" height="81.337" transform="translate(107.93 175.357)" fill="#e0694e"/>
          <rect id="Rectángulo_407795" data-name="Rectángulo 407795" width="24.863" height="9.091" transform="translate(107.93 175.359)" fill="#e0694e"/>
          <path id="Trazado_902970" data-name="Trazado 902970" d="M1109.625,1349.475l-1.6,1.5a.593.593,0,0,0,0,.862.683.683,0,0,0,.923,0l1.591-1.494a.586.586,0,0,0,0-.864.68.68,0,0,0-.918,0" transform="translate(-998.758 -1100.284)" fill="#cc4e38"/>
          <path id="Trazado_902971" data-name="Trazado 902971" d="M1124.179,1349.475l-1.591,1.5a.578.578,0,0,0,0,.862.676.676,0,0,0,.917,0l1.591-1.494a.589.589,0,0,0,0-.864.679.679,0,0,0-.917,0" transform="translate(-1010.624 -1100.284)" fill="#cc4e38"/>
          <path id="Trazado_902972" data-name="Trazado 902972" d="M1139.482,1349.475l-1.59,1.5a.587.587,0,0,0,0,.862.679.679,0,0,0,.919,0l1.588-1.494a.581.581,0,0,0,0-.864.679.679,0,0,0-.917,0" transform="translate(-1023.107 -1100.284)" fill="#cc4e38"/>
          <path id="Trazado_902973" data-name="Trazado 902973" d="M1183.539,1308.541l-1.591,1.492a.584.584,0,0,0,0,.863.682.682,0,0,0,.92,0l1.591-1.495a.586.586,0,0,0,0-.86.683.683,0,0,0-.92,0" transform="translate(-1059.032 -1066.905)" fill="#cc4e38"/>
          <path id="Trazado_902974" data-name="Trazado 902974" d="M1198.1,1308.541l-1.591,1.492a.584.584,0,0,0,0,.863.681.681,0,0,0,.92,0l1.591-1.495a.58.58,0,0,0,0-.86.682.682,0,0,0-.919,0" transform="translate(-1070.902 -1066.905)" fill="#cc4e38"/>
          <path id="Trazado_902975" data-name="Trazado 902975" d="M1213.4,1308.541l-1.591,1.492a.584.584,0,0,0,0,.863.682.682,0,0,0,.92,0l1.591-1.495a.581.581,0,0,0,0-.86.683.683,0,0,0-.92,0" transform="translate(-1083.38 -1066.905)" fill="#cc4e38"/>
          <path id="Trazado_902976" data-name="Trazado 902976" d="M1109.625,1276.578l-1.6,1.495a.593.593,0,0,0,0,.863.685.685,0,0,0,.923,0l1.591-1.5a.584.584,0,0,0,0-.862.678.678,0,0,0-.918,0" transform="translate(-998.758 -1040.84)" fill="#cc4e38"/>
          <path id="Trazado_902977" data-name="Trazado 902977" d="M1124.179,1276.578l-1.591,1.495a.579.579,0,0,0,0,.863.677.677,0,0,0,.917,0l1.591-1.5a.587.587,0,0,0,0-.862.677.677,0,0,0-.917,0" transform="translate(-1010.624 -1040.84)" fill="#cc4e38"/>
          <path id="Trazado_902978" data-name="Trazado 902978" d="M1139.482,1276.578l-1.59,1.495a.588.588,0,0,0,0,.863.68.68,0,0,0,.919,0l1.588-1.5a.579.579,0,0,0,0-.862.677.677,0,0,0-.917,0" transform="translate(-1023.107 -1040.84)" fill="#cc4e38"/>
          <path id="Trazado_902979" data-name="Trazado 902979" d="M1183.539,1235.642l-1.591,1.495a.584.584,0,0,0,0,.862.682.682,0,0,0,.92,0l1.591-1.495a.588.588,0,0,0,0-.862.68.68,0,0,0-.92,0" transform="translate(-1059.032 -1007.459)" fill="#cc4e38"/>
          <path id="Trazado_902980" data-name="Trazado 902980" d="M1198.1,1235.642l-1.591,1.495a.583.583,0,0,0,0,.862.681.681,0,0,0,.92,0l1.591-1.495a.582.582,0,0,0,0-.862.679.679,0,0,0-.919,0" transform="translate(-1070.902 -1007.459)" fill="#cc4e38"/>
          <path id="Trazado_902981" data-name="Trazado 902981" d="M1213.4,1235.642l-1.591,1.495a.584.584,0,0,0,0,.862.682.682,0,0,0,.92,0l1.591-1.495a.584.584,0,0,0,0-.862.68.68,0,0,0-.92,0" transform="translate(-1083.38 -1007.459)" fill="#cc4e38"/>
          <path id="Trazado_902982" data-name="Trazado 902982" d="M1109.625,1203.678l-1.6,1.492a.593.593,0,0,0,0,.863.685.685,0,0,0,.923,0l1.591-1.492a.586.586,0,0,0,0-.863.679.679,0,0,0-.918,0" transform="translate(-998.758 -981.394)" fill="#cc4e38"/>
          <path id="Trazado_902983" data-name="Trazado 902983" d="M1124.179,1203.678l-1.591,1.492a.579.579,0,0,0,0,.863.677.677,0,0,0,.917,0l1.591-1.492a.588.588,0,0,0,0-.863.678.678,0,0,0-.917,0" transform="translate(-1010.624 -981.394)" fill="#cc4e38"/>
          <path id="Trazado_902984" data-name="Trazado 902984" d="M1139.482,1203.678l-1.59,1.492a.588.588,0,0,0,0,.863.68.68,0,0,0,.919,0l1.588-1.492a.58.58,0,0,0,0-.863.678.678,0,0,0-.917,0" transform="translate(-1023.107 -981.394)" fill="#cc4e38"/>
          <path id="Trazado_902985" data-name="Trazado 902985" d="M1183.539,1162.73l-1.591,1.495a.585.585,0,0,0,0,.863.682.682,0,0,0,.92,0l1.591-1.5a.588.588,0,0,0,0-.863.682.682,0,0,0-.92,0" transform="translate(-1059.032 -948.003)" fill="#cc4e38"/>
          <path id="Trazado_902986" data-name="Trazado 902986" d="M1198.1,1162.73l-1.591,1.495a.584.584,0,0,0,0,.863.682.682,0,0,0,.92,0l1.591-1.5a.583.583,0,0,0,0-.863.681.681,0,0,0-.919,0" transform="translate(-1070.902 -948.003)" fill="#cc4e38"/>
          <path id="Trazado_902987" data-name="Trazado 902987" d="M1213.4,1162.73l-1.591,1.495a.585.585,0,0,0,0,.863.682.682,0,0,0,.92,0l1.591-1.5a.584.584,0,0,0,0-.863.682.682,0,0,0-.92,0" transform="translate(-1083.38 -948.003)" fill="#cc4e38"/>
          <path id="Trazado_902988" data-name="Trazado 902988" d="M1109.625,1130.78l-1.6,1.495a.59.59,0,0,0,0,.86.686.686,0,0,0,.923,0l1.591-1.492a.585.585,0,0,0,0-.862.677.677,0,0,0-.918,0" transform="translate(-998.758 -921.949)" fill="#cc4e38"/>
          <path id="Trazado_902989" data-name="Trazado 902989" d="M1124.179,1130.78l-1.591,1.495a.576.576,0,0,0,0,.86.678.678,0,0,0,.917,0l1.591-1.492a.587.587,0,0,0,0-.862.676.676,0,0,0-.917,0" transform="translate(-1010.624 -921.949)" fill="#cc4e38"/>
          <path id="Trazado_902990" data-name="Trazado 902990" d="M1139.482,1130.78l-1.59,1.495a.584.584,0,0,0,0,.86.681.681,0,0,0,.919,0l1.588-1.492a.579.579,0,0,0,0-.862.676.676,0,0,0-.917,0" transform="translate(-1023.107 -921.949)" fill="#cc4e38"/>
          <path id="Trazado_902991" data-name="Trazado 902991" d="M1183.539,1089.846l-1.591,1.495a.581.581,0,0,0,0,.86.682.682,0,0,0,.92,0l1.591-1.493a.588.588,0,0,0,0-.862.68.68,0,0,0-.92,0" transform="translate(-1059.032 -888.569)" fill="#cc4e38"/>
          <path id="Trazado_902992" data-name="Trazado 902992" d="M1198.1,1089.846l-1.591,1.495a.581.581,0,0,0,0,.86.681.681,0,0,0,.92,0l1.591-1.493a.582.582,0,0,0,0-.862.679.679,0,0,0-.919,0" transform="translate(-1070.902 -888.569)" fill="#cc4e38"/>
          <path id="Trazado_902993" data-name="Trazado 902993" d="M1213.4,1089.846l-1.591,1.495a.581.581,0,0,0,0,.86.682.682,0,0,0,.92,0l1.591-1.493a.584.584,0,0,0,0-.862.68.68,0,0,0-.92,0" transform="translate(-1083.38 -888.569)" fill="#cc4e38"/>
          <path id="Trazado_902994" data-name="Trazado 902994" d="M1109.625,1057.9l-1.6,1.493a.593.593,0,0,0,0,.862.69.69,0,0,0,.923,0l1.591-1.495a.582.582,0,0,0,0-.86.678.678,0,0,0-.918,0" transform="translate(-998.758 -862.515)" fill="#cc4e38"/>
          <path id="Trazado_902995" data-name="Trazado 902995" d="M1124.179,1057.9l-1.591,1.493a.579.579,0,0,0,0,.862.682.682,0,0,0,.917,0l1.591-1.495a.585.585,0,0,0,0-.86.677.677,0,0,0-.917,0" transform="translate(-1010.624 -862.515)" fill="#cc4e38"/>
          <path id="Trazado_902996" data-name="Trazado 902996" d="M1139.482,1057.9l-1.59,1.493a.587.587,0,0,0,0,.862.685.685,0,0,0,.919,0l1.588-1.495a.577.577,0,0,0,0-.86.677.677,0,0,0-.917,0" transform="translate(-1023.107 -862.515)" fill="#cc4e38"/>
          <path id="Trazado_902997" data-name="Trazado 902997" d="M1183.539,1016.947l-1.591,1.495a.581.581,0,0,0,0,.86.681.681,0,0,0,.92,0l1.591-1.492a.589.589,0,0,0,0-.863.681.681,0,0,0-.92,0" transform="translate(-1059.032 -829.124)" fill="#cc4e38"/>
          <path id="Trazado_902998" data-name="Trazado 902998" d="M1198.1,1016.947l-1.591,1.495a.581.581,0,0,0,0,.86.681.681,0,0,0,.92,0l1.591-1.492a.583.583,0,0,0,0-.863.68.68,0,0,0-.919,0" transform="translate(-1070.902 -829.124)" fill="#cc4e38"/>
          <path id="Trazado_902999" data-name="Trazado 902999" d="M1213.4,1016.947l-1.591,1.495a.581.581,0,0,0,0,.86.681.681,0,0,0,.92,0l1.591-1.492a.584.584,0,0,0,0-.863.681.681,0,0,0-.92,0" transform="translate(-1083.38 -829.124)" fill="#cc4e38"/>
          <path id="Trazado_903000" data-name="Trazado 903000" d="M1109.625,977.528l-1.6,1.492a.593.593,0,0,0,0,.862.684.684,0,0,0,.923,0l1.591-1.495a.582.582,0,0,0,0-.86.678.678,0,0,0-.918,0" transform="translate(-998.758 -796.98)" fill="#cc4e38"/>
          <path id="Trazado_903001" data-name="Trazado 903001" d="M1124.179,977.528l-1.591,1.492a.579.579,0,0,0,0,.862.676.676,0,0,0,.917,0l1.591-1.495a.585.585,0,0,0,0-.86.677.677,0,0,0-.917,0" transform="translate(-1010.624 -796.98)" fill="#cc4e38"/>
          <path id="Trazado_903002" data-name="Trazado 903002" d="M1139.482,977.528l-1.59,1.492a.587.587,0,0,0,0,.862.679.679,0,0,0,.919,0l1.588-1.495a.577.577,0,0,0,0-.86.677.677,0,0,0-.917,0" transform="translate(-1023.107 -796.98)" fill="#cc4e38"/>
          <path id="Trazado_903003" data-name="Trazado 903003" d="M1178.255,950.2l-1.456,1.363-.459.184-.461-.184a.582.582,0,0,1,0-.857l.539-.505Z" transform="translate(-1054.084 -774.842)" fill="#cc4e38"/>
          <path id="Trazado_903004" data-name="Trazado 903004" d="M1192.814,950.2l-1.454,1.363-.463.184-.456-.184a.576.576,0,0,1,0-.857l.539-.505Z" transform="translate(-1065.957 -774.842)" fill="#cc4e38"/>
          <path id="Trazado_903005" data-name="Trazado 903005" d="M1208.124,950.2l-1.453,1.363-.458.184-.461-.184a.581.581,0,0,1,0-.857l.539-.505Z" transform="translate(-1078.442 -774.842)" fill="#cc4e38"/>
          <rect id="Rectángulo_407796" data-name="Rectángulo 407796" width="27.863" height="91.094" transform="translate(73.613 338.744)" fill="#e29100"/>
          <rect id="Rectángulo_407797" data-name="Rectángulo 407797" width="27.863" height="10.184" transform="translate(73.613 338.744)" fill="#e29100"/>
          <path id="Trazado_903006" data-name="Trazado 903006" d="M924.346,1837.713c0,3.316-3.21,6.007-7.171,6.007a8.53,8.53,0,0,1-1.539-.137v-8.073h8.216a5.149,5.149,0,0,1,.495,2.2" transform="translate(-842.022 -1496.767)" fill="#f2a501"/>
          <path id="Trazado_903007" data-name="Trazado 903007" d="M1011.654,1849.367v8.166a7.847,7.847,0,0,1-5.267,1.927,7.2,7.2,0,0,1-6.772-4.036,5.132,5.132,0,0,1-.4-1.974c0-3.319,3.213-6.008,7.171-6.008a7.862,7.862,0,0,1,5.267,1.925" transform="translate(-910.178 -1506.497)" fill="#f2a501"/>
          <path id="Trazado_903008" data-name="Trazado 903008" d="M924.346,1920.134c0,3.319-3.21,6.012-7.171,6.012a8.312,8.312,0,0,1-1.539-.141v-11.739a8.322,8.322,0,0,1,1.539-.142c3.961,0,7.171,2.692,7.171,6.01" transform="translate(-842.022 -1560.871)" fill="#f2a501"/>
          <path id="Trazado_903009" data-name="Trazado 903009" d="M1011.654,1948.615v8.168a7.862,7.862,0,0,1-5.267,1.925c-3.959,0-7.171-2.689-7.171-6.006s3.213-6.012,7.171-6.012a7.861,7.861,0,0,1,5.267,1.924" transform="translate(-910.178 -1587.428)" fill="#f2a501"/>
          <path id="Trazado_903010" data-name="Trazado 903010" d="M924.346,2019.394c0,3.316-3.21,6.01-7.171,6.01a8.528,8.528,0,0,1-1.539-.139v-11.741a8.462,8.462,0,0,1,1.539-.141c3.961,0,7.171,2.69,7.171,6.01" transform="translate(-842.022 -1641.814)" fill="#f2a501"/>
          <path id="Trazado_903011" data-name="Trazado 903011" d="M1011.654,2047.875v8.169a7.861,7.861,0,0,1-5.267,1.925c-3.959,0-7.171-2.692-7.171-6.008s3.213-6.01,7.171-6.01a7.865,7.865,0,0,1,5.267,1.924" transform="translate(-910.178 -1668.371)" fill="#f2a501"/>
          <path id="Trazado_903012" data-name="Trazado 903012" d="M924.346,2118.657c0,3.315-3.21,6.007-7.171,6.007a8.529,8.529,0,0,1-1.539-.138v-11.74a8.25,8.25,0,0,1,1.539-.14C921.136,2112.646,924.346,2115.335,924.346,2118.657Z" transform="translate(-842.022 -1722.757)" fill="#f2a501"/>
          <path id="Trazado_903013" data-name="Trazado 903013" d="M1011.654,2147.136v8.169a7.864,7.864,0,0,1-5.267,1.928c-3.959,0-7.171-2.692-7.171-6.011s3.213-6.007,7.171-6.007a7.859,7.859,0,0,1,5.267,1.921" transform="translate(-910.178 -1749.315)" fill="#f2a501"/>
          <path id="Trazado_903014" data-name="Trazado 903014" d="M924.346,2217.9c0,3.316-3.21,6.013-7.171,6.013a8.526,8.526,0,0,1-1.539-.143v-11.739a8.333,8.333,0,0,1,1.539-.141c3.961,0,7.171,2.691,7.171,6.01" transform="translate(-842.022 -1803.688)" fill="#f2a501"/>
          <path id="Trazado_903015" data-name="Trazado 903015" d="M1011.654,2246.386v8.169a7.854,7.854,0,0,1-5.267,1.924c-3.959,0-7.171-2.688-7.171-6s3.213-6.014,7.171-6.014a7.862,7.862,0,0,1,5.267,1.925" transform="translate(-910.178 -1830.245)" fill="#f2a501"/>
          <rect id="Rectángulo_407798" data-name="Rectángulo 407798" width="27.858" height="91.094" transform="translate(99.8 338.744)" fill="#cc8200"/>
          <rect id="Rectángulo_407799" data-name="Rectángulo 407799" width="27.858" height="10.184" transform="translate(99.8 338.744)" fill="#db8d00"/>
          <rect id="Rectángulo_407800" data-name="Rectángulo 407800" width="27.858" height="91.094" transform="translate(126.023 338.744)" fill="#f2a501"/>
          <rect id="Rectángulo_407801" data-name="Rectángulo 407801" width="27.858" height="10.184" transform="translate(126.023 338.744)" fill="#f2a501"/>
          <path id="Trazado_903016" data-name="Trazado 903016" d="M1227.478,1848.5v1.373a4.651,4.651,0,0,1-2.865-1.653,2.871,2.871,0,0,0-4.741,0,4.328,4.328,0,0,1-6.853,0,2.871,2.871,0,0,0-4.741,0,4.326,4.326,0,0,1-6.85,0,3.462,3.462,0,0,0-1.808-1.2v-1.37a4.647,4.647,0,0,1,2.863,1.648,2.865,2.865,0,0,0,4.738,0,4.331,4.331,0,0,1,6.855,0,2.866,2.866,0,0,0,4.739,0,4.33,4.33,0,0,1,6.854,0,3.424,3.424,0,0,0,1.808,1.2" transform="translate(-1073.598 -1505.01)" fill="#e29100"/>
          <path id="Trazado_903017" data-name="Trazado 903017" d="M1227.478,1881.886v1.373a4.653,4.653,0,0,1-2.865-1.655l-.456-.446a2.681,2.681,0,0,0-3.832,0l-.454.446a4.325,4.325,0,0,1-6.853,0l-.457-.446a2.677,2.677,0,0,0-3.828,0l-.456.446a4.322,4.322,0,0,1-6.85,0l-.456-.446a2.677,2.677,0,0,0-1.352-.754v-1.368a4.652,4.652,0,0,1,2.863,1.65l.481.472a2.675,2.675,0,0,0,3.775,0l.481-.472a4.327,4.327,0,0,1,6.855,0l.481.472a2.675,2.675,0,0,0,3.775,0l.482-.472a4.326,4.326,0,0,1,6.854,0l.481.472A2.675,2.675,0,0,0,1227.478,1881.886Z" transform="translate(-1073.598 -1532.23)" fill="#e29100"/>
          <path id="Trazado_903018" data-name="Trazado 903018" d="M1227.478,1915.255v1.373a4.661,4.661,0,0,1-2.865-1.653,2.868,2.868,0,0,0-4.741,0,4.327,4.327,0,0,1-6.853,0,2.868,2.868,0,0,0-4.741,0,4.325,4.325,0,0,1-6.85,0,3.466,3.466,0,0,0-1.808-1.2v-1.37a4.666,4.666,0,0,1,2.863,1.65,2.865,2.865,0,0,0,4.738,0,4.326,4.326,0,0,1,6.855,0,2.866,2.866,0,0,0,4.739,0,4.325,4.325,0,0,1,6.854,0,3.439,3.439,0,0,0,1.808,1.2" transform="translate(-1073.598 -1559.441)" fill="#e29100"/>
          <path id="Trazado_903019" data-name="Trazado 903019" d="M1227.478,1948.648v1.37a4.649,4.649,0,0,1-2.865-1.65,2.868,2.868,0,0,0-4.741,0,4.328,4.328,0,0,1-6.853,0,2.868,2.868,0,0,0-4.741,0,4.326,4.326,0,0,1-6.85,0,3.428,3.428,0,0,0-1.808-1.2V1945.8a4.676,4.676,0,0,1,2.863,1.648,2.864,2.864,0,0,0,4.738,0,4.335,4.335,0,0,1,6.855,0,2.865,2.865,0,0,0,4.739,0,4.334,4.334,0,0,1,6.854,0,3.429,3.429,0,0,0,1.808,1.2" transform="translate(-1073.598 -1586.674)" fill="#e29100"/>
          <path id="Trazado_903020" data-name="Trazado 903020" d="M1227.478,1982.018v1.371a4.641,4.641,0,0,1-2.865-1.653,2.871,2.871,0,0,0-4.741,0,4.323,4.323,0,0,1-6.853,0,2.871,2.871,0,0,0-4.741,0,4.321,4.321,0,0,1-6.85,0,3.466,3.466,0,0,0-1.808-1.2v-1.37a4.65,4.65,0,0,1,2.863,1.651,2.865,2.865,0,0,0,4.738,0,4.326,4.326,0,0,1,6.855,0,2.866,2.866,0,0,0,4.739,0,4.325,4.325,0,0,1,6.854,0,3.442,3.442,0,0,0,1.808,1.2" transform="translate(-1073.598 -1613.884)" fill="#e29100"/>
          <path id="Trazado_903021" data-name="Trazado 903021" d="M1227.478,2015.4v1.371a4.674,4.674,0,0,1-2.865-1.65,2.864,2.864,0,0,0-4.741,0,4.328,4.328,0,0,1-6.853,0,2.864,2.864,0,0,0-4.741,0,4.326,4.326,0,0,1-6.85,0,3.439,3.439,0,0,0-1.808-1.2v-1.37a4.649,4.649,0,0,1,2.863,1.65,2.866,2.866,0,0,0,4.738,0,4.33,4.33,0,0,1,6.855,0,2.867,2.867,0,0,0,4.739,0,4.329,4.329,0,0,1,6.854,0,3.442,3.442,0,0,0,1.808,1.2" transform="translate(-1073.598 -1641.104)" fill="#e29100"/>
          <path id="Trazado_903022" data-name="Trazado 903022" d="M1227.478,2048.782v1.37a4.647,4.647,0,0,1-2.865-1.653,2.868,2.868,0,0,0-4.741,0,4.324,4.324,0,0,1-6.853,0,2.868,2.868,0,0,0-4.741,0,4.322,4.322,0,0,1-6.85,0,3.427,3.427,0,0,0-1.808-1.2v-1.373a4.663,4.663,0,0,1,2.863,1.649,2.864,2.864,0,0,0,4.738,0,4.331,4.331,0,0,1,6.855,0,2.865,2.865,0,0,0,4.739,0,4.33,4.33,0,0,1,6.854,0,3.463,3.463,0,0,0,1.808,1.2" transform="translate(-1073.598 -1668.325)" fill="#e29100"/>
          <path id="Trazado_903023" data-name="Trazado 903023" d="M1227.478,2082.164v1.37a4.661,4.661,0,0,1-2.865-1.656,2.873,2.873,0,0,0-4.741,0,4.318,4.318,0,0,1-6.853,0,2.873,2.873,0,0,0-4.741,0,4.316,4.316,0,0,1-6.85,0,3.469,3.469,0,0,0-1.808-1.2v-1.37a4.648,4.648,0,0,1,2.863,1.65,2.868,2.868,0,0,0,4.738,0,4.331,4.331,0,0,1,6.855,0,2.869,2.869,0,0,0,4.739,0,4.33,4.33,0,0,1,6.854,0,3.445,3.445,0,0,0,1.808,1.2" transform="translate(-1073.598 -1695.546)" fill="#e29100"/>
          <path id="Trazado_903024" data-name="Trazado 903024" d="M1227.478,2115.543v1.371a4.655,4.655,0,0,1-2.865-1.653,2.874,2.874,0,0,0-4.741,0,4.325,4.325,0,0,1-6.853,0,2.874,2.874,0,0,0-4.741,0,4.322,4.322,0,0,1-6.85,0,3.436,3.436,0,0,0-1.808-1.194v-1.373a4.65,4.65,0,0,1,2.863,1.65,2.869,2.869,0,0,0,4.738,0,4.33,4.33,0,0,1,6.855,0,2.87,2.87,0,0,0,4.739,0,4.329,4.329,0,0,1,6.854,0,3.423,3.423,0,0,0,1.808,1.2" transform="translate(-1073.598 -1722.769)" fill="#e29100"/>
          <path id="Trazado_903025" data-name="Trazado 903025" d="M1227.478,2148.916v1.367a4.638,4.638,0,0,1-2.865-1.655,2.874,2.874,0,0,0-4.741,0,4.317,4.317,0,0,1-6.853,0,2.874,2.874,0,0,0-4.741,0,4.314,4.314,0,0,1-6.85,0,3.464,3.464,0,0,0-1.808-1.2v-1.371a4.671,4.671,0,0,1,2.863,1.65,2.865,2.865,0,0,0,4.738,0,4.33,4.33,0,0,1,6.855,0,2.866,2.866,0,0,0,4.739,0,4.329,4.329,0,0,1,6.854,0,3.454,3.454,0,0,0,1.808,1.2" transform="translate(-1073.598 -1749.977)" fill="#e29100"/>
          <path id="Trazado_903026" data-name="Trazado 903026" d="M1227.478,2182.284v1.371a4.634,4.634,0,0,1-2.865-1.655,2.871,2.871,0,0,0-4.741,0,4.319,4.319,0,0,1-6.853,0,2.871,2.871,0,0,0-4.741,0,4.317,4.317,0,0,1-6.85,0,3.484,3.484,0,0,0-1.808-1.2v-1.371a4.647,4.647,0,0,1,2.863,1.653,2.868,2.868,0,0,0,4.738,0,4.323,4.323,0,0,1,6.855,0,2.869,2.869,0,0,0,4.739,0,4.323,4.323,0,0,1,6.854,0,3.433,3.433,0,0,0,1.808,1.2" transform="translate(-1073.598 -1777.189)" fill="#e29100"/>
          <path id="Trazado_903027" data-name="Trazado 903027" d="M1227.478,2215.667v1.371a4.653,4.653,0,0,1-2.865-1.656,2.875,2.875,0,0,0-4.741,0,4.323,4.323,0,0,1-6.853,0,2.875,2.875,0,0,0-4.741,0,4.321,4.321,0,0,1-6.85,0,3.479,3.479,0,0,0-1.808-1.2v-1.371a4.653,4.653,0,0,1,2.863,1.649,2.867,2.867,0,0,0,4.738,0,4.329,4.329,0,0,1,6.855,0,2.868,2.868,0,0,0,4.739,0,4.328,4.328,0,0,1,6.854,0,3.465,3.465,0,0,0,1.808,1.2" transform="translate(-1073.598 -1804.41)" fill="#e29100"/>
          <path id="Trazado_903028" data-name="Trazado 903028" d="M1227.478,2249.048v1.37a4.653,4.653,0,0,1-2.865-1.656,2.872,2.872,0,0,0-4.741,0,4.319,4.319,0,0,1-6.853,0,2.872,2.872,0,0,0-4.741,0,4.317,4.317,0,0,1-6.85,0,3.466,3.466,0,0,0-1.808-1.2v-1.37a4.646,4.646,0,0,1,2.863,1.651,2.865,2.865,0,0,0,4.738,0,4.326,4.326,0,0,1,6.855,0,2.866,2.866,0,0,0,4.739,0,4.325,4.325,0,0,1,6.854,0,3.472,3.472,0,0,0,1.808,1.2" transform="translate(-1073.598 -1831.631)" fill="#e29100"/>
          <path id="Trazado_903029" data-name="Trazado 903029" d="M1227.478,2282.416v1.373a4.659,4.659,0,0,1-2.865-1.655,2.868,2.868,0,0,0-4.741,0,4.324,4.324,0,0,1-6.853,0,2.868,2.868,0,0,0-4.741,0,4.322,4.322,0,0,1-6.85,0,3.465,3.465,0,0,0-1.808-1.2v-1.372a4.645,4.645,0,0,1,2.863,1.654,2.868,2.868,0,0,0,4.738,0,4.321,4.321,0,0,1,6.855,0,2.869,2.869,0,0,0,4.739,0,4.32,4.32,0,0,1,6.854,0,3.437,3.437,0,0,0,1.808,1.2" transform="translate(-1073.598 -1858.84)" fill="#e29100"/>
          <path id="Trazado_903030" data-name="Trazado 903030" d="M1077.735,1915.809a1.023,1.023,0,1,1-1.018-.956.988.988,0,0,1,1.018.956" transform="translate(-972.542 -1561.467)" fill="#f2a501"/>
          <path id="Trazado_903031" data-name="Trazado 903031" d="M1101.627,1969.829a1.021,1.021,0,1,1-1.018-.958.987.987,0,0,1,1.018.958" transform="translate(-992.027 -1605.516)" fill="#f2a501"/>
          <path id="Trazado_903032" data-name="Trazado 903032" d="M1127.347,2041.717a1.023,1.023,0,1,1-1.018-.958.989.989,0,0,1,1.018.958" transform="translate(-1012.997 -1664.137)" fill="#f2a501"/>
          <path id="Trazado_903033" data-name="Trazado 903033" d="M1143.276,2090.527a1.021,1.021,0,1,1-1.018-.958.987.987,0,0,1,1.018.958" transform="translate(-1025.989 -1703.939)" fill="#f2a501"/>
          <path id="Trazado_903034" data-name="Trazado 903034" d="M1116.3,2140.979a1.021,1.021,0,1,1-1.016-.96.986.986,0,0,1,1.016.96" transform="translate(-1003.987 -1745.078)" fill="#f2a501"/>
          <path id="Trazado_903035" data-name="Trazado 903035" d="M1107.157,2181.039a1.022,1.022,0,1,1-1.021-.956.991.991,0,0,1,1.021.956" transform="translate(-996.536 -1777.749)" fill="#f2a501"/>
          <path id="Trazado_903036" data-name="Trazado 903036" d="M1083.279,2206.1a1.021,1.021,0,1,1-1.021-.96.991.991,0,0,1,1.021.96" transform="translate(-977.064 -1798.182)" fill="#f2a501"/>
          <path id="Trazado_903037" data-name="Trazado 903037" d="M1156.476,2146.171a1.023,1.023,0,1,1-1.021-.956.991.991,0,0,1,1.021.956" transform="translate(-1036.75 -1749.315)" fill="#f2a501"/>
          <path id="Trazado_903038" data-name="Trazado 903038" d="M1174.08,2113.6a1.024,1.024,0,1,1-1.023-.956.992.992,0,0,1,1.023.956" transform="translate(-1051.104 -1722.757)" fill="#f2a501"/>
          <path id="Trazado_903039" data-name="Trazado 903039" d="M1145.4,2186.224a1.024,1.024,0,1,1-1.021-.961.991.991,0,0,1,1.021.961" transform="translate(-1027.718 -1781.972)" fill="#f2a501"/>
          <path id="Trazado_903040" data-name="Trazado 903040" d="M1159.847,2207.669a1.024,1.024,0,1,1-1.026-.956.994.994,0,0,1,1.026.956" transform="translate(-1039.498 -1799.464)" fill="#f2a501"/>
          <path id="Trazado_903041" data-name="Trazado 903041" d="M1156.476,2242.377a1.023,1.023,0,1,1-1.021-.961.992.992,0,0,1,1.021.961" transform="translate(-1036.75 -1827.763)" fill="#f2a501"/>
          <path id="Trazado_903042" data-name="Trazado 903042" d="M1132.206,2283.657a1.025,1.025,0,1,1-1.021-.958.991.991,0,0,1,1.021.958" transform="translate(-1016.957 -1861.427)" fill="#f2a501"/>
          <path id="Trazado_903043" data-name="Trazado 903043" d="M1092.1,2305.358a1.024,1.024,0,1,1-1.023-.956.993.993,0,0,1,1.023.956" transform="translate(-984.254 -1879.125)" fill="#f2a501"/>
          <path id="Trazado_903044" data-name="Trazado 903044" d="M1098.089,2225.4a1.021,1.021,0,1,1-1.018-.958.987.987,0,0,1,1.018.958" transform="translate(-989.141 -1813.922)" fill="#f2a501"/>
          <path id="Trazado_903045" data-name="Trazado 903045" d="M1098.089,2263.022a1.022,1.022,0,1,1-1.018-.957.987.987,0,0,1,1.018.957" transform="translate(-989.141 -1844.601)" fill="#f2a501"/>
          <path id="Trazado_903046" data-name="Trazado 903046" d="M1154.321,2272.782a1.02,1.02,0,1,1-1.018-.961.987.987,0,0,1,1.018.961" transform="translate(-1034.998 -1852.556)" fill="#f2a501"/>
          <path id="Trazado_903047" data-name="Trazado 903047" d="M1107.157,2095.717a1.022,1.022,0,1,1-1.021-.956.991.991,0,0,1,1.021.956" transform="translate(-996.536 -1708.172)" fill="#f2a501"/>
          <path id="Trazado_903048" data-name="Trazado 903048" d="M1072.221,2135.784a1.023,1.023,0,1,1-1.023-.958.994.994,0,0,1,1.023.958" transform="translate(-968.045 -1740.843)" fill="#f2a501"/>
          <path id="Trazado_903049" data-name="Trazado 903049" d="M1086.578,2064.9a1.022,1.022,0,1,1-1.021-.956.989.989,0,0,1,1.021.956" transform="translate(-979.754 -1683.047)" fill="#f2a501"/>
          <path id="Trazado_903050" data-name="Trazado 903050" d="M1098.089,1991.317a1.022,1.022,0,1,1-1.018-.957.987.987,0,0,1,1.018.957" transform="translate(-989.141 -1623.039)" fill="#f2a501"/>
          <path id="Trazado_903051" data-name="Trazado 903051" d="M1083.279,2022.159a1.022,1.022,0,1,1-1.021-.956.991.991,0,0,1,1.021.956" transform="translate(-977.064 -1648.19)" fill="#f2a501"/>
          <path id="Trazado_903052" data-name="Trazado 903052" d="M1101.627,1892.254a1.022,1.022,0,1,1-1.018-.955.989.989,0,0,1,1.018.955" transform="translate(-992.027 -1542.26)" fill="#f2a501"/>
          <path id="Trazado_903053" data-name="Trazado 903053" d="M1086.578,1853.525a1.021,1.021,0,1,1-1.021-.958.989.989,0,0,1,1.021.958" transform="translate(-979.754 -1510.675)" fill="#f2a501"/>
          <path id="Trazado_903054" data-name="Trazado 903054" d="M1127.347,1865.484a1.023,1.023,0,1,1-1.018-.958.987.987,0,0,1,1.018.958" transform="translate(-1012.997 -1520.428)" fill="#f2a501"/>
          <path id="Trazado_903055" data-name="Trazado 903055" d="M1154.321,1848.343a1.02,1.02,0,1,1-1.018-.956.988.988,0,0,1,1.018.956" transform="translate(-1034.998 -1506.451)" fill="#f2a501"/>
          <path id="Trazado_903056" data-name="Trazado 903056" d="M1121.842,1931.236a1.022,1.022,0,1,1-1.023-.956.991.991,0,0,1,1.023.956" transform="translate(-1008.51 -1574.047)" fill="#f2a501"/>
          <path id="Trazado_903057" data-name="Trazado 903057" d="M1137.749,1958.739a1.023,1.023,0,1,1-1.022-.958.993.993,0,0,1,1.022.958" transform="translate(-1021.48 -1596.473)" fill="#f2a501"/>
          <path id="Trazado_903058" data-name="Trazado 903058" d="M1148.8,1974.8a1.02,1.02,0,1,1-1.018-.959.988.988,0,0,1,1.018.959" transform="translate(-1030.5 -1609.568)" fill="#f2a501"/>
          <path id="Trazado_903059" data-name="Trazado 903059" d="M1179.61,1936.423a1.023,1.023,0,1,1-1.018-.962.993.993,0,0,1,1.018.962" transform="translate(-1055.615 -1578.272)" fill="#f2a501"/>
          <path id="Trazado_903060" data-name="Trazado 903060" d="M1121.842,1999.7a1.021,1.021,0,1,1-1.023-.959.992.992,0,0,1,1.023.959" transform="translate(-1008.51 -1629.874)" fill="#f2a501"/>
          <path id="Trazado_903061" data-name="Trazado 903061" d="M1160.416,2016.967a1.021,1.021,0,1,1-1.02-.958.989.989,0,0,1,1.02.958" transform="translate(-1039.966 -1643.954)" fill="#f2a501"/>
          <path id="Trazado_903062" data-name="Trazado 903062" d="M1150.944,2059.713a1.023,1.023,0,1,1-1.021-.958.993.993,0,0,1,1.021.958" transform="translate(-1032.24 -1678.811)" fill="#f2a501"/>
          <path id="Trazado_903063" data-name="Trazado 903063" d="M1174.08,2046.91a1.024,1.024,0,1,1-1.023-.959.992.992,0,0,1,1.023.959" transform="translate(-1051.104 -1668.371)" fill="#f2a501"/>
          <path id="Trazado_903064" data-name="Trazado 903064" d="M1143.276,1915.434a1.021,1.021,0,1,1-1.018-.959.99.99,0,0,1,1.018.959" transform="translate(-1025.989 -1561.158)" fill="#f2a501"/>
          <path id="Trazado_903065" data-name="Trazado 903065" d="M1174.08,1865.484a1.024,1.024,0,1,1-1.023-.958.992.992,0,0,1,1.023.958" transform="translate(-1051.104 -1520.428)" fill="#f2a501"/>
          <rect id="Rectángulo_407802" data-name="Rectángulo 407802" width="150.123" height="18.324" transform="translate(16.714 423.055)" fill="#8f5520"/>
          <rect id="Rectángulo_407803" data-name="Rectángulo 407803" width="165.052" height="6.35" transform="translate(9.618 435.029)" fill="#613914"/>
          <rect id="Rectángulo_407804" data-name="Rectángulo 407804" width="28.824" height="81.337" transform="translate(54.94 254.471)" fill="#6b75e2"/>
          <rect id="Rectángulo_407805" data-name="Rectángulo 407805" width="28.824" height="9.093" transform="translate(54.94 254.471)" fill="#6b75e2"/>
          <path id="Trazado_903066" data-name="Trazado 903066" d="M938.832,1382.438a1.55,1.55,0,1,1,1.873-1.516,1.723,1.723,0,0,1-1.873,1.516" transform="translate(-859.411 -1124.837)" fill="#fff"/>
          <path id="Trazado_903067" data-name="Trazado 903067" d="M939.2,1450.16a1.551,1.551,0,1,1,1.873-1.516,1.723,1.723,0,0,1-1.873,1.516" transform="translate(-859.709 -1180.059)" fill="#fff"/>
          <path id="Trazado_903068" data-name="Trazado 903068" d="M938.832,1522.929a1.55,1.55,0,1,1,1.873-1.518,1.724,1.724,0,0,1-1.873,1.518" transform="translate(-859.411 -1239.401)" fill="#fff"/>
          <path id="Trazado_903069" data-name="Trazado 903069" d="M939.2,1590.647a1.55,1.55,0,1,1,1.873-1.515,1.723,1.723,0,0,1-1.873,1.515" transform="translate(-859.709 -1294.621)" fill="#fff"/>
          <path id="Trazado_903070" data-name="Trazado 903070" d="M938.832,1663.406a1.55,1.55,0,1,1,1.873-1.516,1.723,1.723,0,0,1-1.873,1.516" transform="translate(-859.411 -1353.952)" fill="#fff"/>
          <path id="Trazado_903071" data-name="Trazado 903071" d="M939.2,1731.124a1.55,1.55,0,1,1,1.873-1.516,1.723,1.723,0,0,1-1.873,1.516" transform="translate(-859.709 -1409.173)" fill="#fff"/>
          <path id="Trazado_903072" data-name="Trazado 903072" d="M938.832,1803.881a1.55,1.55,0,1,1,1.873-1.515,1.722,1.722,0,0,1-1.873,1.515" transform="translate(-859.411 -1468.503)" fill="#fff"/>
          <rect id="Rectángulo_407806" data-name="Rectángulo 407806" width="34.451" height="81.337" transform="translate(119.43 254.59)" fill="#6b75e2"/>
          <rect id="Rectángulo_407807" data-name="Rectángulo 407807" width="34.451" height="9.094" transform="translate(119.43 254.59)" fill="#6b75e2"/>
          <rect id="Rectángulo_407808" data-name="Rectángulo 407808" width="34.451" height="81.334" transform="translate(81.588 254.59)" fill="#6b75e2"/>
          <rect id="Rectángulo_407809" data-name="Rectángulo 407809" width="34.451" height="9.094" transform="translate(81.588 254.59)" fill="#6b75e2"/>
          <path id="Trazado_903073" data-name="Trazado 903073" d="M967.887,1379.52l-9.044,6.127v-3.455l3.943-2.672Z" transform="translate(-877.255 -1124.929)" fill="#a3aeff"/>
          <path id="Trazado_903074" data-name="Trazado 903074" d="M980.9,1379.52l-13.418,9.094-8.637,5.849v-3.455L975.8,1379.52Z" transform="translate(-877.256 -1124.929)" fill="#a3aeff"/>
          <path id="Trazado_903075" data-name="Trazado 903075" d="M993.295,1379.52v.415l-34.451,23.342v-3.455l16.547-11.207,13.417-9.094Z" transform="translate(-877.256 -1124.929)" fill="#a3aeff"/>
          <path id="Trazado_903076" data-name="Trazado 903076" d="M993.295,1410.8v3.457l-34.451,23.341v-3.455l29.557-20.021Z" transform="translate(-877.256 -1150.434)" fill="#a3aeff"/>
          <path id="Trazado_903077" data-name="Trazado 903077" d="M993.295,1458.566v3.456l-34.451,23.343v-3.456Z" transform="translate(-877.256 -1189.387)" fill="#a3aeff"/>
          <path id="Trazado_903078" data-name="Trazado 903078" d="M993.295,1506.324v3.456l-34.451,23.337v-3.454Z" transform="translate(-877.256 -1228.332)" fill="#a3aeff"/>
          <path id="Trazado_903079" data-name="Trazado 903079" d="M993.295,1554.094v3.455l-34.451,23.335v-3.456Z" transform="translate(-877.256 -1267.286)" fill="#a3aeff"/>
          <path id="Trazado_903080" data-name="Trazado 903080" d="M993.295,1601.822v3.456l-34.451,23.342v-3.456Z" transform="translate(-877.256 -1306.206)" fill="#a3aeff"/>
          <path id="Trazado_903081" data-name="Trazado 903081" d="M993.295,1649.581v3.456l-34.451,23.342v-3.456Z" transform="translate(-877.256 -1345.151)" fill="#a3aeff"/>
          <path id="Trazado_903082" data-name="Trazado 903082" d="M997.6,1697.351v3.455l-28.376,19.223h-5.1Z" transform="translate(-881.56 -1384.104)" fill="#a3aeff"/>
          <path id="Trazado_903083" data-name="Trazado 903083" d="M1055.064,1745.107v3.456l-15.371,10.41h-5.1Z" transform="translate(-939.025 -1423.047)" fill="#a3aeff"/>
          <path id="Trazado_903084" data-name="Trazado 903084" d="M1112.575,1792.863v3.456l-2.354,1.6h-5.1Z" transform="translate(-996.536 -1461.99)" fill="#d35540"/>
          <rect id="Rectángulo_407810" data-name="Rectángulo 407810" width="24.863" height="81.334" transform="translate(107.93 254.59)" fill="#8b88f5"/>
          <rect id="Rectángulo_407811" data-name="Rectángulo 407811" width="24.863" height="9.091" transform="translate(107.93 254.59)" fill="#8b88f5"/>
          <rect id="Rectángulo_407812" data-name="Rectángulo 407812" width="6.503" height="6.101" transform="translate(107.93 263.684)" fill="#a3aeff"/>
          <rect id="Rectángulo_407813" data-name="Rectángulo 407813" width="6.503" height="6.101" transform="translate(120.935 263.684)" fill="#a3aeff"/>
          <rect id="Rectángulo_407814" data-name="Rectángulo 407814" width="6.502" height="6.106" transform="translate(114.432 269.785)" fill="#a3aeff"/>
          <rect id="Rectángulo_407815" data-name="Rectángulo 407815" width="5.355" height="6.109" transform="translate(127.438 269.785)" fill="#a3aeff"/>
          <rect id="Rectángulo_407816" data-name="Rectángulo 407816" width="6.503" height="3.065" transform="translate(107.93 254.59)" fill="#a3aeff"/>
          <rect id="Rectángulo_407817" data-name="Rectángulo 407817" width="6.505" height="3.065" transform="translate(120.932 254.59)" fill="#a3aeff"/>
          <rect id="Rectángulo_407818" data-name="Rectángulo 407818" width="6.502" height="6.104" transform="translate(114.432 257.655)" fill="#a3aeff"/>
          <rect id="Rectángulo_407819" data-name="Rectángulo 407819" width="5.355" height="6.104" transform="translate(127.438 257.655)" fill="#a3aeff"/>
          <rect id="Rectángulo_407820" data-name="Rectángulo 407820" width="6.503" height="6.104" transform="translate(107.93 275.907)" fill="#a3aeff"/>
          <rect id="Rectángulo_407821" data-name="Rectángulo 407821" width="6.503" height="6.104" transform="translate(120.935 275.907)" fill="#a3aeff"/>
          <rect id="Rectángulo_407822" data-name="Rectángulo 407822" width="6.502" height="6.104" transform="translate(114.432 282.01)" fill="#a3aeff"/>
          <rect id="Rectángulo_407823" data-name="Rectángulo 407823" width="5.355" height="6.101" transform="translate(127.438 282.013)" fill="#a3aeff"/>
          <rect id="Rectángulo_407824" data-name="Rectángulo 407824" width="6.503" height="6.106" transform="translate(107.93 288.132)" fill="#a3aeff"/>
          <rect id="Rectángulo_407825" data-name="Rectángulo 407825" width="6.503" height="6.106" transform="translate(120.935 288.132)" fill="#a3aeff"/>
          <rect id="Rectángulo_407826" data-name="Rectángulo 407826" width="6.502" height="6.104" transform="translate(114.432 294.238)" fill="#a3aeff"/>
          <rect id="Rectángulo_407827" data-name="Rectángulo 407827" width="5.355" height="6.106" transform="translate(127.438 294.236)" fill="#a3aeff"/>
          <rect id="Rectángulo_407828" data-name="Rectángulo 407828" width="6.503" height="6.104" transform="translate(107.93 300.358)" fill="#a3aeff"/>
          <rect id="Rectángulo_407829" data-name="Rectángulo 407829" width="6.503" height="6.104" transform="translate(120.935 300.358)" fill="#a3aeff"/>
          <rect id="Rectángulo_407830" data-name="Rectángulo 407830" width="6.502" height="6.106" transform="translate(114.432 306.461)" fill="#a3aeff"/>
          <rect id="Rectángulo_407831" data-name="Rectángulo 407831" width="5.355" height="6.106" transform="translate(127.438 306.461)" fill="#a3aeff"/>
          <rect id="Rectángulo_407832" data-name="Rectángulo 407832" width="6.503" height="6.104" transform="translate(107.93 312.583)" fill="#a3aeff"/>
          <rect id="Rectángulo_407833" data-name="Rectángulo 407833" width="6.503" height="6.104" transform="translate(120.935 312.583)" fill="#a3aeff"/>
          <rect id="Rectángulo_407834" data-name="Rectángulo 407834" width="6.502" height="6.106" transform="translate(114.432 318.687)" fill="#a3aeff"/>
          <rect id="Rectángulo_407835" data-name="Rectángulo 407835" width="5.355" height="6.104" transform="translate(127.438 318.689)" fill="#a3aeff"/>
          <rect id="Rectángulo_407836" data-name="Rectángulo 407836" width="6.503" height="6.106" transform="translate(107.93 324.806)" fill="#a3aeff"/>
          <rect id="Rectángulo_407837" data-name="Rectángulo 407837" width="6.503" height="6.106" transform="translate(120.935 324.806)" fill="#a3aeff"/>
          <rect id="Rectángulo_407838" data-name="Rectángulo 407838" width="6.5" height="5.013" transform="translate(114.432 330.912)" fill="#a3aeff"/>
          <path id="Trazado_903085" data-name="Trazado 903085" d="M1212.641,1793.075h-5.354v5.012Z" transform="translate(-1079.849 -1462.163)" fill="#a3aeff"/>
          <path id="Trazado_903086" data-name="Trazado 903086" d="M1325.991,1047.514l-45.855,11.5c-16.881,4.236-34.671-2.8-43.249-17.088-6.376-10.619-12.355-25.168-14.549-44.148l-7.64-40.368,23.495-7.225,12.544,27.837c7.326,16.256,22.314,33.36,32.9,50.5a28.553,28.553,0,0,0,17.2,12.463Z" transform="translate(-1085.892 -774.83)" fill="#ff9280"/>
          <path id="Trazado_903087" data-name="Trazado 903087" d="M1236.234,959.28h-25.1a3.752,3.752,0,0,1-3.865-3.629v-5.464h28.961Z" transform="translate(-1079.838 -774.83)" fill="#ff9280"/>
          <path id="Trazado_903088" data-name="Trazado 903088" d="M1318.67,1034.876s-15.65,15.371,0,39.065,4.568,15.658,9.793,41.469c4.283,21.166,64.713,2.166,64.713,2.166s-31.578,2.1-37.438-11.99c-4.4-10.566-10.182-27.018-19.078-36.228a66.333,66.333,0,0,1-17.744-33.2c-.163-.826-.246-1.287-.246-1.287" transform="translate(-1165.005 -843.89)" fill="#e0694e"/>
          <path id="Trazado_903089" data-name="Trazado 903089" d="M1856.678,2282.24l14.669-1.241-2.532-18.434-14.669,1.241Z" transform="translate(-1607.331 -1845.009)" fill="#bb8759" fill-rule="evenodd"/>
          <path id="Trazado_903090" data-name="Trazado 903090" d="M1763.389,1661.083l13,70.592,21.6-4.09-13.129-69.355,15.277-55.843-21.2-5.846Z" transform="translate(-1533.322 -1301.9)" fill="#242675" fill-rule="evenodd"/>
          <path id="Trazado_903091" data-name="Trazado 903091" d="M1773.081,2348.083c-3.337.939-10.881,3.967-14.508-1.141l-23.866,13.355,42.439-.858-2.117-10.109a1.547,1.547,0,0,0-1.949-1.247" transform="translate(-1509.933 -1913.814)" fill="#161a22"/>
          <path id="Trazado_903092" data-name="Trazado 903092" d="M1734.785,2419.2l42.438-.856-.076-3.679-42.439.859Z" transform="translate(-1509.933 -1969.041)" fill="#acacac"/>
          <path id="Trazado_903093" data-name="Trazado 903093" d="M1849.176,2357.376a.688.688,0,0,1-.28-.219,14.188,14.188,0,0,0-3.177-3.165.671.671,0,0,1-.2-.93.678.678,0,0,1,.926-.2,15.288,15.288,0,0,1,3.524,3.49.672.672,0,0,1-.8,1.024Z" transform="translate(-1600.208 -1918.556)" fill="#b8b8b8"/>
          <path id="Trazado_903094" data-name="Trazado 903094" d="M1831.589,2366.941a.694.694,0,0,1-.281-.22,14.115,14.115,0,0,0-3.177-3.166.672.672,0,0,1,.729-1.129,15.251,15.251,0,0,1,3.525,3.491.672.672,0,0,1-.8,1.023Z" transform="translate(-1585.866 -1926.356)" fill="#b8b8b8"/>
          <path id="Trazado_903095" data-name="Trazado 903095" d="M1814,2376.509a.694.694,0,0,1-.281-.219,14.1,14.1,0,0,0-3.177-3.165.672.672,0,0,1,.728-1.13,13.743,13.743,0,0,1,2.449,2.185c.348.383.712.817,1.077,1.305a.672.672,0,0,1-.8,1.023" transform="translate(-1571.523 -1934.158)" fill="#b8b8b8"/>
          <path id="Trazado_903096" data-name="Trazado 903096" d="M2052.512,2281.437l14.654-1.414-2.749-18.4-14.653,1.414Z" transform="translate(-1766.846 -1844.236)" fill="#ebb17f" fill-rule="evenodd"/>
          <path id="Trazado_903097" data-name="Trazado 903097" d="M1869.484,1661.432l13.955,70.409,21.555-4.344-13.371-66.356,4.629-43.586c1.274-6.149,2.09-11.534,1.293-14.229-17.006-11.551-33.166-5.655-47.3,0,.961,4.342,8.15,8.892,24.188,11.339Z" transform="translate(-1604.146 -1302.023)" fill="#383a84" fill-rule="evenodd"/>
          <path id="Trazado_903098" data-name="Trazado 903098" d="M1803.159,1183.6l-10.943,3.163c-3.1,1.394-6.234,3.084-6.343,6.685-.231,7.637-.5,15.852,5.8,33.772,1.455,4.143,2.89,5.208,3.577,9.269,1.862,11-.867,27.1-.6,33.268,24.088,3.113,45.591,4.81,51.851,0-1.318-39.421-9.307-67.446-17.466-81.473-1.729-2.974-6.819-4.886-9.073-4.87Z" transform="translate(-1551.584 -965.016)" fill="#8e2b19"/>
        </g>
      </g>
      <g id="Grupo_1114643" data-name="Grupo 1114643" transform="translate(750.955 218.402)">
        <g id="Grupo_1114642" data-name="Grupo 1114642" transform="translate(0)" clip-path="url(#clip-path-3)">
          <path id="Trazado_903099" data-name="Trazado 903099" d="M1831.978,1166.5c-5.963.918-11.39-2.142-12.112-6.831s3.533-9.241,9.5-10.159,11.392,2.142,12.114,6.831-3.533,9.24-9.5,10.159" transform="translate(-1813.51 -1155.633)" fill="#781f0f" fill-rule="evenodd"/>
        </g>
      </g>
      <g id="Grupo_1114645" data-name="Grupo 1114645" transform="translate(516.756 0.003)">
        <g id="Grupo_1114644" data-name="Grupo 1114644" clip-path="url(#clip-path-2)">
          <path id="Trazado_903101" data-name="Trazado 903101" d="M1748.255,1064.854c.641,2.5-.559,5.042-2.677,5.682s-4.356-.865-5-3.36.559-5.043,2.678-5.682,4.357.864,5,3.361" transform="translate(-1514.583 -865.474)" fill="#dda87a"/>
        </g>
      </g>
      <g id="Grupo_1114647" data-name="Grupo 1114647" transform="translate(742.581 195.874)">
        <g id="Grupo_1114646" data-name="Grupo 1114646" clip-path="url(#clip-path-5)">
          <path id="Trazado_903102" data-name="Trazado 903102" d="M1751.722,1080.495s.38-4.533-3.1-3.9" transform="translate(-1747.102 -1073.728)" fill="none" stroke="#c6956b" stroke-linecap="round" stroke-linejoin="round" stroke-width="1.891"/>
          <path id="Trazado_903103" data-name="Trazado 903103" d="M1755.566,1083.012a1.736,1.736,0,1,0,1.7,1.532,1.627,1.627,0,0,0-1.7-1.532" transform="translate(-1751.699 -1079.005)" fill="#c6956b" fill-rule="evenodd"/>
        </g>
      </g>
      <g id="Grupo_1114649" data-name="Grupo 1114649" transform="translate(516.756 0.003)">
        <g id="Grupo_1114648" data-name="Grupo 1114648" clip-path="url(#clip-path-2)">
          <path id="Trazado_903105" data-name="Trazado 903105" d="M1827.511,1089.094l2.526,12.317c.878,4.327,3.927,6.1,8.043,5.218,3.514-.756,7.03-3.256,6.093-7.038L1839.3,1080.4Z" transform="translate(-1585.61 -881.009)" fill="#ebb17f"/>
        </g>
      </g>
      <g id="Grupo_1114651" data-name="Grupo 1114651" transform="translate(758.656 199.39)">
        <g id="Grupo_1114650" data-name="Grupo 1114650" transform="translate(0)" clip-path="url(#clip-path-7)">
          <path id="Trazado_903106" data-name="Trazado 903106" d="M1833.788,1111.9c.219,1.844-.581,3.873-1.124,5.615a14.514,14.514,0,0,1-2.242,3.965c-1.544,2.287-3.922,4.2-6.85,3.779a5.962,5.962,0,0,1-5.009-5.437c-.094-.682-.381-1.667-.01-2.307a4.408,4.408,0,0,1,2.214-1.368,23.533,23.533,0,0,1,5.551-1.815c2.624-.347,5.238-.723,7.868-1.035" transform="translate(-1820.056 -1106.082)" fill="#d79c68" fill-rule="evenodd"/>
        </g>
      </g>
      <g id="Grupo_1114653" data-name="Grupo 1114653" transform="translate(516.756 0.003)">
        <g id="Grupo_1114652" data-name="Grupo 1114652" clip-path="url(#clip-path-2)">
          <path id="Trazado_903108" data-name="Trazado 903108" d="M1734.668,988.657s-4.814,9.3,2.447,13.718l2.042,8.973.481-5.856,5.1.089s9.33-18.164-6.585-16.283Z" transform="translate(-1508.626 -806.201)" fill="#161a22"/>
          <path id="Trazado_903109" data-name="Trazado 903109" d="M1765.446,994.252c-7.03,1.458-14.007-3.076-15.428-8.965l-2.908-12.335a13.914,13.914,0,0,1,9.508-16.8c7.248-2.03,16.07,2.041,18.134,9.534l2.148,9.64C1778.333,982.864,1773.74,991.929,1765.446,994.252Z" transform="translate(-1519.715 -779.273)" fill="#ebb17f"/>
          <path id="Trazado_903110" data-name="Trazado 903110" d="M1821.559,1040.427s-2.929.344-2.712,1.56c0,0,.171.82,2.717.469s3.162-.675,3.234-1.491-1.886-.807-3.239-.538" transform="translate(-1578.536 -848.284)" fill="#161a22"/>
          <path id="Trazado_903111" data-name="Trazado 903111" d="M1759.632,1051.328s2.326-.739,2.753.36c0,0,.27.746-1.777,1.345s-2.779.465-3.1-.118c-.366-.658,1-1.336,2.128-1.587" transform="translate(-1528.474 -857.107)" fill="#161a22"/>
          <path id="Trazado_903112" data-name="Trazado 903112" d="M1853.4,969.678s-2.834,4.683,4.426,9.1l1.042,8.812,1.482-5.7,5.1.088s8.385-16.624-7.53-14.743Z" transform="translate(-1606.28 -788.615)" fill="#161a22"/>
          <path id="Trazado_903113" data-name="Trazado 903113" d="M1899.6,1037.3a4.632,4.632,0,0,1-3.124,5.735,4.584,4.584,0,0,1-5.607-3.288,4.635,4.635,0,0,1,3.123-5.737,4.584,4.584,0,0,1,5.608,3.29" transform="translate(-1637.13 -843.047)" fill="#ebb17f"/>
          <path id="Trazado_903114" data-name="Trazado 903114" d="M1908.349,1056.747a1.736,1.736,0,1,0,1.7,1.533,1.627,1.627,0,0,0-1.7-1.533" transform="translate(-1650.46 -861.717)" fill="#c6956b" fill-rule="evenodd"/>
          <path id="Trazado_903115" data-name="Trazado 903115" d="M1908.96,1050.39s-1.427-4.32,2.109-4.52" transform="translate(-1651.796 -852.855)" fill="none" stroke="#c6956b" stroke-linecap="round" stroke-linejoin="round" stroke-width="1.891"/>
          <path id="Trazado_903116" data-name="Trazado 903116" d="M1747.924,933.141c-1.457.957-14.722,3.853-19.716,2.489,0,0-7.5-1.8-5.143-6.691,2.917-6.039,11.454-6.775,11.454-6.775s16.591-3.876,21.665,8.173Z" transform="translate(-1500.066 -751.495)" fill="#161a22"/>
          <path id="Trazado_903117" data-name="Trazado 903117" d="M1829.761,1069.258c-.611.072-1.026.822-.925,1.674s.678,1.485,1.289,1.413,1.026-.823.926-1.675-.679-1.485-1.29-1.413" transform="translate(-1586.679 -871.922)" fill="#202020" fill-rule="evenodd"/>
          <path id="Trazado_903118" data-name="Trazado 903118" d="M1834.784,1068.918c-.308.036-.519.416-.468.847s.343.75.652.714.518-.416.468-.847-.344-.751-.652-.715" transform="translate(-1591.154 -871.647)" fill="#fff" fill-rule="evenodd"/>
          <path id="Trazado_903119" data-name="Trazado 903119" d="M1772.372,1077.957c-.612.072-1.026.822-.926,1.675s.678,1.485,1.29,1.413,1.026-.822.925-1.675-.678-1.485-1.29-1.413" transform="translate(-1539.881 -879.016)" fill="#202020" fill-rule="evenodd"/>
          <path id="Trazado_903120" data-name="Trazado 903120" d="M1777.663,1077.982c-.308.037-.519.416-.467.847s.343.751.652.715.518-.416.467-.847-.343-.751-.652-.715" transform="translate(-1544.575 -879.038)" fill="#fff" fill-rule="evenodd"/>
          <path id="Trazado_903121" data-name="Trazado 903121" d="M1799.993,1095.729a11.754,11.754,0,0,0-1.045,2.925c.014.605.872,1.236,1.542,1.281m-.481,3.579a10.3,10.3,0,0,0,2.615-.309,5.66,5.66,0,0,0,2.662-1.61" transform="translate(-1562.319 -893.512)" fill="none" stroke="#b46a3d" stroke-linecap="round" stroke-linejoin="round" stroke-width="1.891"/>
          <path id="Trazado_903122" data-name="Trazado 903122" d="M1832.068,1181.8l-2.711,1.155s.791,6.691,7.174,6.158c8.232-.687,10.3-4.273,11.581-9.18l-8.864-.757Z" transform="translate(-1587.116 -961.555)" fill="#ebb17f"/>
          <path id="Trazado_903123" data-name="Trazado 903123" d="M1970.322,2347.78c-3.325.979-10.832,4.094-14.52-.971l-23.707,13.638,42.426-1.358L1972.287,2349a1.55,1.55,0,0,0-1.965-1.225" transform="translate(-1670.895 -1913.705)" fill="#262626"/>
          <path id="Trazado_903124" data-name="Trazado 903124" d="M1932.216,2418.381l42.425-1.354-.119-3.679-42.426,1.358Z" transform="translate(-1670.894 -1967.964)" fill="#d3d3d3"/>
          <path id="Trazado_903125" data-name="Trazado 903125" d="M2045.862,2357.384a.691.691,0,0,1-.282-.217,14.239,14.239,0,0,0-3.215-3.129.669.669,0,0,1-.21-.925.678.678,0,0,1,.924-.212,15.269,15.269,0,0,1,3.566,3.448.673.673,0,0,1-.783,1.035Z" transform="translate(-1760.558 -1918.592)" fill="#ebebeb"/>
          <path id="Trazado_903126" data-name="Trazado 903126" d="M2028.39,2367.153a.686.686,0,0,1-.284-.215,14.162,14.162,0,0,0-3.215-3.129.672.672,0,0,1,.717-1.137,15.239,15.239,0,0,1,3.565,3.449.672.672,0,0,1-.783,1.032" transform="translate(-1746.31 -1926.558)" fill="#ebebeb"/>
          <path id="Trazado_903127" data-name="Trazado 903127" d="M2010.915,2376.926a.681.681,0,0,1-.284-.213,15.742,15.742,0,0,0-2.5-2.6,8.767,8.767,0,0,0-.715-.531.672.672,0,0,1,.715-1.137,15.215,15.215,0,0,1,3.566,3.448.671.671,0,0,1-.783,1.032Z" transform="translate(-1732.06 -1934.528)" fill="#ebebeb"/>
          <path id="Trazado_903128" data-name="Trazado 903128" d="M1588.721,1422.8c-1.467-.466-7.173,1.074-9.013,2.368s-3.717,2.511-3.4,2.715a4.363,4.363,0,0,0,3.161-.735,21.21,21.21,0,0,1,4.994-2.156l1.3-.272a41.825,41.825,0,0,0-5.213,2.333c-2.144,1.216-3.282,1.812-3.354,2.458s2.073.017,2.073.017-.473.646.094.97,3.653-.937,5.308-1.363a9.516,9.516,0,0,1,3.557-.076,18.548,18.548,0,0,0-4.341,1.1c-1.555.738-2.58.93-2.438,1.462s3.425-.694,5.3-.714,5.277,1.927,8.269,2.114,7.879,1.831,8.388-.8-13.22-8.956-14.686-9.422" transform="translate(-1380.737 -1160.151)" fill="#ebb17f"/>
          <path id="Trazado_903129" data-name="Trazado 903129" d="M1896.746,1204.147s-3.368,11.007-10.892,32.482c-.844,2.408,6.522,13.416,9.374,8.723,1.8,2.5,16.205-33.626,16.576-36.608,1.216-9.762-10.06-13.307-15.058-4.6" transform="translate(-1633.132 -977.88)" fill="#6e281a"/>
          <path id="Trazado_903130" data-name="Trazado 903130" d="M1734.083,1389.241l-35.092,10.5,2.445,12.3,38.207-10.4c5.626-2.047,6.4-6.473,3.207-10.174-2.243-2.595-4.806-3.623-8.766-2.223" transform="translate(-1480.809 -1132.345)" fill="#6e281a"/>
          <rect id="Rectángulo_407842" data-name="Rectángulo 407842" width="175.764" height="15.152" transform="translate(353.185 427.559)" fill="#613914"/>
          <rect id="Rectángulo_407843" data-name="Rectángulo 407843" width="175.764" height="5.171" transform="translate(353.185 422.389)" fill="#4f3d3d"/>
          <rect id="Rectángulo_407844" data-name="Rectángulo 407844" width="6.258" height="22.011" transform="translate(361.91 298.552)" fill="#8f5520"/>
          <rect id="Rectángulo_407845" data-name="Rectángulo 407845" width="168.966" height="4.33" transform="translate(361.91 320.563)" fill="#613914"/>
          <rect id="Rectángulo_407846" data-name="Rectángulo 407846" width="168.966" height="7.036" transform="translate(361.91 295.846)" fill="#613914"/>
          <path id="Trazado_903131" data-name="Trazado 903131" d="M2668.154,1647.75l-74.74-1.4v-5.162h74.74Zm-81-1.513-75.453-1.411v-3.635h75.453Z" transform="translate(-2143.534 -1338.309)" fill="#b0b0b0"/>
          <path id="Trazado_903132" data-name="Trazado 903132" d="M2484.05,1644.827l-6.257-.118v-3.518h6.257Z" transform="translate(-2115.883 -1338.31)" fill="#78410f"/>
          <rect id="Rectángulo_407847" data-name="Rectángulo 407847" width="168.966" height="7.036" transform="translate(361.91 253.811)" fill="#613914"/>
          <path id="Trazado_903133" data-name="Trazado 903133" d="M2646.759,1420.1l-168.966-3.157v-3.517h168.966Z" transform="translate(-2115.883 -1152.574)" fill="#b0b0b0"/>
          <rect id="Rectángulo_407848" data-name="Rectángulo 407848" width="168.966" height="7.036" transform="translate(361.91 206.484)" fill="#613914"/>
          <path id="Trazado_903134" data-name="Trazado 903134" d="M2646.759,1163.655l-168.966-3.157v-3.518h168.966Z" transform="translate(-2115.883 -943.46)" fill="#b0b0b0"/>
          <path id="Trazado_903135" data-name="Trazado 903135" d="M2646.759,1767.133l-168.966-3.157v-3.517h168.966Z" transform="translate(-2115.883 -1435.565)" fill="#b1b1b1"/>
          <path id="Trazado_903136" data-name="Trazado 903136" d="M2600.167,1550.475h-52.1a4.852,4.852,0,1,0,0,9.7h52.1a4.852,4.852,0,0,0,0-9.7" transform="translate(-2169.233 -1264.334)" fill="#ce0e0e"/>
          <path id="Trazado_903137" data-name="Trazado 903137" d="M2600.167,1497.887h-52.1a4.853,4.853,0,1,0,0,9.706h52.1a4.853,4.853,0,0,0,0-9.706" transform="translate(-2169.233 -1221.452)" fill="#0ecec4"/>
          <path id="Trazado_903138" data-name="Trazado 903138" d="M2600.167,1445.3h-52.1a4.852,4.852,0,1,0,0,9.7h52.1a4.852,4.852,0,0,0,0-9.7" transform="translate(-2169.233 -1178.569)" fill="#ce7f3e"/>
          <path id="Trazado_903139" data-name="Trazado 903139" d="M2918.438,967.017c-5.283,0-9.747-2.642-9.747-5.768s4.464-5.769,9.747-5.769,9.744,2.641,9.744,5.769-4.463,5.768-9.744,5.768m0-12.864c-6.116,0-11.072,3.177-11.072,7.1s4.956,7.094,11.072,7.094,11.069-3.177,11.069-7.094-4.956-7.1-11.069-7.1" transform="translate(-2466.178 -778.065)" fill="#8a4829"/>
          <path id="Trazado_903140" data-name="Trazado 903140" d="M2897.7,1036.968h-17.768a8.919,8.919,0,0,1-8.89-8.892v-1.239a8.919,8.919,0,0,1,8.89-8.892H2897.7a8.919,8.919,0,0,1,8.9,8.892v1.239a8.919,8.919,0,0,1-8.9,8.892" transform="translate(-2436.554 -830.083)" fill="#8a4829"/>
          <path id="Trazado_903141" data-name="Trazado 903141" d="M2906.592,1027.738v-.9a8.919,8.919,0,0,0-8.9-8.892h4.527a4.381,4.381,0,0,1,4.368,4.367Zm-35.554-.9v-4.526a4.379,4.379,0,0,1,4.365-4.367h4.525a8.919,8.919,0,0,0-8.89,8.892" transform="translate(-2436.554 -830.083)" fill="#d8d9d9"/>
          <path id="Trazado_903142" data-name="Trazado 903142" d="M2904.874,1028.079h-32.123a4.259,4.259,0,0,1-1.713-.342v-.9a8.919,8.919,0,0,1,8.89-8.892H2897.7a8.919,8.919,0,0,1,8.9,8.892v.9a4.261,4.261,0,0,1-1.718.342" transform="translate(-2436.554 -830.082)" fill="#7c4125"/>
          <path id="Trazado_903143" data-name="Trazado 903143" d="M2896.754,1006.788h-32.124c-2.4,0-3.945-1.725-3.461-3.741l1.845-7.631c.381-1.577,2.317-2.818,4.316-2.818h26.726c2,0,3.934,1.241,4.314,2.818l1.847,7.631C2900.7,1005.063,2899.155,1006.788,2896.754,1006.788Z" transform="translate(-2428.435 -809.414)" fill="#a56040"/>
          <path id="Trazado_903144" data-name="Trazado 903144" d="M2900.226,1003.048l-1.846-7.63c-.38-1.578-2.317-2.818-4.314-2.818H2867.34c-2,0-3.934,1.241-4.316,2.818l-1.845,7.63a3.042,3.042,0,0,0-.054,1.172c.014-.1.03-.192.054-.289l1.845-7.63c.381-1.578,2.317-2.819,4.316-2.819h26.725c2,0,3.935,1.241,4.314,2.819l1.846,7.63c.024.1.04.194.054.289a3.009,3.009,0,0,0-.054-1.172" transform="translate(-2428.443 -809.415)" fill="#ba6d48"/>
          <path id="Trazado_903145" data-name="Trazado 903145" d="M2551.755,1735.415a.589.589,0,0,1-.588-.586v-6.615a.586.586,0,1,1,1.173,0v6.615a.586.586,0,0,1-.585.586" transform="translate(-2175.716 -1408.793)" fill="#aaa"/>
          <path id="Trazado_903146" data-name="Trazado 903146" d="M2540.676,1834.064a3.1,3.1,0,0,1-3.095-3.1V1767.8a3.1,3.1,0,1,1,6.192,0v63.167a3.105,3.105,0,0,1-3.1,3.1" transform="translate(-2164.638 -1439.028)" fill="#3e84ce"/>
          <path id="Trazado_903147" data-name="Trazado 903147" d="M2595.2,1735.415a.589.589,0,0,1-.586-.586v-6.615a.586.586,0,0,1,1.173,0v6.615a.587.587,0,0,1-.586.586" transform="translate(-2211.143 -1408.793)" fill="#aaa"/>
          <path id="Trazado_903148" data-name="Trazado 903148" d="M2584.123,1834.064a3.1,3.1,0,0,1-3.1-3.1V1767.8a3.1,3.1,0,1,1,6.192,0v63.167a3.106,3.106,0,0,1-3.1,3.1" transform="translate(-2200.066 -1439.028)" fill="#0ecec4"/>
          <path id="Trazado_903149" data-name="Trazado 903149" d="M2638.646,1735.415a.589.589,0,0,1-.588-.586v-6.615a.586.586,0,1,1,1.173,0v6.615a.586.586,0,0,1-.585.586" transform="translate(-2246.572 -1408.793)" fill="#aaa"/>
          <path id="Trazado_903150" data-name="Trazado 903150" d="M2627.568,1834.064a3.1,3.1,0,0,1-3.1-3.1V1767.8a3.1,3.1,0,1,1,6.192,0v63.167a3.106,3.106,0,0,1-3.1,3.1" transform="translate(-2235.493 -1439.028)" fill="#8b3ece"/>
          <path id="Trazado_903151" data-name="Trazado 903151" d="M2741.56,1735.415a.589.589,0,0,1-.586-.586v-6.615a.587.587,0,0,1,1.174,0v6.615a.588.588,0,0,1-.588.586" transform="translate(-2330.494 -1408.793)" fill="#aaa"/>
          <path id="Trazado_903152" data-name="Trazado 903152" d="M2732.541,1844.656c.626-8.4,1.021-20.547,1.021-34.06,0-25.345-1.389-45.893-3.1-45.893s-3.1,20.547-3.1,45.893c0,13.514.4,25.662,1.025,34.06Z" transform="translate(-2319.398 -1439.027)" fill="#919191"/>
          <path id="Trazado_903153" data-name="Trazado 903153" d="M2768.371,1735.415a.589.589,0,0,1-.588-.586v-6.615a.586.586,0,1,1,1.173,0v6.615a.586.586,0,0,1-.585.586" transform="translate(-2352.355 -1408.793)" fill="#aaa"/>
          <path id="Trazado_903154" data-name="Trazado 903154" d="M2759.352,1844.656c.627-8.4,1.021-20.547,1.021-34.06,0-25.345-1.389-45.893-3.1-45.893s-3.1,20.547-3.1,45.893c0,13.514.394,25.662,1.025,34.06Z" transform="translate(-2341.261 -1439.027)" fill="#ce0e0e"/>
          <path id="Trazado_903155" data-name="Trazado 903155" d="M2795.182,1735.415a.59.59,0,0,1-.588-.586v-6.615a.587.587,0,0,1,1.174,0v6.615a.587.587,0,0,1-.586.586" transform="translate(-2374.218 -1408.793)" fill="#aaa"/>
          <path id="Trazado_903156" data-name="Trazado 903156" d="M2786.179,1844.656c.625-8.4,1.02-20.547,1.02-34.06,0-25.345-1.389-45.893-3.1-45.893s-3.094,20.547-3.094,45.893c0,13.514.393,25.662,1.02,34.06Z" transform="translate(-2363.138 -1439.027)" fill="#626375"/>
          <path id="Trazado_903157" data-name="Trazado 903157" d="M2821.99,1735.415a.589.589,0,0,1-.588-.586v-6.615a.587.587,0,0,1,1.174,0v6.615a.587.587,0,0,1-.586.586" transform="translate(-2396.079 -1408.793)" fill="#aaa"/>
          <path id="Trazado_903158" data-name="Trazado 903158" d="M2812.988,1844.656c.626-8.4,1.022-20.547,1.022-34.06,0-25.345-1.386-45.893-3.1-45.893s-3.1,20.547-3.1,45.893c0,13.514.393,25.662,1.021,34.06Z" transform="translate(-2385.002 -1439.027)" fill="#00b8d6"/>
          <path id="Trazado_903159" data-name="Trazado 903159" d="M2594.056,863.251c-2.727,0-5.355-2.034-7.4-5.727a34.3,34.3,0,0,1,0-29.695c2.042-3.693,4.67-5.727,7.4-5.727s5.353,2.033,7.4,5.727a34.273,34.273,0,0,1,0,29.695c-2.042,3.693-4.668,5.727-7.4,5.727m0-42.489c-6.691,0-12.118,9.811-12.118,21.914s5.427,21.914,12.118,21.914,12.116-9.811,12.116-21.914-5.425-21.914-12.116-21.914" transform="translate(-2200.808 -669.291)" fill="#1e1d22"/>
          <path id="Trazado_903160" data-name="Trazado 903160" d="M2568.038,970.633V953.091a13.624,13.624,0,0,0-13.583-13.585h-19.373a13.625,13.625,0,0,0-13.587,13.585v17.542a2.3,2.3,0,0,0,2.3,2.3h41.936a2.3,2.3,0,0,0,2.3-2.3" transform="translate(-2151.519 -766.121)" fill="#626375"/>
          <path id="Trazado_903161" data-name="Trazado 903161" d="M2565.735,1098.526H2523.8a2.305,2.305,0,0,1-2.3-2.3v2.2a2.305,2.305,0,0,0,2.3,2.3h41.936a2.3,2.3,0,0,0,2.3-2.3v-2.2a2.3,2.3,0,0,1-2.3,2.3" transform="translate(-2151.52 -893.914)" fill="#5c5d6e"/>
          <path id="Trazado_903162" data-name="Trazado 903162" d="M2528.764,958.488l.011-.65a13.244,13.244,0,0,1,.22-1.823,12.465,12.465,0,0,1,.875-2.714,12.312,12.312,0,0,1,2.034-3.093,12.513,12.513,0,0,1,3.466-2.681,12.149,12.149,0,0,1,4.7-1.348l.321-.024.322-.008c.214-.008.43-.01.645-.009l1.3,0,2.644,0,5.393-.008,5.394.008,2.645,0,1.3,0h.324l.322.008.32.009.32.024a12.114,12.114,0,0,1,4.7,1.347,12.543,12.543,0,0,1,3.465,2.681,12.289,12.289,0,0,1,2.034,3.093,12.42,12.42,0,0,1,.88,2.714,13.383,13.383,0,0,1,.214,1.823c.008.423.015.65.015.65s-.007-.226-.023-.649a13.369,13.369,0,0,0-.247-1.815,12.4,12.4,0,0,0-.918-2.686,12.527,12.527,0,0,0-2.055-3.041,12.191,12.191,0,0,0-8.08-3.913l-.313-.023-.32-.008-.318-.007h-.324l-1.3,0-2.645,0-5.394.008-5.393-.008-2.644,0-1.3,0c-.215,0-.43,0-.642.006l-.316.008-.312.023a12.2,12.2,0,0,0-4.64,1.3,12.27,12.27,0,0,0-5.5,5.658,12.279,12.279,0,0,0-.916,2.687,13.06,13.06,0,0,0-.247,1.815c-.015.423-.023.649-.023.649Z" transform="translate(-2157.447 -771.517)" fill="#1e1d22"/>
          <path id="Trazado_903163" data-name="Trazado 903163" d="M2909.329,1741.067a.587.587,0,0,1-.586-.587v-6.614a.586.586,0,1,1,1.173,0v6.614a.589.589,0,0,1-.586.587" transform="translate(-2467.3 -1413.402)" fill="#aaa"/>
          <rect id="Rectángulo_407849" data-name="Rectángulo 407849" width="3.649" height="89.959" transform="translate(440.202 326.622)" fill="#111"/>
          <path id="Trazado_903164" data-name="Trazado 903164" d="M2704.984,2250.3a1.768,1.768,0,0,1-1.761,1.51c-3.1-.021-10.365-.055-15.305-.013-6.437.055-5.612-1.4-5.612-1.4.048-2.244,1.78-3.4,3.83-4.032.2-.063.394-.117.6-.168.318-.082.637-.152.96-.216.207-.038.41-.074.613-.1.345-.056.68-.1,1.009-.138.211-.026.419-.046.621-.066.345-.036.672-.063.974-.086.192-.021.372-.03.54-.047l.086-.008a6.66,6.66,0,0,0,.864-.144c.208-.052.407-.11.594-.177a6.585,6.585,0,0,0,2.86-1.973h8.859c.829,2.028.546,5.2.27,7.058" transform="translate(-2282.624 -1829.254)" fill="#632300"/>
          <path id="Trazado_903165" data-name="Trazado 903165" d="M2703.832,2260.756a.31.31,0,0,1-.372-.235l-.254-1.083c.2-.063.4-.118.6-.168l.259,1.115A.31.31,0,0,1,2703.832,2260.756Z" transform="translate(-2299.696 -1842.321)" fill="#351300"/>
          <path id="Trazado_903166" data-name="Trazado 903166" d="M2712.3,2259.079a.308.308,0,0,1-.375-.23l-.286-1.214c.207-.038.41-.074.613-.1l.278,1.176A.311.311,0,0,1,2712.3,2259.079Z" transform="translate(-2306.575 -1840.904)" fill="#351300"/>
          <path id="Trazado_903167" data-name="Trazado 903167" d="M2721.064,2257.81a.307.307,0,0,1-.372-.229l-.254-1.084c.211-.027.419-.046.621-.067l.238,1.01A.311.311,0,0,1,2721.064,2257.81Z" transform="translate(-2313.747 -1840.004)" fill="#351300"/>
          <path id="Trazado_903168" data-name="Trazado 903168" d="M2729.709,2257a.314.314,0,0,1-.376-.232l-.246-1.051c.192-.021.372-.031.54-.048l.086-.007.227.965A.312.312,0,0,1,2729.709,2257Z" transform="translate(-2320.799 -1839.384)" fill="#351300"/>
          <path id="Trazado_903169" data-name="Trazado 903169" d="M2737.742,2255.248a.309.309,0,0,1-.37-.23l-.211-.911c.207-.051.407-.111.594-.176l.223.946A.309.309,0,0,1,2737.742,2255.248Z" transform="translate(-2327.383 -1837.967)" fill="#351300"/>
          <path id="Trazado_903170" data-name="Trazado 903170" d="M2752.208,2243.942h9.766a5.989,5.989,0,0,0-.23-.7h-8.86A5.2,5.2,0,0,1,2752.208,2243.942Z" transform="translate(-2339.655 -1829.254)" fill="#351300"/>
          <path id="Trazado_903171" data-name="Trazado 903171" d="M2514.774,2250.3a1.768,1.768,0,0,1-1.763,1.51c-3.1-.021-10.362-.055-15.305-.013-6.435.055-5.609-1.4-5.609-1.4.047-2.244,1.78-3.4,3.825-4.032.2-.063.4-.117.6-.168.32-.082.642-.152.962-.216.2-.038.411-.074.613-.1.345-.056.682-.1,1.006-.138.215-.026.422-.046.626-.066.343-.036.669-.063.974-.086.188-.021.367-.03.54-.047l.082-.008a6.505,6.505,0,0,0,.865-.144c.21-.052.411-.11.6-.177a6.569,6.569,0,0,0,2.858-1.973h8.86C2515.33,2245.273,2515.052,2248.441,2514.774,2250.3Z" transform="translate(-2127.518 -1829.254)" fill="#0055b0"/>
          <path id="Trazado_903172" data-name="Trazado 903172" d="M2513.605,2260.756a.313.313,0,0,1-.375-.235l-.254-1.083c.2-.063.4-.118.6-.168l.263,1.115A.314.314,0,0,1,2513.605,2260.756Z" transform="translate(-2144.572 -1842.321)" fill="#001835"/>
          <path id="Trazado_903173" data-name="Trazado 903173" d="M2522.091,2259.079a.306.306,0,0,1-.371-.23l-.286-1.214c.2-.038.411-.074.615-.1l.277,1.176A.313.313,0,0,1,2522.091,2259.079Z" transform="translate(-2151.469 -1840.904)" fill="#001835"/>
          <path id="Trazado_903174" data-name="Trazado 903174" d="M2530.837,2257.81a.311.311,0,0,1-.375-.229l-.255-1.084c.215-.027.422-.046.626-.067l.233,1.01a.309.309,0,0,1-.229.371" transform="translate(-2158.624 -1840.004)" fill="#001835"/>
          <path id="Trazado_903175" data-name="Trazado 903175" d="M2539.489,2257a.311.311,0,0,1-.371-.232l-.246-1.051c.188-.021.367-.031.54-.048l.082-.007.231.965A.314.314,0,0,1,2539.489,2257Z" transform="translate(-2165.69 -1839.384)" fill="#001835"/>
          <path id="Trazado_903176" data-name="Trazado 903176" d="M2547.514,2255.248a.311.311,0,0,1-.373-.23l-.214-.911c.21-.051.411-.111.6-.176l.224.946A.314.314,0,0,1,2547.514,2255.248Z" transform="translate(-2172.258 -1837.967)" fill="#001835"/>
          <path id="Trazado_903177" data-name="Trazado 903177" d="M2561.976,2243.942h9.768a5.719,5.719,0,0,0-.227-.7h-8.86a5.469,5.469,0,0,1-.68.7" transform="translate(-2184.529 -1829.254)" fill="#001835"/>
          <path id="Trazado_903178" data-name="Trazado 903178" d="M2566.567,1250.7h-28.16v-26.238a1.922,1.922,0,0,1,1.92-1.923h24.315a1.925,1.925,0,0,1,1.924,1.923Z" transform="translate(-2165.311 -996.92)" fill="#444"/>
          <path id="Trazado_903179" data-name="Trazado 903179" d="M2581.227,1199.412c-3.434,0-6.226-2.206-6.226-4.918s2.792-4.918,6.226-4.918,6.227,2.206,6.227,4.918-2.8,4.918-6.227,4.918m0-11.185c-4.184,0-7.576,2.807-7.576,6.267s3.393,6.267,7.576,6.267,7.576-2.8,7.576-6.267-3.394-6.267-7.576-6.267" transform="translate(-2194.05 -968.94)" fill="#636363"/>
          <path id="Trazado_903180" data-name="Trazado 903180" d="M2573.65,1222.185v10.947l7.576-4.68c-4.184,0-7.576-2.805-7.576-6.267" transform="translate(-2194.05 -996.631)" fill="#636363"/>
          <path id="Trazado_903181" data-name="Trazado 903181" d="M2622.281,1222.185v10.947l-7.576-4.68c4.182,0,7.576-2.805,7.576-6.267" transform="translate(-2227.527 -996.631)" fill="#636363"/>
          <path id="Trazado_903182" data-name="Trazado 903182" d="M2599.847,1257.836l2.743,3.622,2.738-3.622-2.738-1.693Z" transform="translate(-2215.412 -1024.322)" fill="#b54721"/>
          <path id="Trazado_903183" data-name="Trazado 903183" d="M2593.136,1284.942l-4.883,5.688v11.315h9.442V1290.63Z" transform="translate(-2205.958 -1047.807)" fill="#b54721"/>
          <path id="Trazado_903184" data-name="Trazado 903184" d="M2587.19,1205.375c-3.435,0-6.227-2.206-6.227-4.918s2.792-4.918,6.227-4.918,6.226,2.206,6.226,4.918-2.8,4.918-6.226,4.918" transform="translate(-2200.013 -974.903)" fill="#444"/>
          <path id="Trazado_903185" data-name="Trazado 903185" d="M2792.852,1250.7H2764.69v-26.238a1.924,1.924,0,0,1,1.924-1.923h24.315a1.923,1.923,0,0,1,1.923,1.923Z" transform="translate(-2349.833 -996.92)" fill="#33437a"/>
          <path id="Trazado_903186" data-name="Trazado 903186" d="M2807.51,1199.412c-3.434,0-6.227-2.206-6.227-4.918s2.793-4.918,6.227-4.918,6.226,2.206,6.226,4.918-2.792,4.918-6.226,4.918m0-11.185c-4.185,0-7.576,2.807-7.576,6.267s3.391,6.267,7.576,6.267,7.576-2.8,7.576-6.267-3.393-6.267-7.576-6.267" transform="translate(-2378.572 -968.94)" fill="#56628f"/>
          <path id="Trazado_903187" data-name="Trazado 903187" d="M2799.934,1222.185v10.947l7.576-4.68c-4.185,0-7.576-2.805-7.576-6.267" transform="translate(-2378.572 -996.631)" fill="#56628f"/>
          <path id="Trazado_903188" data-name="Trazado 903188" d="M2848.563,1222.185v10.947l-7.576-4.68c4.184,0,7.576-2.805,7.576-6.267" transform="translate(-2412.049 -996.631)" fill="#56628f"/>
          <path id="Trazado_903189" data-name="Trazado 903189" d="M2826.15,1257.836l2.738,3.622,2.741-3.622-2.741-1.693Z" transform="translate(-2399.951 -1024.322)" fill="#21b5ae"/>
          <path id="Trazado_903190" data-name="Trazado 903190" d="M2819.435,1284.942l-4.877,5.688v11.315H2824V1290.63Z" transform="translate(-2390.499 -1047.807)" fill="#21b5ae"/>
          <path id="Trazado_903191" data-name="Trazado 903191" d="M2813.473,1205.375c-3.434,0-6.227-2.206-6.227-4.918s2.793-4.918,6.227-4.918,6.226,2.206,6.226,4.918-2.792,4.918-6.226,4.918" transform="translate(-2384.535 -974.903)" fill="#33437a"/>
        </g>
      </g>
    </g>
  </g>
</svg>
