<svg xmlns="http://www.w3.org/2000/svg" xmlns:xlink="http://www.w3.org/1999/xlink" width="521.058" height="394.804" viewBox="0 0 521.058 394.804">
  <defs>
    <filter id="Elipse_11603" x="129.318" y="53.302" width="307" height="307" filterUnits="userSpaceOnUse">
      <feOffset dy="3" input="SourceAlpha"/>
      <feGaussianBlur stdDeviation="3" result="blur"/>
      <feFlood flood-opacity="0.161"/>
      <feComposite operator="in" in2="blur"/>
      <feComposite in="SourceGraphic"/>
    </filter>
    <filter id="Elipse_11604" x="56.318" y="33.302" width="144" height="144" filterUnits="userSpaceOnUse">
      <feOffset dy="3" input="SourceAlpha"/>
      <feGaussianBlur stdDeviation="3" result="blur-2"/>
      <feFlood flood-opacity="0.161"/>
      <feComposite operator="in" in2="blur-2"/>
      <feComposite in="SourceGraphic"/>
    </filter>
    <clipPath id="clip-path">
      <rect id="Rect치ngulo_407772" data-name="Rect치ngulo 407772" width="411.06" height="318.421" transform="translate(0 0)" fill="none"/>
    </clipPath>
  </defs>
  <g id="Grupo_1114937" data-name="Grupo 1114937" transform="translate(-234.463 -2226.696)">
    <rect id="Rect치ngulo_407554" data-name="Rect치ngulo 407554" width="521.058" height="394.804" transform="translate(234.463 2226.696)" fill="#d5dfd6"/>
    <g transform="matrix(1, 0, 0, 1, 234.46, 2226.7)" filter="url(#Elipse_11603)">
      <circle id="Elipse_11603-2" data-name="Elipse 11603" cx="144.5" cy="144.5" r="144.5" transform="translate(138.32 59.3)" fill="#fff"/>
    </g>
    <g transform="matrix(1, 0, 0, 1, 234.46, 2226.7)" filter="url(#Elipse_11604)">
      <circle id="Elipse_11604-2" data-name="Elipse 11604" cx="63" cy="63" r="63" transform="translate(65.32 39.3)" fill="#d1f1ff"/>
    </g>
    <g id="Grupo_1114627" data-name="Grupo 1114627" transform="translate(265.051 2280.512)">
      <g id="Grupo_1114626" data-name="Grupo 1114626" transform="translate(0 -0.001)" clip-path="url(#clip-path)">
        <path id="Trazado_901120" data-name="Trazado 901120" d="M872.112,184.261v17.112q1.42.276,2.834.52V178.375a178.872,178.872,0,0,0-18.583.493c7.849.436,14.62,1.955,15.749,5.394" transform="translate(-636.637 -132.565)" fill="#b4b4b4"/>
        <path id="Trazado_901121" data-name="Trazado 901121" d="M805.06,190.389V202q2.274.529,4.538.969V185.852c-1.128-3.438-7.9-4.958-15.749-5.394l-.389.033c-9.676.84-16.932,2.555-21.186,4.949,12.1-1.207,30.84-.984,32.786,4.949" transform="translate(-574.124 -134.156)" fill="#a0a0a0"/>
        <path id="Trazado_901122" data-name="Trazado 901122" d="M798.447,203.13c-1.947-5.933-20.687-6.156-32.786-4.949a12.685,12.685,0,0,0-2.283,1.6,104.615,104.615,0,0,0,35.069,14.951Z" transform="translate(-567.511 -146.897)" fill="#888"/>
        <path id="Trazado_901123" data-name="Trazado 901123" d="M797.278,71.968c-13.976,4.141-42.452-2.387-46.335,5.536-3.088,6.3-5.216,15.678-4.645,21.378.191.145.383.286.574.43,4.242-4.4,13.253-7.228,26.862-8.4a179.09,179.09,0,0,1,21.637-.463h11.271V66.033c-1.707,2.3-4.576,4.516-9.365,5.935" transform="translate(-554.744 -49.09)" fill="#c1c0c0"/>
        <path id="Trazado_901124" data-name="Trazado 901124" d="M662.71,62.953c-.57-5.7,1.557-15.075,4.645-21.378,3.882-7.923,32.359-1.4,46.335-5.536,4.788-1.419,7.658-3.635,9.365-5.935V20.959a3.866,3.866,0,0,0-1.441-3.256c-69.448,1.352-84.667,7.094-87.845,9.029.164.321.339.676.537,1.078a97.557,97.557,0,0,0,28.4,35.143" transform="translate(-471.157 -13.161)" fill="#aba9a9"/>
        <path id="Trazado_901125" data-name="Trazado 901125" d="M1029.633,464.889l-.714-2.723a115.5,115.5,0,0,1-15.95-.149l-.723,2.756a145.032,145.032,0,0,0,17.388.116" transform="translate(-752.523 -343.473)" fill="#e8e7e7"/>
        <path id="Trazado_901126" data-name="Trazado 901126" d="M1031.014,453.362l-.792-3.017a96.806,96.806,0,0,1-14.361-.17l-.8,3.038a115.508,115.508,0,0,0,15.95.149" transform="translate(-754.619 -334.669)" fill="#c8c8c6"/>
        <path id="Trazado_901127" data-name="Trazado 901127" d="M1032.533,369.783l-5.506-20.982c-.754-2.671-1.306-4.979-1.7-6.994-.39,2.014-.942,4.322-1.7,6.994l-5.461,20.811a96.812,96.812,0,0,0,14.361.17" transform="translate(-756.93 -254.107)" fill="#afafaa"/>
        <path id="Trazado_901128" data-name="Trazado 901128" d="M585.214,150.788c-.315-.8-.585-1.517-.817-2.16-.71,1.767-1.42,3.532-2.125,5.274a37.478,37.478,0,0,1,2.941-3.114" transform="translate(-432.874 -110.493)" fill="#dddddc"/>
        <path id="Trazado_901129" data-name="Trazado 901129" d="M697.97,310.218s-14.239,6.731-52.034-6.731a71.808,71.808,0,0,1-21.36-12.039c-6.663,11.843-15.49,22.887-22.751,31.17,15.788,23.139,42.194,53.792,83.506,80.572l.763-2.909c-9.457-36.8,11.876-90.063,11.876-90.063" transform="translate(-447.409 -216.668)" fill="#dddddc"/>
        <path id="Trazado_901130" data-name="Trazado 901130" d="M600.464,123.854l-.016.039c.023.042.05.087.076.131l-.06-.17" transform="translate(-446.385 -92.075)" fill="#dddddc"/>
        <path id="Trazado_901131" data-name="Trazado 901131" d="M557.814,177.441a44.5,44.5,0,0,0-3.978,5.049,72.12,72.12,0,0,0-9.215,19.3c-.649,2.382-1.425,6.085-2.271,10.427a222.627,222.627,0,0,0,12.177,21.022c6.9-7.958,15.026-18.262,21.177-29.2l.092-.164c.149-.267.295-.533.438-.8a86.377,86.377,0,0,1-18.421-25.633" transform="translate(-403.195 -131.913)" fill="#dddddc"/>
        <path id="Trazado_901132" data-name="Trazado 901132" d="M763.891,298.133s-19.222,4.077-53.107-11.067a69.519,69.519,0,0,1-18.118-11.873q-.909,1.913-2.053,3.966l-.1.179-.015.026a71.81,71.81,0,0,0,21.36,12.039c37.795,13.461,52.034,6.731,52.034,6.731" transform="translate(-513.329 -204.583)" fill="#828283"/>
        <path id="Trazado_901133" data-name="Trazado 901133" d="M595.239,129.454c-.882-2.084-1.566-3.889-2.071-5.317-.025-.044-.053-.088-.075-.13-.558,1.386-1.117,2.778-1.666,4.143l-.873,2.174c.232.644.5,1.365.817,2.161a25.743,25.743,0,0,1,3.869-3.03" transform="translate(-439.03 -92.189)" fill="#828283"/>
        <path id="Trazado_901134" data-name="Trazado 901134" d="M602.618,167.639a86.38,86.38,0,0,0,18.421,25.633q1.254-2.315,2.207-4.5a95.982,95.982,0,0,1-16.821-24.512,23.592,23.592,0,0,0-3.807,3.383" transform="translate(-447.998 -122.111)" fill="#828283"/>
        <path id="Trazado_901135" data-name="Trazado 901135" d="M698.948,210.917a69.521,69.521,0,0,0,18.118,11.873c33.886,15.144,53.107,11.067,53.107,11.067s-21.333,53.261-11.876,90.063l23.642-90.088.011-.041c3.208-11.353,2.437-15.077,1.406-17.053h0a1.007,1.007,0,0,0-.906-.514c-31.577-.109-57.737-8.684-77.753-25.486-.792-.665-1.558-1.334-2.308-2,1.392,4.858,1.363,12.071-3.442,22.183" transform="translate(-519.612 -140.308)" fill="#b7b7b7"/>
        <path id="Trazado_901136" data-name="Trazado 901136" d="M624.093,156.49a6.82,6.82,0,0,0-1.068-.084,9.961,9.961,0,0,0-5.571,2.014,95.978,95.978,0,0,0,16.821,24.512c3.326-7.638,3.891-14.063,1.608-18.784-1.955-4.042-6.142-6.761-11.79-7.658" transform="translate(-459.028 -116.275)" fill="#b7b7b7"/>
        <path id="Trazado_901137" data-name="Trazado 901137" d="M602.641,89.53a13.884,13.884,0,0,1,9.7-2.346,26.41,26.41,0,0,1,5.5,1.473A102.451,102.451,0,0,1,606.2,70.3c-1.434,3.221-3.555,8.43-5.694,13.74l.06.169c.505,1.428,1.189,3.233,2.071,5.317" transform="translate(-446.431 -52.264)" fill="#b7b7b7"/>
        <path id="Trazado_901138" data-name="Trazado 901138" d="M512.437,287.807c-1.382,2.742-2.823,6.045-4.24,9.745a7.321,7.321,0,0,0,.636,6.5l.357.561.271-1.451c1.1-5.862,2.091-11.187,2.976-15.354" transform="translate(-377.446 -213.961)" fill="#888"/>
        <path id="Trazado_901139" data-name="Trazado 901139" d="M531.285,322.858c-.424,2.267-.859,4.6-1.3,6.937q4.165,6.168,8.469,11.862c2.031-2.188,4.374-4.767,6.881-7.657a222.658,222.658,0,0,1-12.177-21.022c-.6,3.056-1.226,6.428-1.871,9.88" transform="translate(-393.999 -232.674)" fill="#888"/>
        <path id="Trazado_901140" data-name="Trazado 901140" d="M582.555,412.93c-2.442,2.786-4.706,5.259-6.651,7.344a299.014,299.014,0,0,0,49.435,49.634c19.036,15.042,33.3,22.418,34.128,22.84,4.391,1.988,6.135,1.539,6.461,1.257l.132-.5c-41.312-26.779-67.718-57.432-83.506-80.572" transform="translate(-428.139 -306.98)" fill="#888"/>
        <path id="Trazado_901141" data-name="Trazado 901141" d="M525.282,384.767q3.168,4.538,6.523,8.975c.929-.981,1.989-2.105,3.153-3.359q-4.292-5.695-8.469-11.863c-.4,2.087-.8,4.181-1.206,6.247" transform="translate(-390.505 -281.399)" fill="#555556"/>
        <path id="Trazado_901142" data-name="Trazado 901142" d="M1166.186,184.261c1.128-3.438,7.9-4.958,15.748-5.394a178.871,178.871,0,0,0-18.583-.493v23.519q1.414-.242,2.834-.52Z" transform="translate(-864.859 -132.565)" fill="#b4b4b4"/>
        <path id="Trazado_901143" data-name="Trazado 901143" d="M1174.4,185.851v17.112q2.263-.44,4.537-.968V190.388c1.947-5.933,20.688-6.156,32.787-4.949-4.254-2.4-11.51-4.11-21.186-4.949l-.39-.033c-7.849.436-14.62,1.955-15.748,5.394" transform="translate(-873.071 -134.155)" fill="#a0a0a0"/>
        <path id="Trazado_901144" data-name="Trazado 901144" d="M1192.083,203.13v11.606a104.62,104.62,0,0,0,35.069-14.951,12.7,12.7,0,0,0-2.283-1.6c-12.1-1.207-30.84-.984-32.786,4.949" transform="translate(-886.219 -146.897)" fill="#888"/>
        <path id="Trazado_901145" data-name="Trazado 901145" d="M1166.084,77.5c-3.882-7.923-32.359-1.4-46.335-5.536-4.788-1.419-7.658-3.635-9.365-5.935V90.445h11.271a179.056,179.056,0,0,1,21.637.463c13.61,1.176,22.621,4,26.862,8.4.191-.144.384-.285.574-.43.571-5.7-1.557-15.076-4.645-21.378" transform="translate(-825.482 -49.09)" fill="#c1c0c0"/>
        <path id="Trazado_901146" data-name="Trazado 901146" d="M1110.385,30.1c1.707,2.3,4.576,4.516,9.365,5.935,13.976,4.141,42.453-2.387,46.335,5.536,3.088,6.3,5.216,15.678,4.645,21.378a97.554,97.554,0,0,0,28.4-35.143c.2-.4.371-.751.533-1.07-1.38-.825-5.1-2.43-14.666-4.059-15.634-2.662-40.252-4.337-73.175-4.977a3.865,3.865,0,0,0-1.441,3.256Z" transform="translate(-825.483 -13.161)" fill="#aba9a9"/>
        <path id="Trazado_901147" data-name="Trazado 901147" d="M1491.472,123.894l-.016-.039-.06.169c.025-.044.053-.088.075-.13" transform="translate(-1108.734 -92.076)" fill="#dddddc"/>
        <path id="Trazado_901148" data-name="Trazado 901148" d="M1230.583,183.209a38.386,38.386,0,0,0-2.583-4.287c-2.6-3.645-8-16.926-13.367-30.293-3.484,9.669-15.981,37.634-47,48.683-37.795,13.461-52.034,6.731-52.034,6.731s21.333,53.261,11.876,90.063l.763,2.909c69.472-45.032,96.793-101.022,102.348-113.806" transform="translate(-829.357 -110.494)" fill="#dddddc"/>
        <path id="Trazado_901149" data-name="Trazado 901149" d="M1168.7,174.671c-33.886,15.144-53.107,11.067-53.107,11.067s14.239,6.731,52.034-6.731c31.023-11.049,43.52-39.015,47-48.684l-.873-2.174c-.548-1.366-1.107-2.758-1.666-4.144-.022.043-.05.087-.075.131-3.513,9.927-15.638,38.162-43.315,50.534" transform="translate(-829.357 -92.188)" fill="#828283"/>
        <path id="Trazado_901150" data-name="Trazado 901150" d="M1074.8,145.814s19.222,4.077,53.107-11.067c27.678-12.371,39.8-40.607,43.316-50.534l.06-.17c-2.139-5.31-4.26-10.519-5.694-13.74a100.2,100.2,0,0,1-25.312,32.391c-20.016,16.8-46.177,25.377-77.753,25.486a1.007,1.007,0,0,0-.906.514h0c-1.031,1.976-1.8,5.7,1.406,17.053,0,.014.008.027.011.041l23.642,90.088c9.457-36.8-11.876-90.063-11.876-90.063" transform="translate(-788.564 -52.264)" fill="#b7b7b7"/>
        <path id="Trazado_901151" data-name="Trazado 901151" d="M1267.2,283.4c-5.555,12.784-32.876,68.774-102.348,113.806l.132.5c.326.282,2.071.731,6.461-1.256.825-.422,15.178-7.85,34.236-22.925a295.293,295.293,0,0,0,65.706-72.752,7.322,7.322,0,0,0,.637-6.5A101.255,101.255,0,0,0,1267.2,283.4" transform="translate(-865.977 -210.687)" fill="#888"/>
        <path id="Trazado_901152" data-name="Trazado 901152" d="M766.656,65.795c-2.429-3.4-8.691-18.993-13.722-31.522-2.336-5.815-4.542-11.308-6.253-15.332-.928-2.181-1.646-3.779-2.2-4.887A9.758,9.758,0,0,0,743.248,12a4.154,4.154,0,0,0-.631-.9C737.085,4.969,704.233,1.028,650.112,0a2.26,2.26,0,0,0-.951.189A8.159,8.159,0,0,0,644.7,7.8V43.619a2.265,2.265,0,0,0,2.265,2.265h11.325V70.023a151.76,151.76,0,0,1-20.016,1.362,5.775,5.775,0,0,0-.775.055,2.26,2.26,0,0,0-.49-.055H627.18a151.769,151.769,0,0,1-20.016-1.362V45.884H618.49a2.265,2.265,0,0,0,2.265-2.265V7.8A8.159,8.159,0,0,0,616.291.19,2.26,2.26,0,0,0,615.34,0c-54.12,1.028-86.973,4.969-92.505,11.1a4.154,4.154,0,0,0-.63.9,9.773,9.773,0,0,0-1.236,2.053c-.55,1.108-1.268,2.706-2.2,4.887-1.712,4.024-3.918,9.517-6.253,15.332C507.488,46.8,501.226,62.394,498.8,65.795c-3.129,4.381-6.051,11.214-7.951,16.175a11.873,11.873,0,0,0,1.037,10.539q1.459,2.309,2.971,4.594c.413-2.167.819-4.332,1.216-6.453-.119-.187-.238-.373-.357-.561a7.321,7.321,0,0,1-.637-6.5c1.417-3.7,2.858-7,4.24-9.745.45-2.119.872-3.94,1.263-5.378a77.748,77.748,0,0,1,10.1-21.058q1.511-2.185,3.049-4c.7-1.742,1.415-3.507,2.125-5.275l.873-2.174c.548-1.365,1.107-2.757,1.665-4.143l.016-.039c2.139-5.31,4.26-10.519,5.694-13.74a102.469,102.469,0,0,0,11.637,18.354,18.57,18.57,0,0,1,10.272,9.145,18.05,18.05,0,0,1,1.1,2.888c.75.67,1.516,1.339,2.308,2,20.016,16.8,46.176,25.377,77.753,25.486a1.007,1.007,0,0,1,.905.514h0c1.031,1.976,1.8,5.7-1.406,17.053l-.011.041-23.642,90.088-.764,2.909-.132.5c-.326.282-2.071.731-6.461-1.257-.826-.422-15.093-7.8-34.129-22.84a299.027,299.027,0,0,1-49.435-49.634c-1.177,1.262-2.236,2.381-3.147,3.342q7.954,10.113,16.837,19.588a302.816,302.816,0,0,0,32.937,30.258c19.875,15.706,34.332,23.047,34.938,23.351l.081.039a18.091,18.091,0,0,0,7.212,1.937,6.872,6.872,0,0,0,2.975-.616,4.589,4.589,0,0,0,2.519-2.808l16.433-62.618c2.6.2,6.187.394,10.572.394,2.755,0,5.827-.076,9.162-.269l16.4,62.5a4.586,4.586,0,0,0,2.517,2.8,6.868,6.868,0,0,0,2.975.616,18.094,18.094,0,0,0,7.212-1.937l.081-.039c.606-.3,15.062-7.645,34.938-23.351a302.805,302.805,0,0,0,32.937-30.258,291.75,291.75,0,0,0,33.9-43.714,11.873,11.873,0,0,0,1.037-10.539c-1.9-4.961-4.822-11.794-7.951-16.175m3.084,24.3a295.293,295.293,0,0,1-65.707,72.752c-19.058,15.075-33.411,22.5-34.236,22.925-4.39,1.987-6.135,1.538-6.461,1.256l-.132-.5-.763-2.909L638.8,93.524l-.011-.041c-3.208-11.353-2.437-15.077-1.406-17.053h0a1.007,1.007,0,0,1,.906-.514c31.577-.109,57.737-8.684,77.753-25.486a100.2,100.2,0,0,0,25.313-32.391c1.434,3.221,3.555,8.43,5.694,13.74l.016.039c.558,1.386,1.117,2.779,1.666,4.144l.873,2.174c5.372,13.367,10.764,26.648,13.367,30.293a38.372,38.372,0,0,1,2.583,4.287,101.206,101.206,0,0,1,4.824,10.875,7.322,7.322,0,0,1-.637,6.5M650.669,4.542c32.924.641,57.542,2.315,73.176,4.977,9.563,1.629,13.286,3.233,14.666,4.059-.162.319-.337.672-.533,1.07a97.557,97.557,0,0,1-28.4,35.143c-.191.145-.383.286-.574.43-4.242-4.4-13.253-7.228-26.862-8.4a179.057,179.057,0,0,0-21.637-.463H649.228V7.8a3.866,3.866,0,0,1,1.441-3.256m12.149,41.267A178.943,178.943,0,0,1,681.4,46.3l.389.033c9.676.84,16.932,2.555,21.186,4.949a12.676,12.676,0,0,1,2.283,1.6A104.616,104.616,0,0,1,670.19,67.839q-2.274.529-4.538.969-1.42.276-2.834.52Zm-38.048,72.735.8-3.038,5.462-20.811c.754-2.671,1.306-4.979,1.7-6.994.39,2.014.942,4.322,1.7,6.994l5.506,20.982.792,3.017.715,2.723a145.072,145.072,0,0,1-17.388-.116Zm-62.3-67.26c4.254-2.395,11.51-4.11,21.186-4.949l.389-.033a178.868,178.868,0,0,1,18.582-.493V69.328q-1.414-.242-2.834-.52-2.263-.44-4.538-.969a104.616,104.616,0,0,1-35.069-14.951,12.686,12.686,0,0,1,2.283-1.6m-35-36.635c-.2-.4-.373-.757-.537-1.078,3.178-1.934,18.4-7.677,87.845-9.029A3.866,3.866,0,0,1,616.224,7.8V41.354H604.954a179.057,179.057,0,0,0-21.637.463c-13.609,1.176-22.62,4-26.862,8.4-.191-.144-.384-.285-.574-.43a97.56,97.56,0,0,1-28.4-35.143" transform="translate(-364.326 0)" fill="#555556"/>
        <path id="Trazado_901153" data-name="Trazado 901153" d="M546.749,178.793l.1-.172h0c7.884-14.11,6.723-22.892,4.362-27.774-2.541-5.252-7.782-8.755-14.758-9.862a10.6,10.6,0,0,0-1.661-.131c-6.746,0-12.663,6.418-16.555,12.048a76.212,76.212,0,0,0-9.9,20.639c-1.147,4.21-2.567,11.81-4.211,20.609-1.689,9.038-3.562,19.058-5.4,26.662l2.4,1.221c1.906-7.749,3.838-18.091,5.575-27.385,1.567-8.387,3.047-16.306,4.167-20.418a73.657,73.657,0,0,1,9.406-19.714c3.79-5.531,9.6-11.921,15.767-10.941,6.1.969,10.651,3.957,12.807,8.413,3,6.2,1.514,14.963-4.289,25.351l-.093.166c-10.189,18.121-25.7,34.472-32.324,41.454l-.021.022c-1.373,1.447-2.365,2.493-2.991,3.209q-1.224,1.4-2.341,2.722l2.4,1.222c.615-.723,1.249-1.46,1.911-2.216.594-.678,1.626-1.766,2.932-3.143,6.7-7.063,22.369-23.58,32.715-41.981" transform="translate(-370.758 -104.713)" fill="#a09993"/>
        <path id="Trazado_901154" data-name="Trazado 901154" d="M147.765,214.044c1.945-2.085,4.209-4.558,6.651-7.344,7.262-8.283,16.089-19.327,22.752-31.17l.015-.026.1-.179q1.147-2.053,2.053-3.966c4.8-10.112,4.834-17.326,3.442-22.183a18.026,18.026,0,0,0-1.1-2.888,18.57,18.57,0,0,0-10.272-9.145,26.4,26.4,0,0,0-5.5-1.473,13.882,13.882,0,0,0-9.7,2.346,25.753,25.753,0,0,0-3.869,3.03,37.434,37.434,0,0,0-2.941,3.114q-1.537,1.815-3.049,4a77.743,77.743,0,0,0-10.1,21.058c-.392,1.438-.813,3.258-1.263,5.378-.885,4.167-1.88,9.492-2.976,15.354l-.271,1.451c-.4,2.122-.8,4.287-1.216,6.453-1.3,6.849-2.676,13.7-4.023,19.19l-1.66,6.081a27.737,27.737,0,0,0-6.182-.97,38.7,38.7,0,0,0-22.193,5.822,49.988,49.988,0,0,0-9.947,8.118c-24.468,25.53-75.143,87.413-82.509,99.066A24.857,24.857,0,0,0,.883,343.37c-.007.033-.012.067-.016.1-1.79,8.654-.782,19.9,2.767,30.883,4.748,14.7,13.393,27.115,24.344,34.948a57.772,57.772,0,0,0,6.5,4.019l.037.019a57.787,57.787,0,0,0,7.078,2.882,60.259,60.259,0,0,0,19,2.951q2.26,0,4.569-.151a78.38,78.38,0,0,0,22.4-4.928c13.988-5.309,24.739-13.821,28.056-22.213C120.682,379.051,140.8,301.644,147,266.832c2.371-13.3-.215-24.8-7.685-34.18a27.971,27.971,0,0,0-4.161-4.212l3.973-4.975q1.075-1.271,2.244-2.609c.576-.657,1.6-1.737,2.9-3.113l.34-.358c.912-.961,1.97-2.08,3.147-3.342M3,344.468c.04-.21.081-.42.124-.627.007-.032.012-.064.016-.1a22.514,22.514,0,0,1,2.805-7.363c7.33-11.595,57.827-73.247,82.229-98.708a47.741,47.741,0,0,1,9.465-7.734l.025-.016a36.462,36.462,0,0,1,20.907-5.489,25.474,25.474,0,0,1,5.677.892l-2.423,8.88a8.9,8.9,0,1,0,7.423,6.079c0-.01-.007-.02-.011-.03a8.909,8.909,0,0,0-1.4-2.647l.662-.829,5.235-6.556a25.676,25.676,0,0,1,3.8,3.85c7.044,8.845,9.474,19.732,7.223,32.359-6.184,34.719-26.222,111.852-31.268,124.607h0c-3.042,7.7-13.54,15.907-26.744,20.919-15.027,5.7-31.222,6.467-44.434,2.095a55.565,55.565,0,0,1-6.779-2.759,55.521,55.521,0,0,1-6.225-3.85C18.96,400.045,10.74,388.368,6.087,374.5c-.094-.281-.19-.563-.281-.846C2.447,363.262,1.433,352.674,3,344.468M137.545,223.255l-13.192,16.521c-.828.535-1.485.733-1.813.545-.424-.244-.524-1.216-.508-1.685l5.576-20.432Zm-10.469,17.738a6.616,6.616,0,1,1-6.279-4.564c.131,0,.261,0,.392.012-.332,1.247-.469,1.792-.5,1.924a2.674,2.674,0,0,0,.174,1.781,2.3,2.3,0,0,0,.991,1.359,1.912,1.912,0,0,0,.977.254,2.722,2.722,0,0,0,.612-.077,2.667,2.667,0,0,0,1.9-.952l.011-.013h0c.338-.4.675-.815,1.011-1.228a6.654,6.654,0,0,1,.71,1.506m49.779-92.37c2.284,4.721,1.718,11.146-1.608,18.784q-.953,2.188-2.207,4.5c-.143.265-.289.531-.438.8l-.092.164c-6.152,10.941-14.275,21.244-21.177,29.2-2.507,2.89-4.85,5.469-6.881,7.657-1.164,1.254-2.224,2.379-3.153,3.359l-.911.961-.021.022c-1.384,1.459-2.384,2.513-3.028,3.249-.9,1.026-1.748,2.019-2.564,2.987l-3.159-1.605c1.058-4.267,2.124-9.333,3.16-14.589.407-2.066.81-4.16,1.206-6.247.444-2.339.879-4.67,1.3-6.937.645-3.452,1.275-6.824,1.871-9.88.846-4.342,1.622-8.045,2.271-10.427a72.118,72.118,0,0,1,9.215-19.3,44.491,44.491,0,0,1,3.978-5.049,23.584,23.584,0,0,1,3.807-3.383A9.961,9.961,0,0,1,164,140.881a6.817,6.817,0,0,1,1.068.084c5.647.9,9.834,3.616,11.79,7.658m-38.422,73.548-2.4-1.222c.748-.884,1.525-1.79,2.341-2.722.626-.716,1.618-1.761,2.991-3.209l.021-.022c6.624-6.982,22.135-23.333,32.324-41.453l.093-.166c5.8-10.388,7.287-19.154,4.29-25.351-2.156-4.457-6.7-7.444-12.807-8.413-6.166-.981-11.978,5.409-15.768,10.941a73.673,73.673,0,0,0-9.406,19.714c-1.12,4.112-2.6,12.031-4.167,20.418-1.737,9.294-3.67,19.636-5.575,27.385l-2.4-1.222c1.84-7.6,3.713-17.624,5.4-26.662,1.645-8.8,3.065-16.4,4.211-20.609a76.222,76.222,0,0,1,9.9-20.639c3.892-5.63,9.809-12.048,16.555-12.048a10.594,10.594,0,0,1,1.661.131c6.975,1.108,12.217,4.61,14.758,9.862,2.362,4.882,3.522,13.664-4.362,27.774h0l-.1.172c-10.347,18.4-26.015,34.918-32.715,41.981-1.306,1.377-2.338,2.465-2.932,3.143-.661.756-1.3,1.493-1.911,2.216" transform="translate(0 -100.75)" fill="#686665"/>
        <path id="Trazado_901155" data-name="Trazado 901155" d="M116.464,570.4a71.582,71.582,0,0,0-10.146-66.889,47.724,47.724,0,0,0-9.465,7.734c-24.4,25.461-74.9,87.113-82.229,98.707a22.514,22.514,0,0,0-2.805,7.363c0,.032-.009.064-.016.1-.043.207-.084.417-.124.627,53.09,39.995,91.173-7.877,104.785-47.638" transform="translate(-8.682 -374.317)" fill="#dddcdb"/>
        <path id="Trazado_901156" data-name="Trazado 901156" d="M12.69,632.015c58.958,22.838,99.64-18.368,117.124-65.731a127.62,127.62,0,0,0,6.465-66.114,8.9,8.9,0,1,1-7.855-8.444l2.424-8.881a25.47,25.47,0,0,0-5.677-.892,36.462,36.462,0,0,0-20.907,5.489l-.025.016a71.582,71.582,0,0,1,10.146,66.889C100.772,594.108,62.69,641.98,9.6,601.985c-1.563,8.207-.549,18.795,2.809,29.184.092.283.187.564.281.846" transform="translate(-6.603 -358.268)" fill="#cecece"/>
        <path id="Trazado_901157" data-name="Trazado 901157" d="M498.891,530.163l-.662.829a8.9,8.9,0,0,1,1.4,2.647q-.358-1.832-.737-3.476" transform="translate(-370.393 -394.134)" fill="#cecece"/>
        <path id="Trazado_901158" data-name="Trazado 901158" d="M140.848,583.153c-17.484,47.364-58.166,88.569-117.124,65.731,4.653,13.87,12.873,25.548,23.219,32.948a55.492,55.492,0,0,0,6.225,3.85,55.535,55.535,0,0,0,6.779,2.759c13.212,4.372,29.408,3.609,44.434-2.095,13.2-5.012,23.7-13.223,26.744-20.919h0c5.046-12.756,25.084-89.888,31.268-124.608,2.251-12.627-.179-23.514-7.223-32.359a25.676,25.676,0,0,0-3.8-3.85l-5.235,6.556q.377,1.643.737,3.476l.011.03a8.939,8.939,0,0,1,.431,2.365,127.62,127.62,0,0,1-6.465,66.115" transform="translate(-17.637 -375.138)" fill="#bfbfbf"/>
        <path id="Trazado_901159" data-name="Trazado 901159" d="M481.18,457.768,475.6,478.2c-.016.469.084,1.44.508,1.685.327.189.985-.01,1.813-.545l13.192-16.521Z" transform="translate(-353.573 -340.314)" fill="#a09993"/>
      </g>
    </g>
  </g>
</svg>
