<svg id="Grupo_1114813" data-name="Grupo 1114813" xmlns="http://www.w3.org/2000/svg" xmlns:xlink="http://www.w3.org/1999/xlink" width="183.406" height="379.259" viewBox="0 0 183.406 379.259">
  <defs>
    <clipPath id="clip-path">
      <rect id="Rectángulo_407949" data-name="Rectángulo 407949" width="183.406" height="379.259" fill="none"/>
    </clipPath>
  </defs>
  <g id="Grupo_1114812" data-name="Grupo 1114812" clip-path="url(#clip-path)">
    <path id="Trazado_903847" data-name="Trazado 903847" d="M181.6,109.256a23.663,23.663,0,0,1-7.43-3.482c3.379-3.751,7.092-7.777,7.232-13.056.188-7.082-5.444-13.54-9.24-18.9a.338.338,0,0,0-.055-.053c-.052-.3-.1-.605-.161-.9-.105-.506-.771-.32-.826.112-.637,5.022-.638,10.063-1.455,15.084a124.843,124.843,0,0,1-3.208,13.462c-2.529,9.034-5.812,17.84-8.491,26.829a210.254,210.254,0,0,0-6.18,30.074c-1.445,10.075-3.1,20.481-3.125,30.669a.33.33,0,0,0,.646.088c.037-.114.065-.231.1-.345a.416.416,0,0,0,.337-.3c1.985-6.672,3.275-13.49,5.453-20.131a184.862,184.862,0,0,1,8.011-19.8c5.9-12.787,12.865-25.057,19.062-37.7a1.138,1.138,0,0,0-.671-1.649" transform="translate(-48.591 -23.717)" fill="#8d9096"/>
    <path id="Trazado_903848" data-name="Trazado 903848" d="M112.1,86.84c0-.008-.011-.009-.015-.015.164-.394.322-.79.468-1.192.1-.283-.3-.41-.456-.193-4.465,6.376-9.559,12.049-14.632,17.926a1.019,1.019,0,0,0,.712,1.719,40.307,40.307,0,0,1,7.77,1.576c-2.3,4.569-5.867,8.565-7.286,13.5-.911,3.166-.659,6.629-.512,9.87.19,4.2.487,8.4.842,12.589,1.244,14.711,4.575,29.1,5.531,43.817-.053,1.757.137,3.461.227,5.185.015.663.035,1.325.038,1.99a.459.459,0,0,0,.917,0c.108-4.169,1.064-8.594,1.494-12.768.479-4.645,1.115-9.275,1.717-13.905a229.482,229.482,0,0,0,1.953-28.142c.061-9.084.222-18.216.765-27.285.285-4.753.67-9.5,1.114-14.239.333-3.552.784-7.068-.646-10.428" transform="translate(-31.762 -27.89)" fill="#8d9096"/>
    <path id="Trazado_903849" data-name="Trazado 903849" d="M84.346,92.084c-10.676,2.077-18.885,10.635-30,11.3a.531.531,0,0,0-.353.156.4.4,0,0,0-.378.383c-.146,7.772,1.458,15.242,2.9,22.854,1.78,9.362,2.557,17.937,1.135,27.411-1.278,8.5-2.458,16.642-2.308,25.271.163,9.427,1.012,18.868.4,28.293-1.173,17.922-6.606,35.278-7.141,53.279-.537,18.084,5.935,35.516,5.7,53.588a1.056,1.056,0,0,0,.772,1.014c7.442,1.91,11.11-13.048,12.637-17.669,3.267-9.887,5.21-20.074,7.72-30.155,4.809-19.313,8.494-39.085,9.485-58.994,1.041-20.9-2.011-41.932-4.8-62.606-.764-5.67-2-11.181-3.041-16.8-1.1-5.931-.984-12.116,4.01-16.245.517-.428.044-1.14-.493-1.19-2.065-.191-3.922-1.085-5.922-1.5,3.74-5.751,9.909-9.809,11.028-17.029a1.125,1.125,0,0,0-1.361-1.36m-3.191,93.358a.529.529,0,0,1,.912.534c-3.566,7.81-13.662,13-21.551,15.274-.438.127-.747-.553-.316-.75,8.106-3.7,16.042-7.162,20.955-15.058" transform="translate(-15.875 -30.089)" fill="#a5a8ad"/>
    <path id="Trazado_903850" data-name="Trazado 903850" d="M31.084,252.6c2.672-18.046,7.08-36.045,7.859-54.314,1.875-5.984,1.074-13.454.81-19.614-.318-7.438-1.138-14.844-1.535-22.278-.639-11.924,2.034-24.992-2-36.5,0-.007-.008-.011-.011-.019.074-.256.151-.51.221-.767a.357.357,0,0,0-.649-.273c-5.584,7.483-8.884,17.029-12.262,25.677a225.854,225.854,0,0,0-8.875,28.6c-2.1,8.591-4.746,17.037-6.538,25.706-1.407,6.808-1.334,13.322-1.475,20.2-.217,10.534-2.276,21.83,1.012,32.088a11.543,11.543,0,0,0,7.622,7.665,11.217,11.217,0,0,0,2.8.518c1.588.139,4.038-.6,1.238,1.509-3.182,2.4-8.264,1.729-12.025,2.557a.711.711,0,0,0-.405,1.119.628.628,0,0,0-.067.276C6.8,271.963,6,278.966,5.317,286.129c-.67,7-.151,13.818,2.961,20.2a1.02,1.02,0,0,0,1.4.368c6.674-4.873,15.561-1.979,23.044-1.092a.8.8,0,0,0,.8-.8c-.168-17.573-5.049-34.581-2.44-52.2" transform="translate(-1.653 -38.79)" fill="#a5a8ad"/>
    <path id="Trazado_903851" data-name="Trazado 903851" d="M231.913,200.036c.066-2.821-.9-5.545-1.225-8.338-.349-2.971-.53-5.965-.687-8.952-.314-6.023-.22-12.062-.151-18.088.115-9.987.232-19.971-.765-29.92a78.017,78.017,0,0,0-4.8-21.379c-1.891-4.7-5.745-11.7-11.562-11.976a.656.656,0,0,0-.153.02c-5.125-1.927-10.164-3.963-15.121-6.314-2.408-1.142-4.769-2.368-7.121-3.62-1.628-.866-3.381-2.332-5.254-2.514a16.872,16.872,0,0,0-1.759-.416.8.8,0,0,0-.894,1.163,14.339,14.339,0,0,1,1.14,2.889,69.194,69.194,0,0,0,1.168,8.746,48.27,48.27,0,0,1,.316,16.285c-1.642,9.835-5.98,18.914-10,27.944-8.07,18.106-16.943,36.3-21.954,55.541-5.232,20.1-2.674,40.236.12,60.494,1.859,13.473,2.1,29.132,10.229,40.69,6.12,8.7,16.965,11.276,26.931,8.365a.863.863,0,0,0,.616.368,1.135,1.135,0,0,0,1.41.328,24.606,24.606,0,0,1,14.1-3.08c5.4.377,10.149,2.495,15.322,3.69a1.3,1.3,0,0,0,.731-.029,1.109,1.109,0,0,0,1.581-.827c1.082-9.03.424-18.469.783-27.566.376-9.573.78-19.181,1.592-28.728.779-9.155,2.676-18.065,3.975-27.135,1.269-8.861.442-17.966,1.1-26.907a.967.967,0,0,0,.331-.734m-32.358-39.791c.4,2.17.809,4.333,1.078,6.478a162.052,162.052,0,0,1,1.257,19.5,122.256,122.256,0,0,1-1.443,17.978,102.2,102.2,0,0,0-.392,19.96c.337,6.4.767,12.785.566,19.2-.234,7.467-2.185,14.5-4.1,21.669-1.614,6.042-3.131,12.231-4.189,18.484.63-8.7,1.728-17.381,3-26.135,1.251-8.591,2.78-17.132,2.65-25.848-.141-9.479-3.957-18.2-2.481-27.794a380.822,380.822,0,0,0,4.051-43.494m-15.371,52.692a33.6,33.6,0,0,1-1.9,5.755.548.548,0,0,1-.38.38,26.609,26.609,0,0,0-7.343,2.3,22.971,22.971,0,0,1-6.553,3.7l-.47.3a.423.423,0,0,1-.458.023,31.173,31.173,0,0,1-4.114,1.092c-.213.041-.382-.273-.158-.375,1.588-.722,3.121-1.475,4.635-2.251a97.507,97.507,0,0,0,8.466-5.434.654.654,0,0,1,.134-.111c.034-.017.065-.039.1-.057q3.774-2.718,7.343-5.728a.422.422,0,0,1,.7.407m-11.166-5.8c-.035.013-.055-.04-.024-.058,3.718-2.214,7.655-4.052,11.43-6.169,3.589-2.012,6.827-4.372,10.2-6.713.5-.348,1.066.42.64.83-5.918,5.695-14.615,9.33-22.242,12.11" transform="translate(-49.047 -28.933)" fill="#a5a8ad"/>
    <path id="Trazado_903852" data-name="Trazado 903852" d="M131.8,121.15c1.9-2.594,3.3-7.239,1.06-10.061-2.271-2.856-6.43-.143-7.772,2.4a1.6,1.6,0,0,0-.705,1.3,14.7,14.7,0,0,0,.969,6.085,1.556,1.556,0,0,0,.456.623,80.753,80.753,0,0,0-.846,8.142.56.56,0,0,0-.6.461c-.836,5.883-1.331,11.738-2.631,17.56-1.411,6.317-3.305,12.514-5.119,18.723-3.316,11.349-5.017,22.834-6.946,34.469-1.758,10.593-3.626,21.21-3.556,31.986a41.871,41.871,0,0,0,.922,8.966,8.389,8.389,0,0,0,2.332,7.516c2.272,2.384,7,3.224,9.435.644a1.43,1.43,0,0,0,.176-.23c.6-.374,1.191-.784,1.781-1.178.7-.467,1.419-.751,1.6-1.629a.9.9,0,0,0-.1-.608c.948-10.822.944-21.7,1.526-32.548s1.512-21.7,2.559-32.527c1.863-19.261,5.506-38.695,3.961-58.031a2.363,2.363,0,0,0,1.345-.753,1,1,0,0,0,.036-1.187,1.145,1.145,0,0,0,.114-.127m-1.046-7.854a1.517,1.517,0,0,0-1.14-.508c.518-.118.945-.022,1.147.488l.006.018-.013,0" transform="translate(-34.683 -35.91)" fill="#c9ccd1"/>
    <path id="Trazado_903853" data-name="Trazado 903853" d="M126.736,125.4a1.046,1.046,0,0,0-1.733-.458,38.486,38.486,0,0,0-3.9,4.634.858.858,0,0,0-.893.588c-.656,1.77-.485,3.483-.516,5.362-.042,2.562-.166,5.121-.279,7.681-.009.2-.024.394-.034.591q-.23.67-.487,1.334a1.2,1.2,0,0,0,.3,1.419,65.313,65.313,0,0,0-.337,11.772.145.145,0,0,0,.284.038,29.843,29.843,0,0,0,1.773-6.8c1.325-3.689,3.119-7.328,4.474-10.855,1.854-4.822,2.77-10.263,1.344-15.306" transform="translate(-38.796 -40.738)" fill="#f0f3f7"/>
    <path id="Trazado_903854" data-name="Trazado 903854" d="M157,124.663a.679.679,0,0,0-1.009-.579,4.6,4.6,0,0,0-.846.6.76.76,0,0,0-.477.446c-.425.429-.823.9-1.216,1.3-.459.471-.936.922-1.4,1.38a19.086,19.086,0,0,0-4.472-6.508.489.489,0,0,0-.248-.127c.009-.03.023-.057.033-.086.171-.529-.584-.8-.866-.365-2.4,3.735-6.538,5.69-7.512,10.292-1.027,4.861.413,10.132.193,15.066-.291,6.507-1.019,12.982-1.653,19.462-.672,6.87-.851,13.75-1.245,20.637-.744,12.972-1.938,25.909-2.2,38.906a156.68,156.68,0,0,0,.7,18.65c.594,5.979,1.163,12.663,3.763,18.135a.913.913,0,0,0,.633.509c.4.66.843,1.3,1.218,1.945.722,1.236,2.945.392,2.375-1-.042-.1-.09-.206-.137-.308l.007,0-.028-.044c-.065-.135-.133-.271-.205-.4a1.1,1.1,0,0,0,.076-.579c-1.488-11.8-1.338-23.94-1.624-35.826a236.3,236.3,0,0,1,1.946-38.667c.838-5.974,2.128-11.911,3.288-17.83,1.173-5.984,2.269-12.083,4.018-17.929,2.271-7.588,7.757-16.712,6.269-24.985a3.486,3.486,0,0,0,.617-2.085" transform="translate(-43.814 -39.386)" fill="#f0f3f7"/>
    <path id="Trazado_903855" data-name="Trazado 903855" d="M164.016,75.341c-3.953,8.367-10.371,14.181-17.812,19.268-.094-.018-.184-.044-.278-.059a1.128,1.128,0,0,0-1.286,1.2.363.363,0,0,0,.143.414.86.86,0,0,0,.6.361c4.511.769,8.354,4.147,10.407,8.257,0,.017.009.032.014.048a2.039,2.039,0,0,0,.349.73,15.149,15.149,0,0,1,.9,2.72,1.1,1.1,0,0,0,1.995.261c6.589-9.143,5.286-21.64,7.42-32.169.285-1.41-1.767-2.483-2.452-1.034" transform="translate(-47.269 -24.4)" fill="#f0f3f7"/>
    <path id="Trazado_903856" data-name="Trazado 903856" d="M133.406,99.119c-5.6-3.355-7.605-9.427-11.619-14.191a.635.635,0,0,0-1.055.614c.2.531.424,1.067.652,1.6a.711.711,0,0,0-.067.248c-.2,2.991.72,6.3,1.107,9.256q.669,5.118,1.1,10.266a1.206,1.206,0,0,0,.437.817,1.1,1.1,0,0,0,1.626.787c2.956-2.107,5.37-5.032,8.068-7.464a1.242,1.242,0,0,0-.25-1.936" transform="translate(-39.449 -27.697)" fill="#f0f3f7"/>
    <path id="Trazado_903857" data-name="Trazado 903857" d="M131.445,338.454a.794.794,0,0,0-.514-.973c-1.894-.74-5.106.574-7.036.91-3.6.628-7.221,1.189-10.846,1.659-3.28.425-6.589.73-9.893.88-1.7.077-4.428.376-6.04-.186a.172.172,0,0,0-.166.286c3.622,3.2,10.831,1.758,15.277,1.317,3.619-.358,7.223-.86,10.806-1.473.326-.056.705-.1,1.111-.15.066.66.177,1.321.3,1.981-1.173.2-2.343.5-3.481.719-2.324.436-4.676.765-6.979,1.3a.832.832,0,0,0-.472.293.875.875,0,0,0-.891.685c-.808,2.775.017,5.764,1.115,8.346a1.357,1.357,0,0,0,1.529.622c2.728-.572,5.46-1.048,8.219-1.446a34.486,34.486,0,0,0,6.941-1.315,1.139,1.139,0,0,0,1.78-.9,39.339,39.339,0,0,0-.764-12.552" transform="translate(-31.671 -110.232)" fill="#8d9096"/>
    <path id="Trazado_903858" data-name="Trazado 903858" d="M148.709,439.275a.76.76,0,0,0-.364-.447.712.712,0,0,0-.94-.48,24.23,24.23,0,0,1-7.121,1.309,37.809,37.809,0,0,0,2.17-10.945.9.9,0,0,0-1.337-.767,36.242,36.242,0,0,1-7.263,3.1,84.546,84.546,0,0,0,3.474-12.437c.563-3.124,1.519-8.8-1.16-11.2a.581.581,0,0,0-.481-.555c-2.562-.532-5.26-.209-7.87-.647a20.682,20.682,0,0,1-7.183-2.828c-3.97-2.391-6.579-6.307-8.7-10.309a79.914,79.914,0,0,1-5.228-13.65c-1.38-4.387-2.489-9.236-5.093-13.091a.854.854,0,0,0-.771-1.016c-2.851-.239-5.984.68-8.8,1.1a94.633,94.633,0,0,1-11.077.962c-6.973.224-13.269-1.111-20.038-2.431a.515.515,0,0,0-.4.937c.021.016.044.029.065.045a8.973,8.973,0,0,0-1.152,1.48c-1.792,1.8-2.893,4.868-3.9,6.977A94.393,94.393,0,0,0,51.119,385.5c-2.315,7.038-3.953,14.661-2.946,22.081-3.737.714-7.416,1.8-11.133,2.61a.708.708,0,0,0-.176,1.28c-.415,1.7-.727,3.437-1.126,5.144a1.372,1.372,0,0,0-.023.526,17.359,17.359,0,0,0-3.088.318.856.856,0,0,0-.509,1.251c2.075,3.235.988,7.288-1.144,10.18-4.036-.926-8.134-2.2-12.282-2.307a1.412,1.412,0,0,0-2.666.077c-5.079,18.788-8.174,38.117-15.7,56.183-.1.245.277.373.409.172s.255-.4.383-.6a.565.565,0,0,0,.434.316c9.057,1.14,19.079-1.9,27.8-4.078,4.69-1.172,9.345-2.479,14.02-3.71.339-.09.686-.169,1.029-.252-7.363,3.17-14.73,6.4-21.881,9.922-1.263.621-.292,2.252.878,2.083,8.039-1.154,16.307-1.413,24.155-3.638,7.115-2.017,12.48-6.449,16.52-12.57,4.685-7.1,7.63-15.244,11.1-22.961A78.524,78.524,0,0,1,81.289,436.2c2.326-3.5,5.327-5.861,8.237-8.72-1,9.422,3.782,19.089,6.394,27.9,1.717,5.787,2.394,11.732,3.093,17.707.6,5.084,1.259,10.711,2.968,15.571a63.722,63.722,0,0,0,6.208-5.484,63.714,63.714,0,0,0,8.6-11.5c.134-.221.536-.073.433.183a37.782,37.782,0,0,1-4.737,8.294c-1.4,2.586-2.894,5.125-4.454,7.618-.532.849.543,1.984,1.4,1.4,6.092-4.116,10.948-9.675,15.546-15.379-1.888,3.863-4.3,7.529-6.464,11.173a.581.581,0,0,0,.651.847,45.465,45.465,0,0,0,11.715-4.824c-.1-.257.254-.545.444-.3.722.925,1.424,1.874,2.114,2.835a23.726,23.726,0,0,1,2.422,2.6q.619.671,1.228,1.353c.155-1.348.392-2.689.532-4.032A161.212,161.212,0,0,0,142.4,467.08a42.379,42.379,0,0,0,4.328-11.222,83.676,83.676,0,0,0,1.695-8.964c.363-2.507,1.043-5.152.291-7.619M73.2,444.69c-15.57,7.157-30.065,16.413-46.281,22.156-.485.172-.816-.611-.351-.832,14.065-6.707,26.7-16.016,39.724-24.476-.025-.378.263-.771.716-.608.1.036.2.078.295.114l.014.006A59.7,59.7,0,0,1,73.2,443.7a.579.579,0,0,1,0,.994m12.836-22.763c-1.054.081-2.1.185-3.144.3-10.659,2.7-18.836,9-28.4,14.15a146.086,146.086,0,0,1-14.414,6.634c-4.746,1.924-9.507,4.145-14.443,5.527a.674.674,0,0,1-.517-1.226c4.8-2.908,10.368-4.576,15.534-6.713a116.088,116.088,0,0,0,15.938-7.742C61.629,429.8,67,426.324,72.69,423.993c-3.138.712-6.252,1.558-9.371,2.522-7.03,2.174-13.928,4.943-21.224,6.124-.6.1-1.105-.786-.45-1.067A171.018,171.018,0,0,1,63.9,423.936c7.137-1.945,14.713-3.292,22.133-2.577a.284.284,0,0,1,0,.568" transform="translate(-0.101 -119.276)" fill="#656d7a"/>
    <path id="Trazado_903859" data-name="Trazado 903859" d="M149.332,42.272c-.547,7.916-7.745,14.07-13.83,18.251a44.314,44.314,0,0,1-10.571,5.64,5.875,5.875,0,0,1-6.13-1.208c-1.194-1.184-2.023-2.608-3.4-3.618-.128-.094-.269.106-.164.212,2.5,2.541,4.172,6.2,8.4,5.485a20.52,20.52,0,0,0,6.308-2.6c1.863-1.018,3.706-2.016,5.476-3.191a45.666,45.666,0,0,0,9.926-8.766c2.359-2.841,4.478-6.4,4.368-10.208a.19.19,0,0,0-.38,0" transform="translate(-37.652 -13.756)" fill="#595a5b"/>
    <path id="Trazado_903860" data-name="Trazado 903860" d="M175.852,9.848c.081-2.822.6-6.324-1.426-8.628-2.428-2.76-6.285-.345-7.284,2.424-.03.088.1.13.143.061,1.2-1.759,2.883-3.51,5.222-2.943,1.573.38,2.281,1.879,2.6,3.309a27.644,27.644,0,0,1,.151,7.033c-.176,4.209-3.035,11.65-8.21,11.3-.351-.024-.353.529,0,.547a5.762,5.762,0,0,0,2.7-.5A66.462,66.462,0,0,0,170,34.908c.349,3.743.91,8.363,3.026,11.572.14.211.5.082.423-.179-.58-1.861-1.378-3.608-1.856-5.513a45.493,45.493,0,0,1-1.052-6.434c-.408-3.994-.13-8.041-.526-12.026,4-2.039,5.729-8.559,5.84-12.48" transform="translate(-54.514 0)" fill="#595a5b"/>
    <path id="Trazado_903861" data-name="Trazado 903861" d="M142.72,86.06c1.688-1.968,3.253-4.044,4.772-6.145a56.71,56.71,0,0,0,4.4-6.582c.1-.2-.168-.436-.323-.249-1.462,1.764-2.663,3.761-3.994,5.626-1.579,2.211-3.227,4.371-4.967,6.458a63.533,63.533,0,0,1-5.232,5.57c-1.923,1.809-4.1,3.232-6.145,4.875a.206.206,0,0,0-.036.042.282.282,0,0,0-.211.117c-2.217-2.514-4.682-4.807-6.894-7.33a43.234,43.234,0,0,1-6.056-8.977c-.105-.207-.462-.06-.377.158,2.5,6.4,7.956,11.952,13.068,16.416-3.136.474-5.4,2.767-7.15,5.322-2.285,3.341-4.008,6.575-7.327,9.05a.209.209,0,0,0,.211.36c2.97-1.394,4.754-4.439,6.41-7.128a37.256,37.256,0,0,0,1.885,8.025.293.293,0,0,0,.212.183c-1.313,4.8-2.125,9.743-3.428,14.552-1.39,5.133-2.973,10.212-4.482,15.311-1,3.377-2.03,6.831-2.956,10.328.564-6.05.352-12.269.331-18.3-.026-7.312.256-14.681-.013-21.986a.065.065,0,0,0-.13,0c-.887,7.017-.485,14.282-.471,21.338.007,3.663,0,7.325-.081,10.986-.076,3.628-.4,7.25-.465,10.875a.209.209,0,0,0,.053.143,75.017,75.017,0,0,0-2.351,16.415c-1.082,4.61-1.12,9.6-1.552,14.284-.494,5.385-1.095,10.752-1.669,16.127q-.83,7.765-1.249,15.566c-.285,5.271-.7,10.752-.177,16.018a.173.173,0,0,0-.138.263,22.991,22.991,0,0,0,3.058,3.491,18.791,18.791,0,0,0,3.509,2.918c.2.112.355-.137.228-.3a30.115,30.115,0,0,0-3.284-3.076c-1.087-1-2.093-2.077-3.113-3.142a.165.165,0,0,0,.111-.153c.254-5.125.082-10.265.361-15.4.283-5.205.756-10.4,1.3-15.581.54-5.157,1.146-10.3,1.617-15.465.25-2.749.494-5.5.747-8.247.183-1.986.444-3.986.515-5.986a.232.232,0,0,0,.173-.2,152.027,152.027,0,0,1,2.324-15.861c1.13-5.212,2.6-10.346,4.134-15.453,1.471-4.9,3-9.794,4.369-14.728,1.342-4.822,2.907-9.973,3.113-15a.129.129,0,0,0-.056-.113c-.652-2.68-1.195-5.5-2.082-8.11a.2.2,0,0,0-.1-.116,23.856,23.856,0,0,1,3.019-4.087,12.247,12.247,0,0,1,5.088-2.916,29.139,29.139,0,0,1,6.587,6.073,31.981,31.981,0,0,1,5.651,8.337.261.261,0,0,0,.431.114c1.3-1.478,2.592-2.981,3.82-4.52.184-.231-.117-.555-.333-.333-1.278,1.324-2.4,2.8-3.6,4.2a35.537,35.537,0,0,0-4.932-7.553c-1.963-2.454-4.342-5.28-7.221-6.73,4.363-2.018,8.044-6.206,11.1-9.773" transform="translate(-34.67 -23.865)" fill="#595a5b"/>
    <path id="Trazado_903862" data-name="Trazado 903862" d="M120.05,80.455a.135.135,0,0,0-.271,0c-.4,5.388.34,10.851.352,16.246a47.2,47.2,0,0,1-.736,7.924,32.091,32.091,0,0,0-.856,7.355c.015.221.368.3.409.055.407-2.4.613-4.842,1.024-7.251a48.394,48.394,0,0,0,.775-7.437c.083-5.6-.243-11.313-.7-16.892" transform="translate(-38.735 -26.254)" fill="#595a5b"/>
    <path id="Trazado_903863" data-name="Trazado 903863" d="M139.513,115.443a51.043,51.043,0,0,1-2.529,4.779,51,51,0,0,1-3.5,4.275.254.254,0,0,0-.18-.188,4.993,4.993,0,0,0-2.474.282,2.773,2.773,0,0,0-1.663.958.069.069,0,0,0,.076.1c.589-.128,1.166-.311,1.755-.45.721-.169,1.5-.125,2.2-.32a.2.2,0,0,0,.145.221c-1.216,4.689-.789,10.026-.711,14.8a134.927,134.927,0,0,1-.357,16.573c-.582,5.437-1.1,10.866-1.461,16.323-.187,2.821-.354,5.644-.528,8.466a66.09,66.09,0,0,0-.427,8.155c-1,4.234-1.117,8.794-1.447,13.1-.4,5.163-.658,10.336-.892,15.507s-.412,10.367-.673,15.546q-.2,3.873-.431,7.741a65.192,65.192,0,0,0-.429,7.579,20.7,20.7,0,0,1-4.42,3.414,24.987,24.987,0,0,0-4.118,2.608c-.123.106.036.306.17.222,2.82-1.768,7.081-2.949,8.814-6a.234.234,0,0,0,.026-.153,40.976,40.976,0,0,0,.584-6.379c.175-2.578.308-5.157.431-7.735.245-5.181.465-10.362.7-15.543s.5-10.35.878-15.517c.347-4.8,1.2-9.673,1.288-14.487a50.956,50.956,0,0,0,.557-6.744c.18-2.823.348-5.647.53-8.471.366-5.677.81-11.347,1.49-17a113.648,113.648,0,0,0,.435-15.921c-.058-2.763-.106-5.526-.061-8.291.043-2.651.376-5.307.386-7.954,2.63-2.246,5.728-5.811,6.3-9.3.046-.274-.328-.48-.475-.2" transform="translate(-38.376 -37.689)" fill="#595a5b"/>
    <path id="Trazado_903864" data-name="Trazado 903864" d="M109.83,80.655c-3.875,2.192-6.561,7.072-8.754,10.772A81.442,81.442,0,0,1,92.182,104.3a.147.147,0,0,0,.11.241.155.155,0,0,0,.114.188c1.58.376,3.151.738,4.711,1.195a30.6,30.6,0,0,0,4.405,1.161,17.286,17.286,0,0,0-4.151,2.672c-1.607,1.251-3.351,2.361-4.912,3.66-.168.14.011.458.217.375a18.276,18.276,0,0,0,4.241-2.9c1.616-1.283,3.362-2.433,4.934-3.761l0-.006.1.013c.28.025.295-.376.062-.46-2.915-1.061-6.395-2.219-9.521-2.273,3.573-2.786,5.93-7.078,8.175-10.919,1.247-2.133,2.5-4.259,3.91-6.289a56.6,56.6,0,0,1,5.568-6.125.267.267,0,0,0-.322-.418" transform="translate(-30.118 -26.35)" fill="#595a5b"/>
    <path id="Trazado_903865" data-name="Trazado 903865" d="M173.161,69.484a.136.136,0,0,0-.236.137c2.3,4.416,1.738,9.444.532,14.088-1.24,4.787-3.241,9.345-4.946,13.975a127.088,127.088,0,0,0-4.345,16.451c-1.441,6.466-3.078,13.009-4.049,19.563-.048.32.406.466.5.137,1.841-6.592,2.858-13.47,4.345-20.153a124.906,124.906,0,0,1,4.691-17.091c1.806-4.785,3.81-9.514,4.914-14.527.932-4.233,1.091-8.853-1.4-12.581" transform="translate(-52.333 -22.69)" fill="#595a5b"/>
    <path id="Trazado_903866" data-name="Trazado 903866" d="M220.294,93.85c-5.393-2.76-10.7-5.687-16.094-8.443-4.8-2.454-10.152-5.174-15.606-5.706a28.837,28.837,0,0,0-7.114-9.414c-.051-.041-.141.012-.1.075,1.437,2.1,3.1,4.029,4.491,6.167a51.76,51.76,0,0,1,3.625,6.713c2.324,5.061,3.4,10.348,4.985,15.637.1.319.652.273.6-.082a59.232,59.232,0,0,0-4.538-14.91c-.5-1.177-1.054-2.4-1.663-3.614a77.139,77.139,0,0,1,15.877,6.34c5.074,2.608,9.987,5.682,15.284,7.823.339.137.566-.422.246-.586" transform="translate(-59.281 -22.969)" fill="#595a5b"/>
    <path id="Trazado_903867" data-name="Trazado 903867" d="M196.882,113.144a68.21,68.21,0,0,0-8.817,3.368.348.348,0,0,0,0,.6,40.04,40.04,0,0,0,5.606,3.7c.243.109.541-.2.306-.4a48.572,48.572,0,0,0-5.026-3.546c2.643-1.189,5.61-1.9,8.017-3.517.1-.068.04-.245-.087-.2" transform="translate(-61.413 -36.979)" fill="#595a5b"/>
    <path id="Trazado_903868" data-name="Trazado 903868" d="M181.99,126.428c-4.635,16.5-11.3,32.069-18.586,47.544-3.142,6.67-6.425,13.264-9.154,20.119-2.721,6.831-5.207,14.142-5.509,21.548-.012.312.44.3.475,0,1.807-15.392,9.11-29.16,15.61-42.979,6.954-14.784,14.187-30.05,17.411-46.164a.128.128,0,0,0-.246-.068" transform="translate(-48.615 -41.293)" fill="#595a5b"/>
    <path id="Trazado_903869" data-name="Trazado 903869" d="M102.6,188.267c-.984-6.3-2.3-12.552-3.6-18.8s-2.6-12.511-3.591-18.826A179.491,179.491,0,0,1,93.588,131.1a.1.1,0,0,0-.2,0c-.7,12.3,2.069,24.763,4.541,36.741,1.29,6.252,2.625,12.5,3.69,18.792,1.092,6.458,1.562,12.893,2.056,19.411a.263.263,0,0,0,.526,0c.2-5.916-.692-11.946-1.6-17.778" transform="translate(-30.488 -42.819)" fill="#595a5b"/>
    <path id="Trazado_903870" data-name="Trazado 903870" d="M54.094,136.613c-.215-3.178-.485-6.352-.682-9.53a89.6,89.6,0,0,1,.867-19.746c.023-.143-.181-.207-.221-.061-1.674,6.2-1.614,12.815-1.3,19.172.158,3.179.419,6.353.648,9.527.248,3.406.213,6.857.568,10.249a.193.193,0,0,0,.385,0,59.044,59.044,0,0,0-.267-9.612" transform="translate(-17.187 -35.036)" fill="#595a5b"/>
    <path id="Trazado_903871" data-name="Trazado 903871" d="M91.028,87.532c-3.444,1.126-6.772,2.64-10.208,3.815-3.638,1.244-7.31,2.388-10.95,3.633-3,1.027-5.732,2.78-8.842,3.487A2.655,2.655,0,0,1,59,98.315a3.7,3.7,0,0,0-.813-.485,2.739,2.739,0,0,0-2.1.448c-.174.094-.054.4.137.324a2.447,2.447,0,0,1,2.667.366,3.232,3.232,0,0,0,2.316.147c3.125-.527,5.873-2.483,8.851-3.461,3.653-1.2,7.307-2.4,10.949-3.632a56.562,56.562,0,0,0,10.2-4.064.233.233,0,0,0-.179-.424" transform="translate(-18.304 -28.606)" fill="#595a5b"/>
    <path id="Trazado_903872" data-name="Trazado 903872" d="M35.765,110.289c0-.1-.175-.137-.19-.026a83.422,83.422,0,0,1-1.968,10.717,106.5,106.5,0,0,1-3.9,11.4c-2.891,7.306-6.3,14.4-9.014,21.776-5.479,14.918-6.117,31.029-11.763,45.9-.117.306.389.518.528.223,3.269-6.941,4.618-14.731,6.022-22.219,1.476-7.867,3.037-15.639,5.717-23.2,2.686-7.577,6.208-14.831,9.183-22.294,2.754-6.909,5.673-14.715,5.389-22.277" transform="translate(-2.912 -36.017)" fill="#595a5b"/>
    <path id="Trazado_903873" data-name="Trazado 903873" d="M54.911,195.822c-.226-7.934-1.3-15.8-.864-23.753,0-.1-.165-.126-.179-.024-1.09,7.67.088,15.461.37,23.151.3,8.122-.452,16.263-.84,24.369-.39,8.134-.211,16.283-.482,24.421-.267,8.008-1.117,15.945-1.661,23.931-.02.286.454.353.5.069,2.632-15.758,1.636-31.889,2.316-47.776.347-8.122,1.071-16.253.839-24.388" transform="translate(-16.752 -56.211)" fill="#595a5b"/>
    <path id="Trazado_903874" data-name="Trazado 903874" d="M48.107,342.142a98.809,98.809,0,0,1-.776-17.072c.249-5.718.825-11.419,1.249-17.126.394-5.306.93-10.992.092-16.275-.009-.057-.094-.038-.1.013-.3,5.419-.269,10.838-.674,16.262-.427,5.709-1.006,11.407-1.292,17.126a95.938,95.938,0,0,0,.782,17.072c.351,2.741.759,5.477,1.126,8.217.372,2.768.523,5.578.954,8.336.05.316.538.228.543-.074.083-5.454-1.206-11.083-1.905-16.479" transform="translate(-15.2 -95.32)" fill="#595a5b"/>
    <path id="Trazado_903875" data-name="Trazado 903875" d="M25.326,248.322c-1.051-3.282-4.032-5.986-7.633-5.374-3.7.627-7.164,3.259-9.815,5.8a.123.123,0,0,0,.149.193c2.684-1.737,5.107-3.831,8.162-4.923a6.7,6.7,0,0,1,4.412-.166c2.16.71,3.172,2.88,4.276,4.663.144.231.536.082.448-.189" transform="translate(-2.564 -79.379)" fill="#595a5b"/>
    <path id="Trazado_903876" data-name="Trazado 903876" d="M13.778,301.265a8.194,8.194,0,0,1-5.158-2.32,7.583,7.583,0,0,1-1.531-4.777c-.147-3.323.8-6.613,1.409-9.853a88.614,88.614,0,0,0,1.488-15.053c.063-4.894-.3-10.2-2.4-14.692-.066-.141-.292-.04-.248.1,3.119,10.283,2.129,21.412-.04,31.794-.678,3.241-1.385,6.673-.685,9.967.737,3.473,3.71,5.241,7.084,5.434.343.02.427-.551.081-.6" transform="translate(-2.067 -83.184)" fill="#595a5b"/>
    <path id="Trazado_903877" data-name="Trazado 903877" d="M35.82,368.2c-4.328-1.875-9.922-1.8-14.51-1.237a37.49,37.49,0,0,0-6.892,1.576,21.226,21.226,0,0,0-5.925,2.6,44.635,44.635,0,0,1-1.706-5.026,33.206,33.206,0,0,1-.762-6.157A82.846,82.846,0,0,1,6.7,347.621c.814-7.609,2.238-15.783.222-23.319a5.117,5.117,0,0,0,3.255,1.774,11.6,11.6,0,0,0,4.524-.548,30.571,30.571,0,0,0,5.335-1.763c.319-.155.072-.565-.22-.524-2.872.4-5.448,2-8.392,2.221-3.97.3-5.356-3.206-6.315-6.425-.038-.128-.259-.11-.24.032A11,11,0,0,0,6.391,323.6a.22.22,0,0,0-.053.194c1.616,8.272.372,16.592-.5,24.872a77.018,77.018,0,0,0-.515,12.278c.2,3.535.773,7.729,2.744,10.755.17.26.619.112.549-.194,1.841-.517,3.622-1.5,5.432-2.115a39.905,39.905,0,0,1,6.776-1.636,34.83,34.83,0,0,1,6.975-.324,76.451,76.451,0,0,1,7.807,1.269c.278.042.52-.366.211-.5" transform="translate(-1.592 -104.249)" fill="#595a5b"/>
    <path id="Trazado_903878" data-name="Trazado 903878" d="M38.135,393.575a66.97,66.97,0,0,0-13.409.17,24.339,24.339,0,0,0-11.561,4.005.126.126,0,0,0,.127.217c.611-.324,1.228-.62,1.846-.9-.4,1.842-.691,3.645-1.27,5.456a59.856,59.856,0,0,0-1.943,6.524,24.538,24.538,0,0,0,.1,7.044c.264,2.669.593,5.323.631,8.012a.349.349,0,0,0,.7,0c-.028-5.044-1.632-10.36-.679-15.359a61.375,61.375,0,0,1,1.951-6.555c.49-1.578,1.127-3.539.679-5.194a32.078,32.078,0,0,1,10.5-2.685c4.1-.355,8.257.239,12.329-.17a.282.282,0,0,0,0-.563" transform="translate(-3.824 -128.553)" fill="#595a5b"/>
    <path id="Trazado_903879" data-name="Trazado 903879" d="M23.781,449.591c-4.01-1.835-6.745-5.308-9.46-8.652-.056-.069-.158.02-.118.093,2.089,3.781,5.254,7.479,9.314,9.188.359.151.617-.467.265-.629" transform="translate(-4.639 -144.112)" fill="#595a5b"/>
    <path id="Trazado_903880" data-name="Trazado 903880" d="M33.927,444.481c-2.141-1.159-4.5-1.853-6.62-3.086a19.125,19.125,0,0,1-6.217-5.974c-2.983-4.538-.729-9.99-2.11-14.952-.038-.135-.228-.075-.206.057a43.86,43.86,0,0,1,.078,8.777,11.583,11.583,0,0,0,1.951,6.935c2.8,4.33,7.986,7.451,12.895,8.787a.3.3,0,0,0,.228-.544" transform="translate(-6.136 -137.404)" fill="#595a5b"/>
    <path id="Trazado_903881" data-name="Trazado 903881" d="M39.559,443.109c-1.28-1.556-3.311-2.136-5.125-2.839-2.637-1.021-4.14-3.356-5.821-5.5-.537-.685-2.28-2.069-2.188-2.983.143-1.432.3-2.863.435-4.3a32.971,32.971,0,0,0-.022-8.034c-.025-.155-.277-.116-.272.038a61.619,61.619,0,0,1-.355,8.616c-.153,1.428-.337,2.855-.5,4.282-.051.453,1.465,1.682,1.77,2.049,1.421,1.718,2.836,4.476,4.827,5.6,2.293,1.29,4.761,1.948,6.946,3.471.252.175.476-.191.306-.4" transform="translate(-8.403 -137.065)" fill="#595a5b"/>
    <path id="Trazado_903882" data-name="Trazado 903882" d="M43.223,440.091a31.8,31.8,0,0,0-2.349-2.661c-1.021-1.078-1.944-2.353-3.051-3.333a.277.277,0,0,0-.434.334c.946,1.964,3.015,3.508,4.465,5.1a11.4,11.4,0,0,1,3.181,7.211.154.154,0,0,0,.308,0,9.386,9.386,0,0,0-2.12-6.655" transform="translate(-12.21 -141.858)" fill="#595a5b"/>
    <path id="Trazado_903883" data-name="Trazado 903883" d="M47.993,431.674c-1.692-.1-3.054-.111-4.132-1.613a10.17,10.17,0,0,1-1.4-4.421c-.423-2.784-.226-5.863-1.375-8.486a.222.222,0,0,0-.059-.078,12.248,12.248,0,0,0,1.238-4.917.275.275,0,0,0-.538-.072c-.8,2.356-1.4,4.71-2.338,7.036a16.673,16.673,0,0,0-1.582,7.492.18.18,0,0,0,.359,0,29.7,29.7,0,0,1,2.108-7.753c.149-.368.312-.748.477-1.131.911,3.224.594,6.719,1.365,9.987.645,2.73,2.793,5.505,5.953,4.5a.28.28,0,0,0-.073-.547" transform="translate(-12.345 -134.627)" fill="#595a5b"/>
    <path id="Trazado_903884" data-name="Trazado 903884" d="M50.086,396.493c-.144-.288-.555-.079-.495.209a45.735,45.735,0,0,0,2.281,6.25,18.99,18.99,0,0,1,1.209,6.371c.1,5.7-1.386,11.4-.948,17.107a.164.164,0,0,0,.329,0c.272-2.985.463-5.969.788-8.951a70.1,70.1,0,0,0,.606-8.7c-.067-4.169-1.912-8.616-3.77-12.286" transform="translate(-16.207 -129.548)" fill="#595a5b"/>
    <path id="Trazado_903885" data-name="Trazado 903885" d="M130.158,342.711c-4.357.975-8.678,1.857-13.086,2.578a.159.159,0,0,0-.318,0c-.005.048-.006.1-.011.145a.2.2,0,0,0-.008.114,30.849,30.849,0,0,0,1.146,10.516.381.381,0,0,0,.734-.2,79.489,79.489,0,0,1-1.493-10.171,57.563,57.563,0,0,0,13.232-2.273.367.367,0,0,0-.2-.708" transform="translate(-38.122 -112.011)" fill="#595a5b"/>
    <path id="Trazado_903886" data-name="Trazado 903886" d="M130.65,340.38c-4.934.637-9.709,1.951-14.678,2.417a.177.177,0,0,0,0,.353c4.928.333,9.946-1.28,14.776-2.043.411-.066.314-.781-.1-.727" transform="translate(-37.849 -111.251)" fill="#595a5b"/>
    <path id="Trazado_903887" data-name="Trazado 903887" d="M132.177,359.022a49.293,49.293,0,0,1-14.243,1.746c-.421,0-2.646.274-2.782-.257q-.431-1.678-.764-3.378a29.565,29.565,0,0,1-.48-7.327.094.094,0,0,0-.184-.025c-1.045,3.692-.023,7.838.839,11.467a.379.379,0,0,0,.363.277c5.758.057,11.984.342,17.442-1.81.421-.166.263-.829-.191-.693" transform="translate(-37.026 -114.303)" fill="#595a5b"/>
    <path id="Trazado_903888" data-name="Trazado 903888" d="M137.443,360.272c-1.266.053-2.547.4-3.806.563s-2.5.215-3.755.326a.1.1,0,0,0-.028.2,9.162,9.162,0,0,0,3.335.153,16.744,16.744,0,0,0,4.34-.606c.329-.116.3-.65-.087-.635" transform="translate(-42.419 -117.754)" fill="#595a5b"/>
    <path id="Trazado_903889" data-name="Trazado 903889" d="M159.827,337.8a19.913,19.913,0,0,0-4.416.409c-1.824.256-3.644.528-5.479.7a20.67,20.67,0,0,1-9.852-1.2.259.259,0,0,0-.11-.115c-9.914-5.358-12.672-17.322-15.165-27.469-.619-2.52-1.215-5.045-1.888-7.551-.4-1.493-.85-2.966-1.272-4.445a.321.321,0,0,0-.077-.285c-.372-1.317-.721-2.641-.985-3.994a87.055,87.055,0,0,1-1.3-12.1c-.2-3.723-.108-7.512-.573-11.216a.247.247,0,0,0,.016-.054c1.673-16.706-2.347-33.438-1.357-50.184.511-8.639,2.24-17.239,3.918-25.714,1.587-8.011,3.545-16.042,4.386-24.176.011-.111-.17-.134-.2-.026-1.8,8.177-3.325,16.43-4.964,24.641a205.145,205.145,0,0,0-3.812,24.633c-.636,8.486.046,17.011.7,25.475a214.183,214.183,0,0,1,.784,25.351.247.247,0,0,0,.036.142c-.131,3.614.088,7.28.28,10.9-2.744.164-5.545.955-8.258,1.394q-4.85.786-9.743,1.239a84.231,84.231,0,0,1-9.289.339c-3.187-.06-6.3-.578-9.464-.821q.358-1.657.717-3.309c.676-3.109,1.542-6.21,2.069-9.345a.339.339,0,0,0-.653-.181c-1.991,6-2.873,12.465-4.285,18.617a148.148,148.148,0,0,1-5.294,18.106c-2.131,5.786-4.505,11.488-5.988,17.491-1.4,5.659-1.253,11.414-1.428,17.194-1.769.163-3.54.459-5.306.656a24.96,24.96,0,0,0-6.1,1.269.151.151,0,0,0,.081.291c2.184-.4,4.372-.676,6.58-.9a33.077,33.077,0,0,0,4.892-.608.2.2,0,0,0,.194-.053c.056-.014.114-.026.169-.043a.343.343,0,0,0,.02-.643,41.074,41.074,0,0,0,.44-7.3,44.3,44.3,0,0,1,1.257-9.641c1.437-6,3.861-11.719,6.007-17.485,1.117-3,2.1-6.042,2.983-9.109a41.451,41.451,0,0,1,8.568.572c2.458.413,5.041,1.195,7.545,1.143.364-.007.464-.569.088-.65-2.814-.612-5.759-.978-8.61-1.42a19.845,19.845,0,0,0-7.48-.045c.808-2.841,1.536-5.706,2.2-8.6.434-1.876.844-3.755,1.252-5.636,5.681,1.807,12.368,1.395,18.214.953,3.134-.237,6.253-.651,9.358-1.123a60.809,60.809,0,0,0,9.3-1.675l.008.142a89.445,89.445,0,0,0,1.276,11.719c.231,1.249.541,2.471.881,3.688-1.629.05-3.356.541-4.949.719a.256.256,0,0,0,0,.512,19.793,19.793,0,0,0,2.623-.191c.817-.1,1.708-.133,2.532-.307.448,1.549.931,3.09,1.354,4.652.716,2.653,1.34,5.33,2,8a84.825,84.825,0,0,0,5.364,16.326c2.078,4.336,5.359,9.042,10.091,10.713a.259.259,0,0,0,.161,0c2.931,1.579,6.2,1.75,9.483,1.538,1.72-.11,3.43-.361,5.136-.6a53.059,53.059,0,0,0,5.395-.742c.335-.083.234-.541-.077-.568" transform="translate(-18.101 -55.668)" fill="#595a5b"/>
    <path id="Trazado_903890" data-name="Trazado 903890" d="M220.139,262.918c.619-4.087,2.692-7.723,1.836-11.962-.034-.168-.318-.132-.3.041.417,4.53-1.865,8.414-2.4,12.8a16.833,16.833,0,0,0,.758,6.083c.621,2.415,1.1,4.756,1.5,7.213.06.368.563.232.6-.081.235-2.063-.508-4.251-1.039-6.218-.7-2.6-1.363-5.173-.953-7.88" transform="translate(-71.649 -81.989)" fill="#595a5b"/>
    <path id="Trazado_903891" data-name="Trazado 903891" d="M237.563,120.527a157.719,157.719,0,0,0-6.3,19.8c-1.577,6.447-2.878,13.367-2.379,20.03a.293.293,0,0,0,.585,0,94.585,94.585,0,0,1,2.568-20.446c1.561-6.54,3.718-12.911,5.655-19.344.026-.085-.1-.115-.13-.036" transform="translate(-74.775 -39.379)" fill="#595a5b"/>
    <path id="Trazado_903892" data-name="Trazado 903892" d="M227.025,136.036a.092.092,0,0,0-.18.024c.553,5.64-1.108,11.265-2.155,16.754-1.131,5.942-.786,11.975-.856,18-.076,6.608-.356,13.2-.289,19.814.035,3.414.09,6.826.073,10.24-.018,3.379-.37,6.769-.33,10.142,0,.342.552.44.615.083a56.653,56.653,0,0,0,.489-8.948c.051-3.412,0-6.825-.044-10.237-.081-6.823.178-13.626.261-20.446.08-6.566-.237-13.054.965-19.538.961-5.185,2.473-10.6,1.452-15.882" transform="translate(-72.98 -44.442)" fill="#595a5b"/>
    <path id="Trazado_903893" data-name="Trazado 903893" d="M219.154,299.534c-1.157,6.272-1.681,12.694-2.424,19.026-.789,6.738-1.578,13.479-2.405,20.214-.821,6.682-1.682,13.359-2.638,20.022-.93,6.485-2.336,12.983-2.968,19.5-.037.382.572.452.661.09,1.548-6.3,2.172-12.956,3.07-19.379q1.369-9.78,2.566-19.581,1.2-9.774,2.291-19.559c.759-6.74,1.764-13.52,2.114-20.3.007-.153-.239-.188-.267-.036" transform="translate(-68.219 -97.87)" fill="#595a5b"/>
    <path id="Trazado_903894" data-name="Trazado 903894" d="M243.756,420.511c-4.179-2.716-9.428-4.044-14.306-4.728-4.835-.679-10.294-.828-15.047.46a.139.139,0,0,0,.036.271c5-.236,9.8-.629,14.79.067a44.606,44.606,0,0,1,11.285,3.284c.067,2.918.114,5.822.077,8.742-.036,2.94-.214,6.09.52,8.961a.247.247,0,0,0,.482-.066c-.069-2.97-.339-5.914-.322-8.895a50.788,50.788,0,0,0-.37-8.578c.829.355,1.657.722,2.489,1.107a.363.363,0,0,0,.366-.626" transform="translate(-70.045 -135.73)" fill="#595a5b"/>
    <path id="Trazado_903895" data-name="Trazado 903895" d="M265.865,273.871c-1.546,2.855-.587,5.83-.486,8.924a97.2,97.2,0,0,1-.525,12.409c-.8,8.309-2.225,16.544-2.695,24.887-.991,17.583-3.173,35.095-3.964,52.684-.01.219.31.209.334,0,1.852-16.852,3.515-33.791,4.45-50.721.452-8.184,1.62-16.259,2.525-24.4.434-3.895.732-7.8.784-11.724a51.324,51.324,0,0,0-.209-6.214c-.218-2.022-.545-3.587.347-5.518.173-.373-.359-.7-.563-.329" transform="translate(-84.391 -89.46)" fill="#595a5b"/>
    <path id="Trazado_903896" data-name="Trazado 903896" d="M264.187,144.757a61.931,61.931,0,0,0-4.165-14.15c-1.46-3.709-3.343-7.636-3.48-11.677-.124-3.624.975-10.857-4.587-10.614a7.459,7.459,0,0,0-1.574.293c-.231.061-.127.378.095.346,1.39-.2,2.911-.266,4.009.755a5.454,5.454,0,0,1,1.219,3.443c.254,2.5-.1,5.028.2,7.529.495,4.01,2.543,8.024,3.994,11.757a58.852,58.852,0,0,1,3.743,14.208c1.216,9.738.773,19.62.387,29.4-.191,4.81-.384,9.622-.4,14.437-.02,4.955-.818,9.873-.809,14.819a.284.284,0,0,0,.568,0c1.021-10.14,1.037-20.309,1.458-30.484.416-10.021.727-20.095-.66-30.058" transform="translate(-81.794 -35.401)" fill="#595a5b"/>
    <path id="Trazado_903897" data-name="Trazado 903897" d="M163.784,319.2c-2.6-.4-5.234-.8-7.856-1.065-.248-.024-.295.374-.059.431a38.891,38.891,0,0,0,7.842,1.177c.306.007.385-.495.073-.543" transform="translate(-50.895 -103.983)" fill="#595a5b"/>
    <path id="Trazado_903898" data-name="Trazado 903898" d="M161.026,255.175a24.473,24.473,0,0,0-6.068-1.053.17.17,0,0,0-.044.333c2.013.378,4.02.921,6.049,1.185.276.036.306-.388.064-.466" transform="translate(-50.594 -83.059)" fill="#595a5b"/>
    <path id="Trazado_903899" data-name="Trazado 903899" d="M206.258,328.814c-3.364.863-9.45,3.057-11.852-.723-2.189-3.447-1.543-8.1-3.313-11.722a.116.116,0,0,0-.215.059,60.879,60.879,0,0,0,1.461,7.442,12.838,12.838,0,0,0,1.805,5.07c2.634,3.622,8.93,1.5,12.272.452a.3.3,0,0,0-.159-.578" transform="translate(-62.388 -103.386)" fill="#595a5b"/>
    <path id="Trazado_903900" data-name="Trazado 903900" d="M212.165,312.441c-3.335.5-6.647.924-10.009,1.183a55.373,55.373,0,0,0-8.832,1.041.053.053,0,0,0,.015.1c3.148-.1,6.3-.388,9.45-.58a49.206,49.206,0,0,0,9.527-1.2c.363-.1.2-.6-.151-.547" transform="translate(-63.175 -102.119)" fill="#595a5b"/>
    <path id="Trazado_903901" data-name="Trazado 903901" d="M206.407,367.195c-2.036-.2-4.634-.009-5.535-2.285-.749-1.888-.43-4.268-.568-6.256-.471-6.879-1.093-14.284-3.594-20.763a.091.091,0,0,0-.176.048c1.486,7.854,2.893,15.552,3.093,23.573.039,1.562.042,3.579,1.157,4.822,1.377,1.535,3.788,1.711,5.7,1.445.357-.051.228-.553-.079-.584" transform="translate(-64.236 -110.418)" fill="#595a5b"/>
    <path id="Trazado_903902" data-name="Trazado 903902" d="M126.657,378.783a9.8,9.8,0,0,0-.955-4.2.048.048,0,0,0-.088.023c-.02,1.656.456,3.361.549,5.031a57.606,57.606,0,0,1-.095,6.575c-.279,4.732-.934,9.44-1.567,14.133-.514,3.8-1.121,7.514-1.861,11.274-.592,3-.707,6.6,2.413,8.188a.323.323,0,0,0,.326-.557c-3.57-2.3-2.139-6.822-1.359-10.224.827-3.61,1.079-7.392,1.55-11.061.564-4.394,1.062-8.8,1.226-13.232a47.7,47.7,0,0,0-.139-5.95" transform="translate(-39.976 -122.424)" fill="#595a5b"/>
    <path id="Trazado_903903" data-name="Trazado 903903" d="M16.628,456.47c-3.237,8.931-5.312,18.368-7.87,27.511C6.113,493.428,3.039,502.7.015,512.024c-.114.353.411.477.543.149,3.589-8.854,6.132-18.2,8.716-27.388,1.321-4.7,2.586-9.419,3.863-14.132,1.272-4.688,2.691-9.372,3.722-14.119a.12.12,0,0,0-.231-.064" transform="translate(0 -149.169)" fill="#595a5b"/>
    <path id="Trazado_903904" data-name="Trazado 903904" d="M119.842,480.762c-2-9.062-4.537-17.977-6.275-27.083.057-.057.11-.119.168-.176a.26.26,0,0,0-.278-.424c-.223-1.194-.437-2.39-.628-3.59-.032-.2-.351-.15-.347.046a35.619,35.619,0,0,0,.318,4.09c-9.6,8.243-13.823,21.453-18.568,32.762A141.971,141.971,0,0,1,83.661,506.52c-4.028,6.465-8.454,12.719-12,19.468a.1.1,0,0,0,.167.1c8.1-12.286,16.715-24.415,22.613-37.961,2.613-6,4.907-12.138,7.769-18.03a62.071,62.071,0,0,1,10.7-15.716,104.027,104.027,0,0,0,2.236,10.19c1.325,5.245,2.61,10.486,3.78,15.767,2.487,11.207,4.235,22.633,7.06,33.759.081.32.526.176.481-.134-1.639-11.128-4.2-22.218-6.624-33.2" transform="translate(-23.417 -146.872)" fill="#595a5b"/>
    <path id="Trazado_903905" data-name="Trazado 903905" d="M207.442,420.817a19.7,19.7,0,0,0-2.4,5.459c-.737,2.179-1.352,4.4-1.994,6.606-.662,2.275-1.349,4.543-2.143,6.775-.851,2.394-2.1,4.571-3.053,6.907-.146.358.377.495.571.24a23.5,23.5,0,0,0,2.836-5.92c.845-2.213,1.524-4.491,2.178-6.766.64-2.228,1.252-4.462,1.912-6.684.656-2.2,1.651-4.345,2.207-6.565a.065.065,0,0,0-.118-.05" transform="translate(-64.661 -137.534)" fill="#595a5b"/>
    <path id="Trazado_903906" data-name="Trazado 903906" d="M209.36,446.715c-1.439,2.225-2.349,4.617-4.239,6.55-1.87,1.914-4.371,2.662-6.9,3.241a.136.136,0,0,0,.036.267c5.721-.081,9.988-4.585,11.6-9.848a.272.272,0,0,0-.5-.209" transform="translate(-64.755 -145.966)" fill="#595a5b"/>
    <path id="Trazado_903907" data-name="Trazado 903907" d="M214.464,444.593a.154.154,0,0,0-.308,0,26.927,26.927,0,0,1-2.436,10.074c-1.061,2.481-2.475,5.2-2.573,7.94a.272.272,0,0,0,.532.072,82.459,82.459,0,0,1,2.983-8.664c1.218-2.976,2.192-6.172,1.8-9.422" transform="translate(-68.359 -145.266)" fill="#595a5b"/>
    <path id="Trazado_903908" data-name="Trazado 903908" d="M223.278,451.434c-1.1,3.076-1.848,6.2-3.585,9.014-1.926,3.121-4.751,4.48-8.226,5.2-.1.02-.07.165.023.168,7.493.387,11.108-8.129,12.229-14.257a.229.229,0,0,0-.442-.122" transform="translate(-69.098 -147.498)" fill="#595a5b"/>
    <path id="Trazado_903909" data-name="Trazado 903909" d="M233.138,452.323a19.777,19.777,0,0,0-1.047,3.122,29.223,29.223,0,0,1-1.814,4.371,9.444,9.444,0,0,1-2.594,3.242c-1.382,1.036-2.73.652-4.284.415-.1-.014-.206.108-.11.188,2.344,1.929,5.179.01,6.648-1.981a19.377,19.377,0,0,0,2.328-4.67,18.577,18.577,0,0,0,1.387-4.547.278.278,0,0,0-.515-.14" transform="translate(-72.969 -147.798)" fill="#595a5b"/>
    <path id="Trazado_903910" data-name="Trazado 903910" d="M243.6,452.007c-2.7,3.817-3.531,11.917-9.964,10.9a.14.14,0,0,0-.074.271c2.713.808,4.808-.445,6.448-2.572a27.735,27.735,0,0,0,4.075-8.39c.092-.3-.32-.44-.485-.2" transform="translate(-76.306 -147.698)" fill="#595a5b"/>
    <path id="Trazado_903911" data-name="Trazado 903911" d="M237,475.893a7.544,7.544,0,0,1-.32-5.821.151.151,0,0,0-.276-.116,6.284,6.284,0,0,0,.11,6.223c.192.318.629.04.486-.285" transform="translate(-77.016 -153.579)" fill="#595a5b"/>
    <path id="Trazado_903912" data-name="Trazado 903912" d="M249.687,453.031a24.545,24.545,0,0,0-1.973,3.935c-.67,1.412-1.377,2.807-2.132,4.177a54.524,54.524,0,0,1-5.8,8.142.138.138,0,0,0,.2.2,28.393,28.393,0,0,0,5.959-7.539c.782-1.346,1.479-2.741,2.161-4.139a24.484,24.484,0,0,0,2.01-4.594.231.231,0,0,0-.419-.178" transform="translate(-78.36 -148.038)" fill="#595a5b"/>
    <path id="Trazado_903913" data-name="Trazado 903913" d="M217.534,470.659a103.192,103.192,0,0,0-2.6,10.819q-1.179,5.455-2.319,10.912t-2.343,10.917c-.8,3.624-1.844,7.244-2.392,10.913a.243.243,0,0,0,.469.13,96.837,96.837,0,0,0,2.662-10.84c.8-3.634,1.571-7.276,2.334-10.919s1.51-7.284,2.275-10.924,1.716-7.288,2.2-10.97c.023-.172-.238-.188-.287-.039" transform="translate(-67.943 -153.801)" fill="#595a5b"/>
    <path id="Trazado_903914" data-name="Trazado 903914" d="M213.979,472.623a110.83,110.83,0,0,1-4.291,15.369,171.585,171.585,0,0,1-7.152,15.657.3.3,0,0,0,.522.306,92.573,92.573,0,0,0,7.074-15.213,63.269,63.269,0,0,0,4.174-16.075c.018-.188-.288-.227-.328-.044" transform="translate(-66.187 -154.437)" fill="#595a5b"/>
  </g>
</svg>
