<svg xmlns="http://www.w3.org/2000/svg" xmlns:xlink="http://www.w3.org/1999/xlink" width="86.076" height="84.586" viewBox="0 0 86.076 84.586">
  <defs>
    <clipPath id="clip-path">
      <rect id="Rect치ngulo_407961" data-name="Rect치ngulo 407961" width="74.923" height="76.002" fill="none"/>
    </clipPath>
  </defs>
  <g id="Grupo_1114960" data-name="Grupo 1114960" transform="translate(-735.908 -5336.499)">
    <path id="Uni칩n_43" data-name="Uni칩n 43" d="M18014.729,11697.78v-20a30.039,30.039,0,0,1,.982-7.641,2.312,2.312,0,0,1,.117-3.857l1.666-1.1a30.107,30.107,0,0,1,8.83-11.1c-2.1.466-4.414-2.183-2.346-3.8l23.91-18.658-15.789,8.146c-2.652,1.367-5-2.64-2.338-4.007l37.84-19.524c2.221-1.145,4.975,1.953,2.813,3.644q-13.843,10.8-27.68,21.6,17.716-8.175,35.434-16.347a2.32,2.32,0,0,1,2.344,4l-27.586,18.205,42.682-21.785c2.648-1.349,4.93,2.48,2.34,4.007l-25.01,14.731,20.912-10.2a2.32,2.32,0,0,1,2.344,4l-16.848,11.244c.279.095.555.192.828.294l13.008-5.8c2.662-1.19,5,2.508,2.34,4l-8.715,4.9,10.055-3.814c2.508-.954,4.012,2.985,1.785,4.238l-7.111,4a30.13,30.13,0,0,1,3.008,3.737,2.423,2.423,0,0,1,1.793,2.99,29.871,29.871,0,0,1,3.4,13.881v20Zm24.164-49.431a30.179,30.179,0,0,1,4.953-.554l8.709-5.748Z" transform="translate(-17278.32 -6277.195)" fill="#f4e6e6" stroke="rgba(0,0,0,0)" stroke-miterlimit="10" stroke-width="1"/>
    <g id="Grupo_1114831" data-name="Grupo 1114831" transform="translate(741.122 5336.499)">
      <g id="Grupo_1114830" data-name="Grupo 1114830" clip-path="url(#clip-path)">
        <path id="Trazado_903939" data-name="Trazado 903939" d="M44.741,76H43.7a2.084,2.084,0,0,1-1.043-2.1c.049-.756.01-1.517.01-2.317h-10.4c0,.8-.039,1.561.01,2.316A2.089,2.089,0,0,1,31.23,76H30.191c-1.66-.245-3.317-.51-4.979-.733-5.635-.757-11.273-1.5-16.908-2.251a1.5,1.5,0,0,1-1.351-1.852c.118-.782.245-1.562.365-2.344,1.162-7.572,2.315-15.146,3.5-22.714a.835.835,0,0,0-.564-1.065c-2.244-1.09-4.469-2.217-6.7-3.335A6.019,6.019,0,0,1,.134,34.783c.735-4.035,1.42-8.079,2.145-12.117,1.083-6.029,4.338-10.477,9.95-12.951,2.927-1.29,6.046-2.149,9.1-3.154a.974.974,0,0,0,.82-1.141A5,5,0,0,1,24.529.843,5.169,5.169,0,0,1,27.481,0q9.873,0,19.746,0a5.206,5.206,0,0,1,5.561,5.566.83.83,0,0,0,.677.944c2.7.875,5.421,1.711,8.079,2.708A16.333,16.333,0,0,1,72.36,21.437c.991,4.381,1.615,8.845,2.417,13.27a6.006,6.006,0,0,1-3.467,7.035c-2.251,1.133-4.5,2.265-6.765,3.374a.68.68,0,0,0-.462.846q1.955,12.563,3.88,25.132a1.512,1.512,0,0,1-1.409,1.935q-8.342,1.123-16.687,2.231c-1.712.231-3.418.494-5.127.743M62.486,35.348c.3-.133.54-.234.777-.352,2.365-1.181,4.718-2.387,7.1-3.53A.949.949,0,0,0,71,30.231c-.429-2.207-.813-4.423-1.185-6.64-.958-5.7-4.046-9.67-9.509-11.676-2.248-.826-4.542-1.527-6.817-2.281-.172-.057-.355-.084-.581-.136,0,.347,0,.617,0,.888.059,2.869.125,5.738.18,8.607.031,1.6-1,2.258-2.426,1.552-1.883-.931-3.757-1.879-5.637-2.817-.226-.113-.459-.214-.793-.369.141,5.726.279,11.3.418,16.926h.906c2.969,0,5.939-.007,8.908,0a1.46,1.46,0,0,1,1.579,1.759c-.135.768-.733,1.2-1.706,1.2q-4.38.008-8.76,0h-.853c.236,9.428.471,18.763.706,28.175l18.278-2.437c-.2-1.287-.376-2.48-.559-3.671q-1.521-9.893-3.044-19.785c-.316-2.052-.644-4.1-.945-6.156a2.465,2.465,0,0,1,.034-1.1,1.459,1.459,0,0,1,2.795.173c.2.934.325,1.882.494,2.894m-50.031.036c.157-1.016.267-1.9.436-2.77a1.472,1.472,0,1,1,2.919.378c-.014.246-.055.491-.092.735q-.331,2.161-.667,4.321-1.529,9.925-3.056,19.85c-.258,1.676-.508,3.353-.77,5.086L29.5,65.419c.4-16.043.8-31.992,1.2-48.049-.36.166-.583.261-.8.369q-2.787,1.384-5.572,2.772c-1.517.751-2.519.106-2.485-1.6q.087-4.3.18-8.6c.005-.259,0-.519,0-.867-2.442.813-4.784,1.578-7.116,2.374a13.5,13.5,0,0,0-9.249,9.536c-.829,3.039-1.2,6.2-1.748,9.315a.819.819,0,0,0,.4.628c1.2.636,2.424,1.225,3.64,1.831,1.474.736,2.947,1.475,4.508,2.257m30.06,33.155c0-.342.006-.612,0-.881q-.222-9.012-.447-18.023c-.227-9.024-.489-18.047-.67-27.072-.069-3.429-.44-6.864.075-10.294.163-1.086.243-2.185.364-3.3h-8.73c.045.5.08.937.125,1.377a42.366,42.366,0,0,1,.476,4.865c-.091,6.4-.293,12.807-.454,19.211q-.419,16.651-.837,33.3c-.007.262,0,.524,0,.815ZM29.348,68.4,10.765,65.923,10.1,70.258l19.245,2.567ZM45.6,72.828l19.239-2.564-.672-4.334L45.6,68.408ZM24.853,16.936c1.9-.952,3.712-1.847,5.5-2.77a.639.639,0,0,0,.251-.521c-.32-2.947-.638-5.9-1.017-8.835a2.215,2.215,0,0,0-2.421-1.832,2.246,2.246,0,0,0-2.065,2.231q-.138,5.524-.253,11.048c0,.188,0,.376,0,.681m25.187-.025a3.484,3.484,0,0,0,.041-.37c-.084-3.806-.159-7.613-.262-11.418a2.26,2.26,0,0,0-4.493-.23c-.365,2.892-.682,5.79-1,8.688a.668.668,0,0,0,.194.551c1.813.936,3.641,1.84,5.52,2.779M3.295,34.13c-.085.406-.161.735-.223,1.066a3.121,3.121,0,0,0,1.941,3.916q2.876,1.444,5.757,2.879c.185.092.384.157.628.255.184-1.181.381-2.272.5-3.372a.85.85,0,0,0-.415-.636c-1.264-.67-2.552-1.294-3.832-1.933L3.295,34.13m68.381-.018c-2.889,1.442-5.666,2.824-8.435,4.222a.5.5,0,0,0-.231.4c.156,1.162.342,2.319.537,3.592,2.461-1.251,4.833-2.4,7.144-3.659a2.591,2.591,0,0,0,1.272-2.592c-.04-.611-.174-1.215-.287-1.961M32.24,3l.56,2.9h9.332L42.7,3Z" transform="translate(0 0)" fill="#730000"/>
      </g>
    </g>
  </g>
</svg>
