<svg xmlns="http://www.w3.org/2000/svg" width="610" height="755.385" viewBox="0 0 610 755.385">
  <g id="Grupo_1114963" data-name="Grupo 1114963" transform="translate(-179.498 -7846.434)">
    <path id="Trazado_904206" data-name="Trazado 904206" d="M20,0H590a20,20,0,0,1,20,20V735.385a20,20,0,0,1-20,20H20a20,20,0,0,1-20-20V20A20,20,0,0,1,20,0Z" transform="translate(179.498 7846.434)" fill="#ebefeb"/>
    <path id="Trazado_904207" data-name="Trazado 904207" d="M3.029-1.819A2.479,2.479,0,0,1,2.7-.4,1.157,1.157,0,0,1,1.688.059,1.165,1.165,0,0,1,.677-.394a2.353,2.353,0,0,1-.34-1.352V-2.47a2.424,2.424,0,0,1,.325-1.4,1.165,1.165,0,0,1,1.02-.457A1.176,1.176,0,0,1,2.7-3.883a2.339,2.339,0,0,1,.334,1.361Zm-.542-.741a1.986,1.986,0,0,0-.193-1,.666.666,0,0,0-.612-.315.657.657,0,0,0-.606.313,1.939,1.939,0,0,0-.2.964v.867a2.018,2.018,0,0,0,.2,1.021.664.664,0,0,0,.608.33.655.655,0,0,0,.6-.311,1.945,1.945,0,0,0,.2-.979Zm1.3,2.276a.339.339,0,0,1,.083-.234.318.318,0,0,1,.25-.094.328.328,0,0,1,.253.094.333.333,0,0,1,.086.234.315.315,0,0,1-.086.226.334.334,0,0,1-.253.091.324.324,0,0,1-.25-.091A.321.321,0,0,1,3.791-.284ZM8.057-3.961,6.29,0H5.722L7.482-3.82H5.174v-.445H8.057ZM11.484-.384a.781.781,0,0,0,.507-.176A.618.618,0,0,0,12.231-1h.513a.983.983,0,0,1-.187.519,1.235,1.235,0,0,1-.461.393,1.331,1.331,0,0,1-.611.146,1.306,1.306,0,0,1-1.03-.432,1.721,1.721,0,0,1-.382-1.182v-.091a1.908,1.908,0,0,1,.17-.823,1.294,1.294,0,0,1,.488-.56,1.386,1.386,0,0,1,.751-.2,1.271,1.271,0,0,1,.886.319,1.141,1.141,0,0,1,.376.829h-.513A.747.747,0,0,0,12-2.585a.725.725,0,0,0-.517-.2.759.759,0,0,0-.64.3,1.4,1.4,0,0,0-.227.86v.1a1.369,1.369,0,0,0,.226.844A.762.762,0,0,0,11.484-.384ZM13.863-3.17l.015.352a1.171,1.171,0,0,1,.94-.41.906.906,0,0,1,.905.51,1.2,1.2,0,0,1,.412-.369,1.216,1.216,0,0,1,.6-.141q1.043,0,1.061,1.1V0h-.542V-2.092A.728.728,0,0,0,17.1-2.6a.684.684,0,0,0-.521-.168.719.719,0,0,0-.5.18.731.731,0,0,0-.231.485V0H15.3V-2.077a.6.6,0,0,0-.677-.691.725.725,0,0,0-.729.454V0h-.542V-3.17Z" transform="translate(436.41 7982.559)"/>
    <path id="Trazado_904208" data-name="Trazado 904208" d="M1.143-2.4H1.55a.9.9,0,0,0,.6-.2.675.675,0,0,0,.22-.53.662.662,0,0,0-.747-.75.777.777,0,0,0-.561.2.7.7,0,0,0-.209.532H.313a1.088,1.088,0,0,1,.371-.842,1.35,1.35,0,0,1,.942-.335A1.334,1.334,0,0,1,2.572-4a1.154,1.154,0,0,1,.343.888.936.936,0,0,1-.18.539,1.088,1.088,0,0,1-.491.39,1.048,1.048,0,0,1,.543.369,1.025,1.025,0,0,1,.192.63A1.164,1.164,0,0,1,2.6-.278a1.4,1.4,0,0,1-.976.337A1.441,1.441,0,0,1,.652-.267a1.079,1.079,0,0,1-.376-.858H.82a.7.7,0,0,0,.22.539.836.836,0,0,0,.589.2.82.82,0,0,0,.6-.205.79.79,0,0,0,.208-.589.717.717,0,0,0-.229-.571,1,1,0,0,0-.659-.205H1.143ZM6.536-.384A.781.781,0,0,0,7.043-.56.618.618,0,0,0,7.283-1H7.8a.983.983,0,0,1-.187.519,1.235,1.235,0,0,1-.461.393,1.331,1.331,0,0,1-.611.146,1.306,1.306,0,0,1-1.03-.432,1.721,1.721,0,0,1-.382-1.182v-.091a1.908,1.908,0,0,1,.17-.823,1.294,1.294,0,0,1,.488-.56,1.386,1.386,0,0,1,.751-.2,1.271,1.271,0,0,1,.886.319A1.141,1.141,0,0,1,7.8-2.08H7.283a.747.747,0,0,0-.233-.505.725.725,0,0,0-.517-.2.759.759,0,0,0-.64.3,1.4,1.4,0,0,0-.227.86v.1a1.369,1.369,0,0,0,.226.844A.762.762,0,0,0,6.536-.384ZM8.915-3.17l.015.352a1.171,1.171,0,0,1,.94-.41.906.906,0,0,1,.905.51,1.2,1.2,0,0,1,.412-.369,1.216,1.216,0,0,1,.6-.141q1.043,0,1.061,1.1V0H12.3V-2.092a.728.728,0,0,0-.155-.508.684.684,0,0,0-.521-.168.719.719,0,0,0-.5.18A.731.731,0,0,0,10.9-2.1V0h-.545V-2.077a.6.6,0,0,0-.677-.691.725.725,0,0,0-.729.454V0H8.4V-3.17Z" transform="translate(325.262 7934.223)"/>
    <path id="Trazado_904209" data-name="Trazado 904209" d="M3.149,0H.354V-.39L1.831-2.03a3.508,3.508,0,0,0,.453-.6,1.01,1.01,0,0,0,.125-.482.765.765,0,0,0-.2-.548.707.707,0,0,0-.539-.214.837.837,0,0,0-.628.23.878.878,0,0,0-.224.64H.272a1.258,1.258,0,0,1,.379-.952,1.406,1.406,0,0,1,1.015-.363,1.351,1.351,0,0,1,.94.312,1.064,1.064,0,0,1,.346.831,2.44,2.44,0,0,1-.8,1.5L1.008-.442H3.149Zm.642-.284a.339.339,0,0,1,.083-.234.318.318,0,0,1,.25-.094.328.328,0,0,1,.253.094.333.333,0,0,1,.086.234.315.315,0,0,1-.086.226.334.334,0,0,1-.253.091.324.324,0,0,1-.25-.091A.321.321,0,0,1,3.791-.284ZM5.552-2.139l.217-2.127H7.954v.5H6.229L6.1-2.6a1.377,1.377,0,0,1,.712-.185,1.177,1.177,0,0,1,.926.385A1.51,1.51,0,0,1,8.08-1.359,1.457,1.457,0,0,1,7.724-.321a1.3,1.3,0,0,1-.995.379,1.348,1.348,0,0,1-.923-.313A1.251,1.251,0,0,1,5.4-1.122h.513a.861.861,0,0,0,.261.552.811.811,0,0,0,.557.186.731.731,0,0,0,.593-.258,1.078,1.078,0,0,0,.215-.712.989.989,0,0,0-.233-.687.792.792,0,0,0-.62-.259.894.894,0,0,0-.557.155l-.144.117ZM11.484-.384a.781.781,0,0,0,.507-.176A.618.618,0,0,0,12.231-1h.513a.983.983,0,0,1-.187.519,1.235,1.235,0,0,1-.461.393,1.331,1.331,0,0,1-.611.146,1.306,1.306,0,0,1-1.03-.432,1.721,1.721,0,0,1-.382-1.182v-.091a1.908,1.908,0,0,1,.17-.823,1.294,1.294,0,0,1,.488-.56,1.386,1.386,0,0,1,.751-.2,1.271,1.271,0,0,1,.886.319,1.141,1.141,0,0,1,.376.829h-.513A.747.747,0,0,0,12-2.585a.725.725,0,0,0-.517-.2.759.759,0,0,0-.64.3,1.4,1.4,0,0,0-.227.86v.1a1.369,1.369,0,0,0,.226.844A.762.762,0,0,0,11.484-.384ZM13.863-3.17l.015.352a1.171,1.171,0,0,1,.94-.41.906.906,0,0,1,.905.51,1.2,1.2,0,0,1,.412-.369,1.216,1.216,0,0,1,.6-.141q1.043,0,1.061,1.1V0h-.542V-2.092A.728.728,0,0,0,17.1-2.6a.684.684,0,0,0-.521-.168.719.719,0,0,0-.5.18.731.731,0,0,0-.231.485V0H15.3V-2.077a.6.6,0,0,0-.677-.691.725.725,0,0,0-.729.454V0h-.542V-3.17Z" transform="translate(293.646 7905.796)"/>
    <path id="Trazado_904210" data-name="Trazado 904210" d="M3.029-1.819A2.479,2.479,0,0,1,2.7-.4,1.157,1.157,0,0,1,1.688.059,1.165,1.165,0,0,1,.677-.394a2.353,2.353,0,0,1-.34-1.352V-2.47a2.424,2.424,0,0,1,.325-1.4,1.165,1.165,0,0,1,1.02-.457A1.176,1.176,0,0,1,2.7-3.883a2.339,2.339,0,0,1,.334,1.361Zm-.542-.741a1.986,1.986,0,0,0-.193-1,.666.666,0,0,0-.612-.315.657.657,0,0,0-.606.313,1.939,1.939,0,0,0-.2.964v.867a2.018,2.018,0,0,0,.2,1.021.664.664,0,0,0,.608.33.655.655,0,0,0,.6-.311,1.945,1.945,0,0,0,.2-.979Zm1.3,2.276a.339.339,0,0,1,.083-.234.318.318,0,0,1,.25-.094.328.328,0,0,1,.253.094.333.333,0,0,1,.086.234.315.315,0,0,1-.086.226.334.334,0,0,1-.253.091.324.324,0,0,1-.25-.091A.321.321,0,0,1,3.791-.284ZM8.057-3.961,6.29,0H5.722L7.482-3.82H5.174v-.445H8.057ZM11.484-.384a.781.781,0,0,0,.507-.176A.618.618,0,0,0,12.231-1h.513a.983.983,0,0,1-.187.519,1.235,1.235,0,0,1-.461.393,1.331,1.331,0,0,1-.611.146,1.306,1.306,0,0,1-1.03-.432,1.721,1.721,0,0,1-.382-1.182v-.091a1.908,1.908,0,0,1,.17-.823,1.294,1.294,0,0,1,.488-.56,1.386,1.386,0,0,1,.751-.2,1.271,1.271,0,0,1,.886.319,1.141,1.141,0,0,1,.376.829h-.513A.747.747,0,0,0,12-2.585a.725.725,0,0,0-.517-.2.759.759,0,0,0-.64.3,1.4,1.4,0,0,0-.227.86v.1a1.369,1.369,0,0,0,.226.844A.762.762,0,0,0,11.484-.384ZM13.863-3.17l.015.352a1.171,1.171,0,0,1,.94-.41.906.906,0,0,1,.905.51,1.2,1.2,0,0,1,.412-.369,1.216,1.216,0,0,1,.6-.141q1.043,0,1.061,1.1V0h-.542V-2.092A.728.728,0,0,0,17.1-2.6a.684.684,0,0,0-.521-.168.719.719,0,0,0-.5.18.731.731,0,0,0-.231.485V0H15.3V-2.077a.6.6,0,0,0-.677-.691.725.725,0,0,0-.729.454V0h-.542V-3.17Z" transform="translate(436.41 8045.829)"/>
    <path id="Trazado_904211" data-name="Trazado 904211" d="M8.077-3.163H3.013L1.876,0H.232L4.848-12.086H6.242L10.866,0H9.23Zm-4.582-1.3H7.6L5.545-10.119ZM13.7-8.981l.05,1.129a3.273,3.273,0,0,1,2.689-1.295q2.847,0,2.872,3.212V0H17.78V-5.943a2.068,2.068,0,0,0-.444-1.436,1.78,1.78,0,0,0-1.357-.465,2.216,2.216,0,0,0-1.312.4,2.706,2.706,0,0,0-.88,1.046V0H12.252V-8.981Zm11.53,7.894a2.212,2.212,0,0,0,1.436-.5,1.752,1.752,0,0,0,.681-1.245H28.8a2.785,2.785,0,0,1-.531,1.469A3.5,3.5,0,0,1,26.965-.249a3.772,3.772,0,0,1-1.731.415,3.7,3.7,0,0,1-2.918-1.224,4.877,4.877,0,0,1-1.083-3.349v-.257A5.407,5.407,0,0,1,21.715-7,3.667,3.667,0,0,1,23.1-8.583a3.926,3.926,0,0,1,2.129-.564,3.6,3.6,0,0,1,2.511.9A3.234,3.234,0,0,1,28.8-5.894H27.351a2.116,2.116,0,0,0-.66-1.432,2.053,2.053,0,0,0-1.465-.56,2.149,2.149,0,0,0-1.814.843,3.957,3.957,0,0,0-.643,2.436v.291a3.878,3.878,0,0,0,.639,2.391A2.16,2.16,0,0,0,25.234-1.087Zm6.832-6.807a3.265,3.265,0,0,1,2.656-1.253q2.847,0,2.872,3.212V0H36.059V-5.943a2.068,2.068,0,0,0-.444-1.436,1.78,1.78,0,0,0-1.357-.465,2.216,2.216,0,0,0-1.312.4,2.706,2.706,0,0,0-.88,1.046V0H30.53V-12.75h1.536Zm7.421,3.32a5.3,5.3,0,0,1,.519-2.374A3.87,3.87,0,0,1,41.45-8.575a3.932,3.932,0,0,1,2.113-.573,3.788,3.788,0,0,1,2.968,1.27A4.886,4.886,0,0,1,47.663-4.5v.108a5.351,5.351,0,0,1-.5,2.353A3.813,3.813,0,0,1,45.725-.415a3.977,3.977,0,0,1-2.146.581A3.778,3.778,0,0,1,40.62-1.1a4.861,4.861,0,0,1-1.133-3.362Zm1.544.183a3.842,3.842,0,0,0,.693,2.4,2.218,2.218,0,0,0,1.855.9A2.2,2.2,0,0,0,45.438-2a4.2,4.2,0,0,0,.689-2.569,3.836,3.836,0,0,0-.7-2.395,2.23,2.23,0,0,0-1.864-.917,2.205,2.205,0,0,0-1.834.9A4.17,4.17,0,0,0,41.031-4.391Z" transform="translate(453.998 8091.28)"/>
    <path id="Trazado_904212" data-name="Trazado 904212" d="M1.4,0V-12.086H5.354a4.587,4.587,0,0,1,2.959.813,2.932,2.932,0,0,1,.992,2.407,2.455,2.455,0,0,1-.481,1.5A3.121,3.121,0,0,1,7.512-6.358,2.8,2.8,0,0,1,9.06-5.317a2.99,2.99,0,0,1,.569,1.83A3.232,3.232,0,0,1,8.575-.93,4.36,4.36,0,0,1,5.595,0ZM3-5.653V-1.3H5.628A2.534,2.534,0,0,0,7.384-1.88a2.026,2.026,0,0,0,.643-1.59q0-2.183-2.374-2.183ZM3-6.931H5.4a2.523,2.523,0,0,0,1.673-.524A1.757,1.757,0,0,0,7.7-8.878a1.728,1.728,0,0,0-.581-1.452,2.853,2.853,0,0,0-1.768-.453H3Zm8.342,2.357a5.3,5.3,0,0,1,.519-2.374A3.87,3.87,0,0,1,13.3-8.575a3.932,3.932,0,0,1,2.113-.573,3.788,3.788,0,0,1,2.968,1.27A4.886,4.886,0,0,1,19.515-4.5v.108a5.351,5.351,0,0,1-.5,2.353A3.813,3.813,0,0,1,17.577-.415a3.977,3.977,0,0,1-2.146.581A3.778,3.778,0,0,1,12.472-1.1a4.861,4.861,0,0,1-1.133-3.362Zm1.544.183a3.842,3.842,0,0,0,.693,2.4,2.218,2.218,0,0,0,1.855.9A2.2,2.2,0,0,0,17.291-2a4.2,4.2,0,0,0,.689-2.569,3.836,3.836,0,0,0-.7-2.395,2.23,2.23,0,0,0-1.864-.917,2.205,2.205,0,0,0-1.834.9A4.17,4.17,0,0,0,12.883-4.391Zm10.642-6.765v2.175H25.2v1.187H23.524v5.577a1.247,1.247,0,0,0,.224.81.943.943,0,0,0,.764.27,3.718,3.718,0,0,0,.73-.1V0a4.478,4.478,0,0,1-1.179.165,1.912,1.912,0,0,1-1.552-.623,2.675,2.675,0,0,1-.523-1.768v-5.57H20.354V-8.981h1.635v-2.175Zm2.9,6.583a5.3,5.3,0,0,1,.519-2.374,3.87,3.87,0,0,1,1.444-1.627A3.932,3.932,0,0,1,30.5-9.147a3.788,3.788,0,0,1,2.968,1.27A4.886,4.886,0,0,1,34.6-4.5v.108a5.351,5.351,0,0,1-.5,2.353A3.813,3.813,0,0,1,32.659-.415a3.977,3.977,0,0,1-2.146.581A3.778,3.778,0,0,1,27.554-1.1a4.861,4.861,0,0,1-1.133-3.362Zm1.544.183a3.842,3.842,0,0,0,.693,2.4,2.218,2.218,0,0,0,1.855.9A2.2,2.2,0,0,0,32.373-2a4.2,4.2,0,0,0,.689-2.569,3.836,3.836,0,0,0-.7-2.395A2.23,2.23,0,0,0,30.5-7.886a2.205,2.205,0,0,0-1.834.9A4.17,4.17,0,0,0,27.965-4.391Zm10.011-4.59.05,1.129a3.273,3.273,0,0,1,2.689-1.295q2.847,0,2.872,3.212V0H42.052V-5.943a2.068,2.068,0,0,0-.444-1.436,1.78,1.78,0,0,0-1.357-.465,2.216,2.216,0,0,0-1.312.4,2.706,2.706,0,0,0-.88,1.046V0H36.523V-8.981ZM49.63.166a3.924,3.924,0,0,1-2.972-1.2,4.452,4.452,0,0,1-1.146-3.208v-.282a5.39,5.39,0,0,1,.51-2.386,3.982,3.982,0,0,1,1.428-1.644,3.59,3.59,0,0,1,1.988-.594,3.364,3.364,0,0,1,2.723,1.154,5,5,0,0,1,.971,3.3v.639H47.049a3.193,3.193,0,0,0,.776,2.146,2.44,2.44,0,0,0,1.888.818,2.675,2.675,0,0,0,1.378-.332,3.462,3.462,0,0,0,.988-.88l.938.73A3.772,3.772,0,0,1,49.63.166Zm-.191-8.052a2.048,2.048,0,0,0-1.561.677,3.288,3.288,0,0,0-.78,1.9h4.5v-.116a2.925,2.925,0,0,0-.631-1.814A1.928,1.928,0,0,0,49.439-7.886Zm9.812.282a4.6,4.6,0,0,0-.755-.058,2.024,2.024,0,0,0-2.05,1.287V0H54.91V-8.981H56.4l.025,1.038a2.391,2.391,0,0,1,2.142-1.2,1.569,1.569,0,0,1,.681.116ZM65.875,0a3.226,3.226,0,0,1-.216-.946A3.426,3.426,0,0,1,63.1.166a3.17,3.17,0,0,1-2.179-.751,2.43,2.43,0,0,1-.851-1.905,2.539,2.539,0,0,1,1.067-2.179,5.029,5.029,0,0,1,3-.776h1.494v-.706a1.725,1.725,0,0,0-.481-1.282,1.935,1.935,0,0,0-1.419-.477,2.239,2.239,0,0,0-1.378.415,1.223,1.223,0,0,0-.556,1H60.255a2.119,2.119,0,0,1,.477-1.3,3.258,3.258,0,0,1,1.295-.992,4.356,4.356,0,0,1,1.8-.365,3.551,3.551,0,0,1,2.432.776,2.8,2.8,0,0,1,.913,2.137V-2.1a5.054,5.054,0,0,0,.315,1.967V0ZM63.327-1.17a2.7,2.7,0,0,0,1.37-.374,2.259,2.259,0,0,0,.938-.971V-4.358h-1.2q-2.822,0-2.822,1.652a1.4,1.4,0,0,0,.481,1.129A1.85,1.85,0,0,0,63.327-1.17Z" transform="translate(444.891 8105.328)"/>
    <path id="Trazado_904213" data-name="Trazado 904213" d="M8.077-3.163H3.013L1.876,0H.232L4.848-12.086H6.242L10.866,0H9.23Zm-4.582-1.3H7.6L5.545-10.119ZM13.92,0H12.385V-12.75H13.92Zm4.541-11.156v2.175h1.677v1.187H18.461v5.577a1.247,1.247,0,0,0,.224.81.943.943,0,0,0,.764.27,3.718,3.718,0,0,0,.73-.1V0A4.478,4.478,0,0,1,19,.166a1.912,1.912,0,0,1-1.552-.623,2.675,2.675,0,0,1-.523-1.768v-5.57H15.29V-8.981h1.635v-2.175ZM27.476-.888A3.262,3.262,0,0,1,24.844.166a2.792,2.792,0,0,1-2.187-.834,3.611,3.611,0,0,1-.76-2.469V-8.981h1.536v5.8q0,2.042,1.66,2.042a2.3,2.3,0,0,0,2.341-1.312V-8.981H28.97V0H27.509ZM35.644-7.6a4.6,4.6,0,0,0-.755-.058,2.024,2.024,0,0,0-2.05,1.287V0H31.3V-8.981H32.8l.025,1.038a2.391,2.391,0,0,1,2.142-1.2,1.569,1.569,0,0,1,.681.116ZM42.268,0a3.226,3.226,0,0,1-.216-.946A3.426,3.426,0,0,1,39.5.166a3.17,3.17,0,0,1-2.179-.751,2.43,2.43,0,0,1-.851-1.905,2.539,2.539,0,0,1,1.067-2.179,5.029,5.029,0,0,1,3-.776h1.494v-.706a1.725,1.725,0,0,0-.481-1.282,1.935,1.935,0,0,0-1.419-.477,2.239,2.239,0,0,0-1.378.415,1.223,1.223,0,0,0-.556,1H36.648a2.119,2.119,0,0,1,.477-1.3,3.258,3.258,0,0,1,1.295-.992,4.356,4.356,0,0,1,1.8-.365,3.551,3.551,0,0,1,2.432.776,2.8,2.8,0,0,1,.913,2.137V-2.1a5.054,5.054,0,0,0,.315,1.967V0ZM39.719-1.17a2.7,2.7,0,0,0,1.37-.374,2.259,2.259,0,0,0,.938-.971V-4.358h-1.2Q38-4.358,38-2.706a1.4,1.4,0,0,0,.481,1.129A1.85,1.85,0,0,0,39.719-1.17ZM49.8-4.565a5.261,5.261,0,0,1,.979-3.324,3.1,3.1,0,0,1,2.565-1.258,3.115,3.115,0,0,1,2.5,1.079V-12.75h1.536V0H55.972L55.9-.963A3.127,3.127,0,0,1,53.333.166a3.068,3.068,0,0,1-2.544-1.278A5.321,5.321,0,0,1,49.8-4.449Zm1.536.174A3.984,3.984,0,0,0,51.971-2a2.039,2.039,0,0,0,1.743.863,2.24,2.24,0,0,0,2.133-1.312V-6.574a2.257,2.257,0,0,0-2.117-1.27,2.049,2.049,0,0,0-1.76.872A4.386,4.386,0,0,0,51.34-4.391ZM63.493.166a3.924,3.924,0,0,1-2.972-1.2,4.452,4.452,0,0,1-1.146-3.208v-.282a5.39,5.39,0,0,1,.51-2.386,3.982,3.982,0,0,1,1.428-1.644A3.59,3.59,0,0,1,63.3-9.147a3.364,3.364,0,0,1,2.723,1.154A5,5,0,0,1,67-4.69v.639H60.911a3.193,3.193,0,0,0,.776,2.146,2.44,2.44,0,0,0,1.888.818,2.675,2.675,0,0,0,1.378-.332,3.462,3.462,0,0,0,.988-.88l.938.73A3.772,3.772,0,0,1,63.493.166ZM63.3-7.886a2.048,2.048,0,0,0-1.561.677,3.288,3.288,0,0,0-.78,1.9h4.5v-.116a2.925,2.925,0,0,0-.631-1.814A1.929,1.929,0,0,0,63.3-7.886Zm18.81,4.051A4.447,4.447,0,0,1,80.7-.876,4.638,4.638,0,0,1,77.529.166,4.259,4.259,0,0,1,74.1-1.37a6.178,6.178,0,0,1-1.291-4.109V-6.641a6.886,6.886,0,0,1,.6-2.963,4.5,4.5,0,0,1,1.706-1.963,4.75,4.75,0,0,1,2.557-.685,4.367,4.367,0,0,1,3.088,1.075A4.5,4.5,0,0,1,82.111-8.2h-1.6a3.472,3.472,0,0,0-.9-2.1,2.725,2.725,0,0,0-1.938-.649,2.851,2.851,0,0,0-2.395,1.13A5.187,5.187,0,0,0,74.408-6.6v1.171A5.332,5.332,0,0,0,75.23-2.3a2.655,2.655,0,0,0,2.3,1.163,3.067,3.067,0,0,0,2.038-.6,3.34,3.34,0,0,0,.942-2.1ZM89.59,0a3.226,3.226,0,0,1-.216-.946A3.426,3.426,0,0,1,86.818.166a3.17,3.17,0,0,1-2.179-.751,2.43,2.43,0,0,1-.851-1.905,2.539,2.539,0,0,1,1.067-2.179,5.029,5.029,0,0,1,3-.776H89.35v-.706a1.725,1.725,0,0,0-.481-1.282,1.935,1.935,0,0,0-1.419-.477,2.239,2.239,0,0,0-1.378.415,1.223,1.223,0,0,0-.556,1H83.971a2.119,2.119,0,0,1,.477-1.3,3.258,3.258,0,0,1,1.295-.992,4.356,4.356,0,0,1,1.8-.365,3.551,3.551,0,0,1,2.432.776,2.8,2.8,0,0,1,.913,2.137V-2.1A5.054,5.054,0,0,0,91.2-.133V0ZM87.042-1.17a2.7,2.7,0,0,0,1.37-.374,2.259,2.259,0,0,0,.938-.971V-4.358h-1.2q-2.822,0-2.822,1.652a1.4,1.4,0,0,0,.481,1.129A1.85,1.85,0,0,0,87.042-1.17Zm5.877-3.4A5.261,5.261,0,0,1,93.9-7.89a3.1,3.1,0,0,1,2.565-1.258,3.115,3.115,0,0,1,2.5,1.079V-12.75H100.5V0H99.086l-.075-.963A3.127,3.127,0,0,1,96.447.166,3.068,3.068,0,0,1,93.9-1.112a5.321,5.321,0,0,1-.984-3.337Zm1.536.174A3.984,3.984,0,0,0,95.085-2a2.039,2.039,0,0,0,1.743.863,2.24,2.24,0,0,0,2.133-1.312V-6.574a2.257,2.257,0,0,0-2.117-1.27,2.049,2.049,0,0,0-1.76.872A4.386,4.386,0,0,0,94.455-4.391ZM106.607.166a3.924,3.924,0,0,1-2.972-1.2,4.452,4.452,0,0,1-1.146-3.208v-.282A5.39,5.39,0,0,1,103-6.91a3.982,3.982,0,0,1,1.428-1.644,3.59,3.59,0,0,1,1.988-.594,3.364,3.364,0,0,1,2.723,1.154,5,5,0,0,1,.971,3.3v.639h-6.084a3.193,3.193,0,0,0,.776,2.146,2.44,2.44,0,0,0,1.888.818,2.675,2.675,0,0,0,1.378-.332,3.462,3.462,0,0,0,.988-.88l.938.73A3.772,3.772,0,0,1,106.607.166Zm-.191-8.052a2.048,2.048,0,0,0-1.561.677,3.288,3.288,0,0,0-.78,1.9h4.5v-.116a2.925,2.925,0,0,0-.631-1.814A1.928,1.928,0,0,0,106.416-7.886Zm9.812.282a4.6,4.6,0,0,0-.755-.058,2.024,2.024,0,0,0-2.05,1.287V0h-1.536V-8.981h1.494l.025,1.038a2.391,2.391,0,0,1,2.142-1.2,1.569,1.569,0,0,1,.681.116ZM122.852,0a3.226,3.226,0,0,1-.216-.946A3.426,3.426,0,0,1,120.079.166,3.17,3.17,0,0,1,117.9-.585a2.43,2.43,0,0,1-.851-1.905,2.539,2.539,0,0,1,1.067-2.179,5.029,5.029,0,0,1,3-.776h1.494v-.706a1.725,1.725,0,0,0-.481-1.282,1.935,1.935,0,0,0-1.419-.477,2.239,2.239,0,0,0-1.378.415,1.223,1.223,0,0,0-.556,1h-1.544a2.119,2.119,0,0,1,.477-1.3A3.258,3.258,0,0,1,119-8.782a4.356,4.356,0,0,1,1.8-.365,3.551,3.551,0,0,1,2.432.776,2.8,2.8,0,0,1,.913,2.137V-2.1a5.054,5.054,0,0,0,.315,1.967V0ZM120.3-1.17a2.7,2.7,0,0,0,1.37-.374,2.259,2.259,0,0,0,.938-.971V-4.358h-1.2q-2.822,0-2.822,1.652a1.4,1.4,0,0,0,.481,1.129A1.85,1.85,0,0,0,120.3-1.17Zm14.858-5.312h3.37V-5.03h-3.37v3.818h-1.544V-5.03h-3.37V-6.483h3.37v-3.528h1.544ZM151.78-8.932a2.807,2.807,0,0,1-.477,1.61,3.248,3.248,0,0,1-1.291,1.1,3.464,3.464,0,0,1,1.5,1.187,2.987,2.987,0,0,1,.552,1.768A3.158,3.158,0,0,1,151-.764a4.066,4.066,0,0,1-2.785.93,4.048,4.048,0,0,1-2.793-.934,3.173,3.173,0,0,1-1.05-2.494,3.076,3.076,0,0,1,.535-1.768,3.332,3.332,0,0,1,1.482-1.2,3.167,3.167,0,0,1-1.27-1.1,2.846,2.846,0,0,1-.465-1.6,3.124,3.124,0,0,1,.979-2.424,3.674,3.674,0,0,1,2.582-.9,3.678,3.678,0,0,1,2.577.9A3.117,3.117,0,0,1,151.78-8.932ZM150.526-3.3a2.228,2.228,0,0,0-.643-1.652,2.281,2.281,0,0,0-1.681-.639,2.241,2.241,0,0,0-1.664.631,2.253,2.253,0,0,0-.627,1.66,2.145,2.145,0,0,0,.61,1.619,2.342,2.342,0,0,0,1.7.589,2.335,2.335,0,0,0,1.693-.594A2.14,2.14,0,0,0,150.526-3.3Zm-2.308-7.695a1.981,1.981,0,0,0-1.465.56,2.058,2.058,0,0,0-.56,1.523,2.048,2.048,0,0,0,.552,1.49,1.959,1.959,0,0,0,1.473.569,1.959,1.959,0,0,0,1.473-.569,2.048,2.048,0,0,0,.552-1.49,2.049,2.049,0,0,0-.573-1.5A1.953,1.953,0,0,0,148.219-10.99Zm13.746,9.9a2.212,2.212,0,0,0,1.436-.5,1.752,1.752,0,0,0,.681-1.245h1.453A2.785,2.785,0,0,1,165-1.361,3.5,3.5,0,0,1,163.7-.249a3.772,3.772,0,0,1-1.731.415,3.7,3.7,0,0,1-2.918-1.224,4.877,4.877,0,0,1-1.083-3.349v-.257A5.407,5.407,0,0,1,158.445-7a3.667,3.667,0,0,1,1.382-1.585,3.926,3.926,0,0,1,2.129-.564,3.6,3.6,0,0,1,2.511.9,3.234,3.234,0,0,1,1.067,2.349h-1.453a2.116,2.116,0,0,0-.66-1.432,2.053,2.053,0,0,0-1.465-.56,2.149,2.149,0,0,0-1.814.843,3.957,3.957,0,0,0-.643,2.436v.291a3.878,3.878,0,0,0,.639,2.391A2.16,2.16,0,0,0,161.965-1.087Zm6.74-7.894.042,1a3.317,3.317,0,0,1,2.665-1.162A2.568,2.568,0,0,1,173.976-7.7a3.4,3.4,0,0,1,1.166-1.046,3.445,3.445,0,0,1,1.7-.4q2.955,0,3,3.129V0h-1.536V-5.927a2.062,2.062,0,0,0-.44-1.44,1.937,1.937,0,0,0-1.478-.477,2.036,2.036,0,0,0-1.419.51,2.071,2.071,0,0,0-.656,1.374V0h-1.544V-5.885a1.713,1.713,0,0,0-1.917-1.959,2.055,2.055,0,0,0-2.067,1.287V0h-1.536V-8.981Z" transform="translate(460.898 8521.803) rotate(-90)"/>
    <path id="Trazado_904214" data-name="Trazado 904214" d="M3.029-1.819A2.479,2.479,0,0,1,2.7-.4,1.157,1.157,0,0,1,1.688.059,1.165,1.165,0,0,1,.677-.394a2.353,2.353,0,0,1-.34-1.352V-2.47a2.424,2.424,0,0,1,.325-1.4,1.165,1.165,0,0,1,1.02-.457A1.176,1.176,0,0,1,2.7-3.883a2.339,2.339,0,0,1,.334,1.361Zm-.542-.741a1.986,1.986,0,0,0-.193-1,.666.666,0,0,0-.612-.315.657.657,0,0,0-.606.313,1.939,1.939,0,0,0-.2.964v.867a2.018,2.018,0,0,0,.2,1.021.664.664,0,0,0,.608.33.655.655,0,0,0,.6-.311,1.945,1.945,0,0,0,.2-.979Zm1.3,2.276a.339.339,0,0,1,.083-.234.318.318,0,0,1,.25-.094.328.328,0,0,1,.253.094.333.333,0,0,1,.086.234.315.315,0,0,1-.086.226.334.334,0,0,1-.253.091.324.324,0,0,1-.25-.091A.321.321,0,0,1,3.791-.284ZM8.057-3.961,6.29,0H5.722L7.482-3.82H5.174v-.445H8.057ZM11.484-.384a.781.781,0,0,0,.507-.176A.618.618,0,0,0,12.231-1h.513a.983.983,0,0,1-.187.519,1.235,1.235,0,0,1-.461.393,1.331,1.331,0,0,1-.611.146,1.306,1.306,0,0,1-1.03-.432,1.721,1.721,0,0,1-.382-1.182v-.091a1.908,1.908,0,0,1,.17-.823,1.294,1.294,0,0,1,.488-.56,1.386,1.386,0,0,1,.751-.2,1.271,1.271,0,0,1,.886.319,1.141,1.141,0,0,1,.376.829h-.513A.747.747,0,0,0,12-2.585a.725.725,0,0,0-.517-.2.759.759,0,0,0-.64.3,1.4,1.4,0,0,0-.227.86v.1a1.369,1.369,0,0,0,.226.844A.762.762,0,0,0,11.484-.384ZM13.863-3.17l.015.352a1.171,1.171,0,0,1,.94-.41.906.906,0,0,1,.905.51,1.2,1.2,0,0,1,.412-.369,1.216,1.216,0,0,1,.6-.141q1.043,0,1.061,1.1V0h-.542V-2.092A.728.728,0,0,0,17.1-2.6a.684.684,0,0,0-.521-.168.719.719,0,0,0-.5.18.731.731,0,0,0-.231.485V0H15.3V-2.077a.6.6,0,0,0-.677-.691.725.725,0,0,0-.729.454V0h-.542V-3.17Z" transform="translate(500.279 7982.559)"/>
    <path id="Trazado_904215" data-name="Trazado 904215" d="M3.029-1.819A2.479,2.479,0,0,1,2.7-.4,1.157,1.157,0,0,1,1.688.059,1.165,1.165,0,0,1,.677-.394a2.353,2.353,0,0,1-.34-1.352V-2.47a2.424,2.424,0,0,1,.325-1.4,1.165,1.165,0,0,1,1.02-.457A1.176,1.176,0,0,1,2.7-3.883a2.339,2.339,0,0,1,.334,1.361Zm-.542-.741a1.986,1.986,0,0,0-.193-1,.666.666,0,0,0-.612-.315.657.657,0,0,0-.606.313,1.939,1.939,0,0,0-.2.964v.867a2.018,2.018,0,0,0,.2,1.021.664.664,0,0,0,.608.33.655.655,0,0,0,.6-.311,1.945,1.945,0,0,0,.2-.979Zm1.3,2.276a.339.339,0,0,1,.083-.234.318.318,0,0,1,.25-.094.328.328,0,0,1,.253.094.333.333,0,0,1,.086.234.315.315,0,0,1-.086.226.334.334,0,0,1-.253.091.324.324,0,0,1-.25-.091A.321.321,0,0,1,3.791-.284ZM8.057-3.961,6.29,0H5.722L7.482-3.82H5.174v-.445H8.057ZM11.484-.384a.781.781,0,0,0,.507-.176A.618.618,0,0,0,12.231-1h.513a.983.983,0,0,1-.187.519,1.235,1.235,0,0,1-.461.393,1.331,1.331,0,0,1-.611.146,1.306,1.306,0,0,1-1.03-.432,1.721,1.721,0,0,1-.382-1.182v-.091a1.908,1.908,0,0,1,.17-.823,1.294,1.294,0,0,1,.488-.56,1.386,1.386,0,0,1,.751-.2,1.271,1.271,0,0,1,.886.319,1.141,1.141,0,0,1,.376.829h-.513A.747.747,0,0,0,12-2.585a.725.725,0,0,0-.517-.2.759.759,0,0,0-.64.3,1.4,1.4,0,0,0-.227.86v.1a1.369,1.369,0,0,0,.226.844A.762.762,0,0,0,11.484-.384ZM13.863-3.17l.015.352a1.171,1.171,0,0,1,.94-.41.906.906,0,0,1,.905.51,1.2,1.2,0,0,1,.412-.369,1.216,1.216,0,0,1,.6-.141q1.043,0,1.061,1.1V0h-.542V-2.092A.728.728,0,0,0,17.1-2.6a.684.684,0,0,0-.521-.168.719.719,0,0,0-.5.18.731.731,0,0,0-.231.485V0H15.3V-2.077a.6.6,0,0,0-.677-.691.725.725,0,0,0-.729.454V0h-.542V-3.17Z" transform="translate(500.279 8045.829)"/>
    <path id="Trazado_904216" data-name="Trazado 904216" d="M2.136,0H1.591V-3.612L.5-3.211V-3.7l1.553-.583h.085ZM6.478-3.961,4.711,0H4.143L5.9-3.82H3.595v-.445H6.478ZM9.905-.384a.781.781,0,0,0,.507-.176A.618.618,0,0,0,10.652-1h.513a.983.983,0,0,1-.187.519,1.235,1.235,0,0,1-.461.393,1.331,1.331,0,0,1-.611.146,1.306,1.306,0,0,1-1.03-.432,1.721,1.721,0,0,1-.382-1.182v-.091a1.908,1.908,0,0,1,.17-.823,1.294,1.294,0,0,1,.488-.56,1.386,1.386,0,0,1,.751-.2,1.271,1.271,0,0,1,.886.319,1.141,1.141,0,0,1,.376.829h-.513a.747.747,0,0,0-.233-.505.725.725,0,0,0-.517-.2.759.759,0,0,0-.64.3,1.4,1.4,0,0,0-.227.86v.1a1.369,1.369,0,0,0,.226.844A.762.762,0,0,0,9.905-.384ZM12.284-3.17l.015.352a1.171,1.171,0,0,1,.94-.41.906.906,0,0,1,.905.51,1.2,1.2,0,0,1,.412-.369,1.216,1.216,0,0,1,.6-.141q1.043,0,1.061,1.1V0h-.542V-2.092a.728.728,0,0,0-.155-.508A.684.684,0,0,0,15-2.769a.719.719,0,0,0-.5.18.731.731,0,0,0-.231.485V0H13.72V-2.077a.6.6,0,0,0-.677-.691.725.725,0,0,0-.729.454V0h-.542V-3.17Z" transform="translate(537.434 8001.475)"/>
    <path id="Trazado_904217" data-name="Trazado 904217" d="M3.149,0H.354V-.39L1.831-2.03a3.508,3.508,0,0,0,.453-.6,1.01,1.01,0,0,0,.125-.482.765.765,0,0,0-.2-.548.707.707,0,0,0-.539-.214.837.837,0,0,0-.628.23.878.878,0,0,0-.224.64H.272a1.258,1.258,0,0,1,.379-.952,1.406,1.406,0,0,1,1.015-.363,1.351,1.351,0,0,1,.94.312,1.064,1.064,0,0,1,.346.831,2.44,2.44,0,0,1-.8,1.5L1.008-.442H3.149Zm.642-.284a.339.339,0,0,1,.083-.234.318.318,0,0,1,.25-.094.328.328,0,0,1,.253.094.333.333,0,0,1,.086.234.315.315,0,0,1-.086.226.334.334,0,0,1-.253.091.324.324,0,0,1-.25-.091A.321.321,0,0,1,3.791-.284ZM5.552-2.139l.217-2.127H7.954v.5H6.229L6.1-2.6a1.377,1.377,0,0,1,.712-.185,1.177,1.177,0,0,1,.926.385A1.51,1.51,0,0,1,8.08-1.359,1.457,1.457,0,0,1,7.724-.321a1.3,1.3,0,0,1-.995.379,1.348,1.348,0,0,1-.923-.313A1.251,1.251,0,0,1,5.4-1.122h.513a.861.861,0,0,0,.261.552.811.811,0,0,0,.557.186.731.731,0,0,0,.593-.258,1.078,1.078,0,0,0,.215-.712.989.989,0,0,0-.233-.687.792.792,0,0,0-.62-.259.894.894,0,0,0-.557.155l-.144.117ZM11.484-.384a.781.781,0,0,0,.507-.176A.618.618,0,0,0,12.231-1h.513a.983.983,0,0,1-.187.519,1.235,1.235,0,0,1-.461.393,1.331,1.331,0,0,1-.611.146,1.306,1.306,0,0,1-1.03-.432,1.721,1.721,0,0,1-.382-1.182v-.091a1.908,1.908,0,0,1,.17-.823,1.294,1.294,0,0,1,.488-.56,1.386,1.386,0,0,1,.751-.2,1.271,1.271,0,0,1,.886.319,1.141,1.141,0,0,1,.376.829h-.513A.747.747,0,0,0,12-2.585a.725.725,0,0,0-.517-.2.759.759,0,0,0-.64.3,1.4,1.4,0,0,0-.227.86v.1a1.369,1.369,0,0,0,.226.844A.762.762,0,0,0,11.484-.384ZM13.863-3.17l.015.352a1.171,1.171,0,0,1,.94-.41.906.906,0,0,1,.905.51,1.2,1.2,0,0,1,.412-.369,1.216,1.216,0,0,1,.6-.141q1.043,0,1.061,1.1V0h-.542V-2.092A.728.728,0,0,0,17.1-2.6a.684.684,0,0,0-.521-.168.719.719,0,0,0-.5.18.731.731,0,0,0-.231.485V0H15.3V-2.077a.6.6,0,0,0-.677-.691.725.725,0,0,0-.729.454V0h-.542V-3.17Z" transform="translate(679.367 8076.978)"/>
    <path id="Trazado_904218" data-name="Trazado 904218" d="M2.136,0H1.591V-3.612L.5-3.211V-3.7l1.553-.583h.085ZM3.791-.284a.339.339,0,0,1,.083-.234.318.318,0,0,1,.25-.094.328.328,0,0,1,.253.094.333.333,0,0,1,.086.234.315.315,0,0,1-.086.226.334.334,0,0,1-.253.091.324.324,0,0,1-.25-.091A.321.321,0,0,1,3.791-.284ZM5.552-2.139l.217-2.127H7.954v.5H6.229L6.1-2.6a1.377,1.377,0,0,1,.712-.185,1.177,1.177,0,0,1,.926.385A1.51,1.51,0,0,1,8.08-1.359,1.457,1.457,0,0,1,7.724-.321a1.3,1.3,0,0,1-.995.379,1.348,1.348,0,0,1-.923-.313A1.251,1.251,0,0,1,5.4-1.122h.513a.861.861,0,0,0,.261.552.811.811,0,0,0,.557.186.731.731,0,0,0,.593-.258,1.078,1.078,0,0,0,.215-.712.989.989,0,0,0-.233-.687.792.792,0,0,0-.62-.259.894.894,0,0,0-.557.155l-.144.117ZM11.484-.384a.781.781,0,0,0,.507-.176A.618.618,0,0,0,12.231-1h.513a.983.983,0,0,1-.187.519,1.235,1.235,0,0,1-.461.393,1.331,1.331,0,0,1-.611.146,1.306,1.306,0,0,1-1.03-.432,1.721,1.721,0,0,1-.382-1.182v-.091a1.908,1.908,0,0,1,.17-.823,1.294,1.294,0,0,1,.488-.56,1.386,1.386,0,0,1,.751-.2,1.271,1.271,0,0,1,.886.319,1.141,1.141,0,0,1,.376.829h-.513A.747.747,0,0,0,12-2.585a.725.725,0,0,0-.517-.2.759.759,0,0,0-.64.3,1.4,1.4,0,0,0-.227.86v.1a1.369,1.369,0,0,0,.226.844A.762.762,0,0,0,11.484-.384ZM13.863-3.17l.015.352a1.171,1.171,0,0,1,.94-.41.906.906,0,0,1,.905.51,1.2,1.2,0,0,1,.412-.369,1.216,1.216,0,0,1,.6-.141q1.043,0,1.061,1.1V0h-.542V-2.092A.728.728,0,0,0,17.1-2.6a.684.684,0,0,0-.521-.168.719.719,0,0,0-.5.18.731.731,0,0,0-.231.485V0H15.3V-2.077a.6.6,0,0,0-.677-.691.725.725,0,0,0-.729.454V0h-.542V-3.17Z" transform="translate(711.237 8100.725)"/>
    <path id="Trazado_904219" data-name="Trazado 904219" d="M0,0H511.526V714.851H0Z" transform="translate(228.735 7863.416)" fill="none"/>
    <path id="Trazado_904220" data-name="Trazado 904220" d="M3.149,0H.354V-.39L1.831-2.03a3.508,3.508,0,0,0,.453-.6,1.01,1.01,0,0,0,.125-.482.765.765,0,0,0-.2-.548.707.707,0,0,0-.539-.214.837.837,0,0,0-.628.23.878.878,0,0,0-.224.64H.272a1.258,1.258,0,0,1,.379-.952,1.406,1.406,0,0,1,1.015-.363,1.351,1.351,0,0,1,.94.312,1.064,1.064,0,0,1,.346.831,2.44,2.44,0,0,1-.8,1.5L1.008-.442H3.149Zm.642-.284a.339.339,0,0,1,.083-.234.318.318,0,0,1,.25-.094.328.328,0,0,1,.253.094.333.333,0,0,1,.086.234.315.315,0,0,1-.086.226.334.334,0,0,1-.253.091.324.324,0,0,1-.25-.091A.321.321,0,0,1,3.791-.284ZM5.552-2.139l.217-2.127H7.954v.5H6.229L6.1-2.6a1.377,1.377,0,0,1,.712-.185,1.177,1.177,0,0,1,.926.385A1.51,1.51,0,0,1,8.08-1.359,1.457,1.457,0,0,1,7.724-.321a1.3,1.3,0,0,1-.995.379,1.348,1.348,0,0,1-.923-.313A1.251,1.251,0,0,1,5.4-1.122h.513a.861.861,0,0,0,.261.552.811.811,0,0,0,.557.186.731.731,0,0,0,.593-.258,1.078,1.078,0,0,0,.215-.712.989.989,0,0,0-.233-.687.792.792,0,0,0-.62-.259.894.894,0,0,0-.557.155l-.144.117ZM11.484-.384a.781.781,0,0,0,.507-.176A.618.618,0,0,0,12.231-1h.513a.983.983,0,0,1-.187.519,1.235,1.235,0,0,1-.461.393,1.331,1.331,0,0,1-.611.146,1.306,1.306,0,0,1-1.03-.432,1.721,1.721,0,0,1-.382-1.182v-.091a1.908,1.908,0,0,1,.17-.823,1.294,1.294,0,0,1,.488-.56,1.386,1.386,0,0,1,.751-.2,1.271,1.271,0,0,1,.886.319,1.141,1.141,0,0,1,.376.829h-.513A.747.747,0,0,0,12-2.585a.725.725,0,0,0-.517-.2.759.759,0,0,0-.64.3,1.4,1.4,0,0,0-.227.86v.1a1.369,1.369,0,0,0,.226.844A.762.762,0,0,0,11.484-.384ZM13.863-3.17l.015.352a1.171,1.171,0,0,1,.94-.41.906.906,0,0,1,.905.51,1.2,1.2,0,0,1,.412-.369,1.216,1.216,0,0,1,.6-.141q1.043,0,1.061,1.1V0h-.542V-2.092A.728.728,0,0,0,17.1-2.6a.684.684,0,0,0-.521-.168.719.719,0,0,0-.5.18.731.731,0,0,0-.231.485V0H15.3V-2.077a.6.6,0,0,0-.677-.691.725.725,0,0,0-.729.454V0h-.542V-3.17Z" transform="translate(261.327 8076.981)"/>
    <path id="Trazado_904221" data-name="Trazado 904221" d="M2.136,0H1.591V-3.612L.5-3.211V-3.7l1.553-.583h.085ZM3.791-.284a.339.339,0,0,1,.083-.234.318.318,0,0,1,.25-.094.328.328,0,0,1,.253.094.333.333,0,0,1,.086.234.315.315,0,0,1-.086.226.334.334,0,0,1-.253.091.324.324,0,0,1-.25-.091A.321.321,0,0,1,3.791-.284ZM5.552-2.139l.217-2.127H7.954v.5H6.229L6.1-2.6a1.377,1.377,0,0,1,.712-.185,1.177,1.177,0,0,1,.926.385A1.51,1.51,0,0,1,8.08-1.359,1.457,1.457,0,0,1,7.724-.321a1.3,1.3,0,0,1-.995.379,1.348,1.348,0,0,1-.923-.313A1.251,1.251,0,0,1,5.4-1.122h.513a.861.861,0,0,0,.261.552.811.811,0,0,0,.557.186.731.731,0,0,0,.593-.258,1.078,1.078,0,0,0,.215-.712.989.989,0,0,0-.233-.687.792.792,0,0,0-.62-.259.894.894,0,0,0-.557.155l-.144.117ZM11.484-.384a.781.781,0,0,0,.507-.176A.618.618,0,0,0,12.231-1h.513a.983.983,0,0,1-.187.519,1.235,1.235,0,0,1-.461.393,1.331,1.331,0,0,1-.611.146,1.306,1.306,0,0,1-1.03-.432,1.721,1.721,0,0,1-.382-1.182v-.091a1.908,1.908,0,0,1,.17-.823,1.294,1.294,0,0,1,.488-.56,1.386,1.386,0,0,1,.751-.2,1.271,1.271,0,0,1,.886.319,1.141,1.141,0,0,1,.376.829h-.513A.747.747,0,0,0,12-2.585a.725.725,0,0,0-.517-.2.759.759,0,0,0-.64.3,1.4,1.4,0,0,0-.227.86v.1a1.369,1.369,0,0,0,.226.844A.762.762,0,0,0,11.484-.384ZM13.863-3.17l.015.352a1.171,1.171,0,0,1,.94-.41.906.906,0,0,1,.905.51,1.2,1.2,0,0,1,.412-.369,1.216,1.216,0,0,1,.6-.141q1.043,0,1.061,1.1V0h-.542V-2.092A.728.728,0,0,0,17.1-2.6a.684.684,0,0,0-.521-.168.719.719,0,0,0-.5.18.731.731,0,0,0-.231.485V0H15.3V-2.077a.6.6,0,0,0-.677-.691.725.725,0,0,0-.729.454V0h-.542V-3.17Z" transform="translate(228.735 8100.725)"/>
    <path id="Trazado_901135" data-name="Trazado 901135" d="M388.33,69.566a.8.8,0,0,1,.227.033L508.211,105.11a.8.8,0,0,1,.568.833c-1.919,22.517-3.169,43.593-3.715,62.643-.5,17.329-.421,33.371.223,47.683,1.086,24.123,3.789,43.835,8.033,58.588A85.291,85.291,0,0,0,519,289.811a37.881,37.881,0,0,0,5.351,8.108,16.219,16.219,0,0,0,3.95,3.335,5.794,5.794,0,0,0,1.529.653.781.781,0,0,1,.665.787V755.847a.8.8,0,0,1-.8.8H107a.8.8,0,0,1-.8-.8V303.163a.8.8,0,0,1,.294-.619c9.685-7.9,16.77-23.1,21.058-45.187,3.449-17.769,5.095-39.979,4.891-66.012-.08-10.235-.45-21.091-1.1-32.268-.519-8.943-1.218-18.109-2.075-27.244-1.46-15.551-2.9-25.745-2.91-25.846a.8.8,0,0,1,.564-.878L247.206,69.6a.8.8,0,0,1,1.019.672,139.772,139.772,0,0,0,4.169,21.559,93.313,93.313,0,0,0,6.293,16.472,59.643,59.643,0,0,0,16.157,20.435,45.358,45.358,0,0,0,27.489,9.947c1.187,0,1.867-.07,1.874-.07a.8.8,0,0,1,.882.794V241.288h25.27V139.147a.8.8,0,0,1,.844-.8c1.127.065,2.255.1,3.352.1a50.681,50.681,0,0,0,8.88-.761,43.7,43.7,0,0,0,7.811-2.147,41.607,41.607,0,0,0,6.823-3.333,43.494,43.494,0,0,0,5.912-4.326c6.483-5.631,11.824-13.5,15.875-23.378a99.809,99.809,0,0,0,4.153-12.545c.928-3.547,1.706-7.233,2.312-10.958a98.281,98.281,0,0,0,1.21-10.666.8.8,0,0,1,.8-.767Zm-86,70.715a39.5,39.5,0,0,1-4.755-.3,46.147,46.147,0,0,1-6.8-1.361,48.317,48.317,0,0,1-16.922-8.625,54.987,54.987,0,0,1-8.7-8.614,68.469,68.469,0,0,1-7.9-12.359,94.911,94.911,0,0,1-6.4-16.755,140.237,140.237,0,0,1-4.1-20.867L128.039,106.447c.343,2.535,1.575,11.936,2.825,25.238.86,9.154,1.559,18.339,2.08,27.3.651,11.2,1.021,22.087,1.1,32.348.2,26.139-1.451,48.455-4.921,66.328-1,5.176-2.178,10.045-3.486,14.47a102.257,102.257,0,0,1-4.662,12.79,64.142,64.142,0,0,1-5.989,10.694,41.221,41.221,0,0,1-7.185,7.924V755.049H528.9V303.292a8.7,8.7,0,0,1-1.18-.536,17.084,17.084,0,0,1-4.284-3.473,37.973,37.973,0,0,1-5.6-8.246,84.271,84.271,0,0,1-5.853-15.063c-4.348-14.8-7.126-34.62-8.257-58.912-.67-14.405-.761-30.568-.271-48.038.534-19.028,1.772-40.076,3.679-62.569L389.068,71.416c-.113,1.658-.418,5.221-1.17,9.839-.614,3.774-1.4,7.511-2.343,11.106a101.424,101.424,0,0,1-4.22,12.747c-4.146,10.115-9.632,18.182-16.306,23.978a45.1,45.1,0,0,1-6.13,4.486,43.208,43.208,0,0,1-7.085,3.461,45.315,45.315,0,0,1-8.1,2.226,52.283,52.283,0,0,1-9.161.786c-.853,0-1.725-.019-2.6-.058v102.1a.8.8,0,0,1-.8.8H304.291a.8.8,0,0,1-.8-.8V140.258C303.182,140.271,302.793,140.281,302.334,140.281Z" transform="translate(164.926 7821.621)"/>
    <path id="Trazado_901136" data-name="Trazado 901136" d="M290.126,61.068l.262.754.8-.016c0,.007.015.692.109,1.89l-1.592.124c-.026-.339-.047-.637-.063-.893l-1.594.554-.525-1.508,1.833-.637.24.691c0-.117-.006-.181-.006-.189l.757-.015-.258-.742Zm120.193.645,1.83.645-.531,1.506-1.14-.4c-.013.35-.032.775-.062,1.269l-1.594-.1c.053-.87.072-1.516.079-1.905l1.053.019Zm-123.53.515.524,1.508-1.833.637-.525-1.508Zm126.092.388,1.83.645-.531,1.506-1.83-.645Zm-128.659.5.524,1.508-1.833.637-.524-1.508Zm131.221.4,1.83.645-.531,1.506-1.83-.645Zm-133.787.494.524,1.508-1.833.637-.524-1.508Zm136.35.409,1.83.645-.531,1.506-1.83-.645Zm-126.647.036c.056.619.124,1.261.2,1.909l-1.586.188c-.079-.662-.148-1.319-.205-1.953Zm-12.269.447.525,1.508-1.833.637-.524-1.508Zm141.478.42,1.83.645-.531,1.506-1.83-.645Zm-11.8.075,1.592.117c-.047.637-.1,1.295-.173,1.956L408.6,67.31C408.668,66.665,408.725,66.022,408.771,65.4Zm-132.246.4.525,1.508-1.833.637-.524-1.508Zm146.607.431,1.83.645-.531,1.506-1.83-.645Zm-149.173.462.525,1.508-1.833.637-.524-1.508Zm17.7.44c.081.626.171,1.266.269,1.9l-1.578.243c-.1-.648-.192-1.3-.275-1.94Zm134.039,0,1.83.645-.531,1.506-1.83-.645Zm-154.3.451.524,1.508-1.833.637-.525-1.508Zm156.864.452,1.83.645-.531,1.506-1.83-.645Zm-19.737.04,1.587.18c-.073.642-.155,1.3-.246,1.944l-1.581-.221C408.368,69.344,408.449,68.7,408.52,68.075Zm-139.694.4.524,1.508-1.833.637-.525-1.508Zm161.993.463,1.83.645-.531,1.506-1.83-.645Zm-164.559.429.524,1.508-1.833.637L264.427,70Zm25.785.425c.1.627.215,1.264.332,1.892l-1.569.295c-.12-.64-.234-1.289-.339-1.929Zm141.336.049,1.83.645-.531,1.506-1.83-.645Zm-169.687.419.524,1.508-1.833.637-.525-1.508Zm144.475.481,1.579.236c-.1.642-.2,1.292-.314,1.934l-1.573-.276C407.971,72.007,408.075,71.369,408.169,70.741Zm27.775,0,1.83.645-.531,1.506-1.83-.645Zm-174.816.408.524,1.508-1.833.637-.524-1.508Zm177.378.5,1.83.645-.531,1.506-1.83-.645Zm-179.945.4.524,1.508-1.833.637-.524-1.508Zm33.961.394c.124.626.256,1.259.394,1.881l-1.559.345c-.141-.635-.276-1.28-.4-1.918Zm148.546.112,1.83.645-.531,1.506-1.83-.645ZM256,72.937l.524,1.508-1.833.637-.524-1.508Zm151.729.454,1.57.291c-.119.64-.247,1.287-.382,1.923l-1.562-.33C407.483,74.652,407.608,74.018,407.725,73.391Zm35.906.062,1.83.645L444.93,75.6l-1.83-.645Zm-190.2.376.524,1.508-1.833.637-.524-1.508Zm192.764.527,1.83.645-.531,1.506-1.83-.645Zm-195.33.365.524,1.508-1.833.637-.524-1.508Zm42.223.348c.144.623.3,1.251.455,1.868l-1.547.4c-.161-.629-.317-1.269-.464-1.9Zm155.67.19,1.83.645-.531,1.506-1.83-.645ZM248.3,75.614l.524,1.508-1.833.637-.524-1.508Zm158.892.412,1.559.346c-.141.637-.292,1.279-.449,1.909l-1.55-.385C406.9,77.279,407.05,76.65,407.188,76.026Zm44.13.137,1.83.645-.531,1.506-1.83-.645Zm-205.587.344.524,1.508-1.833.637-.524-1.508Zm208.15.56,1.83.645-.531,1.506-1.83-.645ZM243.165,77.4l.524,1.508-1.833.637-.524-1.508Zm50.571.283c.164.618.338,1.241.516,1.851l-1.533.447c-.182-.622-.359-1.257-.526-1.888Zm162.708.287,1.83.645-.531,1.506-1.83-.645ZM240.6,78.291l.524,1.508-1.833.637-.524-1.508Zm165.962.35,1.546.4c-.164.632-.338,1.269-.517,1.893l-1.535-.44C406.23,79.883,406.4,79.26,406.56,78.641Zm52.445.231,1.83.645-.531,1.506-1.83-.645Zm-220.973.311.524,1.508-1.833.637-.524-1.508Zm223.536.592,1.83.645-.531,1.506-1.83-.645Zm-226.1.3.524,1.508-1.833.637-.524-1.508Zm59,.194c.185.613.38,1.229.579,1.831l-1.517.5c-.2-.615-.4-1.244-.591-1.869Zm169.66.409,1.83.645-.531,1.506-1.83-.645Zm-231.23.29.524,1.508-1.833.637-.524-1.508Zm172.939.262,1.53.456c-.187.626-.384,1.256-.585,1.872l-1.518-.5C405.463,82.459,405.656,81.843,405.839,81.231Zm60.854.351,1.83.645-.531,1.506-1.83-.645Zm-236.359.279.524,1.508-1.833.637L228.5,82.5Zm238.921.624,1.83.645-.531,1.506-1.83-.645Zm-241.488.268.524,1.508-1.833.637-.524-1.508Zm67.526.076c.206.606.423,1.214.642,1.809l-1.5.554c-.225-.607-.445-1.229-.656-1.848Zm176.524.558,1.83.645-.531,1.506-1.83-.645ZM225.2,83.645l.524,1.508-1.833.637-.524-1.508Zm179.822.145,1.512.514c-.21.619-.431,1.242-.657,1.85l-1.5-.555C404.6,85,404.817,84.4,405.023,83.79Zm69.357.5,1.83.645-.531,1.506-1.83-.645Zm-251.745.247.525,1.508-1.833.637-.524-1.508Zm254.307.656,1.83.645-.531,1.506-1.83-.645Zm-180.737.164c.228.6.466,1.2.708,1.784l-1.476.609c-.247-.6-.491-1.212-.724-1.824Zm-76.137.073.525,1.508-1.833.637-.524-1.508ZM479.5,86.1l1.83.645-.531,1.506-1.83-.645Zm-75.395.219,1.491.572c-.235.611-.48,1.225-.73,1.824L403.4,88.1C403.641,87.512,403.881,86.913,404.11,86.316ZM217.5,86.322l.524,1.508-1.833.637-.524-1.508ZM482.067,87l1.83.645-.531,1.506-1.83-.645Zm-267.131.215.525,1.508-1.833.637-.524-1.508Zm82.274.635c.251.589.511,1.179.775,1.755l-1.451.666c-.27-.589-.537-1.193-.793-1.8ZM484.63,87.9l1.83.645-.531,1.506-1.83-.645Zm-272.259.2.524,1.508-1.833.637-.524-1.508Zm190.727.7,1.466.632c-.259.6-.53,1.2-.8,1.792l-1.447-.676C402.581,89.978,402.845,89.389,403.1,88.8Zm84.094,0,1.83.645-.531,1.506-1.83-.645ZM209.8,89l.524,1.508-1.833.637-.525-1.508Zm279.95.71,1.83.645-.531,1.506-1.83-.645Zm-282.516.183.524,1.508-1.833.637-.525-1.508Zm91.071.408c.273.578.557,1.158.844,1.722l-1.423.724c-.294-.578-.585-1.171-.865-1.763Zm194.007.312,1.83.645-.531,1.506-1.83-.645Zm-287.645.172.524,1.508-1.833.637-.524-1.508Zm197.312.459,1.438.694c-.285.59-.581,1.181-.881,1.756l-1.416-.739C401.417,92.394,401.706,91.819,401.984,91.243Zm92.9.272,1.83.645-.531,1.506-1.83-.645Zm-292.773.161.524,1.508-1.833.637-.524-1.508Zm295.336.742,1.83.645-.531,1.506-1.83-.645Zm-297.9.15.524,1.508-1.833.637-.524-1.508Zm99.966.134c.3.566.6,1.133.915,1.684l-1.391.784c-.318-.565-.634-1.146-.938-1.727Zm200.5.619,1.83.645-.531,1.506-1.83-.645Zm-303.031.14.524,1.508-1.833.637-.524-1.508Zm203.792.171,1.406.757c-.311.577-.634,1.155-.96,1.716l-1.381-.8C400.149,94.756,400.463,94.194,400.766,93.632Zm101.8.593,1.83.645-.531,1.506-1.83-.645Zm-308.159.129.524,1.508L193.1,96.5l-.525-1.508Zm106.393.7c.32.553.653,1.1.987,1.641l-1.355.845c-.343-.551-.684-1.118-1.013-1.685Zm204.328.076,1.83.645-.531,1.506-1.83-.645Zm-313.288.118.524,1.508-1.833.637-.524-1.508Zm207.6.716,1.37.821c-.337.563-.687,1.124-1.04,1.67l-1.341-.867C398.774,97.055,399.114,96.509,399.442,95.962Zm108.249.069,1.83.645-.531,1.506-1.83-.645Zm-318.416.107.524,1.508-1.833.637-.524-1.508Zm320.979.8,1.83.645-.531,1.506-1.83-.645Zm-323.545.1.524,1.508-1.833.637-.524-1.508Zm115.488.31c.345.537.7,1.073,1.06,1.594l-1.314.907c-.369-.535-.735-1.086-1.09-1.638Zm210.619.5,1.83.645-.531,1.506-1.83-.645Zm-328.673.086.524,1.508-1.833.637-.524-1.508Zm213.868.3,1.329.886c-.364.546-.741,1.09-1.121,1.618l-1.3-.932C397.291,99.285,397.657,98.756,398.011,98.226Zm117.368.514,1.83.645-.531,1.506-1.83-.645Zm-333.8.075.524,1.508-1.6.558q.1.57.28,1.557l-1.572.278c-.158-.891-.274-1.527-.344-1.9l1.274-.237-.391-1.123Zm122.119.745c.369.52.751,1.038,1.134,1.54l-1.269.969c-.394-.517-.787-1.05-1.167-1.585Zm214.246.082,1.83.645-.361,1.025,1.408.246c-.112.639-.224,1.285-.333,1.921l-1.574-.271c.082-.478.166-.962.25-1.444l-1.75-.617Zm-121.47.772,1.283.951c-.391.527-.795,1.052-1.2,1.561l-1.247-1C395.7,101.437,396.092,100.927,396.471,100.416ZM305.3,101.706c.394.5.8,1,1.208,1.482l-1.219,1.031c-.42-.5-.839-1.01-1.244-1.526Zm89.526.817,1.232,1.016c-.417.506-.848,1.01-1.282,1.5l-1.193-1.061C394,103.5,394.419,103.014,394.824,102.523Zm-213.912.681c.108.617.219,1.262.33,1.917l-1.574.267c-.111-.653-.221-1.3-.328-1.91ZM307,103.769c.418.48.849.957,1.281,1.417l-1.164,1.093c-.446-.475-.89-.967-1.321-1.461Zm211.775.208,1.574.269c-.108.632-.217,1.273-.323,1.9l-1.575-.265C518.561,105.252,518.67,104.61,518.779,103.976Zm-125.71.565,1.177,1.079c-.443.483-.9.963-1.36,1.427l-1.134-1.124C392.2,105.474,392.64,105.009,393.069,104.541Zm-84.256,1.2c.442.457.9.91,1.354,1.347l-1.1,1.153c-.471-.451-.941-.919-1.4-1.39Zm-127.442.15c.105.629.213,1.277.319,1.925l-1.576.257c-.106-.647-.212-1.292-.318-1.919Zm209.838.572,1.117,1.141c-.468.458-.952.913-1.436,1.351l-1.071-1.184C390.288,107.346,390.756,106.906,391.209,106.462Zm127.117.185,1.575.264c-.107.639-.214,1.286-.319,1.923l-1.576-.26C518.112,107.936,518.219,107.288,518.327,106.647Zm-207.6.964c.465.432.944.86,1.424,1.272l-1.041,1.211c-.5-.425-.99-.867-1.47-1.313Zm78.526.667,1.052,1.2c-.493.431-1,.859-1.509,1.27l-1-1.242C388.28,109.109,388.771,108.7,389.248,108.278Zm-207.434.3c.1.632.206,1.279.307,1.923l-1.577.249c-.1-.642-.2-1.287-.306-1.917Zm336.067.765,1.576.258c-.1.633-.208,1.273-.309,1.9l-1.576-.254C517.673,110.617,517.777,109.975,517.881,109.341Zm-205.151.035c.487.406.989.807,1.491,1.192l-.972,1.267c-.519-.4-1.037-.812-1.54-1.231Zm74.461.606.984,1.257c-.515.4-1.045.8-1.576,1.184l-.934-1.3C386.178,110.758,386.692,110.373,387.19,109.982Zm-72.36,1.047c.508.378,1.031.75,1.554,1.108l-.9,1.318c-.54-.369-1.08-.754-1.605-1.144Zm-132.589.235c.1.636.2,1.285.3,1.929l-1.578.241c-.1-.642-.2-1.289-.3-1.923Zm202.8.306.913,1.31c-.536.374-1.088.742-1.64,1.1l-.861-1.345C383.988,112.289,384.522,111.933,385.041,111.571Zm132.407.447,1.577.252c-.1.64-.2,1.287-.3,1.923l-1.578-.248C517.243,113.307,517.345,112.658,517.448,112.017Zm-200.43.545c.528.349,1.071.692,1.613,1.021l-.827,1.366c-.56-.339-1.121-.694-1.666-1.054Zm65.789.475.84,1.358c-.555.343-1.126.681-1.7,1l-.787-1.39C381.717,113.7,382.269,113.37,382.807,113.038Zm-200.152.914c.1.635.193,1.282.288,1.923l-1.58.234c-.095-.639-.191-1.284-.287-1.918Zm136.634.022c.546.319,1.106.632,1.666.93l-.751,1.409c-.578-.308-1.157-.631-1.72-.96Zm61.207.407.765,1.4c-.573.313-1.161.619-1.748.912l-.711-1.429C379.371,114.982,379.941,114.685,380.5,114.382Zm136.526.33,1.578.246c-.1.633-.2,1.273-.294,1.9l-1.578-.241C516.825,115.988,516.924,115.347,517.022,114.712Zm-195.391.546c.562.289,1.14.571,1.716.84l-.674,1.447c-.595-.277-1.19-.569-1.771-.867Zm56.484.342.69,1.44c-.587.281-1.19.557-1.792.818l-.637-1.464C376.961,116.14,377.546,115.873,378.116,115.6Zm-54.073.816c.576.258,1.168.51,1.757.748l-.6,1.481c-.608-.246-1.218-.5-1.812-.771Zm-140.987.232c.093.635.187,1.282.278,1.921l-1.581.226c-.091-.638-.185-1.282-.278-1.916Zm192.616.046.615,1.473c-.6.25-1.215.494-1.828.726L373.9,117.4C374.493,117.175,375.09,116.938,375.672,116.695Zm140.937.7,1.579.24c-.1.639-.194,1.286-.289,1.923l-1.579-.235C516.415,118.684,516.512,118.036,516.61,117.395Zm-190.1.05c.589.228,1.193.449,1.795.657l-.522,1.509c-.62-.215-1.242-.442-1.849-.677Zm46.666.219.542,1.5c-.611.22-1.238.434-1.863.636l-.49-1.52C371.975,118.086,372.584,117.878,373.178,117.664Zm-44.147.683c.6.2,1.215.389,1.828.568l-.448,1.533c-.63-.184-1.263-.381-1.881-.585Zm41.607.165.47,1.526c-.621.191-1.257.376-1.89.548l-.42-1.541C369.415,118.878,370.034,118.7,370.638,118.512Zm-39.044.613c.609.169,1.232.331,1.853.481l-.376,1.552c-.638-.154-1.279-.321-1.9-.494Zm36.465.118.4,1.546c-.628.163-1.271.318-1.911.463l-.352-1.557C366.82,119.553,367.447,119.4,368.059,119.243Zm-184.615.1c.09.637.181,1.285.27,1.925l-1.582.219c-.089-.638-.179-1.284-.269-1.92Zm150.749.443c.616.141,1.246.274,1.873.4l-.306,1.567c-.644-.126-1.291-.263-1.923-.407Zm31.255.078.334,1.562c-.633.135-1.282.264-1.927.382l-.288-1.571C364.2,120.116,364.83,119.991,365.448,119.859Zm150.758.231,1.58.233c-.094.635-.188,1.278-.279,1.91l-1.58-.229C516.018,121.371,516.112,120.726,516.206,120.089Zm-179.386.231c.621.113,1.257.22,1.889.316l-.24,1.579c-.648-.1-1.3-.207-1.937-.324Zm25.992.045.27,1.574c-.638.109-1.29.212-1.939.3l-.226-1.581C361.551,120.572,362.189,120.472,362.812,120.365Zm-23.343.381c.626.088,1.266.168,1.9.238l-.176,1.587c-.651-.072-1.306-.154-1.947-.244Zm20.687.021.209,1.583c-.641.085-1.3.162-1.95.231l-.167-1.588C358.887,120.926,359.529,120.85,360.157,120.767Zm-18.022.3c.629.063,1.272.118,1.912.165l-.116,1.593c-.654-.048-1.311-.1-1.955-.169Zm15.352,0,.151,1.59c-.644.061-1.3.115-1.955.161l-.112-1.593C356.211,121.183,356.856,121.13,357.487,121.07Zm-2.681.208.1,1.594c-.644.039-1.3.071-1.957.1l-.059-1.6C353.527,121.348,354.173,121.316,354.805,121.278Zm-9.993,0c.632.039,1.278.071,1.92.1l-.059,1.6c-.655-.024-1.315-.057-1.961-.1Zm7.3.115.045,1.6c-.415.012-.838.021-1.258.027l-.7.007-.009-1.6.689-.007C351.293,121.417,351.708,121.409,352.116,121.4Zm-4.618,0c.633.017,1.28.027,1.922.029l-.005,1.6c-.655,0-1.315-.012-1.961-.03Zm-163.678.634c.088.638.176,1.286.261,1.925l-1.583.212c-.086-.638-.173-1.284-.261-1.92Zm331.994.744,1.581.227c-.092.639-.184,1.285-.273,1.921l-1.581-.222C515.631,124.068,515.723,123.42,515.815,122.779Zm-331.63,1.949c.085.639.17,1.287.253,1.927l-1.584.205c-.083-.638-.167-1.285-.252-1.922Zm331.25.744,1.581.22c-.089.638-.178,1.284-.264,1.919l-1.582-.215C515.256,126.759,515.345,126.112,515.434,125.472Zm-330.9,1.959c.082.639.164,1.287.244,1.926l-1.584.2c-.08-.637-.162-1.284-.243-1.921Zm330.527.74,1.582.213c-.086.638-.172,1.284-.256,1.919l-1.583-.208C514.891,129.457,514.978,128.81,515.064,128.17Zm-330.187,1.958c.079.641.159,1.29.236,1.931l-1.585.191c-.077-.639-.156-1.287-.235-1.926Zm329.83.731,1.583.207c-.084.642-.167,1.291-.248,1.929l-1.584-.2C514.54,132.153,514.623,131.5,514.707,130.859Zm-329.5,1.968c.076.641.153,1.291.227,1.931l-1.586.184c-.074-.639-.15-1.287-.227-1.926Zm329.156.74,1.584.2c-.08.637-.16,1.281-.238,1.915l-1.585-.194C514.2,134.851,514.28,134.205,514.36,133.566Zm-328.839,1.963c.074.641.147,1.291.218,1.931l-1.587.177c-.071-.638-.144-1.286-.218-1.925Zm328.507.728,1.585.192c-.078.643-.156,1.294-.231,1.933L513.8,138.2C513.872,137.554,513.95,136.9,514.028,136.257Zm-328.2,1.978c.071.641.141,1.291.21,1.93l-1.588.17c-.068-.638-.139-1.286-.209-1.925Zm327.881.732,1.586.185c-.074.638-.148,1.283-.22,1.918l-1.587-.179C513.558,140.253,513.632,139.606,513.706,138.967Zm-327.589,1.976c.068.641.135,1.29.2,1.93l-1.589.162c-.065-.638-.133-1.285-.2-1.924Zm327.281.725,1.587.177c-.072.641-.143,1.29-.211,1.927l-1.588-.171C513.255,142.962,513.327,142.311,513.4,141.668Zm-327,1.98c.065.642.129,1.293.192,1.933l-1.589.155c-.062-.639-.127-1.287-.191-1.928Zm326.707.722,1.588.169c-.068.642-.136,1.292-.2,1.931l-1.588-.163C512.967,145.666,513.035,145.014,513.1,144.37Zm-326.44,1.984c.062.644.124,1.3.183,1.937l-1.59.148c-.059-.64-.121-1.29-.183-1.932Zm326.158.728,1.589.161c-.065.639-.129,1.285-.191,1.92l-1.589-.155C512.693,148.371,512.757,147.723,512.822,147.082Zm-325.9,1.98c.059.644.117,1.3.174,1.938l-1.591.14c-.056-.64-.115-1.29-.173-1.933Zm325.638.719,1.589.153c-.062.645-.123,1.3-.182,1.937l-1.59-.147C512.432,151.082,512.493,150.428,512.555,149.782Zm-325.4,1.991c.056.645.111,1.3.164,1.939l-1.591.132c-.053-.64-.108-1.29-.164-1.933ZM512.3,152.5l1.59.144c-.058.641-.116,1.289-.171,1.927l-1.591-.138C512.186,153.79,512.243,153.14,512.3,152.5Zm-324.915,1.987c.053.645.1,1.3.155,1.939l-1.592.124c-.05-.64-.1-1.29-.154-1.933Zm324.676.725,1.591.136c-.055.641-.109,1.29-.16,1.927l-1.591-.129C511.954,156.5,512.008,155.852,512.063,155.209ZM187.6,157.2c.049.645.1,1.3.145,1.94l-1.593.116c-.047-.64-.1-1.29-.144-1.934Zm324.239.714,1.592.127c-.051.647-.1,1.3-.151,1.943l-1.592-.12C511.738,159.215,511.789,158.559,511.84,157.91Zm-324.038,2c.046.645.091,1.3.135,1.94l-1.593.108c-.043-.64-.088-1.291-.134-1.934Zm323.83.724,1.592.117c-.047.641-.094,1.29-.138,1.927l-1.593-.111C511.538,161.928,511.584,161.278,511.632,160.634Zm-323.643,1.991c.043.646.085,1.3.124,1.941l-1.594.1c-.04-.64-.082-1.291-.124-1.935Zm323.451.724,1.593.108c-.044.642-.086,1.292-.127,1.93l-1.594-.1C511.353,164.645,511.4,163.993,511.44,163.349Zm-323.279,1.992c.039.646.078,1.3.114,1.941l-1.594.09c-.036-.64-.074-1.291-.114-1.935Zm323.1.714,1.594.1c-.04.647-.079,1.3-.115,1.945l-1.594-.091C511.186,167.361,511.225,166.7,511.265,166.055Zm-322.947,2c.036.646.07,1.3.1,1.942l-1.595.081c-.033-.64-.067-1.291-.1-1.935Zm322.787.724,1.594.088c-.036.643-.07,1.292-.1,1.931L511,170.72C511.035,170.079,511.07,169.427,511.105,168.782ZM188.46,170.776c.032.647.063,1.3.092,1.943l-1.6.072c-.029-.64-.06-1.291-.092-1.936Zm322.5.725,1.595.078c-.031.642-.061,1.291-.089,1.928l-1.6-.07C510.9,172.8,510.932,172.146,510.964,171.5ZM188.586,173.5c.028.647.055,1.3.08,1.943l-1.6.063c-.025-.64-.052-1.292-.08-1.936Zm322.254.718,1.6.067c-.027.647-.053,1.3-.077,1.942l-1.6-.059C510.787,175.519,510.813,174.863,510.84,174.214Zm-322.144,2c.024.647.047,1.3.068,1.944l-1.6.053c-.021-.64-.044-1.292-.068-1.937Zm322.039.722,1.6.056c-.023.646-.044,1.3-.063,1.938l-1.6-.048C510.691,178.24,510.712,177.585,510.735,176.937Zm-321.946,2c.02.647.039,1.3.056,1.944l-1.6.043c-.017-.64-.036-1.292-.056-1.937Zm321.859.727,1.6.045c-.018.642-.035,1.291-.049,1.928l-1.6-.036C510.614,180.959,510.631,180.307,510.649,179.662Zm-321.783,1.994c.016.648.031,1.3.044,1.944l-1.6.032c-.013-.64-.027-1.292-.043-1.937Zm321.717.726,1.6.033c-.013.644-.025,1.294-.035,1.933l-1.6-.024C510.558,183.682,510.569,183.029,510.583,182.382Zm-321.659,2c.012.648.022,1.3.03,1.945l-1.6.021c-.008-.64-.019-1.292-.03-1.937Zm321.613.72,1.6.021c-.008.647-.015,1.3-.02,1.944l-1.6-.012C510.522,186.406,510.528,185.749,510.537,185.1Zm-321.573,2c.007.648.013,1.3.017,1.945l-1.6.01c0-.64-.01-1.292-.017-1.937Zm321.548.724,1.6.008c0,.646,0,1.3,0,1.94h-1.6C510.507,189.13,510.508,188.474,510.512,187.825Zm-321.527,2c0,.648,0,1.3,0,1.945l-1.6,0c0-.64,0-1.291,0-1.937Zm323.12.724c0,.644.006,1.294.011,1.932l-1.6.014c-.006-.642-.009-1.295-.011-1.942Zm-324.716,1.994,1.6.005c0,.648-.006,1.3-.012,1.945l-1.6-.014C187.383,193.838,187.387,193.187,187.389,192.541Zm324.735.717c.007.642.017,1.29.028,1.926l-1.6.028c-.011-.639-.02-1.291-.028-1.936ZM187.37,195.252l1.6.018c-.007.648-.016,1.3-.027,1.945l-1.6-.027C187.354,196.549,187.363,195.9,187.37,195.252Zm324.8.713c.013.644.028,1.294.045,1.933l-1.6.042c-.017-.642-.032-1.3-.045-1.943Zm-324.837,2,1.6.03c-.012.648-.027,1.3-.043,1.945l-1.6-.04C187.3,199.259,187.317,198.608,187.329,197.963Zm324.9.707c.019.646.04,1.3.063,1.939l-1.6.057c-.023-.644-.044-1.3-.063-1.95Zm-324.966,2,1.6.044c-.018.648-.038,1.3-.059,1.944l-1.6-.054C187.229,201.968,187.249,201.318,187.267,200.672Zm325.057.7c.025.647.052,1.3.081,1.941l-1.6.072c-.029-.644-.057-1.3-.082-1.952Zm-325.143,2,1.6.058c-.023.649-.049,1.3-.076,1.944l-1.6-.068C187.132,204.677,187.158,204.026,187.181,203.381Zm325.26.706c.031.645.065,1.3.1,1.936l-1.594.088c-.036-.643-.069-1.3-.1-1.947Zm-325.37,2,1.6.072c-.029.648-.061,1.3-.094,1.944l-1.595-.083C187.01,207.384,187.042,206.734,187.071,206.089Zm325.514.705c.038.644.078,1.294.12,1.932l-1.593.1c-.042-.642-.083-1.3-.121-1.944Zm-325.649,2,1.594.087c-.035.648-.074,1.3-.113,1.943l-1.594-.1C186.863,210.089,186.9,209.439,186.936,208.795Zm325.821.7c.044.643.092,1.292.14,1.928l-1.592.122c-.049-.64-.1-1.293-.141-1.94Zm-325.982,2,1.593.1c-.042.648-.087,1.3-.133,1.943l-1.593-.115C186.689,212.793,186.733,212.143,186.775,211.5Zm326.183.7c.051.642.106,1.29.162,1.925l-1.591.14c-.056-.639-.111-1.291-.163-1.938Zm-326.372,2,1.592.12c-.049.648-.1,1.3-.154,1.942l-1.591-.132C186.486,215.494,186.537,214.845,186.586,214.2Zm326.6.7c.059.641.121,1.288.184,1.922l-1.589.159c-.064-.639-.126-1.29-.185-1.936Zm-326.821,2,1.591.137c-.056.648-.115,1.3-.175,1.94l-1.59-.15C186.254,218.192,186.312,217.543,186.368,216.9Zm327.084.691c.066.641.136,1.286.208,1.92l-1.587.179c-.072-.638-.142-1.288-.209-1.934ZM186.12,219.6l1.589.156c-.064.648-.13,1.3-.2,1.939l-1.588-.17C185.99,220.887,186.057,220.239,186.12,219.6Zm327.628.685c.074.64.152,1.285.232,1.917l-1.584.2c-.08-.637-.159-1.287-.234-1.932Zm-327.909,2.007,1.587.175c-.071.647-.146,1.3-.223,1.936l-1.585-.19C185.694,223.578,185.768,222.931,185.839,222.289Zm328.239.679c.083.639.17,1.283.258,1.914l-1.582.221c-.089-.636-.176-1.285-.26-1.93Zm-328.553,2.01,1.585.2c-.08.646-.163,1.3-.248,1.934l-1.583-.211C185.363,226.264,185.446,225.618,185.525,224.977Zm328.919.671c.092.638.187,1.282.284,1.911l-1.578.243c-.1-.635-.195-1.284-.287-1.928Zm-329.269,2.013,1.582.217c-.089.646-.181,1.295-.275,1.93l-1.58-.234C185,228.945,185.087,228.3,185.175,227.661Zm329.673.661c.1.637.206,1.279.313,1.908l-1.574.267c-.108-.634-.214-1.282-.316-1.925Zm-330.06,2.017,1.579.24c-.1.644-.2,1.292-.3,1.926l-1.576-.258C184.589,231.619,184.69,230.977,184.788,230.338Zm330.5.649c.111.636.226,1.277.342,1.9l-1.57.292c-.118-.633-.234-1.279-.346-1.922ZM184.36,233.009l1.575.265c-.108.643-.221,1.289-.335,1.921l-1.571-.283C184.141,234.286,184.253,233.646,184.36,233.009Zm331.416.635c.121.634.246,1.272.373,1.9l-1.565.318c-.128-.631-.255-1.275-.377-1.915Zm-331.886,2.027,1.57.291c-.119.641-.242,1.285-.367,1.914l-1.566-.311C183.649,236.944,183.772,236.307,183.889,235.672ZM516.3,236.3c.131.631.267,1.265.4,1.885l-1.559.345c-.139-.627-.276-1.268-.409-1.9Zm-332.931,2.025,1.565.319c-.13.639-.265,1.28-.4,1.907l-1.56-.34C183.111,239.592,183.245,238.958,183.374,238.326Zm333.506.617c.143.629.29,1.261.439,1.879l-1.552.374c-.151-.625-.3-1.264-.444-1.9Zm-334.07,2.025,1.558.348c-.142.637-.29,1.276-.439,1.9l-1.553-.371C182.523,242.23,182.669,241.6,182.809,240.969Zm334.692.6c.155.626.315,1.255.476,1.87l-1.544.4c-.163-.622-.325-1.259-.481-1.892ZM182.194,243.6l1.551.38c-.156.635-.317,1.271-.479,1.892l-1.545-.4C181.881,244.854,182.04,244.225,182.194,243.6Zm335.98.585c.167.623.34,1.248.514,1.859l-1.536.437c-.176-.618-.351-1.252-.52-1.882Zm-336.651,2.03,1.542.414c-.17.632-.345,1.265-.522,1.882l-1.535-.44C181.182,247.461,181.356,246.837,181.523,246.214Zm337.379.574c.18.619.367,1.24.554,1.846l-1.526.471c-.19-.614-.379-1.244-.561-1.871Zm-338.109,2.024,1.532.45c-.185.628-.376,1.258-.568,1.871l-1.523-.478C180.423,250.05,180.611,249.43,180.793,248.811Zm338.891.552c.194.615.4,1.232.6,1.834l-1.514.508c-.2-.61-.409-1.236-.606-1.86ZM180,251.387l1.52.49c-.2.624-.409,1.249-.618,1.857l-1.51-.52C179.6,252.616,179.8,252,180,251.387Zm340.53.544c.209.609.425,1.22.642,1.815l-1.5.546c-.22-.6-.439-1.224-.651-1.843Zm-341.391,2.007,1.506.532c-.219.619-.445,1.239-.673,1.841l-1.494-.564C178.7,255.155,178.924,254.547,179.139,253.938Zm342.3.528c.225.6.458,1.21.691,1.8l-1.485.587c-.237-.6-.473-1.214-.7-1.829Zm-343.234,2,1.489.578c-.238.612-.483,1.224-.73,1.818l-1.475-.612C177.73,257.664,177.971,257.064,178.2,256.464Zm344.21.514c.242.6.491,1.193.741,1.773l-1.467.631c-.254-.591-.508-1.2-.754-1.8Zm-345.225,1.979,1.469.627c-.258.6-.525,1.208-.792,1.792l-1.452-.664C176.675,260.14,176.936,259.549,177.189,258.957Zm346.275.5c.259.588.526,1.175.794,1.745l-1.446.678c-.273-.581-.545-1.18-.81-1.779Zm-347.374,1.951,1.445.68c-.28.6-.57,1.189-.861,1.764l-1.425-.721C175.532,262.573,175.815,261.993,176.089,261.411Zm348.5.493c.279.579.565,1.156.852,1.716l-1.421.729c-.293-.572-.586-1.161-.87-1.752ZM174.9,263.816l1.416.737c-.3.585-.619,1.167-.934,1.73l-1.393-.781C174.295,264.953,174.6,264.386,174.9,263.816Zm350.9.489c.3.568.607,1.134.914,1.681l-1.392.783c-.315-.56-.63-1.139-.936-1.72Zm-352.187,1.86,1.383.8c-.33.572-.671,1.139-1.013,1.687l-1.354-.846C172.957,267.272,173.289,266.721,173.61,266.165Zm353.483.49c.322.557.653,1.11.983,1.644l-1.358.841c-.339-.548-.679-1.115-1.009-1.686Zm-354.88,1.8,1.342.865c-.358.556-.727,1.106-1.1,1.636l-1.309-.915C171.509,269.526,171.867,268.992,172.214,268.453Zm356.268.491c.346.543.7,1.081,1.057,1.6l-1.317.9c-.365-.532-.731-1.085-1.086-1.643Zm-357.775,1.718L172,271.6c-.387.536-.787,1.067-1.188,1.576l-1.255-.987C169.946,271.694,170.332,271.181,170.707,270.663Zm359.27.509c.372.525.753,1.042,1.132,1.538l-1.267.972c-.392-.511-.786-1.045-1.169-1.587Zm-360.893,1.607,1.238,1.009c-.418.513-.85,1.019-1.282,1.5l-1.191-1.063C168.265,273.762,168.68,273.274,169.084,272.779Zm362.5.532c.4.5.809,1,1.216,1.466l-1.206,1.046c-.422-.486-.846-1-1.26-1.52Zm-364.245,1.482,1.171,1.086c-.451.486-.915.963-1.38,1.418l-1.117-1.141C166.455,275.719,166.9,275.26,167.334,274.793Zm365.965.554c.432.479.871.942,1.307,1.378l-1.129,1.129c-.455-.455-.914-.939-1.364-1.438ZM165.46,276.682l1.094,1.164c-.483.454-.981.9-1.479,1.319l-1.031-1.219C164.521,277.542,165,277.117,165.46,276.682Zm369.688.574c.468.447.94.87,1.4,1.259l-1.026,1.224c-.49-.411-.988-.857-1.481-1.328ZM163.459,278.43l1,1.241c-.515.417-1.045.822-1.576,1.205l-.934-1.295C162.46,279.215,162.967,278.828,163.459,278.43Zm373.679.562c.526.414,1.034.778,1.511,1.083l-.859,1.346c-.521-.333-1.073-.728-1.64-1.175Zm-375.8,1.026.6.876.106-.021.05.249.146.212-.09.062.153.756-1.565.317-.366-1.807.45-.3C160.99,280.251,161.163,280.135,161.333,280.018Zm377.935.426c.093.051.143.075.143.075h0l.571.266-.131.616-.348,1.7-1.564-.32.348-1.7.573.117Zm-376.814,2.469.385,1.9-1.565.317-.385-1.9Zm375.328.625,1.564.32-.389,1.9-1.564-.32Zm-374.789,2.038.385,1.9-1.565.317-.385-1.9Zm374.244.623,1.564.32-.389,1.9-1.564-.32Zm-373.705,2.04.385,1.9-1.565.317-.385-1.9Zm373.16.622,1.564.32-.389,1.9-1.564-.32ZM164.071,290.9l.385,1.9-1.565.317-.385-1.9Zm372.076.621,1.564.32-.389,1.9-1.564-.32Zm-371.537,2.042.385,1.9-1.565.317-.385-1.9Zm370.992.619,1.564.32-.389,1.9-1.564-.32Zm-370.453,2.044.385,1.9-1.565.317-.385-1.9Zm369.908.618,1.564.32-.389,1.9-1.564-.32ZM165.687,298.89l.385,1.9-1.565.317-.385-1.9Zm368.824.617,1.564.32-.389,1.9-1.564-.32Zm-368.285,2.046.385,1.9-1.565.317-.385-1.9Zm367.74.615,1.564.32-.389,1.9-1.564-.32Zm-367.2,2.047.385,1.9-1.565.317-.385-1.9Zm366.656.614,1.564.32-.389,1.9-1.564-.32ZM167.3,306.879l.385,1.9-1.565.317-.385-1.9Zm365.571.613,1.564.32-.389,1.9-1.564-.32Zm-365.033,2.05.385,1.9-1.565.317-.385-1.9Zm364.487.612,1.564.32-.389,1.9-1.564-.32ZM168.382,312.2l.385,1.9-1.565.317-.385-1.9Zm363.4.61,1.564.32-.389,1.9-1.564-.32ZM168.92,314.868l.385,1.9-1.565.317-.385-1.9Zm362.319.609,1.564.32-.389,1.9-1.564-.32Zm-361.78,2.054.385,1.9-1.565.317-.385-1.9Zm361.235.608,1.564.32-.389,1.9-1.564-.32ZM170,320.193l.385,1.9-1.565.317-.385-1.9Zm360.151.606,1.564.32-.389,1.9-1.564-.32Zm-359.612,2.056.385,1.9-1.565.317-.385-1.9Zm359.067.605,1.564.32-.389,1.9-1.564-.32Zm-358.528,2.058.385,1.9-1.565.317-.385-1.9Zm357.983.6,1.564.32-.389,1.9-1.564-.32Zm-357.444,2.059.385,1.9-1.565.317-.385-1.9Zm356.9.6,1.564.32-.389,1.9-1.564-.32Zm-356.36,2.06.385,1.9-1.565.317-.385-1.9Zm355.815.6,1.564.32-.389,1.9-1.564-.32Zm-355.276,2.062.385,1.9-1.565.317-.385-1.9Zm354.731.6,1.564.32-.389,1.9-1.564-.32Zm-354.192,2.063.385,1.9-1.565.317-.385-1.9Zm353.647.6,1.564.32-.389,1.9-1.564-.32ZM173.77,338.834l.385,1.9-1.565.317-.385-1.9Zm352.563.6,1.564.32-.389,1.9-1.564-.32ZM174.309,341.5l.385,1.9-1.565.317-.385-1.9Zm351.478.6,1.564.32-.389,1.9-1.564-.32Zm-350.94,2.067.385,1.9-1.565.317-.385-1.9Zm350.394.595,1.564.32-.389,1.9-1.564-.32Zm-349.856,2.068.385,1.9-1.565.317-.385-1.9Zm349.31.594,1.564.32-.389,1.9-1.564-.32Zm-348.771,2.069.385,1.9-1.565.317-.385-1.9Zm348.226.592,1.564.32-.389,1.9-1.564-.32Zm-347.687,2.071.385,1.9-1.565.317-.385-1.9Zm347.142.591,1.564.32-.389,1.9-1.564-.32ZM177,354.811l.385,1.9-1.565.317-.385-1.9Zm346.058.59,1.564.32-.389,1.9-1.564-.32Zm-345.519,2.073.385,1.9-1.565.317-.385-1.9Zm344.974.588,1.564.32-.389,1.9-1.564-.32Zm-344.435,2.075.385,1.9-1.565.317-.385-1.9Zm343.89.587,1.564.32-.389,1.9-1.564-.32ZM178.62,362.8l.385,1.9-1.565.317-.385-1.9Zm342.806.586,1.564.32-.389,1.9-1.564-.32Zm-342.267,2.077.385,1.9-1.565.317-.385-1.9Zm341.722.585,1.564.32-.389,1.9-1.564-.32ZM179.7,368.126l.385,1.9-1.565.317-.385-1.9Zm340.638.583,1.564.32-.389,1.9-1.564-.32Zm-340.1,2.08.385,1.9-1.565.317-.385-1.9Zm339.554.582,1.564.32-.389,1.9-1.564-.32Zm-339.015,2.081.385,1.9-1.565.317-.385-1.9Zm338.47.581,1.564.32-.389,1.9-1.564-.32Zm-337.931,2.082.385,1.9-1.565.317-.385-1.9Zm337.385.579,1.564.32-.389,1.9-1.564-.32Zm-336.847,2.084.385,1.9-1.565.317-.385-1.9Zm336.3.578,1.564.32-.389,1.9-1.564-.32Zm-335.762,2.085.385,1.9-1.565.317-.385-1.9Zm335.217.577,1.564.32-.389,1.9-1.564-.32ZM182.931,384.1l.385,1.9-1.565.317-.385-1.9Zm334.133.575,1.564.32-.389,1.9-1.564-.32ZM183.47,386.766l.385,1.9-1.565.317-.385-1.9Zm333.049.574,1.564.32-.389,1.9-1.564-.32Zm-332.51,2.089.385,1.9-1.565.317-.385-1.9ZM515.974,390l1.564.32-.389,1.9-1.564-.32Zm-331.426,2.09.385,1.9-1.565.317-.385-1.9Zm330.881.572,1.564.32-.389,1.9-1.564-.32Zm-330.342,2.091.385,1.9-1.565.317-.385-1.9Zm329.8.57,1.564.32-.389,1.9-1.564-.32Zm-329.258,2.093.385,1.9-1.565.317-.385-1.9Zm328.713.569,1.564.32-.389,1.9-1.564-.32Zm-328.174,2.094.385,1.9-1.565.317-.385-1.9Zm327.629.568,1.564.32-.389,1.9-1.564-.32Zm-327.09,2.1.385,1.9-1.565.317-.385-1.9Zm326.545.566,1.564.32-.389,1.9-1.564-.32Zm-326.006,2.1.385,1.9-1.565.317-.385-1.9Zm325.461.565,1.564.32-.389,1.9-1.564-.32Zm-324.922,2.1.385,1.9-1.565.317-.385-1.9Zm324.377.564,1.564.32-.389,1.9-1.564-.32Zm-323.838,2.1.385,1.9-1.565.317-.385-1.9Zm323.292.563,1.564.32-.389,1.9-1.564-.32Zm-322.754,2.1.385,1.9-1.565.317-.385-1.9Zm322.208.561,1.564.32-.389,1.9-1.564-.32Zm-321.669,2.1.385,1.9-1.565.317-.385-1.9Zm321.124.56,1.564.32-.389,1.9-1.564-.32Zm-320.585,2.1.385,1.9-1.565.317-.385-1.9Zm320.04.559,1.564.32-.389,1.9-1.564-.32Zm-319.5,2.1.385,1.9-1.565.317-.385-1.9Zm318.956.557,1.564.32-.389,1.9-1.564-.32Zm-318.417,2.105.385,1.9-1.565.317-.385-1.9Zm317.872.556,1.564.32-.389,1.9-1.564-.32ZM191.553,426.71l.385,1.9-1.565.317-.385-1.9Zm316.788.555,1.564.32-.389,1.9-1.564-.32Zm-316.249,2.108.385,1.9-1.565.317-.385-1.9Zm315.7.553,1.564.32-.389,1.9-1.564-.32Zm-315.165,2.109.385,1.9-1.565.317-.385-1.9Zm314.62.552,1.564.32-.389,1.9-1.564-.32ZM193.17,434.7l.385,1.9-1.565.317-.385-1.9Zm313.536.551,1.564.32-.389,1.9-1.564-.32Zm-313,2.112.385,1.9-1.565.317-.385-1.9Zm312.452.55,1.564.32-.389,1.9-1.564-.32Zm-311.913,2.113.385,1.9-1.565.317-.385-1.9Zm311.368.548,1.564.32-.389,1.9-1.564-.32Zm-310.829,2.115.385,1.9-1.565.317-.385-1.9Zm310.283.547,1.564.32-.389,1.9-1.564-.32Zm-309.745,2.116.385,1.9-1.565.317-.385-1.9Zm309.2.546,1.564.32-.389,1.9-1.564-.32Zm-308.661,2.117.385,1.9-1.565.317-.385-1.9Zm308.115.545,1.564.32-.389,1.9-1.564-.32ZM196.4,450.677l.385,1.9-1.565.317-.385-1.9Zm307.031.543,1.564.32-.389,1.9-1.564-.32Zm-306.492,2.12.385,1.9-1.565.317-.385-1.9Zm305.947.542,1.564.32-.389,1.9-1.564-.32ZM197.481,456l.385,1.9-1.565.317-.385-1.9Zm304.863.541,1.564.32-.389,1.9-1.564-.321ZM198.02,458.666l.385,1.9-1.565.317-.385-1.9ZM501.8,459.2l1.564.32-.389,1.9-1.564-.32Zm-303.24,2.124.385,1.9-1.565.317-.385-1.9Zm302.695.538,1.564.32-.389,1.9-1.564-.32ZM199.1,463.991l.3,1.5h1.82v1.6h-1.941v-1.155l-1.364.276-.385-1.9Zm301.611.537,1.564.32-.459,2.24h-.957v-.861l-.477-.1ZM202,465.492h1.94v1.6H202Zm2.717,0h1.941v1.6h-1.941Zm2.717,0h1.94v1.6h-1.94Zm2.717,0h1.941v1.6h-1.941Zm2.717,0h1.94v1.6h-1.94Zm2.717,0h1.941v1.6h-1.941Zm2.717,0h1.941v1.6H218.3Zm2.717,0h1.941v1.6h-1.941Zm2.717,0h1.941v1.6h-1.941Zm2.717,0h1.94v1.6h-1.94Zm2.717,0h1.941v1.6h-1.941Zm2.717,0h1.94v1.6h-1.94Zm2.717,0h1.941v1.6H234.6Zm2.717,0h1.941v1.6h-1.941Zm2.717,0h1.941v1.6h-1.941Zm2.717,0h1.94v1.6h-1.94Zm2.717,0h1.94v1.6h-1.94Zm2.717,0h1.941v1.6h-1.941Zm2.717,0h1.941v1.6H250.9Zm2.717,0h1.94v1.6h-1.94Zm2.717,0h1.94v1.6h-1.94Zm2.717,0h1.94v1.6h-1.94Zm2.717,0h1.94v1.6h-1.94Zm2.717,0h1.94v1.6h-1.94Zm2.717,0h1.94v1.6H267.2Zm2.717,0h1.94v1.6h-1.94Zm2.717,0h1.941v1.6h-1.941Zm2.717,0h1.941v1.6h-1.941Zm2.717,0h1.94v1.6h-1.94Zm2.717,0h1.94v1.6h-1.94Zm2.717,0h1.941v1.6H283.5Zm2.717,0h1.94v1.6h-1.94Zm2.717,0h1.941v1.6h-1.941Zm2.717,0H293.6v1.6h-1.941Zm2.717,0h1.941v1.6h-1.941Zm2.717,0h1.94v1.6h-1.94Zm2.717,0h1.941v1.6h-1.941Zm2.717,0h1.941v1.6h-1.941Zm2.717,0h1.941v1.6H305.24Zm2.717,0h1.94v1.6h-1.94Zm2.717,0h1.941v1.6h-1.941Zm2.717,0h1.941v1.6h-1.941Zm2.717,0h1.94v1.6h-1.94Zm2.717,0h1.94v1.6h-1.94Zm2.717,0h1.94v1.6h-1.94Zm2.717,0H326.2v1.6h-1.941Zm2.717,0h1.941v1.6h-1.941Zm2.717,0h1.94v1.6h-1.94Zm2.717,0h1.941v1.6h-1.941Zm2.717,0h1.94v1.6h-1.94Zm2.717,0h1.941v1.6h-1.941Zm2.717,0H342.5v1.6H340.56Zm2.717,0h1.941v1.6h-1.941Zm2.717,0h1.94v1.6h-1.94Zm2.717,0h1.94v1.6h-1.94Zm2.717,0h1.941v1.6h-1.941Zm2.717,0h1.94v1.6h-1.94Zm2.717,0h1.94v1.6h-1.94Zm2.717,0h1.94v1.6h-1.94Zm2.717,0h1.941v1.6h-1.941Zm2.717,0h1.94v1.6h-1.94Zm2.717,0h1.941v1.6h-1.941Zm2.717,0h1.941v1.6h-1.941Zm2.717,0h1.94v1.6h-1.94Zm2.717,0h1.94v1.6h-1.94Zm2.717,0h1.94v1.6H378.6Zm2.717,0h1.941v1.6h-1.941Zm2.717,0h1.94v1.6h-1.94Zm2.717,0h1.94v1.6h-1.94Zm2.717,0h1.94v1.6h-1.94Zm2.717,0h1.941v1.6h-1.941Zm2.717,0h1.94v1.6H394.9Zm2.717,0h1.94v1.6h-1.94Zm2.717,0h1.941v1.6h-1.941Zm2.717,0h1.941v1.6h-1.941Zm2.717,0h1.941v1.6h-1.941Zm2.717,0h1.94v1.6h-1.94Zm2.717,0h1.941v1.6H411.2Zm2.717,0h1.94v1.6h-1.94Zm2.717,0h1.941v1.6h-1.941Zm2.717,0h1.941v1.6H419.35Zm2.717,0h1.941v1.6h-1.941Zm2.717,0h1.94v1.6h-1.94Zm2.717,0h1.941v1.6H427.5Zm2.717,0h1.941v1.6h-1.941Zm2.717,0h1.941v1.6h-1.941Zm2.717,0h1.94v1.6h-1.94Zm2.717,0h1.94v1.6h-1.94Zm2.717,0h1.941v1.6h-1.941Zm2.717,0h1.941v1.6H443.8Zm2.717,0h1.941v1.6h-1.941Zm2.717,0h1.94v1.6h-1.94Zm2.717,0h1.94v1.6h-1.94Zm2.717,0h1.94v1.6h-1.94Zm2.717,0h1.941v1.6h-1.941Zm2.717,0h1.941v1.6H460.1Zm2.717,0h1.941v1.6H462.82Zm2.717,0h1.94v1.6h-1.94Zm2.717,0h1.94v1.6h-1.94Zm2.717,0h1.941v1.6h-1.941Zm2.717,0h1.941v1.6h-1.941Zm2.717,0h1.94v1.6H476.4Zm2.717,0h1.94v1.6h-1.94Zm2.717,0h1.94v1.6h-1.94Zm2.717,0H486.5v1.6h-1.941Zm2.717,0h1.94v1.6h-1.94Zm2.717,0h1.941v1.6h-1.941Zm2.717,0h1.941v1.6h-1.941Zm2.717,0h1.94v1.6h-1.94Zm2.717,0h1.941v1.6H498.14Z" transform="translate(132.384 7826.727)" fill="#9d9d9c"/>
    <path id="Lnea_1896" data-name="Lnea 1896" d="M-.115,35.953l-.455-1.531,1.86-.552L1.745,35.4Zm2.6-.773-.455-1.531L3.9,33.1l.455,1.531Zm2.6-.773L4.64,32.876l1.86-.552.455,1.531Zm2.6-.773L7.244,32.1,9.1,31.55l.455,1.531Zm2.6-.773-.455-1.531,1.86-.552.455,1.531Zm2.6-.773-.455-1.531L14.313,30l.455,1.531Zm2.6-.773-.455-1.531,1.86-.552.455,1.531Zm2.6-.773-.455-1.531,1.86-.552.455,1.531Zm2.6-.773-.455-1.531,1.86-.552.455,1.531Zm2.6-.773-.455-1.531,1.86-.552.455,1.531Zm2.6-.773-.455-1.531,1.86-.552.455,1.531Zm2.6-.773-.455-1.531,1.86-.552.455,1.531Zm2.6-.773-.455-1.531,1.86-.552L33,26.119Zm2.6-.773-.455-1.531,1.86-.552.455,1.531Zm2.6-.773-.455-1.531,1.86-.552.455,1.531Zm2.6-.773L38.5,22.82l1.86-.552.455,1.531Zm2.6-.773L41.1,22.047l1.86-.552.455,1.531Zm2.6-.773-.455-1.531,1.86-.552.455,1.531Zm2.6-.773L46.311,20.5l1.86-.552.455,1.531Zm2.6-.773-.455-1.531,1.86-.552L51.23,20.7Zm2.6-.773-.455-1.531,1.86-.552.455,1.531Zm2.6-.773-.455-1.531,1.86-.552.455,1.531Zm2.6-.773-.455-1.531,1.86-.552.455,1.531Zm2.6-.773-.455-1.531,1.86-.552.455,1.531Zm2.6-.773-.455-1.531,1.86-.552.455,1.531Zm2.6-.773-.455-1.531,1.86-.552.455,1.531Zm2.6-.773-.455-1.531,1.86-.552.455,1.531Zm2.6-.773-.455-1.531,1.86-.552.455,1.531Zm2.6-.773-.455-1.531,1.86-.552.455,1.531Zm2.6-.773-.455-1.531,1.86-.552.455,1.531Zm2.6-.773-.455-1.531,1.86-.552L79.88,12.2Zm2.6-.773-.455-1.531,1.86-.552.455,1.531Zm2.6-.773-.455-1.531,1.86-.552.455,1.531Zm2.6-.773L85.378,8.9l1.86-.552.455,1.531Zm2.6-.773-.455-1.531,1.86-.552L90.3,9.1Zm2.6-.773-.455-1.531,1.86-.552L92.9,8.329Zm2.6-.773-.455-1.531,1.86-.552.455,1.531Zm2.6-.773L95.8,5.8l1.86-.552.455,1.531Zm2.6-.773L98.4,5.03l1.86-.552.455,1.531Zm2.6-.773-.455-1.531,1.86-.552.455,1.531Zm2.6-.773-.455-1.531,1.86-.552.455,1.531Zm2.6-.773-.455-1.531,1.86-.552.455,1.531Zm2.6-.773-.455-1.531,1.86-.552.455,1.531Zm2.6-.773-.455-1.531,1.86-.552.455,1.531Zm2.6-.773L114.028.39l1.86-.552.455,1.531Zm2.6-.773-.455-1.531,1.86-.552.455,1.531Zm2.6-.773-.455-1.531,1.86-.552.455,1.531Z" transform="translate(295.026 7914.963)" fill="#9d9d9c"/>
    <path id="Lnea_1897" data-name="Lnea 1897" d="M121.356,36.588l-1.858-.561.115-.382,1.858.561Zm-2.6-.785-1.858-.561.115-.382,1.858.561Zm-2.6-.785-1.858-.561.115-.382,1.858.561Zm-2.6-.785-1.858-.561.115-.382,1.858.561Zm-2.6-.785-1.858-.561.115-.382,1.858.561Zm-2.6-.785-1.858-.561.115-.382,1.858.561Zm-2.6-.785-1.858-.561.115-.382,1.858.561Zm-2.6-.785-1.858-.561.115-.382,1.858.561Zm-2.6-.785-1.858-.561.115-.382,1.858.561Zm-2.6-.785L96.09,28.96l.115-.382,1.858.561Zm-2.6-.785-1.858-.561.115-.382,1.858.561Zm-2.6-.785-1.858-.561L91,27.007l1.858.561Zm-2.6-.785L88.287,26.6l.115-.382,1.858.561Zm-2.6-.785-1.858-.561.115-.382L87.659,26Zm-2.6-.785-1.858-.561.115-.382,1.858.561Zm-2.6-.785-1.858-.561.115-.382,1.858.561Zm-2.6-.785-1.858-.561L78,23.08l1.858.561Zm-2.6-.785-1.858-.561L75.4,22.3l1.858.561Zm-2.6-.785-1.858-.561.115-.382,1.858.561Zm-2.6-.785-1.858-.561.115-.382,1.858.561Zm-2.6-.785-1.858-.561.115-.382,1.858.561Zm-2.6-.785-1.858-.561.115-.382,1.858.561Zm-2.6-.785-1.858-.561.115-.382,1.858.561Zm-2.6-.785-1.858-.561.115-.382,1.858.561Zm-2.6-.785-1.858-.561.115-.382,1.858.561Zm-2.6-.785-1.858-.561.115-.382,1.858.561Zm-2.6-.785-1.858-.561.115-.382,1.858.561Zm-2.6-.785-1.858-.561.115-.382L51.246,15Zm-2.6-.785-1.858-.561.115-.382,1.858.561Zm-2.6-.785-1.858-.561.115-.382,1.858.561Zm-2.6-.785-1.858-.561.115-.382,1.858.561Zm-2.6-.785-1.858-.561.115-.382,1.858.561Zm-2.6-.785L36.269,10.9l.115-.382,1.858.561Zm-2.6-.785-1.858-.561.115-.382,1.858.561Zm-2.6-.785-1.858-.561.115-.382,1.858.561Zm-2.6-.785-1.858-.561.115-.382,1.858.561Zm-2.6-.785-1.858-.561.115-.382,1.858.561Zm-2.6-.785-1.858-.561.115-.382,1.858.561Zm-2.6-.785-1.858-.561.115-.382,1.858.561Zm-2.6-.785L18.062,5.4l.115-.382,1.858.561Zm-2.6-.785-1.858-.561.115-.382,1.858.561Zm-2.6-.785L12.86,3.83l.115-.382,1.858.561Zm-2.6-.785-1.858-.561.115-.382,1.858.561Zm-2.6-.785L7.658,2.259l.115-.382,1.858.561Zm-2.6-.785L5.057,1.474l.115-.382,1.858.561Zm-2.6-.785L2.456.689,2.572.307,4.429.868ZM1.713.464-.145-.1l.115-.382L1.829.082Z" transform="translate(549.438 7915.407)" fill="#9d9d9c"/>
    <path id="Lnea_1898" data-name="Lnea 1898" d="M-.4,114.15H-2v-.815H-.4Zm0-1.586H-2v-1.927H-.4Zm0-2.7H-2v-1.927H-.4Zm0-2.7H-2V105.24H-.4Zm0-2.7H-2v-1.927H-.4Zm0-2.7H-2V99.843H-.4Zm0-2.7H-2V97.144H-.4Zm0-2.7H-2V94.446H-.4Zm0-2.7H-2V91.748H-.4Zm0-2.7H-2V89.049H-.4Zm0-2.7H-2V86.351H-.4Zm0-2.7H-2V83.652H-.4Zm0-2.7H-2V80.954H-.4Zm0-2.7H-2V78.255H-.4Zm0-2.7H-2V75.557H-.4Zm0-2.7H-2V72.858H-.4Zm0-2.7H-2V70.16H-.4Zm0-2.7H-2V67.461H-.4Zm0-2.7H-2V64.763H-.4Zm0-2.7H-2V62.065H-.4Zm0-2.7H-2V59.366H-.4Zm0-2.7H-2V56.668H-.4Zm0-2.7H-2V53.969H-.4Zm0-2.7H-2V51.271H-.4Zm0-2.7H-2V48.572H-.4Zm0-2.7H-2V45.874H-.4Zm0-2.7H-2V43.175H-.4Zm0-2.7H-2V40.477H-.4Zm0-2.7H-2V37.778H-.4Zm0-2.7H-2V35.08H-.4Zm0-2.7H-2V32.381H-.4Zm0-2.7H-2V29.683H-.4Zm0-2.7H-2V26.985H-.4Zm0-2.7H-2V24.286H-.4Zm0-2.7H-2V21.588H-.4Zm0-2.7H-2V18.889H-.4Zm0-2.7H-2V16.191H-.4Zm0-2.7H-2V13.492H-.4Zm0-2.7H-2V10.794H-.4Zm0-2.7H-2V8.1H-.4Zm0-2.7H-2V5.4H-.4Zm0-2.7H-2V2.7H-.4Zm0-2.7H-2V0H-.4Z" transform="translate(477.915 7948.777)" fill="#9d9d9c"/>
    <path id="Lnea_1899" data-name="Lnea 1899" d="M-.4,344.24H-2V342.33H-.4Zm0-2.687H-2v-1.94H-.4Zm0-2.717H-2V336.9H-.4Zm0-2.717H-2v-1.94H-.4Zm0-2.717H-2v-1.94H-.4Zm0-2.717H-2v-1.94H-.4Zm0-2.717H-2v-1.94H-.4Zm0-2.717H-2v-1.94H-.4Zm0-2.717H-2v-1.94H-.4Zm0-2.717H-2v-1.94H-.4Zm0-2.717H-2v-1.94H-.4Zm0-2.717H-2v-1.94H-.4Zm0-2.717H-2v-1.94H-.4Zm0-2.717H-2v-1.94H-.4Zm0-2.717H-2v-1.94H-.4Zm0-2.717H-2v-1.94H-.4Zm0-2.717H-2v-1.941H-.4Zm0-2.717H-2v-1.94H-.4Zm0-2.717H-2v-1.94H-.4Zm0-2.717H-2v-1.94H-.4Zm0-2.717H-2v-1.94H-.4Zm0-2.717H-2v-1.94H-.4Zm0-2.717H-2v-1.94H-.4Zm0-2.717H-2v-1.94H-.4Zm0-2.717H-2v-1.94H-.4Zm0-2.717H-2v-1.94H-.4Zm0-2.717H-2v-1.94H-.4Zm0-2.717H-2v-1.94H-.4Zm0-2.717H-2v-1.94H-.4Zm0-2.717H-2v-1.94H-.4Zm0-2.717H-2v-1.94H-.4Zm0-2.717H-2v-1.94H-.4Zm0-2.717H-2v-1.941H-.4Zm0-2.717H-2v-1.94H-.4Zm0-2.717H-2v-1.941H-.4Zm0-2.717H-2v-1.94H-.4Zm0-2.717H-2v-1.94H-.4Zm0-2.717H-2V241.8H-.4Zm0-2.717H-2v-1.94H-.4Zm0-2.717H-2v-1.94H-.4Zm0-2.717H-2v-1.941H-.4Zm0-2.717H-2v-1.94H-.4Zm0-2.717H-2v-1.94H-.4Zm0-2.717H-2V225.5H-.4Zm0-2.717H-2v-1.941H-.4Zm0-2.717H-2v-1.94H-.4Zm0-2.717H-2v-1.94H-.4Zm0-2.717H-2v-1.94H-.4Zm0-2.717H-2v-1.94H-.4Zm0-2.717H-2V209.2H-.4Zm0-2.717H-2v-1.94H-.4Zm0-2.717H-2v-1.94H-.4Zm0-2.717H-2v-1.94H-.4Zm0-2.717H-2v-1.94H-.4Zm0-2.717H-2v-1.94H-.4Zm0-2.717H-2V192.9H-.4Zm0-2.717H-2v-1.94H-.4Zm0-2.717H-2v-1.94H-.4Zm0-2.717H-2v-1.94H-.4Zm0-2.717H-2v-1.94H-.4Zm0-2.717H-2v-1.94H-.4Zm0-2.717H-2V176.6H-.4Zm0-2.717H-2v-1.94H-.4Zm0-2.717H-2v-1.94H-.4Zm0-2.717H-2v-1.94H-.4Zm0-2.717H-2v-1.94H-.4Zm0-2.717H-2v-1.94H-.4Zm0-2.717H-2V160.3H-.4Zm0-2.717H-2v-1.94H-.4Zm0-2.717H-2v-1.94H-.4Zm0-2.717H-2v-1.94H-.4Zm0-2.717H-2v-1.94H-.4Zm0-2.717H-2v-1.94H-.4Zm0-2.717H-2V144H-.4Zm0-2.717H-2v-1.94H-.4Zm0-2.717H-2v-1.94H-.4Zm0-2.717H-2v-1.94H-.4Zm0-2.717H-2v-1.94H-.4Zm0-2.717H-2v-1.94H-.4Zm0-2.717H-2v-1.94H-.4Zm0-2.717H-2v-1.94H-.4Zm0-2.717H-2v-1.94H-.4Zm0-2.717H-2v-1.94H-.4Zm0-2.717H-2v-1.94H-.4Zm0-2.717H-2v-1.94H-.4Zm0-2.717H-2v-1.94H-.4Zm0-2.717H-2v-1.94H-.4Zm0-2.717H-2v-1.94H-.4Zm0-2.717H-2v-1.94H-.4Zm0-2.717H-2v-1.94H-.4Zm0-2.717H-2v-1.94H-.4Zm0-2.717H-2v-1.94H-.4Zm0-2.717H-2v-1.94H-.4Zm0-2.717H-2v-1.94H-.4Zm0-2.717H-2v-1.94H-.4Zm0-2.717H-2v-1.94H-.4Zm0-2.717H-2v-1.94H-.4Zm0-2.717H-2V78.79H-.4Zm0-2.717H-2v-1.94H-.4Zm0-2.717H-2v-1.94H-.4Zm0-2.717H-2v-1.94H-.4Zm0-2.717H-2v-1.94H-.4Zm0-2.717H-2v-1.94H-.4Zm0-2.717H-2v-1.94H-.4Zm0-2.717H-2v-1.94H-.4ZM-.4,59H-2v-1.94H-.4Zm0-2.717H-2v-1.94H-.4Zm0-2.717H-2v-1.94H-.4Zm0-2.717H-2V48.9H-.4Zm0-2.717H-2v-1.94H-.4Zm0-2.717H-2V43.47H-.4Zm0-2.717H-2v-1.94H-.4Zm0-2.717H-2v-1.94H-.4Zm0-2.717H-2V35.32H-.4Zm0-2.717H-2V32.6H-.4Zm0-2.717H-2v-1.94H-.4Zm0-2.717H-2v-1.94H-.4Zm0-2.717H-2v-1.94H-.4Zm0-2.717H-2v-1.94H-.4Zm0-2.717H-2v-1.94H-.4Zm0-2.717H-2V16.3H-.4Zm0-2.717H-2v-1.94H-.4Zm0-2.717H-2v-1.94H-.4Zm0-2.717H-2V8.151H-.4Zm0-2.717H-2V5.434H-.4Zm0-2.717H-2V2.717H-.4Zm0-2.717H-2V0H-.4Z" transform="translate(483.749 7948.777)" fill="#9d9d9c"/>
    <path id="Lnea_1900" data-name="Lnea 1900" d="M-.4,114.15H-2v-.815H-.4Zm0-1.586H-2v-1.927H-.4Zm0-2.7H-2v-1.927H-.4Zm0-2.7H-2V105.24H-.4Zm0-2.7H-2v-1.927H-.4Zm0-2.7H-2V99.843H-.4Zm0-2.7H-2V97.144H-.4Zm0-2.7H-2V94.446H-.4Zm0-2.7H-2V91.748H-.4Zm0-2.7H-2V89.049H-.4Zm0-2.7H-2V86.351H-.4Zm0-2.7H-2V83.652H-.4Zm0-2.7H-2V80.954H-.4Zm0-2.7H-2V78.255H-.4Zm0-2.7H-2V75.557H-.4Zm0-2.7H-2V72.858H-.4Zm0-2.7H-2V70.16H-.4Zm0-2.7H-2V67.461H-.4Zm0-2.7H-2V64.763H-.4Zm0-2.7H-2V62.065H-.4Zm0-2.7H-2V59.366H-.4Zm0-2.7H-2V56.668H-.4Zm0-2.7H-2V53.969H-.4Zm0-2.7H-2V51.271H-.4Zm0-2.7H-2V48.572H-.4Zm0-2.7H-2V45.874H-.4Zm0-2.7H-2V43.175H-.4Zm0-2.7H-2V40.477H-.4Zm0-2.7H-2V37.778H-.4Zm0-2.7H-2V35.08H-.4Zm0-2.7H-2V32.381H-.4Zm0-2.7H-2V29.683H-.4Zm0-2.7H-2V26.985H-.4Zm0-2.7H-2V24.286H-.4Zm0-2.7H-2V21.588H-.4Zm0-2.7H-2V18.889H-.4Zm0-2.7H-2V16.191H-.4Zm0-2.7H-2V13.492H-.4Zm0-2.7H-2V10.794H-.4Zm0-2.7H-2V8.1H-.4Zm0-2.7H-2V5.4H-.4Zm0-2.7H-2V2.7H-.4Zm0-2.7H-2V0H-.4Z" transform="translate(489.58 7948.777)" fill="#9d9d9c"/>
    <path id="Lnea_1901" data-name="Lnea 1901" d="M82.268-.3H0V-1.5H82.268Z" transform="translate(263.859 7928.814)"/>
    <path id="Lnea_1902" data-name="Lnea 1902" d="M82.268-.3H0V-1.5H82.268Z" transform="translate(616.311 7928.814)"/>
    <path id="Lnea_1903" data-name="Lnea 1903" d="M10.8-.2H-.6A.4.4,0,0,1-1-.6.4.4,0,0,1-.6-1H10.8a.4.4,0,0,1,.4.4A.4.4,0,0,1,10.8-.2Z" transform="translate(504.6 8034.525)"/>
    <path id="Trazado_901137" data-name="Trazado 901137" d="M682.03,419.044v6.639l-5-3.176Z" transform="translate(-178.031 7611.652)"/>
    <path id="Lnea_1904" data-name="Lnea 1904" d="M10.8-.2H-.6A.4.4,0,0,1-1-.6.4.4,0,0,1-.6-1H10.8a.4.4,0,0,1,.4.4A.4.4,0,0,1,10.8-.2Z" transform="translate(504.6 7972.824)"/>
    <path id="Trazado_901138" data-name="Trazado 901138" d="M682.03,264.479v6.639l-5-3.176Z" transform="translate(-178.031 7704.516)"/>
    <path id="Lnea_1905" data-name="Lnea 1905" d="M-.6,97.284a.4.4,0,0,1-.4-.4V-.6A.4.4,0,0,1-.6-1a.4.4,0,0,1,.4.4V96.885A.4.4,0,0,1-.6,97.284Z" transform="translate(532.466 7956.515)"/>
    <path id="Trazado_901139" data-name="Trazado 901139" d="M751.271,474.15h6.639l-3.176,5Z" transform="translate(-222.634 7578.544)"/>
    <path id="Lnea_1906" data-name="Lnea 1906" d="M10.8-.2H-.6A.4.4,0,0,1-1-.6.4.4,0,0,1-.6-1H10.8a.4.4,0,0,1,.4.4A.4.4,0,0,1,10.8-.2Z" transform="translate(448.522 8034.525)"/>
    <path id="Trazado_901140" data-name="Trazado 901140" d="M577.64,419.044v6.639l5-3.176Z" transform="translate(-118.316 7611.652)"/>
    <path id="Lnea_1907" data-name="Lnea 1907" d="M10.8-.2H-.6A.4.4,0,0,1-1-.6.4.4,0,0,1-.6-1H10.8a.4.4,0,0,1,.4.4A.4.4,0,0,1,10.8-.2Z" transform="translate(682.206 8085.969)"/>
    <path id="Trazado_901141" data-name="Trazado 901141" d="M1163.031,547.914v6.639l5-3.176Z" transform="translate(-470.023 7534.226)"/>
    <path id="Lnea_1908" data-name="Lnea 1908" d="M-.6,7.986a.4.4,0,0,1-.4-.4V-.6A.4.4,0,0,1-.6-1a.4.4,0,0,1,.4.4V7.587A.4.4,0,0,1-.6,7.986Z" transform="translate(703.099 8095.341)"/>
    <path id="Trazado_901142" data-name="Trazado 901142" d="M1184.9,599.99h-6.639l3.176,5Z" transform="translate(-479.173 7502.938)"/>
    <path id="Lnea_1909" data-name="Lnea 1909" d="M10.8-.2H-.6A.4.4,0,0,1-1-.6.4.4,0,0,1-.6-1H10.8a.4.4,0,0,1,.4.4A.4.4,0,0,1,10.8-.2Z" transform="translate(272.159 8085.969)"/>
    <path id="Trazado_901143" data-name="Trazado 901143" d="M99.753,554.553v-6.638l-5,3.176Z" transform="translate(171.806 7534.226)"/>
    <path id="Lnea_1910" data-name="Lnea 1910" d="M-.6,7.986a.4.4,0,0,1-.4-.4V-.6A.4.4,0,0,1-.6-1a.4.4,0,0,1,.4.4V7.587A.4.4,0,0,1-.6,7.986Z" transform="translate(265.97 8095.341)"/>
    <path id="Trazado_901144" data-name="Trazado 901144" d="M89.866,599.99H83.227l3.176,5Z" transform="translate(178.731 7502.938)"/>
    <path id="Lnea_1911" data-name="Lnea 1911" d="M10.8-.2H-.6A.4.4,0,0,1-1-.6.4.4,0,0,1-.6-1H10.8a.4.4,0,0,1,.4.4A.4.4,0,0,1,10.8-.2Z" transform="translate(448.522 7972.824)"/>
    <path id="Trazado_901145" data-name="Trazado 901145" d="M577.64,264.479v6.639l5-3.176Z" transform="translate(-118.316 7704.516)"/>
    <path id="Lnea_1912" data-name="Lnea 1912" d="M-.6,7.192a.4.4,0,0,1-.4-.4V-.6A.4.4,0,0,1-.6-1a.4.4,0,0,1,.4.4V6.793A.4.4,0,0,1-.6,7.192Z" transform="translate(483.968 7933.512)"/>
    <path id="Trazado_901146" data-name="Trazado 901146" d="M635.964,192.61h-6.639l3.176,5Z" transform="translate(-149.369 7747.695)"/>
    <path id="Lnea_1913" data-name="Lnea 1913" d="M-.6,6.32a.4.4,0,0,1-.4-.4V-.6A.4.4,0,0,1-.6-1a.4.4,0,0,1,.4.4V5.921A.4.4,0,0,1-.6,6.32Z" transform="translate(322.633 7931.481)"/>
    <path id="Trazado_901147" data-name="Trazado 901147" d="M231.812,185.338h-6.639l3.176,5Z" transform="translate(93.449 7752.064)"/>
    <path id="Lnea_1914" data-name="Lnea 1914" d="M12.019-.2H-.6A.4.4,0,0,1-1-.6.4.4,0,0,1-.6-1h12.62a.4.4,0,0,1,.4.4A.4.4,0,0,1,12.019-.2Z" transform="translate(302.242 7915.796)"/>
    <path id="Trazado_901148" data-name="Trazado 901148" d="M175.111,127.8v-6.639l-5,3.176Z" transform="translate(126.53 7790.62)"/>
    <path id="Trazado_904222" data-name="Trazado 904222" d="M0,0H511.526V714.851H0Z" transform="translate(228.735 7863.416)" fill="none"/>
    <path id="Trazado_904223" data-name="Trazado 904223" d="M1.143-2.4H1.55a.9.9,0,0,0,.6-.2.675.675,0,0,0,.22-.53.662.662,0,0,0-.747-.75.777.777,0,0,0-.561.2.7.7,0,0,0-.209.532H.313a1.088,1.088,0,0,1,.371-.842,1.35,1.35,0,0,1,.942-.335A1.334,1.334,0,0,1,2.572-4a1.154,1.154,0,0,1,.343.888.936.936,0,0,1-.18.539,1.088,1.088,0,0,1-.491.39,1.048,1.048,0,0,1,.543.369,1.025,1.025,0,0,1,.192.63A1.164,1.164,0,0,1,2.6-.278a1.4,1.4,0,0,1-.976.337A1.441,1.441,0,0,1,.652-.267a1.079,1.079,0,0,1-.376-.858H.82a.7.7,0,0,0,.22.539.836.836,0,0,0,.589.2.82.82,0,0,0,.6-.205.79.79,0,0,0,.208-.589.717.717,0,0,0-.229-.571,1,1,0,0,0-.659-.205H1.143ZM6.536-.384A.781.781,0,0,0,7.043-.56.618.618,0,0,0,7.283-1H7.8a.983.983,0,0,1-.187.519,1.235,1.235,0,0,1-.461.393,1.331,1.331,0,0,1-.611.146,1.306,1.306,0,0,1-1.03-.432,1.721,1.721,0,0,1-.382-1.182v-.091a1.908,1.908,0,0,1,.17-.823,1.294,1.294,0,0,1,.488-.56,1.386,1.386,0,0,1,.751-.2,1.271,1.271,0,0,1,.886.319A1.141,1.141,0,0,1,7.8-2.08H7.283a.747.747,0,0,0-.233-.505.725.725,0,0,0-.517-.2.759.759,0,0,0-.64.3,1.4,1.4,0,0,0-.227.86v.1a1.369,1.369,0,0,0,.226.844A.762.762,0,0,0,6.536-.384ZM8.915-3.17l.015.352a1.171,1.171,0,0,1,.94-.41.906.906,0,0,1,.905.51,1.2,1.2,0,0,1,.412-.369,1.216,1.216,0,0,1,.6-.141q1.043,0,1.061,1.1V0H12.3V-2.092a.728.728,0,0,0-.155-.508.684.684,0,0,0-.521-.168.719.719,0,0,0-.5.18A.731.731,0,0,0,10.9-2.1V0h-.545V-2.077a.6.6,0,0,0-.677-.691.725.725,0,0,0-.729.454V0H8.4V-3.17Z" transform="translate(380.089 7911.516)"/>
    <path id="Trazado_904224" data-name="Trazado 904224" d="M1.143-2.4H1.55a.9.9,0,0,0,.6-.2.675.675,0,0,0,.22-.53.662.662,0,0,0-.747-.75.777.777,0,0,0-.561.2.7.7,0,0,0-.209.532H.313a1.088,1.088,0,0,1,.371-.842,1.35,1.35,0,0,1,.942-.335A1.334,1.334,0,0,1,2.572-4a1.154,1.154,0,0,1,.343.888.936.936,0,0,1-.18.539,1.088,1.088,0,0,1-.491.39,1.048,1.048,0,0,1,.543.369,1.025,1.025,0,0,1,.192.63A1.164,1.164,0,0,1,2.6-.278a1.4,1.4,0,0,1-.976.337A1.441,1.441,0,0,1,.652-.267a1.079,1.079,0,0,1-.376-.858H.82a.7.7,0,0,0,.22.539.836.836,0,0,0,.589.2.82.82,0,0,0,.6-.205.79.79,0,0,0,.208-.589.717.717,0,0,0-.229-.571,1,1,0,0,0-.659-.205H1.143ZM6.536-.384A.781.781,0,0,0,7.043-.56.618.618,0,0,0,7.283-1H7.8a.983.983,0,0,1-.187.519,1.235,1.235,0,0,1-.461.393,1.331,1.331,0,0,1-.611.146,1.306,1.306,0,0,1-1.03-.432,1.721,1.721,0,0,1-.382-1.182v-.091a1.908,1.908,0,0,1,.17-.823,1.294,1.294,0,0,1,.488-.56,1.386,1.386,0,0,1,.751-.2,1.271,1.271,0,0,1,.886.319A1.141,1.141,0,0,1,7.8-2.08H7.283a.747.747,0,0,0-.233-.505.725.725,0,0,0-.517-.2.759.759,0,0,0-.64.3,1.4,1.4,0,0,0-.227.86v.1a1.369,1.369,0,0,0,.226.844A.762.762,0,0,0,6.536-.384ZM8.915-3.17l.015.352a1.171,1.171,0,0,1,.94-.41.906.906,0,0,1,.905.51,1.2,1.2,0,0,1,.412-.369,1.216,1.216,0,0,1,.6-.141q1.043,0,1.061,1.1V0H12.3V-2.092a.728.728,0,0,0-.155-.508.684.684,0,0,0-.521-.168.719.719,0,0,0-.5.18A.731.731,0,0,0,10.9-2.1V0h-.545V-2.077a.6.6,0,0,0-.677-.691.725.725,0,0,0-.729.454V0H8.4V-3.17Z" transform="translate(505.703 7934.223)"/>
    <path id="Trazado_904225" data-name="Trazado 904225" d="M1.143-2.4H1.55a.9.9,0,0,0,.6-.2.675.675,0,0,0,.22-.53.662.662,0,0,0-.747-.75.777.777,0,0,0-.561.2.7.7,0,0,0-.209.532H.313a1.088,1.088,0,0,1,.371-.842,1.35,1.35,0,0,1,.942-.335A1.334,1.334,0,0,1,2.572-4a1.154,1.154,0,0,1,.343.888.936.936,0,0,1-.18.539,1.088,1.088,0,0,1-.491.39,1.048,1.048,0,0,1,.543.369,1.025,1.025,0,0,1,.192.63A1.164,1.164,0,0,1,2.6-.278a1.4,1.4,0,0,1-.976.337A1.441,1.441,0,0,1,.652-.267a1.079,1.079,0,0,1-.376-.858H.82a.7.7,0,0,0,.22.539.836.836,0,0,0,.589.2.82.82,0,0,0,.6-.205.79.79,0,0,0,.208-.589.717.717,0,0,0-.229-.571,1,1,0,0,0-.659-.205H1.143ZM6.536-.384A.781.781,0,0,0,7.043-.56.618.618,0,0,0,7.283-1H7.8a.983.983,0,0,1-.187.519,1.235,1.235,0,0,1-.461.393,1.331,1.331,0,0,1-.611.146,1.306,1.306,0,0,1-1.03-.432,1.721,1.721,0,0,1-.382-1.182v-.091a1.908,1.908,0,0,1,.17-.823,1.294,1.294,0,0,1,.488-.56,1.386,1.386,0,0,1,.751-.2,1.271,1.271,0,0,1,.886.319A1.141,1.141,0,0,1,7.8-2.08H7.283a.747.747,0,0,0-.233-.505.725.725,0,0,0-.517-.2.759.759,0,0,0-.64.3,1.4,1.4,0,0,0-.227.86v.1a1.369,1.369,0,0,0,.226.844A.762.762,0,0,0,6.536-.384ZM8.915-3.17l.015.352a1.171,1.171,0,0,1,.94-.41.906.906,0,0,1,.905.51,1.2,1.2,0,0,1,.412-.369,1.216,1.216,0,0,1,.6-.141q1.043,0,1.061,1.1V0H12.3V-2.092a.728.728,0,0,0-.155-.508.684.684,0,0,0-.521-.168.719.719,0,0,0-.5.18A.731.731,0,0,0,10.9-2.1V0h-.545V-2.077a.6.6,0,0,0-.677-.691.725.725,0,0,0-.729.454V0H8.4V-3.17Z" transform="translate(560.533 7911.516)"/>
    <path id="Trazado_904226" data-name="Trazado 904226" d="M2.136,0H1.591V-3.612L.5-3.211V-3.7l1.553-.583h.085ZM3.791-.284a.339.339,0,0,1,.083-.234.318.318,0,0,1,.25-.094.328.328,0,0,1,.253.094.333.333,0,0,1,.086.234.315.315,0,0,1-.086.226.334.334,0,0,1-.253.091.324.324,0,0,1-.25-.091A.321.321,0,0,1,3.791-.284ZM5.552-2.139l.217-2.127H7.954v.5H6.229L6.1-2.6a1.377,1.377,0,0,1,.712-.185,1.177,1.177,0,0,1,.926.385A1.51,1.51,0,0,1,8.08-1.359,1.457,1.457,0,0,1,7.724-.321a1.3,1.3,0,0,1-.995.379,1.348,1.348,0,0,1-.923-.313A1.251,1.251,0,0,1,5.4-1.122h.513a.861.861,0,0,0,.261.552.811.811,0,0,0,.557.186.731.731,0,0,0,.593-.258,1.078,1.078,0,0,0,.215-.712.989.989,0,0,0-.233-.687.792.792,0,0,0-.62-.259.894.894,0,0,0-.557.155l-.144.117ZM11.484-.384a.781.781,0,0,0,.507-.176A.618.618,0,0,0,12.231-1h.513a.983.983,0,0,1-.187.519,1.235,1.235,0,0,1-.461.393,1.331,1.331,0,0,1-.611.146,1.306,1.306,0,0,1-1.03-.432,1.721,1.721,0,0,1-.382-1.182v-.091a1.908,1.908,0,0,1,.17-.823,1.294,1.294,0,0,1,.488-.56,1.386,1.386,0,0,1,.751-.2,1.271,1.271,0,0,1,.886.319,1.141,1.141,0,0,1,.376.829h-.513A.747.747,0,0,0,12-2.585a.725.725,0,0,0-.517-.2.759.759,0,0,0-.64.3,1.4,1.4,0,0,0-.227.86v.1a1.369,1.369,0,0,0,.226.844A.762.762,0,0,0,11.484-.384ZM13.863-3.17l.015.352a1.171,1.171,0,0,1,.94-.41.906.906,0,0,1,.905.51,1.2,1.2,0,0,1,.412-.369,1.216,1.216,0,0,1,.6-.141q1.043,0,1.061,1.1V0h-.542V-2.092A.728.728,0,0,0,17.1-2.6a.684.684,0,0,0-.521-.168.719.719,0,0,0-.5.18.731.731,0,0,0-.231.485V0H15.3V-2.077a.6.6,0,0,0-.677-.691.725.725,0,0,0-.729.454V0h-.542V-3.17Z" transform="translate(471.127 7922.669)"/>
    <path id="Trazado_904227" data-name="Trazado 904227" d="M1.143-2.4H1.55a.9.9,0,0,0,.6-.2.675.675,0,0,0,.22-.53.662.662,0,0,0-.747-.75.777.777,0,0,0-.561.2.7.7,0,0,0-.209.532H.313a1.088,1.088,0,0,1,.371-.842,1.35,1.35,0,0,1,.942-.335A1.334,1.334,0,0,1,2.572-4a1.154,1.154,0,0,1,.343.888.936.936,0,0,1-.18.539,1.088,1.088,0,0,1-.491.39,1.048,1.048,0,0,1,.543.369,1.025,1.025,0,0,1,.192.63A1.164,1.164,0,0,1,2.6-.278a1.4,1.4,0,0,1-.976.337A1.441,1.441,0,0,1,.652-.267a1.079,1.079,0,0,1-.376-.858H.82a.7.7,0,0,0,.22.539.836.836,0,0,0,.589.2.82.82,0,0,0,.6-.205.79.79,0,0,0,.208-.589.717.717,0,0,0-.229-.571,1,1,0,0,0-.659-.205H1.143ZM6.536-.384A.781.781,0,0,0,7.043-.56.618.618,0,0,0,7.283-1H7.8a.983.983,0,0,1-.187.519,1.235,1.235,0,0,1-.461.393,1.331,1.331,0,0,1-.611.146,1.306,1.306,0,0,1-1.03-.432,1.721,1.721,0,0,1-.382-1.182v-.091a1.908,1.908,0,0,1,.17-.823,1.294,1.294,0,0,1,.488-.56,1.386,1.386,0,0,1,.751-.2,1.271,1.271,0,0,1,.886.319A1.141,1.141,0,0,1,7.8-2.08H7.283a.747.747,0,0,0-.233-.505.725.725,0,0,0-.517-.2.759.759,0,0,0-.64.3,1.4,1.4,0,0,0-.227.86v.1a1.369,1.369,0,0,0,.226.844A.762.762,0,0,0,6.536-.384ZM8.915-3.17l.015.352a1.171,1.171,0,0,1,.94-.41.906.906,0,0,1,.905.51,1.2,1.2,0,0,1,.412-.369,1.216,1.216,0,0,1,.6-.141q1.043,0,1.061,1.1V0H12.3V-2.092a.728.728,0,0,0-.155-.508.684.684,0,0,0-.521-.168.719.719,0,0,0-.5.18A.731.731,0,0,0,10.9-2.1V0h-.545V-2.077a.6.6,0,0,0-.677-.691.725.725,0,0,0-.729.454V0H8.4V-3.17Z" transform="translate(403.748 7868.403)"/>
    <path id="Trazado_904228" data-name="Trazado 904228" d="M1.143-2.4H1.55a.9.9,0,0,0,.6-.2.675.675,0,0,0,.22-.53.662.662,0,0,0-.747-.75.777.777,0,0,0-.561.2.7.7,0,0,0-.209.532H.313a1.088,1.088,0,0,1,.371-.842,1.35,1.35,0,0,1,.942-.335A1.334,1.334,0,0,1,2.572-4a1.154,1.154,0,0,1,.343.888.936.936,0,0,1-.18.539,1.088,1.088,0,0,1-.491.39,1.048,1.048,0,0,1,.543.369,1.025,1.025,0,0,1,.192.63A1.164,1.164,0,0,1,2.6-.278a1.4,1.4,0,0,1-.976.337A1.441,1.441,0,0,1,.652-.267a1.079,1.079,0,0,1-.376-.858H.82a.7.7,0,0,0,.22.539.836.836,0,0,0,.589.2.82.82,0,0,0,.6-.205.79.79,0,0,0,.208-.589.717.717,0,0,0-.229-.571,1,1,0,0,0-.659-.205H1.143ZM6.536-.384A.781.781,0,0,0,7.043-.56.618.618,0,0,0,7.283-1H7.8a.983.983,0,0,1-.187.519,1.235,1.235,0,0,1-.461.393,1.331,1.331,0,0,1-.611.146,1.306,1.306,0,0,1-1.03-.432,1.721,1.721,0,0,1-.382-1.182v-.091a1.908,1.908,0,0,1,.17-.823,1.294,1.294,0,0,1,.488-.56,1.386,1.386,0,0,1,.751-.2,1.271,1.271,0,0,1,.886.319A1.141,1.141,0,0,1,7.8-2.08H7.283a.747.747,0,0,0-.233-.505.725.725,0,0,0-.517-.2.759.759,0,0,0-.64.3,1.4,1.4,0,0,0-.227.86v.1a1.369,1.369,0,0,0,.226.844A.762.762,0,0,0,6.536-.384ZM8.915-3.17l.015.352a1.171,1.171,0,0,1,.94-.41.906.906,0,0,1,.905.51,1.2,1.2,0,0,1,.412-.369,1.216,1.216,0,0,1,.6-.141q1.043,0,1.061,1.1V0H12.3V-2.092a.728.728,0,0,0-.155-.508.684.684,0,0,0-.521-.168.719.719,0,0,0-.5.18A.731.731,0,0,0,10.9-2.1V0h-.545V-2.077a.6.6,0,0,0-.677-.691.725.725,0,0,0-.729.454V0H8.4V-3.17Z" transform="translate(546.951 7868.403)"/>
    <path id="Lnea_1915" data-name="Lnea 1915" d="M-.6,6.32a.4.4,0,0,1-.4-.4V-.6A.4.4,0,0,1-.6-1a.4.4,0,0,1,.4.4V5.921A.4.4,0,0,1-.6,6.32Z" transform="translate(377.462 7908.777)"/>
    <path id="Trazado_901149" data-name="Trazado 901149" d="M369.16,128.461h-6.639l3.176,5Z" transform="translate(10.929 7786.236)"/>
    <path id="Lnea_1916" data-name="Lnea 1916" d="M-.6,2.8a.4.4,0,0,1-.386-.3A.4.4,0,0,1-.7,2.01l11.368-3a.4.4,0,0,1,.488.284.4.4,0,0,1-.284.488L-.5,2.782A.4.4,0,0,1-.6,2.8Z" transform="translate(414.338 7875.895)"/>
    <path id="Trazado_901150" data-name="Trazado 901150" d="M456.9,35.419,455.208,29l-4.024,4.345Z" transform="translate(-42.34 7845.994)"/>
    <path id="Lnea_1917" data-name="Lnea 1917" d="M-.6,6.32a.4.4,0,0,1-.4-.4V-.6A.4.4,0,0,1-.6-1a.4.4,0,0,1,.4.4V5.921A.4.4,0,0,1-.6,6.32Z" transform="translate(646.316 7931.481)"/>
    <path id="Trazado_901151" data-name="Trazado 901151" d="M1036.472,185.338h6.639l-3.176,5Z" transform="translate(-393.985 7752.064)"/>
    <path id="Lnea_1918" data-name="Lnea 1918" d="M12.019-.2H-.6A.4.4,0,0,1-1-.6.4.4,0,0,1-.6-1h12.62a.4.4,0,0,1,.4.4A.4.4,0,0,1,12.019-.2Z" transform="translate(657.719 7916.459)"/>
    <path id="Trazado_901152" data-name="Trazado 901152" d="M1104.738,129.466v-6.639l5,3.176Z" transform="translate(-435 7789.621)"/>
    <path id="Lnea_1919" data-name="Lnea 1919" d="M-.6,6.32a.4.4,0,0,1-.4-.4V-.6A.4.4,0,0,1-.6-1a.4.4,0,0,1,.4.4V5.921A.4.4,0,0,1-.6,6.32Z" transform="translate(586.699 7909.753)"/>
    <path id="Trazado_901153" data-name="Trazado 901153" d="M887.13,130.906h6.638l-3.176,5Z" transform="translate(-304.259 7784.767)"/>
    <path id="Lnea_1920" data-name="Lnea 1920" d="M10.916,2.834a.4.4,0,0,1-.1-.013L-.7-.215A.4.4,0,0,1-.987-.7.4.4,0,0,1-.5-.987L11.017,2.049a.4.4,0,0,1-.1.785Z" transform="translate(547.548 7875.944)"/>
    <path id="Trazado_901154" data-name="Trazado 901154" d="M823.929,35.639l1.692-6.419,4.024,4.345Z" transform="translate(-266.288 7845.861)"/>
    <path id="Lnea_1921" data-name="Lnea 1921" d="M22.325-.4H-2V-2H22.325Z" transform="translate(471.747 8071.938)"/>
    <path id="Lnea_1922" data-name="Lnea 1922" d="M-.4,9.047H-2V-2H-.4Z" transform="translate(471.747 8067.487)"/>
    <path id="Lnea_1923" data-name="Lnea 1923" d="M-.4,9.047H-2V-2H-.4Z" transform="translate(494.475 8067.487)"/>
    <path id="Lnea_1924" data-name="Lnea 1924" d="M-.4,267.413H-2V-2H-.4Z" transform="translate(483.383 8301.638)"/>
    <path id="Lnea_1925" data-name="Lnea 1925" d="M9.047-.4H-2V-2H9.047Z" transform="translate(478.384 8301.638)"/>
    <path id="Lnea_1926" data-name="Lnea 1926" d="M9.047-.4H-2V-2H9.047Z" transform="translate(478.384 8569.454)"/>
    <path id="Trazado_904229" data-name="Trazado 904229" d="M0,0H511.526V714.851H0Z" transform="translate(228.735 7863.416)" fill="none"/>
  </g>
</svg>
