<svg xmlns="http://www.w3.org/2000/svg" width="359.614" height="516.752" viewBox="0 0 359.614 516.752">
  <g id="Grupo_1115164" data-name="Grupo 1115164" transform="translate(-971.026 -4504.188)">
    <path id="Trazado_905081" data-name="Trazado 905081" d="M7.349,0H.827V-.909L4.272-4.737A8.185,8.185,0,0,0,5.329-6.149a2.356,2.356,0,0,0,.291-1.125,1.786,1.786,0,0,0-.472-1.278,1.649,1.649,0,0,0-1.258-.5,1.953,1.953,0,0,0-1.466.537A2.05,2.05,0,0,0,1.9-7.021H.636a2.936,2.936,0,0,1,.885-2.222A3.282,3.282,0,0,1,3.89-10.09a3.153,3.153,0,0,1,2.194.728,2.483,2.483,0,0,1,.807,1.938q0,1.47-1.873,3.5L2.352-1.032h5Zm7.9-.9a1.822,1.822,0,0,0,1.183-.41,1.443,1.443,0,0,0,.561-1.025h1.2a2.293,2.293,0,0,1-.437,1.21,2.881,2.881,0,0,1-1.077.916,3.107,3.107,0,0,1-1.425.342,3.047,3.047,0,0,1-2.4-1.008,4.016,4.016,0,0,1-.892-2.758v-.212a4.453,4.453,0,0,1,.4-1.921,3.02,3.02,0,0,1,1.138-1.306,3.233,3.233,0,0,1,1.753-.465,2.966,2.966,0,0,1,2.068.745,2.663,2.663,0,0,1,.878,1.935h-1.2a1.743,1.743,0,0,0-.543-1.179,1.691,1.691,0,0,0-1.207-.461A1.77,1.77,0,0,0,13.75-5.8a3.259,3.259,0,0,0-.53,2.006v.239a3.194,3.194,0,0,0,.526,1.969A1.779,1.779,0,0,0,15.251-.9ZM20.8-7.4l.034.82a2.732,2.732,0,0,1,2.194-.957,2.115,2.115,0,0,1,2.112,1.189,2.8,2.8,0,0,1,.96-.861,2.837,2.837,0,0,1,1.4-.328q2.434,0,2.475,2.577V0H28.711V-4.881a1.7,1.7,0,0,0-.362-1.186,1.6,1.6,0,0,0-1.217-.393,1.677,1.677,0,0,0-1.169.42,1.706,1.706,0,0,0-.54,1.131V0H24.151V-4.847A1.411,1.411,0,0,0,22.572-6.46a1.692,1.692,0,0,0-1.7,1.06V0H19.605V-7.4Z" transform="translate(1177.775 4551.147)"/>
    <path id="Trazado_905082" data-name="Trazado 905082" d="M0,0H30.926V15.77H0Z" transform="translate(1177.775 4539.171)" fill="none"/>
    <path id="Trazado_905083" data-name="Trazado 905083" d="M0,0H30.926V15.77H0Z" transform="translate(1177.775 4539.171)" fill="none"/>
    <path id="Trazado_905084" data-name="Trazado 905084" d="M2.848,0H2.121V-4.816L.664-4.281v-.656l2.07-.777h.113ZM8.715-.512a1.041,1.041,0,0,0,.676-.234.825.825,0,0,0,.32-.586h.684a1.31,1.31,0,0,1-.25.691,1.647,1.647,0,0,1-.615.523,1.775,1.775,0,0,1-.814.2A1.741,1.741,0,0,1,7.342-.5a2.3,2.3,0,0,1-.51-1.576V-2.2a2.545,2.545,0,0,1,.227-1.1,1.726,1.726,0,0,1,.65-.746,1.848,1.848,0,0,1,1-.266,1.7,1.7,0,0,1,1.182.426,1.522,1.522,0,0,1,.5,1.105H9.711A1,1,0,0,0,9.4-3.447a.966.966,0,0,0-.689-.264,1.011,1.011,0,0,0-.854.4,1.862,1.862,0,0,0-.3,1.146v.137a1.825,1.825,0,0,0,.3,1.125A1.016,1.016,0,0,0,8.715-.512Zm3.172-3.715.02.469A1.561,1.561,0,0,1,13.16-4.3a1.208,1.208,0,0,1,1.207.68,1.6,1.6,0,0,1,.549-.492,1.621,1.621,0,0,1,.8-.187q1.391,0,1.414,1.473V0h-.723V-2.789a.97.97,0,0,0-.207-.678.912.912,0,0,0-.7-.225.958.958,0,0,0-.668.24.975.975,0,0,0-.309.646V0H13.8V-2.77a.806.806,0,0,0-.9-.922.967.967,0,0,0-.973.605V0H11.2V-4.227Z" transform="matrix(0.949, 0.314, -0.314, 0.949, 1098.474, 4534.226)"/>
    <path id="Trazado_905085" data-name="Trazado 905085" d="M0,0H19.607V14.1H0Z" transform="translate(1097.794 4527.729)" fill="none"/>
    <path id="Trazado_905086" data-name="Trazado 905086" d="M0,0H19.607V14.1H0Z" transform="translate(1097.794 4527.729)" fill="none"/>
    <path id="Trazado_905091" data-name="Trazado 905091" d="M3.523-1.91h.789v.59H3.523V0H2.8V-1.32H.207v-.426L2.754-5.687h.77Zm-2.5,0H2.8V-4.7l-.086.156Zm7.687,1.4a1.041,1.041,0,0,0,.676-.234.825.825,0,0,0,.32-.586h.684a1.31,1.31,0,0,1-.25.691,1.647,1.647,0,0,1-.615.523,1.775,1.775,0,0,1-.814.2A1.741,1.741,0,0,1,7.342-.5a2.3,2.3,0,0,1-.51-1.576V-2.2a2.545,2.545,0,0,1,.227-1.1,1.726,1.726,0,0,1,.65-.746,1.848,1.848,0,0,1,1-.266,1.7,1.7,0,0,1,1.182.426,1.522,1.522,0,0,1,.5,1.105H9.711A1,1,0,0,0,9.4-3.447a.966.966,0,0,0-.689-.264,1.011,1.011,0,0,0-.854.4,1.862,1.862,0,0,0-.3,1.146v.137a1.825,1.825,0,0,0,.3,1.125A1.016,1.016,0,0,0,8.715-.512Zm3.172-3.715.02.469A1.561,1.561,0,0,1,13.16-4.3a1.208,1.208,0,0,1,1.207.68,1.6,1.6,0,0,1,.549-.492,1.621,1.621,0,0,1,.8-.187q1.391,0,1.414,1.473V0h-.723V-2.789a.97.97,0,0,0-.207-.678.912.912,0,0,0-.7-.225.958.958,0,0,0-.668.24.975.975,0,0,0-.309.646V0H13.8V-2.77a.806.806,0,0,0-.9-.922.967.967,0,0,0-.973.605V0H11.2V-4.227Z" transform="matrix(0.949, 0.314, -0.314, 0.949, 1069.667, 4522.6)"/>
    <path id="Trazado_905092" data-name="Trazado 905092" d="M0,0H19.608V14.1H0Z" transform="translate(1068.986 4516.103)" fill="none"/>
    <path id="Trazado_905093" data-name="Trazado 905093" d="M0,0H19.608V14.1H0Z" transform="translate(1068.986 4516.103)" fill="none"/>
    <path id="Trazado_905027" data-name="Trazado 905027" d="M7.349,0H.827V-.909L4.272-4.737A8.185,8.185,0,0,0,5.329-6.149a2.356,2.356,0,0,0,.291-1.125,1.786,1.786,0,0,0-.472-1.278,1.649,1.649,0,0,0-1.258-.5,1.953,1.953,0,0,0-1.466.537A2.05,2.05,0,0,0,1.9-7.021H.636a2.936,2.936,0,0,1,.885-2.222A3.282,3.282,0,0,1,3.89-10.09a3.153,3.153,0,0,1,2.194.728,2.483,2.483,0,0,1,.807,1.938q0,1.47-1.873,3.5L2.352-1.032h5Zm4.6-3.767a4.369,4.369,0,0,1,.427-1.955,3.187,3.187,0,0,1,1.189-1.34,3.238,3.238,0,0,1,1.74-.472A3.119,3.119,0,0,1,17.75-6.487a4.024,4.024,0,0,1,.933,2.782v.089a4.407,4.407,0,0,1-.414,1.938A3.14,3.14,0,0,1,17.086-.342a3.275,3.275,0,0,1-1.767.479A3.111,3.111,0,0,1,12.882-.909a4,4,0,0,1-.933-2.769Zm1.271.15a3.164,3.164,0,0,0,.571,1.976A1.827,1.827,0,0,0,15.319-.9a1.816,1.816,0,0,0,1.531-.755,3.46,3.46,0,0,0,.567-2.116,3.159,3.159,0,0,0-.578-1.972,1.836,1.836,0,0,0-1.535-.755,1.816,1.816,0,0,0-1.511.745A3.434,3.434,0,0,0,13.221-3.616Zm2.659-6.87h1.531l-1.832,2.01-1.019,0ZM27.761,0H26.489V-8.429l-2.55.937V-8.641L27.563-10h.2ZM38.028-.9a1.822,1.822,0,0,0,1.183-.41,1.443,1.443,0,0,0,.561-1.025h1.2a2.293,2.293,0,0,1-.437,1.21,2.881,2.881,0,0,1-1.077.916,3.107,3.107,0,0,1-1.425.342,3.047,3.047,0,0,1-2.4-1.008,4.016,4.016,0,0,1-.892-2.758v-.212a4.453,4.453,0,0,1,.4-1.921,3.02,3.02,0,0,1,1.138-1.306,3.233,3.233,0,0,1,1.753-.465,2.966,2.966,0,0,1,2.068.745,2.663,2.663,0,0,1,.878,1.935h-1.2a1.743,1.743,0,0,0-.543-1.179,1.691,1.691,0,0,0-1.207-.461,1.77,1.77,0,0,0-1.494.694A3.259,3.259,0,0,0,36-3.794v.239a3.194,3.194,0,0,0,.526,1.969A1.779,1.779,0,0,0,38.028-.9Zm5.551-6.5.034.82a2.732,2.732,0,0,1,2.194-.957A2.115,2.115,0,0,1,47.92-6.344a2.8,2.8,0,0,1,.96-.861,2.837,2.837,0,0,1,1.4-.328q2.434,0,2.475,2.577V0H51.488V-4.881a1.7,1.7,0,0,0-.362-1.186,1.6,1.6,0,0,0-1.217-.393,1.677,1.677,0,0,0-1.169.42,1.706,1.706,0,0,0-.54,1.131V0H46.929V-4.847A1.411,1.411,0,0,0,45.35-6.46a1.692,1.692,0,0,0-1.7,1.06V0H42.383V-7.4Z" transform="translate(1161.979 4676.409)"/>
    <path id="Trazado_905028" data-name="Trazado 905028" d="M0,0H53.724V15.771H0Z" transform="translate(1161.979 4664.433)" fill="none"/>
    <path id="Trazado_905029" data-name="Trazado 905029" d="M0,0H53.724V15.771H0Z" transform="translate(1161.979 4664.433)" fill="none"/>
    <path id="Trazado_905030" data-name="Trazado 905030" d="M6.824,0H.768V-.844L3.967-4.4A7.6,7.6,0,0,0,4.948-5.71a2.188,2.188,0,0,0,.27-1.044A1.658,1.658,0,0,0,4.78-7.941,1.531,1.531,0,0,0,3.612-8.4a1.814,1.814,0,0,0-1.362.5,1.9,1.9,0,0,0-.486,1.387H.59a2.726,2.726,0,0,1,.822-2.063,3.047,3.047,0,0,1,2.2-.787,2.928,2.928,0,0,1,2.038.676,2.306,2.306,0,0,1,.749,1.8,5.287,5.287,0,0,1-1.739,3.25L2.184-.958h4.64ZM17.38-.832a1.692,1.692,0,0,0,1.1-.381A1.34,1.34,0,0,0,19-2.165h1.111A2.13,2.13,0,0,1,19.7-1.041a2.676,2.676,0,0,1-1,.851A2.885,2.885,0,0,1,17.38.127a2.829,2.829,0,0,1-2.231-.936,3.729,3.729,0,0,1-.828-2.561v-.2a4.135,4.135,0,0,1,.368-1.784,2.8,2.8,0,0,1,1.057-1.212A3,3,0,0,1,17.374-7a2.755,2.755,0,0,1,1.92.692,2.473,2.473,0,0,1,.816,1.8H19a1.618,1.618,0,0,0-.5-1.095,1.57,1.57,0,0,0-1.12-.428,1.644,1.644,0,0,0-1.387.644,3.026,3.026,0,0,0-.492,1.863V-3.3a2.965,2.965,0,0,0,.489,1.828A1.651,1.651,0,0,0,17.38-.832Zm5.154-6.037.032.762A2.536,2.536,0,0,1,24.6-7a1.964,1.964,0,0,1,1.961,1.1,2.6,2.6,0,0,1,.892-.8,2.634,2.634,0,0,1,1.3-.3q2.26,0,2.3,2.393V0H29.878V-4.532a1.577,1.577,0,0,0-.336-1.1A1.482,1.482,0,0,0,28.412-6a1.557,1.557,0,0,0-1.085.39,1.584,1.584,0,0,0-.5,1.051V0H25.645V-4.5A1.31,1.31,0,0,0,24.178-6a1.571,1.571,0,0,0-1.581.984V0H21.423V-6.868Z" transform="translate(1188.646 4722.627)"/>
    <path id="Trazado_905031" data-name="Trazado 905031" d="M0,0H31.948V14.644H0Z" transform="translate(1188.646 4705.506)" fill="none"/>
    <path id="Trazado_905032" data-name="Trazado 905032" d="M0,0H31.948V14.644H0Z" transform="translate(1188.646 4705.506)" fill="none"/>
    <path id="Trazado_905055" data-name="Trazado 905055" d="M7.349,0H.827V-.909L4.272-4.737A8.185,8.185,0,0,0,5.329-6.149a2.356,2.356,0,0,0,.291-1.125,1.786,1.786,0,0,0-.472-1.278,1.649,1.649,0,0,0-1.258-.5,1.953,1.953,0,0,0-1.466.537A2.05,2.05,0,0,0,1.9-7.021H.636a2.936,2.936,0,0,1,.885-2.222A3.282,3.282,0,0,1,3.89-10.09a3.153,3.153,0,0,1,2.194.728,2.483,2.483,0,0,1,.807,1.938q0,1.47-1.873,3.5L2.352-1.032h5Zm7.9-.9a1.822,1.822,0,0,0,1.183-.41,1.443,1.443,0,0,0,.561-1.025h1.2a2.293,2.293,0,0,1-.437,1.21,2.881,2.881,0,0,1-1.077.916,3.107,3.107,0,0,1-1.425.342,3.047,3.047,0,0,1-2.4-1.008,4.016,4.016,0,0,1-.892-2.758v-.212a4.453,4.453,0,0,1,.4-1.921,3.02,3.02,0,0,1,1.138-1.306,3.233,3.233,0,0,1,1.753-.465,2.966,2.966,0,0,1,2.068.745,2.663,2.663,0,0,1,.878,1.935h-1.2a1.743,1.743,0,0,0-.543-1.179,1.691,1.691,0,0,0-1.207-.461A1.77,1.77,0,0,0,13.75-5.8a3.259,3.259,0,0,0-.53,2.006v.239a3.194,3.194,0,0,0,.526,1.969A1.779,1.779,0,0,0,15.251-.9ZM20.8-7.4l.034.82a2.732,2.732,0,0,1,2.194-.957,2.115,2.115,0,0,1,2.112,1.189,2.8,2.8,0,0,1,.96-.861,2.837,2.837,0,0,1,1.4-.328q2.434,0,2.475,2.577V0H28.711V-4.881a1.7,1.7,0,0,0-.362-1.186,1.6,1.6,0,0,0-1.217-.393,1.677,1.677,0,0,0-1.169.42,1.706,1.706,0,0,0-.54,1.131V0H24.151V-4.847A1.411,1.411,0,0,0,22.572-6.46a1.692,1.692,0,0,0-1.7,1.06V0H19.605V-7.4Z" transform="translate(1174.774 4573.247)"/>
    <path id="Trazado_905056" data-name="Trazado 905056" d="M0,0H30.926V15.77H0Z" transform="translate(1177.774 4560.247)" fill="none"/>
    <path id="Trazado_905057" data-name="Trazado 905057" d="M0,0H30.926V15.77H0Z" transform="translate(1177.774 4560.247)" fill="none"/>
    <path id="Trazado_905020" data-name="Trazado 905020" d="M0,0H359.614V516.719H0Z" transform="translate(971.026 4504.188)" fill="none"/>
    <path id="Trazado_905061" data-name="Trazado 905061" d="M6.651-2.6H2.481L1.545,0H.191l3.8-9.953H5.141L8.948,0H7.6ZM2.878-3.678H6.262l-1.7-4.655ZM11.464,0H10.2V-10.5h1.265ZM15.2-9.187V-7.4h1.381v.978H15.2v4.593a1.027,1.027,0,0,0,.185.667.777.777,0,0,0,.629.222,3.062,3.062,0,0,0,.6-.082V0a3.688,3.688,0,0,1-.971.136,1.575,1.575,0,0,1-1.278-.513,2.2,2.2,0,0,1-.431-1.456V-6.419H12.592V-7.4h1.347V-9.187ZM22.627-.731A2.686,2.686,0,0,1,20.46.137a2.3,2.3,0,0,1-1.8-.687,2.974,2.974,0,0,1-.625-2.034V-7.4H19.3v4.778q0,1.682,1.367,1.682a1.893,1.893,0,0,0,1.928-1.08V-7.4h1.265V0h-1.2Zm6.727-5.53a3.79,3.79,0,0,0-.622-.048,1.667,1.667,0,0,0-1.688,1.06V0H25.778V-7.4h1.23l.021.854a1.969,1.969,0,0,1,1.764-.991,1.292,1.292,0,0,1,.561.1ZM34.809,0a2.657,2.657,0,0,1-.178-.779,2.822,2.822,0,0,1-2.105.916,2.611,2.611,0,0,1-1.794-.619,2,2,0,0,1-.7-1.569,2.091,2.091,0,0,1,.878-1.794,4.142,4.142,0,0,1,2.471-.639h1.23v-.581a1.42,1.42,0,0,0-.4-1.056,1.593,1.593,0,0,0-1.169-.393,1.844,1.844,0,0,0-1.135.342,1.007,1.007,0,0,0-.458.827H30.181a1.745,1.745,0,0,1,.393-1.07,2.683,2.683,0,0,1,1.066-.817,3.588,3.588,0,0,1,1.48-.3,2.924,2.924,0,0,1,2,.639,2.306,2.306,0,0,1,.752,1.76v3.4a4.162,4.162,0,0,0,.26,1.62V0Zm-2.1-.964a2.223,2.223,0,0,0,1.128-.308,1.861,1.861,0,0,0,.772-.8V-3.589h-.991q-2.324,0-2.324,1.36a1.151,1.151,0,0,0,.4.93A1.524,1.524,0,0,0,32.71-.964Zm8.306-2.8A4.333,4.333,0,0,1,41.822-6.5a2.551,2.551,0,0,1,2.112-1.036,2.565,2.565,0,0,1,2.058.889V-10.5h1.265V0H46.095l-.062-.793a2.575,2.575,0,0,1-2.112.93,2.526,2.526,0,0,1-2.1-1.053,4.382,4.382,0,0,1-.81-2.748Zm1.265.144a3.281,3.281,0,0,0,.52,1.969,1.68,1.68,0,0,0,1.436.711,1.845,1.845,0,0,0,1.757-1.08v-3.4A1.859,1.859,0,0,0,44.249-6.46a1.687,1.687,0,0,0-1.449.718A3.612,3.612,0,0,0,42.28-3.616ZM52.288.137a3.232,3.232,0,0,1-2.447-.988A3.666,3.666,0,0,1,48.9-3.493v-.232a4.438,4.438,0,0,1,.42-1.965,3.28,3.28,0,0,1,1.176-1.354,2.956,2.956,0,0,1,1.637-.489,2.77,2.77,0,0,1,2.242.95,4.114,4.114,0,0,1,.8,2.721v.526H50.162A2.629,2.629,0,0,0,50.8-1.569,2.009,2.009,0,0,0,52.356-.9a2.2,2.2,0,0,0,1.135-.273,2.851,2.851,0,0,0,.813-.725l.772.6A3.106,3.106,0,0,1,52.288.137Zm-.157-6.631a1.687,1.687,0,0,0-1.285.557A2.708,2.708,0,0,0,50.2-4.375h3.705v-.1a2.409,2.409,0,0,0-.52-1.494A1.588,1.588,0,0,0,52.131-6.494ZM63.068-.9a1.822,1.822,0,0,0,1.183-.41,1.443,1.443,0,0,0,.561-1.025h1.2a2.293,2.293,0,0,1-.437,1.21,2.882,2.882,0,0,1-1.077.916,3.107,3.107,0,0,1-1.425.342,3.047,3.047,0,0,1-2.4-1.008,4.016,4.016,0,0,1-.892-2.758v-.212a4.453,4.453,0,0,1,.4-1.921,3.02,3.02,0,0,1,1.138-1.306,3.233,3.233,0,0,1,1.753-.465,2.966,2.966,0,0,1,2.068.745,2.663,2.663,0,0,1,.878,1.935h-1.2a1.743,1.743,0,0,0-.543-1.179,1.691,1.691,0,0,0-1.207-.461,1.77,1.77,0,0,0-1.494.694,3.259,3.259,0,0,0-.53,2.006v.239a3.194,3.194,0,0,0,.526,1.969A1.779,1.779,0,0,0,63.068-.9ZM72,0a2.657,2.657,0,0,1-.178-.779,2.822,2.822,0,0,1-2.105.916,2.611,2.611,0,0,1-1.794-.619,2,2,0,0,1-.7-1.569A2.091,2.091,0,0,1,68.1-3.845a4.141,4.141,0,0,1,2.471-.639H71.8v-.581a1.42,1.42,0,0,0-.4-1.056,1.593,1.593,0,0,0-1.169-.393,1.844,1.844,0,0,0-1.135.342,1.007,1.007,0,0,0-.458.827H67.368a1.745,1.745,0,0,1,.393-1.07,2.683,2.683,0,0,1,1.066-.817,3.588,3.588,0,0,1,1.48-.3,2.924,2.924,0,0,1,2,.639,2.306,2.306,0,0,1,.752,1.76v3.4a4.162,4.162,0,0,0,.26,1.62V0ZM69.9-.964a2.223,2.223,0,0,0,1.128-.308,1.861,1.861,0,0,0,.772-.8V-3.589h-.991q-2.324,0-2.324,1.36a1.151,1.151,0,0,0,.4.93A1.524,1.524,0,0,0,69.9-.964Zm4.84-2.8A4.333,4.333,0,0,1,75.544-6.5a2.551,2.551,0,0,1,2.112-1.036,2.565,2.565,0,0,1,2.058.889V-10.5h1.265V0H79.816l-.062-.793a2.575,2.575,0,0,1-2.112.93,2.526,2.526,0,0,1-2.1-1.053,4.382,4.382,0,0,1-.81-2.748ZM76-3.616a3.281,3.281,0,0,0,.52,1.969,1.68,1.68,0,0,0,1.436.711,1.845,1.845,0,0,0,1.757-1.08v-3.4A1.859,1.859,0,0,0,77.971-6.46a1.687,1.687,0,0,0-1.449.718A3.612,3.612,0,0,0,76-3.616ZM86.01.137a3.232,3.232,0,0,1-2.447-.988,3.666,3.666,0,0,1-.943-2.642v-.232a4.438,4.438,0,0,1,.42-1.965,3.28,3.28,0,0,1,1.176-1.354,2.956,2.956,0,0,1,1.637-.489,2.77,2.77,0,0,1,2.242.95,4.114,4.114,0,0,1,.8,2.721v.526H83.884a2.629,2.629,0,0,0,.639,1.767A2.009,2.009,0,0,0,86.078-.9a2.2,2.2,0,0,0,1.135-.273,2.851,2.851,0,0,0,.813-.725l.772.6A3.106,3.106,0,0,1,86.01.137Zm-.157-6.631a1.687,1.687,0,0,0-1.285.557,2.708,2.708,0,0,0-.643,1.562H87.63v-.1a2.409,2.409,0,0,0-.52-1.494A1.588,1.588,0,0,0,85.853-6.494Zm8.08.232a3.79,3.79,0,0,0-.622-.048,1.667,1.667,0,0,0-1.688,1.06V0H90.357V-7.4h1.23l.021.854a1.969,1.969,0,0,1,1.764-.991,1.292,1.292,0,0,1,.561.1ZM99.388,0a2.657,2.657,0,0,1-.178-.779A2.822,2.822,0,0,1,97.1.137,2.611,2.611,0,0,1,95.31-.482a2,2,0,0,1-.7-1.569,2.091,2.091,0,0,1,.878-1.794,4.141,4.141,0,0,1,2.471-.639h1.23v-.581a1.42,1.42,0,0,0-.4-1.056,1.593,1.593,0,0,0-1.169-.393,1.844,1.844,0,0,0-1.135.342,1.007,1.007,0,0,0-.458.827H94.76a1.745,1.745,0,0,1,.393-1.07,2.683,2.683,0,0,1,1.066-.817,3.588,3.588,0,0,1,1.48-.3,2.924,2.924,0,0,1,2,.639,2.306,2.306,0,0,1,.752,1.76v3.4a4.162,4.162,0,0,0,.26,1.62V0Zm-2.1-.964a2.223,2.223,0,0,0,1.128-.308,1.861,1.861,0,0,0,.772-.8V-3.589H98.2q-2.324,0-2.324,1.36a1.151,1.151,0,0,0,.4.93A1.524,1.524,0,0,0,97.289-.964Zm12.236-4.375H112.3v1.2h-2.775V-1h-1.271V-4.143h-2.775v-1.2h2.775V-8.244h1.271Zm13.686-2.017a2.311,2.311,0,0,1-.393,1.326,2.674,2.674,0,0,1-1.063.909,2.853,2.853,0,0,1,1.234.978,2.46,2.46,0,0,1,.455,1.456,2.6,2.6,0,0,1-.872,2.058,3.349,3.349,0,0,1-2.293.766,3.334,3.334,0,0,1-2.3-.769,2.613,2.613,0,0,1-.865-2.054,2.533,2.533,0,0,1,.441-1.456,2.744,2.744,0,0,1,1.22-.984,2.608,2.608,0,0,1-1.046-.909,2.344,2.344,0,0,1-.383-1.319,2.573,2.573,0,0,1,.807-2,3.026,3.026,0,0,1,2.126-.738,3.029,3.029,0,0,1,2.123.738A2.567,2.567,0,0,1,123.211-7.355Zm-1.032,4.642a1.834,1.834,0,0,0-.53-1.36,1.879,1.879,0,0,0-1.384-.526,1.846,1.846,0,0,0-1.371.52,1.855,1.855,0,0,0-.516,1.367,1.767,1.767,0,0,0,.5,1.333,1.929,1.929,0,0,0,1.4.485,1.923,1.923,0,0,0,1.395-.489A1.763,1.763,0,0,0,122.179-2.714Zm-1.9-6.337a1.632,1.632,0,0,0-1.207.461,1.7,1.7,0,0,0-.461,1.254,1.687,1.687,0,0,0,.455,1.227,1.613,1.613,0,0,0,1.213.468,1.613,1.613,0,0,0,1.213-.468,1.687,1.687,0,0,0,.455-1.227,1.687,1.687,0,0,0-.472-1.237A1.609,1.609,0,0,0,120.278-9.051ZM131.6-.9a1.822,1.822,0,0,0,1.183-.41,1.443,1.443,0,0,0,.561-1.025h1.2a2.293,2.293,0,0,1-.437,1.21,2.881,2.881,0,0,1-1.077.916A3.107,3.107,0,0,1,131.6.137a3.047,3.047,0,0,1-2.4-1.008A4.016,4.016,0,0,1,128.3-3.63v-.212a4.453,4.453,0,0,1,.4-1.921,3.02,3.02,0,0,1,1.138-1.306,3.233,3.233,0,0,1,1.753-.465,2.966,2.966,0,0,1,2.068.745,2.663,2.663,0,0,1,.878,1.935h-1.2a1.743,1.743,0,0,0-.543-1.179,1.691,1.691,0,0,0-1.207-.461A1.77,1.77,0,0,0,130.1-5.8a3.259,3.259,0,0,0-.53,2.006v.239a3.194,3.194,0,0,0,.526,1.969A1.779,1.779,0,0,0,131.6-.9Zm5.551-6.5.034.82a2.732,2.732,0,0,1,2.194-.957,2.115,2.115,0,0,1,2.112,1.189,2.8,2.8,0,0,1,.96-.861,2.837,2.837,0,0,1,1.4-.328q2.434,0,2.475,2.577V0h-1.265V-4.881a1.7,1.7,0,0,0-.362-1.186,1.6,1.6,0,0,0-1.217-.393,1.677,1.677,0,0,0-1.169.42,1.706,1.706,0,0,0-.54,1.131V0H140.5V-4.847A1.411,1.411,0,0,0,138.92-6.46a1.692,1.692,0,0,0-1.7,1.06V0h-1.265V-7.4Z" transform="translate(983.199 5007.579) rotate(-90)"/>
    <path id="Trazado_905062" data-name="Trazado 905062" d="M0,0H15.77V150.172H0Z" transform="translate(971.223 4857.408)" fill="none"/>
    <path id="Trazado_905063" data-name="Trazado 905063" d="M0,0H15.77V150.172H0Z" transform="translate(971.223 4857.408)" fill="none"/>
    <path id="Trazado_905021" data-name="Trazado 905021" d="M0,0H341.028V514.961H0Z" transform="translate(971.026 4505.839)" fill="none"/>
    <path id="Trazado_905094" data-name="Trazado 905094" d="M4.983,0H3.712V-8.429l-2.55.937V-8.641L4.785-10h.2ZM14.93-4.245a5.784,5.784,0,0,1-.759,3.3A2.7,2.7,0,0,1,11.8.137,2.718,2.718,0,0,1,9.44-.919a5.49,5.49,0,0,1-.793-3.155V-5.763a5.655,5.655,0,0,1,.759-3.261,2.719,2.719,0,0,1,2.379-1.066A2.744,2.744,0,0,1,14.15-9.061a5.458,5.458,0,0,1,.779,3.175ZM13.665-5.975a4.634,4.634,0,0,0-.451-2.341,1.553,1.553,0,0,0-1.429-.735,1.532,1.532,0,0,0-1.415.731A4.525,4.525,0,0,0,9.912-6.07v2.023a4.708,4.708,0,0,0,.468,2.382A1.55,1.55,0,0,0,11.8-.9,1.529,1.529,0,0,0,13.19-1.62,4.538,4.538,0,0,0,13.665-3.9ZM23.112-.9a1.822,1.822,0,0,0,1.183-.41,1.443,1.443,0,0,0,.561-1.025h1.2a2.293,2.293,0,0,1-.437,1.21,2.881,2.881,0,0,1-1.077.916,3.107,3.107,0,0,1-1.425.342,3.047,3.047,0,0,1-2.4-1.008,4.016,4.016,0,0,1-.892-2.758v-.212a4.453,4.453,0,0,1,.4-1.921,3.02,3.02,0,0,1,1.138-1.306,3.233,3.233,0,0,1,1.753-.465,2.966,2.966,0,0,1,2.068.745,2.663,2.663,0,0,1,.878,1.935h-1.2a1.743,1.743,0,0,0-.543-1.179,1.691,1.691,0,0,0-1.207-.461,1.77,1.77,0,0,0-1.494.694,3.259,3.259,0,0,0-.53,2.006v.239a3.194,3.194,0,0,0,.526,1.969A1.779,1.779,0,0,0,23.112-.9Zm5.551-6.5.034.82a2.732,2.732,0,0,1,2.194-.957A2.115,2.115,0,0,1,33-6.344a2.8,2.8,0,0,1,.96-.861,2.837,2.837,0,0,1,1.4-.328q2.434,0,2.475,2.577V0H36.572V-4.881a1.7,1.7,0,0,0-.362-1.186,1.6,1.6,0,0,0-1.217-.393,1.677,1.677,0,0,0-1.169.42,1.706,1.706,0,0,0-.54,1.131V0H32.013V-4.847A1.411,1.411,0,0,0,30.434-6.46a1.692,1.692,0,0,0-1.7,1.06V0H27.467V-7.4Z" transform="translate(1107.734 4518.013)"/>
    <path id="Trazado_905095" data-name="Trazado 905095" d="M0,0H38.808V15.77H0Z" transform="translate(1107.734 4506.037)" fill="none"/>
    <path id="Trazado_905096" data-name="Trazado 905096" d="M0,0H38.808V15.77H0Z" transform="translate(1107.734 4506.037)" fill="none"/>
    <path id="Trazado_905022" data-name="Trazado 905022" d="M0,0H341.028V514.961H0Z" transform="translate(971.026 4505.839)" fill="none"/>
    <path id="Trazado_905064" data-name="Trazado 905064" d="M8.8,0H7.485L2.475-7.67V0H1.155V-9.953H2.475L7.5-2.249v-7.7H8.8Zm6.7-.731a2.686,2.686,0,0,1-2.167.868,2.3,2.3,0,0,1-1.8-.687,2.974,2.974,0,0,1-.625-2.034V-7.4h1.265v4.778q0,1.682,1.367,1.682a1.893,1.893,0,0,0,1.928-1.08V-7.4h1.265V0h-1.2Z" transform="translate(1222.317 4553.196)"/>
    <path id="Trazado_905065" data-name="Trazado 905065" d="M0,0H17.815V15.771H0Z" transform="translate(1222.317 4541.22)" fill="none"/>
    <path id="Trazado_905066" data-name="Trazado 905066" d="M4.026.137A3.232,3.232,0,0,1,1.579-.851,3.666,3.666,0,0,1,.636-3.493v-.232a4.438,4.438,0,0,1,.42-1.965A3.28,3.28,0,0,1,2.232-7.044a2.956,2.956,0,0,1,1.637-.489,2.77,2.77,0,0,1,2.242.95,4.114,4.114,0,0,1,.8,2.721v.526H1.9A2.629,2.629,0,0,0,2.54-1.569,2.009,2.009,0,0,0,4.095-.9a2.2,2.2,0,0,0,1.135-.273,2.851,2.851,0,0,0,.813-.725l.772.6A3.106,3.106,0,0,1,4.026.137ZM3.869-6.494a1.687,1.687,0,0,0-1.285.557,2.708,2.708,0,0,0-.643,1.562H5.646v-.1a2.409,2.409,0,0,0-.52-1.494A1.588,1.588,0,0,0,3.869-6.494Z" transform="translate(1240.132 4553.196)"/>
    <path id="Trazado_905067" data-name="Trazado 905067" d="M0,0H7.328V15.771H0Z" transform="translate(1240.132 4541.22)" fill="none"/>
    <path id="Trazado_905068" data-name="Trazado 905068" d="M3.4-1.716,5.229-7.4H6.521L3.869,0H2.905L.226-7.4H1.518Z" transform="translate(1247.376 4553.196)"/>
    <path id="Trazado_905069" data-name="Trazado 905069" d="M0,0H7.041V15.771H0Z" transform="translate(1247.376 4541.22)" fill="none"/>
    <path id="Trazado_905070" data-name="Trazado 905070" d="M5.523,0a2.657,2.657,0,0,1-.178-.779A2.822,2.822,0,0,1,3.24.137,2.611,2.611,0,0,1,1.446-.482a2,2,0,0,1-.7-1.569,2.091,2.091,0,0,1,.878-1.794,4.142,4.142,0,0,1,2.471-.639h1.23v-.581a1.42,1.42,0,0,0-.4-1.056A1.593,1.593,0,0,0,3.76-6.515a1.844,1.844,0,0,0-1.135.342,1.007,1.007,0,0,0-.458.827H.9a1.745,1.745,0,0,1,.393-1.07,2.683,2.683,0,0,1,1.066-.817,3.588,3.588,0,0,1,1.48-.3,2.924,2.924,0,0,1,2,.639,2.306,2.306,0,0,1,.752,1.76v3.4a4.162,4.162,0,0,0,.26,1.62V0Zm-2.1-.964a2.223,2.223,0,0,0,1.128-.308,1.861,1.861,0,0,0,.772-.8V-3.589H4.334q-2.324,0-2.324,1.36a1.151,1.151,0,0,0,.4.93A1.524,1.524,0,0,0,3.425-.964ZM13.412,0H12.147V-10.5h1.265Zm3.4,0H15.545V-7.4H16.81ZM15.442-9.358a.755.755,0,0,1,.188-.52.706.706,0,0,1,.557-.212.717.717,0,0,1,.561.212.747.747,0,0,1,.191.52.722.722,0,0,1-.191.513.73.73,0,0,1-.561.205.718.718,0,0,1-.557-.205A.73.73,0,0,1,15.442-9.358ZM20.029-7.4l.041.93a2.7,2.7,0,0,1,2.215-1.066q2.345,0,2.365,2.646V0H23.386V-4.895a1.7,1.7,0,0,0-.366-1.183A1.466,1.466,0,0,0,21.9-6.46a1.825,1.825,0,0,0-1.08.328,2.228,2.228,0,0,0-.725.861V0H18.833V-7.4Zm9.6,7.533A3.232,3.232,0,0,1,27.18-.851a3.666,3.666,0,0,1-.943-2.642v-.232a4.438,4.438,0,0,1,.42-1.965,3.28,3.28,0,0,1,1.176-1.354,2.956,2.956,0,0,1,1.637-.489,2.77,2.77,0,0,1,2.242.95,4.114,4.114,0,0,1,.8,2.721v.526H27.5a2.629,2.629,0,0,0,.639,1.767A2.009,2.009,0,0,0,29.7-.9a2.2,2.2,0,0,0,1.135-.273,2.851,2.851,0,0,0,.813-.725l.772.6A3.106,3.106,0,0,1,29.627.137ZM29.47-6.494a1.687,1.687,0,0,0-1.285.557,2.708,2.708,0,0,0-.643,1.562h3.705v-.1a2.409,2.409,0,0,0-.52-1.494A1.588,1.588,0,0,0,29.47-6.494ZM38.541,0a2.657,2.657,0,0,1-.178-.779,2.822,2.822,0,0,1-2.105.916,2.611,2.611,0,0,1-1.794-.619,2,2,0,0,1-.7-1.569,2.091,2.091,0,0,1,.878-1.794,4.142,4.142,0,0,1,2.471-.639h1.23v-.581a1.42,1.42,0,0,0-.4-1.056,1.593,1.593,0,0,0-1.169-.393,1.844,1.844,0,0,0-1.135.342,1.007,1.007,0,0,0-.458.827H33.913a1.745,1.745,0,0,1,.393-1.07,2.683,2.683,0,0,1,1.066-.817,3.588,3.588,0,0,1,1.48-.3,2.924,2.924,0,0,1,2,.639,2.306,2.306,0,0,1,.752,1.76v3.4a4.162,4.162,0,0,0,.26,1.62V0Zm-2.1-.964a2.223,2.223,0,0,0,1.128-.308,1.861,1.861,0,0,0,.772-.8V-3.589h-.991q-2.324,0-2.324,1.36a1.151,1.151,0,0,0,.4.93A1.524,1.524,0,0,0,36.442-.964Z" transform="translate(1254.319 4553.196)"/>
    <path id="Trazado_905071" data-name="Trazado 905071" d="M0,0H41.215V15.771H0Z" transform="translate(1254.318 4541.22)" fill="none"/>
    <path id="Trazado_905072" data-name="Trazado 905072" d="M0,0H73.216V15.771H0Z" transform="translate(1222.317 4541.22)" fill="none"/>
    <path id="Trazado_905073" data-name="Trazado 905073" d="M.649-3.76A4.333,4.333,0,0,1,1.456-6.5,2.551,2.551,0,0,1,3.568-7.533a2.565,2.565,0,0,1,2.058.889V-10.5H6.891V0H5.729L5.667-.793a2.575,2.575,0,0,1-2.112.93,2.526,2.526,0,0,1-2.1-1.053,4.382,4.382,0,0,1-.81-2.748Zm1.265.144a3.281,3.281,0,0,0,.52,1.969,1.68,1.68,0,0,0,1.436.711,1.845,1.845,0,0,0,1.757-1.08v-3.4A1.859,1.859,0,0,0,3.883-6.46a1.687,1.687,0,0,0-1.449.718A3.612,3.612,0,0,0,1.914-3.616ZM11.922.137A3.232,3.232,0,0,1,9.475-.851a3.666,3.666,0,0,1-.943-2.642v-.232a4.438,4.438,0,0,1,.42-1.965,3.28,3.28,0,0,1,1.176-1.354,2.956,2.956,0,0,1,1.637-.489,2.77,2.77,0,0,1,2.242.95,4.114,4.114,0,0,1,.8,2.721v.526H9.8a2.629,2.629,0,0,0,.639,1.767A2.009,2.009,0,0,0,11.99-.9a2.2,2.2,0,0,0,1.135-.273,2.851,2.851,0,0,0,.813-.725l.772.6A3.106,3.106,0,0,1,11.922.137Zm-.157-6.631a1.687,1.687,0,0,0-1.285.557,2.708,2.708,0,0,0-.643,1.562h3.705v-.1a2.409,2.409,0,0,0-.52-1.494A1.588,1.588,0,0,0,11.765-6.494ZM21-6.5a2.689,2.689,0,0,1,2.188-1.032q2.345,0,2.365,2.646V0H24.288V-4.895a1.7,1.7,0,0,0-.366-1.183A1.466,1.466,0,0,0,22.8-6.46a1.825,1.825,0,0,0-1.08.328A2.228,2.228,0,0,0,21-5.271V0H19.735V-10.5H21Zm6.111,2.734a4.369,4.369,0,0,1,.427-1.955,3.187,3.187,0,0,1,1.189-1.34,3.238,3.238,0,0,1,1.74-.472,3.119,3.119,0,0,1,2.444,1.046,4.024,4.024,0,0,1,.933,2.782v.089a4.407,4.407,0,0,1-.414,1.938A3.14,3.14,0,0,1,32.249-.342a3.275,3.275,0,0,1-1.767.479A3.111,3.111,0,0,1,28.044-.909a4,4,0,0,1-.933-2.769Zm1.271.15a3.164,3.164,0,0,0,.571,1.976A1.827,1.827,0,0,0,30.481-.9a1.816,1.816,0,0,0,1.531-.755,3.46,3.46,0,0,0,.567-2.116A3.159,3.159,0,0,0,32-5.739a1.836,1.836,0,0,0-1.535-.755,1.816,1.816,0,0,0-1.511.745A3.434,3.434,0,0,0,28.383-3.616ZM36.62-7.4l.034.82a2.732,2.732,0,0,1,2.194-.957,2.115,2.115,0,0,1,2.112,1.189,2.8,2.8,0,0,1,.96-.861,2.837,2.837,0,0,1,1.4-.328q2.434,0,2.475,2.577V0H44.529V-4.881a1.7,1.7,0,0,0-.362-1.186A1.6,1.6,0,0,0,42.95-6.46a1.677,1.677,0,0,0-1.169.42,1.706,1.706,0,0,0-.54,1.131V0H39.97V-4.847A1.411,1.411,0,0,0,38.391-6.46a1.692,1.692,0,0,0-1.7,1.06V0H35.424V-7.4Zm17.343,3.78a4.4,4.4,0,0,1-.779,2.724A2.49,2.49,0,0,1,51.092.137a2.578,2.578,0,0,1-2.167-.991L48.863,0H47.7V-10.5h1.265v3.917a2.564,2.564,0,0,1,2.112-.95,2.505,2.505,0,0,1,2.116,1.019,4.53,4.53,0,0,1,.769,2.789ZM52.7-3.76a3.417,3.417,0,0,0-.5-2,1.652,1.652,0,0,0-1.436-.7,1.857,1.857,0,0,0-1.8,1.162v3.2A1.909,1.909,0,0,0,50.777-.937a1.643,1.643,0,0,0,1.415-.7A3.634,3.634,0,0,0,52.7-3.76Zm6.433-2.5a3.79,3.79,0,0,0-.622-.048A1.667,1.667,0,0,0,56.82-5.25V0H55.556V-7.4h1.23l.021.854a1.969,1.969,0,0,1,1.764-.991,1.292,1.292,0,0,1,.561.1Zm.69,2.5a4.369,4.369,0,0,1,.427-1.955,3.187,3.187,0,0,1,1.189-1.34,3.238,3.238,0,0,1,1.74-.472,3.119,3.119,0,0,1,2.444,1.046,4.024,4.024,0,0,1,.933,2.782v.089a4.407,4.407,0,0,1-.414,1.938A3.14,3.14,0,0,1,64.958-.342a3.275,3.275,0,0,1-1.767.479A3.111,3.111,0,0,1,60.754-.909a4,4,0,0,1-.933-2.769Zm1.271.15a3.164,3.164,0,0,0,.571,1.976A1.827,1.827,0,0,0,63.191-.9a1.816,1.816,0,0,0,1.531-.755,3.46,3.46,0,0,0,.567-2.116,3.159,3.159,0,0,0-.578-1.972,1.836,1.836,0,0,0-1.535-.755,1.816,1.816,0,0,0-1.511.745A3.434,3.434,0,0,0,61.093-3.616Z" transform="translate(1222.317 4567.85)"/>
    <path id="Trazado_905074" data-name="Trazado 905074" d="M0,0H56.766V15.77H0Z" transform="translate(1222.317 4555.874)" fill="none"/>
    <path id="Trazado_905075" data-name="Trazado 905075" d="M0,0H4.9V15.77H0Z" transform="translate(1279.083 4555.874)" fill="none"/>
    <path id="Trazado_905076" data-name="Trazado 905076" d="M0,0H7.957V15.77H0Z" transform="translate(1283.858 4555.874)" fill="none"/>
    <path id="Trazado_905077" data-name="Trazado 905077" d="M0,0H69.5V15.77H0Z" transform="translate(1222.317 4555.874)" fill="none"/>
    <path id="Trazado_905039" data-name="Trazado 905039" d="M2.475-1.073H7.191V0H1.155V-9.953H2.475ZM13.057,0a2.657,2.657,0,0,1-.178-.779,2.822,2.822,0,0,1-2.105.916A2.611,2.611,0,0,1,8.979-.482a2,2,0,0,1-.7-1.569,2.091,2.091,0,0,1,.878-1.794,4.142,4.142,0,0,1,2.471-.639h1.23v-.581a1.42,1.42,0,0,0-.4-1.056,1.593,1.593,0,0,0-1.169-.393,1.844,1.844,0,0,0-1.135.342,1.007,1.007,0,0,0-.458.827H8.429a1.745,1.745,0,0,1,.393-1.07,2.683,2.683,0,0,1,1.066-.817,3.588,3.588,0,0,1,1.48-.3,2.924,2.924,0,0,1,2,.639,2.306,2.306,0,0,1,.752,1.76v3.4a4.162,4.162,0,0,0,.26,1.62V0Zm-2.1-.964a2.223,2.223,0,0,0,1.128-.308,1.861,1.861,0,0,0,.772-.8V-3.589h-.991q-2.324,0-2.324,1.36a1.151,1.151,0,0,0,.4.93A1.524,1.524,0,0,0,10.958-.964Zm9.8-6.433.034.82a2.732,2.732,0,0,1,2.194-.957A2.115,2.115,0,0,1,25.1-6.344a2.8,2.8,0,0,1,.96-.861,2.837,2.837,0,0,1,1.4-.328q2.434,0,2.475,2.577V0H28.67V-4.881a1.7,1.7,0,0,0-.362-1.186,1.6,1.6,0,0,0-1.217-.393,1.677,1.677,0,0,0-1.169.42,1.706,1.706,0,0,0-.54,1.131V0H24.11V-4.847A1.411,1.411,0,0,0,22.531-6.46a1.692,1.692,0,0,0-1.7,1.06V0H19.564V-7.4ZM34.911.137a3.232,3.232,0,0,1-2.447-.988,3.666,3.666,0,0,1-.943-2.642v-.232a4.438,4.438,0,0,1,.42-1.965,3.28,3.28,0,0,1,1.176-1.354,2.956,2.956,0,0,1,1.637-.489A2.77,2.77,0,0,1,37-6.583a4.114,4.114,0,0,1,.8,2.721v.526H32.785a2.629,2.629,0,0,0,.639,1.767A2.009,2.009,0,0,0,34.979-.9a2.2,2.2,0,0,0,1.135-.273,2.851,2.851,0,0,0,.813-.725l.772.6A3.106,3.106,0,0,1,34.911.137Zm-.157-6.631a1.687,1.687,0,0,0-1.285.557,2.708,2.708,0,0,0-.643,1.562h3.705v-.1a2.409,2.409,0,0,0-.52-1.494A1.588,1.588,0,0,0,34.754-6.494Zm4.2,2.734A4.333,4.333,0,0,1,39.758-6.5,2.551,2.551,0,0,1,41.87-7.533a2.565,2.565,0,0,1,2.058.889V-10.5h1.265V0H44.03l-.062-.793a2.575,2.575,0,0,1-2.112.93,2.526,2.526,0,0,1-2.1-1.053,4.382,4.382,0,0,1-.81-2.748Zm1.265.144a3.281,3.281,0,0,0,.52,1.969,1.68,1.68,0,0,0,1.436.711,1.845,1.845,0,0,0,1.757-1.08v-3.4A1.859,1.859,0,0,0,42.185-6.46a1.687,1.687,0,0,0-1.449.718A3.612,3.612,0,0,0,40.216-3.616ZM48.528,0H47.264V-7.4h1.265ZM47.161-9.358a.755.755,0,0,1,.188-.52.706.706,0,0,1,.557-.212.717.717,0,0,1,.561.212.747.747,0,0,1,.191.52.722.722,0,0,1-.191.513.73.73,0,0,1-.561.205.718.718,0,0,1-.557-.205A.73.73,0,0,1,47.161-9.358Zm3.083,5.6A4.333,4.333,0,0,1,51.051-6.5a2.551,2.551,0,0,1,2.112-1.036,2.565,2.565,0,0,1,2.058.889V-10.5h1.265V0H55.323l-.062-.793a2.575,2.575,0,0,1-2.112.93,2.526,2.526,0,0,1-2.1-1.053,4.382,4.382,0,0,1-.81-2.748Zm1.265.144a3.281,3.281,0,0,0,.52,1.969,1.68,1.68,0,0,0,1.436.711,1.845,1.845,0,0,0,1.757-1.08v-3.4A1.859,1.859,0,0,0,53.478-6.46a1.687,1.687,0,0,0-1.449.718A3.612,3.612,0,0,0,51.509-3.616ZM63.014,0a2.657,2.657,0,0,1-.178-.779A2.822,2.822,0,0,1,60.73.137a2.611,2.611,0,0,1-1.794-.619,2,2,0,0,1-.7-1.569,2.091,2.091,0,0,1,.878-1.794,4.142,4.142,0,0,1,2.471-.639h1.23v-.581a1.42,1.42,0,0,0-.4-1.056,1.593,1.593,0,0,0-1.169-.393,1.844,1.844,0,0,0-1.135.342,1.007,1.007,0,0,0-.458.827H58.386a1.745,1.745,0,0,1,.393-1.07,2.683,2.683,0,0,1,1.066-.817,3.588,3.588,0,0,1,1.48-.3,2.924,2.924,0,0,1,2,.639,2.306,2.306,0,0,1,.752,1.76v3.4a4.162,4.162,0,0,0,.26,1.62V0Zm-2.1-.964a2.223,2.223,0,0,0,1.128-.308,1.861,1.861,0,0,0,.772-.8V-3.589h-.991q-2.324,0-2.324,1.36a1.151,1.151,0,0,0,.4.93A1.524,1.524,0,0,0,60.915-.964Zm8.306-2.8A4.333,4.333,0,0,1,70.027-6.5,2.551,2.551,0,0,1,72.14-7.533a2.565,2.565,0,0,1,2.058.889V-10.5h1.265V0H74.3l-.062-.793a2.575,2.575,0,0,1-2.112.93,2.526,2.526,0,0,1-2.1-1.053,4.382,4.382,0,0,1-.81-2.748Zm1.265.144A3.281,3.281,0,0,0,71-1.647a1.68,1.68,0,0,0,1.436.711A1.845,1.845,0,0,0,74.2-2.017v-3.4A1.859,1.859,0,0,0,72.454-6.46,1.687,1.687,0,0,0,71-5.742,3.612,3.612,0,0,0,70.485-3.616ZM80.493.137a3.232,3.232,0,0,1-2.447-.988A3.666,3.666,0,0,1,77.1-3.493v-.232a4.438,4.438,0,0,1,.42-1.965A3.28,3.28,0,0,1,78.7-7.044a2.956,2.956,0,0,1,1.637-.489,2.77,2.77,0,0,1,2.242.95,4.114,4.114,0,0,1,.8,2.721v.526H78.367a2.629,2.629,0,0,0,.639,1.767A2.009,2.009,0,0,0,80.562-.9,2.2,2.2,0,0,0,81.7-1.169a2.851,2.851,0,0,0,.813-.725l.772.6A3.106,3.106,0,0,1,80.493.137Zm-.157-6.631a1.687,1.687,0,0,0-1.285.557,2.708,2.708,0,0,0-.643,1.562h3.705v-.1a2.409,2.409,0,0,0-.52-1.494A1.588,1.588,0,0,0,80.336-6.494ZM86.215,0H84.95V-10.5h1.265Z" transform="translate(1170.093 4632.892)"/>
    <path id="Trazado_905040" data-name="Trazado 905040" d="M0,0H91.348V15.77H0Z" transform="translate(1170.093 4620.916)" fill="none"/>
    <path id="Trazado_905041" data-name="Trazado 905041" d="M4.532-6.262A3.79,3.79,0,0,0,3.91-6.31,1.667,1.667,0,0,0,2.222-5.25V0H.957V-7.4h1.23l.021.854a1.969,1.969,0,0,1,1.764-.991,1.292,1.292,0,0,1,.561.1Z" transform="translate(1261.441 4632.892)"/>
    <path id="Trazado_905042" data-name="Trazado 905042" d="M0,0H4.9V15.77H0Z" transform="translate(1261.441 4620.916)" fill="none"/>
    <path id="Trazado_905043" data-name="Trazado 905043" d="M4.026.137A3.232,3.232,0,0,1,1.579-.851,3.666,3.666,0,0,1,.636-3.493v-.232a4.438,4.438,0,0,1,.42-1.965A3.28,3.28,0,0,1,2.232-7.044a2.956,2.956,0,0,1,1.637-.489,2.77,2.77,0,0,1,2.242.95,4.114,4.114,0,0,1,.8,2.721v.526H1.9A2.629,2.629,0,0,0,2.54-1.569,2.009,2.009,0,0,0,4.095-.9a2.2,2.2,0,0,0,1.135-.273,2.851,2.851,0,0,0,.813-.725l.772.6A3.106,3.106,0,0,1,4.026.137ZM3.869-6.494a1.687,1.687,0,0,0-1.285.557,2.708,2.708,0,0,0-.643,1.562H5.646v-.1a2.409,2.409,0,0,0-.52-1.494A1.588,1.588,0,0,0,3.869-6.494Z" transform="translate(1266.217 4632.892)"/>
    <path id="Trazado_905044" data-name="Trazado 905044" d="M0,0H7.328V15.77H0Z" transform="translate(1266.217 4620.916)" fill="none"/>
    <path id="Trazado_905045" data-name="Trazado 905045" d="M3.4-1.716,5.229-7.4H6.521L3.869,0H2.905L.226-7.4H1.518Z" transform="translate(1273.461 4632.892)"/>
    <path id="Trazado_905046" data-name="Trazado 905046" d="M0,0H7.041V15.77H0Z" transform="translate(1273.461 4620.916)" fill="none"/>
    <path id="Trazado_905047" data-name="Trazado 905047" d="M.622-3.767a4.369,4.369,0,0,1,.427-1.955,3.187,3.187,0,0,1,1.189-1.34,3.238,3.238,0,0,1,1.74-.472A3.119,3.119,0,0,1,6.422-6.487a4.024,4.024,0,0,1,.933,2.782v.089a4.407,4.407,0,0,1-.414,1.938A3.14,3.14,0,0,1,5.759-.342,3.275,3.275,0,0,1,3.992.137,3.111,3.111,0,0,1,1.555-.909,4,4,0,0,1,.622-3.678Zm1.271.15a3.164,3.164,0,0,0,.571,1.976A1.827,1.827,0,0,0,3.992-.9a1.816,1.816,0,0,0,1.531-.755,3.46,3.46,0,0,0,.567-2.116,3.159,3.159,0,0,0-.578-1.972,1.836,1.836,0,0,0-1.535-.755,1.816,1.816,0,0,0-1.511.745A3.434,3.434,0,0,0,1.894-3.616Zm6.74-.144a4.341,4.341,0,0,1,.8-2.758A2.592,2.592,0,0,1,11.58-7.533a2.59,2.59,0,0,1,2.071.882l.055-.745h1.162V2.844H13.6V-.684a2.654,2.654,0,0,1-2.037.82A2.551,2.551,0,0,1,9.43-.906a4.438,4.438,0,0,1-.8-2.765ZM9.9-3.616a3.291,3.291,0,0,0,.537,2A1.707,1.707,0,0,0,11.881-.9a1.894,1.894,0,0,0,1.723-1V-5.517a1.9,1.9,0,0,0-1.709-.978,1.72,1.72,0,0,0-1.456.728A3.583,3.583,0,0,0,9.9-3.616ZM21.465-.731A2.686,2.686,0,0,1,19.3.137,2.3,2.3,0,0,1,17.5-.55a2.974,2.974,0,0,1-.625-2.034V-7.4h1.265v4.778q0,1.682,1.367,1.682a1.893,1.893,0,0,0,1.928-1.08V-7.4H22.7V0h-1.2Zm6.221.868a3.232,3.232,0,0,1-2.447-.988,3.666,3.666,0,0,1-.943-2.642v-.232a4.438,4.438,0,0,1,.42-1.965,3.28,3.28,0,0,1,1.176-1.354,2.956,2.956,0,0,1,1.637-.489,2.77,2.77,0,0,1,2.242.95,4.114,4.114,0,0,1,.8,2.721v.526H25.56A2.629,2.629,0,0,0,26.2-1.569,2.009,2.009,0,0,0,27.754-.9a2.2,2.2,0,0,0,1.135-.273,2.851,2.851,0,0,0,.813-.725l.772.6A3.106,3.106,0,0,1,27.686.137Zm-.157-6.631a1.687,1.687,0,0,0-1.285.557A2.708,2.708,0,0,0,25.6-4.375h3.705v-.1a2.409,2.409,0,0,0-.52-1.494A1.588,1.588,0,0,0,27.528-6.494Z" transform="translate(1280.404 4632.892)"/>
    <path id="Trazado_905048" data-name="Trazado 905048" d="M0,0H31.2V15.77H0Z" transform="translate(1280.404 4620.916)" fill="none"/>
    <path id="Trazado_905049" data-name="Trazado 905049" d="M0,0H141.51V15.77H0Z" transform="translate(1170.093 4620.916)" fill="none"/>
    <path id="Trazado_905023" data-name="Trazado 905023" d="M0,0H359.614V516.719H0Z" transform="translate(971.026 4504.188)" fill="none"/>
    <path id="Trazado_905033" data-name="Trazado 905033" d="M.649-3.76a4.341,4.341,0,0,1,.8-2.758A2.592,2.592,0,0,1,3.6-7.533a2.59,2.59,0,0,1,2.071.882L5.722-7.4H6.884V2.844H5.619V-.684a2.654,2.654,0,0,1-2.037.82A2.551,2.551,0,0,1,1.446-.906a4.438,4.438,0,0,1-.8-2.765Zm1.265.144a3.291,3.291,0,0,0,.537,2A1.707,1.707,0,0,0,3.9-.9a1.894,1.894,0,0,0,1.723-1V-5.517A1.9,1.9,0,0,0,3.91-6.494a1.72,1.72,0,0,0-1.456.728A3.583,3.583,0,0,0,1.914-3.616ZM13.48-.731a2.686,2.686,0,0,1-2.167.868,2.3,2.3,0,0,1-1.8-.687,2.974,2.974,0,0,1-.625-2.034V-7.4h1.265v4.778q0,1.682,1.367,1.682a1.893,1.893,0,0,0,1.928-1.08V-7.4h1.265V0h-1.2ZM19.7.137a3.232,3.232,0,0,1-2.447-.988,3.666,3.666,0,0,1-.943-2.642v-.232a4.438,4.438,0,0,1,.42-1.965,3.28,3.28,0,0,1,1.176-1.354,2.956,2.956,0,0,1,1.637-.489,2.77,2.77,0,0,1,2.242.95,4.114,4.114,0,0,1,.8,2.721v.526H17.575a2.629,2.629,0,0,0,.639,1.767A2.009,2.009,0,0,0,19.77-.9,2.2,2.2,0,0,0,20.9-1.169a2.851,2.851,0,0,0,.813-.725l.772.6A3.106,3.106,0,0,1,19.7.137Zm-.157-6.631a1.687,1.687,0,0,0-1.285.557,2.708,2.708,0,0,0-.643,1.562h3.705v-.1a2.409,2.409,0,0,0-.52-1.494A1.588,1.588,0,0,0,19.544-6.494ZM31.821-1.962a.931.931,0,0,0-.386-.8,3.718,3.718,0,0,0-1.347-.489,6.367,6.367,0,0,1-1.524-.492,2.169,2.169,0,0,1-.834-.684,1.635,1.635,0,0,1-.27-.943A1.919,1.919,0,0,1,28.229-6.9a3,3,0,0,1,1.965-.629,3.091,3.091,0,0,1,2.041.649,2.063,2.063,0,0,1,.783,1.661H31.746a1.142,1.142,0,0,0-.441-.9,1.652,1.652,0,0,0-1.111-.376,1.729,1.729,0,0,0-1.08.3.947.947,0,0,0-.39.786.767.767,0,0,0,.362.69,4.458,4.458,0,0,0,1.309.444,6.821,6.821,0,0,1,1.535.506,2.239,2.239,0,0,1,.872.708,1.74,1.74,0,0,1,.284,1.008,1.893,1.893,0,0,1-.793,1.589,3.326,3.326,0,0,1-2.058.6,3.725,3.725,0,0,1-1.572-.314,2.557,2.557,0,0,1-1.07-.878,2.117,2.117,0,0,1-.386-1.22h1.265a1.309,1.309,0,0,0,.509,1.008A1.976,1.976,0,0,0,30.235-.9a2.039,2.039,0,0,0,1.152-.291A.893.893,0,0,0,31.821-1.962ZM37.8.137a3.232,3.232,0,0,1-2.447-.988,3.666,3.666,0,0,1-.943-2.642v-.232a4.438,4.438,0,0,1,.42-1.965,3.28,3.28,0,0,1,1.176-1.354,2.956,2.956,0,0,1,1.637-.489,2.77,2.77,0,0,1,2.242.95,4.114,4.114,0,0,1,.8,2.721v.526H35.677a2.629,2.629,0,0,0,.639,1.767A2.009,2.009,0,0,0,37.871-.9a2.2,2.2,0,0,0,1.135-.273,2.851,2.851,0,0,0,.813-.725l.772.6A3.106,3.106,0,0,1,37.8.137Zm-.157-6.631a1.687,1.687,0,0,0-1.285.557,2.708,2.708,0,0,0-.643,1.562h3.705v-.1a2.409,2.409,0,0,0-.52-1.494A1.588,1.588,0,0,0,37.646-6.494ZM45.309-3.76A4.333,4.333,0,0,1,46.115-6.5a2.551,2.551,0,0,1,2.112-1.036,2.565,2.565,0,0,1,2.058.889V-10.5H51.55V0H50.388l-.062-.793a2.575,2.575,0,0,1-2.112.93,2.526,2.526,0,0,1-2.1-1.053,4.382,4.382,0,0,1-.81-2.748Zm1.265.144a3.281,3.281,0,0,0,.52,1.969,1.68,1.68,0,0,0,1.436.711,1.845,1.845,0,0,0,1.757-1.08v-3.4A1.859,1.859,0,0,0,48.542-6.46a1.687,1.687,0,0,0-1.449.718A3.612,3.612,0,0,0,46.573-3.616ZM56.581.137a3.232,3.232,0,0,1-2.447-.988,3.666,3.666,0,0,1-.943-2.642v-.232a4.438,4.438,0,0,1,.42-1.965,3.28,3.28,0,0,1,1.176-1.354,2.956,2.956,0,0,1,1.637-.489,2.77,2.77,0,0,1,2.242.95,4.114,4.114,0,0,1,.8,2.721v.526H54.455a2.629,2.629,0,0,0,.639,1.767A2.009,2.009,0,0,0,56.649-.9a2.2,2.2,0,0,0,1.135-.273,2.851,2.851,0,0,0,.813-.725l.772.6A3.106,3.106,0,0,1,56.581.137Zm-.157-6.631a1.687,1.687,0,0,0-1.285.557A2.708,2.708,0,0,0,54.5-4.375H58.2v-.1a2.409,2.409,0,0,0-.52-1.494A1.588,1.588,0,0,0,56.424-6.494Zm8.812,4.532a.931.931,0,0,0-.386-.8A3.718,3.718,0,0,0,63.5-3.247a6.367,6.367,0,0,1-1.524-.492,2.169,2.169,0,0,1-.834-.684,1.635,1.635,0,0,1-.27-.943A1.919,1.919,0,0,1,61.643-6.9a3,3,0,0,1,1.965-.629,3.091,3.091,0,0,1,2.041.649,2.063,2.063,0,0,1,.783,1.661H65.16a1.142,1.142,0,0,0-.441-.9,1.652,1.652,0,0,0-1.111-.376,1.729,1.729,0,0,0-1.08.3.947.947,0,0,0-.39.786.767.767,0,0,0,.362.69,4.458,4.458,0,0,0,1.309.444,6.821,6.821,0,0,1,1.535.506,2.239,2.239,0,0,1,.872.708A1.74,1.74,0,0,1,66.5-2.051a1.893,1.893,0,0,1-.793,1.589,3.326,3.326,0,0,1-2.058.6,3.725,3.725,0,0,1-1.572-.314,2.557,2.557,0,0,1-1.07-.878,2.117,2.117,0,0,1-.386-1.22h1.265A1.309,1.309,0,0,0,62.4-1.268,1.976,1.976,0,0,0,63.649-.9,2.039,2.039,0,0,0,64.8-1.186.893.893,0,0,0,65.235-1.962Zm5.981,2.1A3.232,3.232,0,0,1,68.77-.851a3.666,3.666,0,0,1-.943-2.642v-.232a4.438,4.438,0,0,1,.42-1.965,3.28,3.28,0,0,1,1.176-1.354,2.956,2.956,0,0,1,1.637-.489,2.77,2.77,0,0,1,2.242.95,4.114,4.114,0,0,1,.8,2.721v.526H69.091a2.629,2.629,0,0,0,.639,1.767A2.009,2.009,0,0,0,71.285-.9a2.2,2.2,0,0,0,1.135-.273,2.851,2.851,0,0,0,.813-.725l.772.6A3.106,3.106,0,0,1,71.217.137ZM71.06-6.494a1.687,1.687,0,0,0-1.285.557,2.708,2.708,0,0,0-.643,1.562h3.705v-.1a2.409,2.409,0,0,0-.52-1.494A1.588,1.588,0,0,0,71.06-6.494ZM78.634.137a3.232,3.232,0,0,1-2.447-.988,3.666,3.666,0,0,1-.943-2.642v-.232a4.438,4.438,0,0,1,.42-1.965,3.28,3.28,0,0,1,1.176-1.354,2.956,2.956,0,0,1,1.637-.489,2.77,2.77,0,0,1,2.242.95,4.114,4.114,0,0,1,.8,2.721v.526H76.508a2.629,2.629,0,0,0,.639,1.767A2.009,2.009,0,0,0,78.7-.9a2.2,2.2,0,0,0,1.135-.273,2.851,2.851,0,0,0,.813-.725l.772.6A3.106,3.106,0,0,1,78.634.137Zm-.157-6.631a1.687,1.687,0,0,0-1.285.557,2.708,2.708,0,0,0-.643,1.562h3.705v-.1a2.409,2.409,0,0,0-.52-1.494A1.588,1.588,0,0,0,78.477-6.494ZM89.517.137a3.232,3.232,0,0,1-2.447-.988,3.666,3.666,0,0,1-.943-2.642v-.232a4.438,4.438,0,0,1,.42-1.965,3.28,3.28,0,0,1,1.176-1.354,2.956,2.956,0,0,1,1.637-.489,2.77,2.77,0,0,1,2.242.95,4.114,4.114,0,0,1,.8,2.721v.526H87.391a2.629,2.629,0,0,0,.639,1.767A2.009,2.009,0,0,0,89.585-.9a2.2,2.2,0,0,0,1.135-.273,2.851,2.851,0,0,0,.813-.725l.772.6A3.106,3.106,0,0,1,89.517.137Zm-.157-6.631a1.687,1.687,0,0,0-1.285.557,2.708,2.708,0,0,0-.643,1.562h3.705v-.1a2.409,2.409,0,0,0-.52-1.494A1.588,1.588,0,0,0,89.359-6.494Zm5.7-.9.041.93a2.7,2.7,0,0,1,2.215-1.066q2.345,0,2.365,2.646V0H98.417V-4.895a1.7,1.7,0,0,0-.366-1.183,1.466,1.466,0,0,0-1.118-.383,1.825,1.825,0,0,0-1.08.328,2.228,2.228,0,0,0-.725.861V0H93.864V-7.4ZM108.124.137a3.232,3.232,0,0,1-2.447-.988,3.666,3.666,0,0,1-.943-2.642v-.232a4.438,4.438,0,0,1,.42-1.965,3.28,3.28,0,0,1,1.176-1.354,2.956,2.956,0,0,1,1.637-.489,2.77,2.77,0,0,1,2.242.95,4.114,4.114,0,0,1,.8,2.721v.526H106a2.629,2.629,0,0,0,.639,1.767,2.009,2.009,0,0,0,1.555.673,2.2,2.2,0,0,0,1.135-.273,2.851,2.851,0,0,0,.813-.725l.772.6A3.106,3.106,0,0,1,108.124.137Zm-.157-6.631a1.687,1.687,0,0,0-1.285.557,2.708,2.708,0,0,0-.643,1.562h3.705v-.1a2.409,2.409,0,0,0-.52-1.494A1.588,1.588,0,0,0,107.967-6.494ZM113.846,0h-1.265V-10.5h1.265Zm5.182-3.76a4.333,4.333,0,0,1,.807-2.738,2.551,2.551,0,0,1,2.112-1.036A2.565,2.565,0,0,1,124-6.645V-10.5h1.265V0h-1.162l-.062-.793a2.575,2.575,0,0,1-2.112.93,2.526,2.526,0,0,1-2.1-1.053,4.382,4.382,0,0,1-.81-2.748Zm1.265.144a3.281,3.281,0,0,0,.52,1.969,1.68,1.68,0,0,0,1.436.711A1.845,1.845,0,0,0,124-2.017v-3.4a1.859,1.859,0,0,0-1.743-1.046,1.687,1.687,0,0,0-1.449.718A3.612,3.612,0,0,0,120.292-3.616ZM128.6,0H127.34V-7.4H128.6Zm-1.367-9.358a.755.755,0,0,1,.188-.52.706.706,0,0,1,.557-.212.717.717,0,0,1,.561.212.747.747,0,0,1,.191.52.722.722,0,0,1-.191.513.73.73,0,0,1-.561.205.718.718,0,0,1-.557-.205A.73.73,0,0,1,127.237-9.358Zm7.7,7.4a.931.931,0,0,0-.386-.8,3.718,3.718,0,0,0-1.347-.489,6.367,6.367,0,0,1-1.524-.492,2.169,2.169,0,0,1-.834-.684,1.635,1.635,0,0,1-.27-.943,1.919,1.919,0,0,1,.769-1.538,3,3,0,0,1,1.965-.629,3.091,3.091,0,0,1,2.041.649,2.063,2.063,0,0,1,.783,1.661h-1.271a1.142,1.142,0,0,0-.441-.9,1.652,1.652,0,0,0-1.111-.376,1.729,1.729,0,0,0-1.08.3.947.947,0,0,0-.39.786.767.767,0,0,0,.362.69,4.458,4.458,0,0,0,1.309.444,6.821,6.821,0,0,1,1.535.506,2.239,2.239,0,0,1,.872.708,1.74,1.74,0,0,1,.284,1.008,1.893,1.893,0,0,1-.793,1.589,3.326,3.326,0,0,1-2.058.6,3.725,3.725,0,0,1-1.572-.314,2.557,2.557,0,0,1-1.07-.878,2.117,2.117,0,0,1-.386-1.22h1.265a1.309,1.309,0,0,0,.509,1.008,1.976,1.976,0,0,0,1.254.373,2.039,2.039,0,0,0,1.152-.291A.893.893,0,0,0,134.935-1.962Zm5.981,2.1a3.232,3.232,0,0,1-2.447-.988,3.666,3.666,0,0,1-.943-2.642v-.232a4.438,4.438,0,0,1,.42-1.965,3.279,3.279,0,0,1,1.176-1.354,2.956,2.956,0,0,1,1.637-.489,2.77,2.77,0,0,1,2.242.95,4.114,4.114,0,0,1,.8,2.721v.526H138.79a2.629,2.629,0,0,0,.639,1.767,2.009,2.009,0,0,0,1.555.673,2.2,2.2,0,0,0,1.135-.273,2.851,2.851,0,0,0,.813-.725l.772.6A3.106,3.106,0,0,1,140.916.137Zm-.157-6.631a1.687,1.687,0,0,0-1.285.557,2.708,2.708,0,0,0-.643,1.562h3.705v-.1a2.409,2.409,0,0,0-.52-1.494A1.588,1.588,0,0,0,140.759-6.494Zm5.7-.9.041.93a2.7,2.7,0,0,1,2.215-1.066q2.345,0,2.365,2.646V0h-1.265V-4.895a1.7,1.7,0,0,0-.366-1.183,1.466,1.466,0,0,0-1.118-.383,1.825,1.825,0,0,0-1.08.328,2.228,2.228,0,0,0-.725.861V0h-1.265V-7.4Zm4.184-2.885a1.7,1.7,0,0,1-.42,1.2,1.365,1.365,0,0,1-1.049.458,1.54,1.54,0,0,1-.485-.068,2.618,2.618,0,0,1-.537-.28,2.324,2.324,0,0,0-.479-.256,1.171,1.171,0,0,0-.338-.044.627.627,0,0,0-.479.215.781.781,0,0,0-.2.55l-.848-.048a1.784,1.784,0,0,1,.414-1.21,1.326,1.326,0,0,1,1.049-.479,1.275,1.275,0,0,1,.431.068,3.138,3.138,0,0,1,.52.267,3.057,3.057,0,0,0,.5.26,1.154,1.154,0,0,0,.386.062.612.612,0,0,0,.489-.232.815.815,0,0,0,.195-.54Zm2.01,6.515a4.369,4.369,0,0,1,.427-1.955,3.187,3.187,0,0,1,1.189-1.34,3.238,3.238,0,0,1,1.74-.472,3.119,3.119,0,0,1,2.444,1.046,4.024,4.024,0,0,1,.933,2.782v.089a4.407,4.407,0,0,1-.414,1.938,3.14,3.14,0,0,1-1.183,1.336,3.275,3.275,0,0,1-1.767.479,3.111,3.111,0,0,1-2.437-1.046,4,4,0,0,1-.933-2.769Zm1.271.15a3.164,3.164,0,0,0,.571,1.976,1.827,1.827,0,0,0,1.528.745,1.816,1.816,0,0,0,1.531-.755,3.46,3.46,0,0,0,.567-2.116,3.159,3.159,0,0,0-.578-1.972,1.836,1.836,0,0,0-1.535-.755,1.816,1.816,0,0,0-1.511.745A3.434,3.434,0,0,0,153.925-3.616Z" transform="translate(1169.9 4644.24)"/>
    <path id="Trazado_905034" data-name="Trazado 905034" d="M0,0H160.74V15.771H0Z" transform="translate(1169.9 4632.264)" fill="none"/>
    <path id="Trazado_905035" data-name="Trazado 905035" d="M0,0H160.74V15.771H0Z" transform="translate(1169.9 4632.264)" fill="none"/>
    <path id="Trazado_905024" data-name="Trazado 905024" d="M0,0H341.028V514.961H0Z" transform="translate(972.347 4504.188)" fill="none"/>
    <path id="Trazado_904780" data-name="Trazado 904780" d="M36.335,515.527c1.038,1.558,162,0,162,0V194.614S43.689,190.5,131.871,42L101.982,30.881s2.37,25.046-65.647,25.046Z" transform="translate(971.026 4504.188)" fill="none" stroke="#1d1d1b" stroke-miterlimit="10" stroke-width="1"/>
    <path id="Trazado_904781" data-name="Trazado 904781" d="M36.335,34.214s32.276,6.032,51.4-11.423l82.036,29.6s-18.689,102.281,16.1,135.507l-30.1,141.227H36.335Z" transform="translate(971.026 4504.188)" fill="none" stroke="#1d1d1b" stroke-miterlimit="10" stroke-width="1" stroke-dasharray="6 6"/>
    <path id="Trazado_905058" data-name="Trazado 905058" d="M0,186.824V0" transform="translate(994.899 4833.19)" fill="none" stroke="#1d1d1b" stroke-width="1"/>
    <path id="Trazado_905059" data-name="Trazado 905059" d="M0,0H5.109V.786H0Z" transform="translate(992.345 5019.622)" fill="#1d1d1b"/>
    <path id="Trazado_905060" data-name="Trazado 905060" d="M0,0H5.109V.786H0Z" transform="translate(992.345 4832.797)" fill="#1d1d1b"/>
    <path id="Trazado_905087" data-name="Trazado 905087" d="M0,0,85.436,32.6" transform="translate(1065.016 4508.483)" fill="none" stroke="#1d1d1b" stroke-width="1"/>
    <path id="Trazado_905097" data-name="Trazado 905097" d="M0,0H5.109V.786H0Z" transform="translate(1063.736 4510.729) rotate(-69.081)" fill="#1d1d1b"/>
    <path id="Trazado_905088" data-name="Trazado 905088" d="M0,0H5.109V.786H0Z" transform="translate(1149.172 4543.33) rotate(-69.082)" fill="#1d1d1b"/>
    <path id="Trazado_905078" data-name="Trazado 905078" d="M0,0H89.648" transform="translate(1093.726 4556.573)" fill="none" stroke="#1d1d1b" stroke-width="2"/>
    <path id="Trazado_905036" data-name="Trazado 905036" d="M0,0H65.8" transform="translate(1115.217 4698.801)" fill="none" stroke="#1d1d1b" stroke-width="2"/>
    <path id="Trazado_905089" data-name="Trazado 905089" d="M0,0,15.119.544" transform="translate(1137.51 4548.789)" fill="none" stroke="#1d1d1b" stroke-width="1"/>
    <path id="Trazado_904782" data-name="Trazado 904782" d="M180.318,49.022l6.923-3.672L180.6,41.19Z" transform="translate(971.026 4504.188)" fill="#1d1d1b"/>
    <path id="Trazado_905051" data-name="Trazado 905051" d="M0,0,21.485.773" transform="translate(1105.374 4613.829)" fill="none" stroke="#1d1d1b" stroke-width="1.162"/>
    <path id="Trazado_904783" data-name="Trazado 904783" d="M154.338,114.919l8.047-4.268-7.719-4.836Z" transform="translate(971.026 4504.188)" fill="#1d1d1b"/>
    <path id="Trazado_905050" data-name="Trazado 905050" d="M82.038.773,0,0" transform="translate(1084.266 4634.852)" fill="none" stroke="#1d1d1b" stroke-width="0.75"/>
    <path id="Trazado_904784" data-name="Trazado 904784" d="M114.735,126.162l-8.047,4.268,7.719,4.836Z" transform="translate(971.026 4504.188)" fill="#1d1d1b"/>
    <path id="Trazado_905037" data-name="Trazado 905037" d="M0,0,18.761,2.253" transform="matrix(0.996, -0.087, 0.087, 0.996, 1157.018, 4684.891)" fill="none" stroke="#1d1d1b" stroke-width="0.879"/>
    <path id="Trazado_904785" data-name="Trazado 904785" d="M196.083,187.711l6.212-2.97-5.678-3.9Z" transform="matrix(0.996, -0.087, 0.087, 0.996, 962.368, 4518.981)" fill="#1d1d1b"/>
    <path id="Trazado_905079" data-name="Trazado 905079" d="M0,15.119.544,0" transform="translate(1169.092 4542.435)" fill="none" stroke="#1d1d1b" stroke-width="1"/>
    <path id="Trazado_904786" data-name="Trazado 904786" d="M202.485,39.536l-3.67-6.923-4.161,6.642Z" transform="translate(971.026 4504.188)" fill="#1d1d1b"/>
    <path id="Trazado_904787" data-name="Trazado 904787" d="M206.127,199.818l3.516,6.627,3.983-6.357Z" transform="matrix(0.998, -0.07, 0.07, 0.998, 956.719, 4530.779)" fill="#1d1d1b"/>
    <path id="Trazado_905090" data-name="Trazado 905090" d="M0,24.379,7.269,0" transform="translate(1091.733 4524.784)" fill="none" stroke="#1d1d1b" stroke-width="1"/>
    <path id="Trazado_904788" data-name="Trazado 904788" d="M131.87,42c-2.475-1.94-20.769,116.3,54,145.9" transform="translate(971.026 4504.188)" fill="none" stroke="#1d1d1b" stroke-miterlimit="10" stroke-width="1"/>
    <path id="Trazado_905025" data-name="Trazado 905025" d="M0,0H341.028V514.961H0Z" transform="translate(971.026 4505.839)" fill="none"/>
    <path id="Trazado_905052" data-name="Trazado 905052" d="M6.166-3.343H7.547v1.032H6.166V0H4.895V-2.311H.362v-.745l4.457-6.9H6.166Zm-4.368,0h3.1V-8.224l-.15.273ZM15.251-.9a1.822,1.822,0,0,0,1.183-.41,1.443,1.443,0,0,0,.561-1.025h1.2a2.293,2.293,0,0,1-.437,1.21,2.881,2.881,0,0,1-1.077.916,3.107,3.107,0,0,1-1.425.342,3.047,3.047,0,0,1-2.4-1.008,4.016,4.016,0,0,1-.892-2.758v-.212a4.453,4.453,0,0,1,.4-1.921,3.02,3.02,0,0,1,1.138-1.306,3.233,3.233,0,0,1,1.753-.465,2.966,2.966,0,0,1,2.068.745,2.663,2.663,0,0,1,.878,1.935h-1.2a1.743,1.743,0,0,0-.543-1.179,1.691,1.691,0,0,0-1.207-.461A1.77,1.77,0,0,0,13.75-5.8a3.259,3.259,0,0,0-.53,2.006v.239a3.194,3.194,0,0,0,.526,1.969A1.779,1.779,0,0,0,15.251-.9ZM20.8-7.4l.034.82a2.732,2.732,0,0,1,2.194-.957,2.115,2.115,0,0,1,2.112,1.189,2.8,2.8,0,0,1,.96-.861,2.837,2.837,0,0,1,1.4-.328q2.434,0,2.475,2.577V0H28.711V-4.881a1.7,1.7,0,0,0-.362-1.186,1.6,1.6,0,0,0-1.217-.393,1.677,1.677,0,0,0-1.169.42,1.706,1.706,0,0,0-.54,1.131V0H24.151V-4.847A1.411,1.411,0,0,0,22.572-6.46a1.692,1.692,0,0,0-1.7,1.06V0H19.605V-7.4Z" transform="translate(1103.979 4606.727)"/>
    <path id="Trazado_905053" data-name="Trazado 905053" d="M0,0H30.926V15.77H0Z" transform="translate(1103.978 4594.75)" fill="none"/>
    <path id="Trazado_905054" data-name="Trazado 905054" d="M0,0H30.926V15.77H0Z" transform="translate(1103.978 4594.75)" fill="none"/>
    <path id="Trazado_905026" data-name="Trazado 905026" d="M0,0H359.614V516.719H0Z" transform="translate(971.026 4504.188)" fill="none"/>
    <path id="Trazado_905080" data-name="Trazado 905080" d="M0,0,21.485.773" transform="matrix(0.999, -0.035, 0.035, 0.999, 1142.86, 4567.896)" fill="none" stroke="#1d1d1b" stroke-width="1.162"/>
    <path id="Trazado_904783-2" data-name="Trazado 904783" d="M154.338,114.919l8.047-4.268-7.719-4.836Z" transform="matrix(0.999, -0.035, 0.035, 0.999, 1004.768, 4463.011)" fill="#1d1d1b"/>
    <path id="Trazado_905038" data-name="Trazado 905038" d="M0,0V18.6" transform="translate(1180.253 4697.903)" fill="none" stroke="#1d1d1b" stroke-width="2"/>
  </g>
</svg>
