<svg xmlns="http://www.w3.org/2000/svg" width="418.006" height="486.482" viewBox="0 0 418.006 486.482">
  <g id="Grupo_1114954" data-name="Grupo 1114954" transform="translate(-334.51 -1570.611)">
    <path id="Trazado_904091" data-name="Trazado 904091" d="M4.983,0H3.712V-8.429l-2.55.937V-8.641L4.785-10h.2Zm9.044-3.343h1.381v1.032H14.027V0H12.756V-2.311H8.224v-.745l4.457-6.9h1.347Zm-4.368,0h3.1V-8.224l-.15.273ZM23.112-.9a1.822,1.822,0,0,0,1.183-.41,1.443,1.443,0,0,0,.561-1.025h1.2a2.293,2.293,0,0,1-.437,1.21,2.881,2.881,0,0,1-1.077.916,3.107,3.107,0,0,1-1.425.342,3.047,3.047,0,0,1-2.4-1.008,4.016,4.016,0,0,1-.892-2.758v-.212a4.453,4.453,0,0,1,.4-1.921,3.02,3.02,0,0,1,1.138-1.306,3.233,3.233,0,0,1,1.753-.465,2.966,2.966,0,0,1,2.068.745,2.663,2.663,0,0,1,.878,1.935h-1.2a1.743,1.743,0,0,0-.543-1.179,1.691,1.691,0,0,0-1.207-.461,1.77,1.77,0,0,0-1.494.694,3.259,3.259,0,0,0-.53,2.006v.239a3.194,3.194,0,0,0,.526,1.969A1.779,1.779,0,0,0,23.112-.9Zm5.551-6.5.034.82a2.732,2.732,0,0,1,2.194-.957A2.115,2.115,0,0,1,33-6.344a2.8,2.8,0,0,1,.96-.861,2.837,2.837,0,0,1,1.4-.328q2.434,0,2.475,2.577V0H36.572V-4.881a1.7,1.7,0,0,0-.362-1.186,1.6,1.6,0,0,0-1.217-.393,1.677,1.677,0,0,0-1.169.42,1.706,1.706,0,0,0-.54,1.131V0H32.013V-4.847A1.411,1.411,0,0,0,30.434-6.46a1.692,1.692,0,0,0-1.7,1.06V0H27.467V-7.4Z" transform="translate(394.588 1591.705)"/>
    <path id="Trazado_904101" data-name="Trazado 904101" d="M7.349,0H.827V-.909L4.272-4.737A8.185,8.185,0,0,0,5.329-6.149a2.356,2.356,0,0,0,.291-1.125,1.786,1.786,0,0,0-.472-1.278,1.649,1.649,0,0,0-1.258-.5,1.953,1.953,0,0,0-1.466.537A2.05,2.05,0,0,0,1.9-7.021H.636a2.936,2.936,0,0,1,.885-2.222A3.282,3.282,0,0,1,3.89-10.09a3.153,3.153,0,0,1,2.194.728,2.483,2.483,0,0,1,.807,1.938q0,1.47-1.873,3.5L2.352-1.032h5ZM8.777,1.982,8.06,1.49a3.3,3.3,0,0,0,.67-1.846V-1.5H9.967v.991A3.114,3.114,0,0,1,9.628.875,3.233,3.233,0,0,1,8.777,1.982Zm3.24-6.973.506-4.963h5.1v1.169H13.6L13.3-6.07A3.212,3.212,0,0,1,14.957-6.5a2.746,2.746,0,0,1,2.16.9,3.523,3.523,0,0,1,.8,2.43,3.4,3.4,0,0,1-.831,2.423,3.027,3.027,0,0,1-2.321.885,3.146,3.146,0,0,1-2.153-.731,2.919,2.919,0,0,1-.95-2.023h1.2a2.009,2.009,0,0,0,.608,1.289,1.892,1.892,0,0,0,1.3.434,1.706,1.706,0,0,0,1.384-.6,2.515,2.515,0,0,0,.5-1.661,2.308,2.308,0,0,0-.543-1.6,1.849,1.849,0,0,0-1.446-.6,2.085,2.085,0,0,0-1.3.362l-.335.273ZM25.86-.9a1.822,1.822,0,0,0,1.183-.41A1.443,1.443,0,0,0,27.6-2.331h1.2a2.293,2.293,0,0,1-.437,1.21,2.881,2.881,0,0,1-1.077.916A3.107,3.107,0,0,1,25.86.137a3.047,3.047,0,0,1-2.4-1.008,4.016,4.016,0,0,1-.892-2.758v-.212a4.453,4.453,0,0,1,.4-1.921A3.02,3.02,0,0,1,24.1-7.068a3.233,3.233,0,0,1,1.753-.465,2.966,2.966,0,0,1,2.068.745A2.663,2.663,0,0,1,28.8-4.854H27.6a1.743,1.743,0,0,0-.543-1.179,1.691,1.691,0,0,0-1.207-.461A1.77,1.77,0,0,0,24.36-5.8a3.259,3.259,0,0,0-.53,2.006v.239a3.194,3.194,0,0,0,.526,1.969A1.779,1.779,0,0,0,25.86-.9Zm5.551-6.5.034.82a2.732,2.732,0,0,1,2.194-.957,2.115,2.115,0,0,1,2.112,1.189,2.8,2.8,0,0,1,.96-.861,2.837,2.837,0,0,1,1.4-.328q2.434,0,2.475,2.577V0H39.32V-4.881a1.7,1.7,0,0,0-.362-1.186,1.6,1.6,0,0,0-1.217-.393,1.677,1.677,0,0,0-1.169.42,1.706,1.706,0,0,0-.54,1.131V0H34.761V-4.847A1.411,1.411,0,0,0,33.182-6.46a1.692,1.692,0,0,0-1.7,1.06V0H30.215V-7.4Z" transform="translate(539.46 1582.758)"/>
    <path id="Trazado_904102" data-name="Trazado 904102" d="M0,0H418.006V486.389H0Z" transform="translate(334.51 1570.611)" fill="none"/>
    <path id="Trazado_904092" data-name="Trazado 904092" d="M7.349,0H.827V-.909L4.272-4.737A8.185,8.185,0,0,0,5.329-6.149a2.356,2.356,0,0,0,.291-1.125,1.786,1.786,0,0,0-.472-1.278,1.649,1.649,0,0,0-1.258-.5,1.953,1.953,0,0,0-1.466.537A2.05,2.05,0,0,0,1.9-7.021H.636a2.936,2.936,0,0,1,.885-2.222A3.282,3.282,0,0,1,3.89-10.09a3.153,3.153,0,0,1,2.194.728,2.483,2.483,0,0,1,.807,1.938q0,1.47-1.873,3.5L2.352-1.032h5ZM8.777,1.982,8.06,1.49a3.3,3.3,0,0,0,.67-1.846V-1.5H9.967v.991A3.114,3.114,0,0,1,9.628.875,3.233,3.233,0,0,1,8.777,1.982Zm3.24-6.973.506-4.963h5.1v1.169H13.6L13.3-6.07A3.212,3.212,0,0,1,14.957-6.5a2.746,2.746,0,0,1,2.16.9,3.523,3.523,0,0,1,.8,2.43,3.4,3.4,0,0,1-.831,2.423,3.027,3.027,0,0,1-2.321.885,3.146,3.146,0,0,1-2.153-.731,2.919,2.919,0,0,1-.95-2.023h1.2a2.009,2.009,0,0,0,.608,1.289,1.892,1.892,0,0,0,1.3.434,1.706,1.706,0,0,0,1.384-.6,2.515,2.515,0,0,0,.5-1.661,2.308,2.308,0,0,0-.543-1.6,1.849,1.849,0,0,0-1.446-.6,2.085,2.085,0,0,0-1.3.362l-.335.273ZM25.86-.9a1.822,1.822,0,0,0,1.183-.41A1.443,1.443,0,0,0,27.6-2.331h1.2a2.293,2.293,0,0,1-.437,1.21,2.881,2.881,0,0,1-1.077.916A3.107,3.107,0,0,1,25.86.137a3.047,3.047,0,0,1-2.4-1.008,4.016,4.016,0,0,1-.892-2.758v-.212a4.453,4.453,0,0,1,.4-1.921A3.02,3.02,0,0,1,24.1-7.068a3.233,3.233,0,0,1,1.753-.465,2.966,2.966,0,0,1,2.068.745A2.663,2.663,0,0,1,28.8-4.854H27.6a1.743,1.743,0,0,0-.543-1.179,1.691,1.691,0,0,0-1.207-.461A1.77,1.77,0,0,0,24.36-5.8a3.259,3.259,0,0,0-.53,2.006v.239a3.194,3.194,0,0,0,.526,1.969A1.779,1.779,0,0,0,25.86-.9Zm5.551-6.5.034.82a2.732,2.732,0,0,1,2.194-.957,2.115,2.115,0,0,1,2.112,1.189,2.8,2.8,0,0,1,.96-.861,2.837,2.837,0,0,1,1.4-.328q2.434,0,2.475,2.577V0H39.32V-4.881a1.7,1.7,0,0,0-.362-1.186,1.6,1.6,0,0,0-1.217-.393,1.677,1.677,0,0,0-1.169.42,1.706,1.706,0,0,0-.54,1.131V0H34.761V-4.847A1.411,1.411,0,0,0,33.182-6.46a1.692,1.692,0,0,0-1.7,1.06V0H30.215V-7.4Z" transform="translate(581.792 1709.822)"/>
    <path id="Trazado_904093" data-name="Trazado 904093" d="M4.983,0H3.712V-8.429l-2.55.937V-8.641L4.785-10h.2ZM8.777,1.982,8.06,1.49a3.3,3.3,0,0,0,.67-1.846V-1.5H9.967v.991A3.114,3.114,0,0,1,9.628.875,3.233,3.233,0,0,1,8.777,1.982Zm3.24-6.973.506-4.963h5.1v1.169H13.6L13.3-6.07A3.212,3.212,0,0,1,14.957-6.5a2.746,2.746,0,0,1,2.16.9,3.523,3.523,0,0,1,.8,2.43,3.4,3.4,0,0,1-.831,2.423,3.027,3.027,0,0,1-2.321.885,3.146,3.146,0,0,1-2.153-.731,2.919,2.919,0,0,1-.95-2.023h1.2a2.009,2.009,0,0,0,.608,1.289,1.892,1.892,0,0,0,1.3.434,1.706,1.706,0,0,0,1.384-.6,2.515,2.515,0,0,0,.5-1.661,2.308,2.308,0,0,0-.543-1.6,1.849,1.849,0,0,0-1.446-.6,2.085,2.085,0,0,0-1.3.362l-.335.273ZM25.86-.9a1.822,1.822,0,0,0,1.183-.41A1.443,1.443,0,0,0,27.6-2.331h1.2a2.293,2.293,0,0,1-.437,1.21,2.881,2.881,0,0,1-1.077.916A3.107,3.107,0,0,1,25.86.137a3.047,3.047,0,0,1-2.4-1.008,4.016,4.016,0,0,1-.892-2.758v-.212a4.453,4.453,0,0,1,.4-1.921A3.02,3.02,0,0,1,24.1-7.068a3.233,3.233,0,0,1,1.753-.465,2.966,2.966,0,0,1,2.068.745A2.663,2.663,0,0,1,28.8-4.854H27.6a1.743,1.743,0,0,0-.543-1.179,1.691,1.691,0,0,0-1.207-.461A1.77,1.77,0,0,0,24.36-5.8a3.259,3.259,0,0,0-.53,2.006v.239a3.194,3.194,0,0,0,.526,1.969A1.779,1.779,0,0,0,25.86-.9Zm5.551-6.5.034.82a2.732,2.732,0,0,1,2.194-.957,2.115,2.115,0,0,1,2.112,1.189,2.8,2.8,0,0,1,.96-.861,2.837,2.837,0,0,1,1.4-.328q2.434,0,2.475,2.577V0H39.32V-4.881a1.7,1.7,0,0,0-.362-1.186,1.6,1.6,0,0,0-1.217-.393,1.677,1.677,0,0,0-1.169.42,1.706,1.706,0,0,0-.54,1.131V0H34.761V-4.847A1.411,1.411,0,0,0,33.182-6.46a1.692,1.692,0,0,0-1.7,1.06V0H30.215V-7.4Z" transform="translate(614.87 1747.348)"/>
    <path id="Trazado_904094" data-name="Trazado 904094" d="M4.088-4.437A6.172,6.172,0,0,1,1.63-5.629,2.279,2.279,0,0,1,.861-7.376,2.408,2.408,0,0,1,1.8-9.321a3.736,3.736,0,0,1,2.444-.769,4.078,4.078,0,0,1,1.829.4A3.007,3.007,0,0,1,7.318-8.6a2.8,2.8,0,0,1,.441,1.524H6.439A1.82,1.82,0,0,0,5.865-8.5a2.335,2.335,0,0,0-1.62-.518,2.391,2.391,0,0,0-1.514.428A1.428,1.428,0,0,0,2.188-7.4,1.285,1.285,0,0,0,2.7-6.37,5.062,5.062,0,0,0,4.46-5.6,8.152,8.152,0,0,1,6.4-4.83a2.946,2.946,0,0,1,1.039.981,2.5,2.5,0,0,1,.338,1.319A2.326,2.326,0,0,1,6.836-.591,4.022,4.022,0,0,1,4.313.137,4.678,4.678,0,0,1,2.4-.256,3.221,3.221,0,0,1,1.029-1.333,2.627,2.627,0,0,1,.547-2.885H1.866a1.714,1.714,0,0,0,.667,1.425,2.806,2.806,0,0,0,1.781.523A2.58,2.58,0,0,0,5.906-1.36,1.377,1.377,0,0,0,6.46-2.516a1.351,1.351,0,0,0-.513-1.131A5.911,5.911,0,0,0,4.088-4.437ZM12.332.137A3.232,3.232,0,0,1,9.885-.851a3.666,3.666,0,0,1-.943-2.642v-.232a4.438,4.438,0,0,1,.42-1.965,3.28,3.28,0,0,1,1.176-1.354,2.956,2.956,0,0,1,1.637-.489,2.77,2.77,0,0,1,2.242.95,4.114,4.114,0,0,1,.8,2.721v.526H10.206a2.629,2.629,0,0,0,.639,1.767A2.009,2.009,0,0,0,12.4-.9a2.2,2.2,0,0,0,1.135-.273,2.851,2.851,0,0,0,.813-.725l.772.6A3.106,3.106,0,0,1,12.332.137Zm-.157-6.631a1.687,1.687,0,0,0-1.285.557,2.708,2.708,0,0,0-.643,1.562h3.705v-.1a2.409,2.409,0,0,0-.52-1.494A1.588,1.588,0,0,0,12.175-6.494ZM24.452-1.962a.931.931,0,0,0-.386-.8,3.718,3.718,0,0,0-1.347-.489,6.367,6.367,0,0,1-1.524-.492,2.169,2.169,0,0,1-.834-.684,1.635,1.635,0,0,1-.27-.943A1.919,1.919,0,0,1,20.86-6.9a3,3,0,0,1,1.965-.629,3.091,3.091,0,0,1,2.041.649,2.063,2.063,0,0,1,.783,1.661H24.377a1.142,1.142,0,0,0-.441-.9,1.652,1.652,0,0,0-1.111-.376,1.729,1.729,0,0,0-1.08.3.947.947,0,0,0-.39.786.767.767,0,0,0,.362.69,4.458,4.458,0,0,0,1.309.444,6.821,6.821,0,0,1,1.535.506,2.239,2.239,0,0,1,.872.708,1.74,1.74,0,0,1,.284,1.008,1.893,1.893,0,0,1-.793,1.589,3.326,3.326,0,0,1-2.058.6,3.725,3.725,0,0,1-1.572-.314,2.557,2.557,0,0,1-1.07-.878,2.117,2.117,0,0,1-.386-1.22H21.1a1.309,1.309,0,0,0,.509,1.008A1.976,1.976,0,0,0,22.866-.9a2.039,2.039,0,0,0,1.152-.291A.893.893,0,0,0,24.452-1.962ZM31.931,0a2.657,2.657,0,0,1-.178-.779,2.822,2.822,0,0,1-2.105.916,2.611,2.611,0,0,1-1.794-.619,2,2,0,0,1-.7-1.569,2.091,2.091,0,0,1,.878-1.794A4.142,4.142,0,0,1,30.5-4.484h1.23v-.581a1.42,1.42,0,0,0-.4-1.056,1.593,1.593,0,0,0-1.169-.393,1.844,1.844,0,0,0-1.135.342,1.007,1.007,0,0,0-.458.827H27.3a1.745,1.745,0,0,1,.393-1.07,2.683,2.683,0,0,1,1.066-.817,3.588,3.588,0,0,1,1.48-.3,2.924,2.924,0,0,1,2,.639A2.306,2.306,0,0,1,33-5.134v3.4a4.162,4.162,0,0,0,.26,1.62V0Zm-2.1-.964a2.223,2.223,0,0,0,1.128-.308,1.861,1.861,0,0,0,.772-.8V-3.589h-.991q-2.324,0-2.324,1.36a1.151,1.151,0,0,0,.4.93A1.524,1.524,0,0,0,29.832-.964ZM37.946-.9a1.822,1.822,0,0,0,1.183-.41,1.443,1.443,0,0,0,.561-1.025h1.2a2.293,2.293,0,0,1-.437,1.21,2.881,2.881,0,0,1-1.077.916,3.107,3.107,0,0,1-1.425.342,3.047,3.047,0,0,1-2.4-1.008,4.016,4.016,0,0,1-.892-2.758v-.212a4.453,4.453,0,0,1,.4-1.921,3.02,3.02,0,0,1,1.138-1.306,3.233,3.233,0,0,1,1.753-.465,2.966,2.966,0,0,1,2.068.745,2.663,2.663,0,0,1,.878,1.935h-1.2a1.743,1.743,0,0,0-.543-1.179,1.691,1.691,0,0,0-1.207-.461,1.77,1.77,0,0,0-1.494.694,3.259,3.259,0,0,0-.53,2.006v.239a3.194,3.194,0,0,0,.526,1.969A1.779,1.779,0,0,0,37.946-.9Zm8.928.9A2.657,2.657,0,0,1,46.7-.779a2.822,2.822,0,0,1-2.105.916A2.611,2.611,0,0,1,42.8-.482a2,2,0,0,1-.7-1.569,2.091,2.091,0,0,1,.878-1.794,4.142,4.142,0,0,1,2.471-.639h1.23v-.581a1.42,1.42,0,0,0-.4-1.056,1.593,1.593,0,0,0-1.169-.393,1.844,1.844,0,0,0-1.135.342,1.007,1.007,0,0,0-.458.827H42.246a1.745,1.745,0,0,1,.393-1.07,2.683,2.683,0,0,1,1.066-.817,3.588,3.588,0,0,1,1.48-.3,2.924,2.924,0,0,1,2,.639,2.306,2.306,0,0,1,.752,1.76v3.4a4.162,4.162,0,0,0,.26,1.62V0Zm-2.1-.964A2.223,2.223,0,0,0,45.9-1.271a1.861,1.861,0,0,0,.772-.8V-3.589h-.991q-2.324,0-2.324,1.36a1.151,1.151,0,0,0,.4.93A1.524,1.524,0,0,0,44.775-.964ZM51.119-7.4l.041.93a2.7,2.7,0,0,1,2.215-1.066q2.345,0,2.365,2.646V0H54.476V-4.895a1.7,1.7,0,0,0-.366-1.183,1.466,1.466,0,0,0-1.118-.383,1.825,1.825,0,0,0-1.08.328,2.228,2.228,0,0,0-.725.861V0H49.923V-7.4ZM67.225-4.245a5.784,5.784,0,0,1-.759,3.3A2.7,2.7,0,0,1,64.094.137,2.718,2.718,0,0,1,61.735-.919a5.49,5.49,0,0,1-.793-3.155V-5.763A5.655,5.655,0,0,1,61.7-9.023,2.719,2.719,0,0,1,64.08-10.09a2.744,2.744,0,0,1,2.365,1.029,5.458,5.458,0,0,1,.779,3.175ZM65.96-5.975a4.634,4.634,0,0,0-.451-2.341,1.553,1.553,0,0,0-1.429-.735,1.532,1.532,0,0,0-1.415.731,4.525,4.525,0,0,0-.458,2.249v2.023a4.708,4.708,0,0,0,.468,2.382A1.55,1.55,0,0,0,64.094-.9a1.529,1.529,0,0,0,1.391-.725A4.538,4.538,0,0,0,65.96-3.9ZM69-.663A.792.792,0,0,1,69.2-1.21a.742.742,0,0,1,.584-.219.765.765,0,0,1,.591.219.776.776,0,0,1,.2.547.734.734,0,0,1-.2.526.778.778,0,0,1-.591.212A.755.755,0,0,1,69.2-.137.748.748,0,0,1,69-.663ZM73.11-4.99l.506-4.963h5.1v1.169H74.689l-.3,2.714A3.212,3.212,0,0,1,76.05-6.5a2.746,2.746,0,0,1,2.16.9,3.523,3.523,0,0,1,.8,2.43,3.4,3.4,0,0,1-.831,2.423,3.027,3.027,0,0,1-2.321.885,3.146,3.146,0,0,1-2.153-.731,2.919,2.919,0,0,1-.95-2.023h1.2A2.009,2.009,0,0,0,74.56-1.33a1.892,1.892,0,0,0,1.3.434,1.706,1.706,0,0,0,1.384-.6,2.515,2.515,0,0,0,.5-1.661,2.308,2.308,0,0,0-.543-1.6,1.849,1.849,0,0,0-1.446-.6,2.085,2.085,0,0,0-1.3.362l-.335.273Z" transform="translate(624.508 1787.552)"/>
    <path id="Trazado_904103" data-name="Trazado 904103" d="M3.377-1.853,5.1-7.4H6.453L3.479,1.142q-.69,1.846-2.194,1.846l-.239-.021L.574,2.878V1.853l.342.027a1.683,1.683,0,0,0,1-.26A1.88,1.88,0,0,0,2.509.67l.28-.752L.15-7.4H1.531Zm11.977-.109a.931.931,0,0,0-.386-.8,3.718,3.718,0,0,0-1.347-.489A6.367,6.367,0,0,1,12.1-3.739a2.169,2.169,0,0,1-.834-.684,1.635,1.635,0,0,1-.27-.943A1.919,1.919,0,0,1,11.761-6.9a3,3,0,0,1,1.965-.629,3.091,3.091,0,0,1,2.041.649,2.063,2.063,0,0,1,.783,1.661H15.278a1.142,1.142,0,0,0-.441-.9,1.652,1.652,0,0,0-1.111-.376,1.729,1.729,0,0,0-1.08.3.947.947,0,0,0-.39.786.767.767,0,0,0,.362.69,4.458,4.458,0,0,0,1.309.444,6.821,6.821,0,0,1,1.535.506,2.239,2.239,0,0,1,.872.708,1.74,1.74,0,0,1,.284,1.008,1.893,1.893,0,0,1-.793,1.589,3.326,3.326,0,0,1-2.058.6A3.725,3.725,0,0,1,12.2-.178a2.557,2.557,0,0,1-1.07-.878,2.117,2.117,0,0,1-.386-1.22H12a1.309,1.309,0,0,0,.509,1.008A1.976,1.976,0,0,0,13.768-.9a2.039,2.039,0,0,0,1.152-.291A.893.893,0,0,0,15.354-1.962Zm5.981,2.1a3.232,3.232,0,0,1-2.447-.988,3.666,3.666,0,0,1-.943-2.642v-.232a4.438,4.438,0,0,1,.42-1.965,3.28,3.28,0,0,1,1.176-1.354,2.956,2.956,0,0,1,1.637-.489,2.77,2.77,0,0,1,2.242.95,4.114,4.114,0,0,1,.8,2.721v.526H19.209a2.629,2.629,0,0,0,.639,1.767A2.009,2.009,0,0,0,21.4-.9a2.2,2.2,0,0,0,1.135-.273,2.851,2.851,0,0,0,.813-.725l.772.6A3.106,3.106,0,0,1,21.335.137Zm-.157-6.631a1.687,1.687,0,0,0-1.285.557,2.708,2.708,0,0,0-.643,1.562h3.705v-.1a2.409,2.409,0,0,0-.52-1.494A1.588,1.588,0,0,0,21.178-6.494ZM32.218.137a3.232,3.232,0,0,1-2.447-.988,3.666,3.666,0,0,1-.943-2.642v-.232a4.438,4.438,0,0,1,.42-1.965,3.28,3.28,0,0,1,1.176-1.354,2.956,2.956,0,0,1,1.637-.489,2.77,2.77,0,0,1,2.242.95,4.114,4.114,0,0,1,.8,2.721v.526H30.092a2.629,2.629,0,0,0,.639,1.767A2.009,2.009,0,0,0,32.286-.9a2.2,2.2,0,0,0,1.135-.273,2.851,2.851,0,0,0,.813-.725l.772.6A3.106,3.106,0,0,1,32.218.137Zm-.157-6.631a1.687,1.687,0,0,0-1.285.557,2.708,2.708,0,0,0-.643,1.562h3.705v-.1a2.409,2.409,0,0,0-.52-1.494A1.588,1.588,0,0,0,32.061-6.494Zm5.7-.9.041.93a2.7,2.7,0,0,1,2.215-1.066q2.345,0,2.365,2.646V0H41.118V-4.895a1.7,1.7,0,0,0-.366-1.183,1.466,1.466,0,0,0-1.118-.383,1.825,1.825,0,0,0-1.08.328,2.228,2.228,0,0,0-.725.861V0H36.565V-7.4Zm8.244-1.791V-7.4h1.381v.978H46.006v4.593a1.027,1.027,0,0,0,.185.667.777.777,0,0,0,.629.222,3.062,3.062,0,0,0,.6-.082V0a3.688,3.688,0,0,1-.971.136,1.575,1.575,0,0,1-1.278-.513,2.2,2.2,0,0,1-.431-1.456V-6.419H43.395V-7.4h1.347V-9.187Zm6.433,2.926a3.79,3.79,0,0,0-.622-.048,1.667,1.667,0,0,0-1.688,1.06V0H48.863V-7.4h1.23l.021.854a1.969,1.969,0,0,1,1.764-.991,1.292,1.292,0,0,1,.561.1ZM57.894,0a2.657,2.657,0,0,1-.178-.779A2.822,2.822,0,0,1,55.61.137a2.611,2.611,0,0,1-1.794-.619,2,2,0,0,1-.7-1.569,2.091,2.091,0,0,1,.878-1.794,4.142,4.142,0,0,1,2.471-.639H57.7v-.581a1.42,1.42,0,0,0-.4-1.056,1.593,1.593,0,0,0-1.169-.393A1.844,1.844,0,0,0,55-6.173a1.007,1.007,0,0,0-.458.827H53.266a1.745,1.745,0,0,1,.393-1.07,2.683,2.683,0,0,1,1.066-.817,3.588,3.588,0,0,1,1.48-.3,2.924,2.924,0,0,1,2,.639,2.306,2.306,0,0,1,.752,1.76v3.4a4.162,4.162,0,0,0,.26,1.62V0Zm-2.1-.964a2.223,2.223,0,0,0,1.128-.308,1.861,1.861,0,0,0,.772-.8V-3.589H56.7q-2.324,0-2.324,1.36a1.151,1.151,0,0,0,.4.93A1.524,1.524,0,0,0,55.795-.964ZM67.478.137A3.232,3.232,0,0,1,65.03-.851a3.666,3.666,0,0,1-.943-2.642v-.232a4.438,4.438,0,0,1,.42-1.965,3.28,3.28,0,0,1,1.176-1.354,2.956,2.956,0,0,1,1.637-.489,2.77,2.77,0,0,1,2.242.95,4.114,4.114,0,0,1,.8,2.721v.526H65.352a2.629,2.629,0,0,0,.639,1.767A2.009,2.009,0,0,0,67.546-.9a2.2,2.2,0,0,0,1.135-.273,2.851,2.851,0,0,0,.813-.725l.772.6A3.106,3.106,0,0,1,67.478.137ZM67.32-6.494a1.687,1.687,0,0,0-1.285.557,2.708,2.708,0,0,0-.643,1.562H69.1v-.1a2.409,2.409,0,0,0-.52-1.494A1.588,1.588,0,0,0,67.32-6.494Zm5.7-.9.041.93a2.7,2.7,0,0,1,2.215-1.066q2.345,0,2.365,2.646V0H76.378V-4.895a1.7,1.7,0,0,0-.366-1.183,1.466,1.466,0,0,0-1.118-.383,1.825,1.825,0,0,0-1.08.328,2.228,2.228,0,0,0-.725.861V0H71.825V-7.4ZM85.982-.9a1.822,1.822,0,0,0,1.183-.41,1.443,1.443,0,0,0,.561-1.025h1.2a2.293,2.293,0,0,1-.437,1.21,2.882,2.882,0,0,1-1.077.916,3.107,3.107,0,0,1-1.425.342,3.047,3.047,0,0,1-2.4-1.008,4.016,4.016,0,0,1-.892-2.758v-.212a4.453,4.453,0,0,1,.4-1.921,3.02,3.02,0,0,1,1.138-1.306,3.233,3.233,0,0,1,1.753-.465,2.966,2.966,0,0,1,2.068.745,2.663,2.663,0,0,1,.878,1.935h-1.2a1.743,1.743,0,0,0-.543-1.179,1.691,1.691,0,0,0-1.207-.461,1.77,1.77,0,0,0-1.494.694,3.259,3.259,0,0,0-.53,2.006v.239a3.194,3.194,0,0,0,.526,1.969A1.779,1.779,0,0,0,85.982-.9Zm8.928.164a2.686,2.686,0,0,1-2.167.868,2.3,2.3,0,0,1-1.8-.687,2.974,2.974,0,0,1-.625-2.034V-7.4h1.265v4.778q0,1.682,1.367,1.682a1.893,1.893,0,0,0,1.928-1.08V-7.4h1.265V0h-1.2Zm6.727-5.53a3.79,3.79,0,0,0-.622-.048,1.667,1.667,0,0,0-1.688,1.06V0H98.062V-7.4h1.23l.021.854a1.969,1.969,0,0,1,1.764-.991,1.292,1.292,0,0,1,.561.1Zm3.838,4.546L107.306-7.4H108.6L105.946,0h-.964L102.3-7.4h1.292ZM114.181,0A2.657,2.657,0,0,1,114-.779,2.822,2.822,0,0,1,111.9.137,2.611,2.611,0,0,1,110.1-.482a2,2,0,0,1-.7-1.569,2.091,2.091,0,0,1,.878-1.794,4.141,4.141,0,0,1,2.471-.639h1.23v-.581a1.42,1.42,0,0,0-.4-1.056,1.593,1.593,0,0,0-1.169-.393,1.844,1.844,0,0,0-1.135.342,1.007,1.007,0,0,0-.458.827h-1.271a1.745,1.745,0,0,1,.393-1.07,2.683,2.683,0,0,1,1.066-.817,3.588,3.588,0,0,1,1.48-.3,2.924,2.924,0,0,1,2,.639,2.306,2.306,0,0,1,.752,1.76v3.4a4.162,4.162,0,0,0,.26,1.62V0Zm-2.1-.964a2.223,2.223,0,0,0,1.128-.308,1.861,1.861,0,0,0,.772-.8V-3.589h-.991q-2.324,0-2.324,1.36a1.151,1.151,0,0,0,.4.93A1.524,1.524,0,0,0,112.082-.964Z" transform="translate(624.506 1802.693)"/>
    <path id="Trazado_904104" data-name="Trazado 904104" d="M0,0H418.006V486.389H0Z" transform="translate(334.51 1570.611)" fill="none"/>
    <path id="Trazado_904095" data-name="Trazado 904095" d="M6.651-2.6H2.481L1.545,0H.191l3.8-9.953H5.141L8.948,0H7.6ZM2.878-3.678H6.262l-1.7-4.655ZM11.464,0H10.2V-10.5h1.265ZM15.2-9.187V-7.4h1.381v.978H15.2v4.593a1.027,1.027,0,0,0,.185.667.777.777,0,0,0,.629.222,3.062,3.062,0,0,0,.6-.082V0a3.688,3.688,0,0,1-.971.136,1.575,1.575,0,0,1-1.278-.513,2.2,2.2,0,0,1-.431-1.456V-6.419H12.592V-7.4h1.347V-9.187ZM22.627-.731A2.686,2.686,0,0,1,20.46.137a2.3,2.3,0,0,1-1.8-.687,2.974,2.974,0,0,1-.625-2.034V-7.4H19.3v4.778q0,1.682,1.367,1.682a1.893,1.893,0,0,0,1.928-1.08V-7.4h1.265V0h-1.2Zm6.727-5.53a3.79,3.79,0,0,0-.622-.048,1.667,1.667,0,0,0-1.688,1.06V0H25.778V-7.4h1.23l.021.854a1.969,1.969,0,0,1,1.764-.991,1.292,1.292,0,0,1,.561.1ZM34.809,0a2.657,2.657,0,0,1-.178-.779,2.822,2.822,0,0,1-2.105.916,2.611,2.611,0,0,1-1.794-.619,2,2,0,0,1-.7-1.569,2.091,2.091,0,0,1,.878-1.794,4.142,4.142,0,0,1,2.471-.639h1.23v-.581a1.42,1.42,0,0,0-.4-1.056,1.593,1.593,0,0,0-1.169-.393,1.844,1.844,0,0,0-1.135.342,1.007,1.007,0,0,0-.458.827H30.181a1.745,1.745,0,0,1,.393-1.07,2.683,2.683,0,0,1,1.066-.817,3.588,3.588,0,0,1,1.48-.3,2.924,2.924,0,0,1,2,.639,2.306,2.306,0,0,1,.752,1.76v3.4a4.162,4.162,0,0,0,.26,1.62V0Zm-2.1-.964a2.223,2.223,0,0,0,1.128-.308,1.861,1.861,0,0,0,.772-.8V-3.589h-.991q-2.324,0-2.324,1.36a1.151,1.151,0,0,0,.4.93A1.524,1.524,0,0,0,32.71-.964Zm8.306-2.8A4.333,4.333,0,0,1,41.822-6.5a2.551,2.551,0,0,1,2.112-1.036,2.565,2.565,0,0,1,2.058.889V-10.5h1.265V0H46.095l-.062-.793a2.575,2.575,0,0,1-2.112.93,2.526,2.526,0,0,1-2.1-1.053,4.382,4.382,0,0,1-.81-2.748Zm1.265.144a3.281,3.281,0,0,0,.52,1.969,1.68,1.68,0,0,0,1.436.711,1.845,1.845,0,0,0,1.757-1.08v-3.4A1.859,1.859,0,0,0,44.249-6.46a1.687,1.687,0,0,0-1.449.718A3.612,3.612,0,0,0,42.28-3.616ZM52.288.137a3.232,3.232,0,0,1-2.447-.988A3.666,3.666,0,0,1,48.9-3.493v-.232a4.438,4.438,0,0,1,.42-1.965,3.28,3.28,0,0,1,1.176-1.354,2.956,2.956,0,0,1,1.637-.489,2.77,2.77,0,0,1,2.242.95,4.114,4.114,0,0,1,.8,2.721v.526H50.162A2.629,2.629,0,0,0,50.8-1.569,2.009,2.009,0,0,0,52.356-.9a2.2,2.2,0,0,0,1.135-.273,2.851,2.851,0,0,0,.813-.725l.772.6A3.106,3.106,0,0,1,52.288.137Zm-.157-6.631a1.687,1.687,0,0,0-1.285.557A2.708,2.708,0,0,0,50.2-4.375h3.705v-.1a2.409,2.409,0,0,0-.52-1.494A1.588,1.588,0,0,0,52.131-6.494Zm15.49,3.336A3.662,3.662,0,0,1,66.456-.721a3.82,3.82,0,0,1-2.608.858,3.507,3.507,0,0,1-2.827-1.265,5.088,5.088,0,0,1-1.063-3.384v-.957a5.671,5.671,0,0,1,.5-2.44,3.7,3.7,0,0,1,1.4-1.617,3.911,3.911,0,0,1,2.105-.564,3.6,3.6,0,0,1,2.543.885,3.706,3.706,0,0,1,1.114,2.451H66.3a2.86,2.86,0,0,0-.742-1.728,2.244,2.244,0,0,0-1.6-.535,2.348,2.348,0,0,0-1.972.93,4.271,4.271,0,0,0-.714,2.648v.965a4.391,4.391,0,0,0,.677,2.579,2.187,2.187,0,0,0,1.894.958,2.526,2.526,0,0,0,1.678-.5A2.75,2.75,0,0,0,66.3-3.158ZM73.78,0A2.657,2.657,0,0,1,73.6-.779,2.822,2.822,0,0,1,71.5.137,2.611,2.611,0,0,1,69.7-.482,2,2,0,0,1,69-2.051a2.091,2.091,0,0,1,.878-1.794,4.141,4.141,0,0,1,2.471-.639h1.23v-.581a1.42,1.42,0,0,0-.4-1.056,1.593,1.593,0,0,0-1.169-.393,1.844,1.844,0,0,0-1.135.342,1.007,1.007,0,0,0-.458.827H69.152a1.745,1.745,0,0,1,.393-1.07,2.683,2.683,0,0,1,1.066-.817,3.588,3.588,0,0,1,1.48-.3,2.924,2.924,0,0,1,2,.639,2.306,2.306,0,0,1,.752,1.76v3.4a4.162,4.162,0,0,0,.26,1.62V0Zm-2.1-.964a2.223,2.223,0,0,0,1.128-.308,1.861,1.861,0,0,0,.772-.8V-3.589h-.991q-2.324,0-2.324,1.36a1.151,1.151,0,0,0,.4.93A1.524,1.524,0,0,0,71.682-.964Zm4.84-2.8A4.333,4.333,0,0,1,77.328-6.5,2.551,2.551,0,0,1,79.44-7.533a2.565,2.565,0,0,1,2.058.889V-10.5h1.265V0H81.6l-.062-.793a2.575,2.575,0,0,1-2.112.93,2.526,2.526,0,0,1-2.1-1.053,4.382,4.382,0,0,1-.81-2.748Zm1.265.144a3.281,3.281,0,0,0,.52,1.969,1.68,1.68,0,0,0,1.436.711A1.845,1.845,0,0,0,81.5-2.017v-3.4A1.859,1.859,0,0,0,79.755-6.46a1.687,1.687,0,0,0-1.449.718A3.612,3.612,0,0,0,77.786-3.616ZM87.794.137a3.232,3.232,0,0,1-2.447-.988A3.666,3.666,0,0,1,84.4-3.493v-.232a4.438,4.438,0,0,1,.42-1.965A3.28,3.28,0,0,1,86-7.044a2.956,2.956,0,0,1,1.637-.489,2.77,2.77,0,0,1,2.242.95,4.114,4.114,0,0,1,.8,2.721v.526H85.668a2.629,2.629,0,0,0,.639,1.767A2.009,2.009,0,0,0,87.862-.9,2.2,2.2,0,0,0,89-1.169a2.851,2.851,0,0,0,.813-.725l.772.6A3.106,3.106,0,0,1,87.794.137Zm-.157-6.631a1.687,1.687,0,0,0-1.285.557,2.708,2.708,0,0,0-.643,1.562h3.705v-.1a2.409,2.409,0,0,0-.52-1.494A1.588,1.588,0,0,0,87.637-6.494Zm8.08.232a3.79,3.79,0,0,0-.622-.048,1.667,1.667,0,0,0-1.688,1.06V0H92.142V-7.4h1.23l.021.854a1.969,1.969,0,0,1,1.764-.991,1.292,1.292,0,0,1,.561.1ZM101.172,0a2.657,2.657,0,0,1-.178-.779,2.822,2.822,0,0,1-2.105.916,2.611,2.611,0,0,1-1.794-.619,2,2,0,0,1-.7-1.569,2.091,2.091,0,0,1,.878-1.794,4.141,4.141,0,0,1,2.471-.639h1.23v-.581a1.42,1.42,0,0,0-.4-1.056,1.593,1.593,0,0,0-1.169-.393,1.844,1.844,0,0,0-1.135.342,1.007,1.007,0,0,0-.458.827H96.544a1.745,1.745,0,0,1,.393-1.07A2.683,2.683,0,0,1,98-7.232a3.588,3.588,0,0,1,1.48-.3,2.924,2.924,0,0,1,2,.639,2.306,2.306,0,0,1,.752,1.76v3.4a4.162,4.162,0,0,0,.26,1.62V0Zm-2.1-.964a2.223,2.223,0,0,0,1.128-.308,1.861,1.861,0,0,0,.772-.8V-3.589h-.991q-2.324,0-2.324,1.36a1.151,1.151,0,0,0,.4.93A1.524,1.524,0,0,0,99.073-.964ZM111.31-5.339h2.775v1.2H111.31V-1h-1.271V-4.143h-2.775v-1.2h2.775V-8.244h1.271ZM125-7.355a2.311,2.311,0,0,1-.393,1.326,2.674,2.674,0,0,1-1.063.909,2.853,2.853,0,0,1,1.234.978,2.46,2.46,0,0,1,.455,1.456,2.6,2.6,0,0,1-.872,2.058,3.349,3.349,0,0,1-2.293.766,3.334,3.334,0,0,1-2.3-.769,2.613,2.613,0,0,1-.865-2.054,2.533,2.533,0,0,1,.441-1.456,2.744,2.744,0,0,1,1.22-.984,2.608,2.608,0,0,1-1.046-.909,2.344,2.344,0,0,1-.383-1.319,2.573,2.573,0,0,1,.807-2,3.026,3.026,0,0,1,2.126-.738,3.029,3.029,0,0,1,2.123.738A2.567,2.567,0,0,1,125-7.355Zm-1.032,4.642a1.834,1.834,0,0,0-.53-1.36,1.879,1.879,0,0,0-1.384-.526,1.846,1.846,0,0,0-1.371.52,1.855,1.855,0,0,0-.516,1.367,1.767,1.767,0,0,0,.5,1.333,1.929,1.929,0,0,0,1.4.485,1.923,1.923,0,0,0,1.395-.489A1.763,1.763,0,0,0,123.963-2.714Zm-1.9-6.337a1.632,1.632,0,0,0-1.207.461,1.7,1.7,0,0,0-.461,1.254,1.687,1.687,0,0,0,.455,1.227,1.613,1.613,0,0,0,1.213.468,1.613,1.613,0,0,0,1.213-.468,1.687,1.687,0,0,0,.455-1.227,1.687,1.687,0,0,0-.472-1.237A1.609,1.609,0,0,0,122.063-9.051ZM129.917-.9a1.822,1.822,0,0,0,1.183-.41,1.443,1.443,0,0,0,.561-1.025h1.2a2.293,2.293,0,0,1-.437,1.21,2.881,2.881,0,0,1-1.077.916,3.107,3.107,0,0,1-1.425.342,3.047,3.047,0,0,1-2.4-1.008,4.016,4.016,0,0,1-.892-2.758v-.212a4.453,4.453,0,0,1,.4-1.921,3.02,3.02,0,0,1,1.138-1.306,3.233,3.233,0,0,1,1.753-.465,2.966,2.966,0,0,1,2.068.745,2.663,2.663,0,0,1,.878,1.935h-1.2a1.743,1.743,0,0,0-.543-1.179,1.691,1.691,0,0,0-1.207-.461,1.77,1.77,0,0,0-1.494.694,3.259,3.259,0,0,0-.53,2.006v.239a3.194,3.194,0,0,0,.526,1.969A1.779,1.779,0,0,0,129.917-.9Zm5.558-6.5.041.93a2.7,2.7,0,0,1,2.215-1.066q2.345,0,2.365,2.646V0h-1.265V-4.895a1.7,1.7,0,0,0-.366-1.183,1.466,1.466,0,0,0-1.118-.383,1.825,1.825,0,0,0-1.08.328,2.228,2.228,0,0,0-.725.861V0h-1.265V-7.4Z" transform="translate(399.899 2038.33) rotate(-90)"/>
    <path id="Trazado_904105" data-name="Trazado 904105" d="M7.349,0H.827V-.909L4.272-4.737A8.185,8.185,0,0,0,5.329-6.149a2.356,2.356,0,0,0,.291-1.125,1.786,1.786,0,0,0-.472-1.278,1.649,1.649,0,0,0-1.258-.5,1.953,1.953,0,0,0-1.466.537A2.05,2.05,0,0,0,1.9-7.021H.636a2.936,2.936,0,0,1,.885-2.222A3.282,3.282,0,0,1,3.89-10.09a3.153,3.153,0,0,1,2.194.728,2.483,2.483,0,0,1,.807,1.938q0,1.47-1.873,3.5L2.352-1.032h5Zm7.9-.9a1.822,1.822,0,0,0,1.183-.41,1.443,1.443,0,0,0,.561-1.025h1.2a2.293,2.293,0,0,1-.437,1.21,2.881,2.881,0,0,1-1.077.916,3.107,3.107,0,0,1-1.425.342,3.047,3.047,0,0,1-2.4-1.008,4.016,4.016,0,0,1-.892-2.758v-.212a4.453,4.453,0,0,1,.4-1.921,3.02,3.02,0,0,1,1.138-1.306,3.233,3.233,0,0,1,1.753-.465,2.966,2.966,0,0,1,2.068.745,2.663,2.663,0,0,1,.878,1.935h-1.2a1.743,1.743,0,0,0-.543-1.179,1.691,1.691,0,0,0-1.207-.461A1.77,1.77,0,0,0,13.75-5.8a3.259,3.259,0,0,0-.53,2.006v.239a3.194,3.194,0,0,0,.526,1.969A1.779,1.779,0,0,0,15.251-.9ZM20.8-7.4l.034.82a2.732,2.732,0,0,1,2.194-.957,2.115,2.115,0,0,1,2.112,1.189,2.8,2.8,0,0,1,.96-.861,2.837,2.837,0,0,1,1.4-.328q2.434,0,2.475,2.577V0H28.711V-4.881a1.7,1.7,0,0,0-.362-1.186,1.6,1.6,0,0,0-1.217-.393,1.677,1.677,0,0,0-1.169.42,1.706,1.706,0,0,0-.54,1.131V0H24.151V-4.847A1.411,1.411,0,0,0,22.572-6.46a1.692,1.692,0,0,0-1.7,1.06V0H19.605V-7.4Z" transform="translate(334.51 1628.162)"/>
    <path id="Trazado_904106" data-name="Trazado 904106" d="M0,0H418.006V486.389H0Z" transform="translate(334.51 1570.611)" fill="none"/>
    <path id="Trazado_904096" data-name="Trazado 904096" d="M7.349,0H.827V-.909L4.272-4.737A8.185,8.185,0,0,0,5.329-6.149a2.356,2.356,0,0,0,.291-1.125,1.786,1.786,0,0,0-.472-1.278,1.649,1.649,0,0,0-1.258-.5,1.953,1.953,0,0,0-1.466.537A2.05,2.05,0,0,0,1.9-7.021H.636a2.936,2.936,0,0,1,.885-2.222A3.282,3.282,0,0,1,3.89-10.09a3.153,3.153,0,0,1,2.194.728,2.483,2.483,0,0,1,.807,1.938q0,1.47-1.873,3.5L2.352-1.032h5Zm7.9-.9a1.822,1.822,0,0,0,1.183-.41,1.443,1.443,0,0,0,.561-1.025h1.2a2.293,2.293,0,0,1-.437,1.21,2.881,2.881,0,0,1-1.077.916,3.107,3.107,0,0,1-1.425.342,3.047,3.047,0,0,1-2.4-1.008,4.016,4.016,0,0,1-.892-2.758v-.212a4.453,4.453,0,0,1,.4-1.921,3.02,3.02,0,0,1,1.138-1.306,3.233,3.233,0,0,1,1.753-.465,2.966,2.966,0,0,1,2.068.745,2.663,2.663,0,0,1,.878,1.935h-1.2a1.743,1.743,0,0,0-.543-1.179,1.691,1.691,0,0,0-1.207-.461A1.77,1.77,0,0,0,13.75-5.8a3.259,3.259,0,0,0-.53,2.006v.239a3.194,3.194,0,0,0,.526,1.969A1.779,1.779,0,0,0,15.251-.9ZM20.8-7.4l.034.82a2.732,2.732,0,0,1,2.194-.957,2.115,2.115,0,0,1,2.112,1.189,2.8,2.8,0,0,1,.96-.861,2.837,2.837,0,0,1,1.4-.328q2.434,0,2.475,2.577V0H28.711V-4.881a1.7,1.7,0,0,0-.362-1.186,1.6,1.6,0,0,0-1.217-.393,1.677,1.677,0,0,0-1.169.42,1.706,1.706,0,0,0-.54,1.131V0H24.151V-4.847A1.411,1.411,0,0,0,22.572-6.46a1.692,1.692,0,0,0-1.7,1.06V0H19.605V-7.4Z" transform="translate(377.37 1628.162)"/>
    <path id="Trazado_904097" data-name="Trazado 904097" d="M0,182.253V0" transform="translate(411.42 1872.033)" fill="none" stroke="#1d1d1b" stroke-width="1"/>
    <path id="Trazado_904098" data-name="Trazado 904098" d="M0,0H5.276V.812H0Z" transform="translate(408.782 2053.879)" fill="#1d1d1b"/>
    <path id="Trazado_904099" data-name="Trazado 904099" d="M0,0H5.276V.812H0Z" transform="translate(408.782 1871.628)" fill="#1d1d1b"/>
    <path id="Trazado_903915" data-name="Trazado 903915" d="M112.888,62.213s62.192-1.072,58.439-52.005l85.245,30.56s-13.4,102.938,14.476,134.57V487.905H112.888Z" transform="translate(313.248 1568.688)" fill="none" stroke="#1d1d1b" stroke-miterlimit="10" stroke-width="1"/>
    <path id="Trazado_904107" data-name="Trazado 904107" d="M115.269,0H0" transform="translate(426.136 1871.091)" fill="none" stroke="#1d1d1b" stroke-width="1" stroke-dasharray="6 6"/>
    <path id="Trazado_903916" data-name="Trazado 903916" d="M230.838,301.158,256.572,164.98c-38.066-46.108-12.867-132.426-12.867-132.426L157.388,3.6c-2.144,45.572-44.5,43.963-44.5,43.963v13.4" transform="translate(313.248 1569.933)" fill="none" stroke="#1d1d1b" stroke-miterlimit="10" stroke-width="1" stroke-dasharray="6 6"/>
    <path id="Trazado_903917" data-name="Trazado 903917" d="M119.494,56.907l23.054-4.825,19.3-19.837,6.59-24.591" transform="translate(312.004 1569.17)" fill="none" stroke="#1d1d1b" stroke-miterlimit="10" stroke-width="1" stroke-dasharray="6 6"/>
    <path id="Trazado_904108" data-name="Trazado 904108" d="M4.661,8.828,0,0" transform="translate(448.59 1612.098)" fill="none" stroke="#1d1d1b" stroke-width="1"/>
    <path id="Trazado_903918" data-name="Trazado 903918" d="M148.362,58.372l-.307,8.087L141.2,62.151Z" transform="translate(307.915 1559.617)" fill="#1d1d1b"/>
    <path id="Trazado_904109" data-name="Trazado 904109" d="M8.082,5.861,0,0" transform="translate(464.484 1600.484)" fill="none" stroke="#1d1d1b" stroke-width="1"/>
    <path id="Trazado_903919" data-name="Trazado 903919" d="M170.736,39.133l3.3,7.39-8.049-.838Z" transform="translate(303.247 1563.241)" fill="#1d1d1b"/>
    <path id="Trazado_904110" data-name="Trazado 904110" d="M0,0V15.621" transform="translate(371.45 1615.354)" fill="none" stroke="#1d1d1b" stroke-width="1"/>
    <path id="Trazado_903920" data-name="Trazado 903920" d="M40.526,72.912l4.047,7.009,4.047-7.009Z" transform="translate(326.877 1556.879)" fill="#1d1d1b"/>
    <path id="Trazado_904111" data-name="Trazado 904111" d="M0,0V15.621" transform="translate(415.559 1615.354)" fill="none" stroke="#1d1d1b" stroke-width="1"/>
    <path id="Trazado_903921" data-name="Trazado 903921" d="M94.871,72.912l4.047,7.009,4.047-7.009Z" transform="translate(316.642 1556.879)" fill="#1d1d1b"/>
    <path id="Trazado_904112" data-name="Trazado 904112" d="M0,0H15.621" transform="translate(553.986 1592.503)" fill="none" stroke="#1d1d1b" stroke-width="1"/>
    <path id="Trazado_903922" data-name="Trazado 903922" d="M288.193,30.08l7.009-4.047-7.009-4.047Z" transform="translate(280.23 1566.471)" fill="#1d1d1b"/>
    <path id="Trazado_904113" data-name="Trazado 904113" d="M0,0H15.621" transform="translate(575.718 1725.798)" fill="none" stroke="#1d1d1b" stroke-width="1"/>
    <path id="Trazado_903923" data-name="Trazado 903923" d="M314.969,194.306l7.009-4.047-7.009-4.047Z" transform="translate(275.187 1535.539)" fill="#1d1d1b"/>
    <path id="Trazado_904114" data-name="Trazado 904114" d="M0,0H15.621" transform="translate(593.533 1782.628)" fill="none" stroke="#1d1d1b" stroke-width="1"/>
    <path id="Trazado_903924" data-name="Trazado 903924" d="M336.917,264.325l7.009-4.047-7.009-4.047Z" transform="translate(271.053 1522.351)" fill="#1d1d1b"/>
    <path id="Trazado_904115" data-name="Trazado 904115" d="M0,0V15.621" transform="translate(580.398 1601.375)" fill="none" stroke="#1d1d1b" stroke-width="1"/>
    <path id="Trazado_903925" data-name="Trazado 903925" d="M297.96,55.69l4.047,7.009,4.047-7.009Z" transform="translate(278.39 1560.122)" fill="#1d1d1b"/>
    <path id="Trazado_904116" data-name="Trazado 904116" d="M0,0H69.162" transform="translate(517.279 1601.45)" fill="none" stroke="#1d1d1b" stroke-width="2"/>
    <path id="Trazado_904117" data-name="Trazado 904117" d="M0,0V15.621" transform="translate(604.256 1734.337)" fill="none" stroke="#1d1d1b" stroke-width="1"/>
    <path id="Trazado_903926" data-name="Trazado 903926" d="M327.355,219.506l4.047,7.009,4.047-7.009Z" transform="translate(272.854 1529.268)" fill="#1d1d1b"/>
    <path id="Trazado_904118" data-name="Trazado 904118" d="M0,0H69.162" transform="translate(541.137 1734.412)" fill="none" stroke="#1d1d1b" stroke-width="2"/>
    <path id="Trazado_904119" data-name="Trazado 904119" d="M0,0H418.006V486.389H0Z" transform="translate(334.51 1570.611)" fill="none"/>
    <path id="Trazado_904100" data-name="Trazado 904100" d="M7.349,0H.827V-.909L4.272-4.737A8.185,8.185,0,0,0,5.329-6.149a2.356,2.356,0,0,0,.291-1.125,1.786,1.786,0,0,0-.472-1.278,1.649,1.649,0,0,0-1.258-.5,1.953,1.953,0,0,0-1.466.537A2.05,2.05,0,0,0,1.9-7.021H.636a2.936,2.936,0,0,1,.885-2.222A3.282,3.282,0,0,1,3.89-10.09a3.153,3.153,0,0,1,2.194.728,2.483,2.483,0,0,1,.807,1.938q0,1.47-1.873,3.5L2.352-1.032h5Zm7.9-.9a1.822,1.822,0,0,0,1.183-.41,1.443,1.443,0,0,0,.561-1.025h1.2a2.293,2.293,0,0,1-.437,1.21,2.881,2.881,0,0,1-1.077.916,3.107,3.107,0,0,1-1.425.342,3.047,3.047,0,0,1-2.4-1.008,4.016,4.016,0,0,1-.892-2.758v-.212a4.453,4.453,0,0,1,.4-1.921,3.02,3.02,0,0,1,1.138-1.306,3.233,3.233,0,0,1,1.753-.465,2.966,2.966,0,0,1,2.068.745,2.663,2.663,0,0,1,.878,1.935h-1.2a1.743,1.743,0,0,0-.543-1.179,1.691,1.691,0,0,0-1.207-.461A1.77,1.77,0,0,0,13.75-5.8a3.259,3.259,0,0,0-.53,2.006v.239a3.194,3.194,0,0,0,.526,1.969A1.779,1.779,0,0,0,15.251-.9ZM20.8-7.4l.034.82a2.732,2.732,0,0,1,2.194-.957,2.115,2.115,0,0,1,2.112,1.189,2.8,2.8,0,0,1,.96-.861,2.837,2.837,0,0,1,1.4-.328q2.434,0,2.475,2.577V0H28.711V-4.881a1.7,1.7,0,0,0-.362-1.186,1.6,1.6,0,0,0-1.217-.393,1.677,1.677,0,0,0-1.169.42,1.706,1.706,0,0,0-.54,1.131V0H24.151V-4.847A1.411,1.411,0,0,0,22.572-6.46a1.692,1.692,0,0,0-1.7,1.06V0H19.605V-7.4Z" transform="translate(593.587 1628.162)"/>
  </g>
</svg>
