<svg xmlns="http://www.w3.org/2000/svg" width="408.181" height="515.592" viewBox="0 0 408.181 515.592">
  <g id="Grupo_1114955" data-name="Grupo 1114955" transform="translate(-947.282 -1543.25)">
    <path id="Trazado_904120" data-name="Trazado 904120" d="M5.339,0H3.977V-9.031l-2.732,1v-1.23l3.882-1.458h.212Zm9.69-3.582h1.479v1.106H15.029V0H13.667V-2.476H8.811v-.8l4.775-7.39h1.443Zm-4.68,0h3.318V-8.811l-.161.293ZM24.763-.959A1.952,1.952,0,0,0,26.03-1.4a1.546,1.546,0,0,0,.6-1.1h1.282a2.457,2.457,0,0,1-.469,1.3A3.087,3.087,0,0,1,26.29-.22a3.329,3.329,0,0,1-1.527.366,3.265,3.265,0,0,1-2.574-1.08,4.3,4.3,0,0,1-.956-2.955v-.227a4.771,4.771,0,0,1,.425-2.058,3.236,3.236,0,0,1,1.219-1.4,3.464,3.464,0,0,1,1.879-.5,3.178,3.178,0,0,1,2.216.8A2.853,2.853,0,0,1,27.913-5.2H26.631a1.867,1.867,0,0,0-.582-1.263,1.811,1.811,0,0,0-1.293-.494,1.9,1.9,0,0,0-1.6.743,3.491,3.491,0,0,0-.568,2.15v.256A3.422,3.422,0,0,0,23.152-1.7,1.906,1.906,0,0,0,24.763-.959ZM30.71-7.925l.037.879A2.927,2.927,0,0,1,33.1-8.071,2.266,2.266,0,0,1,35.361-6.8,3,3,0,0,1,36.39-7.72a3.039,3.039,0,0,1,1.5-.352q2.607,0,2.651,2.761V0H39.185V-5.229A1.82,1.82,0,0,0,38.8-6.5a1.71,1.71,0,0,0-1.3-.421,1.8,1.8,0,0,0-1.252.45,1.827,1.827,0,0,0-.579,1.212V0H34.3V-5.193a1.512,1.512,0,0,0-1.692-1.729,1.813,1.813,0,0,0-1.824,1.135V0H29.429V-7.925Z" transform="translate(976.096 1565.828)"/>
    <path id="Trazado_904129" data-name="Trazado 904129" d="M7.874,0H.886V-.974l3.691-4.1A8.77,8.77,0,0,0,5.709-6.588a2.524,2.524,0,0,0,.311-1.2,1.913,1.913,0,0,0-.505-1.37A1.767,1.767,0,0,0,4.167-9.7,2.093,2.093,0,0,0,2.6-9.122a2.2,2.2,0,0,0-.56,1.6H.681A3.145,3.145,0,0,1,1.63-9.9a3.516,3.516,0,0,1,2.538-.908,3.379,3.379,0,0,1,2.351.78,2.661,2.661,0,0,1,.864,2.076q0,1.575-2.007,3.75L2.52-1.106H7.874ZM9.4,2.124,8.635,1.6A3.534,3.534,0,0,0,9.353-.381V-1.6h1.326V-.542A3.336,3.336,0,0,1,10.316.938,3.464,3.464,0,0,1,9.4,2.124Zm3.472-7.471.542-5.317h5.464v1.252H14.568L14.246-6.5a3.441,3.441,0,0,1,1.78-.461A2.942,2.942,0,0,1,18.34-6,3.775,3.775,0,0,1,19.2-3.4a3.643,3.643,0,0,1-.89,2.6A3.243,3.243,0,0,1,15.82.146a3.371,3.371,0,0,1-2.307-.784A3.128,3.128,0,0,1,12.5-2.805h1.282a2.152,2.152,0,0,0,.652,1.381,2.027,2.027,0,0,0,1.392.465A1.828,1.828,0,0,0,17.3-1.6a2.694,2.694,0,0,0,.538-1.78A2.473,2.473,0,0,0,17.26-5.1,1.981,1.981,0,0,0,15.71-5.75a2.234,2.234,0,0,0-1.392.388l-.359.293ZM27.708-.959A1.952,1.952,0,0,0,28.975-1.4a1.546,1.546,0,0,0,.6-1.1h1.282a2.457,2.457,0,0,1-.469,1.3,3.087,3.087,0,0,1-1.154.981,3.329,3.329,0,0,1-1.527.366,3.265,3.265,0,0,1-2.574-1.08,4.3,4.3,0,0,1-.956-2.955v-.227A4.771,4.771,0,0,1,24.6-6.174a3.236,3.236,0,0,1,1.219-1.4,3.464,3.464,0,0,1,1.879-.5,3.178,3.178,0,0,1,2.216.8A2.853,2.853,0,0,1,30.857-5.2H29.575a1.867,1.867,0,0,0-.582-1.263A1.811,1.811,0,0,0,27.7-6.958a1.9,1.9,0,0,0-1.6.743,3.491,3.491,0,0,0-.568,2.15v.256A3.422,3.422,0,0,0,26.1-1.7,1.906,1.906,0,0,0,27.708-.959Zm5.947-6.965.037.879a2.927,2.927,0,0,1,2.351-1.025A2.266,2.266,0,0,1,38.306-6.8a3,3,0,0,1,1.029-.923,3.039,3.039,0,0,1,1.5-.352q2.607,0,2.651,2.761V0H42.129V-5.229A1.82,1.82,0,0,0,41.741-6.5a1.71,1.71,0,0,0-1.3-.421,1.8,1.8,0,0,0-1.252.45,1.827,1.827,0,0,0-.579,1.212V0H37.244V-5.193a1.512,1.512,0,0,0-1.692-1.729,1.813,1.813,0,0,0-1.824,1.135V0H32.373V-7.925Z" transform="translate(1129.646 1556.345)"/>
    <path id="Trazado_904130" data-name="Trazado 904130" d="M0,0H408.181V515.523H0Z" transform="translate(947.282 1543.25)" fill="none"/>
    <path id="Trazado_904121" data-name="Trazado 904121" d="M7.874,0H.886V-.974l3.691-4.1A8.77,8.77,0,0,0,5.709-6.588a2.524,2.524,0,0,0,.311-1.2,1.913,1.913,0,0,0-.505-1.37A1.767,1.767,0,0,0,4.167-9.7,2.093,2.093,0,0,0,2.6-9.122a2.2,2.2,0,0,0-.56,1.6H.681A3.145,3.145,0,0,1,1.63-9.9a3.516,3.516,0,0,1,2.538-.908,3.379,3.379,0,0,1,2.351.78,2.661,2.661,0,0,1,.864,2.076q0,1.575-2.007,3.75L2.52-1.106H7.874ZM9.4,2.124,8.635,1.6A3.534,3.534,0,0,0,9.353-.381V-1.6h1.326V-.542A3.336,3.336,0,0,1,10.316.938,3.464,3.464,0,0,1,9.4,2.124Zm3.472-7.471.542-5.317h5.464v1.252H14.568L14.246-6.5a3.441,3.441,0,0,1,1.78-.461A2.942,2.942,0,0,1,18.34-6,3.775,3.775,0,0,1,19.2-3.4a3.643,3.643,0,0,1-.89,2.6A3.243,3.243,0,0,1,15.82.146a3.371,3.371,0,0,1-2.307-.784A3.128,3.128,0,0,1,12.5-2.805h1.282a2.152,2.152,0,0,0,.652,1.381,2.027,2.027,0,0,0,1.392.465A1.828,1.828,0,0,0,17.3-1.6a2.694,2.694,0,0,0,.538-1.78A2.473,2.473,0,0,0,17.26-5.1,1.981,1.981,0,0,0,15.71-5.75a2.234,2.234,0,0,0-1.392.388l-.359.293ZM27.708-.959A1.952,1.952,0,0,0,28.975-1.4a1.546,1.546,0,0,0,.6-1.1h1.282a2.457,2.457,0,0,1-.469,1.3,3.087,3.087,0,0,1-1.154.981,3.329,3.329,0,0,1-1.527.366,3.265,3.265,0,0,1-2.574-1.08,4.3,4.3,0,0,1-.956-2.955v-.227A4.771,4.771,0,0,1,24.6-6.174a3.236,3.236,0,0,1,1.219-1.4,3.464,3.464,0,0,1,1.879-.5,3.178,3.178,0,0,1,2.216.8A2.853,2.853,0,0,1,30.857-5.2H29.575a1.867,1.867,0,0,0-.582-1.263A1.811,1.811,0,0,0,27.7-6.958a1.9,1.9,0,0,0-1.6.743,3.491,3.491,0,0,0-.568,2.15v.256A3.422,3.422,0,0,0,26.1-1.7,1.906,1.906,0,0,0,27.708-.959Zm5.947-6.965.037.879a2.927,2.927,0,0,1,2.351-1.025A2.266,2.266,0,0,1,38.306-6.8a3,3,0,0,1,1.029-.923,3.039,3.039,0,0,1,1.5-.352q2.607,0,2.651,2.761V0H42.129V-5.229A1.82,1.82,0,0,0,41.741-6.5a1.71,1.71,0,0,0-1.3-.421,1.8,1.8,0,0,0-1.252.45,1.827,1.827,0,0,0-.579,1.212V0H37.244V-5.193a1.512,1.512,0,0,0-1.692-1.729,1.813,1.813,0,0,0-1.824,1.135V0H32.373V-7.925Z" transform="translate(1174.513 1691.021)"/>
    <path id="Trazado_904122" data-name="Trazado 904122" d="M5.339,0H3.977V-9.031l-2.732,1v-1.23l3.882-1.458h.212ZM9.4,2.124,8.635,1.6A3.534,3.534,0,0,0,9.353-.381V-1.6h1.326V-.542A3.336,3.336,0,0,1,10.316.938,3.464,3.464,0,0,1,9.4,2.124Zm3.472-7.471.542-5.317h5.464v1.252H14.568L14.246-6.5a3.441,3.441,0,0,1,1.78-.461A2.942,2.942,0,0,1,18.34-6,3.775,3.775,0,0,1,19.2-3.4a3.643,3.643,0,0,1-.89,2.6A3.243,3.243,0,0,1,15.82.146a3.371,3.371,0,0,1-2.307-.784A3.128,3.128,0,0,1,12.5-2.805h1.282a2.152,2.152,0,0,0,.652,1.381,2.027,2.027,0,0,0,1.392.465A1.828,1.828,0,0,0,17.3-1.6a2.694,2.694,0,0,0,.538-1.78A2.473,2.473,0,0,0,17.26-5.1,1.981,1.981,0,0,0,15.71-5.75a2.234,2.234,0,0,0-1.392.388l-.359.293ZM27.708-.959A1.952,1.952,0,0,0,28.975-1.4a1.546,1.546,0,0,0,.6-1.1h1.282a2.457,2.457,0,0,1-.469,1.3,3.087,3.087,0,0,1-1.154.981,3.329,3.329,0,0,1-1.527.366,3.265,3.265,0,0,1-2.574-1.08,4.3,4.3,0,0,1-.956-2.955v-.227A4.771,4.771,0,0,1,24.6-6.174a3.236,3.236,0,0,1,1.219-1.4,3.464,3.464,0,0,1,1.879-.5,3.178,3.178,0,0,1,2.216.8A2.853,2.853,0,0,1,30.857-5.2H29.575a1.867,1.867,0,0,0-.582-1.263A1.811,1.811,0,0,0,27.7-6.958a1.9,1.9,0,0,0-1.6.743,3.491,3.491,0,0,0-.568,2.15v.256A3.422,3.422,0,0,0,26.1-1.7,1.906,1.906,0,0,0,27.708-.959Zm5.947-6.965.037.879a2.927,2.927,0,0,1,2.351-1.025A2.266,2.266,0,0,1,38.306-6.8a3,3,0,0,1,1.029-.923,3.039,3.039,0,0,1,1.5-.352q2.607,0,2.651,2.761V0H42.129V-5.229A1.82,1.82,0,0,0,41.741-6.5a1.71,1.71,0,0,0-1.3-.421,1.8,1.8,0,0,0-1.252.45,1.827,1.827,0,0,0-.579,1.212V0H37.244V-5.193a1.512,1.512,0,0,0-1.692-1.729,1.813,1.813,0,0,0-1.824,1.135V0H32.373V-7.925Z" transform="translate(1209.572 1730.794)"/>
    <path id="Trazado_904123" data-name="Trazado 904123" d="M4.38-4.753A6.612,6.612,0,0,1,1.747-6.031,2.442,2.442,0,0,1,.923-7.9,2.58,2.58,0,0,1,1.93-9.987a4,4,0,0,1,2.618-.824,4.369,4.369,0,0,1,1.959.425A3.222,3.222,0,0,1,7.841-9.214a3,3,0,0,1,.472,1.633H6.9a1.95,1.95,0,0,0-.615-1.525,2.5,2.5,0,0,0-1.736-.555A2.561,2.561,0,0,0,2.926-9.2a1.53,1.53,0,0,0-.582,1.273,1.376,1.376,0,0,0,.553,1.1A5.424,5.424,0,0,0,4.779-6a8.734,8.734,0,0,1,2.08.825A3.157,3.157,0,0,1,7.972-4.124,2.683,2.683,0,0,1,8.335-2.71,2.492,2.492,0,0,1,7.324-.634a4.31,4.31,0,0,1-2.7.78A5.013,5.013,0,0,1,2.571-.275,3.451,3.451,0,0,1,1.1-1.428,2.815,2.815,0,0,1,.586-3.091H2a1.837,1.837,0,0,0,.714,1.527A3.007,3.007,0,0,0,4.622-1a2.764,2.764,0,0,0,1.707-.454A1.475,1.475,0,0,0,6.921-2.7a1.448,1.448,0,0,0-.549-1.212A6.333,6.333,0,0,0,4.38-4.753Zm8.833,4.9A3.463,3.463,0,0,1,10.591-.912,3.928,3.928,0,0,1,9.58-3.743v-.249a4.756,4.756,0,0,1,.45-2.106,3.514,3.514,0,0,1,1.26-1.45,3.167,3.167,0,0,1,1.754-.524,2.968,2.968,0,0,1,2.4,1.018A4.408,4.408,0,0,1,16.3-4.138v.564H10.935a2.817,2.817,0,0,0,.685,1.893,2.153,2.153,0,0,0,1.666.721A2.36,2.36,0,0,0,14.5-1.252a3.055,3.055,0,0,0,.872-.776l.828.645A3.328,3.328,0,0,1,13.213.146Zm-.168-7.1a1.807,1.807,0,0,0-1.377.6,2.9,2.9,0,0,0-.688,1.674h3.97v-.1a2.581,2.581,0,0,0-.557-1.6A1.7,1.7,0,0,0,13.044-6.958ZM26.2-2.1a1,1,0,0,0-.414-.853,3.983,3.983,0,0,0-1.443-.524,6.822,6.822,0,0,1-1.633-.527,2.324,2.324,0,0,1-.894-.732,1.752,1.752,0,0,1-.289-1.011A2.056,2.056,0,0,1,22.35-7.4a3.218,3.218,0,0,1,2.106-.674,3.311,3.311,0,0,1,2.186.7A2.21,2.21,0,0,1,27.48-5.6H26.118a1.223,1.223,0,0,0-.472-.959,1.77,1.77,0,0,0-1.19-.4,1.852,1.852,0,0,0-1.157.322,1.014,1.014,0,0,0-.417.842.822.822,0,0,0,.388.74,4.776,4.776,0,0,0,1.4.476,7.308,7.308,0,0,1,1.644.542,2.4,2.4,0,0,1,.934.758,1.864,1.864,0,0,1,.3,1.08,2.028,2.028,0,0,1-.85,1.7,3.564,3.564,0,0,1-2.2.641A3.991,3.991,0,0,1,22.815-.19a2.74,2.74,0,0,1-1.146-.941,2.268,2.268,0,0,1-.414-1.307H22.61a1.4,1.4,0,0,0,.546,1.08,2.117,2.117,0,0,0,1.344.4,2.185,2.185,0,0,0,1.234-.311A.956.956,0,0,0,26.2-2.1ZM34.211,0a2.846,2.846,0,0,1-.19-.835,3.023,3.023,0,0,1-2.256.981,2.8,2.8,0,0,1-1.923-.663A2.145,2.145,0,0,1,29.092-2.2a2.24,2.24,0,0,1,.941-1.923A4.437,4.437,0,0,1,32.681-4.8H34v-.623a1.522,1.522,0,0,0-.425-1.132,1.707,1.707,0,0,0-1.252-.421,1.976,1.976,0,0,0-1.216.366,1.079,1.079,0,0,0-.491.886H29.253a1.87,1.87,0,0,1,.421-1.146,2.874,2.874,0,0,1,1.143-.875A3.844,3.844,0,0,1,32.4-8.071a3.133,3.133,0,0,1,2.146.685A2.47,2.47,0,0,1,35.354-5.5v3.647a4.459,4.459,0,0,0,.278,1.736V0ZM31.963-1.033a2.381,2.381,0,0,0,1.208-.33A1.994,1.994,0,0,0,34-2.219V-3.845H32.937q-2.49,0-2.49,1.458a1.234,1.234,0,0,0,.425,1A1.633,1.633,0,0,0,31.963-1.033Zm8.694.073A1.952,1.952,0,0,0,41.924-1.4a1.546,1.546,0,0,0,.6-1.1h1.282a2.457,2.457,0,0,1-.469,1.3,3.087,3.087,0,0,1-1.154.981,3.329,3.329,0,0,1-1.527.366,3.265,3.265,0,0,1-2.574-1.08,4.3,4.3,0,0,1-.956-2.955v-.227a4.771,4.771,0,0,1,.425-2.058,3.236,3.236,0,0,1,1.219-1.4,3.464,3.464,0,0,1,1.879-.5,3.178,3.178,0,0,1,2.216.8A2.853,2.853,0,0,1,43.806-5.2H42.524a1.867,1.867,0,0,0-.582-1.263,1.811,1.811,0,0,0-1.293-.494,1.9,1.9,0,0,0-1.6.743,3.491,3.491,0,0,0-.568,2.15v.256A3.422,3.422,0,0,0,39.045-1.7,1.906,1.906,0,0,0,40.657-.959ZM50.222,0a2.846,2.846,0,0,1-.19-.835,3.023,3.023,0,0,1-2.256.981,2.8,2.8,0,0,1-1.923-.663A2.145,2.145,0,0,1,45.1-2.2a2.24,2.24,0,0,1,.941-1.923A4.437,4.437,0,0,1,48.691-4.8H50.01v-.623a1.522,1.522,0,0,0-.425-1.132,1.707,1.707,0,0,0-1.252-.421,1.976,1.976,0,0,0-1.216.366,1.079,1.079,0,0,0-.491.886H45.264a1.87,1.87,0,0,1,.421-1.146,2.874,2.874,0,0,1,1.143-.875,3.844,3.844,0,0,1,1.586-.322,3.133,3.133,0,0,1,2.146.685A2.47,2.47,0,0,1,51.365-5.5v3.647a4.459,4.459,0,0,0,.278,1.736V0ZM47.974-1.033a2.381,2.381,0,0,0,1.208-.33,1.994,1.994,0,0,0,.828-.857V-3.845H48.948q-2.49,0-2.49,1.458a1.234,1.234,0,0,0,.425,1A1.633,1.633,0,0,0,47.974-1.033Zm6.8-6.892.044,1a2.888,2.888,0,0,1,2.373-1.143q2.512,0,2.534,2.834V0H58.367V-5.244a1.824,1.824,0,0,0-.392-1.267,1.57,1.57,0,0,0-1.2-.41,1.956,1.956,0,0,0-1.157.352,2.387,2.387,0,0,0-.776.923V0H53.489V-7.925ZM72.026-4.548a6.2,6.2,0,0,1-.813,3.538A2.891,2.891,0,0,1,68.672.146,2.912,2.912,0,0,1,66.145-.985a5.882,5.882,0,0,1-.85-3.38V-6.174a6.059,6.059,0,0,1,.813-3.494,2.914,2.914,0,0,1,2.549-1.143,2.94,2.94,0,0,1,2.534,1.1,5.847,5.847,0,0,1,.835,3.4ZM70.671-6.4a4.965,4.965,0,0,0-.483-2.509A1.664,1.664,0,0,0,68.657-9.7a1.642,1.642,0,0,0-1.516.784A4.848,4.848,0,0,0,66.65-6.5v2.168a5.045,5.045,0,0,0,.5,2.552,1.661,1.661,0,0,0,1.52.824,1.638,1.638,0,0,0,1.49-.776,4.862,4.862,0,0,0,.509-2.446ZM73.931-.71a.849.849,0,0,1,.209-.586.8.8,0,0,1,.626-.234A.819.819,0,0,1,75.4-1.3a.831.831,0,0,1,.216.586.786.786,0,0,1-.216.564.834.834,0,0,1-.634.227.809.809,0,0,1-.626-.227A.8.8,0,0,1,73.931-.71Zm4.4-4.636.542-5.317h5.464v1.252H80.024L79.7-6.5a3.441,3.441,0,0,1,1.78-.461A2.942,2.942,0,0,1,83.8-6a3.775,3.775,0,0,1,.857,2.6,3.643,3.643,0,0,1-.89,2.6,3.243,3.243,0,0,1-2.487.948A3.371,3.371,0,0,1,78.97-.637a3.128,3.128,0,0,1-1.018-2.168h1.282a2.152,2.152,0,0,0,.652,1.381,2.027,2.027,0,0,0,1.392.465A1.828,1.828,0,0,0,82.76-1.6a2.694,2.694,0,0,0,.538-1.78A2.473,2.473,0,0,0,82.716-5.1a1.981,1.981,0,0,0-1.549-.648,2.234,2.234,0,0,0-1.392.388l-.359.293Z" transform="translate(1219.787 1773.406)"/>
    <path id="Trazado_904131" data-name="Trazado 904131" d="M3.618-1.985l1.846-5.94h1.45L3.728,1.223Q2.988,3.2,1.377,3.2l-.256-.022-.505-.1v-1.1l.366.029a1.8,1.8,0,0,0,1.073-.278A2.014,2.014,0,0,0,2.688.718l.3-.806L.161-7.925H1.641ZM16.45-2.1a1,1,0,0,0-.414-.853,3.983,3.983,0,0,0-1.443-.524,6.822,6.822,0,0,1-1.633-.527,2.324,2.324,0,0,1-.894-.732,1.752,1.752,0,0,1-.289-1.011A2.056,2.056,0,0,1,12.6-7.4a3.218,3.218,0,0,1,2.106-.674,3.311,3.311,0,0,1,2.186.7,2.21,2.21,0,0,1,.839,1.78H16.37a1.223,1.223,0,0,0-.472-.959,1.77,1.77,0,0,0-1.19-.4,1.852,1.852,0,0,0-1.157.322,1.014,1.014,0,0,0-.417.842.822.822,0,0,0,.388.74,4.776,4.776,0,0,0,1.4.476,7.308,7.308,0,0,1,1.644.542,2.4,2.4,0,0,1,.934.758,1.864,1.864,0,0,1,.3,1.08,2.028,2.028,0,0,1-.85,1.7,3.564,3.564,0,0,1-2.2.641A3.991,3.991,0,0,1,13.066-.19a2.74,2.74,0,0,1-1.146-.941,2.268,2.268,0,0,1-.414-1.307h1.355a1.4,1.4,0,0,0,.546,1.08,2.117,2.117,0,0,0,1.344.4,2.185,2.185,0,0,0,1.234-.311A.956.956,0,0,0,16.45-2.1ZM22.859.146A3.463,3.463,0,0,1,20.237-.912a3.928,3.928,0,0,1-1.011-2.831v-.249a4.756,4.756,0,0,1,.45-2.106,3.514,3.514,0,0,1,1.26-1.45,3.167,3.167,0,0,1,1.754-.524,2.968,2.968,0,0,1,2.4,1.018,4.408,4.408,0,0,1,.857,2.915v.564H20.581a2.817,2.817,0,0,0,.685,1.893,2.153,2.153,0,0,0,1.666.721,2.36,2.36,0,0,0,1.216-.293,3.055,3.055,0,0,0,.872-.776l.828.645A3.328,3.328,0,0,1,22.859.146Zm-.168-7.1a1.807,1.807,0,0,0-1.377.6,2.9,2.9,0,0,0-.688,1.674h3.97v-.1a2.581,2.581,0,0,0-.557-1.6A1.7,1.7,0,0,0,22.69-6.958ZM34.519.146A3.463,3.463,0,0,1,31.9-.912a3.928,3.928,0,0,1-1.011-2.831v-.249a4.756,4.756,0,0,1,.45-2.106,3.514,3.514,0,0,1,1.26-1.45,3.167,3.167,0,0,1,1.754-.524,2.968,2.968,0,0,1,2.4,1.018,4.408,4.408,0,0,1,.857,2.915v.564H32.241a2.817,2.817,0,0,0,.685,1.893,2.153,2.153,0,0,0,1.666.721,2.36,2.36,0,0,0,1.216-.293,3.055,3.055,0,0,0,.872-.776l.828.645A3.328,3.328,0,0,1,34.519.146Zm-.168-7.1a1.807,1.807,0,0,0-1.377.6,2.9,2.9,0,0,0-.688,1.674h3.97v-.1a2.581,2.581,0,0,0-.557-1.6A1.7,1.7,0,0,0,34.351-6.958Zm6.108-.967.044,1a2.888,2.888,0,0,1,2.373-1.143q2.512,0,2.534,2.834V0H44.055V-5.244a1.824,1.824,0,0,0-.392-1.267,1.57,1.57,0,0,0-1.2-.41,1.956,1.956,0,0,0-1.157.352,2.387,2.387,0,0,0-.776.923V0H39.177V-7.925Zm8.833-1.919v1.919h1.479v1.047H49.292v4.921a1.1,1.1,0,0,0,.2.715A.832.832,0,0,0,50.164-1a3.281,3.281,0,0,0,.645-.088V0a3.951,3.951,0,0,1-1.04.146A1.687,1.687,0,0,1,48.4-.4a2.36,2.36,0,0,1-.461-1.56V-6.877H46.494V-7.925h1.443V-9.844Zm6.892,3.135a4.061,4.061,0,0,0-.667-.051,1.786,1.786,0,0,0-1.809,1.135V0H52.354V-7.925h1.318l.022.916a2.11,2.11,0,0,1,1.89-1.062,1.384,1.384,0,0,1,.6.1ZM62.029,0a2.846,2.846,0,0,1-.19-.835,3.023,3.023,0,0,1-2.256.981A2.8,2.8,0,0,1,57.66-.516,2.145,2.145,0,0,1,56.909-2.2,2.24,2.24,0,0,1,57.85-4.12,4.437,4.437,0,0,1,60.5-4.8h1.318v-.623a1.522,1.522,0,0,0-.425-1.132,1.707,1.707,0,0,0-1.252-.421,1.976,1.976,0,0,0-1.216.366,1.079,1.079,0,0,0-.491.886H57.07a1.87,1.87,0,0,1,.421-1.146,2.874,2.874,0,0,1,1.143-.875,3.844,3.844,0,0,1,1.586-.322,3.133,3.133,0,0,1,2.146.685A2.47,2.47,0,0,1,63.171-5.5v3.647A4.459,4.459,0,0,0,63.45-.117V0ZM59.78-1.033a2.381,2.381,0,0,0,1.208-.33,1.994,1.994,0,0,0,.828-.857V-3.845H60.754q-2.49,0-2.49,1.458a1.234,1.234,0,0,0,.425,1A1.633,1.633,0,0,0,59.78-1.033ZM72.3.146A3.463,3.463,0,0,1,69.675-.912a3.928,3.928,0,0,1-1.011-2.831v-.249a4.756,4.756,0,0,1,.45-2.106,3.514,3.514,0,0,1,1.26-1.45,3.167,3.167,0,0,1,1.754-.524,2.968,2.968,0,0,1,2.4,1.018,4.408,4.408,0,0,1,.857,2.915v.564H70.02A2.817,2.817,0,0,0,70.7-1.681a2.153,2.153,0,0,0,1.666.721,2.36,2.36,0,0,0,1.216-.293,3.055,3.055,0,0,0,.872-.776l.828.645A3.328,3.328,0,0,1,72.3.146Zm-.168-7.1a1.807,1.807,0,0,0-1.377.6,2.9,2.9,0,0,0-.688,1.674h3.97v-.1a2.581,2.581,0,0,0-.557-1.6A1.7,1.7,0,0,0,72.129-6.958Zm6.108-.967.044,1a2.888,2.888,0,0,1,2.373-1.143q2.512,0,2.534,2.834V0H81.833V-5.244a1.824,1.824,0,0,0-.392-1.267,1.57,1.57,0,0,0-1.2-.41,1.956,1.956,0,0,0-1.157.352,2.387,2.387,0,0,0-.776.923V0H76.956V-7.925ZM92.124-.959A1.952,1.952,0,0,0,93.391-1.4a1.546,1.546,0,0,0,.6-1.1h1.282A2.457,2.457,0,0,1,94.8-1.2a3.087,3.087,0,0,1-1.154.981,3.329,3.329,0,0,1-1.527.366A3.265,3.265,0,0,1,89.55-.934a4.3,4.3,0,0,1-.956-2.955v-.227a4.771,4.771,0,0,1,.425-2.058,3.236,3.236,0,0,1,1.219-1.4,3.464,3.464,0,0,1,1.879-.5,3.178,3.178,0,0,1,2.216.8A2.853,2.853,0,0,1,95.273-5.2H93.992a1.867,1.867,0,0,0-.582-1.263,1.811,1.811,0,0,0-1.293-.494,1.9,1.9,0,0,0-1.6.743,3.491,3.491,0,0,0-.568,2.15v.256A3.422,3.422,0,0,0,90.513-1.7,1.906,1.906,0,0,0,92.124-.959Zm9.565.176a2.878,2.878,0,0,1-2.322.93,2.464,2.464,0,0,1-1.93-.736,3.186,3.186,0,0,1-.67-2.179V-7.925h1.355v5.12q0,1.8,1.465,1.8a2.028,2.028,0,0,0,2.065-1.157V-7.925h1.355V0h-1.289ZM108.9-6.709a4.061,4.061,0,0,0-.667-.051,1.786,1.786,0,0,0-1.809,1.135V0h-1.355V-7.925h1.318l.022.916a2.11,2.11,0,0,1,1.89-1.062,1.384,1.384,0,0,1,.6.1Zm4.112,4.871,1.963-6.086h1.384L113.514,0h-1.033L109.61-7.925h1.384ZM122.337,0a2.846,2.846,0,0,1-.19-.835,3.023,3.023,0,0,1-2.256.981,2.8,2.8,0,0,1-1.923-.663,2.145,2.145,0,0,1-.751-1.681,2.24,2.24,0,0,1,.941-1.923,4.437,4.437,0,0,1,2.648-.685h1.318v-.623a1.522,1.522,0,0,0-.425-1.132,1.707,1.707,0,0,0-1.252-.421,1.976,1.976,0,0,0-1.216.366,1.079,1.079,0,0,0-.491.886h-1.362a1.87,1.87,0,0,1,.421-1.146,2.874,2.874,0,0,1,1.143-.875,3.844,3.844,0,0,1,1.586-.322,3.133,3.133,0,0,1,2.146.685,2.47,2.47,0,0,1,.806,1.886v3.647a4.459,4.459,0,0,0,.278,1.736V0Zm-2.249-1.033a2.381,2.381,0,0,0,1.208-.33,1.994,1.994,0,0,0,.828-.857V-3.845h-1.062q-2.49,0-2.49,1.458a1.234,1.234,0,0,0,.425,1A1.633,1.633,0,0,0,120.088-1.033Z" transform="translate(1219.786 1789.454)"/>
    <path id="Trazado_904132" data-name="Trazado 904132" d="M0,0H408.181V515.523H0Z" transform="translate(947.282 1543.25)" fill="none"/>
    <path id="Trazado_904124" data-name="Trazado 904124" d="M7.126-2.791H2.659L1.655,0H.205L4.277-10.664h1.23L9.587,0H8.145ZM3.083-3.94H6.709L4.893-8.928ZM12.283,0H10.928V-11.25h1.355Zm4.006-9.844v1.919h1.479v1.047H16.289v4.921a1.1,1.1,0,0,0,.2.715A.832.832,0,0,0,17.161-1a3.281,3.281,0,0,0,.645-.088V0a3.951,3.951,0,0,1-1.04.146A1.687,1.687,0,0,1,15.4-.4a2.36,2.36,0,0,1-.461-1.56V-6.877H13.491V-7.925h1.443V-9.844Zm7.954,9.06a2.878,2.878,0,0,1-2.322.93,2.464,2.464,0,0,1-1.93-.736,3.186,3.186,0,0,1-.67-2.179V-7.925h1.355v5.12q0,1.8,1.465,1.8a2.028,2.028,0,0,0,2.065-1.157V-7.925h1.355V0H24.272ZM31.45-6.709a4.061,4.061,0,0,0-.667-.051,1.786,1.786,0,0,0-1.809,1.135V0H27.62V-7.925h1.318l.022.916a2.11,2.11,0,0,1,1.89-1.062,1.384,1.384,0,0,1,.6.1ZM37.295,0a2.846,2.846,0,0,1-.19-.835,3.023,3.023,0,0,1-2.256.981,2.8,2.8,0,0,1-1.923-.663A2.145,2.145,0,0,1,32.175-2.2a2.24,2.24,0,0,1,.941-1.923A4.437,4.437,0,0,1,35.764-4.8h1.318v-.623a1.522,1.522,0,0,0-.425-1.132,1.707,1.707,0,0,0-1.252-.421,1.976,1.976,0,0,0-1.216.366,1.079,1.079,0,0,0-.491.886H32.336a1.87,1.87,0,0,1,.421-1.146A2.874,2.874,0,0,1,33.9-7.749a3.844,3.844,0,0,1,1.586-.322,3.133,3.133,0,0,1,2.146.685A2.47,2.47,0,0,1,38.438-5.5v3.647a4.459,4.459,0,0,0,.278,1.736V0ZM35.046-1.033a2.381,2.381,0,0,0,1.208-.33,1.994,1.994,0,0,0,.828-.857V-3.845H36.021q-2.49,0-2.49,1.458a1.234,1.234,0,0,0,.425,1A1.633,1.633,0,0,0,35.046-1.033Zm8.9-3a4.642,4.642,0,0,1,.864-2.933,2.733,2.733,0,0,1,2.263-1.11,2.748,2.748,0,0,1,2.2.952V-11.25h1.355V0H49.387l-.066-.85a2.759,2.759,0,0,1-2.263,1A2.707,2.707,0,0,1,44.813-.981a4.7,4.7,0,0,1-.868-2.944Zm1.355.154a3.515,3.515,0,0,0,.557,2.109A1.8,1.8,0,0,0,47.4-1a1.977,1.977,0,0,0,1.882-1.157V-5.8A1.992,1.992,0,0,0,47.41-6.921a1.808,1.808,0,0,0-1.553.769A3.87,3.87,0,0,0,45.3-3.875ZM56.023.146A3.463,3.463,0,0,1,53.4-.912,3.928,3.928,0,0,1,52.39-3.743v-.249a4.756,4.756,0,0,1,.45-2.106,3.514,3.514,0,0,1,1.26-1.45,3.167,3.167,0,0,1,1.754-.524,2.968,2.968,0,0,1,2.4,1.018,4.408,4.408,0,0,1,.857,2.915v.564H53.745a2.817,2.817,0,0,0,.685,1.893A2.153,2.153,0,0,0,56.1-.959a2.36,2.36,0,0,0,1.216-.293,3.055,3.055,0,0,0,.872-.776l.828.645A3.328,3.328,0,0,1,56.023.146Zm-.168-7.1a1.807,1.807,0,0,0-1.377.6,2.9,2.9,0,0,0-.688,1.674h3.97v-.1a2.581,2.581,0,0,0-.557-1.6A1.7,1.7,0,0,0,55.854-6.958Zm16.6,3.574A3.923,3.923,0,0,1,71.2-.773a4.093,4.093,0,0,1-2.794.919A3.758,3.758,0,0,1,65.38-1.208a5.451,5.451,0,0,1-1.139-3.625V-5.859a6.076,6.076,0,0,1,.531-2.615,3.966,3.966,0,0,1,1.505-1.732,4.191,4.191,0,0,1,2.256-.6,3.853,3.853,0,0,1,2.725.948,3.971,3.971,0,0,1,1.194,2.626H71.038a3.064,3.064,0,0,0-.795-1.851,2.4,2.4,0,0,0-1.71-.573,2.516,2.516,0,0,0-2.113,1,4.577,4.577,0,0,0-.765,2.837v1.034a4.7,4.7,0,0,0,.725,2.764A2.343,2.343,0,0,0,68.408-1a2.706,2.706,0,0,0,1.8-.531,2.947,2.947,0,0,0,.831-1.849ZM79.05,0a2.846,2.846,0,0,1-.19-.835A3.023,3.023,0,0,1,76.6.146a2.8,2.8,0,0,1-1.923-.663A2.145,2.145,0,0,1,73.931-2.2a2.24,2.24,0,0,1,.941-1.923A4.437,4.437,0,0,1,77.52-4.8h1.318v-.623a1.522,1.522,0,0,0-.425-1.132,1.707,1.707,0,0,0-1.252-.421,1.976,1.976,0,0,0-1.216.366,1.079,1.079,0,0,0-.491.886H74.092a1.87,1.87,0,0,1,.421-1.146,2.874,2.874,0,0,1,1.143-.875,3.844,3.844,0,0,1,1.586-.322,3.133,3.133,0,0,1,2.146.685A2.47,2.47,0,0,1,80.193-5.5v3.647a4.459,4.459,0,0,0,.278,1.736V0ZM76.8-1.033a2.381,2.381,0,0,0,1.208-.33,1.994,1.994,0,0,0,.828-.857V-3.845H77.776q-2.49,0-2.49,1.458a1.234,1.234,0,0,0,.425,1A1.633,1.633,0,0,0,76.8-1.033Zm5.186-3a4.642,4.642,0,0,1,.864-2.933,2.733,2.733,0,0,1,2.263-1.11,2.748,2.748,0,0,1,2.2.952V-11.25h1.355V0H87.429l-.066-.85a2.759,2.759,0,0,1-2.263,1A2.707,2.707,0,0,1,82.855-.981a4.7,4.7,0,0,1-.868-2.944Zm1.355.154A3.515,3.515,0,0,0,83.9-1.765,1.8,1.8,0,0,0,85.437-1a1.977,1.977,0,0,0,1.882-1.157V-5.8a1.992,1.992,0,0,0-1.868-1.121,1.808,1.808,0,0,0-1.553.769A3.87,3.87,0,0,0,83.342-3.875ZM94.065.146A3.463,3.463,0,0,1,91.443-.912a3.928,3.928,0,0,1-1.011-2.831v-.249a4.756,4.756,0,0,1,.45-2.106,3.514,3.514,0,0,1,1.26-1.45A3.167,3.167,0,0,1,93.9-8.071a2.968,2.968,0,0,1,2.4,1.018,4.408,4.408,0,0,1,.857,2.915v.564H91.787a2.817,2.817,0,0,0,.685,1.893,2.153,2.153,0,0,0,1.666.721,2.36,2.36,0,0,0,1.216-.293,3.055,3.055,0,0,0,.872-.776l.828.645A3.328,3.328,0,0,1,94.065.146Zm-.168-7.1a1.807,1.807,0,0,0-1.377.6,2.9,2.9,0,0,0-.688,1.674H95.8v-.1a2.581,2.581,0,0,0-.557-1.6A1.7,1.7,0,0,0,93.9-6.958Zm8.657.249a4.061,4.061,0,0,0-.667-.051,1.786,1.786,0,0,0-1.809,1.135V0H98.723V-7.925h1.318l.022.916a2.11,2.11,0,0,1,1.89-1.062,1.384,1.384,0,0,1,.6.1ZM108.4,0a2.846,2.846,0,0,1-.19-.835,3.023,3.023,0,0,1-2.256.981,2.8,2.8,0,0,1-1.923-.663,2.145,2.145,0,0,1-.751-1.681,2.24,2.24,0,0,1,.941-1.923,4.437,4.437,0,0,1,2.648-.685h1.318v-.623a1.522,1.522,0,0,0-.425-1.132,1.707,1.707,0,0,0-1.252-.421,1.976,1.976,0,0,0-1.216.366,1.079,1.079,0,0,0-.491.886H103.44a1.87,1.87,0,0,1,.421-1.146A2.874,2.874,0,0,1,105-7.749a3.844,3.844,0,0,1,1.586-.322,3.133,3.133,0,0,1,2.146.685,2.47,2.47,0,0,1,.806,1.886v3.647a4.459,4.459,0,0,0,.278,1.736V0ZM106.15-1.033a2.381,2.381,0,0,0,1.208-.33,1.994,1.994,0,0,0,.828-.857V-3.845h-1.062q-2.49,0-2.49,1.458a1.234,1.234,0,0,0,.425,1A1.633,1.633,0,0,0,106.15-1.033ZM119.26-5.72h2.974v1.282H119.26v3.369H117.9V-4.438h-2.974V-5.72H117.9V-8.833h1.362Zm14.663-2.161A2.476,2.476,0,0,1,133.5-6.46a2.865,2.865,0,0,1-1.139.974,3.056,3.056,0,0,1,1.322,1.047,2.636,2.636,0,0,1,.487,1.56,2.787,2.787,0,0,1-.934,2.2,3.588,3.588,0,0,1-2.457.82,3.572,3.572,0,0,1-2.465-.824,2.8,2.8,0,0,1-.927-2.2,2.714,2.714,0,0,1,.472-1.56,2.94,2.94,0,0,1,1.307-1.055,2.8,2.8,0,0,1-1.121-.974,2.512,2.512,0,0,1-.41-1.414,2.757,2.757,0,0,1,.864-2.139,3.242,3.242,0,0,1,2.278-.791,3.245,3.245,0,0,1,2.274.791A2.751,2.751,0,0,1,133.923-7.881Zm-1.106,4.973a1.965,1.965,0,0,0-.568-1.458,2.013,2.013,0,0,0-1.483-.564,1.978,1.978,0,0,0-1.469.557,1.988,1.988,0,0,0-.553,1.465,1.893,1.893,0,0,0,.538,1.428,2.066,2.066,0,0,0,1.5.52,2.06,2.06,0,0,0,1.494-.524A1.888,1.888,0,0,0,132.817-2.908ZM130.781-9.7a1.748,1.748,0,0,0-1.293.494,1.816,1.816,0,0,0-.494,1.344,1.807,1.807,0,0,0,.487,1.315,1.729,1.729,0,0,0,1.3.5,1.729,1.729,0,0,0,1.3-.5,1.807,1.807,0,0,0,.487-1.315,1.808,1.808,0,0,0-.505-1.326A1.724,1.724,0,0,0,130.781-9.7ZM139.2-.959a1.952,1.952,0,0,0,1.267-.439,1.546,1.546,0,0,0,.6-1.1h1.282a2.457,2.457,0,0,1-.469,1.3,3.087,3.087,0,0,1-1.154.981A3.329,3.329,0,0,1,139.2.146a3.265,3.265,0,0,1-2.574-1.08,4.3,4.3,0,0,1-.956-2.955v-.227a4.771,4.771,0,0,1,.425-2.058,3.236,3.236,0,0,1,1.219-1.4,3.464,3.464,0,0,1,1.879-.5,3.178,3.178,0,0,1,2.216.8,2.853,2.853,0,0,1,.941,2.073h-1.282a1.867,1.867,0,0,0-.582-1.263,1.811,1.811,0,0,0-1.293-.494,1.9,1.9,0,0,0-1.6.743,3.491,3.491,0,0,0-.568,2.15v.256a3.422,3.422,0,0,0,.564,2.109A1.906,1.906,0,0,0,139.2-.959Zm5.955-6.965.044,1a2.888,2.888,0,0,1,2.373-1.143q2.512,0,2.534,2.834V0h-1.355V-5.244a1.824,1.824,0,0,0-.392-1.267,1.57,1.57,0,0,0-1.2-.41A1.956,1.956,0,0,0,146-6.57a2.387,2.387,0,0,0-.776.923V0H143.87V-7.925Z" transform="translate(981.946 2038.984) rotate(-90)"/>
    <path id="Trazado_904125" data-name="Trazado 904125" d="M7.874,0H.886V-.974l3.691-4.1A8.77,8.77,0,0,0,5.709-6.588a2.524,2.524,0,0,0,.311-1.2,1.913,1.913,0,0,0-.505-1.37A1.767,1.767,0,0,0,4.167-9.7,2.093,2.093,0,0,0,2.6-9.122a2.2,2.2,0,0,0-.56,1.6H.681A3.145,3.145,0,0,1,1.63-9.9a3.516,3.516,0,0,1,2.538-.908,3.379,3.379,0,0,1,2.351.78,2.661,2.661,0,0,1,.864,2.076q0,1.575-2.007,3.75L2.52-1.106H7.874ZM16.34-.959A1.952,1.952,0,0,0,17.607-1.4a1.546,1.546,0,0,0,.6-1.1H19.49a2.457,2.457,0,0,1-.469,1.3,3.087,3.087,0,0,1-1.154.981A3.329,3.329,0,0,1,16.34.146a3.265,3.265,0,0,1-2.574-1.08,4.3,4.3,0,0,1-.956-2.955v-.227a4.771,4.771,0,0,1,.425-2.058,3.236,3.236,0,0,1,1.219-1.4,3.464,3.464,0,0,1,1.879-.5,3.178,3.178,0,0,1,2.216.8A2.853,2.853,0,0,1,19.49-5.2H18.208a1.867,1.867,0,0,0-.582-1.263,1.811,1.811,0,0,0-1.293-.494,1.9,1.9,0,0,0-1.6.743,3.491,3.491,0,0,0-.568,2.15v.256A3.422,3.422,0,0,0,14.729-1.7,1.906,1.906,0,0,0,16.34-.959Zm5.947-6.965.037.879a2.927,2.927,0,0,1,2.351-1.025A2.266,2.266,0,0,1,26.938-6.8a3,3,0,0,1,1.029-.923,3.039,3.039,0,0,1,1.5-.352q2.607,0,2.651,2.761V0H30.762V-5.229A1.82,1.82,0,0,0,30.374-6.5a1.71,1.71,0,0,0-1.3-.421,1.8,1.8,0,0,0-1.252.45,1.827,1.827,0,0,0-.579,1.212V0H25.876V-5.193a1.512,1.512,0,0,0-1.692-1.729,1.813,1.813,0,0,0-1.824,1.135V0H21.006V-7.925Z" transform="translate(957.846 1604.469)"/>
    <path id="Trazado_904126" data-name="Trazado 904126" d="M0,193.169V0" transform="translate(993.935 1862.727)" fill="none" stroke="#1d1d1b" stroke-width="1"/>
    <path id="Trazado_904127" data-name="Trazado 904127" d="M0,0H5.593V.861H0Z" transform="translate(991.138 2055.465)" fill="#1d1d1b"/>
    <path id="Trazado_904128" data-name="Trazado 904128" d="M0,0H5.593V.86H0Z" transform="translate(991.138 1862.297)" fill="#1d1d1b"/>
    <path id="Trazado_903927" data-name="Trazado 903927" d="M72.362,33.089S134.3,34.112,134.3,10.208l90.352,20.836S210.446,151.7,240,185.229v331.29H72.362Z" transform="translate(937.171 1541.823)" fill="none" stroke="#1d1d1b" stroke-miterlimit="10" stroke-width="1"/>
    <path id="Trazado_904133" data-name="Trazado 904133" d="M122.174,0H0" transform="translate(1009.533 1861.728)" fill="none" stroke="#1d1d1b" stroke-width="1" stroke-dasharray="6 6"/>
    <path id="Trazado_903928" data-name="Trazado 903928" d="M197.377,318.981l27.276-144.335c-40.346-48.87-13.638-140.358-13.638-140.358L119.527,3.6c0,20.1-47.165,14.4-47.165,14.4V64.4" transform="translate(937.171 1542.747)" fill="none" stroke="#1d1d1b" stroke-miterlimit="10" stroke-width="1" stroke-dasharray="6 6"/>
    <path id="Trazado_903929" data-name="Trazado 903929" d="M72.362,26.52l30.117.379L128.009,14.79l1.912-7.135" transform="translate(937.171 1542.181)" fill="none" stroke="#1d1d1b" stroke-miterlimit="10" stroke-width="1" stroke-dasharray="6 6"/>
    <path id="Trazado_904134" data-name="Trazado 904134" d="M1.856,10.417,0,0" transform="translate(1031.862 1556.131)" fill="none" stroke="#1d1d1b" stroke-width="1"/>
    <path id="Trazado_903930" data-name="Trazado 903930" d="M103.757,24.771l-2.92,8.065-5.526-6.56Z" transform="translate(933.964 1539.789)" fill="#1d1d1b"/>
    <path id="Trazado_904135" data-name="Trazado 904135" d="M3.287,10.057,0,0" transform="translate(1050.179 1551.494)" fill="none" stroke="#1d1d1b" stroke-width="1"/>
    <path id="Trazado_903931" data-name="Trazado 903931" d="M126.393,18.338l-1.769,8.393L118.238,21Z" transform="translate(930.76 1540.688)" fill="#1d1d1b"/>
    <path id="Trazado_904136" data-name="Trazado 904136" d="M0,0V16.557" transform="translate(951.571 1590.673)" fill="none" stroke="#1d1d1b" stroke-width="1"/>
    <path id="Trazado_903932" data-name="Trazado 903932" d="M0,72.912l4.289,7.428,4.289-7.428Z" transform="translate(947.282 1533.062)" fill="#1d1d1b"/>
    <path id="Trazado_904137" data-name="Trazado 904137" d="M0,0V16.557" transform="translate(998.323 1590.673)" fill="none" stroke="#1d1d1b" stroke-width="1"/>
    <path id="Trazado_903933" data-name="Trazado 903933" d="M54.345,72.912l4.289,7.428,4.289-7.428Z" transform="translate(939.688 1533.062)" fill="#1d1d1b"/>
    <path id="Trazado_904138" data-name="Trazado 904138" d="M0,0H16.557" transform="translate(1145.04 1566.453)" fill="none" stroke="#1d1d1b" stroke-width="1"/>
    <path id="Trazado_903934" data-name="Trazado 903934" d="M247.667,30.565l7.428-4.289-7.428-4.289Z" transform="translate(912.675 1540.178)" fill="#1d1d1b"/>
    <path id="Trazado_904139" data-name="Trazado 904139" d="M0,0H16.557" transform="translate(1168.075 1707.732)" fill="none" stroke="#1d1d1b" stroke-width="1"/>
    <path id="Trazado_903935" data-name="Trazado 903935" d="M274.443,194.791l7.428-4.289-7.428-4.289Z" transform="translate(908.934 1517.23)" fill="#1d1d1b"/>
    <path id="Trazado_904140" data-name="Trazado 904140" d="M0,0H16.557" transform="translate(1186.957 1767.967)" fill="none" stroke="#1d1d1b" stroke-width="1"/>
    <path id="Trazado_903936" data-name="Trazado 903936" d="M296.392,264.809l7.428-4.289-7.428-4.289Z" transform="translate(905.867 1507.447)" fill="#1d1d1b"/>
    <path id="Trazado_904141" data-name="Trazado 904141" d="M0,0V16.557" transform="translate(1173.034 1575.856)" fill="none" stroke="#1d1d1b" stroke-width="1"/>
    <path id="Trazado_903937" data-name="Trazado 903937" d="M257.435,55.69l4.289,7.428,4.289-7.428Z" transform="translate(911.31 1535.469)" fill="#1d1d1b"/>
    <path id="Trazado_904142" data-name="Trazado 904142" d="M0,0H73.3" transform="translate(1106.135 1575.937)" fill="none" stroke="#1d1d1b" stroke-width="2"/>
    <path id="Trazado_904143" data-name="Trazado 904143" d="M0,0V16.557" transform="translate(1198.322 1716.782)" fill="none" stroke="#1d1d1b" stroke-width="1"/>
    <path id="Trazado_903938" data-name="Trazado 903938" d="M286.829,219.506l4.289,7.428,4.289-7.428Z" transform="translate(907.203 1512.578)" fill="#1d1d1b"/>
    <path id="Trazado_904144" data-name="Trazado 904144" d="M0,0H73.3" transform="translate(1131.423 1716.862)" fill="none" stroke="#1d1d1b" stroke-width="2"/>
    <path id="Trazado_904145" data-name="Trazado 904145" d="M0,0H408.181V515.523H0Z" transform="translate(947.282 1543.25)" fill="none"/>
  </g>
</svg>
