<svg xmlns="http://www.w3.org/2000/svg" width="610" height="755.385" viewBox="0 0 610 755.385">
  <g id="Grupo_1114964" data-name="Grupo 1114964" transform="translate(-809.498 -7846.434)">
    <path id="Trazado_904230" data-name="Trazado 904230" d="M20,0H590a20,20,0,0,1,20,20V735.385a20,20,0,0,1-20,20H20a20,20,0,0,1-20-20V20A20,20,0,0,1,20,0Z" transform="translate(809.498 7846.434)" fill="#f4e6e6"/>
    <path id="Trazado_904231" data-name="Trazado 904231" d="M1.333-2.8h.475a1.044,1.044,0,0,0,.7-.236.788.788,0,0,0,.256-.619A.772.772,0,0,0,1.9-4.525a.907.907,0,0,0-.655.234A.819.819,0,0,0,1-3.671H.366A1.269,1.269,0,0,1,.8-4.654a1.575,1.575,0,0,1,1.1-.391A1.556,1.556,0,0,1,3-4.672a1.346,1.346,0,0,1,.4,1.036,1.092,1.092,0,0,1-.21.629,1.269,1.269,0,0,1-.573.455,1.223,1.223,0,0,1,.634.431,1.2,1.2,0,0,1,.224.735A1.358,1.358,0,0,1,3.039-.325,1.638,1.638,0,0,1,1.9.068,1.682,1.682,0,0,1,.76-.311a1.259,1.259,0,0,1-.439-1H.957a.813.813,0,0,0,.256.629A.975.975,0,0,0,1.9-.448a.957.957,0,0,0,.7-.239.922.922,0,0,0,.243-.687.837.837,0,0,0-.267-.667,1.162,1.162,0,0,0-.769-.239H1.333ZM7.625-.448a.911.911,0,0,0,.591-.205.721.721,0,0,0,.28-.513h.6a1.147,1.147,0,0,1-.219.6A1.441,1.441,0,0,1,8.338-.1a1.553,1.553,0,0,1-.713.171,1.523,1.523,0,0,1-1.2-.5,2.008,2.008,0,0,1-.446-1.379v-.106a2.226,2.226,0,0,1,.2-.96,1.51,1.51,0,0,1,.569-.653,1.617,1.617,0,0,1,.877-.232,1.483,1.483,0,0,1,1.034.373,1.331,1.331,0,0,1,.439.967H8.5a.871.871,0,0,0-.272-.59.845.845,0,0,0-.6-.231.885.885,0,0,0-.747.347,1.629,1.629,0,0,0-.265,1v.12a1.6,1.6,0,0,0,.263.984A.889.889,0,0,0,7.625-.448ZM10.4-3.7l.017.41a1.366,1.366,0,0,1,1.1-.479,1.057,1.057,0,0,1,1.056.595,1.4,1.4,0,0,1,.48-.431,1.418,1.418,0,0,1,.7-.164q1.217,0,1.237,1.289V0h-.632V-2.44a.849.849,0,0,0-.181-.593.8.8,0,0,0-.608-.2.838.838,0,0,0-.584.21.853.853,0,0,0-.27.566V0h-.636V-2.423a.706.706,0,0,0-.79-.807.846.846,0,0,0-.851.53V0H9.8V-3.7Z" transform="translate(955.077 7934.739)"/>
    <path id="Trazado_904232" data-name="Trazado 904232" d="M4.2,0H.473V-.52L2.441-2.707a4.677,4.677,0,0,0,.6-.807,1.346,1.346,0,0,0,.166-.643,1.02,1.02,0,0,0-.27-.73.942.942,0,0,0-.719-.285,1.116,1.116,0,0,0-.838.307,1.171,1.171,0,0,0-.3.854H.363a1.677,1.677,0,0,1,.506-1.27,1.875,1.875,0,0,1,1.354-.484,1.8,1.8,0,0,1,1.254.416,1.419,1.419,0,0,1,.461,1.107,3.253,3.253,0,0,1-1.07,2L1.344-.59H4.2Zm.855-.379a.453.453,0,0,1,.111-.312A.424.424,0,0,1,5.5-.816a.437.437,0,0,1,.338.125.443.443,0,0,1,.115.313.419.419,0,0,1-.115.3A.445.445,0,0,1,5.5.043a.432.432,0,0,1-.334-.121A.428.428,0,0,1,5.055-.379ZM7.4-2.852l.289-2.836h2.914v.668H8.3L8.133-3.469a1.835,1.835,0,0,1,.949-.246,1.569,1.569,0,0,1,1.234.514,2.013,2.013,0,0,1,.457,1.389A1.943,1.943,0,0,1,10.3-.428,1.73,1.73,0,0,1,8.973.078,1.8,1.8,0,0,1,7.742-.34,1.668,1.668,0,0,1,7.2-1.5h.684A1.148,1.148,0,0,0,8.23-.76a1.081,1.081,0,0,0,.742.248.975.975,0,0,0,.791-.344,1.437,1.437,0,0,0,.287-.949,1.319,1.319,0,0,0-.311-.916,1.056,1.056,0,0,0-.826-.346,1.191,1.191,0,0,0-.742.207L7.98-2.7Zm7.91,2.34a1.041,1.041,0,0,0,.676-.234.825.825,0,0,0,.32-.586h.684a1.31,1.31,0,0,1-.25.691,1.647,1.647,0,0,1-.615.523,1.775,1.775,0,0,1-.814.2A1.741,1.741,0,0,1,13.939-.5a2.3,2.3,0,0,1-.51-1.576V-2.2a2.545,2.545,0,0,1,.227-1.1,1.726,1.726,0,0,1,.65-.746,1.848,1.848,0,0,1,1-.266,1.7,1.7,0,0,1,1.182.426,1.522,1.522,0,0,1,.5,1.105h-.684A1,1,0,0,0,16-3.447a.966.966,0,0,0-.689-.264,1.011,1.011,0,0,0-.854.4,1.862,1.862,0,0,0-.3,1.146v.137a1.825,1.825,0,0,0,.3,1.125A1.016,1.016,0,0,0,15.313-.512Zm3.172-3.715.02.469A1.561,1.561,0,0,1,19.758-4.3a1.208,1.208,0,0,1,1.207.68,1.6,1.6,0,0,1,.549-.492,1.621,1.621,0,0,1,.8-.187q1.391,0,1.414,1.473V0H23V-2.789a.97.97,0,0,0-.207-.678.912.912,0,0,0-.7-.225.958.958,0,0,0-.668.24.975.975,0,0,0-.309.646V0H20.4V-2.77a.806.806,0,0,0-.9-.922.967.967,0,0,0-.973.605V0H17.8V-4.227Z" transform="translate(923.424 7907.279)"/>
    <path id="Trazado_904233" data-name="Trazado 904233" d="M2.492,0H1.856V-4.214L.581-3.746V-4.32L2.393-5h.1ZM4.48.427H3.936l2.078-5.4h.54ZM10.371,0H7.11V-.455L8.833-2.369a4.093,4.093,0,0,0,.528-.706,1.178,1.178,0,0,0,.145-.562.893.893,0,0,0-.236-.639.825.825,0,0,0-.629-.25.977.977,0,0,0-.733.268,1.025,1.025,0,0,0-.261.747H7.014a1.468,1.468,0,0,1,.443-1.111,1.641,1.641,0,0,1,1.184-.424,1.577,1.577,0,0,1,1.1.364,1.242,1.242,0,0,1,.4.969,2.847,2.847,0,0,1-.937,1.75L7.872-.516h2.5Zm5.2-1.3H13.489L13.02,0h-.677l1.9-4.977h.574L16.722,0h-.673Zm-1.887-.537h1.692l-.848-2.328ZM17.828-3.7l.021.465a1.348,1.348,0,0,1,1.107-.533q1.172,0,1.183,1.323V0h-.632V-2.447a.851.851,0,0,0-.183-.591.733.733,0,0,0-.559-.191.913.913,0,0,0-.54.164,1.114,1.114,0,0,0-.362.431V0H17.23V-3.7Zm4.685,3.25A.911.911,0,0,0,23.1-.653a.721.721,0,0,0,.28-.513h.6a1.147,1.147,0,0,1-.219.6,1.441,1.441,0,0,1-.538.458,1.553,1.553,0,0,1-.713.171,1.523,1.523,0,0,1-1.2-.5,2.008,2.008,0,0,1-.446-1.379v-.106a2.226,2.226,0,0,1,.2-.96,1.51,1.51,0,0,1,.569-.653,1.617,1.617,0,0,1,.877-.232,1.483,1.483,0,0,1,1.034.373,1.331,1.331,0,0,1,.439.967h-.6a.871.871,0,0,0-.272-.59.845.845,0,0,0-.6-.231.885.885,0,0,0-.747.347,1.629,1.629,0,0,0-.265,1v.12a1.6,1.6,0,0,0,.263.984A.889.889,0,0,0,22.513-.448Zm2.75-2.8a1.344,1.344,0,0,1,1.094-.516q1.172,0,1.183,1.323V0h-.632V-2.447a.851.851,0,0,0-.183-.591.733.733,0,0,0-.559-.191.913.913,0,0,0-.54.164,1.114,1.114,0,0,0-.362.431V0H24.63V-5.25h.632Zm2.993,1.367a2.184,2.184,0,0,1,.214-.978,1.594,1.594,0,0,1,.595-.67,1.619,1.619,0,0,1,.87-.236,1.56,1.56,0,0,1,1.222.523,2.012,2.012,0,0,1,.467,1.391v.044a2.2,2.2,0,0,1-.207.969,1.57,1.57,0,0,1-.591.668,1.638,1.638,0,0,1-.884.239,1.556,1.556,0,0,1-1.219-.523,2,2,0,0,1-.467-1.384Zm.636.075a1.582,1.582,0,0,0,.285.988.913.913,0,0,0,.764.373.908.908,0,0,0,.766-.378,1.73,1.73,0,0,0,.284-1.058,1.579,1.579,0,0,0-.289-.986.918.918,0,0,0-.767-.378.908.908,0,0,0-.755.373A1.717,1.717,0,0,0,28.891-1.808Z" transform="translate(1065.684 8087.964)"/>
    <path id="Trazado_904234" data-name="Trazado 904234" d="M.66,0V-5.687H2.52A2.158,2.158,0,0,1,3.912-5.3a1.38,1.38,0,0,1,.467,1.133,1.155,1.155,0,0,1-.227.705,1.469,1.469,0,0,1-.617.475,1.319,1.319,0,0,1,.729.49,1.407,1.407,0,0,1,.268.861,1.521,1.521,0,0,1-.5,1.2A2.052,2.052,0,0,1,2.633,0Zm.75-2.66V-.613H2.648a1.192,1.192,0,0,0,.826-.271.953.953,0,0,0,.3-.748q0-1.027-1.117-1.027Zm0-.6H2.543a1.187,1.187,0,0,0,.787-.247.827.827,0,0,0,.295-.669.813.813,0,0,0-.273-.683,1.343,1.343,0,0,0-.832-.213H1.41ZM5.272-2.152A2.5,2.5,0,0,1,5.516-3.27a1.821,1.821,0,0,1,.68-.766A1.85,1.85,0,0,1,7.19-4.3a1.782,1.782,0,0,1,1.4.6,2.3,2.3,0,0,1,.533,1.59v.051A2.518,2.518,0,0,1,8.883-.959,1.794,1.794,0,0,1,8.207-.2,1.871,1.871,0,0,1,7.2.078a1.778,1.778,0,0,1-1.393-.6A2.288,2.288,0,0,1,5.272-2.1ZM6-2.066A1.808,1.808,0,0,0,6.325-.937,1.044,1.044,0,0,0,7.2-.512a1.038,1.038,0,0,0,.875-.432A1.977,1.977,0,0,0,8.4-2.152a1.805,1.805,0,0,0-.33-1.127,1.049,1.049,0,0,0-.877-.432,1.038,1.038,0,0,0-.863.426A1.963,1.963,0,0,0,6-2.066ZM10.934-5.25v1.023h.789v.559h-.789v2.624a.587.587,0,0,0,.105.381.444.444,0,0,0,.359.127,1.75,1.75,0,0,0,.344-.047V0a2.107,2.107,0,0,1-.555.078.9.9,0,0,1-.73-.293,1.259,1.259,0,0,1-.246-.832V-3.668h-.77v-.559h.77V-5.25Zm1.3,3.1a2.5,2.5,0,0,1,.244-1.117,1.821,1.821,0,0,1,.68-.766,1.85,1.85,0,0,1,.994-.27,1.782,1.782,0,0,1,1.4.6,2.3,2.3,0,0,1,.533,1.59v.051a2.518,2.518,0,0,1-.236,1.107,1.794,1.794,0,0,1-.676.764,1.871,1.871,0,0,1-1.01.273,1.778,1.778,0,0,1-1.393-.6A2.288,2.288,0,0,1,12.234-2.1Zm.727.086a1.808,1.808,0,0,0,.326,1.129,1.044,1.044,0,0,0,.873.426,1.038,1.038,0,0,0,.875-.432,1.977,1.977,0,0,0,.324-1.209,1.805,1.805,0,0,0-.33-1.127,1.049,1.049,0,0,0-.877-.432,1.038,1.038,0,0,0-.863.426A1.963,1.963,0,0,0,12.96-2.066ZM17.6-4.227l.023.531A1.54,1.54,0,0,1,18.888-4.3q1.34,0,1.352,1.512V0h-.723V-2.8a.973.973,0,0,0-.209-.676.837.837,0,0,0-.639-.219,1.043,1.043,0,0,0-.617.188,1.273,1.273,0,0,0-.414.492V0h-.723V-4.227Zm5.412,4.3a1.847,1.847,0,0,1-1.4-.564A2.1,2.1,0,0,1,21.074-2v-.133a2.536,2.536,0,0,1,.24-1.123,1.874,1.874,0,0,1,.672-.773,1.689,1.689,0,0,1,.936-.279,1.583,1.583,0,0,1,1.281.543,2.351,2.351,0,0,1,.457,1.555v.3H21.8A1.5,1.5,0,0,0,22.162-.9a1.148,1.148,0,0,0,.889.385A1.259,1.259,0,0,0,23.7-.668a1.629,1.629,0,0,0,.465-.414l.441.344A1.775,1.775,0,0,1,23.011.078Zm-.09-3.789a.964.964,0,0,0-.734.318,1.547,1.547,0,0,0-.367.893h2.117v-.055a1.376,1.376,0,0,0-.3-.854A.908.908,0,0,0,22.922-3.711Zm4.545.133a2.166,2.166,0,0,0-.355-.027A.952.952,0,0,0,26.146-3V0h-.723V-4.227h.7l.012.488A1.125,1.125,0,0,1,27.146-4.3a.738.738,0,0,1,.32.055ZM30.512,0a1.518,1.518,0,0,1-.1-.445,1.612,1.612,0,0,1-1.2.523,1.492,1.492,0,0,1-1.025-.354,1.144,1.144,0,0,1-.4-.9,1.2,1.2,0,0,1,.5-1.025A2.367,2.367,0,0,1,29.7-2.562h.7v-.332a.812.812,0,0,0-.227-.6.911.911,0,0,0-.668-.225,1.054,1.054,0,0,0-.648.2.576.576,0,0,0-.262.473h-.727a1,1,0,0,1,.225-.611,1.533,1.533,0,0,1,.609-.467,2.05,2.05,0,0,1,.846-.172,1.671,1.671,0,0,1,1.145.365,1.318,1.318,0,0,1,.43,1.006V-.988a2.378,2.378,0,0,0,.148.926V0Zm-1.2-.551a1.27,1.27,0,0,0,.645-.176,1.063,1.063,0,0,0,.441-.457v-.867h-.566q-1.328,0-1.328.777a.658.658,0,0,0,.227.531A.871.871,0,0,0,29.313-.551Z" transform="translate(1065.684 8100.436)"/>
    <path id="Trazado_904235" data-name="Trazado 904235" d="M7.6-2.977H2.836L1.766,0H.219L4.563-11.375H5.875L10.227,0H8.688ZM3.289-4.2H7.156L5.219-9.523ZM13.1,0H11.656V-12H13.1Zm4.273-10.5v2.047h1.578v1.117H17.375v5.249a1.173,1.173,0,0,0,.211.763.888.888,0,0,0,.719.254,3.5,3.5,0,0,0,.688-.094V0a4.215,4.215,0,0,1-1.109.155A1.8,1.8,0,0,1,16.422-.43a2.517,2.517,0,0,1-.492-1.664V-7.336H14.391V-8.453H15.93V-10.5ZM25.859-.836a3.07,3.07,0,0,1-2.477.992,2.628,2.628,0,0,1-2.059-.785,3.4,3.4,0,0,1-.715-2.324v-5.5h1.445v5.461q0,1.922,1.563,1.922A2.163,2.163,0,0,0,25.82-2.3V-8.453h1.445V0H25.891Zm7.688-6.32a4.331,4.331,0,0,0-.711-.055A1.9,1.9,0,0,0,30.906-6V0H29.461V-8.453h1.406l.023.977a2.251,2.251,0,0,1,2.016-1.133,1.477,1.477,0,0,1,.641.109ZM39.781,0a3.036,3.036,0,0,1-.2-.891A3.225,3.225,0,0,1,37.172.156a2.984,2.984,0,0,1-2.051-.707,2.287,2.287,0,0,1-.8-1.793,2.39,2.39,0,0,1,1-2.051,4.733,4.733,0,0,1,2.824-.73h1.406v-.664A1.623,1.623,0,0,0,39.1-7a1.821,1.821,0,0,0-1.336-.449,2.107,2.107,0,0,0-1.3.391,1.151,1.151,0,0,0-.523.945H34.492a2,2,0,0,1,.449-1.223,3.066,3.066,0,0,1,1.219-.934,4.1,4.1,0,0,1,1.691-.344,3.342,3.342,0,0,1,2.289.73A2.635,2.635,0,0,1,41-5.867v3.891a4.757,4.757,0,0,0,.3,1.852V0Zm-2.4-1.1a2.54,2.54,0,0,0,1.289-.352,2.127,2.127,0,0,0,.883-.914V-4.1H38.422q-2.656,0-2.656,1.555a1.316,1.316,0,0,0,.453,1.063A1.742,1.742,0,0,0,37.383-1.1Zm9.492-3.2A4.952,4.952,0,0,1,47.8-7.426a2.915,2.915,0,0,1,2.414-1.184,2.932,2.932,0,0,1,2.352,1.016V-12h1.445V0H52.68l-.07-.906A2.943,2.943,0,0,1,50.2.156a2.887,2.887,0,0,1-2.395-1.2,5.008,5.008,0,0,1-.926-3.141Zm1.445.164a3.749,3.749,0,0,0,.594,2.25,1.92,1.92,0,0,0,1.641.813A2.108,2.108,0,0,0,52.563-2.3V-6.187a2.125,2.125,0,0,0-1.992-1.2,1.929,1.929,0,0,0-1.656.82A4.128,4.128,0,0,0,48.32-4.133ZM59.758.156a3.693,3.693,0,0,1-2.8-1.129,4.19,4.19,0,0,1-1.078-3.02v-.266a5.073,5.073,0,0,1,.48-2.246,3.748,3.748,0,0,1,1.344-1.547,3.378,3.378,0,0,1,1.871-.559,3.166,3.166,0,0,1,2.563,1.086,4.7,4.7,0,0,1,.914,3.109v.6H57.328a3,3,0,0,0,.73,2.02,2.3,2.3,0,0,0,1.777.77,2.517,2.517,0,0,0,1.3-.312,3.259,3.259,0,0,0,.93-.828l.883.688A3.55,3.55,0,0,1,59.758.156Zm-.18-7.578a1.928,1.928,0,0,0-1.469.637A3.1,3.1,0,0,0,57.375-5h4.234v-.109a2.753,2.753,0,0,0-.594-1.707A1.815,1.815,0,0,0,59.578-7.422Zm17.7,3.813A4.185,4.185,0,0,1,75.949-.824a4.365,4.365,0,0,1-2.98.98,4.008,4.008,0,0,1-3.23-1.445,5.815,5.815,0,0,1-1.215-3.867V-6.25a6.481,6.481,0,0,1,.566-2.789A4.231,4.231,0,0,1,70.7-10.887a4.47,4.47,0,0,1,2.406-.645,4.11,4.11,0,0,1,2.906,1.012,4.235,4.235,0,0,1,1.273,2.8H75.773a3.268,3.268,0,0,0-.848-1.975A2.565,2.565,0,0,0,73.1-10.3a2.684,2.684,0,0,0-2.254,1.063,4.882,4.882,0,0,0-.816,3.026v1.1A5.018,5.018,0,0,0,70.8-2.165,2.5,2.5,0,0,0,72.969-1.07a2.886,2.886,0,0,0,1.918-.566,3.143,3.143,0,0,0,.887-1.973ZM84.32,0a3.036,3.036,0,0,1-.2-.891A3.225,3.225,0,0,1,81.711.156,2.984,2.984,0,0,1,79.66-.551a2.288,2.288,0,0,1-.8-1.793,2.39,2.39,0,0,1,1-2.051,4.733,4.733,0,0,1,2.824-.73h1.406v-.664A1.623,1.623,0,0,0,83.641-7,1.821,1.821,0,0,0,82.3-7.445a2.108,2.108,0,0,0-1.3.391,1.151,1.151,0,0,0-.523.945H79.031a2,2,0,0,1,.449-1.223A3.066,3.066,0,0,1,80.7-8.266a4.1,4.1,0,0,1,1.691-.344,3.342,3.342,0,0,1,2.289.73,2.635,2.635,0,0,1,.859,2.012v3.891a4.757,4.757,0,0,0,.3,1.852V0Zm-2.4-1.1a2.54,2.54,0,0,0,1.289-.352,2.127,2.127,0,0,0,.883-.914V-4.1H82.961Q80.3-4.1,80.3-2.547a1.316,1.316,0,0,0,.453,1.063A1.742,1.742,0,0,0,81.922-1.1Zm5.531-3.2a4.952,4.952,0,0,1,.922-3.129,2.915,2.915,0,0,1,2.414-1.184,2.932,2.932,0,0,1,2.352,1.016V-12h1.445V0H93.258l-.07-.906A2.943,2.943,0,0,1,90.773.156a2.887,2.887,0,0,1-2.395-1.2,5.008,5.008,0,0,1-.926-3.141Zm1.445.164a3.749,3.749,0,0,0,.594,2.25,1.92,1.92,0,0,0,1.641.813A2.109,2.109,0,0,0,93.141-2.3V-6.187a2.125,2.125,0,0,0-1.992-1.2,1.929,1.929,0,0,0-1.656.82A4.128,4.128,0,0,0,88.9-4.133ZM100.336.156a3.693,3.693,0,0,1-2.8-1.129,4.19,4.19,0,0,1-1.078-3.02v-.266a5.073,5.073,0,0,1,.48-2.246,3.748,3.748,0,0,1,1.344-1.547,3.378,3.378,0,0,1,1.871-.559,3.166,3.166,0,0,1,2.563,1.086,4.7,4.7,0,0,1,.914,3.109v.6H97.906a3,3,0,0,0,.73,2.02,2.3,2.3,0,0,0,1.777.77,2.517,2.517,0,0,0,1.3-.312,3.259,3.259,0,0,0,.93-.828l.883.688A3.55,3.55,0,0,1,100.336.156Zm-.18-7.578a1.928,1.928,0,0,0-1.469.637A3.1,3.1,0,0,0,97.953-5h4.234v-.109a2.753,2.753,0,0,0-.594-1.707A1.815,1.815,0,0,0,100.156-7.422Zm9.234.266a4.331,4.331,0,0,0-.711-.055A1.9,1.9,0,0,0,106.75-6V0H105.3V-8.453h1.406l.023.977a2.251,2.251,0,0,1,2.016-1.133,1.477,1.477,0,0,1,.641.109ZM115.625,0a3.036,3.036,0,0,1-.2-.891A3.225,3.225,0,0,1,113.016.156a2.984,2.984,0,0,1-2.051-.707,2.288,2.288,0,0,1-.8-1.793,2.39,2.39,0,0,1,1-2.051,4.733,4.733,0,0,1,2.824-.73H115.4v-.664A1.623,1.623,0,0,0,114.945-7a1.821,1.821,0,0,0-1.336-.449,2.108,2.108,0,0,0-1.3.391,1.151,1.151,0,0,0-.523.945h-1.453a2,2,0,0,1,.449-1.223A3.066,3.066,0,0,1,112-8.266a4.1,4.1,0,0,1,1.691-.344,3.342,3.342,0,0,1,2.289.73,2.635,2.635,0,0,1,.859,2.012v3.891a4.757,4.757,0,0,0,.3,1.852V0Zm-2.4-1.1a2.54,2.54,0,0,0,1.289-.352,2.127,2.127,0,0,0,.883-.914V-4.1h-1.133q-2.656,0-2.656,1.555a1.316,1.316,0,0,0,.453,1.063A1.742,1.742,0,0,0,113.227-1.1Zm13.984-5h3.172v1.367h-3.172v3.594h-1.453V-4.734h-3.172V-6.1h3.172v-3.32h1.453Zm15.641-2.3a2.641,2.641,0,0,1-.449,1.516,3.057,3.057,0,0,1-1.215,1.039,3.26,3.26,0,0,1,1.41,1.117,2.811,2.811,0,0,1,.52,1.664,2.972,2.972,0,0,1-1,2.352A3.827,3.827,0,0,1,139.5.156a3.81,3.81,0,0,1-2.629-.879,2.986,2.986,0,0,1-.988-2.348,2.9,2.9,0,0,1,.5-1.664,3.136,3.136,0,0,1,1.395-1.125,2.981,2.981,0,0,1-1.2-1.039,2.679,2.679,0,0,1-.437-1.508,2.94,2.94,0,0,1,.922-2.281,3.458,3.458,0,0,1,2.43-.844,3.461,3.461,0,0,1,2.426.844A2.934,2.934,0,0,1,142.852-8.406Zm-1.18,5.3a2.1,2.1,0,0,0-.605-1.555,2.147,2.147,0,0,0-1.582-.6,2.11,2.11,0,0,0-1.566.594,2.12,2.12,0,0,0-.59,1.563,2.019,2.019,0,0,0,.574,1.523,2.2,2.2,0,0,0,1.6.555,2.2,2.2,0,0,0,1.594-.559A2.014,2.014,0,0,0,141.672-3.1ZM139.5-10.344a1.865,1.865,0,0,0-1.379.527,1.937,1.937,0,0,0-.527,1.434,1.928,1.928,0,0,0,.52,1.4,1.844,1.844,0,0,0,1.387.535,1.844,1.844,0,0,0,1.387-.535,1.928,1.928,0,0,0,.52-1.4,1.929,1.929,0,0,0-.539-1.414A1.839,1.839,0,0,0,139.5-10.344Zm12.938,9.32a2.082,2.082,0,0,0,1.352-.469,1.649,1.649,0,0,0,.641-1.172H155.8a2.621,2.621,0,0,1-.5,1.383,3.293,3.293,0,0,1-1.23,1.047,3.55,3.55,0,0,1-1.629.391A3.482,3.482,0,0,1,149.691-1a4.59,4.59,0,0,1-1.02-3.152v-.242a5.089,5.089,0,0,1,.453-2.2,3.451,3.451,0,0,1,1.3-1.492,3.7,3.7,0,0,1,2-.531,3.39,3.39,0,0,1,2.363.852,3.043,3.043,0,0,1,1,2.211H154.43a1.992,1.992,0,0,0-.621-1.348,1.932,1.932,0,0,0-1.379-.527,2.023,2.023,0,0,0-1.707.793,3.724,3.724,0,0,0-.605,2.293v.273a3.65,3.65,0,0,0,.6,2.25A2.033,2.033,0,0,0,152.438-1.023Zm6.344-7.43.039.938a3.122,3.122,0,0,1,2.508-1.094,2.417,2.417,0,0,1,2.414,1.359,3.2,3.2,0,0,1,1.1-.984,3.242,3.242,0,0,1,1.6-.375q2.781,0,2.828,2.945V0H167.82V-5.578a1.941,1.941,0,0,0-.414-1.355,1.823,1.823,0,0,0-1.391-.449,1.917,1.917,0,0,0-1.336.48,1.949,1.949,0,0,0-.617,1.293V0h-1.453V-5.539a1.613,1.613,0,0,0-1.8-1.844,1.934,1.934,0,0,0-1.945,1.211V0h-1.445V-8.453Z" transform="translate(1089.852 8522.006) rotate(-90)"/>
    <path id="Trazado_904236" data-name="Trazado 904236" d="M4.039-2.426A3.305,3.305,0,0,1,3.605-.539,1.542,1.542,0,0,1,2.25.078,1.553,1.553,0,0,1,.9-.525a3.137,3.137,0,0,1-.453-1.8v-.965A3.232,3.232,0,0,1,.883-5.156a1.554,1.554,0,0,1,1.359-.609,1.568,1.568,0,0,1,1.352.588,3.119,3.119,0,0,1,.445,1.814Zm-.723-.988a2.648,2.648,0,0,0-.258-1.338.887.887,0,0,0-.816-.42.876.876,0,0,0-.809.418,2.585,2.585,0,0,0-.262,1.285v1.156A2.69,2.69,0,0,0,1.439-.951a.886.886,0,0,0,.811.439.874.874,0,0,0,.795-.414,2.593,2.593,0,0,0,.271-1.3ZM5.055-.379a.453.453,0,0,1,.111-.312A.424.424,0,0,1,5.5-.816a.437.437,0,0,1,.338.125.443.443,0,0,1,.115.313.419.419,0,0,1-.115.3A.445.445,0,0,1,5.5.043a.432.432,0,0,1-.334-.121A.428.428,0,0,1,5.055-.379Zm5.688-4.9L8.387,0H7.629L9.977-5.094H6.9v-.594h3.844Zm4.57,4.77a1.041,1.041,0,0,0,.676-.234.825.825,0,0,0,.32-.586h.684a1.31,1.31,0,0,1-.25.691,1.647,1.647,0,0,1-.615.523,1.775,1.775,0,0,1-.814.2A1.741,1.741,0,0,1,13.939-.5a2.3,2.3,0,0,1-.51-1.576V-2.2a2.545,2.545,0,0,1,.227-1.1,1.726,1.726,0,0,1,.65-.746,1.848,1.848,0,0,1,1-.266,1.7,1.7,0,0,1,1.182.426,1.522,1.522,0,0,1,.5,1.105h-.684A1,1,0,0,0,16-3.447a.966.966,0,0,0-.689-.264,1.011,1.011,0,0,0-.854.4,1.862,1.862,0,0,0-.3,1.146v.137a1.825,1.825,0,0,0,.3,1.125A1.016,1.016,0,0,0,15.313-.512Zm3.172-3.715.02.469A1.561,1.561,0,0,1,19.758-4.3a1.208,1.208,0,0,1,1.207.68,1.6,1.6,0,0,1,.549-.492,1.621,1.621,0,0,1,.8-.187q1.391,0,1.414,1.473V0H23V-2.789a.97.97,0,0,0-.207-.678.912.912,0,0,0-.7-.225.958.958,0,0,0-.668.24.975.975,0,0,0-.309.646V0H20.4V-2.77a.806.806,0,0,0-.9-.922.967.967,0,0,0-.973.605V0H17.8V-4.227Z" transform="translate(1130.297 7984.133)"/>
    <path id="Trazado_904237" data-name="Trazado 904237" d="M4.039-2.426A3.305,3.305,0,0,1,3.605-.539,1.542,1.542,0,0,1,2.25.078,1.553,1.553,0,0,1,.9-.525a3.137,3.137,0,0,1-.453-1.8v-.965A3.232,3.232,0,0,1,.883-5.156a1.554,1.554,0,0,1,1.359-.609,1.568,1.568,0,0,1,1.352.588,3.119,3.119,0,0,1,.445,1.814Zm-.723-.988a2.648,2.648,0,0,0-.258-1.338.887.887,0,0,0-.816-.42.876.876,0,0,0-.809.418,2.585,2.585,0,0,0-.262,1.285v1.156A2.69,2.69,0,0,0,1.439-.951a.886.886,0,0,0,.811.439.874.874,0,0,0,.795-.414,2.593,2.593,0,0,0,.271-1.3ZM5.055-.379a.453.453,0,0,1,.111-.312A.424.424,0,0,1,5.5-.816a.437.437,0,0,1,.338.125.443.443,0,0,1,.115.313.419.419,0,0,1-.115.3A.445.445,0,0,1,5.5.043a.432.432,0,0,1-.334-.121A.428.428,0,0,1,5.055-.379Zm5.688-4.9L8.387,0H7.629L9.977-5.094H6.9v-.594h3.844Zm4.57,4.77a1.041,1.041,0,0,0,.676-.234.825.825,0,0,0,.32-.586h.684a1.31,1.31,0,0,1-.25.691,1.647,1.647,0,0,1-.615.523,1.775,1.775,0,0,1-.814.2A1.741,1.741,0,0,1,13.939-.5a2.3,2.3,0,0,1-.51-1.576V-2.2a2.545,2.545,0,0,1,.227-1.1,1.726,1.726,0,0,1,.65-.746,1.848,1.848,0,0,1,1-.266,1.7,1.7,0,0,1,1.182.426,1.522,1.522,0,0,1,.5,1.105h-.684A1,1,0,0,0,16-3.447a.966.966,0,0,0-.689-.264,1.011,1.011,0,0,0-.854.4,1.862,1.862,0,0,0-.3,1.146v.137a1.825,1.825,0,0,0,.3,1.125A1.016,1.016,0,0,0,15.313-.512Zm3.172-3.715.02.469A1.561,1.561,0,0,1,19.758-4.3a1.208,1.208,0,0,1,1.207.68,1.6,1.6,0,0,1,.549-.492,1.621,1.621,0,0,1,.8-.187q1.391,0,1.414,1.473V0H23V-2.789a.97.97,0,0,0-.207-.678.912.912,0,0,0-.7-.225.958.958,0,0,0-.668.24.975.975,0,0,0-.309.646V0H20.4V-2.77a.806.806,0,0,0-.9-.922.967.967,0,0,0-.973.605V0H17.8V-4.227Z" transform="translate(1130.297 8047.476)"/>
    <path id="Trazado_904238" data-name="Trazado 904238" d="M2.492,0H1.856V-4.214L.581-3.746V-4.32L2.393-5h.1ZM7.557-4.621,5.5,0H4.833L6.887-4.457H4.194v-.52H7.557Zm4,4.173a.911.911,0,0,0,.591-.205.721.721,0,0,0,.28-.513h.6a1.147,1.147,0,0,1-.219.6,1.441,1.441,0,0,1-.538.458,1.553,1.553,0,0,1-.713.171,1.523,1.523,0,0,1-1.2-.5,2.008,2.008,0,0,1-.446-1.379v-.106a2.227,2.227,0,0,1,.2-.96,1.51,1.51,0,0,1,.569-.653,1.617,1.617,0,0,1,.877-.232,1.483,1.483,0,0,1,1.034.373,1.331,1.331,0,0,1,.439.967h-.6a.871.871,0,0,0-.272-.59.845.845,0,0,0-.6-.231.885.885,0,0,0-.747.347,1.629,1.629,0,0,0-.265,1v.12a1.6,1.6,0,0,0,.263.984A.889.889,0,0,0,11.556-.448ZM14.332-3.7l.017.41a1.366,1.366,0,0,1,1.1-.479,1.057,1.057,0,0,1,1.056.595,1.4,1.4,0,0,1,.48-.431,1.418,1.418,0,0,1,.7-.164q1.217,0,1.237,1.289V0h-.632V-2.44a.849.849,0,0,0-.181-.593.8.8,0,0,0-.608-.2.838.838,0,0,0-.584.21.853.853,0,0,0-.27.566V0h-.636V-2.423a.706.706,0,0,0-.79-.807.846.846,0,0,0-.851.53V0h-.632V-3.7Z" transform="translate(1052.241 8008.954)"/>
    <path id="Trazado_904239" data-name="Trazado 904239" d="M4.2,0H.473V-.52L2.441-2.707a4.677,4.677,0,0,0,.6-.807,1.346,1.346,0,0,0,.166-.643,1.02,1.02,0,0,0-.27-.73.942.942,0,0,0-.719-.285,1.116,1.116,0,0,0-.838.307,1.171,1.171,0,0,0-.3.854H.363a1.677,1.677,0,0,1,.506-1.27,1.875,1.875,0,0,1,1.354-.484,1.8,1.8,0,0,1,1.254.416,1.419,1.419,0,0,1,.461,1.107,3.253,3.253,0,0,1-1.07,2L1.344-.59H4.2Zm.855-.379a.453.453,0,0,1,.111-.312A.424.424,0,0,1,5.5-.816a.437.437,0,0,1,.338.125.443.443,0,0,1,.115.313.419.419,0,0,1-.115.3A.445.445,0,0,1,5.5.043a.432.432,0,0,1-.334-.121A.428.428,0,0,1,5.055-.379ZM7.4-2.852l.289-2.836h2.914v.668H8.3L8.133-3.469a1.835,1.835,0,0,1,.949-.246,1.569,1.569,0,0,1,1.234.514,2.013,2.013,0,0,1,.457,1.389A1.943,1.943,0,0,1,10.3-.428,1.73,1.73,0,0,1,8.973.078,1.8,1.8,0,0,1,7.742-.34,1.668,1.668,0,0,1,7.2-1.5h.684A1.148,1.148,0,0,0,8.23-.76a1.081,1.081,0,0,0,.742.248.975.975,0,0,0,.791-.344,1.437,1.437,0,0,0,.287-.949,1.319,1.319,0,0,0-.311-.916,1.056,1.056,0,0,0-.826-.346,1.191,1.191,0,0,0-.742.207L7.98-2.7Zm7.91,2.34a1.041,1.041,0,0,0,.676-.234.825.825,0,0,0,.32-.586h.684a1.31,1.31,0,0,1-.25.691,1.647,1.647,0,0,1-.615.523,1.775,1.775,0,0,1-.814.2A1.741,1.741,0,0,1,13.939-.5a2.3,2.3,0,0,1-.51-1.576V-2.2a2.545,2.545,0,0,1,.227-1.1,1.726,1.726,0,0,1,.65-.746,1.848,1.848,0,0,1,1-.266,1.7,1.7,0,0,1,1.182.426,1.522,1.522,0,0,1,.5,1.105h-.684A1,1,0,0,0,16-3.447a.966.966,0,0,0-.689-.264,1.011,1.011,0,0,0-.854.4,1.862,1.862,0,0,0-.3,1.146v.137a1.825,1.825,0,0,0,.3,1.125A1.016,1.016,0,0,0,15.313-.512Zm3.172-3.715.02.469A1.561,1.561,0,0,1,19.758-4.3a1.208,1.208,0,0,1,1.207.68,1.6,1.6,0,0,1,.549-.492,1.621,1.621,0,0,1,.8-.187q1.391,0,1.414,1.473V0H23V-2.789a.97.97,0,0,0-.207-.678.912.912,0,0,0-.7-.225.958.958,0,0,0-.668.24.975.975,0,0,0-.309.646V0H20.4V-2.77a.806.806,0,0,0-.9-.922.967.967,0,0,0-.973.605V0H17.8V-4.227Z" transform="translate(1309.601 8078.67)"/>
    <path id="Trazado_904245" data-name="Trazado 904245" d="M2.848,0H2.121V-4.816L.664-4.281v-.656l2.07-.777h.113ZM5.055-.379a.453.453,0,0,1,.111-.312A.424.424,0,0,1,5.5-.816a.437.437,0,0,1,.338.125.443.443,0,0,1,.115.313.419.419,0,0,1-.115.3A.445.445,0,0,1,5.5.043a.432.432,0,0,1-.334-.121A.428.428,0,0,1,5.055-.379ZM7.4-2.852l.289-2.836h2.914v.668H8.3L8.133-3.469a1.835,1.835,0,0,1,.949-.246,1.569,1.569,0,0,1,1.234.514,2.013,2.013,0,0,1,.457,1.389A1.943,1.943,0,0,1,10.3-.428,1.73,1.73,0,0,1,8.973.078,1.8,1.8,0,0,1,7.742-.34,1.668,1.668,0,0,1,7.2-1.5h.684A1.148,1.148,0,0,0,8.23-.76a1.081,1.081,0,0,0,.742.248.975.975,0,0,0,.791-.344,1.437,1.437,0,0,0,.287-.949,1.319,1.319,0,0,0-.311-.916,1.056,1.056,0,0,0-.826-.346,1.191,1.191,0,0,0-.742.207L7.98-2.7Zm7.91,2.34a1.041,1.041,0,0,0,.676-.234.825.825,0,0,0,.32-.586h.684a1.31,1.31,0,0,1-.25.691,1.647,1.647,0,0,1-.615.523,1.775,1.775,0,0,1-.814.2A1.741,1.741,0,0,1,13.939-.5a2.3,2.3,0,0,1-.51-1.576V-2.2a2.545,2.545,0,0,1,.227-1.1,1.726,1.726,0,0,1,.65-.746,1.848,1.848,0,0,1,1-.266,1.7,1.7,0,0,1,1.182.426,1.522,1.522,0,0,1,.5,1.105h-.684A1,1,0,0,0,16-3.447a.966.966,0,0,0-.689-.264,1.011,1.011,0,0,0-.854.4,1.862,1.862,0,0,0-.3,1.146v.137a1.825,1.825,0,0,0,.3,1.125A1.016,1.016,0,0,0,15.313-.512Zm3.172-3.715.02.469A1.561,1.561,0,0,1,19.758-4.3a1.208,1.208,0,0,1,1.207.68,1.6,1.6,0,0,1,.549-.492,1.621,1.621,0,0,1,.8-.187q1.391,0,1.414,1.473V0H23V-2.789a.97.97,0,0,0-.207-.678.912.912,0,0,0-.7-.225.958.958,0,0,0-.668.24.975.975,0,0,0-.309.646V0H20.4V-2.77a.806.806,0,0,0-.9-.922.967.967,0,0,0-.973.605V0H17.8V-4.227Z" transform="translate(1341.498 8102.435)"/>
    <path id="Trazado_904246" data-name="Trazado 904246" d="M0,0H512.116V715.675H0Z" transform="translate(858.439 7862.859)" fill="none"/>
    <path id="Trazado_904240" data-name="Trazado 904240" d="M4.2,0H.473V-.52L2.441-2.707a4.677,4.677,0,0,0,.6-.807,1.346,1.346,0,0,0,.166-.643,1.02,1.02,0,0,0-.27-.73.942.942,0,0,0-.719-.285,1.116,1.116,0,0,0-.838.307,1.171,1.171,0,0,0-.3.854H.363a1.677,1.677,0,0,1,.506-1.27,1.875,1.875,0,0,1,1.354-.484,1.8,1.8,0,0,1,1.254.416,1.419,1.419,0,0,1,.461,1.107,3.253,3.253,0,0,1-1.07,2L1.344-.59H4.2Zm.855-.379a.453.453,0,0,1,.111-.312A.424.424,0,0,1,5.5-.816a.437.437,0,0,1,.338.125.443.443,0,0,1,.115.313.419.419,0,0,1-.115.3A.445.445,0,0,1,5.5.043a.432.432,0,0,1-.334-.121A.428.428,0,0,1,5.055-.379ZM7.4-2.852l.289-2.836h2.914v.668H8.3L8.133-3.469a1.835,1.835,0,0,1,.949-.246,1.569,1.569,0,0,1,1.234.514,2.013,2.013,0,0,1,.457,1.389A1.943,1.943,0,0,1,10.3-.428,1.73,1.73,0,0,1,8.973.078,1.8,1.8,0,0,1,7.742-.34,1.668,1.668,0,0,1,7.2-1.5h.684A1.148,1.148,0,0,0,8.23-.76a1.081,1.081,0,0,0,.742.248.975.975,0,0,0,.791-.344,1.437,1.437,0,0,0,.287-.949,1.319,1.319,0,0,0-.311-.916,1.056,1.056,0,0,0-.826-.346,1.191,1.191,0,0,0-.742.207L7.98-2.7Zm7.91,2.34a1.041,1.041,0,0,0,.676-.234.825.825,0,0,0,.32-.586h.684a1.31,1.31,0,0,1-.25.691,1.647,1.647,0,0,1-.615.523,1.775,1.775,0,0,1-.814.2A1.741,1.741,0,0,1,13.939-.5a2.3,2.3,0,0,1-.51-1.576V-2.2a2.545,2.545,0,0,1,.227-1.1,1.726,1.726,0,0,1,.65-.746,1.848,1.848,0,0,1,1-.266,1.7,1.7,0,0,1,1.182.426,1.522,1.522,0,0,1,.5,1.105h-.684A1,1,0,0,0,16-3.447a.966.966,0,0,0-.689-.264,1.011,1.011,0,0,0-.854.4,1.862,1.862,0,0,0-.3,1.146v.137a1.825,1.825,0,0,0,.3,1.125A1.016,1.016,0,0,0,15.313-.512Zm3.172-3.715.02.469A1.561,1.561,0,0,1,19.758-4.3a1.208,1.208,0,0,1,1.207.68,1.6,1.6,0,0,1,.549-.492,1.621,1.621,0,0,1,.8-.187q1.391,0,1.414,1.473V0H23V-2.789a.97.97,0,0,0-.207-.678.912.912,0,0,0-.7-.225.958.958,0,0,0-.668.24.975.975,0,0,0-.309.646V0H20.4V-2.77a.806.806,0,0,0-.9-.922.967.967,0,0,0-.973.605V0H17.8V-4.227Z" transform="translate(891.069 8078.664)"/>
    <path id="Trazado_904247" data-name="Trazado 904247" d="M2.848,0H2.121V-4.816L.664-4.281v-.656l2.07-.777h.113ZM5.055-.379a.453.453,0,0,1,.111-.312A.424.424,0,0,1,5.5-.816a.437.437,0,0,1,.338.125.443.443,0,0,1,.115.313.419.419,0,0,1-.115.3A.445.445,0,0,1,5.5.043a.432.432,0,0,1-.334-.121A.428.428,0,0,1,5.055-.379ZM7.4-2.852l.289-2.836h2.914v.668H8.3L8.133-3.469a1.835,1.835,0,0,1,.949-.246,1.569,1.569,0,0,1,1.234.514,2.013,2.013,0,0,1,.457,1.389A1.943,1.943,0,0,1,10.3-.428,1.73,1.73,0,0,1,8.973.078,1.8,1.8,0,0,1,7.742-.34,1.668,1.668,0,0,1,7.2-1.5h.684A1.148,1.148,0,0,0,8.23-.76a1.081,1.081,0,0,0,.742.248.975.975,0,0,0,.791-.344,1.437,1.437,0,0,0,.287-.949,1.319,1.319,0,0,0-.311-.916,1.056,1.056,0,0,0-.826-.346,1.191,1.191,0,0,0-.742.207L7.98-2.7Zm7.91,2.34a1.041,1.041,0,0,0,.676-.234.825.825,0,0,0,.32-.586h.684a1.31,1.31,0,0,1-.25.691,1.647,1.647,0,0,1-.615.523,1.775,1.775,0,0,1-.814.2A1.741,1.741,0,0,1,13.939-.5a2.3,2.3,0,0,1-.51-1.576V-2.2a2.545,2.545,0,0,1,.227-1.1,1.726,1.726,0,0,1,.65-.746,1.848,1.848,0,0,1,1-.266,1.7,1.7,0,0,1,1.182.426,1.522,1.522,0,0,1,.5,1.105h-.684A1,1,0,0,0,16-3.447a.966.966,0,0,0-.689-.264,1.011,1.011,0,0,0-.854.4,1.862,1.862,0,0,0-.3,1.146v.137a1.825,1.825,0,0,0,.3,1.125A1.016,1.016,0,0,0,15.313-.512Zm3.172-3.715.02.469A1.561,1.561,0,0,1,19.758-4.3a1.208,1.208,0,0,1,1.207.68,1.6,1.6,0,0,1,.549-.492,1.621,1.621,0,0,1,.8-.187q1.391,0,1.414,1.473V0H23V-2.789a.97.97,0,0,0-.207-.678.912.912,0,0,0-.7-.225.958.958,0,0,0-.668.24.975.975,0,0,0-.309.646V0H20.4V-2.77a.806.806,0,0,0-.9-.922.967.967,0,0,0-.973.605V0H17.8V-4.227Z" transform="translate(858.439 8102.435)"/>
    <path id="Trazado_901155" data-name="Trazado 901155" d="M388.655,69.567a.8.8,0,0,1,.227.033l119.792,35.552a.8.8,0,0,1,.569.834c-1.922,22.543-3.173,43.643-3.719,62.715-.5,17.349-.422,33.41.223,47.738,1.087,24.151,3.793,43.886,8.042,58.656a85.405,85.405,0,0,0,5.686,14.972,37.927,37.927,0,0,0,5.357,8.118,16.238,16.238,0,0,0,3.955,3.339,5.8,5.8,0,0,0,1.531.654.782.782,0,0,1,.665.788V756.64a.8.8,0,0,1-.8.8H107a.8.8,0,0,1-.8-.8V303.433a.8.8,0,0,1,.294-.62c9.7-7.9,16.788-23.122,21.08-45.232,3.453-17.787,5.1-40.02,4.9-66.079-.08-10.246-.45-21.114-1.1-32.3-.52-8.953-1.219-18.13-2.077-27.277-1.462-15.575-2.9-25.792-2.915-25.893a.8.8,0,0,1,.565-.879L247.369,69.6a.8.8,0,0,1,1.02.673,139.931,139.931,0,0,0,4.173,21.582,93.42,93.42,0,0,0,6.3,16.49A59.714,59.714,0,0,0,275.038,128.8a45.41,45.41,0,0,0,27.522,9.96c1.189,0,1.87-.07,1.876-.07.025,0,.051,0,.076,0l26.9-.261h.054c1.128.065,2.258.1,3.356.1a50.756,50.756,0,0,0,8.892-.762,43.763,43.763,0,0,0,7.821-2.149,41.659,41.659,0,0,0,6.831-3.337,43.542,43.542,0,0,0,5.919-4.331c6.491-5.637,11.838-13.512,15.893-23.4a99.91,99.91,0,0,0,4.157-12.56c.929-3.551,1.707-7.242,2.313-10.971a98.378,98.378,0,0,0,1.21-10.678.8.8,0,0,1,.8-.768Zm-86.1,70.8a39.57,39.57,0,0,1-4.761-.3,46.207,46.207,0,0,1-6.807-1.363,48.371,48.371,0,0,1-16.941-8.636,55.05,55.05,0,0,1-8.707-8.624,68.55,68.55,0,0,1-7.909-12.374,95.025,95.025,0,0,1-6.41-16.773,140.407,140.407,0,0,1-4.109-20.89L128.064,106.49c.344,2.538,1.577,11.95,2.828,25.267.861,9.164,1.561,18.36,2.082,27.332.651,11.216,1.022,22.112,1.1,32.385.2,26.169-1.453,48.511-4.926,66.405-1.006,5.182-2.18,10.056-3.49,14.487a102.368,102.368,0,0,1-4.668,12.805,64.219,64.219,0,0,1-6,10.706,41.272,41.272,0,0,1-7.193,7.933V755.84H529.386V303.562a8.706,8.706,0,0,1-1.182-.536,17.1,17.1,0,0,1-4.289-3.477,38.013,38.013,0,0,1-5.605-8.256,84.356,84.356,0,0,1-5.86-15.08c-4.354-14.816-7.135-34.66-8.266-58.98-.671-14.422-.762-30.6-.271-48.093.535-19.05,1.774-40.122,3.683-62.641l-118.2-35.079c-.113,1.66-.418,5.227-1.17,9.85-.615,3.778-1.4,7.519-2.345,11.118a101.5,101.5,0,0,1-4.224,12.762c-4.15,10.126-9.643,18.2-16.324,24.005a45.153,45.153,0,0,1-6.137,4.491,43.265,43.265,0,0,1-7.094,3.465,45.371,45.371,0,0,1-8.107,2.228,52.36,52.36,0,0,1-9.173.787c-1.12,0-2.271-.033-3.421-.1l-26.837.26C304.389,140.3,303.688,140.363,302.56,140.363Z" transform="translate(794.68 7821.096)"/>
    <path id="Trazado_901156" data-name="Trazado 901156" d="M290.276,61.068l.263.755.8-.016c0,.007.015.693.109,1.892l-1.594.124c-.026-.339-.047-.638-.063-.894l-1.6.555-.525-1.51,1.835-.638.241.693c0-.117-.006-.182-.006-.19l.757-.015-.258-.743Zm120.332.646,1.832.646-.531,1.508-1.142-.4c-.013.35-.032.776-.062,1.271l-1.6-.1c.053-.871.072-1.518.079-1.907l1.054.019Zm-123.673.516.525,1.51-1.835.638-.525-1.51Zm126.238.388,1.832.646-.531,1.508-1.832-.646Zm-128.807.505.525,1.51-1.835.638-.525-1.51Zm131.373.4,1.832.646-.531,1.508-1.832-.646ZM281.8,64.017l.525,1.51-1.835.638-.525-1.51Zm136.507.41,1.832.646L419.6,66.58l-1.832-.646Zm-126.793.036c.056.62.124,1.263.2,1.911l-1.587.188c-.079-.663-.148-1.321-.205-1.955Zm-12.283.448.525,1.51-1.835.638-.525-1.51Zm141.642.42,1.832.646-.531,1.508-1.832-.646Zm-11.812.075,1.594.117c-.047.638-.105,1.3-.173,1.958l-1.59-.163C408.955,66.671,409.012,66.028,409.057,65.405Zm-132.4.4.525,1.51-1.835.638-.525-1.51Zm146.776.431,1.832.646-.531,1.508-1.832-.646ZM274.089,66.7l.525,1.51-1.835.638-.525-1.51Zm17.717.44c.081.627.172,1.268.269,1.9l-1.58.243c-.1-.649-.192-1.3-.275-1.942Zm134.194,0,1.832.646-.531,1.508-1.832-.646Zm-154.48.451.525,1.51-1.835.638-.525-1.51Zm157.045.453,1.832.646-.531,1.508-1.832-.646Zm-19.759.04,1.589.18c-.073.642-.156,1.3-.246,1.946l-1.583-.221C408.654,69.353,408.735,68.712,408.806,68.083Zm-139.855.4.525,1.51-1.835.638-.525-1.51Zm162.18.464,1.832.646-.531,1.508-1.832-.646Zm-164.749.43.525,1.51-1.835.638-.525-1.51ZM292.2,69.8c.1.628.215,1.265.333,1.894l-1.571.295c-.12-.641-.234-1.291-.339-1.931Zm141.5.049,1.832.646L435,72l-1.832-.646Zm-169.883.419.525,1.51-1.835.638-.525-1.51Zm144.642.482,1.581.237c-.1.642-.2,1.294-.315,1.936l-1.575-.276C408.257,72.019,408.361,71.381,408.455,70.752Zm27.807,0,1.832.646-.531,1.508-1.832-.646Zm-175.018.408.525,1.51-1.835.638-.525-1.51Zm177.583.5,1.832.646-.531,1.508-1.832-.646Zm-180.152.4.525,1.51-1.835.638-.525-1.51Zm34,.394c.124.627.256,1.26.394,1.884l-1.561.346c-.141-.635-.276-1.281-.4-1.92Zm148.717.112,1.832.646-.531,1.508-1.832-.646Zm-185.287.387.525,1.51L254.8,75.1l-.525-1.51Zm151.9.455,1.572.292c-.119.641-.247,1.289-.382,1.925l-1.564-.33C407.768,74.668,407.894,74.033,408.01,73.405Zm35.948.062,1.832.646-.531,1.508-1.832-.646Zm-190.421.376.525,1.51-1.835.638-.525-1.51Zm192.987.528,1.832.646-.531,1.508-1.832-.646Zm-195.556.365.525,1.51-1.835.638-.525-1.51Zm42.272.349c.144.623.3,1.253.455,1.87l-1.549.4c-.161-.629-.317-1.271-.464-1.906Zm155.849.19,1.832.646-.531,1.508-1.832-.646Zm-200.69.355.525,1.51-1.835.638-.525-1.51Zm159.075.413,1.561.346c-.141.638-.292,1.281-.449,1.911l-1.552-.385C407.187,77.3,407.335,76.668,407.473,76.043Zm44.181.137,1.832.646-.531,1.508-1.832-.646Zm-205.825.344.525,1.51-1.835.638-.525-1.51Zm208.39.56,1.832.646-.531,1.508-1.832-.646Zm-210.959.333.525,1.51-1.835.638-.525-1.51Zm50.629.283c.165.619.339,1.242.517,1.853L292.871,80c-.182-.623-.359-1.259-.527-1.89Zm162.9.288,1.832.646-.531,1.508-1.832-.646Zm-216.094.323.525,1.51-1.835.638-.525-1.51Zm166.153.35,1.547.4c-.164.633-.338,1.27-.517,1.895l-1.537-.441C406.513,79.9,406.683,79.281,406.844,78.661Zm52.506.232,1.832.646-.531,1.508-1.832-.646ZM238.121,79.2l.525,1.51-1.835.638-.525-1.51Zm223.794.592,1.832.646-.531,1.508-1.832-.646Zm-226.363.3.525,1.51-1.835.638-.525-1.51Zm59.073.194c.185.613.38,1.23.579,1.834l-1.518.5c-.2-.616-.4-1.245-.591-1.871Zm169.856.409,1.832.646-.531,1.508-1.832-.646Zm-231.5.29.525,1.51-1.835.638-.525-1.51Zm173.139.263,1.532.457c-.187.627-.384,1.257-.586,1.874l-1.519-.5C405.746,82.484,405.939,81.867,406.122,81.254Zm60.924.351,1.832.646-.531,1.508-1.832-.646Zm-236.632.28.525,1.51-1.835.638-.525-1.51Zm239.2.625,1.832.646-.531,1.508-1.832-.646Zm-241.766.269.525,1.51-1.835.638-.525-1.51Zm67.6.077c.207.606.423,1.216.643,1.811l-1.5.554c-.225-.608-.446-1.23-.657-1.85Zm176.728.559,1.832.646-.531,1.508-1.832-.646Zm-246.9.258.525,1.51-1.835.638-.525-1.51Zm180.029.145,1.514.514c-.211.62-.432,1.243-.658,1.852l-1.5-.556C404.883,85.031,405.1,84.422,405.305,83.816Zm69.437.5,1.832.646-.531,1.508-1.832-.646Zm-252.035.247.525,1.51-1.835.638-.525-1.51Zm254.6.657,1.832.646-.531,1.508-1.832-.646Zm-180.945.164c.228.6.467,1.2.709,1.786l-1.478.61c-.247-.6-.491-1.214-.725-1.826Zm-76.225.073.525,1.51-1.835.638L218.3,86.1Zm259.735.668,1.832.646-.531,1.508-1.832-.646Zm-75.482.219,1.492.573c-.235.612-.481,1.226-.731,1.826l-1.475-.616C403.922,87.543,404.162,86.943,404.391,86.345Zm-186.823.007.525,1.51-1.835.638-.525-1.51Zm264.87.678,1.832.646-.531,1.508-1.832-.646ZM215,87.245l.525,1.51-1.835.638-.525-1.51Zm82.369.635c.251.59.512,1.181.776,1.757l-1.453.666c-.271-.59-.538-1.195-.794-1.8ZM485,87.934l1.832.646-.531,1.508-1.832-.646Zm-272.573.2.525,1.51-1.835.638-.525-1.51Zm190.947.7,1.468.633c-.26.6-.531,1.206-.806,1.794l-1.448-.677C402.86,90.011,403.124,89.422,403.378,88.834Zm84.191,0,1.832.646-.531,1.508-1.832-.646Zm-277.708.194.525,1.51-1.835.638-.525-1.51Zm280.273.711,1.832.646-.531,1.508L489.6,91.25Zm-282.842.183.525,1.51-1.835.638-.525-1.51Zm91.177.408c.274.579.558,1.159.845,1.724l-1.425.725c-.294-.578-.586-1.172-.866-1.766Zm194.231.313,1.832.646L494,92.8l-1.832-.646Zm-287.977.172.525,1.51-1.835.638-.525-1.51Zm197.54.46,1.44.695c-.285.591-.582,1.183-.882,1.758l-1.417-.74C401.7,92.431,401.984,91.854,402.262,91.278Zm93,.272,1.832.646-.531,1.508-1.832-.646Zm-293.111.161.525,1.51-1.835.638-.525-1.51Zm295.677.743,1.832.646-.531,1.508-1.832-.646Zm-298.246.151.525,1.51-1.835.638-.525-1.51Zm100.081.134c.3.567.605,1.134.916,1.686l-1.393.785c-.319-.566-.635-1.147-.939-1.729Zm200.73.62,1.832.646-.531,1.508-1.832-.646Zm-303.38.14.525,1.51-1.835.638-.525-1.51Zm204.028.171,1.408.758c-.311.578-.634,1.156-.961,1.718l-1.382-.8C400.425,94.795,400.74,94.232,401.043,93.67Zm101.918.594,1.832.646-.531,1.508-1.832-.646Zm-308.515.129.525,1.51-1.835.638-.525-1.51Zm106.516.7c.321.553.653,1.106.988,1.643l-1.357.846c-.344-.551-.685-1.119-1.014-1.687Zm204.564.076,1.832.646-.531,1.508L505,96.675Zm-313.649.118.525,1.51-1.835.638-.525-1.51ZM399.718,96l1.371.822c-.337.563-.688,1.126-1.041,1.672l-1.342-.868C399.049,97.1,399.389,96.55,399.718,96Zm108.374.069,1.832.646-.531,1.508-1.832-.646Zm-318.784.108.525,1.51L188,98.327l-.525-1.51Zm321.349.8,1.832.646-.531,1.508-1.832-.646Zm-323.919.1.525,1.51-1.835.638-.525-1.51Zm115.621.31c.345.538.7,1.075,1.061,1.6l-1.316.908c-.369-.535-.736-1.087-1.091-1.64Zm210.862.5,1.832.646-.531,1.508-1.832-.646Zm-329.053.086.525,1.51-1.835.638-.525-1.51Zm214.115.3,1.33.887c-.364.546-.742,1.092-1.122,1.62l-1.3-.933C397.564,99.329,397.931,98.8,398.285,98.269Zm117.5.515,1.832.646-.531,1.508-1.832-.646ZM181.6,98.859l.525,1.51-1.605.558q.1.571.28,1.559l-1.574.279c-.158-.892-.275-1.529-.345-1.906l1.275-.237-.391-1.125Zm122.26.746c.369.521.751,1.039,1.135,1.542l-1.271.97c-.395-.517-.788-1.051-1.168-1.587Zm214.493.082,1.832.646-.362,1.027,1.409.246c-.112.639-.224,1.287-.334,1.923l-1.575-.271c.082-.479.166-.963.25-1.445l-1.752-.618Zm-121.61.773,1.284.952c-.391.528-.8,1.053-1.2,1.563l-1.249-1C395.971,101.483,396.364,100.973,396.743,100.461Zm-91.278,1.292c.394.5.8,1,1.209,1.483l-1.221,1.032c-.421-.5-.84-1.012-1.246-1.528Zm89.629.818,1.234,1.017c-.418.507-.849,1.011-1.283,1.5l-1.194-1.063C394.271,103.551,394.689,103.062,395.094,102.571Zm-214.158.683c.108.618.219,1.263.33,1.92l-1.576.267c-.111-.654-.221-1.3-.329-1.912Zm126.238.564c.418.48.85.958,1.283,1.419l-1.166,1.094c-.446-.476-.891-.968-1.323-1.463Zm212.019.208,1.576.27c-.108.633-.217,1.274-.323,1.9l-1.576-.266C518.974,105.3,519.084,104.661,519.192,104.026Zm-125.855.566,1.178,1.081c-.444.484-.9.964-1.362,1.428l-1.136-1.125C392.464,105.526,392.908,105.06,393.337,104.591Zm-84.353,1.2c.442.457.9.911,1.355,1.349l-1.106,1.154c-.471-.452-.942-.92-1.4-1.392Zm-127.589.151c.106.63.213,1.278.319,1.928l-1.578.258c-.106-.647-.213-1.294-.318-1.921Zm210.08.573,1.118,1.143c-.469.459-.953.914-1.438,1.352l-1.072-1.186C390.553,107.4,391.021,106.959,391.476,106.514Zm127.264.185,1.577.264c-.107.64-.215,1.288-.32,1.925l-1.577-.26C518.524,107.99,518.632,107.341,518.739,106.7Zm-207.844.965c.466.433.945.861,1.426,1.274l-1.042,1.213c-.5-.426-.991-.868-1.472-1.315Zm78.616.668,1.053,1.2c-.493.432-1,.86-1.51,1.271l-1.005-1.243C388.543,109.165,389.034,108.751,389.512,108.333Zm-207.674.3c.1.633.206,1.28.308,1.925l-1.579.249c-.1-.643-.2-1.289-.307-1.919Zm336.455.765,1.578.258c-.1.634-.208,1.275-.309,1.905l-1.578-.254C518.085,110.674,518.189,110.032,518.293,109.4Zm-205.388.035c.488.406.99.808,1.493,1.194l-.974,1.268c-.519-.4-1.038-.813-1.542-1.233Zm74.547.607.985,1.259c-.516.4-1.047.8-1.578,1.186l-.935-1.3C386.439,110.816,386.953,110.43,387.452,110.039Zm-72.443,1.048c.509.378,1.032.751,1.556,1.109l-.9,1.32c-.541-.37-1.081-.755-1.607-1.146Zm-132.742.236c.1.637.2,1.286.3,1.931l-1.58.241c-.1-.643-.2-1.291-.3-1.926Zm203.034.306.914,1.312c-.537.374-1.089.743-1.642,1.1l-.862-1.346C384.245,112.348,384.78,111.991,385.3,111.629Zm132.56.447,1.579.252c-.1.64-.2,1.288-.3,1.925l-1.579-.248C517.654,113.367,517.757,112.718,517.86,112.076Zm-200.661.546c.529.349,1.072.693,1.615,1.022l-.828,1.368c-.561-.34-1.122-.695-1.668-1.055Zm65.865.476.841,1.36c-.556.344-1.127.682-1.7,1l-.787-1.391C381.972,113.758,382.525,113.431,383.063,113.1Zm-200.383.916c.1.636.193,1.284.288,1.926l-1.581.234c-.095-.64-.191-1.286-.287-1.92Zm136.792.022c.546.319,1.108.632,1.668.931l-.752,1.411c-.579-.308-1.158-.632-1.723-.962Zm61.278.408.766,1.4c-.573.313-1.162.62-1.75.913l-.712-1.431C379.623,115.044,380.194,114.747,380.75,114.443Zm136.684.331,1.58.246c-.1.634-.2,1.275-.294,1.905l-1.58-.242C517.236,116.052,517.335,115.409,517.434,114.774Zm-195.616.547c.563.289,1.141.572,1.718.841l-.675,1.449c-.6-.277-1.192-.569-1.773-.868Zm56.549.342.691,1.442c-.588.282-1.191.557-1.794.819l-.637-1.466C377.211,116.2,377.8,115.937,378.367,115.663Zm-54.135.817c.577.258,1.169.51,1.759.749l-.6,1.482c-.609-.246-1.219-.506-1.814-.772Zm-141.149.233c.093.636.187,1.283.279,1.923l-1.582.227c-.091-.638-.185-1.284-.278-1.918Zm192.839.046.616,1.475c-.6.251-1.216.5-1.831.726l-.563-1.5C374.74,117.24,375.338,117,375.921,116.759Zm141.1.7,1.581.24c-.1.64-.195,1.288-.289,1.925l-1.581-.235C516.826,118.751,516.923,118.1,517.021,117.46Zm-190.317.05c.59.228,1.194.449,1.8.658l-.523,1.511c-.621-.215-1.244-.443-1.851-.678Zm46.72.219.542,1.5c-.612.221-1.239.435-1.865.637l-.491-1.521C372.219,118.152,372.829,117.944,373.424,117.729Zm-44.2.684c.6.2,1.217.39,1.83.569l-.448,1.534c-.631-.184-1.265-.381-1.883-.586Zm41.655.165.47,1.528c-.621.191-1.258.376-1.892.549l-.42-1.542C369.656,118.945,370.276,118.765,370.881,118.578Zm-39.089.613c.609.169,1.234.331,1.855.482l-.376,1.554c-.639-.155-1.28-.321-1.907-.495Zm36.507.118.4,1.548c-.628.163-1.272.319-1.913.464l-.353-1.559C367.058,119.621,367.686,119.468,368.3,119.31Zm-184.828.1c.091.638.182,1.287.27,1.927l-1.583.219c-.089-.639-.179-1.286-.27-1.922Zm150.922.443c.616.141,1.247.274,1.876.4l-.307,1.569c-.645-.126-1.292-.263-1.925-.408Zm31.292.078.334,1.563c-.634.135-1.283.264-1.929.382L363.8,120.3C364.432,120.184,365.066,120.059,365.685,119.927Zm150.932.231,1.581.234c-.094.636-.188,1.28-.28,1.913l-1.582-.229C516.428,121.44,516.522,120.8,516.617,120.157Zm-179.593.231c.622.114,1.258.22,1.892.316l-.24,1.581c-.649-.1-1.3-.208-1.939-.324Zm26.022.045.27,1.576c-.638.109-1.292.212-1.942.3l-.226-1.583C361.783,120.641,362.422,120.541,363.046,120.434Zm-23.37.382c.626.088,1.267.168,1.9.239l-.176,1.589c-.652-.072-1.308-.155-1.949-.244Zm20.711.021.209,1.585c-.642.085-1.3.163-1.952.231l-.167-1.59C359.116,121,359.759,120.919,360.387,120.836Zm-18.042.3c.63.063,1.274.118,1.914.165l-.116,1.594c-.654-.048-1.313-.1-1.957-.169Zm15.369,0,.151,1.591c-.644.061-1.3.116-1.958.162L355.8,121.3C356.437,121.252,357.083,121.2,357.714,121.139Zm-2.684.208.1,1.6c-.645.039-1.3.071-1.959.1l-.06-1.6C353.75,121.417,354.4,121.386,355.03,121.347Zm-10,0c.633.039,1.28.072,1.922.1l-.059,1.6c-.656-.024-1.317-.057-1.963-.1Zm7.312.115.045,1.6c-.416.012-.839.021-1.259.027l-.7.007-.009-1.6.69-.007C351.513,121.487,351.929,121.478,352.337,121.467Zm-4.623,0c.634.017,1.281.027,1.925.029l-.005,1.6c-.656,0-1.316-.012-1.963-.03Zm-163.866.635c.088.639.176,1.287.262,1.928l-1.584.212c-.086-.639-.173-1.286-.261-1.923Zm332.377.744,1.582.227c-.092.64-.184,1.287-.273,1.924l-1.583-.222C516.04,124.141,516.133,123.492,516.224,122.851ZM184.212,124.8c.085.64.17,1.289.253,1.929l-1.585.205c-.083-.639-.168-1.286-.252-1.924Zm331.632.744,1.583.22c-.089.639-.178,1.286-.265,1.922l-1.584-.216C515.665,126.835,515.754,126.187,515.843,125.546Zm-331.279,1.961c.082.64.164,1.289.244,1.928l-1.586.2c-.08-.638-.162-1.285-.244-1.923Zm330.909.74,1.584.214c-.086.639-.172,1.285-.256,1.921l-1.585-.209C515.3,129.536,515.387,128.888,515.473,128.248Zm-330.568,1.961c.079.642.159,1.292.236,1.933l-1.587.191c-.077-.64-.156-1.288-.236-1.928Zm330.211.731,1.585.207c-.084.642-.167,1.292-.249,1.931l-1.586-.2C514.948,132.236,515.032,131.584,515.116,130.94Zm-329.883,1.97c.077.642.153,1.292.227,1.933l-1.588.184c-.074-.639-.151-1.288-.227-1.928Zm329.536.74,1.586.2c-.08.638-.16,1.283-.238,1.917l-1.587-.194C514.608,134.936,514.688,134.29,514.769,133.65ZM185.55,135.616c.074.642.147,1.292.219,1.933l-1.589.177c-.071-.639-.145-1.288-.218-1.928Zm328.886.728,1.587.192c-.078.644-.156,1.3-.231,1.936l-1.588-.187C514.28,137.643,514.358,136.989,514.436,136.344Zm-328.581,1.981c.071.642.141,1.292.21,1.932l-1.59.17c-.068-.639-.139-1.287-.209-1.927Zm328.259.732,1.588.185c-.074.639-.148,1.285-.22,1.92l-1.589-.179C513.965,140.345,514.039,139.7,514.114,139.057Zm-327.967,1.979c.068.642.135,1.292.2,1.932l-1.59.163c-.065-.638-.133-1.287-.2-1.927Zm327.659.726,1.589.177c-.072.642-.143,1.291-.212,1.93l-1.589-.172C513.662,143.056,513.734,142.4,513.806,141.761Zm-327.379,1.982c.065.643.13,1.294.192,1.935l-1.591.155c-.062-.639-.127-1.289-.192-1.93Zm327.084.722,1.59.169c-.068.643-.136,1.294-.2,1.933l-1.59-.164C513.374,145.763,513.442,145.111,513.511,144.466Zm-326.817,1.987c.062.645.124,1.3.183,1.939l-1.592.148c-.059-.64-.121-1.291-.183-1.934Zm326.535.729,1.591.161c-.065.64-.129,1.286-.191,1.922l-1.591-.155C513.1,148.471,513.163,147.823,513.229,147.181Zm-326.28,1.983c.059.645.118,1.3.174,1.941l-1.592.14c-.056-.641-.115-1.292-.174-1.935Zm326.013.72,1.591.153c-.062.645-.124,1.3-.183,1.939l-1.592-.147C512.838,151.186,512.9,150.531,512.962,149.884ZM187.19,151.877c.056.645.111,1.3.165,1.941l-1.593.132c-.053-.641-.108-1.292-.164-1.935Zm325.518.725,1.592.144c-.058.642-.116,1.291-.171,1.929l-1.593-.138C512.591,153.9,512.649,153.246,512.708,152.6Zm-325.29,1.989c.053.646.1,1.3.155,1.941l-1.594.124c-.05-.641-.1-1.292-.154-1.936Zm325.051.726,1.593.136c-.055.642-.109,1.291-.16,1.929l-1.593-.129C512.36,156.613,512.414,155.962,512.469,155.318Zm-324.836,1.99c.049.646.1,1.3.145,1.942l-1.594.116c-.047-.641-.1-1.292-.145-1.936Zm324.613.715,1.594.127c-.051.647-.1,1.3-.151,1.945l-1.594-.12C512.143,159.328,512.194,158.672,512.246,158.022Zm-324.412,2c.046.646.092,1.3.135,1.942l-1.595.108c-.043-.641-.089-1.292-.135-1.936Zm324.2.725,1.594.118c-.047.642-.094,1.291-.138,1.929l-1.595-.111C511.943,162.045,511.989,161.393,512.037,160.749ZM188.02,162.742c.043.646.085,1.3.125,1.943l-1.6.1c-.04-.641-.082-1.292-.124-1.937Zm323.824.724,1.595.108c-.044.643-.086,1.293-.127,1.932l-1.6-.1C511.758,164.765,511.8,164.112,511.845,163.467Zm-323.652,1.995c.039.647.078,1.3.114,1.944l-1.6.09c-.036-.641-.075-1.293-.114-1.937Zm323.477.715,1.6.1c-.04.648-.079,1.3-.116,1.947l-1.6-.091C511.59,167.484,511.629,166.827,511.669,166.176ZM188.35,168.182c.036.647.07,1.3.1,1.944l-1.6.081c-.033-.641-.067-1.293-.1-1.938Zm323.16.724,1.6.088c-.036.644-.07,1.294-.1,1.933l-1.6-.081C511.439,170.205,511.474,169.552,511.51,168.906Zm-323.018,2c.032.647.063,1.3.092,1.945l-1.6.072c-.029-.641-.06-1.293-.092-1.938Zm322.876.725,1.6.078c-.031.643-.061,1.292-.09,1.931l-1.6-.07C511.306,172.926,511.337,172.274,511.368,171.629Zm-322.75,2c.028.648.055,1.3.08,1.945l-1.6.063c-.025-.641-.052-1.293-.08-1.939Zm322.626.719,1.6.067c-.027.647-.053,1.3-.077,1.944l-1.6-.059C511.191,175.651,511.217,174.994,511.245,174.344Zm-322.516,2c.024.648.047,1.3.069,1.946l-1.6.053c-.021-.641-.044-1.293-.068-1.939Zm322.411.723,1.6.056c-.023.646-.044,1.3-.063,1.941l-1.6-.048C511.1,178.375,511.117,177.72,511.139,177.071Zm-322.317,2c.02.648.039,1.3.056,1.946l-1.6.043c-.017-.641-.036-1.293-.056-1.939Zm322.231.727,1.6.045c-.018.643-.034,1.292-.049,1.93l-1.6-.036C511.018,181.1,511.035,180.445,511.053,179.8Zm-322.155,2c.016.648.031,1.3.044,1.947l-1.6.032c-.013-.641-.027-1.293-.043-1.939Zm322.088.726,1.6.033c-.013.645-.025,1.3-.035,1.935l-1.6-.024C510.962,183.824,510.973,183.17,510.987,182.522Zm-322.03,2c.012.649.022,1.3.031,1.947l-1.6.021c-.008-.641-.019-1.293-.03-1.939Zm321.984.72,1.6.021c-.008.648-.015,1.3-.02,1.946l-1.6-.012C510.925,186.55,510.932,185.893,510.941,185.241ZM189,187.247c.007.649.013,1.3.017,1.947l-1.6.01c0-.641-.01-1.293-.017-1.939Zm321.918.725,1.6.008c0,.647-.005,1.3,0,1.942h-1.6C510.911,189.278,510.912,188.621,510.916,187.971Zm-321.9,2c0,.649,0,1.3,0,1.947l-1.6,0c0-.64,0-1.293,0-1.939Zm323.493.725c0,.645.006,1.3.011,1.935l-1.6.014c-.006-.642-.01-1.3-.011-1.944Zm-325.09,2,1.6.005c0,.649-.006,1.3-.012,1.947l-1.6-.014C187.414,193.992,187.418,193.34,187.421,192.693Zm325.11.717c.007.642.017,1.291.028,1.928l-1.6.028c-.011-.64-.021-1.292-.028-1.938Zm-325.129,2,1.6.018c-.007.649-.016,1.3-.027,1.947l-1.6-.027C187.385,196.706,187.394,196.053,187.4,195.407Zm325.171.713c.013.645.028,1.3.045,1.935l-1.6.042c-.017-.642-.032-1.3-.045-1.945Zm-325.212,2,1.6.03c-.012.649-.027,1.3-.043,1.947l-1.6-.04C187.334,199.419,187.348,198.767,187.361,198.121Zm325.278.707c.019.647.04,1.3.063,1.942l-1.6.057c-.023-.645-.044-1.3-.063-1.952ZM187.3,200.834l1.6.044c-.018.649-.038,1.3-.059,1.947l-1.6-.054C187.26,202.131,187.28,201.48,187.3,200.834Zm325.432.7c.025.648.052,1.3.081,1.943l-1.6.072c-.029-.645-.057-1.3-.082-1.954Zm-325.518,2.007,1.6.058c-.023.649-.049,1.3-.076,1.946l-1.6-.068C187.163,204.843,187.189,204.191,187.212,203.546Zm325.635.706c.031.646.065,1.3.1,1.938l-1.6.088c-.036-.644-.07-1.3-.1-1.95Zm-325.745,2,1.6.072c-.029.649-.061,1.3-.094,1.946l-1.6-.083C187.041,207.553,187.073,206.9,187.1,206.256Zm325.89.706c.038.645.078,1.3.12,1.934l-1.6.105c-.042-.642-.083-1.3-.121-1.946Zm-326.025,2,1.6.087c-.036.649-.074,1.3-.113,1.945l-1.6-.1C186.893,210.261,186.931,209.611,186.967,208.965Zm326.2.7c.044.644.092,1.293.141,1.93l-1.594.122c-.049-.641-.1-1.295-.142-1.943Zm-326.358,2,1.6.1c-.042.649-.087,1.3-.133,1.945l-1.594-.115C186.719,212.968,186.763,212.318,186.805,211.672Zm326.56.7c.051.643.106,1.291.162,1.927l-1.592.14c-.056-.64-.111-1.293-.163-1.94Zm-326.749,2,1.594.12c-.049.649-.1,1.3-.154,1.944l-1.593-.132C186.516,215.672,186.568,215.022,186.616,214.377Zm326.98.7c.059.642.121,1.289.184,1.924l-1.591.159c-.064-.639-.127-1.291-.186-1.938ZM186.4,217.08l1.593.137c-.056.649-.115,1.3-.176,1.943l-1.592-.151C186.284,218.373,186.342,217.724,186.4,217.08Zm327.462.692c.067.641.136,1.288.208,1.922l-1.589.179c-.072-.639-.142-1.29-.209-1.936Zm-327.71,2.008,1.591.156c-.064.648-.13,1.3-.2,1.941l-1.59-.17C186.02,221.071,186.086,220.423,186.149,219.779Zm328.006.686c.074.641.153,1.286.232,1.919l-1.586.2c-.08-.638-.159-1.288-.234-1.934Zm-328.287,2.01,1.589.175c-.072.648-.147,1.3-.223,1.939l-1.587-.19C185.723,223.765,185.8,223.118,185.869,222.475Zm328.618.679c.083.64.17,1.285.258,1.917l-1.583.221c-.089-.637-.176-1.287-.26-1.932Zm-328.932,2.012,1.587.2c-.08.647-.164,1.3-.249,1.936l-1.585-.211C185.392,226.455,185.475,225.808,185.554,225.166Zm329.3.671c.092.639.188,1.283.285,1.914l-1.58.244c-.1-.636-.195-1.285-.287-1.93ZM185.2,227.853l1.584.218c-.089.646-.182,1.3-.276,1.932l-1.581-.234C185.024,229.139,185.116,228.494,185.2,227.853Zm330.053.662c.1.638.206,1.281.313,1.91l-1.576.267c-.108-.635-.214-1.283-.316-1.927Zm-330.442,2.019,1.58.241c-.1.645-.2,1.294-.3,1.928l-1.578-.258C184.617,231.816,184.718,231.173,184.816,230.534Zm330.885.649c.111.637.226,1.278.343,1.906l-1.572.292c-.118-.634-.234-1.281-.346-1.924Zm-331.313,2.025,1.576.265c-.108.644-.221,1.291-.335,1.923l-1.573-.284C184.168,234.486,184.28,233.845,184.387,233.208Zm331.8.636c.121.635.247,1.274.374,1.9l-1.567.318c-.128-.631-.255-1.277-.377-1.918Zm-332.269,2.03,1.572.291c-.119.642-.243,1.286-.367,1.917l-1.568-.311C183.676,237.147,183.8,236.509,183.916,235.874Zm332.8.629c.131.631.268,1.266.405,1.887l-1.561.346c-.139-.628-.277-1.269-.409-1.907ZM183.4,238.531l1.566.319c-.13.64-.265,1.282-.4,1.909l-1.562-.34C183.137,239.8,183.271,239.163,183.4,238.531Zm333.891.618c.143.629.291,1.262.44,1.881l-1.554.375c-.151-.626-.3-1.265-.445-1.9Zm-334.455,2.028,1.56.349c-.143.638-.29,1.277-.439,1.9l-1.555-.371C182.548,242.439,182.694,241.807,182.835,241.176Zm335.078.6c.155.627.315,1.257.476,1.872l-1.546.405c-.163-.623-.325-1.26-.482-1.894ZM182.219,243.81l1.553.38c-.156.635-.317,1.272-.48,1.894l-1.547-.4C181.906,245.066,182.065,244.437,182.219,243.81Zm336.368.586c.167.623.34,1.249.514,1.861l-1.538.438c-.176-.619-.351-1.253-.521-1.884Zm-337.04,2.032,1.544.414c-.17.632-.346,1.266-.523,1.884l-1.537-.44C181.206,247.677,181.38,247.051,181.547,246.428ZM519.316,247c.18.619.367,1.241.555,1.848l-1.527.472c-.19-.615-.379-1.245-.562-1.873Zm-338.5,2.026,1.534.451c-.185.629-.376,1.259-.569,1.873l-1.525-.479C180.446,250.268,180.634,249.648,180.817,249.028Zm339.282.553c.195.616.4,1.234.6,1.836l-1.516.508c-.2-.611-.409-1.238-.606-1.862Zm-340.076,2.027,1.522.49c-.2.625-.41,1.251-.619,1.859l-1.512-.52C179.619,252.837,179.824,252.222,180.022,251.607Zm340.924.544c.209.61.426,1.221.642,1.817l-1.5.547c-.22-.6-.44-1.225-.652-1.845Zm-341.786,2.01,1.507.533c-.219.62-.446,1.24-.673,1.843l-1.5-.565C178.723,255.38,178.945,254.771,179.16,254.161Zm342.694.528c.226.605.458,1.211.692,1.8l-1.486.588c-.237-.6-.474-1.216-.7-1.831Zm-343.63,2,1.49.578c-.238.613-.484,1.225-.731,1.82l-1.476-.613C177.75,257.891,177.991,257.291,178.224,256.689Zm344.608.515c.242.6.492,1.194.742,1.775l-1.468.632c-.254-.591-.508-1.2-.755-1.807Zm-345.624,1.982,1.47.628c-.258.605-.525,1.209-.793,1.795l-1.454-.665C176.694,260.37,176.955,259.779,177.208,259.186Zm346.674.5c.26.589.527,1.176.795,1.747l-1.447.679c-.273-.582-.546-1.181-.81-1.781Zm-347.776,1.953,1.446.681c-.281.6-.571,1.191-.862,1.766l-1.427-.721C175.549,262.805,175.833,262.225,176.107,261.642Zm348.9.493c.279.58.566,1.158.853,1.718l-1.422.729c-.293-.572-.587-1.163-.871-1.754ZM174.915,264.05l1.418.738c-.3.586-.62,1.168-.936,1.732L174,265.738C174.311,265.189,174.618,264.621,174.915,264.05Zm351.3.489c.3.569.607,1.135.915,1.683l-1.394.783c-.315-.561-.63-1.14-.937-1.722ZM173.625,266.4l1.384.8c-.331.572-.672,1.14-1.014,1.689l-1.356-.846C172.972,267.511,173.3,266.958,173.625,266.4Zm353.892.491c.322.558.653,1.112.984,1.646l-1.359.842c-.34-.548-.679-1.116-1.01-1.688Zm-355.29,1.8,1.344.866c-.358.556-.728,1.107-1.1,1.638l-1.31-.916C171.521,269.767,171.88,269.232,172.227,268.693Zm356.68.492c.347.544.7,1.082,1.058,1.6l-1.318.9c-.365-.533-.732-1.086-1.088-1.645ZM170.719,270.9l1.3.936c-.388.537-.788,1.068-1.189,1.578l-1.256-.989C169.957,271.937,170.344,271.424,170.719,270.9Zm359.685.509c.372.526.754,1.044,1.134,1.539l-1.268.973c-.393-.512-.786-1.046-1.17-1.589Zm-361.31,1.609,1.239,1.01c-.419.514-.851,1.021-1.284,1.505l-1.193-1.065C168.274,274.007,168.69,273.519,169.094,273.024Zm362.914.533c.4.5.81,1,1.217,1.468l-1.207,1.048c-.423-.487-.847-1-1.262-1.522ZM167.342,275.04l1.172,1.087c-.451.487-.916.964-1.382,1.42l-1.118-1.143C166.462,275.967,166.908,275.508,167.342,275.04Zm366.388.555c.432.479.872.943,1.308,1.38l-1.13,1.13c-.456-.456-.915-.94-1.365-1.44Zm-368.264,1.336,1.095,1.165c-.484.454-.982.9-1.481,1.321l-1.032-1.221C164.525,277.792,165,277.366,165.466,276.931Zm370.115.574c.468.447.941.871,1.405,1.261l-1.027,1.225c-.49-.411-.989-.858-1.482-1.33Zm-372.119,1.175,1.006,1.243c-.516.417-1.047.823-1.578,1.207l-.935-1.3C162.462,279.467,162.969,279.079,163.462,278.681Zm374.11.562c.526.415,1.035.779,1.513,1.084l-.86,1.347c-.522-.333-1.074-.729-1.642-1.176Zm-376.239,1.028.6.877.107-.022.051.25.146.212-.09.062.153.757-1.567.317-.366-1.81.45-.3C160.991,280.5,161.164,280.387,161.334,280.271Zm378.372.426c.093.051.143.075.144.075h0l.572.267-.131.616-.348,1.7-1.566-.321.348-1.7.574.117Zm-377.249,2.472.385,1.9-1.567.317-.385-1.9Zm375.762.625,1.566.321-.39,1.9-1.566-.321ZM163,285.835l.385,1.9-1.567.317-.385-1.9Zm374.676.624,1.566.321-.39,1.9-1.566-.321ZM163.535,288.5l.385,1.9-1.567.317-.385-1.9Zm373.591.622,1.566.321-.39,1.9-1.566-.321Zm-373.051,2.044.385,1.9-1.567.317-.385-1.9Zm372.506.621,1.566.321-.39,1.9-1.566-.321Zm-371.966,2.045.385,1.9-1.567.317-.385-1.9Zm371.42.62,1.566.321-.39,1.9-1.566-.321ZM165.154,296.5l.385,1.9-1.567.317-.385-1.9Zm370.335.618,1.566.321-.39,1.9-1.566-.321Zm-369.8,2.048.385,1.9-1.567.317-.385-1.9Zm369.25.617,1.566.321-.39,1.9-1.566-.321Zm-368.71,2.049.385,1.9-1.567.317-.385-1.9Zm368.164.616,1.566.321-.39,1.9-1.566-.321ZM166.772,304.5l.385,1.9-1.567.317-.385-1.9Zm367.079.615,1.566.321-.39,1.9-1.566-.321Zm-366.54,2.051.385,1.9-1.567.317-.385-1.9Zm365.994.613,1.566.321-.39,1.9-1.566-.321Zm-365.454,2.053.385,1.9-1.567.317-.385-1.9Zm364.908.612,1.566.321-.39,1.9-1.566-.321Zm-364.369,2.054.385,1.9-1.567.317-.385-1.9Zm363.823.611,1.566.321-.39,1.9-1.566-.321ZM168.93,315.161l.385,1.9-1.567.317-.385-1.9Zm362.738.609,1.566.321-.39,1.9-1.566-.321Zm-362.2,2.057.385,1.9-1.567.317-.385-1.9Zm361.652.608,1.566.321-.39,1.9-1.566-.321Zm-361.113,2.058.385,1.9-1.567.317-.385-1.9Zm360.567.607,1.566.321-.39,1.9L530.186,323Zm-360.027,2.059.385,1.9-1.567.317-.385-1.9Zm359.482.605,1.566.321-.39,1.9-1.566-.321Zm-358.942,2.061.385,1.9-1.567.317-.385-1.9Zm358.4.6,1.566.321-.39,1.9-1.566-.321Zm-357.857,2.062.385,1.9-1.567.317-.385-1.9Zm357.311.6,1.566.321-.39,1.9L528.549,331Zm-356.771,2.063.385,1.9-1.567.317-.385-1.9Zm356.226.6,1.566.321-.39,1.9L528,333.661Zm-355.686,2.064.385,1.9-1.567.317-.385-1.9Zm355.14.6,1.566.321-.39,1.9-1.566-.321Zm-354.6,2.066.385,1.9-1.567.317-.385-1.9Zm354.055.6,1.566.321-.39,1.9-1.566-.321Zm-353.515,2.067.385,1.9-1.567.317-.385-1.9Zm352.97.6,1.566.321-.39,1.9-1.566-.321Zm-352.43,2.068.385,1.9-1.567.317-.385-1.9Zm351.884.6,1.566.321-.39,1.9-1.566-.321Zm-351.345,2.07.385,1.9-1.567.317-.385-1.9Zm350.8.6,1.566.321-.39,1.9-1.566-.321ZM175.4,347.153l.385,1.9-1.567.317-.385-1.9Zm349.714.594,1.566.321-.39,1.9-1.566-.321Zm-349.174,2.072.385,1.9-1.567.317-.385-1.9Zm348.628.592,1.566.321-.39,1.9-1.566-.321Zm-348.089,2.073.385,1.9-1.567.317-.385-1.9Zm347.543.591,1.566.321-.39,1.9-1.566-.321Zm-347,2.075.385,1.9-1.567.317-.385-1.9Zm346.458.59,1.566.321-.39,1.9-1.566-.321Zm-345.918,2.076.385,1.9-1.567.317-.385-1.9Zm345.372.589,1.566.321-.39,1.9-1.566-.321ZM178.1,360.483l.385,1.9-1.567.317-.385-1.9Zm344.287.587,1.566.321-.39,1.9L522,362.973Zm-343.747,2.079.385,1.9-1.567.317-.385-1.9Zm343.2.586,1.566.321-.39,1.9-1.566-.321Zm-342.662,2.08.385,1.9-1.567.317-.385-1.9ZM521.3,366.4l1.566.321-.39,1.9-1.566-.321ZM179.72,368.481l.385,1.9-1.567.317-.385-1.9Zm341.031.583,1.566.321-.39,1.9-1.566-.321ZM180.26,371.147l.385,1.9-1.567.317-.385-1.9Zm339.946.582,1.566.321-.39,1.9-1.566-.321ZM180.8,373.813l.385,1.9-1.567.317-.385-1.9Zm338.86.581,1.566.321-.39,1.9-1.566-.321Zm-338.321,2.085.385,1.9-1.567.317-.385-1.9Zm337.775.58,1.566.321-.39,1.9-1.566-.321Zm-337.235,2.086.385,1.9-1.567.317-.385-1.9Zm336.69.578,1.566.321-.39,1.9-1.566-.321Zm-336.15,2.088.385,1.9-1.567.317-.385-1.9Zm335.6.577,1.566.321-.39,1.9-1.566-.321Zm-335.065,2.089.385,1.9-1.567.317-.385-1.9Zm334.519.576,1.566.321-.39,1.9-1.566-.321ZM183.5,387.143l.385,1.9-1.567.317-.385-1.9Zm333.433.574,1.566.321-.39,1.9-1.566-.321Zm-332.894,2.092.385,1.9-1.567.317-.385-1.9Zm332.348.573,1.566.321-.39,1.9-1.566-.321Zm-331.809,2.093.385,1.9-1.567.317-.385-1.9Zm331.263.572,1.566.321-.39,1.9-1.566-.321Zm-330.723,2.094.385,1.9-1.567.317-.385-1.9Zm330.178.571,1.566.321-.39,1.9-1.566-.321Zm-329.638,2.1.385,1.9-1.567.317-.385-1.9Zm329.092.569,1.566.321-.39,1.9-1.566-.321Zm-328.553,2.1.385,1.9-1.567.317-.385-1.9Zm328.007.568,1.566.321-.39,1.9-1.566-.321Zm-327.467,2.1.385,1.9-1.567.317-.385-1.9Zm326.922.567,1.566.321-.39,1.9-1.566-.321Zm-326.382,2.1.385,1.9-1.567.317-.385-1.9Zm325.836.565,1.566.321-.39,1.9-1.566-.321Zm-325.3,2.1.385,1.9-1.567.317-.385-1.9Zm324.751.564,1.566.321-.39,1.9-1.566-.321Zm-324.211,2.1.385,1.9-1.567.317-.385-1.9Zm323.665.563,1.566.321-.39,1.9-1.566-.321Zm-323.126,2.1.385,1.9-1.567.317-.385-1.9Zm322.58.561,1.566.321-.39,1.9-1.566-.321Zm-322.041,2.1.385,1.9-1.567.317-.385-1.9Zm321.495.56,1.566.321-.39,1.9-1.566-.321Zm-320.955,2.106.385,1.9-1.567.317-.385-1.9Zm320.41.559,1.566.321-.39,1.9-1.566-.321ZM190.51,421.8l.385,1.9-1.567.317-.385-1.9Zm319.324.558,1.566.321-.39,1.9-1.566-.321Zm-318.785,2.108.385,1.9-1.567.317-.385-1.9Zm318.239.556,1.566.321-.39,1.9-1.566-.321Zm-317.7,2.11.385,1.9-1.567.317-.385-1.9Zm317.154.555,1.566.321-.39,1.9-1.566-.321ZM192.128,429.8l.385,1.9-1.567.317-.385-1.9Zm316.068.554,1.566.321-.39,1.9-1.566-.321Zm-315.529,2.112.385,1.9-1.567.317-.385-1.9Zm314.983.553,1.566.321-.39,1.9-1.566-.321ZM193.207,435.13l.385,1.9-1.567.317-.385-1.9Zm313.9.551,1.566.321-.39,1.9-1.566-.321ZM193.747,437.8l.385,1.9-1.567.317-.385-1.9Zm312.812.55,1.566.321-.39,1.9-1.566-.321Zm-312.273,2.116.385,1.9-1.567.317-.385-1.9Zm311.727.549,1.566.321-.39,1.9-1.566-.321Zm-311.187,2.117.385,1.9-1.567.317-.385-1.9Zm310.642.547,1.566.321-.39,1.9-1.566-.321Zm-310.1,2.119.385,1.9-1.567.317-.385-1.9Zm309.556.546,1.566.321-.39,1.9-1.566-.321ZM195.9,448.461l.385,1.9-1.567.317-.385-1.9Zm308.471.545,1.566.321-.39,1.9-1.566-.321Zm-307.931,2.121.385,1.9-1.567.317-.385-1.9Zm307.386.543,1.566.321-.39,1.9-1.566-.321Zm-306.846,2.123.385,1.9-1.567.317-.385-1.9Zm306.3.542,1.566.321-.39,1.9-1.566-.321Zm-305.761,2.124.385,1.9-1.567.317-.385-1.9ZM502.738,457l1.566.321-.39,1.9-1.566-.321Zm-304.675,2.125.385,1.9-1.567.317-.385-1.9Zm304.13.54,1.566.321-.39,1.9-1.566-.321ZM198.6,461.79l.385,1.9-1.567.317-.385-1.9Zm303.044.538,1.566.321-.39,1.9-1.566-.321Zm-302.5,2.128.3,1.5h1.823v1.6h-1.943V466.4l-1.365.276-.385-1.9Zm301.959.537,1.566.321-.459,2.243h-.957V466.7l-.478-.1Zm-299.055.965h1.943v1.6h-1.943Zm2.72,0h1.943v1.6h-1.943Zm2.72,0h1.943v1.6h-1.943Zm2.72,0h1.943v1.6h-1.943Zm2.72,0h1.943v1.6h-1.943Zm2.72,0h1.943v1.6h-1.943Zm2.72,0h1.943v1.6h-1.943Zm2.72,0h1.943v1.6h-1.943Zm2.72,0h1.943v1.6h-1.943Zm2.72,0h1.943v1.6h-1.943Zm2.72,0h1.943v1.6h-1.943Zm2.72,0h1.943v1.6h-1.943Zm2.72,0h1.943v1.6h-1.943Zm2.72,0h1.943v1.6h-1.943Zm2.72,0h1.943v1.6h-1.943Zm2.72,0h1.943v1.6h-1.943Zm2.72,0h1.943v1.6h-1.943Zm2.72,0h1.943v1.6h-1.943Zm2.72,0h1.943v1.6h-1.943Zm2.72,0h1.943v1.6h-1.943Zm2.72,0h1.943v1.6h-1.943Zm2.72,0h1.943v1.6h-1.943Zm2.72,0h1.943v1.6h-1.943Zm2.72,0h1.943v1.6h-1.943Zm2.72,0h1.943v1.6h-1.943Zm2.72,0h1.943v1.6h-1.943Zm2.72,0h1.943v1.6h-1.943Zm2.72,0h1.943v1.6h-1.943Zm2.72,0h1.943v1.6h-1.943Zm2.72,0h1.943v1.6h-1.943Zm2.72,0h1.943v1.6h-1.943Zm2.72,0h1.943v1.6h-1.943Zm2.72,0h1.943v1.6h-1.943Zm2.72,0h1.943v1.6h-1.943Zm2.72,0h1.943v1.6h-1.943Zm2.72,0h1.943v1.6h-1.943Zm2.72,0h1.943v1.6h-1.943Zm2.72,0h1.943v1.6h-1.943Zm2.72,0h1.943v1.6h-1.943Zm2.72,0h1.943v1.6h-1.943Zm2.72,0h1.943v1.6h-1.943Zm2.72,0h1.943v1.6h-1.943Zm2.72,0h1.943v1.6h-1.943Zm2.72,0h1.943v1.6h-1.943Zm2.72,0h1.943v1.6h-1.943Zm2.72,0h1.943v1.6h-1.943Zm2.72,0h1.943v1.6h-1.943Zm2.72,0h1.943v1.6h-1.943Zm2.72,0h1.943v1.6h-1.943Zm2.72,0h1.943v1.6h-1.943Zm2.72,0h1.943v1.6h-1.943Zm2.72,0h1.943v1.6h-1.943Zm2.72,0h1.943v1.6h-1.943Zm2.72,0h1.943v1.6h-1.943Zm2.72,0h1.943v1.6h-1.943Zm2.72,0h1.943v1.6h-1.943Zm2.72,0h1.943v1.6h-1.943Zm2.72,0h1.943v1.6h-1.943Zm2.72,0h1.943v1.6h-1.943Zm2.72,0h1.943v1.6h-1.943Zm2.72,0h1.943v1.6h-1.943Zm2.72,0h1.943v1.6h-1.943Zm2.72,0h1.943v1.6h-1.943Zm2.72,0h1.943v1.6h-1.943Zm2.72,0h1.943v1.6h-1.943Zm2.72,0h1.943v1.6h-1.943Zm2.72,0h1.943v1.6h-1.943Zm2.72,0h1.943v1.6h-1.943Zm2.72,0h1.943v1.6h-1.943Zm2.72,0h1.943v1.6h-1.943Zm2.72,0h1.943v1.6h-1.943Zm2.72,0h1.943v1.6h-1.943Zm2.72,0h1.943v1.6h-1.943Zm2.72,0h1.943v1.6h-1.943Zm2.72,0h1.943v1.6h-1.943Zm2.72,0h1.943v1.6h-1.943Zm2.72,0h1.943v1.6h-1.943Zm2.72,0h1.943v1.6h-1.943Zm2.72,0h1.943v1.6h-1.943Zm2.72,0h1.943v1.6h-1.943Zm2.72,0h1.943v1.6h-1.943Zm2.72,0h1.943v1.6h-1.943Zm2.72,0h1.943v1.6h-1.943Zm2.72,0h1.943v1.6h-1.943Zm2.72,0h1.943v1.6h-1.943Zm2.72,0h1.943v1.6h-1.943Zm2.72,0h1.943v1.6h-1.943Zm2.72,0h1.943v1.6h-1.943Zm2.72,0h1.943v1.6h-1.943Zm2.72,0h1.943v1.6h-1.943Zm2.72,0h1.943v1.6h-1.943Zm2.72,0h1.943v1.6h-1.943Zm2.72,0h1.943v1.6h-1.943Zm2.72,0h1.943v1.6h-1.943Zm2.72,0h1.943v1.6h-1.943Zm2.72,0h1.943v1.6h-1.943Zm2.72,0h1.943v1.6h-1.943Zm2.72,0h1.943v1.6h-1.943Zm2.72,0h1.943v1.6h-1.943Zm2.72,0h1.943v1.6H471.33Zm2.72,0h1.943v1.6H474.05Zm2.72,0h1.943v1.6H476.77Zm2.72,0h1.943v1.6H479.49Zm2.72,0h1.943v1.6H482.21Zm2.72,0h1.943v1.6H484.93Zm2.72,0h1.943v1.6H487.65Zm2.72,0h1.943v1.6H490.37Zm2.72,0h1.943v1.6H493.09Zm2.72,0h1.943v1.6H495.81Zm2.72,0h1.943v1.6H498.53Z" transform="translate(762.162 7826.198)" fill="#9d9d9c"/>
    <path id="Lnea_1896" data-name="Lnea 1896" d="M-.114,36l-.455-1.532,1.862-.553.455,1.532Zm2.607-.774L2.038,33.69,3.9,33.137l.455,1.532ZM5.1,34.448l-.455-1.532,1.862-.553.455,1.532Zm2.607-.774-.455-1.532,1.862-.553.455,1.532Zm2.607-.774-.455-1.532,1.862-.553.455,1.532Zm2.607-.774-.455-1.532,1.862-.553.455,1.532Zm2.607-.774-.455-1.532,1.862-.553.455,1.532Zm2.607-.774-.455-1.532,1.862-.553L20,30.023Zm2.607-.774-.455-1.532,1.862-.553.455,1.532Zm2.607-.774L22.9,27.495l1.862-.553.455,1.532Zm2.607-.774-.455-1.532,1.862-.553.455,1.532Zm2.607-.774-.455-1.532,1.862-.553.455,1.532Zm2.607-.774-.455-1.532,1.862-.553.455,1.532Zm2.607-.774L33.328,24.4l1.862-.553.455,1.532Zm2.607-.774-.455-1.532L37.8,23.07l.455,1.532ZM39,24.381l-.455-1.532,1.862-.553.455,1.532Zm2.607-.774-.455-1.532,1.862-.553.455,1.532Zm2.607-.774L43.758,21.3l1.862-.553.455,1.532Zm2.607-.774-.455-1.532,1.862-.553.455,1.532Zm2.607-.774-.455-1.532,1.862-.553.455,1.532Zm2.607-.774-.455-1.532,1.862-.553.455,1.532Zm2.607-.774L54.188,18.2l1.862-.553.455,1.532Zm2.607-.774L56.8,17.428l1.862-.553.455,1.532Zm2.607-.774L59.4,16.654l1.862-.553.455,1.532Zm2.607-.774-.455-1.532,1.862-.553.455,1.532Zm2.607-.774L64.618,15.1l1.862-.553.455,1.532Zm2.607-.774-.455-1.532,1.862-.553.455,1.532Zm2.607-.774-.455-1.532L71.695,13l.455,1.532Zm2.607-.774-.455-1.532,1.862-.553.455,1.532ZM75.5,13.54l-.455-1.532,1.862-.553.455,1.532Zm2.607-.774-.455-1.532,1.862-.553.455,1.532Zm2.607-.774-.455-1.532,1.862-.553.455,1.532Zm2.607-.774L82.87,9.684l1.862-.553.455,1.532Zm2.607-.774L85.478,8.91l1.862-.553.455,1.532Zm2.607-.774-.455-1.532,1.862-.553L90.4,9.115Zm2.607-.774-.455-1.532,1.862-.553.455,1.532Zm2.607-.774L93.3,6.587l1.862-.553.455,1.532Zm2.607-.774-.455-1.532,1.862-.553.455,1.532Zm2.607-.774-.455-1.532,1.862-.553.455,1.532Zm2.607-.774-.455-1.532,1.862-.553.455,1.532Zm2.607-.774-.455-1.532,1.862-.553.455,1.532Zm2.607-.774-.455-1.532,1.862-.553.455,1.532Zm2.607-.774-.455-1.532,1.862-.553.455,1.532Zm2.607-.774-.455-1.532,1.862-.553.455,1.532Zm2.607-.774L114.16.392l1.862-.553.455,1.532Zm2.607-.774-.455-1.532,1.862-.553L119.085.6ZM119.83.376l-.455-1.532,1.862-.553.455,1.532Z" transform="translate(924.807 7914.464)" fill="#9d9d9c"/>
    <path id="Lnea_1897" data-name="Lnea 1897" d="M121.5,36.631l-1.86-.562.116-.383,1.86.562Zm-2.6-.786-1.86-.562.116-.383,1.86.562Zm-2.6-.786-1.86-.562.116-.383,1.86.562Zm-2.6-.786-1.86-.562.116-.383,1.86.562Zm-2.6-.786-1.86-.562.116-.383,1.86.562Zm-2.6-.786-1.86-.562.116-.383,1.86.562Zm-2.6-.786-1.86-.562.116-.383,1.86.562Zm-2.6-.786-1.86-.562.116-.383,1.86.562Zm-2.6-.786-1.86-.562.116-.383,1.86.562Zm-2.6-.786-1.86-.562.116-.383,1.86.562Zm-2.6-.786-1.86-.562.116-.383,1.86.562Zm-2.6-.786-1.86-.562.116-.383,1.86.562Zm-2.6-.786-1.86-.562.116-.383,1.86.562Zm-2.6-.786-1.86-.562.116-.383,1.86.562Zm-2.6-.786-1.86-.562.116-.383,1.86.562Zm-2.6-.786-1.86-.562.116-.383,1.86.562Zm-2.6-.786-1.86-.562.116-.383,1.86.562Zm-2.6-.786L75.37,22.7l.116-.383,1.86.562Zm-2.6-.786-1.86-.562.116-.383,1.86.562Zm-2.6-.786-1.86-.562.116-.383,1.86.562Zm-2.6-.786-1.86-.562.116-.383,1.86.562Zm-2.6-.786-1.86-.562.116-.383,1.86.562Zm-2.6-.786-1.86-.562.116-.383,1.86.562Zm-2.6-.786-1.86-.562.116-.383,1.86.562ZM59,17.762l-1.86-.562.116-.383,1.86.562Zm-2.6-.786-1.86-.562.116-.383,1.86.562Zm-2.6-.786-1.86-.562.116-.383,1.86.562Zm-2.6-.786-1.86-.562.116-.383,1.86.562Zm-2.6-.786-1.86-.562.116-.383,1.86.562Zm-2.6-.786-1.86-.562.116-.383,1.86.562Zm-2.6-.786-1.86-.562.116-.383,1.86.562Zm-2.6-.786-1.86-.562.116-.383,1.86.562Zm-2.6-.786-1.86-.562.116-.383,1.86.562Zm-2.6-.786-1.86-.562.116-.383,1.86.562Zm-2.6-.786L31.1,9.338l.116-.383,1.86.562Zm-2.6-.786L28.5,8.552l.116-.383,1.86.562Zm-2.6-.786-1.86-.562.116-.383,1.86.562Zm-2.6-.786-1.86-.562.116-.383,1.86.562Zm-2.6-.786-1.86-.562.116-.383,1.86.562Zm-2.6-.786-1.86-.562.116-.383,1.86.562Zm-2.6-.786-1.86-.562.116-.383,1.86.562Zm-2.6-.786-1.86-.562.116-.383,1.86.562Zm-2.6-.786-1.86-.562.116-.383,1.86.562Zm-2.6-.786-1.86-.562.116-.383,1.86.562Zm-2.6-.786-1.86-.562.116-.383,1.86.562Zm-2.6-.786L2.459.69,2.575.308l1.86.562ZM1.715.465-.145-.1l.116-.383,1.86.562Z" transform="translate(1179.512 7914.91)" fill="#9d9d9c"/>
    <path id="Lnea_1898" data-name="Lnea 1898" d="M-.4,101.7H-2v-1.061H-.4Zm0-1.839H-2V97.921H-.4Zm0-2.72H-2V95.2H-.4Zm0-2.72H-2V92.481H-.4Zm0-2.72H-2V89.761H-.4Zm0-2.72H-2V87.041H-.4Zm0-2.72H-2V84.321H-.4Zm0-2.72H-2V81.6H-.4Zm0-2.72H-2V78.881H-.4Zm0-2.72H-2V76.161H-.4Zm0-2.72H-2V73.441H-.4Zm0-2.72H-2V70.721H-.4Zm0-2.72H-2V68H-.4Zm0-2.72H-2V65.281H-.4Zm0-2.72H-2V62.561H-.4Zm0-2.72H-2V59.841H-.4Zm0-2.72H-2V57.121H-.4Zm0-2.72H-2V54.4H-.4Zm0-2.72H-2V51.681H-.4Zm0-2.72H-2V48.961H-.4Zm0-2.72H-2V46.241H-.4Zm0-2.72H-2V43.521H-.4Zm0-2.72H-2V40.8H-.4Zm0-2.72H-2V38.081H-.4Zm0-2.72H-2V35.361H-.4Zm0-2.72H-2V32.64H-.4Zm0-2.72H-2V29.92H-.4Zm0-2.72H-2V27.2H-.4Zm0-2.72H-2V24.48H-.4Zm0-2.72H-2V21.76H-.4Zm0-2.72H-2V19.04H-.4Zm0-2.72H-2V16.32H-.4Zm0-2.72H-2V13.6H-.4Zm0-2.72H-2V10.88H-.4Zm0-2.72H-2V8.16H-.4Zm0-2.72H-2V5.44H-.4Zm0-2.72H-2V2.72H-.4Zm0-2.72H-2V0H-.4Z" transform="translate(1096.217 7961.679)" fill="#9d9d9c"/>
    <path id="Lnea_1899" data-name="Lnea 1899" d="M82.363-.3H0V-1.5H82.363Z" transform="translate(893.604 7928.331)"/>
    <path id="Lnea_1900" data-name="Lnea 1900" d="M82.363-.3H0V-1.5H82.363Z" transform="translate(1246.463 7928.331)"/>
    <path id="Lnea_1901" data-name="Lnea 1901" d="M10.816-.2H-.6A.4.4,0,0,1-1-.6.4.4,0,0,1-.6-1H10.816a.4.4,0,0,1,.4.4A.4.4,0,0,1,10.816-.2Z" transform="translate(1134.622 8034.165)"/>
    <path id="Trazado_901157" data-name="Trazado 901157" d="M682.035,419.044v6.646l-5-3.18Z" transform="translate(451.986 7611.288)"/>
    <path id="Lnea_1902" data-name="Lnea 1902" d="M10.816-.2H-.6A.4.4,0,0,1-1-.6.4.4,0,0,1-.6-1H10.816a.4.4,0,0,1,.4.4A.4.4,0,0,1,10.816-.2Z" transform="translate(1134.622 7972.393)"/>
    <path id="Trazado_901158" data-name="Trazado 901158" d="M682.035,264.479v6.646l-5-3.18Z" transform="translate(451.986 7704.081)"/>
    <path id="Lnea_1903" data-name="Lnea 1903" d="M-.6,87.376a.4.4,0,0,1-.4-.4V-.6A.4.4,0,0,1-.6-1a.4.4,0,0,1,.4.4V86.977A.4.4,0,0,1-.6,87.376Z" transform="translate(1088.333 7966.085)"/>
    <path id="Trazado_901159" data-name="Trazado 901159" d="M565.644,474.15h6.646l-3.18,5Z" transform="translate(518.857 7578.206)"/>
    <path id="Lnea_1904" data-name="Lnea 1904" d="M10.816-.2H-.6A.4.4,0,0,1-1-.6.4.4,0,0,1-.6-1H10.816a.4.4,0,0,1,.4.4A.4.4,0,0,1,10.816-.2Z" transform="translate(1312.432 8085.668)"/>
    <path id="Trazado_901160" data-name="Trazado 901160" d="M1163.031,547.914v6.646l5-3.18Z" transform="translate(160.217 7533.922)"/>
    <path id="Lnea_1905" data-name="Lnea 1905" d="M-.6,8A.4.4,0,0,1-1,7.6V-.6A.4.4,0,0,1-.6-1a.4.4,0,0,1,.4.4V7.6A.4.4,0,0,1-.6,8Z" transform="translate(1333.349 8095.051)"/>
    <path id="Trazado_901161" data-name="Trazado 901161" d="M1184.906,599.99h-6.646l3.18,5Z" transform="translate(151.075 7502.658)"/>
    <path id="Lnea_1906" data-name="Lnea 1906" d="M10.816-.2H-.6A.4.4,0,0,1-1-.6.4.4,0,0,1-.6-1H10.816a.4.4,0,0,1,.4.4A.4.4,0,0,1,10.816-.2Z" transform="translate(901.913 8085.668)"/>
    <path id="Trazado_901162" data-name="Trazado 901162" d="M99.758,554.561v-6.646l-5,3.18Z" transform="translate(801.554 7533.921)"/>
    <path id="Lnea_1907" data-name="Lnea 1907" d="M-.6,8A.4.4,0,0,1-1,7.6V-.6A.4.4,0,0,1-.6-1a.4.4,0,0,1,.4.4V7.6A.4.4,0,0,1-.6,8Z" transform="translate(895.716 8095.051)"/>
    <path id="Trazado_901163" data-name="Trazado 901163" d="M89.873,599.99H83.227l3.18,5Z" transform="translate(808.474 7502.658)"/>
    <path id="Lnea_1908" data-name="Lnea 1908" d="M-.6,7.2A.4.4,0,0,1-1,6.8V-.6A.4.4,0,0,1-.6-1a.4.4,0,0,1,.4.4V6.8A.4.4,0,0,1-.6,7.2Z" transform="translate(1113.966 7933.035)"/>
    <path id="Trazado_901164" data-name="Trazado 901164" d="M635.971,192.609h-6.646l3.18,5Z" transform="translate(480.626 7747.228)"/>
    <path id="Lnea_1909" data-name="Lnea 1909" d="M-.6,6.328a.4.4,0,0,1-.4-.4V-.6A.4.4,0,0,1-.6-1a.4.4,0,0,1,.4.4V5.929A.4.4,0,0,1-.6,6.328Z" transform="translate(952.445 7931.002)"/>
    <path id="Trazado_901165" data-name="Trazado 901165" d="M231.819,185.338h-6.646l3.18,5Z" transform="translate(723.258 7751.593)"/>
    <path id="Lnea_1910" data-name="Lnea 1910" d="M12.034-.2H-.6A.4.4,0,0,1-1-.6.4.4,0,0,1-.6-1H12.034a.4.4,0,0,1,.4.4A.4.4,0,0,1,12.034-.2Z" transform="translate(932.03 7915.298)"/>
    <path id="Trazado_901166" data-name="Trazado 901166" d="M175.117,127.811v-6.646l-5,3.18Z" transform="translate(756.313 7790.12)"/>
    <path id="Trazado_904248" data-name="Trazado 904248" d="M0,0H512.116V715.675H0Z" transform="translate(858.439 7862.859)" fill="none"/>
    <path id="Trazado_904241" data-name="Trazado 904241" d="M1.333-2.8h.475a1.044,1.044,0,0,0,.7-.236.788.788,0,0,0,.256-.619A.772.772,0,0,0,1.9-4.525a.907.907,0,0,0-.655.234A.819.819,0,0,0,1-3.671H.366A1.269,1.269,0,0,1,.8-4.654a1.575,1.575,0,0,1,1.1-.391A1.556,1.556,0,0,1,3-4.672a1.346,1.346,0,0,1,.4,1.036,1.092,1.092,0,0,1-.21.629,1.269,1.269,0,0,1-.573.455,1.223,1.223,0,0,1,.634.431,1.2,1.2,0,0,1,.224.735A1.358,1.358,0,0,1,3.039-.325,1.638,1.638,0,0,1,1.9.068,1.682,1.682,0,0,1,.76-.311a1.259,1.259,0,0,1-.439-1H.957a.813.813,0,0,0,.256.629A.975.975,0,0,0,1.9-.448a.957.957,0,0,0,.7-.239.922.922,0,0,0,.243-.687.837.837,0,0,0-.267-.667,1.162,1.162,0,0,0-.769-.239H1.333ZM7.625-.448a.911.911,0,0,0,.591-.205.721.721,0,0,0,.28-.513h.6a1.147,1.147,0,0,1-.219.6A1.441,1.441,0,0,1,8.338-.1a1.553,1.553,0,0,1-.713.171,1.523,1.523,0,0,1-1.2-.5,2.008,2.008,0,0,1-.446-1.379v-.106a2.226,2.226,0,0,1,.2-.96,1.51,1.51,0,0,1,.569-.653,1.617,1.617,0,0,1,.877-.232,1.483,1.483,0,0,1,1.034.373,1.331,1.331,0,0,1,.439.967H8.5a.871.871,0,0,0-.272-.59.845.845,0,0,0-.6-.231.885.885,0,0,0-.747.347,1.629,1.629,0,0,0-.265,1v.12a1.6,1.6,0,0,0,.263.984A.889.889,0,0,0,7.625-.448ZM10.4-3.7l.017.41a1.366,1.366,0,0,1,1.1-.479,1.057,1.057,0,0,1,1.056.595,1.4,1.4,0,0,1,.48-.431,1.418,1.418,0,0,1,.7-.164q1.217,0,1.237,1.289V0h-.632V-2.44a.849.849,0,0,0-.181-.593.8.8,0,0,0-.608-.2.838.838,0,0,0-.584.21.853.853,0,0,0-.27.566V0h-.636V-2.423a.706.706,0,0,0-.79-.807.846.846,0,0,0-.851.53V0H9.8V-3.7Z" transform="translate(1009.968 7912.008)"/>
    <path id="Trazado_904242" data-name="Trazado 904242" d="M1.333-2.8h.475a1.044,1.044,0,0,0,.7-.236.788.788,0,0,0,.256-.619A.772.772,0,0,0,1.9-4.525a.907.907,0,0,0-.655.234A.819.819,0,0,0,1-3.671H.366A1.269,1.269,0,0,1,.8-4.654a1.575,1.575,0,0,1,1.1-.391A1.556,1.556,0,0,1,3-4.672a1.346,1.346,0,0,1,.4,1.036,1.092,1.092,0,0,1-.21.629,1.269,1.269,0,0,1-.573.455,1.223,1.223,0,0,1,.634.431,1.2,1.2,0,0,1,.224.735A1.358,1.358,0,0,1,3.039-.325,1.638,1.638,0,0,1,1.9.068,1.682,1.682,0,0,1,.76-.311a1.259,1.259,0,0,1-.439-1H.957a.813.813,0,0,0,.256.629A.975.975,0,0,0,1.9-.448a.957.957,0,0,0,.7-.239.922.922,0,0,0,.243-.687.837.837,0,0,0-.267-.667,1.162,1.162,0,0,0-.769-.239H1.333ZM7.625-.448a.911.911,0,0,0,.591-.205.721.721,0,0,0,.28-.513h.6a1.147,1.147,0,0,1-.219.6A1.441,1.441,0,0,1,8.338-.1a1.553,1.553,0,0,1-.713.171,1.523,1.523,0,0,1-1.2-.5,2.008,2.008,0,0,1-.446-1.379v-.106a2.226,2.226,0,0,1,.2-.96,1.51,1.51,0,0,1,.569-.653,1.617,1.617,0,0,1,.877-.232,1.483,1.483,0,0,1,1.034.373,1.331,1.331,0,0,1,.439.967H8.5a.871.871,0,0,0-.272-.59.845.845,0,0,0-.6-.231.885.885,0,0,0-.747.347,1.629,1.629,0,0,0-.265,1v.12a1.6,1.6,0,0,0,.263.984A.889.889,0,0,0,7.625-.448ZM10.4-3.7l.017.41a1.366,1.366,0,0,1,1.1-.479,1.057,1.057,0,0,1,1.056.595,1.4,1.4,0,0,1,.48-.431,1.418,1.418,0,0,1,.7-.164q1.217,0,1.237,1.289V0h-.632V-2.44a.849.849,0,0,0-.181-.593.8.8,0,0,0-.608-.2.838.838,0,0,0-.584.21.853.853,0,0,0-.27.566V0h-.636V-2.423a.706.706,0,0,0-.79-.807.846.846,0,0,0-.851.53V0H9.8V-3.7Z" transform="translate(1135.728 7934.741)"/>
    <path id="Trazado_904243" data-name="Trazado 904243" d="M1.333-2.8h.475a1.044,1.044,0,0,0,.7-.236.788.788,0,0,0,.256-.619A.772.772,0,0,0,1.9-4.525a.907.907,0,0,0-.655.234A.819.819,0,0,0,1-3.671H.366A1.269,1.269,0,0,1,.8-4.654a1.575,1.575,0,0,1,1.1-.391A1.556,1.556,0,0,1,3-4.672a1.346,1.346,0,0,1,.4,1.036,1.092,1.092,0,0,1-.21.629,1.269,1.269,0,0,1-.573.455,1.223,1.223,0,0,1,.634.431,1.2,1.2,0,0,1,.224.735A1.358,1.358,0,0,1,3.039-.325,1.638,1.638,0,0,1,1.9.068,1.682,1.682,0,0,1,.76-.311a1.259,1.259,0,0,1-.439-1H.957a.813.813,0,0,0,.256.629A.975.975,0,0,0,1.9-.448a.957.957,0,0,0,.7-.239.922.922,0,0,0,.243-.687.837.837,0,0,0-.267-.667,1.162,1.162,0,0,0-.769-.239H1.333ZM7.625-.448a.911.911,0,0,0,.591-.205.721.721,0,0,0,.28-.513h.6a1.147,1.147,0,0,1-.219.6A1.441,1.441,0,0,1,8.338-.1a1.553,1.553,0,0,1-.713.171,1.523,1.523,0,0,1-1.2-.5,2.008,2.008,0,0,1-.446-1.379v-.106a2.226,2.226,0,0,1,.2-.96,1.51,1.51,0,0,1,.569-.653,1.617,1.617,0,0,1,.877-.232,1.483,1.483,0,0,1,1.034.373,1.331,1.331,0,0,1,.439.967H8.5a.871.871,0,0,0-.272-.59.845.845,0,0,0-.6-.231.885.885,0,0,0-.747.347,1.629,1.629,0,0,0-.265,1v.12a1.6,1.6,0,0,0,.263.984A.889.889,0,0,0,7.625-.448ZM10.4-3.7l.017.41a1.366,1.366,0,0,1,1.1-.479,1.057,1.057,0,0,1,1.056.595,1.4,1.4,0,0,1,.48-.431,1.418,1.418,0,0,1,.7-.164q1.217,0,1.237,1.289V0h-.632V-2.44a.849.849,0,0,0-.181-.593.8.8,0,0,0-.608-.2.838.838,0,0,0-.584.21.853.853,0,0,0-.27.566V0h-.636V-2.423a.706.706,0,0,0-.79-.807.846.846,0,0,0-.851.53V0H9.8V-3.7Z" transform="translate(1190.62 7912.008)"/>
    <path id="Trazado_904244" data-name="Trazado 904244" d="M2.848,0H2.121V-4.816L.664-4.281v-.656l2.07-.777h.113ZM5.055-.379a.453.453,0,0,1,.111-.312A.424.424,0,0,1,5.5-.816a.437.437,0,0,1,.338.125.443.443,0,0,1,.115.313.419.419,0,0,1-.115.3A.445.445,0,0,1,5.5.043a.432.432,0,0,1-.334-.121A.428.428,0,0,1,5.055-.379ZM7.4-2.852l.289-2.836h2.914v.668H8.3L8.133-3.469a1.835,1.835,0,0,1,.949-.246,1.569,1.569,0,0,1,1.234.514,2.013,2.013,0,0,1,.457,1.389A1.943,1.943,0,0,1,10.3-.428,1.73,1.73,0,0,1,8.973.078,1.8,1.8,0,0,1,7.742-.34,1.668,1.668,0,0,1,7.2-1.5h.684A1.148,1.148,0,0,0,8.23-.76a1.081,1.081,0,0,0,.742.248.975.975,0,0,0,.791-.344,1.437,1.437,0,0,0,.287-.949,1.319,1.319,0,0,0-.311-.916,1.056,1.056,0,0,0-.826-.346,1.191,1.191,0,0,0-.742.207L7.98-2.7Zm7.91,2.34a1.041,1.041,0,0,0,.676-.234.825.825,0,0,0,.32-.586h.684a1.31,1.31,0,0,1-.25.691,1.647,1.647,0,0,1-.615.523,1.775,1.775,0,0,1-.814.2A1.741,1.741,0,0,1,13.939-.5a2.3,2.3,0,0,1-.51-1.576V-2.2a2.545,2.545,0,0,1,.227-1.1,1.726,1.726,0,0,1,.65-.746,1.848,1.848,0,0,1,1-.266,1.7,1.7,0,0,1,1.182.426,1.522,1.522,0,0,1,.5,1.105h-.684A1,1,0,0,0,16-3.447a.966.966,0,0,0-.689-.264,1.011,1.011,0,0,0-.854.4,1.862,1.862,0,0,0-.3,1.146v.137a1.825,1.825,0,0,0,.3,1.125A1.016,1.016,0,0,0,15.313-.512Zm3.172-3.715.02.469A1.561,1.561,0,0,1,19.758-4.3a1.208,1.208,0,0,1,1.207.68,1.6,1.6,0,0,1,.549-.492,1.621,1.621,0,0,1,.8-.187q1.391,0,1.414,1.473V0H23V-2.789a.97.97,0,0,0-.207-.678.912.912,0,0,0-.7-.225.958.958,0,0,0-.668.24.975.975,0,0,0-.309.646V0H20.4V-2.77a.806.806,0,0,0-.9-.922.967.967,0,0,0-.973.605V0H17.8V-4.227Z" transform="translate(1101.112 7924.174)"/>
    <path id="Trazado_904249" data-name="Trazado 904249" d="M1.333-2.8h.475a1.044,1.044,0,0,0,.7-.236.788.788,0,0,0,.256-.619A.772.772,0,0,0,1.9-4.525a.907.907,0,0,0-.655.234A.819.819,0,0,0,1-3.671H.366A1.269,1.269,0,0,1,.8-4.654a1.575,1.575,0,0,1,1.1-.391A1.556,1.556,0,0,1,3-4.672a1.346,1.346,0,0,1,.4,1.036,1.092,1.092,0,0,1-.21.629,1.269,1.269,0,0,1-.573.455,1.223,1.223,0,0,1,.634.431,1.2,1.2,0,0,1,.224.735A1.358,1.358,0,0,1,3.039-.325,1.638,1.638,0,0,1,1.9.068,1.682,1.682,0,0,1,.76-.311a1.259,1.259,0,0,1-.439-1H.957a.813.813,0,0,0,.256.629A.975.975,0,0,0,1.9-.448a.957.957,0,0,0,.7-.239.922.922,0,0,0,.243-.687.837.837,0,0,0-.267-.667,1.162,1.162,0,0,0-.769-.239H1.333ZM7.625-.448a.911.911,0,0,0,.591-.205.721.721,0,0,0,.28-.513h.6a1.147,1.147,0,0,1-.219.6A1.441,1.441,0,0,1,8.338-.1a1.553,1.553,0,0,1-.713.171,1.523,1.523,0,0,1-1.2-.5,2.008,2.008,0,0,1-.446-1.379v-.106a2.226,2.226,0,0,1,.2-.96,1.51,1.51,0,0,1,.569-.653,1.617,1.617,0,0,1,.877-.232,1.483,1.483,0,0,1,1.034.373,1.331,1.331,0,0,1,.439.967H8.5a.871.871,0,0,0-.272-.59.845.845,0,0,0-.6-.231.885.885,0,0,0-.747.347,1.629,1.629,0,0,0-.265,1v.12a1.6,1.6,0,0,0,.263.984A.889.889,0,0,0,7.625-.448ZM10.4-3.7l.017.41a1.366,1.366,0,0,1,1.1-.479,1.057,1.057,0,0,1,1.056.595,1.4,1.4,0,0,1,.48-.431,1.418,1.418,0,0,1,.7-.164q1.217,0,1.237,1.289V0h-.632V-2.44a.849.849,0,0,0-.181-.593.8.8,0,0,0-.608-.2.838.838,0,0,0-.584.21.853.853,0,0,0-.27.566V0h-.636V-2.423a.706.706,0,0,0-.79-.807.846.846,0,0,0-.851.53V0H9.8V-3.7Z" transform="translate(1033.654 7868.846)"/>
    <path id="Trazado_904250" data-name="Trazado 904250" d="M1.333-2.8h.475a1.044,1.044,0,0,0,.7-.236.788.788,0,0,0,.256-.619A.772.772,0,0,0,1.9-4.525a.907.907,0,0,0-.655.234A.819.819,0,0,0,1-3.671H.366A1.269,1.269,0,0,1,.8-4.654a1.575,1.575,0,0,1,1.1-.391A1.556,1.556,0,0,1,3-4.672a1.346,1.346,0,0,1,.4,1.036,1.092,1.092,0,0,1-.21.629,1.269,1.269,0,0,1-.573.455,1.223,1.223,0,0,1,.634.431,1.2,1.2,0,0,1,.224.735A1.358,1.358,0,0,1,3.039-.325,1.638,1.638,0,0,1,1.9.068,1.682,1.682,0,0,1,.76-.311a1.259,1.259,0,0,1-.439-1H.957a.813.813,0,0,0,.256.629A.975.975,0,0,0,1.9-.448a.957.957,0,0,0,.7-.239.922.922,0,0,0,.243-.687.837.837,0,0,0-.267-.667,1.162,1.162,0,0,0-.769-.239H1.333ZM7.625-.448a.911.911,0,0,0,.591-.205.721.721,0,0,0,.28-.513h.6a1.147,1.147,0,0,1-.219.6A1.441,1.441,0,0,1,8.338-.1a1.553,1.553,0,0,1-.713.171,1.523,1.523,0,0,1-1.2-.5,2.008,2.008,0,0,1-.446-1.379v-.106a2.226,2.226,0,0,1,.2-.96,1.51,1.51,0,0,1,.569-.653,1.617,1.617,0,0,1,.877-.232,1.483,1.483,0,0,1,1.034.373,1.331,1.331,0,0,1,.439.967H8.5a.871.871,0,0,0-.272-.59.845.845,0,0,0-.6-.231.885.885,0,0,0-.747.347,1.629,1.629,0,0,0-.265,1v.12a1.6,1.6,0,0,0,.263.984A.889.889,0,0,0,7.625-.448ZM10.4-3.7l.017.41a1.366,1.366,0,0,1,1.1-.479,1.057,1.057,0,0,1,1.056.595,1.4,1.4,0,0,1,.48-.431,1.418,1.418,0,0,1,.7-.164q1.217,0,1.237,1.289V0h-.632V-2.44a.849.849,0,0,0-.181-.593.8.8,0,0,0-.608-.2.838.838,0,0,0-.584.21.853.853,0,0,0-.27.566V0h-.636V-2.423a.706.706,0,0,0-.79-.807.846.846,0,0,0-.851.53V0H9.8V-3.7Z" transform="translate(1177.023 7868.846)"/>
    <path id="Lnea_1911" data-name="Lnea 1911" d="M-.6,6.328a.4.4,0,0,1-.4-.4V-.6A.4.4,0,0,1-.6-1a.4.4,0,0,1,.4.4V5.929A.4.4,0,0,1-.6,6.328Z" transform="translate(1007.337 7908.271)"/>
    <path id="Trazado_901167" data-name="Trazado 901167" d="M369.167,128.461h-6.646l3.18,5Z" transform="translate(640.801 7785.739)"/>
    <path id="Lnea_1912" data-name="Lnea 1912" d="M-.6,2.8a.4.4,0,0,1-.386-.3A.4.4,0,0,1-.7,2.013l11.381-3a.4.4,0,0,1,.488.285.4.4,0,0,1-.285.488L-.5,2.786A.4.4,0,0,1-.6,2.8Z" transform="translate(1044.256 7875.352)"/>
    <path id="Trazado_901168" data-name="Trazado 901168" d="M456.907,35.426,455.212,29l-4.028,4.35Z" transform="translate(587.573 7845.451)"/>
    <path id="Lnea_1913" data-name="Lnea 1913" d="M-.6,6.328a.4.4,0,0,1-.4-.4V-.6A.4.4,0,0,1-.6-1a.4.4,0,0,1,.4.4V5.929A.4.4,0,0,1-.6,6.328Z" transform="translate(1276.501 7931.002)"/>
    <path id="Trazado_901169" data-name="Trazado 901169" d="M1036.472,185.338h6.646l-3.18,5Z" transform="translate(236.197 7751.593)"/>
    <path id="Lnea_1914" data-name="Lnea 1914" d="M12.034-.2H-.6A.4.4,0,0,1-1-.6.4.4,0,0,1-.6-1H12.034a.4.4,0,0,1,.4.4A.4.4,0,0,1,12.034-.2Z" transform="translate(1287.917 7915.963)"/>
    <path id="Trazado_901170" data-name="Trazado 901170" d="M1104.738,129.474v-6.646l5,3.18Z" transform="translate(195.213 7789.121)"/>
    <path id="Lnea_1915" data-name="Lnea 1915" d="M-.6,6.328a.4.4,0,0,1-.4-.4V-.6A.4.4,0,0,1-.6-1a.4.4,0,0,1,.4.4V5.929A.4.4,0,0,1-.6,6.328Z" transform="translate(1216.816 7909.249)"/>
    <path id="Trazado_901171" data-name="Trazado 901171" d="M887.129,130.906h6.646l-3.18,5Z" transform="translate(325.854 7784.271)"/>
    <path id="Lnea_1916" data-name="Lnea 1916" d="M10.93,2.839a.4.4,0,0,1-.1-.013L-.7-.214A.4.4,0,0,1-.987-.7.4.4,0,0,1-.5-.987l11.53,3.039a.4.4,0,0,1-.1.786Z" transform="translate(1177.619 7875.401)"/>
    <path id="Trazado_901172" data-name="Trazado 901172" d="M823.928,35.647l1.694-6.427,4.029,4.35Z" transform="translate(363.797 7845.318)"/>
    <path id="Lnea_1917" data-name="Lnea 1917" d="M17.127-.4H-2V-2H17.127Z" transform="translate(1096.217 8071.62)"/>
    <path id="Lnea_1918" data-name="Lnea 1918" d="M-.4,9.06H-2V-2H-.4Z" transform="translate(1096.217 8067.163)"/>
    <path id="Lnea_1919" data-name="Lnea 1919" d="M-.4,267.724H-2V-2H-.4Z" transform="translate(1113.378 8301.584)"/>
    <path id="Lnea_1920" data-name="Lnea 1920" d="M9.06-.4H-2V-2H9.06Z" transform="translate(1108.374 8301.584)"/>
    <path id="Lnea_1921" data-name="Lnea 1921" d="M9.06-.4H-2V-2H9.06Z" transform="translate(1108.374 8569.709)"/>
    <path id="Lnea_1922" data-name="Lnea 1922" d="M-.4,344.638H-2v-1.913H-.4Zm0-2.69H-2V340H-.4Zm0-2.72H-2v-1.943H-.4Zm0-2.72H-2v-1.943H-.4Zm0-2.72H-2v-1.943H-.4Zm0-2.72H-2v-1.943H-.4Zm0-2.72H-2V326.4H-.4Zm0-2.72H-2v-1.943H-.4Zm0-2.72H-2v-1.943H-.4Zm0-2.72H-2v-1.943H-.4Zm0-2.72H-2v-1.943H-.4Zm0-2.72H-2V312.8H-.4Zm0-2.72H-2v-1.943H-.4Zm0-2.72H-2v-1.943H-.4Zm0-2.72H-2v-1.943H-.4Zm0-2.72H-2v-1.943H-.4Zm0-2.72H-2V299.2H-.4Zm0-2.72H-2v-1.943H-.4Zm0-2.72H-2v-1.943H-.4Zm0-2.72H-2v-1.943H-.4Zm0-2.72H-2v-1.943H-.4Zm0-2.72H-2V285.6H-.4Zm0-2.72H-2v-1.943H-.4Zm0-2.72H-2v-1.943H-.4Zm0-2.72H-2v-1.943H-.4Zm0-2.72H-2v-1.943H-.4Zm0-2.72H-2V272H-.4Zm0-2.72H-2v-1.943H-.4Zm0-2.72H-2v-1.943H-.4Zm0-2.72H-2v-1.943H-.4Zm0-2.72H-2v-1.943H-.4Zm0-2.72H-2V258.4H-.4Zm0-2.72H-2v-1.943H-.4Zm0-2.72H-2v-1.943H-.4Zm0-2.72H-2v-1.943H-.4Zm0-2.72H-2v-1.943H-.4Zm0-2.72H-2V244.8H-.4Zm0-2.72H-2v-1.943H-.4Zm0-2.72H-2v-1.943H-.4Zm0-2.72H-2v-1.943H-.4Zm0-2.72H-2v-1.943H-.4Zm0-2.72H-2V231.2H-.4Zm0-2.72H-2v-1.943H-.4Zm0-2.72H-2v-1.943H-.4Zm0-2.72H-2v-1.943H-.4Zm0-2.72H-2v-1.943H-.4Zm0-2.72H-2V217.6H-.4Zm0-2.72H-2v-1.943H-.4Zm0-2.72H-2v-1.943H-.4Zm0-2.72H-2v-1.943H-.4Zm0-2.72H-2v-1.943H-.4Zm0-2.72H-2V204H-.4Zm0-2.72H-2v-1.943H-.4Zm0-2.72H-2v-1.943H-.4Zm0-2.72H-2v-1.943H-.4Zm0-2.72H-2v-1.943H-.4Zm0-2.72H-2V190.4H-.4Zm0-2.72H-2v-1.943H-.4Zm0-2.72H-2v-1.943H-.4Zm0-2.72H-2v-1.943H-.4Zm0-2.72H-2v-1.943H-.4Zm0-2.72H-2V176.8H-.4Zm0-2.72H-2v-1.943H-.4Zm0-2.72H-2v-1.943H-.4Zm0-2.72H-2v-1.943H-.4Zm0-2.72H-2v-1.943H-.4Zm0-2.72H-2V163.2H-.4Zm0-2.72H-2v-1.943H-.4Zm0-2.72H-2v-1.943H-.4Zm0-2.72H-2v-1.943H-.4Zm0-2.72H-2v-1.943H-.4Zm0-2.72H-2V149.6H-.4Zm0-2.72H-2v-1.943H-.4Zm0-2.72H-2v-1.943H-.4Zm0-2.72H-2v-1.943H-.4Zm0-2.72H-2v-1.943H-.4Zm0-2.72H-2V136H-.4Zm0-2.72H-2v-1.943H-.4Zm0-2.72H-2v-1.943H-.4Zm0-2.72H-2v-1.943H-.4Zm0-2.72H-2v-1.943H-.4Zm0-2.72H-2V122.4H-.4Zm0-2.72H-2v-1.943H-.4Zm0-2.72H-2v-1.943H-.4Zm0-2.72H-2v-1.943H-.4Zm0-2.72H-2v-1.943H-.4Zm0-2.72H-2V108.8H-.4Zm0-2.72H-2v-1.943H-.4Zm0-2.72H-2v-1.943H-.4Zm0-2.72H-2v-1.943H-.4Zm0-2.72H-2V97.921H-.4Zm0-2.72H-2V95.2H-.4Zm0-2.72H-2V92.481H-.4Zm0-2.72H-2V89.761H-.4Zm0-2.72H-2V87.041H-.4Zm0-2.72H-2V84.321H-.4Zm0-2.72H-2V81.6H-.4Zm0-2.72H-2V78.881H-.4Zm0-2.72H-2V76.161H-.4Zm0-2.72H-2V73.441H-.4Zm0-2.72H-2V70.721H-.4Zm0-2.72H-2V68H-.4Zm0-2.72H-2V65.281H-.4Zm0-2.72H-2V62.561H-.4Zm0-2.72H-2V59.841H-.4Zm0-2.72H-2V57.121H-.4Zm0-2.72H-2V54.4H-.4Zm0-2.72H-2V51.681H-.4Zm0-2.72H-2V48.961H-.4Zm0-2.72H-2V46.241H-.4Zm0-2.72H-2V43.521H-.4Zm0-2.72H-2V40.8H-.4Zm0-2.72H-2V38.081H-.4Zm0-2.72H-2V35.36H-.4Zm0-2.72H-2V32.64H-.4Zm0-2.72H-2V29.92H-.4Zm0-2.72H-2V27.2H-.4Zm0-2.72H-2V24.48H-.4Zm0-2.72H-2V21.76H-.4Zm0-2.72H-2V19.04H-.4Zm0-2.72H-2V16.32H-.4Zm0-2.72H-2V13.6H-.4Zm0-2.72H-2V10.88H-.4Zm0-2.72H-2V8.16H-.4Zm0-2.72H-2V5.44H-.4Zm0-2.72H-2V2.72H-.4Zm0-2.72H-2V0H-.4Z" transform="translate(1113.745 7948.319)" fill="#9d9d9c"/>
    <path id="Trazado_904251" data-name="Trazado 904251" d="M0,0H512.116V715.675H0Z" transform="translate(858.439 7862.859)" fill="none"/>
  </g>
</svg>
