<svg xmlns="http://www.w3.org/2000/svg" width="1021.579" height="475.585" viewBox="0 0 1021.579 475.585">
  <g id="Grupo_1114972" data-name="Grupo 1114972" transform="translate(-286.98 -13665.512)">
    <path id="Trazado_901110" data-name="Trazado 901110" d="M-10061.709-4689.2v-324.714l446.37-18.235" transform="translate(10355.76 18752.264)" fill="none" stroke="#000" stroke-width="6"/>
    <path id="Trazado_901111" data-name="Trazado 901111" d="M-9618.908-5029.316c345.8-12.651,467.039-50.6,467.039-50.6s-45.333,286.76-73.8,328.93-475.473,64.311-475.473,64.311l-360.738.043" transform="translate(10355.752 18749.74)" fill="none" stroke="#000" stroke-width="6"/>
    <g id="Trazado_904307" data-name="Trazado 904307" transform="translate(305.326 13857.14)" fill="none">
      <path d="M11.055,0A11.055,11.055,0,1,1,0,11.055,11.055,11.055,0,0,1,11.055,0Z" stroke="none"/>
      <path d="M 11.05469989776611 4 C 7.164730072021484 4 4 7.164730072021484 4 11.05469989776611 C 4 14.94466972351074 7.164730072021484 18.10939979553223 11.05469989776611 18.10939979553223 C 14.94466972351074 18.10939979553223 18.10939979553223 14.94466972351074 18.10939979553223 11.05469989776611 C 18.10939979553223 7.164730072021484 14.94466972351074 4 11.05469989776611 4 M 11.05469989776611 0 C 17.1600399017334 0 22.10939979553223 4.949359893798828 22.10939979553223 11.05469989776611 C 22.10939979553223 17.1600399017334 17.1600399017334 22.10939979553223 11.05469989776611 22.10939979553223 C 4.949359893798828 22.10939979553223 0 17.1600399017334 0 11.05469989776611 C 0 4.949359893798828 4.949359893798828 0 11.05469989776611 0 Z" stroke="none" fill="#000"/>
    </g>
    <g id="Trazado_904308" data-name="Trazado 904308" transform="translate(324.276 13876.09)" fill="none">
      <path d="M11.055,0A11.055,11.055,0,1,1,0,11.055,11.055,11.055,0,0,1,11.055,0Z" stroke="none"/>
      <path d="M 11.05469989776611 4 C 7.164730072021484 4 4 7.164730072021484 4 11.05469989776611 C 4 14.94466972351074 7.164730072021484 18.10939979553223 11.05469989776611 18.10939979553223 C 14.94466972351074 18.10939979553223 18.10939979553223 14.94466972351074 18.10939979553223 11.05469989776611 C 18.10939979553223 7.164730072021484 14.94466972351074 4 11.05469989776611 4 M 11.05469989776611 0 C 17.1600399017334 0 22.10939979553223 4.949359893798828 22.10939979553223 11.05469989776611 C 22.10939979553223 17.1600399017334 17.1600399017334 22.10939979553223 11.05469989776611 22.10939979553223 C 4.949359893798828 22.10939979553223 0 17.1600399017334 0 11.05469989776611 C 0 4.949359893798828 4.949359893798828 0 11.05469989776611 0 Z" stroke="none" fill="#000"/>
    </g>
    <g id="Trazado_904309" data-name="Trazado 904309" transform="translate(305.326 13892.936)" fill="none">
      <path d="M11.055,0A11.055,11.055,0,1,1,0,11.055,11.055,11.055,0,0,1,11.055,0Z" stroke="none"/>
      <path d="M 11.05469989776611 4 C 7.164730072021484 4 4 7.164730072021484 4 11.05469989776611 C 4 14.94466972351074 7.164730072021484 18.10939979553223 11.05469989776611 18.10939979553223 C 14.94466972351074 18.10939979553223 18.10939979553223 14.94466972351074 18.10939979553223 11.05469989776611 C 18.10939979553223 7.164730072021484 14.94466972351074 4 11.05469989776611 4 M 11.05469989776611 0 C 17.1600399017334 0 22.10939979553223 4.949359893798828 22.10939979553223 11.05469989776611 C 22.10939979553223 17.1600399017334 17.1600399017334 22.10939979553223 11.05469989776611 22.10939979553223 C 4.949359893798828 22.10939979553223 0 17.1600399017334 0 11.05469989776611 C 0 4.949359893798828 4.949359893798828 0 11.05469989776611 0 Z" stroke="none" fill="#000"/>
    </g>
    <g id="Trazado_904310" data-name="Trazado 904310" transform="translate(288.48 13737.117)" fill="none" stroke-dasharray="12 8">
      <path d="M0,0H849.633V333.747H0Z" stroke="none"/>
      <path d="M 20 0 L 32 0 L 32 5 L 20 5 L 20 0 Z M 40 0 L 52 0 L 52 5 L 40 5 L 40 0 Z M 60 0 L 72 0 L 72 5 L 60 5 L 60 0 Z M 80 0 L 92 0 L 92 5 L 80 5 L 80 0 Z M 100 0 L 112 0 L 112 5 L 100 5 L 100 0 Z M 120 0 L 132 0 L 132 5 L 120 5 L 120 0 Z M 140 0 L 152 0 L 152 5 L 140 5 L 140 0 Z M 160 0 L 172 0 L 172 5 L 160 5 L 160 0 Z M 180 0 L 192 0 L 192 5 L 180 5 L 180 0 Z M 200 0 L 212 0 L 212 5 L 200 5 L 200 0 Z M 220 0 L 232 0 L 232 5 L 220 5 L 220 0 Z M 240 0 L 252 0 L 252 5 L 240 5 L 240 0 Z M 260 0 L 272 0 L 272 5 L 260 5 L 260 0 Z M 280 0 L 292 0 L 292 5 L 280 5 L 280 0 Z M 300 0 L 312 0 L 312 5 L 300 5 L 300 0 Z M 320 0 L 332 0 L 332 5 L 320 5 L 320 0 Z M 339.9999694824219 0 L 351.9999694824219 0 L 351.9999694824219 5 L 339.9999694824219 5 L 339.9999694824219 0 Z M 359.9999694824219 0 L 371.9999694824219 0 L 371.9999694824219 5 L 359.9999694824219 5 L 359.9999694824219 0 Z M 379.9999694824219 0 L 391.9999694824219 0 L 391.9999694824219 5 L 379.9999694824219 5 L 379.9999694824219 0 Z M 399.9999694824219 0 L 411.9999694824219 0 L 411.9999694824219 5 L 399.9999694824219 5 L 399.9999694824219 0 Z M 419.9999694824219 0 L 431.9999694824219 0 L 431.9999694824219 5 L 419.9999694824219 5 L 419.9999694824219 0 Z M 439.9999694824219 0 L 451.9999694824219 0 L 451.9999694824219 5 L 439.9999694824219 5 L 439.9999694824219 0 Z M 459.9999694824219 0 L 471.9999694824219 0 L 471.9999694824219 5 L 459.9999694824219 5 L 459.9999694824219 0 Z M 479.9999694824219 0 L 491.9999694824219 0 L 491.9999694824219 5 L 479.9999694824219 5 L 479.9999694824219 0 Z M 499.9999694824219 0 L 511.9999694824219 0 L 511.9999694824219 5 L 499.9999694824219 5 L 499.9999694824219 0 Z M 520 0 L 532 0 L 532 5 L 520 5 L 520 0 Z M 540 0 L 552 0 L 552 5 L 540 5 L 540 0 Z M 560 0 L 572 0 L 572 5 L 560 5 L 560 0 Z M 580 0 L 592 0 L 592 5 L 580 5 L 580 0 Z M 600 0 L 612 0 L 612 5 L 600 5 L 600 0 Z M 620 0 L 632 0 L 632 5 L 620 5 L 620 0 Z M 640 0 L 652 0 L 652 5 L 640 5 L 640 0 Z M 660 0 L 672 0 L 672 5 L 660 5 L 660 0 Z M 680 0 L 692 0 L 692 5 L 680 5 L 680 0 Z M 700 0 L 712 0 L 712 5 L 700 5 L 700 0 Z M 720 0 L 732 0 L 732 5 L 720 5 L 720 0 Z M 740 0 L 752 0 L 752 5 L 740 5 L 740 0 Z M 760 0 L 772 0 L 772 5 L 760 5 L 760 0 Z M 780 0 L 792 0 L 792 5 L 780 5 L 780 0 Z M 800 0 L 812 0 L 812 5 L 800 5 L 800 0 Z M 820 0 L 832 0 L 832 5 L 820 5 L 820 0 Z M 840 0 L 849.6326293945312 0 L 849.6326293945312 5 L 840 5 L 840 0 Z M 844.6326293945312 10.3673095703125 L 849.6326293945312 10.3673095703125 C 849.6326293945312 10.3673095703125 849.6326293945312 22.3673095703125 849.6326293945312 22.3673095703125 L 844.6326293945312 22.3673095703125 L 844.6326293945312 10.3673095703125 Z M 844.6326293945312 30.3673095703125 L 849.6326293945312 30.3673095703125 C 849.6326293945312 30.3673095703125 849.6326293945312 42.3673095703125 849.6326293945312 42.3673095703125 L 844.6326293945312 42.3673095703125 L 844.6326293945312 30.3673095703125 Z M 844.6326293945312 50.3673095703125 L 849.6326293945312 50.3673095703125 C 849.6326293945312 50.3673095703125 849.6326293945312 62.3673095703125 849.6326293945312 62.3673095703125 L 844.6326293945312 62.3673095703125 L 844.6326293945312 50.3673095703125 Z M 844.6326293945312 70.3673095703125 L 849.6326293945312 70.3673095703125 C 849.6326293945312 70.3673095703125 849.6326293945312 82.36732482910156 849.6326293945312 82.36732482910156 L 844.6326293945312 82.36732482910156 L 844.6326293945312 70.3673095703125 Z M 844.6326293945312 90.36732482910156 L 849.6326293945312 90.36732482910156 C 849.6326293945312 90.36732482910156 849.6326293945312 102.3673248291016 849.6326293945312 102.3673248291016 L 844.6326293945312 102.3673248291016 L 844.6326293945312 90.36732482910156 Z M 844.6326293945312 110.3673248291016 L 849.6326293945312 110.3673248291016 C 849.6326293945312 110.3673248291016 849.6326293945312 122.3673248291016 849.6326293945312 122.3673248291016 L 844.6326293945312 122.3673248291016 L 844.6326293945312 110.3673248291016 Z M 844.6326293945312 130.3673248291016 L 849.6326293945312 130.3673248291016 C 849.6326293945312 130.3673248291016 849.6326293945312 142.3673248291016 849.6326293945312 142.3673248291016 L 844.6326293945312 142.3673248291016 L 844.6326293945312 130.3673248291016 Z M 844.6326293945312 150.3673248291016 L 849.6326293945312 150.3673248291016 C 849.6326293945312 150.3673248291016 849.6326293945312 162.3673248291016 849.6326293945312 162.3673248291016 L 844.6326293945312 162.3673248291016 L 844.6326293945312 150.3673248291016 Z M 844.6326293945312 170.3673248291016 L 849.6326293945312 170.3673248291016 C 849.6326293945312 170.3673248291016 849.6326293945312 182.3673248291016 849.6326293945312 182.3673248291016 L 844.6326293945312 182.3673248291016 L 844.6326293945312 170.3673248291016 Z M 844.6326293945312 190.3673248291016 L 849.6326293945312 190.3673248291016 C 849.6326293945312 190.3673248291016 849.6326293945312 202.3673248291016 849.6326293945312 202.3673248291016 L 844.6326293945312 202.3673248291016 L 844.6326293945312 190.3673248291016 Z M 844.6326293945312 210.3673248291016 L 849.6326293945312 210.3673248291016 C 849.6326293945312 210.3673248291016 849.6326293945312 222.3673248291016 849.6326293945312 222.3673248291016 L 844.6326293945312 222.3673248291016 L 844.6326293945312 210.3673248291016 Z M 844.6326293945312 230.3673248291016 L 849.6326293945312 230.3673248291016 C 849.6326293945312 230.3673248291016 849.6326293945312 242.3673248291016 849.6326293945312 242.3673248291016 L 844.6326293945312 242.3673248291016 L 844.6326293945312 230.3673248291016 Z M 844.6326293945312 250.3673248291016 L 849.6326293945312 250.3673248291016 C 849.6326293945312 250.3673248291016 849.6326293945312 262.3673095703125 849.6326293945312 262.3673095703125 L 844.6326293945312 262.3673095703125 L 844.6326293945312 250.3673248291016 Z M 844.6326293945312 270.3673095703125 L 849.6326293945312 270.3673095703125 C 849.6326293945312 270.3673095703125 849.6326293945312 282.3673095703125 849.6326293945312 282.3673095703125 L 844.6326293945312 282.3673095703125 L 844.6326293945312 270.3673095703125 Z M 844.6326293945312 290.3673095703125 L 849.6326293945312 290.3673095703125 C 849.6326293945312 290.3673095703125 849.6326293945312 302.3673095703125 849.6326293945312 302.3673095703125 L 844.6326293945312 302.3673095703125 L 844.6326293945312 290.3673095703125 Z M 844.6326293945312 310.3673095703125 L 849.6326293945312 310.3673095703125 C 849.6326293945312 310.3673095703125 849.6326293945312 322.3673095703125 849.6326293945312 322.3673095703125 L 844.6326293945312 322.3673095703125 L 844.6326293945312 310.3673095703125 Z M 841.011962890625 328.7466430664062 L 849.6326293945312 328.7466430664062 L 849.6326293945312 330.3673095703125 L 849.6326293945312 328.7466430664062 L 849.6326293945312 330.3673095703125 C 849.6326293945312 330.3673095703125 849.6326293945312 333.7466430664062 849.6326293945312 333.7466430664062 L 844.6326293945312 333.7466430664062 C 842.7302856445312 333.7466430664062 841.011962890625 333.7466430664062 841.011962890625 333.7466430664062 L 841.011962890625 328.7466430664062 Z M 821.011962890625 328.7466430664062 L 833.011962890625 328.7466430664062 L 833.011962890625 333.7466430664062 C 833.011962890625 333.7466430664062 821.011962890625 333.7466430664062 821.011962890625 333.7466430664062 L 821.011962890625 328.7466430664062 Z M 801.011962890625 328.7466430664062 L 813.011962890625 328.7466430664062 L 813.011962890625 333.7466430664062 C 813.011962890625 333.7466430664062 801.011962890625 333.7466430664062 801.011962890625 333.7466430664062 L 801.011962890625 328.7466430664062 Z M 781.011962890625 328.7466430664062 L 793.011962890625 328.7466430664062 L 793.011962890625 333.7466430664062 C 793.011962890625 333.7466430664062 781.011962890625 333.7466430664062 781.011962890625 333.7466430664062 L 781.011962890625 328.7466430664062 Z M 761.011962890625 328.7466430664062 L 773.011962890625 328.7466430664062 L 773.011962890625 333.7466430664062 C 773.011962890625 333.7466430664062 761.011962890625 333.7466430664062 761.011962890625 333.7466430664062 L 761.011962890625 328.7466430664062 Z M 741.011962890625 328.7466430664062 L 753.011962890625 328.7466430664062 L 753.011962890625 333.7466430664062 C 753.011962890625 333.7466430664062 741.011962890625 333.7466430664062 741.011962890625 333.7466430664062 L 741.011962890625 328.7466430664062 Z M 721.011962890625 328.7466430664062 L 733.011962890625 328.7466430664062 L 733.011962890625 333.7466430664062 C 733.011962890625 333.7466430664062 721.011962890625 333.7466430664062 721.011962890625 333.7466430664062 L 721.011962890625 328.7466430664062 Z M 701.011962890625 328.7466430664062 L 713.011962890625 328.7466430664062 L 713.011962890625 333.7466430664062 C 713.011962890625 333.7466430664062 701.011962890625 333.7466430664062 701.011962890625 333.7466430664062 L 701.011962890625 328.7466430664062 Z M 681.011962890625 328.7466430664062 L 693.011962890625 328.7466430664062 L 693.011962890625 333.7466430664062 C 693.011962890625 333.7466430664062 681.011962890625 333.7466430664062 681.011962890625 333.7466430664062 L 681.011962890625 328.7466430664062 Z M 661.011962890625 328.7466430664062 L 673.011962890625 328.7466430664062 L 673.011962890625 333.7466430664062 C 673.011962890625 333.7466430664062 661.011962890625 333.7466430664062 661.011962890625 333.7466430664062 L 661.011962890625 328.7466430664062 Z M 641.011962890625 328.7466430664062 L 653.011962890625 328.7466430664062 L 653.011962890625 333.7466430664062 C 653.011962890625 333.7466430664062 641.011962890625 333.7466430664062 641.011962890625 333.7466430664062 L 641.011962890625 328.7466430664062 Z M 621.011962890625 328.7466430664062 L 633.011962890625 328.7466430664062 L 633.011962890625 333.7466430664062 C 633.011962890625 333.7466430664062 621.011962890625 333.7466430664062 621.011962890625 333.7466430664062 L 621.011962890625 328.7466430664062 Z M 601.011962890625 328.7466430664062 L 613.011962890625 328.7466430664062 L 613.011962890625 333.7466430664062 C 613.011962890625 333.7466430664062 601.011962890625 333.7466430664062 601.011962890625 333.7466430664062 L 601.011962890625 328.7466430664062 Z M 581.011962890625 328.7466430664062 L 593.011962890625 328.7466430664062 L 593.011962890625 333.7466430664062 C 593.011962890625 333.7466430664062 581.011962890625 333.7466430664062 581.011962890625 333.7466430664062 L 581.011962890625 328.7466430664062 Z M 561.011962890625 328.7466430664062 L 573.011962890625 328.7466430664062 L 573.011962890625 333.7466430664062 C 573.011962890625 333.7466430664062 561.011962890625 333.7466430664062 561.011962890625 333.7466430664062 L 561.011962890625 328.7466430664062 Z M 541.011962890625 328.7466430664062 L 553.011962890625 328.7466430664062 L 553.011962890625 333.7466430664062 C 553.011962890625 333.7466430664062 541.011962890625 333.7466430664062 541.011962890625 333.7466430664062 L 541.011962890625 328.7466430664062 Z M 521.011962890625 328.7466430664062 L 533.011962890625 328.7466430664062 L 533.011962890625 333.7466430664062 C 533.011962890625 333.7466430664062 521.011962890625 333.7466430664062 521.011962890625 333.7466430664062 L 521.011962890625 328.7466430664062 Z M 501.0119934082031 328.7466430664062 L 513.011962890625 328.7466430664062 L 513.011962890625 333.7466430664062 C 513.011962890625 333.7466430664062 501.0119934082031 333.7466430664062 501.0119934082031 333.7466430664062 L 501.0119934082031 328.7466430664062 Z M 481.0119934082031 328.7466430664062 L 493.0119934082031 328.7466430664062 L 493.0119934082031 333.7466430664062 C 493.0119934082031 333.7466430664062 481.0119934082031 333.7466430664062 481.0119934082031 333.7466430664062 L 481.0119934082031 328.7466430664062 Z M 461.0119934082031 328.7466430664062 L 473.0119934082031 328.7466430664062 L 473.0119934082031 333.7466430664062 C 473.0119934082031 333.7466430664062 461.0119934082031 333.7466430664062 461.0119934082031 333.7466430664062 L 461.0119934082031 328.7466430664062 Z M 441.0119934082031 328.7466430664062 L 453.0119934082031 328.7466430664062 L 453.0119934082031 333.7466430664062 C 453.0119934082031 333.7466430664062 441.0119934082031 333.7466430664062 441.0119934082031 333.7466430664062 L 441.0119934082031 328.7466430664062 Z M 421.0119934082031 328.7466430664062 L 433.0119934082031 328.7466430664062 L 433.0119934082031 333.7466430664062 C 433.0119934082031 333.7466430664062 421.0119934082031 333.7466430664062 421.0119934082031 333.7466430664062 L 421.0119934082031 328.7466430664062 Z M 401.0119934082031 328.7466430664062 L 413.0119934082031 328.7466430664062 L 413.0119934082031 333.7466430664062 C 413.0119934082031 333.7466430664062 401.0119934082031 333.7466430664062 401.0119934082031 333.7466430664062 L 401.0119934082031 328.7466430664062 Z M 381.0119934082031 328.7466430664062 L 393.0119934082031 328.7466430664062 L 393.0119934082031 333.7466430664062 C 393.0119934082031 333.7466430664062 381.0119934082031 333.7466430664062 381.0119934082031 333.7466430664062 L 381.0119934082031 328.7466430664062 Z M 361.0119934082031 328.7466430664062 L 373.0119934082031 328.7466430664062 L 373.0119934082031 333.7466430664062 C 373.0119934082031 333.7466430664062 361.0119934082031 333.7466430664062 361.0119934082031 333.7466430664062 L 361.0119934082031 328.7466430664062 Z M 341.0119934082031 328.7466430664062 L 353.0119934082031 328.7466430664062 L 353.0119934082031 333.7466430664062 C 353.0119934082031 333.7466430664062 341.0119934082031 333.7466430664062 341.0119934082031 333.7466430664062 L 341.0119934082031 328.7466430664062 Z M 321.011962890625 328.7466430664062 L 333.011962890625 328.7466430664062 L 333.011962890625 333.7466430664062 C 333.011962890625 333.7466430664062 321.011962890625 333.7466430664062 321.011962890625 333.7466430664062 L 321.011962890625 328.7466430664062 Z M 301.011962890625 328.7466430664062 L 313.011962890625 328.7466430664062 L 313.011962890625 333.7466430664062 C 313.011962890625 333.7466430664062 301.011962890625 333.7466430664062 301.011962890625 333.7466430664062 L 301.011962890625 328.7466430664062 Z M 281.011962890625 328.7466430664062 L 293.011962890625 328.7466430664062 L 293.011962890625 333.7466430664062 C 293.011962890625 333.7466430664062 281.011962890625 333.7466430664062 281.011962890625 333.7466430664062 L 281.011962890625 328.7466430664062 Z M 261.011962890625 328.7466430664062 L 273.011962890625 328.7466430664062 L 273.011962890625 333.7466430664062 C 273.011962890625 333.7466430664062 261.011962890625 333.7466430664062 261.011962890625 333.7466430664062 L 261.011962890625 328.7466430664062 Z M 241.011962890625 328.7466430664062 L 253.011962890625 328.7466430664062 L 253.011962890625 333.7466430664062 C 253.011962890625 333.7466430664062 241.011962890625 333.7466430664062 241.011962890625 333.7466430664062 L 241.011962890625 328.7466430664062 Z M 221.011962890625 328.7466430664062 L 233.011962890625 328.7466430664062 L 233.011962890625 333.7466430664062 C 233.011962890625 333.7466430664062 221.011962890625 333.7466430664062 221.011962890625 333.7466430664062 L 221.011962890625 328.7466430664062 Z M 201.011962890625 328.7466430664062 L 213.011962890625 328.7466430664062 L 213.011962890625 333.7466430664062 C 213.011962890625 333.7466430664062 201.011962890625 333.7466430664062 201.011962890625 333.7466430664062 L 201.011962890625 328.7466430664062 Z M 181.011962890625 328.7466430664062 L 193.011962890625 328.7466430664062 L 193.011962890625 333.7466430664062 C 193.011962890625 333.7466430664062 181.011962890625 333.7466430664062 181.011962890625 333.7466430664062 L 181.011962890625 328.7466430664062 Z M 161.011962890625 328.7466430664062 L 173.011962890625 328.7466430664062 L 173.011962890625 333.7466430664062 C 173.011962890625 333.7466430664062 161.011962890625 333.7466430664062 161.011962890625 333.7466430664062 L 161.011962890625 328.7466430664062 Z M 141.011962890625 328.7466430664062 L 153.011962890625 328.7466430664062 L 153.011962890625 333.7466430664062 C 153.011962890625 333.7466430664062 141.011962890625 333.7466430664062 141.011962890625 333.7466430664062 L 141.011962890625 328.7466430664062 Z M 121.011962890625 328.7466430664062 L 133.011962890625 328.7466430664062 L 133.011962890625 333.7466430664062 C 133.011962890625 333.7466430664062 121.011962890625 333.7466430664062 121.011962890625 333.7466430664062 L 121.011962890625 328.7466430664062 Z M 101.011962890625 328.7466430664062 L 113.011962890625 328.7466430664062 L 113.011962890625 333.7466430664062 C 113.011962890625 333.7466430664062 101.011962890625 333.7466430664062 101.011962890625 333.7466430664062 L 101.011962890625 328.7466430664062 Z M 81.011962890625 328.7466430664062 L 93.011962890625 328.7466430664062 L 93.011962890625 333.7466430664062 C 93.011962890625 333.7466430664062 81.011962890625 333.7466430664062 81.011962890625 333.7466430664062 L 81.011962890625 328.7466430664062 Z M 61.011962890625 328.7466430664062 L 73.011962890625 328.7466430664062 L 73.011962890625 333.7466430664062 C 73.011962890625 333.7466430664062 61.011962890625 333.7466430664062 61.011962890625 333.7466430664062 L 61.011962890625 328.7466430664062 Z M 41.011962890625 328.7466430664062 L 53.011962890625 328.7466430664062 L 53.011962890625 333.7466430664062 C 53.011962890625 333.7466430664062 41.011962890625 333.7466430664062 41.011962890625 333.7466430664062 L 41.011962890625 328.7466430664062 Z M 21.011962890625 328.7466430664062 L 33.011962890625 328.7466430664062 L 33.011962890625 333.7466430664062 C 33.011962890625 333.7466430664062 21.011962890625 333.7466430664062 21.011962890625 333.7466430664062 L 21.011962890625 328.7466430664062 Z M 1.011962890625 328.7466430664062 L 13.011962890625 328.7466430664062 L 13.011962890625 333.7466430664062 C 13.011962890625 333.7466430664062 1.011962890625 333.7466430664062 1.011962890625 333.7466430664062 L 1.011962890625 328.7466430664062 Z M 0 314.7586669921875 L 5 314.7586669921875 L 5 326.7586669921875 L 0 326.7586669921875 L 0 314.7586669921875 Z M 0 294.7586669921875 L 5 294.7586669921875 L 5 306.7586669921875 L 0 306.7586669921875 L 0 294.7586669921875 Z M 0 274.7586669921875 L 5 274.7586669921875 L 5 286.7586669921875 L 0 286.7586669921875 L 0 274.7586669921875 Z M 0 254.7586517333984 L 5 254.7586517333984 L 5 266.7586669921875 L 0 266.7586669921875 L 0 254.7586517333984 Z M 0 234.7586517333984 L 5 234.7586517333984 L 5 246.7586517333984 L 0 246.7586517333984 L 0 234.7586517333984 Z M 0 214.7586517333984 L 5 214.7586517333984 L 5 226.7586517333984 L 0 226.7586517333984 L 0 214.7586517333984 Z M 0 194.7586517333984 L 5 194.7586517333984 L 5 206.7586517333984 L 0 206.7586517333984 L 0 194.7586517333984 Z M 0 174.7586517333984 L 5 174.7586517333984 L 5 186.7586517333984 L 0 186.7586517333984 L 0 174.7586517333984 Z M 0 154.7586517333984 L 5 154.7586517333984 L 5 166.7586517333984 L 0 166.7586517333984 L 0 154.7586517333984 Z M 0 134.7586517333984 L 5 134.7586517333984 L 5 146.7586517333984 L 0 146.7586517333984 L 0 134.7586517333984 Z M 0 114.7586517333984 L 5 114.7586517333984 L 5 126.7586517333984 L 0 126.7586517333984 L 0 114.7586517333984 Z M 0 94.75865173339844 L 5 94.75865173339844 L 5 106.7586517333984 L 0 106.7586517333984 L 0 94.75865173339844 Z M 0 74.7586669921875 L 5 74.7586669921875 L 5 86.75865173339844 L 0 86.75865173339844 L 0 74.7586669921875 Z M 0 54.7586669921875 L 5 54.7586669921875 L 5 66.7586669921875 L 0 66.7586669921875 L 0 54.7586669921875 Z M 0 34.7586669921875 L 5 34.7586669921875 L 5 46.7586669921875 L 0 46.7586669921875 L 0 34.7586669921875 Z M 0 14.7586669921875 L 5 14.7586669921875 L 5 26.7586669921875 L 0 26.7586669921875 L 0 14.7586669921875 Z M 0 0 L 12 0 L 12 5 L 5 5 L 5 6.7586669921875 L 0 6.7586669921875 L 0 0 Z" stroke="none" fill="#000"/>
    </g>
    <path id="Trazado_901112" data-name="Trazado 901112" d="M-10067-4679.455h365.151" transform="translate(10355.48 18770.896)" fill="none" stroke="#000" stroke-width="3"/>
    <path id="Trazado_901113" data-name="Trazado 901113" d="M-10067-4679.455h466.558" transform="translate(10738.557 18770.896)" fill="none" stroke="#000" stroke-width="3"/>
    <path id="Trazado_901114" data-name="Trazado 901114" d="M-10067-4688.206v17.06" transform="translate(10355.48 18770.434)" fill="none" stroke="#000" stroke-width="3"/>
    <path id="Trazado_901115" data-name="Trazado 901115" d="M-10067-4688.206v17.06" transform="translate(10720.633 18770.434)" fill="none" stroke="#000" stroke-width="3"/>
    <path id="Trazado_901116" data-name="Trazado 901116" d="M-10067-4688.206v17.06" transform="translate(10738.557 18770.434)" fill="none" stroke="#000" stroke-width="3"/>
    <path id="Trazado_901117" data-name="Trazado 901117" d="M-10067-4688.206v17.06" transform="translate(11205.113 18770.434)" fill="none" stroke="#000" stroke-width="3"/>
    <path id="Trazado_904311" data-name="Trazado 904311" d="M8.9,0H6.628V-15.051L2.075-13.379V-15.43l6.47-2.429H8.9Zm6.9-1.184a1.414,1.414,0,0,1,.348-.977,1.326,1.326,0,0,1,1.044-.391,1.365,1.365,0,0,1,1.056.391,1.386,1.386,0,0,1,.36.977,1.311,1.311,0,0,1-.36.94,1.39,1.39,0,0,1-1.056.378,1.349,1.349,0,0,1-1.044-.378A1.336,1.336,0,0,1,15.8-1.184Zm7.336-7.727.9-8.862h9.106v2.087h-7.19l-.537,4.846a5.736,5.736,0,0,1,2.966-.769A4.9,4.9,0,0,1,32.239-10a6.291,6.291,0,0,1,1.428,4.34,6.072,6.072,0,0,1-1.483,4.327A5.406,5.406,0,0,1,28.04.244a5.618,5.618,0,0,1-3.845-1.306,5.213,5.213,0,0,1-1.7-3.613h2.136a3.587,3.587,0,0,0,1.086,2.3A3.378,3.378,0,0,0,28.04-1.6a3.047,3.047,0,0,0,2.472-1.074,4.491,4.491,0,0,0,.9-2.966,4.122,4.122,0,0,0-.97-2.863,3.3,3.3,0,0,0-2.582-1.08,3.723,3.723,0,0,0-2.319.647l-.6.488ZM47.852-1.6a3.253,3.253,0,0,0,2.112-.732,2.577,2.577,0,0,0,1-1.831H53.1A4.1,4.1,0,0,1,52.319-2,5.146,5.146,0,0,1,50.4-.366a5.548,5.548,0,0,1-2.545.61,5.441,5.441,0,0,1-4.291-1.8,7.171,7.171,0,0,1-1.593-4.926V-6.86a7.952,7.952,0,0,1,.708-3.43,5.393,5.393,0,0,1,2.032-2.332,5.774,5.774,0,0,1,3.131-.83,5.3,5.3,0,0,1,3.693,1.331A4.755,4.755,0,0,1,53.1-8.667H50.964a3.112,3.112,0,0,0-.97-2.106,3.019,3.019,0,0,0-2.155-.824,3.161,3.161,0,0,0-2.667,1.239,5.819,5.819,0,0,0-.946,3.583v.427a5.7,5.7,0,0,0,.94,3.516A3.176,3.176,0,0,0,47.852-1.6Zm9.912-11.609.061,1.465a4.878,4.878,0,0,1,3.918-1.709,3.776,3.776,0,0,1,3.772,2.124,5,5,0,0,1,1.715-1.538,5.066,5.066,0,0,1,2.5-.586q4.346,0,4.419,4.6V0H71.887V-8.716a3.033,3.033,0,0,0-.647-2.118,2.849,2.849,0,0,0-2.173-.7,3,3,0,0,0-2.087.751,3.046,3.046,0,0,0-.964,2.02V0H63.745V-8.655q0-2.881-2.82-2.881a3.021,3.021,0,0,0-3.04,1.892V0H55.627V-13.208Z" transform="translate(1112.286 13721.58)" fill="#12263f"/>
    <path id="Trazado_904312" data-name="Trazado 904312" d="M8.9,0H6.628V-15.051L2.075-13.379V-15.43l6.47-2.429H8.9Zm6.9-1.184a1.414,1.414,0,0,1,.348-.977,1.326,1.326,0,0,1,1.044-.391,1.365,1.365,0,0,1,1.056.391,1.386,1.386,0,0,1,.36.977,1.311,1.311,0,0,1-.36.94,1.39,1.39,0,0,1-1.056.378,1.349,1.349,0,0,1-1.044-.378A1.336,1.336,0,0,1,15.8-1.184Zm7.336-7.727.9-8.862h9.106v2.087h-7.19l-.537,4.846a5.736,5.736,0,0,1,2.966-.769A4.9,4.9,0,0,1,32.239-10a6.291,6.291,0,0,1,1.428,4.34,6.072,6.072,0,0,1-1.483,4.327A5.406,5.406,0,0,1,28.04.244a5.618,5.618,0,0,1-3.845-1.306,5.213,5.213,0,0,1-1.7-3.613h2.136a3.587,3.587,0,0,0,1.086,2.3A3.378,3.378,0,0,0,28.04-1.6a3.047,3.047,0,0,0,2.472-1.074,4.491,4.491,0,0,0,.9-2.966,4.122,4.122,0,0,0-.97-2.863,3.3,3.3,0,0,0-2.582-1.08,3.723,3.723,0,0,0-2.319.647l-.6.488ZM47.852-1.6a3.253,3.253,0,0,0,2.112-.732,2.577,2.577,0,0,0,1-1.831H53.1A4.1,4.1,0,0,1,52.319-2,5.146,5.146,0,0,1,50.4-.366a5.548,5.548,0,0,1-2.545.61,5.441,5.441,0,0,1-4.291-1.8,7.171,7.171,0,0,1-1.593-4.926V-6.86a7.952,7.952,0,0,1,.708-3.43,5.393,5.393,0,0,1,2.032-2.332,5.774,5.774,0,0,1,3.131-.83,5.3,5.3,0,0,1,3.693,1.331A4.755,4.755,0,0,1,53.1-8.667H50.964a3.112,3.112,0,0,0-.97-2.106,3.019,3.019,0,0,0-2.155-.824,3.161,3.161,0,0,0-2.667,1.239,5.819,5.819,0,0,0-.946,3.583v.427a5.7,5.7,0,0,0,.94,3.516A3.176,3.176,0,0,0,47.852-1.6Zm9.912-11.609.061,1.465a4.878,4.878,0,0,1,3.918-1.709,3.776,3.776,0,0,1,3.772,2.124,5,5,0,0,1,1.715-1.538,5.066,5.066,0,0,1,2.5-.586q4.346,0,4.419,4.6V0H71.887V-8.716a3.033,3.033,0,0,0-.647-2.118,2.849,2.849,0,0,0-2.173-.7,3,3,0,0,0-2.087.751,3.046,3.046,0,0,0-.964,2.02V0H63.745V-8.655q0-2.881-2.82-2.881a3.021,3.021,0,0,0-3.04,1.892V0H55.627V-13.208Z" transform="translate(1234.414 13719.474)" fill="#12263f"/>
    <path id="Trazado_904313" data-name="Trazado 904313" d="M8.9,0H6.628V-15.051L2.075-13.379V-15.43l6.47-2.429H8.9Zm6.9-1.184a1.414,1.414,0,0,1,.348-.977,1.326,1.326,0,0,1,1.044-.391,1.365,1.365,0,0,1,1.056.391,1.386,1.386,0,0,1,.36.977,1.311,1.311,0,0,1-.36.94,1.39,1.39,0,0,1-1.056.378,1.349,1.349,0,0,1-1.044-.378A1.336,1.336,0,0,1,15.8-1.184Zm7.336-7.727.9-8.862h9.106v2.087h-7.19l-.537,4.846a5.736,5.736,0,0,1,2.966-.769A4.9,4.9,0,0,1,32.239-10a6.291,6.291,0,0,1,1.428,4.34,6.072,6.072,0,0,1-1.483,4.327A5.406,5.406,0,0,1,28.04.244a5.618,5.618,0,0,1-3.845-1.306,5.213,5.213,0,0,1-1.7-3.613h2.136a3.587,3.587,0,0,0,1.086,2.3A3.378,3.378,0,0,0,28.04-1.6a3.047,3.047,0,0,0,2.472-1.074,4.491,4.491,0,0,0,.9-2.966,4.122,4.122,0,0,0-.97-2.863,3.3,3.3,0,0,0-2.582-1.08,3.723,3.723,0,0,0-2.319.647l-.6.488ZM47.852-1.6a3.253,3.253,0,0,0,2.112-.732,2.577,2.577,0,0,0,1-1.831H53.1A4.1,4.1,0,0,1,52.319-2,5.146,5.146,0,0,1,50.4-.366a5.548,5.548,0,0,1-2.545.61,5.441,5.441,0,0,1-4.291-1.8,7.171,7.171,0,0,1-1.593-4.926V-6.86a7.952,7.952,0,0,1,.708-3.43,5.393,5.393,0,0,1,2.032-2.332,5.774,5.774,0,0,1,3.131-.83,5.3,5.3,0,0,1,3.693,1.331A4.755,4.755,0,0,1,53.1-8.667H50.964a3.112,3.112,0,0,0-.97-2.106,3.019,3.019,0,0,0-2.155-.824,3.161,3.161,0,0,0-2.667,1.239,5.819,5.819,0,0,0-.946,3.583v.427a5.7,5.7,0,0,0,.94,3.516A3.176,3.176,0,0,0,47.852-1.6Zm9.912-11.609.061,1.465a4.878,4.878,0,0,1,3.918-1.709,3.776,3.776,0,0,1,3.772,2.124,5,5,0,0,1,1.715-1.538,5.066,5.066,0,0,1,2.5-.586q4.346,0,4.419,4.6V0H71.887V-8.716a3.033,3.033,0,0,0-.647-2.118,2.849,2.849,0,0,0-2.173-.7,3,3,0,0,0-2.087.751,3.046,3.046,0,0,0-.964,2.02V0H63.745V-8.655q0-2.881-2.82-2.881a3.021,3.021,0,0,0-3.04,1.892V0H55.627V-13.208Z" transform="translate(1165.454 14050.063)" fill="#12263f"/>
    <path id="Trazado_904314" data-name="Trazado 904314" d="M12.28-7.727H5.249v4.785H13.5V0H1.587V-17.773h11.89v2.966H5.249v4.236H12.28ZM22.571-3.65a1.137,1.137,0,0,0-.641-1.019,7.28,7.28,0,0,0-2.057-.665q-4.712-.989-4.712-4a3.629,3.629,0,0,1,1.459-2.936,5.884,5.884,0,0,1,3.815-1.178,6.333,6.333,0,0,1,4.022,1.184,3.732,3.732,0,0,1,1.508,3.076H22.437a1.707,1.707,0,0,0-.488-1.251,2.066,2.066,0,0,0-1.526-.494,2.111,2.111,0,0,0-1.379.4,1.272,1.272,0,0,0-.488,1.025,1.087,1.087,0,0,0,.555.946,5.714,5.714,0,0,0,1.874.623,15.3,15.3,0,0,1,2.222.592Q26-6.323,26-3.8a3.445,3.445,0,0,1-1.55,2.924,6.688,6.688,0,0,1-4,1.117A6.985,6.985,0,0,1,17.5-.348a4.946,4.946,0,0,1-2.02-1.624A3.772,3.772,0,0,1,14.746-4.2h3.345a1.842,1.842,0,0,0,.7,1.44,2.76,2.76,0,0,0,1.733.5,2.554,2.554,0,0,0,1.532-.385A1.2,1.2,0,0,0,22.571-3.65ZM33.765-2.6a2.314,2.314,0,0,0,1.587-.537,1.882,1.882,0,0,0,.635-1.428h3.308a4.525,4.525,0,0,1-.732,2.46A4.833,4.833,0,0,1,36.591-.372a6.17,6.17,0,0,1-2.765.616,5.734,5.734,0,0,1-4.468-1.8,7.125,7.125,0,0,1-1.636-4.974v-.232a7.044,7.044,0,0,1,1.624-4.871A5.667,5.667,0,0,1,33.8-13.452a5.555,5.555,0,0,1,3.973,1.41,4.992,4.992,0,0,1,1.52,3.754H35.986a2.424,2.424,0,0,0-.635-1.675,2.116,2.116,0,0,0-1.611-.644,2.125,2.125,0,0,0-1.862.9,5.208,5.208,0,0,0-.629,2.916v.367a5.274,5.274,0,0,0,.623,2.934A2.151,2.151,0,0,0,33.765-2.6Zm6.995-4.126a7.833,7.833,0,0,1,.757-3.5A5.54,5.54,0,0,1,43.7-12.61a6.357,6.357,0,0,1,3.3-.842,6.014,6.014,0,0,1,4.364,1.636,6.565,6.565,0,0,1,1.886,4.443l.024.9a6.9,6.9,0,0,1-1.7,4.877A5.9,5.9,0,0,1,47.021.244a5.927,5.927,0,0,1-4.559-1.831,7.025,7.025,0,0,1-1.7-4.98Zm3.528.25A4.937,4.937,0,0,0,45-3.6a2.336,2.336,0,0,0,2.026,1,2.341,2.341,0,0,0,2-.984,5.4,5.4,0,0,0,.72-3.148,4.888,4.888,0,0,0-.72-2.861A2.341,2.341,0,0,0,47-10.608,2.3,2.3,0,0,0,45-9.6,5.493,5.493,0,0,0,44.287-6.476Zm15.381-9.979v3.247h2.258v2.588H59.668v6.592a1.574,1.574,0,0,0,.281,1.05,1.41,1.41,0,0,0,1.074.317,5.626,5.626,0,0,0,1.038-.085V-.073a7.263,7.263,0,0,1-2.136.317Q56.213.244,56.14-3.5V-10.62H54.211v-2.588H56.14v-3.247Zm10.3,16.7a6.484,6.484,0,0,1-4.73-1.782,6.335,6.335,0,0,1-1.825-4.749v-.342a7.979,7.979,0,0,1,.769-3.558A5.644,5.644,0,0,1,66.364-12.6a6.116,6.116,0,0,1,3.217-.848,5.482,5.482,0,0,1,4.266,1.709A6.944,6.944,0,0,1,75.4-6.9v1.44H66.992a3.277,3.277,0,0,0,1.031,2.075A3.118,3.118,0,0,0,70.2-2.6a3.808,3.808,0,0,0,3.186-1.477l1.733,1.941A5.3,5.3,0,0,1,72.974-.385,7.049,7.049,0,0,1,69.971.244Zm-.4-10.852a2.2,2.2,0,0,0-1.7.711,3.682,3.682,0,0,0-.836,2.035h4.907v-.282A2.626,2.626,0,0,0,71.3-9.964,2.274,2.274,0,0,0,69.568-10.608ZM83.862,0V-17.773h5.469a8.3,8.3,0,0,1,4.193,1.056,7.363,7.363,0,0,1,2.887,3A9.262,9.262,0,0,1,97.449-9.29v.818a9.288,9.288,0,0,1-1.019,4.407,7.3,7.3,0,0,1-2.875,2.991A8.368,8.368,0,0,1,89.368,0Zm3.662-14.807V-2.942h1.77a3.977,3.977,0,0,0,3.284-1.4,6.344,6.344,0,0,0,1.16-4.016V-9.3a6.444,6.444,0,0,0-1.123-4.108,3.963,3.963,0,0,0-3.284-1.4ZM105.957.244a6.484,6.484,0,0,1-4.73-1.782A6.335,6.335,0,0,1,99.4-6.287v-.342a7.979,7.979,0,0,1,.769-3.558A5.644,5.644,0,0,1,102.35-12.6a6.116,6.116,0,0,1,3.217-.848,5.482,5.482,0,0,1,4.266,1.709A6.944,6.944,0,0,1,111.389-6.9v1.44h-8.411a3.277,3.277,0,0,0,1.031,2.075,3.118,3.118,0,0,0,2.179.781,3.808,3.808,0,0,0,3.186-1.477l1.733,1.941A5.3,5.3,0,0,1,108.96-.385,7.049,7.049,0,0,1,105.957.244Zm-.4-10.852a2.2,2.2,0,0,0-1.7.711,3.682,3.682,0,0,0-.836,2.035h4.907v-.282a2.626,2.626,0,0,0-.635-1.821A2.274,2.274,0,0,0,105.554-10.608ZM117.114,0h-3.54V-18.75h3.54Zm10.559,0a3.918,3.918,0,0,1-.354-1.184A4.269,4.269,0,0,1,123.987.244,4.69,4.69,0,0,1,120.77-.879a3.612,3.612,0,0,1-1.276-2.832,3.733,3.733,0,0,1,1.556-3.223,7.68,7.68,0,0,1,4.5-1.135h1.624v-.757a2.177,2.177,0,0,0-.47-1.465,1.849,1.849,0,0,0-1.483-.549,2.1,2.1,0,0,0-1.4.427,1.451,1.451,0,0,0-.507,1.172h-3.528a3.544,3.544,0,0,1,.708-2.124,4.68,4.68,0,0,1,2-1.532,7.3,7.3,0,0,1,2.905-.555,5.764,5.764,0,0,1,3.876,1.227,4.292,4.292,0,0,1,1.434,3.448v5.725a6.314,6.314,0,0,0,.525,2.844V0Zm-2.917-2.454A3.038,3.038,0,0,0,126.2-2.8a2.285,2.285,0,0,0,.977-.934V-6.006h-1.318q-2.649,0-2.82,1.831l-.012.208a1.412,1.412,0,0,0,.464,1.086A1.8,1.8,0,0,0,124.756-2.454ZM136.67-13.208l.11,1.526a4.611,4.611,0,0,1,3.8-1.77,3.832,3.832,0,0,1,3.125,1.233,5.752,5.752,0,0,1,1.05,3.687V0h-3.528V-8.467a2.3,2.3,0,0,0-.488-1.633,2.183,2.183,0,0,0-1.624-.508,2.426,2.426,0,0,0-2.234,1.272V0H133.35V-13.208Zm14.978-3.247v3.247h2.258v2.588h-2.258v6.592a1.574,1.574,0,0,0,.281,1.05A1.41,1.41,0,0,0,153-2.661a5.626,5.626,0,0,0,1.038-.085V-.073A7.263,7.263,0,0,1,151.9.244q-3.711,0-3.784-3.748V-10.62h-1.929v-2.588h1.929v-3.247Zm10.3,16.7a6.484,6.484,0,0,1-4.73-1.782A6.335,6.335,0,0,1,155.4-6.287v-.342a7.979,7.979,0,0,1,.769-3.558,5.644,5.644,0,0,1,2.179-2.417,6.116,6.116,0,0,1,3.217-.848,5.482,5.482,0,0,1,4.266,1.709A6.944,6.944,0,0,1,167.383-6.9v1.44h-8.411A3.277,3.277,0,0,0,160-3.381a3.118,3.118,0,0,0,2.179.781,3.808,3.808,0,0,0,3.186-1.477L167.1-2.136a5.3,5.3,0,0,1-2.148,1.752A7.049,7.049,0,0,1,161.951.244Zm-.4-10.852a2.2,2.2,0,0,0-1.7.711,3.683,3.683,0,0,0-.836,2.035h4.907v-.282a2.626,2.626,0,0,0-.635-1.821A2.274,2.274,0,0,0,161.548-10.608Zm15.259.708a9.585,9.585,0,0,0-1.27-.1,2.584,2.584,0,0,0-2.625,1.355V0h-3.528V-13.208h3.333l.1,1.575a3.269,3.269,0,0,1,2.942-1.819,3.7,3.7,0,0,1,1.1.159Zm.708,3.174a7.833,7.833,0,0,1,.757-3.5,5.541,5.541,0,0,1,2.179-2.38,6.357,6.357,0,0,1,3.3-.842,6.014,6.014,0,0,1,4.364,1.636A6.565,6.565,0,0,1,190-7.373l.024.9a6.9,6.9,0,0,1-1.7,4.877A5.9,5.9,0,0,1,183.777.244a5.927,5.927,0,0,1-4.559-1.831,7.025,7.025,0,0,1-1.7-4.98Zm3.528.25A4.937,4.937,0,0,0,181.75-3.6a2.336,2.336,0,0,0,2.026,1,2.341,2.341,0,0,0,2-.984,5.4,5.4,0,0,0,.72-3.148,4.888,4.888,0,0,0-.72-2.861,2.341,2.341,0,0,0-2.026-1.015,2.3,2.3,0,0,0-2,1.009A5.493,5.493,0,0,0,181.042-6.476Z" transform="translate(827.978 14136.019)" fill="#12263f"/>
    <path id="Trazado_904315" data-name="Trazado 904315" d="M12.28-7.727H5.249v4.785H13.5V0H1.587V-17.773h11.89v2.966H5.249v4.236H12.28ZM22.571-3.65a1.137,1.137,0,0,0-.641-1.019,7.28,7.28,0,0,0-2.057-.665q-4.712-.989-4.712-4a3.629,3.629,0,0,1,1.459-2.936,5.884,5.884,0,0,1,3.815-1.178,6.333,6.333,0,0,1,4.022,1.184,3.732,3.732,0,0,1,1.508,3.076H22.437a1.707,1.707,0,0,0-.488-1.251,2.066,2.066,0,0,0-1.526-.494,2.111,2.111,0,0,0-1.379.4,1.272,1.272,0,0,0-.488,1.025,1.087,1.087,0,0,0,.555.946,5.714,5.714,0,0,0,1.874.623,15.3,15.3,0,0,1,2.222.592Q26-6.323,26-3.8a3.445,3.445,0,0,1-1.55,2.924,6.688,6.688,0,0,1-4,1.117A6.985,6.985,0,0,1,17.5-.348a4.946,4.946,0,0,1-2.02-1.624A3.772,3.772,0,0,1,14.746-4.2h3.345a1.842,1.842,0,0,0,.7,1.44,2.76,2.76,0,0,0,1.733.5,2.554,2.554,0,0,0,1.532-.385A1.2,1.2,0,0,0,22.571-3.65ZM33.765-2.6a2.314,2.314,0,0,0,1.587-.537,1.882,1.882,0,0,0,.635-1.428h3.308a4.525,4.525,0,0,1-.732,2.46A4.833,4.833,0,0,1,36.591-.372a6.17,6.17,0,0,1-2.765.616,5.734,5.734,0,0,1-4.468-1.8,7.125,7.125,0,0,1-1.636-4.974v-.232a7.044,7.044,0,0,1,1.624-4.871A5.667,5.667,0,0,1,33.8-13.452a5.555,5.555,0,0,1,3.973,1.41,4.992,4.992,0,0,1,1.52,3.754H35.986a2.424,2.424,0,0,0-.635-1.675,2.116,2.116,0,0,0-1.611-.644,2.125,2.125,0,0,0-1.862.9,5.208,5.208,0,0,0-.629,2.916v.367a5.274,5.274,0,0,0,.623,2.934A2.151,2.151,0,0,0,33.765-2.6Zm6.995-4.126a7.833,7.833,0,0,1,.757-3.5A5.54,5.54,0,0,1,43.7-12.61a6.357,6.357,0,0,1,3.3-.842,6.014,6.014,0,0,1,4.364,1.636,6.565,6.565,0,0,1,1.886,4.443l.024.9a6.9,6.9,0,0,1-1.7,4.877A5.9,5.9,0,0,1,47.021.244a5.927,5.927,0,0,1-4.559-1.831,7.025,7.025,0,0,1-1.7-4.98Zm3.528.25A4.937,4.937,0,0,0,45-3.6a2.336,2.336,0,0,0,2.026,1,2.341,2.341,0,0,0,2-.984,5.4,5.4,0,0,0,.72-3.148,4.888,4.888,0,0,0-.72-2.861A2.341,2.341,0,0,0,47-10.608,2.3,2.3,0,0,0,45-9.6,5.493,5.493,0,0,0,44.287-6.476Zm15.381-9.979v3.247h2.258v2.588H59.668v6.592a1.574,1.574,0,0,0,.281,1.05,1.41,1.41,0,0,0,1.074.317,5.626,5.626,0,0,0,1.038-.085V-.073a7.263,7.263,0,0,1-2.136.317Q56.213.244,56.14-3.5V-10.62H54.211v-2.588H56.14v-3.247Zm10.3,16.7a6.484,6.484,0,0,1-4.73-1.782,6.335,6.335,0,0,1-1.825-4.749v-.342a7.979,7.979,0,0,1,.769-3.558A5.644,5.644,0,0,1,66.364-12.6a6.116,6.116,0,0,1,3.217-.848,5.482,5.482,0,0,1,4.266,1.709A6.944,6.944,0,0,1,75.4-6.9v1.44H66.992a3.277,3.277,0,0,0,1.031,2.075A3.118,3.118,0,0,0,70.2-2.6a3.808,3.808,0,0,0,3.186-1.477l1.733,1.941A5.3,5.3,0,0,1,72.974-.385,7.049,7.049,0,0,1,69.971.244Zm-.4-10.852a2.2,2.2,0,0,0-1.7.711,3.682,3.682,0,0,0-.836,2.035h4.907v-.282A2.626,2.626,0,0,0,71.3-9.964,2.274,2.274,0,0,0,69.568-10.608ZM94.556-7.727H87.524v4.785h8.252V0H83.862V-17.773h11.89v2.966H87.524v4.236h7.031ZM104.846-3.65a1.137,1.137,0,0,0-.641-1.019,7.28,7.28,0,0,0-2.057-.665q-4.712-.989-4.712-4A3.629,3.629,0,0,1,98.9-12.274a5.884,5.884,0,0,1,3.815-1.178,6.333,6.333,0,0,1,4.022,1.184,3.732,3.732,0,0,1,1.508,3.076h-3.528a1.707,1.707,0,0,0-.488-1.251,2.066,2.066,0,0,0-1.526-.494,2.111,2.111,0,0,0-1.379.4,1.272,1.272,0,0,0-.488,1.025,1.087,1.087,0,0,0,.555.946,5.714,5.714,0,0,0,1.874.623,15.3,15.3,0,0,1,2.222.592q2.8,1.025,2.8,3.552a3.445,3.445,0,0,1-1.55,2.924,6.688,6.688,0,0,1-4,1.117,6.985,6.985,0,0,1-2.948-.592,4.946,4.946,0,0,1-2.02-1.624A3.772,3.772,0,0,1,97.021-4.2h3.345a1.842,1.842,0,0,0,.7,1.44,2.76,2.76,0,0,0,1.733.5,2.554,2.554,0,0,0,1.532-.385A1.2,1.2,0,0,0,104.846-3.65Zm17.59-2.832a7.921,7.921,0,0,1-1.385,4.889A4.442,4.442,0,0,1,117.31.244a4.115,4.115,0,0,1-3.235-1.392V5.078h-3.528V-13.208h3.271l.122,1.294a4.146,4.146,0,0,1,3.345-1.538,4.472,4.472,0,0,1,3.8,1.807,8.136,8.136,0,0,1,1.355,4.98Zm-3.528-.269a5.227,5.227,0,0,0-.653-2.853,2.125,2.125,0,0,0-1.9-1,2.309,2.309,0,0,0-2.283,1.273V-3.91a2.348,2.348,0,0,0,2.307,1.31Q118.909-2.6,118.909-6.751ZM132.275,0a3.917,3.917,0,0,1-.354-1.184A4.269,4.269,0,0,1,128.589.244a4.69,4.69,0,0,1-3.217-1.123A3.612,3.612,0,0,1,124.1-3.711a3.733,3.733,0,0,1,1.556-3.223,7.68,7.68,0,0,1,4.5-1.135h1.624v-.757a2.177,2.177,0,0,0-.47-1.465,1.849,1.849,0,0,0-1.483-.549,2.1,2.1,0,0,0-1.4.427,1.451,1.451,0,0,0-.507,1.172H124.39a3.544,3.544,0,0,1,.708-2.124,4.68,4.68,0,0,1,2-1.532A7.3,7.3,0,0,1,130-13.452a5.764,5.764,0,0,1,3.876,1.227,4.292,4.292,0,0,1,1.434,3.448v5.725a6.314,6.314,0,0,0,.525,2.844V0Zm-2.917-2.454A3.038,3.038,0,0,0,130.8-2.8a2.285,2.285,0,0,0,.977-.934V-6.006h-1.318q-2.649,0-2.82,1.831l-.012.208a1.412,1.412,0,0,0,.464,1.086A1.8,1.8,0,0,0,129.358-2.454ZM141.748,0h-3.54V-18.75h3.54ZM144.1-6.7a7.96,7.96,0,0,1,1.385-4.919,4.5,4.5,0,0,1,3.79-1.831,4.045,4.045,0,0,1,3.186,1.44V-18.75h3.54V0H152.82l-.171-1.4A4.151,4.151,0,0,1,149.255.244a4.483,4.483,0,0,1-3.741-1.837A8.216,8.216,0,0,1,144.1-6.7Zm3.528.251a5.243,5.243,0,0,0,.647,2.857,2.106,2.106,0,0,0,1.88.993,2.36,2.36,0,0,0,2.307-1.386V-9.222a2.326,2.326,0,0,0-2.283-1.386Q147.632-10.608,147.632-6.451ZM166.394,0a3.917,3.917,0,0,1-.354-1.184A4.269,4.269,0,0,1,162.708.244a4.69,4.69,0,0,1-3.217-1.123,3.612,3.612,0,0,1-1.276-2.832,3.733,3.733,0,0,1,1.556-3.223,7.68,7.68,0,0,1,4.5-1.135h1.624v-.757a2.177,2.177,0,0,0-.47-1.465,1.849,1.849,0,0,0-1.483-.549,2.1,2.1,0,0,0-1.4.427,1.451,1.451,0,0,0-.507,1.172h-3.528a3.544,3.544,0,0,1,.708-2.124,4.68,4.68,0,0,1,2-1.532,7.3,7.3,0,0,1,2.905-.555A5.764,5.764,0,0,1,168-12.225a4.292,4.292,0,0,1,1.434,3.448v5.725a6.314,6.314,0,0,0,.525,2.844V0Zm-2.917-2.454a3.038,3.038,0,0,0,1.44-.348,2.285,2.285,0,0,0,.977-.934V-6.006h-1.318q-2.649,0-2.82,1.831l-.012.208a1.412,1.412,0,0,0,.464,1.086A1.8,1.8,0,0,0,163.477-2.454Z" transform="translate(385.79 14136.019)" fill="#12263f"/>
    <path id="Trazado_904316" data-name="Trazado 904316" d="M9.475,0l9.475,15.792H0Z" transform="translate(1142.324 14001.377)"/>
    <path id="Trazado_904317" data-name="Trazado 904317" d="M9.475,0l9.475,15.792H0Z" transform="translate(1211.812 13679.211)"/>
    <path id="Trazado_904318" data-name="Trazado 904318" d="M9.475,0l9.475,15.792H0Z" transform="translate(1183.911 13727.642) rotate(90)"/>
    <path id="Trazado_904319" data-name="Trazado 904319" d="M0,0H4.211V48.43H0Z" transform="translate(1149.694 14016.117)"/>
    <path id="Trazado_904320" data-name="Trazado 904320" d="M0,0H4.211V48.43H0Z" transform="translate(1219.181 13682.37)"/>
    <path id="Trazado_904321" data-name="Trazado 904321" d="M0,0H4.211V48.43H0Z" transform="translate(1180.753 13735.012) rotate(90)"/>
  </g>
</svg>
