<svg xmlns="http://www.w3.org/2000/svg" width="945" height="775.608" viewBox="0 0 945 775.608">
  <g id="Grupo_1114974" data-name="Grupo 1114974" transform="translate(-337 -15479.434)">
    <path id="Trazado_901209" data-name="Trazado 901209" d="M201.257,15.976a1.181,1.181,0,0,1,.208.019L787.606,121.152a1.18,1.18,0,0,1,.959,1.335l-12.009,80.831a1.181,1.181,0,0,1-.967.99l-439.9,75.812V780.972a1.18,1.18,0,0,1-1.18,1.18H112.8a1.18,1.18,0,0,1-1.18-1.18V101.76a1.18,1.18,0,0,1,1.012-1.168c18.456-2.657,34.532-8.7,47.782-17.95a92.388,92.388,0,0,0,26.237-28.124,101.36,101.36,0,0,0,7.059-14.045A103.149,103.149,0,0,0,197.779,28.5a75.132,75.132,0,0,0,2.3-11.454,1.181,1.181,0,0,1,1.176-1.073Zm584.8,107.3L202.28,18.539a84.67,84.67,0,0,1-2.2,10.489,105.5,105.5,0,0,1-4.144,12.238,103.766,103.766,0,0,1-7.212,14.385,94.744,94.744,0,0,1-26.9,28.887,101.178,101.178,0,0,1-21.3,11.3,116.805,116.805,0,0,1-12.948,4.168,133.941,133.941,0,0,1-13.6,2.768V779.792H333.332V279.127a1.181,1.181,0,0,1,.98-1.163l440.035-75.836Z" transform="translate(291.256 15472.889)"/>
    <path id="Trazado_901210" data-name="Trazado 901210" d="M179.293.989l2.664,1.064-.875,2.193-1.238-.494c-.068.5-.157,1.113-.27,1.823L177.243,5.2c.205-1.282.325-2.223.39-2.787l1.043.12Zm3.731,1.489,2.664,1.064-.875,2.193L182.148,4.67Zm3.731,1.489,2.664,1.064-.875,2.193L185.879,6.16Zm3.731,1.489,2.664,1.064-.875,2.193-2.664-1.064Zm-13.428.864,2.326.4c-.161.931-.342,1.89-.537,2.851l-2.313-.47C176.722,8.165,176.9,7.229,177.056,6.32Zm17.159.625,2.664,1.064L196,10.2,193.34,9.138Zm3.731,1.489L200.61,9.5l-.875,2.192-2.664-1.064Zm3.731,1.489,2.664,1.064-.875,2.192L200.8,12.117Zm-25.377.291,2.308.5c-.2.936-.418,1.887-.647,2.828l-2.294-.556C175.89,12.062,176.1,11.131,176.3,10.215Zm29.107,1.2,2.664,1.064L207.2,14.67l-2.664-1.064Zm3.731,1.489,2.664,1.064-.875,2.193L208.262,15.1Zm-33.744,1.181,2.288.58c-.236.933-.488,1.876-.749,2.8l-2.273-.639C174.915,15.921,175.162,15,175.393,14.084Zm37.475.308,2.664,1.064-.875,2.193-2.664-1.064Zm3.731,1.489,2.664,1.064-.875,2.192-2.664-1.064Zm3.731,1.489,2.664,1.064-.875,2.192-2.664-1.064Zm-45.982.548,2.266.662c-.27.925-.556,1.858-.849,2.772l-2.248-.721C173.8,19.738,174.082,18.824,174.347,17.919Zm49.712.941,2.664,1.064-.875,2.192-2.664-1.064Zm3.731,1.489,2.664,1.064-.875,2.193-2.664-1.064Zm-54.627,1.362,2.24.744c-.3.917-.624,1.839-.951,2.74l-2.22-.8C172.553,23.511,172.866,22.609,173.164,21.712Zm58.357.127,2.664,1.064L233.31,25.1l-2.664-1.064Zm3.731,1.489,2.664,1.064-.875,2.193-2.664-1.064Zm3.731,1.489,2.664,1.064-.875,2.193-2.664-1.064Zm-67.141.641,2.211.827c-.339.906-.694,1.816-1.054,2.7L170.81,28.1C171.163,27.233,171.51,26.344,171.841,25.458Zm70.871.849,2.664,1.064-.875,2.192L241.837,28.5Zm3.731,1.489,2.664,1.064-.875,2.193-2.664-1.064ZM170.378,29.15l2.177.913c-.374.893-.765,1.789-1.161,2.661l-2.15-.975C169.631,30.9,170.012,30.023,170.378,29.15Zm79.8.135,2.664,1.064-.875,2.193L249.3,31.478Zm3.731,1.489,2.664,1.064-.875,2.193-2.664-1.064Zm3.731,1.489,2.664,1.064-.875,2.193-2.664-1.064Zm-88.865.515,2.138,1c-.411.878-.838,1.757-1.27,2.612l-2.107-1.064C167.953,34.493,168.369,33.636,168.77,32.779Zm92.6.974,2.664,1.064-.875,2.193-2.664-1.064Zm3.731,1.489,2.664,1.064-.875,2.192-2.664-1.064Zm-98.082,1.093,2.094,1.09c-.448.861-.914,1.721-1.383,2.557l-2.058-1.157C166.124,38.012,166.578,37.174,167.014,36.335Zm101.812.4,2.664,1.064-.875,2.193-2.664-1.064Zm3.731,1.489,2.664,1.064-.875,2.193-2.664-1.064Zm3.731,1.489,2.664,1.064-.875,2.193L275.412,41.9Zm-111.182.1,2.043,1.183c-.487.84-.992,1.679-1.5,2.492l-2-1.251C164.141,41.443,164.632,40.627,165.106,39.809ZM280.018,41.2l2.664,1.064-.875,2.193-2.664-1.064Zm3.731,1.489,2.664,1.064-.875,2.193-2.665-1.064Zm-120.709.5,1.984,1.279c-.526.817-1.071,1.63-1.619,2.418l-1.938-1.348C162,44.773,162.529,43.982,163.04,43.189Zm124.439.989,2.664,1.064-.875,2.193L286.6,46.371Zm3.731,1.489,2.665,1.064L293,48.924l-2.664-1.064Zm-130.4.793,1.918,1.376c-.567.79-1.153,1.576-1.742,2.335l-1.865-1.447C159.7,47.989,160.265,47.227,160.815,46.461Zm134.126.7,3.21,1.282L298,49.663l-1.257-.154-.313.784-2.366-.944ZM158.426,49.612l1.843,1.476c-.608.759-1.236,1.513-1.866,2.24l-1.783-1.547C157.229,51.077,157.837,50.348,158.426,49.612Zm137.092.914,2.344.284c-.115.948-.23,1.906-.342,2.848l-2.344-.278C295.287,52.436,295.4,51.475,295.518,50.526Zm-139.645,2.1,1.758,1.575c-.649.725-1.319,1.442-1.991,2.133l-1.692-1.646C154.6,54.022,155.245,53.328,155.872,52.627Zm139.168,1.887,2.345.276c-.112.949-.224,1.91-.332,2.853l-2.345-.27C294.817,56.428,294.929,55.466,295.041,54.514Zm-141.886.977,1.664,1.674c-.69.686-1.4,1.363-2.114,2.014l-1.591-1.744C151.8,56.808,152.488,56.153,153.154,55.491Zm-2.88,2.7,1.561,1.771c-.73.643-1.481,1.276-2.234,1.883L148.12,60C148.846,59.419,149.571,58.808,150.274,58.188Zm144.3.33,2.346.268c-.108.943-.215,1.9-.32,2.833l-2.346-.261C294.361,60.417,294.469,59.462,294.577,58.517ZM147.237,60.7l1.448,1.864c-.768.6-1.557,1.182-2.348,1.74l-1.363-1.928C145.736,61.841,146.5,61.277,147.237,60.7Zm146.892,1.8,2.347.259c-.1.95-.21,1.91-.311,2.855l-2.347-.253C293.919,64.421,294.024,63.458,294.129,62.506Zm-150.08.514,1.327,1.952c-.8.546-1.629,1.08-2.454,1.588l-1.237-2.011C142.481,64.061,143.276,63.546,144.049,63.02Zm-3.328,2.11,1.2,2.033c-.835.493-1.693.973-2.551,1.427l-1.105-2.086C139.091,66.068,139.918,65.605,140.722,65.131ZM293.7,66.5l2.348.25c-.1.95-.2,1.91-.3,2.855l-2.348-.244C293.493,68.419,293.594,67.456,293.7,66.5Zm-156.43.519,1.067,2.106c-.864.438-1.751.862-2.636,1.261l-.97-2.152C135.58,67.854,136.434,67.445,137.266,67.023ZM133.7,68.692l.932,2.169c-.888.382-1.8.749-2.71,1.093l-.834-2.209C131.96,69.414,132.839,69.06,133.7,68.692Zm-3.671,1.442.795,2.223c-.909.325-1.84.635-2.769.923l-.7-2.255C128.249,70.748,129.148,70.448,130.024,70.135Zm163.252.376,2.348.241c-.1.944-.193,1.9-.287,2.836l-2.349-.234C293.083,72.413,293.179,71.457,293.277,70.511Zm-167,.839.66,2.267c-.925.269-1.873.524-2.818.756l-.565-2.292C124.463,71.855,125.379,71.61,126.273,71.349Zm-3.823.992.527,2.3c-.937.215-1.9.414-2.853.594l-.435-2.32C120.614,72.743,121.543,72.55,122.45,72.342Zm-3.872.774.4,2.327c-.947.162-1.916.31-2.881.438l-.311-2.34C116.72,73.416,117.66,73.273,118.578,73.116Zm-3.915.565.277,2.345c-.668.079-1.349.151-2.026.213l-.029-.312h-1.26V73.988l1.071-.1C113.352,73.827,114.014,73.758,114.662,73.681Zm178.212.825,2.349.232c-.094.951-.187,1.912-.277,2.856l-2.35-.225C292.687,76.422,292.781,75.459,292.875,74.506ZM111.624,77.075h2.361v2.869h-2.361Zm180.865,1.431,2.35.222c-.09.952-.179,1.915-.266,2.861l-2.351-.215C292.309,80.426,292.4,79.461,292.489,78.506ZM111.624,81.092h2.361v2.869h-2.361Zm180.495,1.428,2.351.212c-.085.947-.17,1.9-.252,2.844l-2.352-.2C291.948,84.428,292.033,83.469,292.119,82.519ZM111.624,85.109h2.361v2.869h-2.361Zm180.143,1.415,2.352.2c-.081.949-.162,1.909-.24,2.852l-2.353-.194C291.6,88.438,291.685,87.476,291.767,86.524Zm-180.143,2.6h2.361v2.869h-2.361ZM291.433,90.52l2.353.191c-.077.956-.154,1.921-.228,2.87L291.2,93.4C291.279,92.447,291.355,91.479,291.433,90.52ZM111.624,93.142h2.361v2.869h-2.361Zm179.492,1.4,2.354.18c-.073.952-.145,1.913-.214,2.858l-2.355-.172C290.971,96.459,291.043,95.495,291.116,94.54ZM111.624,97.159h2.361v2.869h-2.361Zm179.195,1.4,2.355.169c-.068.948-.135,1.905-.2,2.846l-2.355-.16C290.684,100.466,290.751,99.506,290.819,98.556Zm-179.195,2.621h2.361v2.869h-2.361Zm178.918,1.389,2.356.157c-.063.951-.126,1.912-.185,2.856l-2.356-.148C290.415,104.483,290.478,103.519,290.542,102.565Zm-178.918,2.628h2.361v2.869h-2.361Zm178.661,1.378,2.356.145c-.059.956-.117,1.922-.171,2.871l-2.357-.136C290.168,108.5,290.226,107.53,290.285,106.571ZM111.624,109.21h2.361v2.869h-2.361Zm178.424,1.383,2.357.133c-.054.955-.106,1.919-.156,2.866l-2.358-.123C289.941,112.518,289.994,111.551,290.048,110.593Zm-178.424,2.634h2.361V116.1h-2.361Zm178.209,1.389,2.358.12c-.048.952-.1,1.913-.139,2.857l-2.358-.11C289.737,116.535,289.784,115.571,289.833,114.616Zm-178.209,2.628h2.361v2.869h-2.361Zm178.016,1.392,2.358.106c-.043.949-.084,1.908-.122,2.85l-2.359-.1C289.556,120.55,289.6,119.588,289.64,118.635ZM111.624,121.26h2.361v2.869h-2.361Zm177.847,1.392,2.359.092c-.037.952-.073,1.913-.106,2.856l-2.359-.082C289.4,124.572,289.433,123.608,289.471,122.653Zm-177.847,2.624h2.361v2.869h-2.361Zm177.7,1.392,2.36.078c-.032.955-.061,1.919-.088,2.866l-2.36-.067C289.264,128.6,289.294,127.628,289.326,126.669Zm-177.7,2.625h2.361v2.869h-2.361Zm177.582,1.391,2.36.063c-.026.958-.049,1.926-.07,2.875l-2.36-.052C289.156,132.619,289.18,131.648,289.206,130.686Zm-177.582,2.625h2.361v2.869h-2.361Zm177.487,1.4,2.36.047c-.019.957-.036,1.923-.051,2.871l-2.361-.036C289.075,136.645,289.092,135.675,289.111,134.714Zm-177.487,2.614h2.361V140.2h-2.361Zm177.42,1.414,2.361.031c-.013.956-.023,1.921-.031,2.867l-2.361-.019C289.021,140.671,289.031,139.7,289.044,138.742Zm-177.42,2.6h2.361v2.869h-2.361ZM289,142.769l2.361.014c-.006.955-.009,1.919-.01,2.864l-2.361,0C289,144.7,289,143.729,289,142.769Zm-177.381,2.592h2.361v2.869h-2.361Zm179.732,1.431c0,.955.005,1.918.012,2.863l-2.361.016c-.007-.949-.011-1.917-.012-2.876Zm-179.732,2.586h2.361v2.869h-2.361ZM291.377,150.8c.009.955.02,1.917.035,2.861l-2.361.035c-.014-.949-.026-1.916-.035-2.875Zm-179.753,2.6h2.361v2.869h-2.361Zm179.807,1.412c.017.955.036,1.917.058,2.861l-2.36.055c-.022-.948-.042-1.916-.059-2.875Zm-179.807,2.605h2.361v2.869h-2.361Zm179.893,1.4c.025.955.053,1.917.083,2.861l-2.36.076c-.031-.948-.059-1.916-.084-2.876Zm-179.893,2.617h2.361V164.3h-2.361Zm180.015,1.387c.033.955.07,1.917.11,2.86l-2.359.1c-.039-.948-.077-1.916-.11-2.876Zm-180.015,2.63h2.361v2.869h-2.361ZM291.8,166.817c.042.955.089,1.918.137,2.86l-2.358.121c-.049-.948-.1-1.916-.138-2.877Zm-180.174,2.646h2.361v2.869h-2.361ZM292,170.814c.052.955.108,1.918.166,2.86l-2.356.146c-.059-.948-.115-1.916-.167-2.878ZM111.624,173.48h2.361v2.869h-2.361Zm180.609,1.326c.062.955.128,1.917.2,2.859l-2.355.172c-.069-.948-.136-1.916-.2-2.877ZM111.624,177.5h2.361v2.869h-2.361Zm180.891,1.31c.072.951.149,1.908.228,2.845l-2.352.2c-.08-.943-.157-1.907-.23-2.865Zm-180.891,2.707h2.361v2.869h-2.361ZM292.843,182.8c.084.951.172,1.908.263,2.845l-2.35.228c-.091-.943-.181-1.907-.265-2.865ZM111.624,185.53h2.361V188.4h-2.361Zm181.594,1.253c.1.951.2,1.907.3,2.843l-2.347.259c-.1-.943-.205-1.907-.3-2.865Zm-181.594,2.764h2.361v2.869h-2.361Zm182.02,1.207c.108.95.222,1.9.338,2.838l-2.343.291c-.117-.941-.232-1.9-.341-2.862Zm-182.02,2.81h2.361v2.869h-2.361Zm182.5,1.167c.122.948.25,1.9.379,2.831l-2.338.326c-.131-.939-.26-1.9-.383-2.856Zm-182.5,2.85h2.361v2.869h-2.361Zm183.043,1.113c.136.946.279,1.9.424,2.823l-2.333.364c-.146-.936-.29-1.9-.428-2.85Zm-183.043,2.9h2.361v2.869h-2.361Zm183.645,1.044c.152.944.311,1.892.471,2.817l-2.326.4c-.163-.934-.323-1.892-.476-2.846Zm-183.645,2.973h2.361v2.869h-2.361Zm184.315.97c.169.94.344,1.883.522,2.8l-2.318.448c-.18-.93-.357-1.883-.528-2.834Zm-184.315,3.047h2.361V212.5h-2.361Zm185.057.876c.187.938.381,1.878.578,2.794l-2.308.5c-.2-.927-.4-1.879-.585-2.828Zm-185.057,3.141h2.361v2.869h-2.361Zm185.876.762c.207.934.421,1.87.638,2.78l-2.3.547c-.22-.923-.437-1.871-.647-2.817Zm-185.876,3.255h2.361v2.869h-2.361Zm186.782.635c.227.926.463,1.852.7,2.753l-2.283.6c-.241-.914-.481-1.854-.711-2.794Zm-186.782,3.382h2.361v2.869h-2.361Zm187.78.479c.251.92.511,1.839.772,2.732l-2.265.665c-.266-.907-.53-1.841-.785-2.776ZM111.624,225.7h2.361v2.869h-2.361Zm188.88.291c.276.913.563,1.823.851,2.706l-2.244.733c-.294-.9-.585-1.825-.867-2.755Zm-188.88,3.726h2.361v2.869h-2.361Zm190.091.064c.305.906.622,1.807.94,2.679l-2.218.81c-.325-.89-.648-1.81-.959-2.734Zm1.333,3.739c.338.9.687,1.785,1.039,2.643l-2.185.895c-.36-.878-.717-1.788-1.063-2.705Zm-191.424.214h2.361V236.6h-2.361Zm192.9,3.477c.373.88.758,1.751,1.146,2.587l-2.142.991c-.4-.86-.794-1.754-1.177-2.658Zm-192.9.54h2.361v2.869h-2.361Zm194.526,3.068c.414.862.841,1.712,1.27,2.524l-2.088,1.1c-.443-.839-.883-1.715-1.31-2.6Zm-194.526.949h2.361v2.869h-2.361Zm196.33,2.568c.46.838.935,1.659,1.41,2.439L307.348,248c-.494-.81-.986-1.662-1.464-2.532Zm-196.33,1.449h2.361v2.869h-2.361Zm198.334,1.944c.514.806,1.042,1.587,1.57,2.322l-1.917,1.378c-.554-.77-1.107-1.588-1.644-2.431ZM111.624,249.8h2.361v2.869h-2.361Zm200.568,1.148c.576.761,1.166,1.486,1.754,2.157l-1.775,1.556c-.624-.713-1.25-1.482-1.86-2.287Zm-200.568,2.869h2.361v2.869h-2.361Zm203.069.113c.655.7,1.318,1.343,1.971,1.914l-1.554,1.777c-.711-.622-1.431-1.321-2.14-2.077Zm2.81,2.612a13.388,13.388,0,0,0,2.19,1.451l-.938,1.86,1.772.317-.5,2.824-2.324-.415.485-2.717a17.132,17.132,0,0,1-2.145-1.467Zm-205.879,1.292h2.361V260.7h-2.361Zm0,4.017h2.361v2.869h-2.361ZM317.5,263.709l2.324.415-.5,2.824-2.324-.415Zm-205.873,2.159h2.361v2.869h-2.361Zm205.167,1.8,2.324.415-.5,2.824-2.324-.415Zm-205.167,2.221h2.361v2.869h-2.361Zm204.461,1.733,2.324.415-.5,2.824-2.324-.415ZM111.624,273.9h2.361v2.869h-2.361Zm203.754,1.67,2.324.415-.5,2.824-2.324-.415Zm-203.754,2.347h2.361v2.869h-2.361Zm203.048,1.608,2.324.415-.5,2.824-2.324-.415Zm-203.048,2.409h2.361V284.8h-2.361Zm202.342,1.545,2.324.415-.5,2.824-2.324-.415Zm-202.342,2.472h2.361v2.869h-2.361Zm201.635,1.483,2.324.415-.5,2.824-2.324-.415Zm-201.635,2.534h2.361v2.869h-2.361Zm200.929,1.42,2.324.415-.5,2.824-2.324-.415Zm-200.929,2.6h2.361v2.869h-2.361Zm200.223,1.357,2.324.415-.5,2.824-2.324-.415ZM111.624,298h2.361v2.869h-2.361ZM311.141,299.3l2.324.415-.5,2.824-2.324-.415ZM111.624,302.02h2.361v2.869h-2.361Zm198.81,1.232,2.324.415-.5,2.824-2.324-.415Zm-198.81,2.785h2.361v2.869h-2.361Zm198.1,1.17,2.324.415-.5,2.824-2.324-.415Zm-198.1,2.847h2.361v2.869h-2.361Zm197.4,1.107,2.324.415-.5,2.824-2.324-.415Zm-197.4,2.91h2.361v2.869h-2.361Zm196.691,1.044,2.324.415-.5,2.824-2.324-.415Zm-196.691,2.972h2.361v2.869h-2.361Zm195.985.982,2.324.415-.5,2.824-2.324-.415ZM111.624,322.1h2.361v2.869h-2.361Zm195.279.919,2.324.415-.5,2.824-2.324-.415Zm-195.279,3.1h2.361v2.869h-2.361Zm194.572.857,2.324.415-.5,2.824-2.324-.415Zm-194.572,3.16h2.361v2.869h-2.361Zm193.866.794,2.324.415-.5,2.824-2.324-.415Zm-193.866,3.223h2.361v2.869h-2.361Zm193.16.731,2.324.415-.5,2.824-2.324-.415Zm-193.16,3.285h2.361v2.869h-2.361Zm192.453.669,2.324.415-.5,2.824-2.324-.415Zm-192.453,3.348h2.361v2.869h-2.361Zm191.747.606,2.324.415-.5,2.824-2.324-.415Zm-191.747,3.41h2.361v2.869h-2.361Zm191.041.544,2.324.415-.5,2.824-2.324-.415Zm-191.041,3.473h2.361v2.869h-2.361Zm190.334.481,2.324.415-.5,2.824-2.324-.415Zm-190.334,3.536h2.361v2.869h-2.361Zm189.628.419,2.324.415-.5,2.824-2.324-.415Zm-189.628,3.6h2.361v2.869h-2.361Zm188.922.356,2.324.415-.5,2.824-2.324-.415Zm-188.922,3.661h2.361v2.869h-2.361Zm188.215.293,2.324.415-.5,2.824-2.324-.415ZM111.624,366.29h2.361v2.869h-2.361Zm187.509.231,2.324.415-.5,2.824-2.324-.415Zm-187.509,3.786h2.361v2.869h-2.361Zm186.8.168,2.324.415-.5,2.824-2.324-.415Zm-186.8,3.849h2.361v2.869h-2.361Zm186.1.106,2.324.415-.5,2.824-2.324-.415Zm-186.1,3.911h2.361v2.869h-2.361Zm185.39.043,2.324.415-.5,2.824-2.324-.415Zm-.706,3.954,2.324.415-.5,2.824-2.324-.415Zm-184.684.02h2.361v2.869h-2.361ZM295.6,386.292l2.324.415-.5,2.824-2.324-.415Zm-183.978.082h2.361v2.869h-2.361ZM294.9,390.246l2.324.415-.5,2.824-2.324-.415Zm-183.271.145h2.361v2.869h-2.361Zm182.565,3.81,2.324.415-.5,2.824-2.324-.415Zm-182.565.207h2.361v2.869h-2.361Zm181.859,3.747,2.324.415-.5,2.824-2.324-.415Zm-181.859.27h2.361v2.869h-2.361Zm181.152,3.684,2.324.415-.5,2.824-2.324-.415Zm-181.152.332h2.361v2.869h-2.361Zm180.446,3.622,2.324.415-.5,2.824-2.324-.415Zm-180.446.395h2.361v2.869h-2.361Zm179.74,3.559,2.324.415-.5,2.824-2.324-.415Zm-179.74.458h2.361v2.869h-2.361Zm179.033,3.5,2.324.415-.5,2.824-2.324-.415Zm-179.033.52h2.361v2.869h-2.361Zm178.327,3.434,2.324.415-.5,2.824-2.324-.415Zm-178.327.583h2.361v2.869h-2.361Zm177.621,3.372,2.324.415-.5,2.824-2.324-.415Zm-177.621.645h2.361v2.869h-2.361Zm176.914,3.309,2.324.415-.5,2.824-2.324-.415Zm-176.914.708h2.361v2.869h-2.361Zm176.208,3.246,2.324.415-.5,2.824-2.324-.415Zm-176.208.771h2.361v2.869h-2.361Zm175.5,3.184,2.324.415-.5,2.824-2.324-.415Zm-175.5.833h2.361v2.869h-2.361Zm174.8,3.121,2.324.415-.5,2.824-2.324-.415Zm-174.8.9h2.361v2.869h-2.361Zm174.089,3.059,2.324.415-.5,2.824-2.324-.415Zm-174.089.958h2.361v2.869h-2.361Zm173.383,3,2.324.415-.5,2.824-2.324-.415Zm-173.383,1.021h2.361V449.5h-2.361ZM284.3,449.56l2.324.415-.5,2.824-2.324-.415Zm-172.676,1.083h2.361v2.869h-2.361Zm171.97,2.871,2.324.415-.5,2.824-2.324-.415Zm-171.97,1.146h2.361v2.869h-2.361Zm171.264,2.808,2.324.415-.5,2.824-2.324-.415Zm-171.264,1.209h2.361v2.869h-2.361Zm170.558,2.746,2.324.415-.5,2.824-2.324-.415Zm-170.558,1.271h2.361v2.869h-2.361Zm169.851,2.683,2.324.415-.5,2.824-2.324-.415Zm-169.851,1.334h2.361v2.869h-2.361Zm169.145,2.62,2.324.415-.5,2.824-2.324-.415Zm-169.145,1.4h2.361V473.6h-2.361Zm168.439,2.558,2.324.415-.5,2.824-2.324-.415Zm-168.439,1.459h2.361v2.869h-2.361Zm167.732,2.5,2.324.415-.5,2.824-2.324-.415Zm-167.732,1.522h2.361v2.51H116v2.361h-2.869v-2h-1.507Zm167.026,2.433.434.077h.54v.1l1.35.241-.361,2.023h-2.79v-2.361h.814Zm-161.5.077h2.869v2.361h-2.869Zm4.017,0h2.869v2.361h-2.869Zm4.017,0h2.869v2.361h-2.869Zm4.017,0h2.869v2.361H129.2Zm4.017,0h2.869v2.361h-2.869Zm4.017,0H140.1v2.361h-2.869Zm4.017,0h2.869v2.361h-2.869Zm4.017,0h2.869v2.361h-2.869Zm4.017,0h2.869v2.361h-2.869Zm4.017,0h2.869v2.361H153.3Zm4.017,0h2.869v2.361h-2.869Zm4.017,0H164.2v2.361h-2.869Zm4.017,0h2.869v2.361H165.35Zm4.017,0h2.869v2.361h-2.869Zm4.017,0h2.869v2.361h-2.869Zm4.017,0h2.869v2.361H177.4Zm4.017,0h2.869v2.361h-2.869Zm4.017,0H188.3v2.361h-2.869Zm4.017,0h2.869v2.361h-2.869Zm4.017,0h2.869v2.361h-2.869Zm4.017,0h2.869v2.361h-2.869Zm4.017,0h2.869v2.361H201.5Zm4.017,0h2.869v2.361h-2.869Zm4.017,0H212.4v2.361h-2.869Zm4.017,0h2.869v2.361h-2.869Zm4.017,0h2.869v2.361h-2.869Zm4.017,0h2.869v2.361h-2.869Zm4.017,0h2.869v2.361H225.6Zm4.017,0h2.869v2.361H229.62Zm4.017,0h2.869v2.361h-2.869Zm4.017,0h2.869v2.361h-2.869Zm4.017,0h2.869v2.361h-2.869Zm4.017,0h2.869v2.361h-2.869Zm4.017,0h2.869v2.361H249.7Zm4.017,0h2.869v2.361h-2.869Zm4.017,0h2.869v2.361h-2.869Zm4.017,0h2.869v2.361h-2.869Zm4.017,0h2.869v2.361h-2.869Zm4.017,0h2.869v2.361h-2.869Zm4.017,0h2.869v2.361h-2.869Z" transform="translate(291.256 15479.031)" fill="#9d9d9c"/>
    <path id="Trazado_901211" data-name="Trazado 901211" d="M1267.569,275.185h-16.628a.3.3,0,1,1,0-.59h16.372l10.706-76.166-15.766-4.548a.3.3,0,0,1,.164-.567l16.012,4.619a.3.3,0,0,1,.21.325l-10.777,76.674A.3.3,0,0,1,1267.569,275.185Z" transform="translate(-175.521 15400.22)"/>
    <path id="Línea_1895" data-name="Línea 1895" d="M.061,7.977l-.4-2.327,2.828-.484.4,2.327ZM4.02,7.3l-.4-2.327L6.45,4.489l.4,2.327ZM7.98,6.623,7.582,4.3l2.828-.484.4,2.327Zm3.959-.677-.4-2.327,2.828-.484.4,2.327ZM15.9,5.269l-.4-2.327,2.828-.484.4,2.327Zm3.959-.677-.4-2.327,2.828-.484.4,2.327Zm3.959-.677-.4-2.327L26.247,1.1l.4,2.327Zm3.959-.677-.4-2.327L30.207.427l.4,2.327Zm3.959-.677-.4-2.327L34.166-.25l.4,2.327ZM35.7,1.884,35.3-.443l2.828-.484.4,2.327Zm3.959-.677-.4-2.327L42.085-1.6l.4,2.327ZM43.614.53l-.4-2.327,1.019-.174.4,2.327Z" transform="translate(628.447 15737.812)" fill="#9d9d9c"/>
    <path id="Línea_1896" data-name="Línea 1896" d="M-1,45.216l-.063-2.868L1.3,42.3l.063,2.868ZM-1.09,41.2l-.063-2.868,2.36-.052.063,2.868Zm-.089-4.016-.063-2.868,2.36-.052.063,2.868Zm-.089-4.016L-1.33,30.3l2.36-.052.063,2.868Zm-.089-4.016-.063-2.868,2.36-.052L1,29.1Zm-.089-4.016-.063-2.868,2.36-.052.063,2.868Zm-.089-4.016L-1.6,18.253.764,18.2l.063,2.868Zm-.089-4.016-.063-2.868,2.36-.052.063,2.868Zm-.089-4.016-.063-2.868,2.36-.052L.65,13.037ZM-1.8,9.073l-.063-2.868L.5,6.153.561,9.021Zm-.089-4.016-.063-2.868,2.36-.052L.472,5.005Zm-.089-4.016L-2,.008.361-.044.384.989Z" transform="translate(618.801 15758.867)" fill="#9d9d9c"/>
    <path id="Línea_1897" data-name="Línea 1897" d="M14.6.18H-.41A.59.59,0,0,1-1-.41.59.59,0,0,1-.41-1H14.6a.59.59,0,0,1,.59.59A.59.59,0,0,1,14.6.18Z" transform="translate(613.252 15734.311)"/>
    <path id="Trazado_901212" data-name="Trazado 901212" d="M492.8,423.954v8.738l6.579-4.18Z" transform="translate(135.047 15305.698)"/>
    <path id="Línea_1898" data-name="Línea 1898" d="M-.41,15.188A.59.59,0,0,1-1,14.6V-.41A.59.59,0,0,1-.41-1a.59.59,0,0,1,.59.59V14.6A.59.59,0,0,1-.41,15.188Z" transform="translate(612.294 15756.335)"/>
    <path id="Trazado_901213" data-name="Trazado 901213" d="M466.883,493.9h-8.738l4.18,6.579Z" transform="translate(149.25 15277.034)"/>
    <path id="Línea_1899" data-name="Línea 1899" d="M185.3,231.454a1.178,1.178,0,0,1-.92-.44L-1.739-.079a1.18,1.18,0,0,1,.179-1.66A1.18,1.18,0,0,1,.1-1.56L186.218,229.533a1.18,1.18,0,0,1-.919,1.921Z" transform="translate(461.023 15551.181)"/>
    <path id="Trazado_901214" data-name="Trazado 901214" d="M488.458,535.242a1.182,1.182,0,0,1-1.171-1.341,109.34,109.34,0,0,1,2.65-12.236c1.156-4.316,2.528-8.657,4.078-12.9a148.2,148.2,0,0,1,6.608-15.377,118.639,118.639,0,0,1,22.92-32.019,97.126,97.126,0,0,1,17.372-13.532,94.217,94.217,0,0,1,10.39-5.458,96.936,96.936,0,0,1,11.606-4.322,1.18,1.18,0,0,1,.682,2.26c-32.871,9.913-51.22,34.87-60.824,54.06a150.456,150.456,0,0,0-10.531,27.832,109.54,109.54,0,0,0-2.61,12.014A1.181,1.181,0,0,1,488.458,535.242Z" transform="translate(137.312 15299.939)"/>
    <path id="Trazado_901215" data-name="Trazado 901215" d="M378.878,332.787a1.175,1.175,0,0,1-.6-.165c-5.863-3.469-11.673-7.214-17.27-11.132-5.353-3.747-10.652-7.752-15.75-11.9a282.932,282.932,0,0,1-27.164-25.3,304.909,304.909,0,0,1-38.551-50.8c-4.4-7.246-8.534-14.721-12.287-22.218-3-6-5.771-12.025-8.227-17.912-4.188-10.039-6.045-16.295-6.064-16.357a1.18,1.18,0,0,1,2.265-.667c.018.061,1.853,6.234,6,16.18A301.832,301.832,0,0,0,281.6,232.335c17.46,28.737,48.613,69.111,97.878,98.256a1.181,1.181,0,0,1-.6,2.2Z" transform="translate(233.353 15407.519)"/>
    <path id="Trazado_901216" data-name="Trazado 901216" d="M378.879,332.787a1.181,1.181,0,0,1-1.113-.788,301.914,301.914,0,0,0-76.775-118.725,268.11,268.11,0,0,0-33.522-27.04,149.434,149.434,0,0,0-13.906-8.51,1.18,1.18,0,0,1,1.071-2.1,148.22,148.22,0,0,1,14.088,8.611c5.032,3.4,10.151,7.148,15.215,11.154,6.328,5.006,12.588,10.425,18.606,16.106a298.776,298.776,0,0,1,41.212,48.226,304.186,304.186,0,0,1,19.514,32.7c3.121,6.063,6.084,12.327,8.807,18.619,2.847,6.577,5.51,13.367,7.916,20.18a1.181,1.181,0,0,1-1.113,1.574Z" transform="translate(233.353 15407.519)"/>
    <path id="Línea_1900" data-name="Línea 1900" d="M42.664,43.779a1.177,1.177,0,0,1-.834-.345L-1.654.016a1.18,1.18,0,0,1,0-1.669,1.18,1.18,0,0,1,1.669,0L43.5,41.763a1.18,1.18,0,0,1-.834,2.016Z" transform="translate(449.117 15532.936)"/>
    <path id="Línea_1901" data-name="Línea 1901" d="M-.82,10.253a1.177,1.177,0,0,1-.835-.346,1.18,1.18,0,0,1,0-1.669L8.238-1.654a1.18,1.18,0,0,1,1.669,0,1.18,1.18,0,0,1,0,1.669L.015,9.907A1.177,1.177,0,0,1-.82,10.253Z" transform="translate(488.27 15571.407)"/>
    <path id="Línea_1902" data-name="Línea 1902" d="M-.815,16.035A1.18,1.18,0,0,1-2,14.855L-2-.819A1.18,1.18,0,0,1-.82-2,1.18,1.18,0,0,1,.361-.82l0,15.674A1.18,1.18,0,0,1-.815,16.035Z" transform="translate(608.287 15512.112)"/>
    <path id="Línea_1903" data-name="Línea 1903" d="M-.82,22.145a1.177,1.177,0,0,1-.835-.346,1.18,1.18,0,0,1,0-1.669L20.13-1.654a1.18,1.18,0,0,1,1.669,0,1.18,1.18,0,0,1,0,1.669L.015,21.8A1.177,1.177,0,0,1-.82,22.145Z" transform="translate(560.701 15677.775)"/>
    <path id="Línea_1904" data-name="Línea 1904" d="M14.6.18H-.41A.59.59,0,0,1-1-.41.59.59,0,0,1-.41-1H14.6a.59.59,0,0,1,.59.59A.59.59,0,0,1,14.6.18Z" transform="translate(586.292 15520.262)"/>
    <path id="Trazado_901217" data-name="Trazado 901217" d="M447.124,61.28v8.738l6.579-4.18Z" transform="translate(153.766 15454.323)"/>
    <path id="Trazado_904322" data-name="Trazado 904322" d="M9.027-3.535H3.368L2.1,0H.26L5.418-13.508H6.977L12.144,0H10.316ZM3.906-4.991H8.5L6.2-11.309ZM15.558,0H13.842V-14.25h1.716Zm5.075-12.469v2.431h1.874v1.327H20.633v6.233a1.393,1.393,0,0,0,.25.906,1.054,1.054,0,0,0,.854.3,4.155,4.155,0,0,0,.816-.111V0a5.005,5.005,0,0,1-1.317.184A2.137,2.137,0,0,1,19.5-.51a2.989,2.989,0,0,1-.584-1.976V-8.711H17.089v-1.327h1.828v-2.431ZM30.708-.993A3.646,3.646,0,0,1,27.767.186a3.12,3.12,0,0,1-2.445-.932,4.036,4.036,0,0,1-.849-2.76v-6.531H26.19v6.485q0,2.282,1.855,2.282a2.569,2.569,0,0,0,2.616-1.466v-7.3h1.716V0H30.745ZM39.837-8.5a5.143,5.143,0,0,0-.844-.065A2.262,2.262,0,0,0,36.7-7.125V0H34.985V-10.038h1.67l.028,1.16a2.672,2.672,0,0,1,2.394-1.345,1.753,1.753,0,0,1,.761.13ZM47.24,0A3.605,3.605,0,0,1,47-1.058,3.829,3.829,0,0,1,44.142.186a3.543,3.543,0,0,1-2.435-.84,2.716,2.716,0,0,1-.951-2.129,2.838,2.838,0,0,1,1.192-2.435A5.621,5.621,0,0,1,45.3-6.086h1.67v-.789a1.928,1.928,0,0,0-.538-1.433,2.163,2.163,0,0,0-1.586-.533,2.5,2.5,0,0,0-1.54.464,1.367,1.367,0,0,0-.622,1.123H40.959a2.369,2.369,0,0,1,.533-1.452A3.641,3.641,0,0,1,42.94-9.815a4.869,4.869,0,0,1,2.009-.408,3.968,3.968,0,0,1,2.718.867,3.129,3.129,0,0,1,1.021,2.389v4.62a5.649,5.649,0,0,0,.353,2.2V0ZM44.392-1.308a3.016,3.016,0,0,0,1.531-.417,2.525,2.525,0,0,0,1.048-1.085v-2.06H45.626q-3.154,0-3.154,1.846a1.562,1.562,0,0,0,.538,1.262A2.068,2.068,0,0,0,44.392-1.308ZM55.664-5.1a5.88,5.88,0,0,1,1.095-3.716,3.462,3.462,0,0,1,2.867-1.406,3.481,3.481,0,0,1,2.792,1.206V-14.25h1.716V0H62.557l-.083-1.076A3.5,3.5,0,0,1,59.607.186a3.429,3.429,0,0,1-2.844-1.429,5.947,5.947,0,0,1-1.1-3.729Zm1.716.195a4.452,4.452,0,0,0,.705,2.672,2.279,2.279,0,0,0,1.948.965,2.5,2.5,0,0,0,2.384-1.466V-7.348a2.523,2.523,0,0,0-2.366-1.419,2.29,2.29,0,0,0-1.967.974A4.9,4.9,0,0,0,57.38-4.908ZM70.962.186a4.386,4.386,0,0,1-3.321-1.341,4.976,4.976,0,0,1-1.28-3.586v-.315a6.024,6.024,0,0,1,.571-2.667,4.451,4.451,0,0,1,1.6-1.837,4.012,4.012,0,0,1,2.222-.663,3.759,3.759,0,0,1,3.043,1.29,5.583,5.583,0,0,1,1.085,3.692v.714h-6.8a3.568,3.568,0,0,0,.867,2.4,2.727,2.727,0,0,0,2.111.914,2.989,2.989,0,0,0,1.54-.371,3.87,3.87,0,0,0,1.1-.983l1.048.816A4.215,4.215,0,0,1,70.962.186Zm-.213-9A2.289,2.289,0,0,0,69-8.057a3.675,3.675,0,0,0-.872,2.12h5.028v-.13a3.269,3.269,0,0,0-.705-2.027A2.155,2.155,0,0,0,70.749-8.813ZM91.771-4.286A4.97,4.97,0,0,1,90.19-.979,5.184,5.184,0,0,1,86.65.186a4.76,4.76,0,0,1-3.836-1.716,6.905,6.905,0,0,1-1.443-4.592v-1.3a7.7,7.7,0,0,1,.673-3.312,5.024,5.024,0,0,1,1.906-2.194,5.308,5.308,0,0,1,2.857-.765,4.881,4.881,0,0,1,3.451,1.2,5.029,5.029,0,0,1,1.512,3.326H89.981a3.881,3.881,0,0,0-1.007-2.345,3.046,3.046,0,0,0-2.166-.726,3.187,3.187,0,0,0-2.677,1.263,5.8,5.8,0,0,0-.969,3.593v1.309a5.959,5.959,0,0,0,.918,3.5,2.968,2.968,0,0,0,2.57,1.3,3.428,3.428,0,0,0,2.278-.673,3.733,3.733,0,0,0,1.053-2.343ZM100.13,0a3.605,3.605,0,0,1-.241-1.058A3.829,3.829,0,0,1,97.032.186,3.543,3.543,0,0,1,94.6-.654a2.716,2.716,0,0,1-.951-2.129,2.838,2.838,0,0,1,1.192-2.435,5.621,5.621,0,0,1,3.354-.867h1.67v-.789a1.928,1.928,0,0,0-.538-1.433,2.163,2.163,0,0,0-1.586-.533,2.5,2.5,0,0,0-1.54.464,1.367,1.367,0,0,0-.622,1.123H93.85a2.369,2.369,0,0,1,.533-1.452A3.641,3.641,0,0,1,95.83-9.815a4.869,4.869,0,0,1,2.009-.408,3.968,3.968,0,0,1,2.718.867,3.129,3.129,0,0,1,1.021,2.389v4.62a5.649,5.649,0,0,0,.353,2.2V0ZM97.282-1.308a3.016,3.016,0,0,0,1.531-.417,2.525,2.525,0,0,0,1.048-1.085v-2.06H98.516q-3.154,0-3.154,1.846A1.562,1.562,0,0,0,95.9-1.763,2.068,2.068,0,0,0,97.282-1.308ZM103.851-5.1a5.88,5.88,0,0,1,1.095-3.716,3.462,3.462,0,0,1,2.867-1.406A3.481,3.481,0,0,1,110.6-9.018V-14.25h1.716V0h-1.577l-.083-1.076A3.5,3.5,0,0,1,107.793.186a3.429,3.429,0,0,1-2.844-1.429,5.947,5.947,0,0,1-1.1-3.729Zm1.716.195a4.452,4.452,0,0,0,.705,2.672,2.279,2.279,0,0,0,1.948.965A2.5,2.5,0,0,0,110.6-2.737V-7.348a2.523,2.523,0,0,0-2.366-1.419,2.29,2.29,0,0,0-1.967.974A4.9,4.9,0,0,0,105.567-4.908ZM119.149.186a4.386,4.386,0,0,1-3.321-1.341,4.976,4.976,0,0,1-1.28-3.586v-.315a6.024,6.024,0,0,1,.571-2.667,4.451,4.451,0,0,1,1.6-1.837,4.012,4.012,0,0,1,2.222-.663,3.759,3.759,0,0,1,3.043,1.29,5.583,5.583,0,0,1,1.085,3.692v.714h-6.8a3.568,3.568,0,0,0,.867,2.4,2.727,2.727,0,0,0,2.111.914,2.989,2.989,0,0,0,1.54-.371,3.87,3.87,0,0,0,1.1-.983l1.048.816A4.215,4.215,0,0,1,119.149.186Zm-.213-9a2.289,2.289,0,0,0-1.744.756,3.675,3.675,0,0,0-.872,2.12h5.028v-.13a3.269,3.269,0,0,0-.705-2.027A2.155,2.155,0,0,0,118.936-8.813ZM129.9-8.5a5.143,5.143,0,0,0-.844-.065,2.262,2.262,0,0,0-2.292,1.438V0h-1.716V-10.038h1.67l.028,1.16a2.672,2.672,0,0,1,2.394-1.345,1.753,1.753,0,0,1,.761.13ZM137.3,0a3.605,3.605,0,0,1-.241-1.058A3.829,3.829,0,0,1,134.206.186a3.543,3.543,0,0,1-2.435-.84,2.716,2.716,0,0,1-.951-2.129,2.838,2.838,0,0,1,1.192-2.435,5.621,5.621,0,0,1,3.354-.867h1.67v-.789a1.928,1.928,0,0,0-.538-1.433,2.163,2.163,0,0,0-1.586-.533,2.5,2.5,0,0,0-1.54.464,1.367,1.367,0,0,0-.622,1.123h-1.726a2.369,2.369,0,0,1,.533-1.452A3.641,3.641,0,0,1,133-9.815a4.869,4.869,0,0,1,2.009-.408,3.968,3.968,0,0,1,2.718.867,3.129,3.129,0,0,1,1.021,2.389v4.62a5.648,5.648,0,0,0,.353,2.2V0Zm-2.848-1.308a3.016,3.016,0,0,0,1.531-.417,2.525,2.525,0,0,0,1.048-1.085v-2.06H135.69q-3.154,0-3.154,1.846a1.562,1.562,0,0,0,.538,1.262A2.068,2.068,0,0,0,134.457-1.308Zm16.606-5.937h3.767v1.624h-3.767v4.268h-1.726V-5.622h-3.767V-7.246h3.767v-3.943h1.726Zm18.573-2.737a3.137,3.137,0,0,1-.533,1.8,3.63,3.63,0,0,1-1.443,1.234,3.872,3.872,0,0,1,1.675,1.327,3.338,3.338,0,0,1,.617,1.976,3.53,3.53,0,0,1-1.183,2.792A4.544,4.544,0,0,1,165.656.186a4.524,4.524,0,0,1-3.122-1.044,3.546,3.546,0,0,1-1.174-2.788,3.438,3.438,0,0,1,.6-1.976,3.724,3.724,0,0,1,1.656-1.336A3.54,3.54,0,0,1,162.2-8.192a3.181,3.181,0,0,1-.52-1.791,3.492,3.492,0,0,1,1.095-2.709,4.107,4.107,0,0,1,2.885-1,4.11,4.11,0,0,1,2.881,1A3.484,3.484,0,0,1,169.636-9.982Zm-1.4,6.3a2.49,2.49,0,0,0-.719-1.846,2.55,2.55,0,0,0-1.879-.714,2.505,2.505,0,0,0-1.86.705,2.518,2.518,0,0,0-.7,1.855,2.4,2.4,0,0,0,.682,1.809,2.617,2.617,0,0,0,1.9.659,2.61,2.61,0,0,0,1.893-.663A2.392,2.392,0,0,0,168.235-3.683Zm-2.579-8.6a2.214,2.214,0,0,0-1.637.626,2.3,2.3,0,0,0-.626,1.7,2.289,2.289,0,0,0,.617,1.665,2.19,2.19,0,0,0,1.647.635,2.19,2.19,0,0,0,1.647-.635,2.289,2.289,0,0,0,.617-1.665,2.29,2.29,0,0,0-.64-1.679A2.183,2.183,0,0,0,165.656-12.283ZM181.02-1.215a2.472,2.472,0,0,0,1.6-.557,1.958,1.958,0,0,0,.761-1.392h1.624a3.112,3.112,0,0,1-.594,1.642,3.911,3.911,0,0,1-1.461,1.243,4.216,4.216,0,0,1-1.934.464,4.135,4.135,0,0,1-3.261-1.368,5.45,5.45,0,0,1-1.211-3.743v-.288a6.043,6.043,0,0,1,.538-2.607,4.1,4.1,0,0,1,1.545-1.772,4.388,4.388,0,0,1,2.38-.631,4.026,4.026,0,0,1,2.806,1.011,3.614,3.614,0,0,1,1.192,2.625h-1.624a2.365,2.365,0,0,0-.738-1.6,2.294,2.294,0,0,0-1.637-.626,2.4,2.4,0,0,0-2.027.942,4.422,4.422,0,0,0-.719,2.723v.325a4.334,4.334,0,0,0,.714,2.672A2.414,2.414,0,0,0,181.02-1.215Zm7.533-8.823.046,1.113a3.707,3.707,0,0,1,2.978-1.3,2.87,2.87,0,0,1,2.867,1.614,3.8,3.8,0,0,1,1.3-1.169,3.85,3.85,0,0,1,1.9-.445q3.3,0,3.358,3.5V0h-1.716V-6.624a2.3,2.3,0,0,0-.492-1.61,2.165,2.165,0,0,0-1.651-.533,2.276,2.276,0,0,0-1.586.571,2.315,2.315,0,0,0-.733,1.535V0H193.1V-6.578a1.915,1.915,0,0,0-2.143-2.189,2.3,2.3,0,0,0-2.31,1.438V0h-1.716V-10.038Z" transform="translate(353.199 16214.831) rotate(-90)"/>
    <path id="Trazado_904323" data-name="Trazado 904323" d="M0,0H945V775.608H0Z" transform="translate(337 15479.434)" fill="none"/>
    <path id="Trazado_904324" data-name="Trazado 904324" d="M4.627,0H3.447V-7.827l-2.368.87V-8.023L4.443-9.287h.184Zm3.8.793H7.414L11.273-9.242h1ZM19.481,0H13.425V-.844l3.2-3.555a7.6,7.6,0,0,0,.981-1.311,2.188,2.188,0,0,0,.27-1.044,1.658,1.658,0,0,0-.438-1.187A1.531,1.531,0,0,0,16.269-8.4a1.814,1.814,0,0,0-1.362.5,1.9,1.9,0,0,0-.486,1.387H13.248a2.726,2.726,0,0,1,.822-2.063,3.047,3.047,0,0,1,2.2-.787,2.928,2.928,0,0,1,2.038.676,2.306,2.306,0,0,1,.749,1.8,5.287,5.287,0,0,1-1.739,3.25L14.841-.958h4.64Zm4.3-3.491a4.023,4.023,0,0,1,.749-2.542A2.369,2.369,0,0,1,26.489-7,2.382,2.382,0,0,1,28.4-6.17V-9.75h1.174V0H28.495l-.057-.736a2.391,2.391,0,0,1-1.961.863,2.346,2.346,0,0,1-1.946-.978A4.069,4.069,0,0,1,23.778-3.4Zm1.174.133a3.046,3.046,0,0,0,.482,1.828,1.56,1.56,0,0,0,1.333.66,1.713,1.713,0,0,0,1.631-1V-5.027A1.726,1.726,0,0,0,26.781-6a1.567,1.567,0,0,0-1.346.667A3.354,3.354,0,0,0,24.953-3.358ZM34.246.127A3,3,0,0,1,31.973-.79,3.4,3.4,0,0,1,31.1-3.244v-.216a4.121,4.121,0,0,1,.39-1.825,3.045,3.045,0,0,1,1.092-1.257A2.745,2.745,0,0,1,34.1-7a2.572,2.572,0,0,1,2.082.882,3.82,3.82,0,0,1,.743,2.526V-3.1H32.271a2.441,2.441,0,0,0,.594,1.641,1.866,1.866,0,0,0,1.444.625,2.045,2.045,0,0,0,1.054-.254,2.648,2.648,0,0,0,.755-.673l.717.559A2.884,2.884,0,0,1,34.246.127ZM34.1-6.03a1.566,1.566,0,0,0-1.193.517,2.515,2.515,0,0,0-.6,1.45h3.44v-.089a2.237,2.237,0,0,0-.482-1.387A1.475,1.475,0,0,0,34.1-6.03ZM39.559,0H38.384V-9.75h1.174ZM48.9,0a2.467,2.467,0,0,1-.165-.724,2.62,2.62,0,0,1-1.955.851A2.424,2.424,0,0,1,45.11-.448,1.859,1.859,0,0,1,44.459-1.9a1.942,1.942,0,0,1,.816-1.666,3.846,3.846,0,0,1,2.295-.594h1.143V-4.7a1.319,1.319,0,0,0-.368-.981,1.48,1.48,0,0,0-1.085-.365,1.712,1.712,0,0,0-1.054.317.935.935,0,0,0-.425.768H44.6a1.621,1.621,0,0,1,.365-.993,2.491,2.491,0,0,1,.99-.759A3.331,3.331,0,0,1,47.328-7a2.715,2.715,0,0,1,1.86.594,2.141,2.141,0,0,1,.7,1.635v3.161a3.865,3.865,0,0,0,.241,1.5V0ZM46.947-.9a2.064,2.064,0,0,0,1.047-.286,1.728,1.728,0,0,0,.717-.743V-3.333h-.92q-2.158,0-2.158,1.263A1.069,1.069,0,0,0,46-1.206,1.415,1.415,0,0,0,46.947-.9Zm5.891-5.973L52.876-6A2.5,2.5,0,0,1,54.933-7q2.177,0,2.2,2.457V0H55.955V-4.545a1.581,1.581,0,0,0-.34-1.1A1.361,1.361,0,0,0,54.577-6a1.7,1.7,0,0,0-1,.3,2.069,2.069,0,0,0-.673.8V0H51.727V-6.868ZM61.655-.832a1.692,1.692,0,0,0,1.1-.381,1.34,1.34,0,0,0,.521-.952h1.111a2.13,2.13,0,0,1-.406,1.124,2.676,2.676,0,0,1-1,.851,2.885,2.885,0,0,1-1.323.317,2.829,2.829,0,0,1-2.231-.936A3.729,3.729,0,0,1,58.6-3.371v-.2a4.135,4.135,0,0,1,.368-1.784A2.8,2.8,0,0,1,60.02-6.563,3,3,0,0,1,61.648-7a2.755,2.755,0,0,1,1.92.692,2.473,2.473,0,0,1,.816,1.8H63.273a1.618,1.618,0,0,0-.5-1.095,1.57,1.57,0,0,0-1.12-.428,1.644,1.644,0,0,0-1.387.644,3.026,3.026,0,0,0-.492,1.863V-3.3a2.965,2.965,0,0,0,.489,1.828A1.651,1.651,0,0,0,61.655-.832Zm5.224-5.205A2.5,2.5,0,0,1,68.91-7q2.177,0,2.2,2.457V0H69.932V-4.545a1.581,1.581,0,0,0-.34-1.1A1.361,1.361,0,0,0,68.555-6a1.7,1.7,0,0,0-1,.3,2.069,2.069,0,0,0-.673.8V0H65.7V-9.75h1.174ZM72.554-3.5a4.057,4.057,0,0,1,.4-1.815,2.96,2.96,0,0,1,1.1-1.244A3.007,3.007,0,0,1,75.67-7a2.9,2.9,0,0,1,2.269.971,3.736,3.736,0,0,1,.866,2.583v.083a4.092,4.092,0,0,1-.384,1.8,2.916,2.916,0,0,1-1.1,1.241,3.041,3.041,0,0,1-1.641.444A2.889,2.889,0,0,1,73.42-.844a3.718,3.718,0,0,1-.866-2.571Zm1.181.14a2.938,2.938,0,0,0,.53,1.834,1.7,1.7,0,0,0,1.419.692,1.686,1.686,0,0,0,1.422-.7A3.213,3.213,0,0,0,77.632-3.5,2.933,2.933,0,0,0,77.1-5.329a1.705,1.705,0,0,0-1.425-.7,1.686,1.686,0,0,0-1.4.692A3.189,3.189,0,0,0,73.734-3.358Zm9.477-.133a4.023,4.023,0,0,1,.749-2.542A2.369,2.369,0,0,1,85.922-7a2.382,2.382,0,0,1,1.911.825V-9.75h1.174V0H87.928l-.057-.736a2.391,2.391,0,0,1-1.961.863,2.346,2.346,0,0,1-1.946-.978A4.069,4.069,0,0,1,83.211-3.4Zm1.174.133a3.046,3.046,0,0,0,.482,1.828A1.56,1.56,0,0,0,86.2-.87a1.713,1.713,0,0,0,1.631-1V-5.027A1.726,1.726,0,0,0,86.214-6a1.567,1.567,0,0,0-1.346.667A3.354,3.354,0,0,0,84.386-3.358ZM93.679.127A3,3,0,0,1,91.406-.79a3.4,3.4,0,0,1-.876-2.453v-.216a4.121,4.121,0,0,1,.39-1.825,3.045,3.045,0,0,1,1.092-1.257A2.745,2.745,0,0,1,93.533-7a2.572,2.572,0,0,1,2.082.882,3.82,3.82,0,0,1,.743,2.526V-3.1H91.7A2.441,2.441,0,0,0,92.3-1.457a1.866,1.866,0,0,0,1.444.625A2.045,2.045,0,0,0,94.8-1.085a2.648,2.648,0,0,0,.755-.673l.717.559A2.884,2.884,0,0,1,93.679.127ZM93.533-6.03a1.566,1.566,0,0,0-1.193.517,2.515,2.515,0,0,0-.6,1.45h3.44v-.089A2.237,2.237,0,0,0,94.7-5.538,1.475,1.475,0,0,0,93.533-6.03ZM98.992,0H97.817V-9.75h1.174Z" transform="translate(1147.333 15635.25)"/>
    <path id="Trazado_904325" data-name="Trazado 904325" d="M6.69-3.358A4.113,4.113,0,0,1,5.973-.832,2.3,2.3,0,0,1,4.031.127,2.519,2.519,0,0,1,2.063-.667V2.641H.889V-6.868H1.961l.057.762A2.419,2.419,0,0,1,4.012-7a2.342,2.342,0,0,1,1.958.933,4.157,4.157,0,0,1,.72,2.6ZM5.516-3.491a3.035,3.035,0,0,0-.5-1.834A1.6,1.6,0,0,0,3.663-6a1.726,1.726,0,0,0-1.6.946v3.282a1.73,1.73,0,0,0,1.612.939A1.587,1.587,0,0,0,5.018-1.5,3.312,3.312,0,0,0,5.516-3.491ZM12.422-.679A2.494,2.494,0,0,1,10.41.127,2.135,2.135,0,0,1,8.738-.511,2.761,2.761,0,0,1,8.157-2.4V-6.868H9.331v4.437Q9.331-.87,10.6-.87a1.758,1.758,0,0,0,1.79-1v-5h1.174V0H12.448Zm4.037-6.189L16.5-6A2.5,2.5,0,0,1,18.554-7q2.177,0,2.2,2.457V0H19.576V-4.545a1.581,1.581,0,0,0-.34-1.1A1.361,1.361,0,0,0,18.2-6a1.7,1.7,0,0,0-1,.3,2.069,2.069,0,0,0-.673.8V0H15.349V-6.868Zm3.885-2.679a1.578,1.578,0,0,1-.39,1.111,1.268,1.268,0,0,1-.974.425,1.43,1.43,0,0,1-.451-.063,2.432,2.432,0,0,1-.5-.26,2.158,2.158,0,0,0-.444-.238,1.087,1.087,0,0,0-.314-.041.582.582,0,0,0-.444.2.725.725,0,0,0-.184.511l-.787-.044a1.657,1.657,0,0,1,.384-1.124,1.232,1.232,0,0,1,.974-.444,1.184,1.184,0,0,1,.4.063A2.914,2.914,0,0,1,18.1-9.2a2.839,2.839,0,0,0,.467.241,1.072,1.072,0,0,0,.359.057.568.568,0,0,0,.454-.216.757.757,0,0,0,.181-.5ZM22.21-3.5a4.057,4.057,0,0,1,.4-1.815,2.96,2.96,0,0,1,1.1-1.244A3.007,3.007,0,0,1,25.327-7a2.9,2.9,0,0,1,2.269.971,3.736,3.736,0,0,1,.866,2.583v.083a4.092,4.092,0,0,1-.384,1.8,2.916,2.916,0,0,1-1.1,1.241A3.041,3.041,0,0,1,25.34.127a2.889,2.889,0,0,1-2.263-.971,3.718,3.718,0,0,1-.866-2.571Zm1.181.14a2.938,2.938,0,0,0,.53,1.834,1.7,1.7,0,0,0,1.419.692,1.686,1.686,0,0,0,1.422-.7A3.213,3.213,0,0,0,27.289-3.5a2.933,2.933,0,0,0-.536-1.831,1.705,1.705,0,0,0-1.425-.7,1.686,1.686,0,0,0-1.4.692A3.189,3.189,0,0,0,23.391-3.358Zm13.127-1.6H39.1v1.111H36.518v2.92H35.337v-2.92H32.76V-4.958h2.577v-2.7h1.181ZM44.262,0H43.082V-7.827l-2.368.87V-8.023l3.364-1.263h.184ZM53.8-.832a1.692,1.692,0,0,0,1.1-.381,1.34,1.34,0,0,0,.521-.952h1.111a2.13,2.13,0,0,1-.406,1.124,2.676,2.676,0,0,1-1,.851A2.885,2.885,0,0,1,53.8.127a2.829,2.829,0,0,1-2.231-.936,3.729,3.729,0,0,1-.828-2.561v-.2A4.135,4.135,0,0,1,51.1-5.351a2.8,2.8,0,0,1,1.057-1.212A3,3,0,0,1,53.79-7a2.755,2.755,0,0,1,1.92.692,2.473,2.473,0,0,1,.816,1.8H55.415a1.618,1.618,0,0,0-.5-1.095,1.57,1.57,0,0,0-1.12-.428,1.644,1.644,0,0,0-1.387.644,3.026,3.026,0,0,0-.492,1.863V-3.3A2.965,2.965,0,0,0,52.4-1.473,1.651,1.651,0,0,0,53.8-.832Zm5.154-6.037.032.762A2.536,2.536,0,0,1,61.02-7a1.964,1.964,0,0,1,1.961,1.1,2.6,2.6,0,0,1,.892-.8,2.634,2.634,0,0,1,1.3-.3q2.26,0,2.3,2.393V0H66.295V-4.532a1.577,1.577,0,0,0-.336-1.1A1.482,1.482,0,0,0,64.829-6a1.557,1.557,0,0,0-1.085.39,1.584,1.584,0,0,0-.5,1.051V0H62.061V-4.5A1.31,1.31,0,0,0,60.595-6a1.571,1.571,0,0,0-1.581.984V0H57.84V-6.868ZM72.173-3.491a4.023,4.023,0,0,1,.749-2.542A2.369,2.369,0,0,1,74.883-7a2.382,2.382,0,0,1,1.911.825V-9.75h1.174V0H76.889l-.057-.736a2.391,2.391,0,0,1-1.961.863,2.346,2.346,0,0,1-1.946-.978A4.069,4.069,0,0,1,72.173-3.4Zm1.174.133A3.046,3.046,0,0,0,73.83-1.53a1.56,1.56,0,0,0,1.333.66,1.713,1.713,0,0,0,1.631-1V-5.027A1.726,1.726,0,0,0,75.175-6a1.567,1.567,0,0,0-1.346.667A3.354,3.354,0,0,0,73.347-3.358ZM82.64.127A3,3,0,0,1,80.368-.79a3.4,3.4,0,0,1-.876-2.453v-.216a4.121,4.121,0,0,1,.39-1.825,3.045,3.045,0,0,1,1.092-1.257A2.745,2.745,0,0,1,82.494-7a2.572,2.572,0,0,1,2.082.882,3.82,3.82,0,0,1,.743,2.526V-3.1H80.666a2.441,2.441,0,0,0,.594,1.641A1.866,1.866,0,0,0,82.7-.832a2.045,2.045,0,0,0,1.054-.254,2.648,2.648,0,0,0,.755-.673l.717.559A2.884,2.884,0,0,1,82.64.127ZM82.494-6.03a1.566,1.566,0,0,0-1.193.517,2.515,2.515,0,0,0-.6,1.45h3.44v-.089a2.237,2.237,0,0,0-.482-1.387A1.475,1.475,0,0,0,82.494-6.03ZM89.61-3.491a4.023,4.023,0,0,1,.749-2.542A2.369,2.369,0,0,1,92.32-7a2.382,2.382,0,0,1,1.911.825V-9.75h1.174V0H94.326l-.057-.736a2.391,2.391,0,0,1-1.961.863,2.346,2.346,0,0,1-1.946-.978A4.069,4.069,0,0,1,89.61-3.4Zm1.174.133a3.046,3.046,0,0,0,.482,1.828A1.56,1.56,0,0,0,92.6-.87a1.713,1.713,0,0,0,1.631-1V-5.027A1.726,1.726,0,0,0,92.612-6a1.567,1.567,0,0,0-1.346.667A3.354,3.354,0,0,0,90.784-3.358ZM100.077.127A3,3,0,0,1,97.8-.79a3.4,3.4,0,0,1-.876-2.453v-.216a4.121,4.121,0,0,1,.39-1.825,3.045,3.045,0,0,1,1.092-1.257A2.745,2.745,0,0,1,99.931-7a2.572,2.572,0,0,1,2.082.882,3.82,3.82,0,0,1,.743,2.526V-3.1H98.1A2.441,2.441,0,0,0,98.7-1.457a1.866,1.866,0,0,0,1.444.625,2.045,2.045,0,0,0,1.054-.254,2.648,2.648,0,0,0,.755-.673l.717.559A2.884,2.884,0,0,1,100.077.127ZM99.931-6.03a1.566,1.566,0,0,0-1.193.517,2.515,2.515,0,0,0-.6,1.45h3.44v-.089a2.237,2.237,0,0,0-.482-1.387A1.475,1.475,0,0,0,99.931-6.03Zm8.182,4.208a.864.864,0,0,0-.359-.74,3.452,3.452,0,0,0-1.25-.454,5.912,5.912,0,0,1-1.416-.457,2.014,2.014,0,0,1-.774-.635,1.518,1.518,0,0,1-.251-.876,1.782,1.782,0,0,1,.714-1.428A2.789,2.789,0,0,1,106.6-7a2.87,2.87,0,0,1,1.895.6,1.915,1.915,0,0,1,.727,1.542h-1.181a1.06,1.06,0,0,0-.409-.832A1.534,1.534,0,0,0,106.6-6.03a1.606,1.606,0,0,0-1,.279.879.879,0,0,0-.362.73.712.712,0,0,0,.336.641,4.139,4.139,0,0,0,1.216.413,6.334,6.334,0,0,1,1.425.47,2.079,2.079,0,0,1,.809.657,1.615,1.615,0,0,1,.263.936,1.758,1.758,0,0,1-.736,1.476,3.089,3.089,0,0,1-1.911.555,3.459,3.459,0,0,1-1.46-.292,2.375,2.375,0,0,1-.993-.816,1.966,1.966,0,0,1-.359-1.133H105a1.216,1.216,0,0,0,.473.936,1.835,1.835,0,0,0,1.165.346,1.894,1.894,0,0,0,1.07-.27A.829.829,0,0,0,108.113-1.822ZM115.058,0a2.467,2.467,0,0,1-.165-.724,2.62,2.62,0,0,1-1.955.851,2.424,2.424,0,0,1-1.666-.574,1.859,1.859,0,0,1-.651-1.457,1.942,1.942,0,0,1,.816-1.666,3.846,3.846,0,0,1,2.295-.594h1.143V-4.7a1.319,1.319,0,0,0-.368-.981,1.48,1.48,0,0,0-1.085-.365,1.712,1.712,0,0,0-1.054.317.935.935,0,0,0-.425.768H110.76a1.621,1.621,0,0,1,.365-.993,2.491,2.491,0,0,1,.99-.759A3.331,3.331,0,0,1,113.49-7a2.715,2.715,0,0,1,1.86.594,2.141,2.141,0,0,1,.7,1.635v3.161a3.865,3.865,0,0,0,.241,1.5V0Zm-1.949-.9a2.064,2.064,0,0,0,1.047-.286,1.728,1.728,0,0,0,.717-.743V-3.333h-.92q-2.158,0-2.158,1.263a1.069,1.069,0,0,0,.368.863A1.415,1.415,0,0,0,113.109-.9Zm5.954-5.142A2.5,2.5,0,0,1,121.094-7q2.177,0,2.2,2.457V0h-1.174V-4.545a1.581,1.581,0,0,0-.34-1.1A1.361,1.361,0,0,0,120.739-6a1.7,1.7,0,0,0-1,.3,2.069,2.069,0,0,0-.673.8V0h-1.174V-9.75h1.174ZM124.738-3.5a4.057,4.057,0,0,1,.4-1.815,2.96,2.96,0,0,1,1.1-1.244A3.007,3.007,0,0,1,127.854-7a2.9,2.9,0,0,1,2.269.971,3.736,3.736,0,0,1,.866,2.583v.083a4.092,4.092,0,0,1-.384,1.8,2.916,2.916,0,0,1-1.1,1.241,3.041,3.041,0,0,1-1.641.444A2.889,2.889,0,0,1,125.6-.844a3.718,3.718,0,0,1-.866-2.571Zm1.181.14a2.938,2.938,0,0,0,.53,1.834,1.7,1.7,0,0,0,1.419.692,1.686,1.686,0,0,0,1.422-.7,3.213,3.213,0,0,0,.527-1.965,2.933,2.933,0,0,0-.536-1.831,1.705,1.705,0,0,0-1.425-.7,1.686,1.686,0,0,0-1.4.692A3.189,3.189,0,0,0,125.918-3.358Zm6.265-.133a4.037,4.037,0,0,1,.743-2.555A2.375,2.375,0,0,1,134.894-7a2.363,2.363,0,0,1,1.961.889l.057-.762h1.073v6.7a2.794,2.794,0,0,1-.79,2.1,2.916,2.916,0,0,1-2.123.768,3.532,3.532,0,0,1-1.454-.317,2.5,2.5,0,0,1-1.085-.87l.609-.7a2.3,2.3,0,0,0,1.847.933,1.8,1.8,0,0,0,1.336-.482A1.844,1.844,0,0,0,136.8-.1v-.59a2.414,2.414,0,0,1-1.923.813,2.346,2.346,0,0,1-1.952-.971A4.244,4.244,0,0,1,132.184-3.491Zm1.181.133a3.08,3.08,0,0,0,.476,1.825,1.547,1.547,0,0,0,1.333.663A1.72,1.72,0,0,0,136.8-1.879V-5.015A1.74,1.74,0,0,0,135.186-6a1.561,1.561,0,0,0-1.339.667A3.354,3.354,0,0,0,133.364-3.358Zm6.081-.14a4.057,4.057,0,0,1,.4-1.815,2.959,2.959,0,0,1,1.1-1.244A3.007,3.007,0,0,1,142.562-7a2.9,2.9,0,0,1,2.269.971A3.736,3.736,0,0,1,145.7-3.44v.083a4.092,4.092,0,0,1-.384,1.8,2.916,2.916,0,0,1-1.1,1.241,3.041,3.041,0,0,1-1.641.444,2.889,2.889,0,0,1-2.263-.971,3.718,3.718,0,0,1-.866-2.571Zm1.181.14a2.938,2.938,0,0,0,.53,1.834,1.7,1.7,0,0,0,1.419.692,1.686,1.686,0,0,0,1.422-.7,3.213,3.213,0,0,0,.527-1.965,2.933,2.933,0,0,0-.536-1.831,1.705,1.705,0,0,0-1.425-.7,1.686,1.686,0,0,0-1.4.692A3.189,3.189,0,0,0,140.626-3.358Z" transform="translate(1122.114 15652.19)"/>
    <path id="Trazado_904326" data-name="Trazado 904326" d="M0,0H945V775.608H0Z" transform="translate(337 15479.434)" fill="none"/>
    <path id="Trazado_904327" data-name="Trazado 904327" d="M6.824,0H.768V-.844L3.967-4.4A7.6,7.6,0,0,0,4.948-5.71a2.188,2.188,0,0,0,.27-1.044A1.658,1.658,0,0,0,4.78-7.941,1.531,1.531,0,0,0,3.612-8.4a1.814,1.814,0,0,0-1.362.5,1.9,1.9,0,0,0-.486,1.387H.59a2.726,2.726,0,0,1,.822-2.063,3.047,3.047,0,0,1,2.2-.787,2.928,2.928,0,0,1,2.038.676,2.306,2.306,0,0,1,.749,1.8,5.287,5.287,0,0,1-1.739,3.25L2.184-.958h4.64Zm1.39-.616a.735.735,0,0,1,.181-.508.689.689,0,0,1,.543-.2.71.71,0,0,1,.549.2.721.721,0,0,1,.187.508.681.681,0,0,1-.187.489.723.723,0,0,1-.549.2.7.7,0,0,1-.543-.2A.7.7,0,0,1,8.214-.616Zm3.815-4.018.47-4.608h4.735v1.085H13.5l-.279,2.52a2.983,2.983,0,0,1,1.542-.4,2.55,2.55,0,0,1,2.006.835,3.271,3.271,0,0,1,.743,2.257A3.158,3.158,0,0,1,16.736-.7a2.811,2.811,0,0,1-2.155.822,2.921,2.921,0,0,1-2-.679A2.711,2.711,0,0,1,11.7-2.431H12.81a1.865,1.865,0,0,0,.565,1.2,1.757,1.757,0,0,0,1.206.4,1.585,1.585,0,0,0,1.285-.559,2.335,2.335,0,0,0,.467-1.542,2.143,2.143,0,0,0-.5-1.489,1.717,1.717,0,0,0-1.343-.562,1.936,1.936,0,0,0-1.206.336l-.311.254Zm12.854,3.8a1.692,1.692,0,0,0,1.1-.381,1.34,1.34,0,0,0,.521-.952h1.111a2.13,2.13,0,0,1-.406,1.124,2.676,2.676,0,0,1-1,.851,2.885,2.885,0,0,1-1.323.317,2.829,2.829,0,0,1-2.231-.936,3.729,3.729,0,0,1-.828-2.561v-.2a4.135,4.135,0,0,1,.368-1.784,2.8,2.8,0,0,1,1.057-1.212A3,3,0,0,1,24.876-7,2.755,2.755,0,0,1,26.8-6.3a2.473,2.473,0,0,1,.816,1.8H26.5A1.618,1.618,0,0,0,26-5.6a1.57,1.57,0,0,0-1.12-.428,1.644,1.644,0,0,0-1.387.644A3.026,3.026,0,0,0,23-3.523V-3.3a2.965,2.965,0,0,0,.489,1.828A1.651,1.651,0,0,0,24.883-.832Zm5.154-6.037.032.762A2.536,2.536,0,0,1,32.106-7a1.964,1.964,0,0,1,1.961,1.1,2.6,2.6,0,0,1,.892-.8,2.634,2.634,0,0,1,1.3-.3q2.26,0,2.3,2.393V0H37.381V-4.532a1.577,1.577,0,0,0-.336-1.1A1.482,1.482,0,0,0,35.915-6a1.557,1.557,0,0,0-1.085.39,1.584,1.584,0,0,0-.5,1.051V0H33.147V-4.5A1.31,1.31,0,0,0,31.681-6a1.571,1.571,0,0,0-1.581.984V0H28.926V-6.868Z" transform="translate(614.433 15722.406)"/>
    <path id="Trazado_904328" data-name="Trazado 904328" d="M4.627,0H3.447V-7.827l-2.368.87V-8.023L4.443-9.287h.184Zm9.534-.832a1.692,1.692,0,0,0,1.1-.381,1.34,1.34,0,0,0,.521-.952h1.111a2.13,2.13,0,0,1-.406,1.124,2.676,2.676,0,0,1-1,.851,2.885,2.885,0,0,1-1.323.317A2.829,2.829,0,0,1,11.93-.809,3.729,3.729,0,0,1,11.1-3.371v-.2a4.135,4.135,0,0,1,.368-1.784,2.8,2.8,0,0,1,1.057-1.212A3,3,0,0,1,14.155-7a2.755,2.755,0,0,1,1.92.692,2.473,2.473,0,0,1,.816,1.8H15.78a1.618,1.618,0,0,0-.5-1.095,1.57,1.57,0,0,0-1.12-.428,1.644,1.644,0,0,0-1.387.644,3.026,3.026,0,0,0-.492,1.863V-3.3a2.965,2.965,0,0,0,.489,1.828A1.651,1.651,0,0,0,14.162-.832Zm5.154-6.037.032.762A2.536,2.536,0,0,1,21.385-7a1.964,1.964,0,0,1,1.961,1.1,2.6,2.6,0,0,1,.892-.8,2.634,2.634,0,0,1,1.3-.3q2.26,0,2.3,2.393V0H26.66V-4.532a1.577,1.577,0,0,0-.336-1.1A1.482,1.482,0,0,0,25.194-6a1.557,1.557,0,0,0-1.085.39,1.584,1.584,0,0,0-.5,1.051V0H22.426V-4.5A1.31,1.31,0,0,0,20.96-6a1.571,1.571,0,0,0-1.581.984V0H18.205V-6.868Z" transform="translate(542.437 15644.605) rotate(48.405)"/>
    <path id="Trazado_904329" data-name="Trazado 904329" d="M4.627,0H3.447V-7.827l-2.368.87V-8.023L4.443-9.287h.184Zm9.534-.832a1.692,1.692,0,0,0,1.1-.381,1.34,1.34,0,0,0,.521-.952h1.111a2.13,2.13,0,0,1-.406,1.124,2.676,2.676,0,0,1-1,.851,2.885,2.885,0,0,1-1.323.317A2.829,2.829,0,0,1,11.93-.809,3.729,3.729,0,0,1,11.1-3.371v-.2a4.135,4.135,0,0,1,.368-1.784,2.8,2.8,0,0,1,1.057-1.212A3,3,0,0,1,14.155-7a2.755,2.755,0,0,1,1.92.692,2.473,2.473,0,0,1,.816,1.8H15.78a1.618,1.618,0,0,0-.5-1.095,1.57,1.57,0,0,0-1.12-.428,1.644,1.644,0,0,0-1.387.644,3.026,3.026,0,0,0-.492,1.863V-3.3a2.965,2.965,0,0,0,.489,1.828A1.651,1.651,0,0,0,14.162-.832Zm5.154-6.037.032.762A2.536,2.536,0,0,1,21.385-7a1.964,1.964,0,0,1,1.961,1.1,2.6,2.6,0,0,1,.892-.8,2.634,2.634,0,0,1,1.3-.3q2.26,0,2.3,2.393V0H26.66V-4.532a1.577,1.577,0,0,0-.336-1.1A1.482,1.482,0,0,0,25.194-6a1.557,1.557,0,0,0-1.085.39,1.584,1.584,0,0,0-.5,1.051V0H22.426V-4.5A1.31,1.31,0,0,0,20.96-6a1.571,1.571,0,0,0-1.581.984V0H18.205V-6.868Z" transform="translate(529.656 15655.535) rotate(48.405)"/>
    <path id="Trazado_904330" data-name="Trazado 904330" d="M4.627,0H3.447V-7.827l-2.368.87V-8.023L4.443-9.287h.184ZM8.214-.616a.735.735,0,0,1,.181-.508.689.689,0,0,1,.543-.2.71.71,0,0,1,.549.2.721.721,0,0,1,.187.508.681.681,0,0,1-.187.489.723.723,0,0,1-.549.2.7.7,0,0,1-.543-.2A.7.7,0,0,1,8.214-.616Zm3.815-4.018.47-4.608h4.735v1.085H13.5l-.279,2.52a2.983,2.983,0,0,1,1.542-.4,2.55,2.55,0,0,1,2.006.835,3.271,3.271,0,0,1,.743,2.257A3.158,3.158,0,0,1,16.736-.7a2.811,2.811,0,0,1-2.155.822,2.921,2.921,0,0,1-2-.679A2.711,2.711,0,0,1,11.7-2.431H12.81a1.865,1.865,0,0,0,.565,1.2,1.757,1.757,0,0,0,1.206.4,1.585,1.585,0,0,0,1.285-.559,2.335,2.335,0,0,0,.467-1.542,2.143,2.143,0,0,0-.5-1.489,1.717,1.717,0,0,0-1.343-.562,1.936,1.936,0,0,0-1.206.336l-.311.254Zm12.854,3.8a1.692,1.692,0,0,0,1.1-.381,1.34,1.34,0,0,0,.521-.952h1.111a2.13,2.13,0,0,1-.406,1.124,2.676,2.676,0,0,1-1,.851,2.885,2.885,0,0,1-1.323.317,2.829,2.829,0,0,1-2.231-.936,3.729,3.729,0,0,1-.828-2.561v-.2a4.135,4.135,0,0,1,.368-1.784,2.8,2.8,0,0,1,1.057-1.212A3,3,0,0,1,24.876-7,2.755,2.755,0,0,1,26.8-6.3a2.473,2.473,0,0,1,.816,1.8H26.5A1.618,1.618,0,0,0,26-5.6a1.57,1.57,0,0,0-1.12-.428,1.644,1.644,0,0,0-1.387.644A3.026,3.026,0,0,0,23-3.523V-3.3a2.965,2.965,0,0,0,.489,1.828A1.651,1.651,0,0,0,24.883-.832Zm5.154-6.037.032.762A2.536,2.536,0,0,1,32.106-7a1.964,1.964,0,0,1,1.961,1.1,2.6,2.6,0,0,1,.892-.8,2.634,2.634,0,0,1,1.3-.3q2.26,0,2.3,2.393V0H37.381V-4.532a1.577,1.577,0,0,0-.336-1.1A1.482,1.482,0,0,0,35.915-6a1.557,1.557,0,0,0-1.085.39,1.584,1.584,0,0,0-.5,1.051V0H33.147V-4.5A1.31,1.31,0,0,0,31.681-6a1.571,1.571,0,0,0-1.581.984V0H28.926V-6.868Z" transform="translate(559.882 15752.275)"/>
    <path id="Trazado_904331" data-name="Trazado 904331" d="M5.376-9.249v1H5.161a3.092,3.092,0,0,0-2.184.813,3.381,3.381,0,0,0-.939,2.215,2.507,2.507,0,0,1,1.993-.838,2.4,2.4,0,0,1,1.927.851,3.281,3.281,0,0,1,.72,2.2A3.27,3.27,0,0,1,5.9-.73,2.678,2.678,0,0,1,3.815.127,2.638,2.638,0,0,1,1.663-.892,4.038,4.038,0,0,1,.838-3.517v-.451a6.084,6.084,0,0,1,1.089-3.9,4,4,0,0,1,3.24-1.381ZM3.834-5.084a1.874,1.874,0,0,0-1.111.362,1.885,1.885,0,0,0-.7.908v.432a3.032,3.032,0,0,0,.514,1.841,1.541,1.541,0,0,0,1.282.7,1.493,1.493,0,0,0,1.247-.584,2.423,2.423,0,0,0,.454-1.53A2.424,2.424,0,0,0,5.056-4.5,1.475,1.475,0,0,0,3.834-5.084ZM14.162-.832a1.692,1.692,0,0,0,1.1-.381,1.34,1.34,0,0,0,.521-.952h1.111a2.13,2.13,0,0,1-.406,1.124,2.676,2.676,0,0,1-1,.851,2.885,2.885,0,0,1-1.323.317A2.829,2.829,0,0,1,11.93-.809,3.729,3.729,0,0,1,11.1-3.371v-.2a4.135,4.135,0,0,1,.368-1.784,2.8,2.8,0,0,1,1.057-1.212A3,3,0,0,1,14.155-7a2.755,2.755,0,0,1,1.92.692,2.473,2.473,0,0,1,.816,1.8H15.78a1.618,1.618,0,0,0-.5-1.095,1.57,1.57,0,0,0-1.12-.428,1.644,1.644,0,0,0-1.387.644,3.026,3.026,0,0,0-.492,1.863V-3.3a2.965,2.965,0,0,0,.489,1.828A1.651,1.651,0,0,0,14.162-.832Zm5.154-6.037.032.762A2.536,2.536,0,0,1,21.385-7a1.964,1.964,0,0,1,1.961,1.1,2.6,2.6,0,0,1,.892-.8,2.634,2.634,0,0,1,1.3-.3q2.26,0,2.3,2.393V0H26.66V-4.532a1.577,1.577,0,0,0-.336-1.1A1.482,1.482,0,0,0,25.194-6a1.557,1.557,0,0,0-1.085.39,1.584,1.584,0,0,0-.5,1.051V0H22.426V-4.5A1.31,1.31,0,0,0,20.96-6a1.571,1.571,0,0,0-1.581.984V0H18.205V-6.868Z" transform="translate(665.468 15728.078)"/>
    <path id="Trazado_904332" data-name="Trazado 904332" d="M5.376-9.249v1H5.161a3.092,3.092,0,0,0-2.184.813,3.381,3.381,0,0,0-.939,2.215,2.507,2.507,0,0,1,1.993-.838,2.4,2.4,0,0,1,1.927.851,3.281,3.281,0,0,1,.72,2.2A3.27,3.27,0,0,1,5.9-.73,2.678,2.678,0,0,1,3.815.127,2.638,2.638,0,0,1,1.663-.892,4.038,4.038,0,0,1,.838-3.517v-.451a6.084,6.084,0,0,1,1.089-3.9,4,4,0,0,1,3.24-1.381ZM3.834-5.084a1.874,1.874,0,0,0-1.111.362,1.885,1.885,0,0,0-.7.908v.432a3.032,3.032,0,0,0,.514,1.841,1.541,1.541,0,0,0,1.282.7,1.493,1.493,0,0,0,1.247-.584,2.423,2.423,0,0,0,.454-1.53A2.424,2.424,0,0,0,5.056-4.5,1.475,1.475,0,0,0,3.834-5.084ZM14.162-.832a1.692,1.692,0,0,0,1.1-.381,1.34,1.34,0,0,0,.521-.952h1.111a2.13,2.13,0,0,1-.406,1.124,2.676,2.676,0,0,1-1,.851,2.885,2.885,0,0,1-1.323.317A2.829,2.829,0,0,1,11.93-.809,3.729,3.729,0,0,1,11.1-3.371v-.2a4.135,4.135,0,0,1,.368-1.784,2.8,2.8,0,0,1,1.057-1.212A3,3,0,0,1,14.155-7a2.755,2.755,0,0,1,1.92.692,2.473,2.473,0,0,1,.816,1.8H15.78a1.618,1.618,0,0,0-.5-1.095,1.57,1.57,0,0,0-1.12-.428,1.644,1.644,0,0,0-1.387.644,3.026,3.026,0,0,0-.492,1.863V-3.3a2.965,2.965,0,0,0,.489,1.828A1.651,1.651,0,0,0,14.162-.832Zm5.154-6.037.032.762A2.536,2.536,0,0,1,21.385-7a1.964,1.964,0,0,1,1.961,1.1,2.6,2.6,0,0,1,.892-.8,2.634,2.634,0,0,1,1.3-.3q2.26,0,2.3,2.393V0H26.66V-4.532a1.577,1.577,0,0,0-.336-1.1A1.482,1.482,0,0,0,25.194-6a1.557,1.557,0,0,0-1.085.39,1.584,1.584,0,0,0-.5,1.051V0H22.426V-4.5A1.31,1.31,0,0,0,20.96-6a1.571,1.571,0,0,0-1.581.984V0H18.205V-6.868Z" transform="translate(487.444 15558.242)"/>
    <path id="Trazado_904333" data-name="Trazado 904333" d="M6.824,0H.768V-.844L3.967-4.4A7.6,7.6,0,0,0,4.948-5.71a2.188,2.188,0,0,0,.27-1.044A1.658,1.658,0,0,0,4.78-7.941,1.531,1.531,0,0,0,3.612-8.4a1.814,1.814,0,0,0-1.362.5,1.9,1.9,0,0,0-.486,1.387H.59a2.726,2.726,0,0,1,.822-2.063,3.047,3.047,0,0,1,2.2-.787,2.928,2.928,0,0,1,2.038.676,2.306,2.306,0,0,1,.749,1.8,5.287,5.287,0,0,1-1.739,3.25L2.184-.958h4.64Zm7.338-.832a1.692,1.692,0,0,0,1.1-.381,1.34,1.34,0,0,0,.521-.952h1.111a2.13,2.13,0,0,1-.406,1.124,2.676,2.676,0,0,1-1,.851,2.885,2.885,0,0,1-1.323.317A2.829,2.829,0,0,1,11.93-.809,3.729,3.729,0,0,1,11.1-3.371v-.2a4.135,4.135,0,0,1,.368-1.784,2.8,2.8,0,0,1,1.057-1.212A3,3,0,0,1,14.155-7a2.755,2.755,0,0,1,1.92.692,2.473,2.473,0,0,1,.816,1.8H15.78a1.618,1.618,0,0,0-.5-1.095,1.57,1.57,0,0,0-1.12-.428,1.644,1.644,0,0,0-1.387.644,3.026,3.026,0,0,0-.492,1.863V-3.3a2.965,2.965,0,0,0,.489,1.828A1.651,1.651,0,0,0,14.162-.832Zm5.154-6.037.032.762A2.536,2.536,0,0,1,21.385-7a1.964,1.964,0,0,1,1.961,1.1,2.6,2.6,0,0,1,.892-.8,2.634,2.634,0,0,1,1.3-.3q2.26,0,2.3,2.393V0H26.66V-4.532a1.577,1.577,0,0,0-.336-1.1A1.482,1.482,0,0,0,25.194-6a1.557,1.557,0,0,0-1.085.39,1.584,1.584,0,0,0-.5,1.051V0H22.426V-4.5A1.31,1.31,0,0,0,20.96-6a1.571,1.571,0,0,0-1.581.984V0H18.205V-6.868Z" transform="translate(612.23 15523.626)"/>
    <path id="Trazado_904334" data-name="Trazado 904334" d="M4.627,0H3.447V-7.827l-2.368.87V-8.023L4.443-9.287h.184Zm3.8.793H7.414L11.273-9.242h1ZM19.481,0H13.425V-.844l3.2-3.555a7.6,7.6,0,0,0,.981-1.311,2.188,2.188,0,0,0,.27-1.044,1.658,1.658,0,0,0-.438-1.187A1.531,1.531,0,0,0,16.269-8.4a1.814,1.814,0,0,0-1.362.5,1.9,1.9,0,0,0-.486,1.387H13.248a2.726,2.726,0,0,1,.822-2.063,3.047,3.047,0,0,1,2.2-.787,2.928,2.928,0,0,1,2.038.676,2.306,2.306,0,0,1,.749,1.8,5.287,5.287,0,0,1-1.739,3.25L14.841-.958h4.64Z" transform="translate(424.578 15522.765)"/>
    <path id="Trazado_904335" data-name="Trazado 904335" d="M5.376-9.249v1H5.161a3.092,3.092,0,0,0-2.184.813,3.381,3.381,0,0,0-.939,2.215,2.507,2.507,0,0,1,1.993-.838,2.4,2.4,0,0,1,1.927.851,3.281,3.281,0,0,1,.72,2.2A3.27,3.27,0,0,1,5.9-.73,2.678,2.678,0,0,1,3.815.127,2.638,2.638,0,0,1,1.663-.892,4.038,4.038,0,0,1,.838-3.517v-.451a6.084,6.084,0,0,1,1.089-3.9,4,4,0,0,1,3.24-1.381ZM3.834-5.084a1.874,1.874,0,0,0-1.111.362,1.885,1.885,0,0,0-.7.908v.432a3.032,3.032,0,0,0,.514,1.841,1.541,1.541,0,0,0,1.282.7,1.493,1.493,0,0,0,1.247-.584,2.423,2.423,0,0,0,.454-1.53A2.424,2.424,0,0,0,5.056-4.5,1.475,1.475,0,0,0,3.834-5.084ZM14.162-.832a1.692,1.692,0,0,0,1.1-.381,1.34,1.34,0,0,0,.521-.952h1.111a2.13,2.13,0,0,1-.406,1.124,2.676,2.676,0,0,1-1,.851,2.885,2.885,0,0,1-1.323.317A2.829,2.829,0,0,1,11.93-.809,3.729,3.729,0,0,1,11.1-3.371v-.2a4.135,4.135,0,0,1,.368-1.784,2.8,2.8,0,0,1,1.057-1.212A3,3,0,0,1,14.155-7a2.755,2.755,0,0,1,1.92.692,2.473,2.473,0,0,1,.816,1.8H15.78a1.618,1.618,0,0,0-.5-1.095,1.57,1.57,0,0,0-1.12-.428,1.644,1.644,0,0,0-1.387.644,3.026,3.026,0,0,0-.492,1.863V-3.3a2.965,2.965,0,0,0,.489,1.828A1.651,1.651,0,0,0,14.162-.832Zm5.154-6.037.032.762A2.536,2.536,0,0,1,21.385-7a1.964,1.964,0,0,1,1.961,1.1,2.6,2.6,0,0,1,.892-.8,2.634,2.634,0,0,1,1.3-.3q2.26,0,2.3,2.393V0H26.66V-4.532a1.577,1.577,0,0,0-.336-1.1A1.482,1.482,0,0,0,25.194-6a1.557,1.557,0,0,0-1.085.39,1.584,1.584,0,0,0-.5,1.051V0H22.426V-4.5A1.31,1.31,0,0,0,20.96-6a1.571,1.571,0,0,0-1.581.984V0H18.205V-6.868Z" transform="translate(591.844 15827.382)"/>
    <path id="Línea_1905" data-name="Línea 1905" d="M.361,269.531H-2V-2H.361Z" transform="translate(389.175 15981.354)"/>
    <path id="Línea_1906" data-name="Línea 1906" d="M14.333.361H-2V-2H14.333Z" transform="translate(381.785 15981.354)"/>
    <path id="Línea_1907" data-name="Línea 1907" d="M14.333.361H-2V-2H14.333Z" transform="translate(381.785 16250.523)"/>
    <path id="Línea_1908" data-name="Línea 1908" d="M89.234.271H0V-1.5H89.234Z" transform="translate(544.156 15528.172)"/>
    <path id="Trazado_904336" data-name="Trazado 904336" d="M0,0H945V775.608H0Z" transform="translate(337 15479.434)" fill="none"/>
  </g>
</svg>
