<svg xmlns="http://www.w3.org/2000/svg" width="985.259" height="993.199" viewBox="0 0 985.259 993.199">
  <g id="Grupo_1115035" data-name="Grupo 1115035" transform="translate(-298.553 -10036.883)">
    <g id="Grupo_1115034" data-name="Grupo 1115034">
      <path id="Trazado_901329" data-name="Trazado 901329" d="M600.713,558.6l7.238,12.538H593.475Zm6.564,12.148-6.564-11.369-6.564,11.369Z" transform="translate(167.441 9913.477)"/>
      <path id="Trazado_901330" data-name="Trazado 901330" d="M672.046,558.6l7.238,12.538H664.807Zm6.564,12.148-6.564-11.369-6.564,11.369Z" transform="translate(151.682 9913.477)"/>
      <path id="Trazado_901331" data-name="Trazado 901331" d="M767,464.849l7.238,12.538H759.757ZM773.559,477,767,465.629,760.432,477Z" transform="translate(130.706 9934.188)"/>
      <path id="Trazado_904878" data-name="Trazado 904878" d="M10.293-3.835A4.447,4.447,0,0,1,8.878-.876,4.638,4.638,0,0,1,5.711.166,4.259,4.259,0,0,1,2.279-1.37,6.178,6.178,0,0,1,.988-5.479V-6.641A6.886,6.886,0,0,1,1.59-9.6,4.5,4.5,0,0,1,3.3-11.567a4.75,4.75,0,0,1,2.557-.685A4.367,4.367,0,0,1,8.94-11.177,4.5,4.5,0,0,1,10.293-8.2h-1.6a3.472,3.472,0,0,0-.9-2.1,2.725,2.725,0,0,0-1.938-.649,2.851,2.851,0,0,0-2.395,1.13A5.187,5.187,0,0,0,2.59-6.6v1.171A5.332,5.332,0,0,0,3.412-2.3a2.655,2.655,0,0,0,2.3,1.163,3.067,3.067,0,0,0,2.038-.6,3.34,3.34,0,0,0,.942-2.1Zm5.661,4a3.924,3.924,0,0,1-2.972-1.2,4.452,4.452,0,0,1-1.146-3.208v-.282a5.39,5.39,0,0,1,.51-2.386,3.982,3.982,0,0,1,1.428-1.644,3.59,3.59,0,0,1,1.988-.594,3.364,3.364,0,0,1,2.723,1.154,5,5,0,0,1,.971,3.3v.639H13.373a3.193,3.193,0,0,0,.776,2.146,2.44,2.44,0,0,0,1.888.818,2.675,2.675,0,0,0,1.378-.332A3.462,3.462,0,0,0,18.4-2.3l.938.73A3.772,3.772,0,0,1,15.954.166Zm-.191-8.052a2.048,2.048,0,0,0-1.561.677,3.288,3.288,0,0,0-.78,1.9h4.5v-.116a2.925,2.925,0,0,0-.631-1.814A1.928,1.928,0,0,0,15.763-7.886Zm6.923-1.1.05,1.129a3.273,3.273,0,0,1,2.689-1.295q2.847,0,2.872,3.212V0H26.762V-5.943a2.068,2.068,0,0,0-.444-1.436,1.78,1.78,0,0,0-1.357-.465,2.216,2.216,0,0,0-1.312.4,2.706,2.706,0,0,0-.88,1.046V0H21.233V-8.981ZM32.7-11.156v2.175h1.677v1.187H32.7v5.577a1.247,1.247,0,0,0,.224.81.943.943,0,0,0,.764.27,3.718,3.718,0,0,0,.73-.1V0a4.478,4.478,0,0,1-1.179.165,1.912,1.912,0,0,1-1.552-.623,2.675,2.675,0,0,1-.523-1.768v-5.57H29.526V-8.981h1.635v-2.175Z" transform="translate(1255.295 10422.231) rotate(90)"/>
      <path id="Trazado_904879" data-name="Trazado 904879" d="M4.856-6.709a4.061,4.061,0,0,0-.667-.051A1.786,1.786,0,0,0,2.38-5.625V0H1.025V-7.925H2.344l.022.916a2.11,2.11,0,0,1,1.89-1.062,1.384,1.384,0,0,1,.6.1Z" transform="translate(1255.295 10460.063) rotate(90)"/>
      <path id="Trazado_904880" data-name="Trazado 904880" d="M.755-4.574a5.3,5.3,0,0,1,.519-2.374A3.87,3.87,0,0,1,2.719-8.575a3.932,3.932,0,0,1,2.113-.573A3.788,3.788,0,0,1,7.8-7.877,4.886,4.886,0,0,1,8.932-4.5v.108a5.351,5.351,0,0,1-.5,2.353A3.813,3.813,0,0,1,6.993-.415,3.977,3.977,0,0,1,4.848.166,3.778,3.778,0,0,1,1.888-1.1,4.861,4.861,0,0,1,.755-4.466ZM2.3-4.391a3.842,3.842,0,0,0,.693,2.4,2.218,2.218,0,0,0,1.855.9A2.2,2.2,0,0,0,6.707-2,4.2,4.2,0,0,0,7.4-4.574a3.836,3.836,0,0,0-.7-2.395,2.23,2.23,0,0,0-1.864-.917A2.205,2.205,0,0,0,3-6.981,4.17,4.17,0,0,0,2.3-4.391ZM20.611,0A3.226,3.226,0,0,1,20.4-.946,3.426,3.426,0,0,1,17.838.166a3.17,3.17,0,0,1-2.179-.751,2.43,2.43,0,0,1-.851-1.905,2.539,2.539,0,0,1,1.067-2.179,5.029,5.029,0,0,1,3-.776H20.37v-.706a1.725,1.725,0,0,0-.481-1.282,1.935,1.935,0,0,0-1.419-.477,2.239,2.239,0,0,0-1.378.415,1.223,1.223,0,0,0-.556,1H14.991a2.119,2.119,0,0,1,.477-1.3,3.258,3.258,0,0,1,1.295-.992,4.356,4.356,0,0,1,1.8-.365,3.551,3.551,0,0,1,2.432.776,2.8,2.8,0,0,1,.913,2.137V-2.1a5.054,5.054,0,0,0,.315,1.967V0ZM18.063-1.17a2.7,2.7,0,0,0,1.37-.374,2.259,2.259,0,0,0,.938-.971V-4.358h-1.2q-2.822,0-2.822,1.652a1.4,1.4,0,0,0,.481,1.129A1.85,1.85,0,0,0,18.063-1.17ZM26.4-11.156v2.175h1.677v1.187H26.4v5.577a1.247,1.247,0,0,0,.224.81.943.943,0,0,0,.764.27,3.718,3.718,0,0,0,.73-.1V0a4.478,4.478,0,0,1-1.179.165,1.912,1.912,0,0,1-1.552-.623,2.675,2.675,0,0,1-.523-1.768v-5.57H23.226V-8.981h1.635v-2.175ZM34.208-7.6a4.6,4.6,0,0,0-.755-.058A2.024,2.024,0,0,0,31.4-6.375V0H29.866V-8.981H31.36l.025,1.038a2.391,2.391,0,0,1,2.142-1.2,1.569,1.569,0,0,1,.681.116ZM40.832,0a3.226,3.226,0,0,1-.216-.946A3.426,3.426,0,0,1,38.059.166,3.17,3.17,0,0,1,35.88-.585a2.43,2.43,0,0,1-.851-1.905A2.539,2.539,0,0,1,36.1-4.669a5.029,5.029,0,0,1,3-.776h1.494v-.706a1.725,1.725,0,0,0-.481-1.282,1.935,1.935,0,0,0-1.419-.477,2.239,2.239,0,0,0-1.378.415,1.223,1.223,0,0,0-.556,1H35.212a2.119,2.119,0,0,1,.477-1.3,3.258,3.258,0,0,1,1.295-.992,4.356,4.356,0,0,1,1.8-.365,3.551,3.551,0,0,1,2.432.776,2.8,2.8,0,0,1,.913,2.137V-2.1a5.054,5.054,0,0,0,.315,1.967V0ZM38.283-1.17a2.7,2.7,0,0,0,1.37-.374,2.259,2.259,0,0,0,.938-.971V-4.358h-1.2q-2.822,0-2.822,1.652a1.4,1.4,0,0,0,.481,1.129A1.85,1.85,0,0,0,38.283-1.17ZM39.7-12.733h1.859l-2.225,2.44-1.237,0ZM49.763-2.382a1.13,1.13,0,0,0-.469-.967,4.514,4.514,0,0,0-1.635-.594,7.731,7.731,0,0,1-1.851-.6,2.633,2.633,0,0,1-1.013-.83,1.986,1.986,0,0,1-.328-1.146A2.33,2.33,0,0,1,45.4-8.384a3.647,3.647,0,0,1,2.386-.764,3.753,3.753,0,0,1,2.478.789,2.5,2.5,0,0,1,.95,2.017H49.672a1.386,1.386,0,0,0-.535-1.087,2.006,2.006,0,0,0-1.349-.457,2.1,2.1,0,0,0-1.312.365A1.15,1.15,0,0,0,46-6.566a.932.932,0,0,0,.44.838,5.413,5.413,0,0,0,1.59.54,8.283,8.283,0,0,1,1.864.614,2.718,2.718,0,0,1,1.058.859A2.112,2.112,0,0,1,51.3-2.49a2.3,2.3,0,0,1-.963,1.93,4.039,4.039,0,0,1-2.5.726,4.523,4.523,0,0,1-1.909-.382,3.105,3.105,0,0,1-1.3-1.067,2.571,2.571,0,0,1-.469-1.482H45.7a1.59,1.59,0,0,0,.618,1.224,2.4,2.4,0,0,0,1.523.452,2.476,2.476,0,0,0,1.4-.353A1.084,1.084,0,0,0,49.763-2.382Z" transform="translate(1255.295 10466.013) rotate(90)"/>
      <path id="Trazado_904881" data-name="Trazado 904881" d="M27.246-10.151A11.77,11.77,0,0,1,23.5-2.318,12.278,12.278,0,0,1,15.117.439,11.273,11.273,0,0,1,6.031-3.625Q2.615-7.69,2.615-14.5v-3.076a18.228,18.228,0,0,1,1.593-7.844,11.9,11.9,0,0,1,4.515-5.2,12.572,12.572,0,0,1,6.768-1.813,11.56,11.56,0,0,1,8.174,2.845,11.912,11.912,0,0,1,3.582,7.877H23.005q-.549-3.835-2.384-5.554a7.213,7.213,0,0,0-5.131-1.719,7.548,7.548,0,0,0-6.339,2.991q-2.3,2.991-2.3,8.51v3.1A14.114,14.114,0,0,0,9.031-6.089,7.029,7.029,0,0,0,15.117-3.01,8.118,8.118,0,0,0,20.511-4.6Q22.39-6.2,23.005-10.151Zm34.563,1.78h-13.4L45.4,0H41.045L53.262-31.992h3.691L69.192,0H64.863ZM49.68-11.821H60.557L55.107-26.785Z" transform="translate(1082.786 10647.394)" fill="#9d9d9c"/>
      <path id="Trazado_904882" data-name="Trazado 904882" d="M27.246-10.151A11.77,11.77,0,0,1,23.5-2.318,12.278,12.278,0,0,1,15.117.439,11.273,11.273,0,0,1,6.031-3.625Q2.615-7.69,2.615-14.5v-3.076a18.228,18.228,0,0,1,1.593-7.844,11.9,11.9,0,0,1,4.515-5.2,12.572,12.572,0,0,1,6.768-1.813,11.56,11.56,0,0,1,8.174,2.845,11.912,11.912,0,0,1,3.582,7.877H23.005q-.549-3.835-2.384-5.554a7.213,7.213,0,0,0-5.131-1.719,7.548,7.548,0,0,0-6.339,2.991q-2.3,2.991-2.3,8.51v3.1A14.114,14.114,0,0,0,9.031-6.089,7.029,7.029,0,0,0,15.117-3.01,8.118,8.118,0,0,0,20.511-4.6Q22.39-6.2,23.005-10.151Zm34.541-3.977H48.362V0H44.143V-31.992H63.962v3.45h-15.6v10.964H61.787Z" transform="translate(316.51 10647.394)" fill="#9d9d9c"/>
      <path id="Trazado_904883" data-name="Trazado 904883" d="M5.234-6.1H8.406v1.367H5.234v3.594H3.781V-4.734H.609V-6.1H3.781v-3.32H5.234Zm10.453-5.281v1.227h-.266a3.805,3.805,0,0,0-2.687,1A4.161,4.161,0,0,0,11.578-6.43a3.085,3.085,0,0,1,2.453-1.031A2.95,2.95,0,0,1,16.4-6.414a4.038,4.038,0,0,1,.887,2.7A4.025,4.025,0,0,1,16.332-.9,3.3,3.3,0,0,1,13.766.156,3.247,3.247,0,0,1,11.117-1.1,4.97,4.97,0,0,1,10.1-4.328v-.555a7.488,7.488,0,0,1,1.34-4.8,4.921,4.921,0,0,1,3.988-1.7Zm-1.9,5.125a2.306,2.306,0,0,0-1.367.445A2.32,2.32,0,0,0,11.555-4.7v.531A3.731,3.731,0,0,0,12.188-1.9a1.9,1.9,0,0,0,1.578.859A1.838,1.838,0,0,0,15.3-1.758a2.982,2.982,0,0,0,.559-1.883,2.983,2.983,0,0,0-.566-1.895A1.816,1.816,0,0,0,13.789-6.258Z" transform="translate(745.914 10912.208)"/>
      <path id="Trazado_904884" data-name="Trazado 904884" d="M2.82-4.453V0H1.32V-11.375h4.2a4.215,4.215,0,0,1,2.926.953A3.231,3.231,0,0,1,9.5-7.9,3.189,3.189,0,0,1,8.465-5.348,4.4,4.4,0,0,1,5.5-4.453Zm0-1.227h2.7a2.7,2.7,0,0,0,1.844-.567A2.075,2.075,0,0,0,8-7.887a2.143,2.143,0,0,0-.641-1.628A2.525,2.525,0,0,0,5.6-10.148H2.82Z" transform="translate(724.691 10902.491)"/>
      <path id="Trazado_904885" data-name="Trazado 904885" d="M8.4,0H.945V-1.039L4.883-5.414A9.354,9.354,0,0,0,6.09-7.027a2.693,2.693,0,0,0,.332-1.285,2.041,2.041,0,0,0-.539-1.461,1.885,1.885,0,0,0-1.437-.57A2.232,2.232,0,0,0,2.77-9.73a2.343,2.343,0,0,0-.6,1.707H.727a3.355,3.355,0,0,1,1.012-2.539,3.751,3.751,0,0,1,2.707-.969,3.6,3.6,0,0,1,2.508.832,2.838,2.838,0,0,1,.922,2.215q0,1.68-2.141,4L2.688-1.18H8.4Z" transform="translate(725.323 10924.526)"/>
      <path id="Trazado_904886" data-name="Trazado 904886" d="M0,0H985.259V894.678H0Z" transform="translate(298.553 10036.883)" fill="none"/>
      <path id="Trazado_901332" data-name="Trazado 901332" d="M538.466,1118.546h0Z" transform="translate(179.594 9789.771)"/>
      <path id="Línea_1907" data-name="Línea 1907" d="M24.644.209H0V-.375H24.644Z" transform="translate(718.06 10908.4)"/>
      <path id="Trazado_904887" data-name="Trazado 904887" d="M5.234-6.1H8.406v1.367H5.234v3.594H3.781V-4.734H.609V-6.1H3.781v-3.32H5.234Zm6.883-.289H13.2a2.387,2.387,0,0,0,1.609-.539A1.8,1.8,0,0,0,15.4-8.344a1.764,1.764,0,0,0-1.992-2,2.072,2.072,0,0,0-1.5.535,1.873,1.873,0,0,0-.559,1.418H9.906a2.9,2.9,0,0,1,.988-2.246,3.6,3.6,0,0,1,2.512-.895,3.558,3.558,0,0,1,2.523.852,3.076,3.076,0,0,1,.914,2.367,2.5,2.5,0,0,1-.48,1.438,2.9,2.9,0,0,1-1.309,1.039,2.8,2.8,0,0,1,1.449.984,2.734,2.734,0,0,1,.512,1.68,3.1,3.1,0,0,1-1,2.43,3.745,3.745,0,0,1-2.6.9,3.844,3.844,0,0,1-2.605-.867A2.877,2.877,0,0,1,9.8-3h1.453a1.859,1.859,0,0,0,.586,1.438,2.229,2.229,0,0,0,1.57.539,2.187,2.187,0,0,0,1.6-.547,2.108,2.108,0,0,0,.555-1.57,1.912,1.912,0,0,0-.609-1.523A2.655,2.655,0,0,0,13.2-5.211H12.117Z" transform="translate(492.681 10552.512)"/>
      <path id="Trazado_904888" data-name="Trazado 904888" d="M2.82-4.453V0H1.32V-11.375h4.2a4.215,4.215,0,0,1,2.926.953A3.231,3.231,0,0,1,9.5-7.9,3.189,3.189,0,0,1,8.465-5.348,4.4,4.4,0,0,1,5.5-4.453Zm0-1.227h2.7a2.7,2.7,0,0,0,1.844-.567A2.075,2.075,0,0,0,8-7.887a2.143,2.143,0,0,0-.641-1.628A2.525,2.525,0,0,0,5.6-10.148H2.82Z" transform="translate(471.458 10542.795)"/>
      <path id="Trazado_904889" data-name="Trazado 904889" d="M8.4,0H.945V-1.039L4.883-5.414A9.354,9.354,0,0,0,6.09-7.027a2.693,2.693,0,0,0,.332-1.285,2.041,2.041,0,0,0-.539-1.461,1.885,1.885,0,0,0-1.437-.57A2.232,2.232,0,0,0,2.77-9.73a2.343,2.343,0,0,0-.6,1.707H.727a3.355,3.355,0,0,1,1.012-2.539,3.751,3.751,0,0,1,2.707-.969,3.6,3.6,0,0,1,2.508.832,2.838,2.838,0,0,1,.922,2.215q0,1.68-2.141,4L2.688-1.18H8.4Z" transform="translate(472.091 10564.83)"/>
      <path id="Trazado_901333" data-name="Trazado 901333" d="M213.424,656.85h0Z" transform="translate(251.403 9891.771)"/>
      <path id="Línea_1908" data-name="Línea 1908" d="M24.644.209H0V-.375H24.644Z" transform="translate(464.827 10548.704)"/>
      <path id="Trazado_904890" data-name="Trazado 904890" d="M2.82-4.453V0H1.32V-11.375h4.2a4.215,4.215,0,0,1,2.926.953A3.231,3.231,0,0,1,9.5-7.9,3.189,3.189,0,0,1,8.465-5.348,4.4,4.4,0,0,1,5.5-4.453Zm0-1.227h2.7a2.7,2.7,0,0,0,1.844-.567A2.075,2.075,0,0,0,8-7.887a2.143,2.143,0,0,0-.641-1.628A2.525,2.525,0,0,0,5.6-10.148H2.82Z" transform="translate(305.376 10170.271)"/>
      <path id="Trazado_904891" data-name="Trazado 904891" d="M5.7,0H4.242V-9.633L1.328-8.562V-9.875L5.469-11.43H5.7ZM16.031-3.82h1.578v1.18H16.031V0H14.578V-2.641H9.4v-.852l5.094-7.883h1.539Zm-4.992,0h3.539V-9.4l-.172.313Z" transform="translate(300.951 10192.306)"/>
      <path id="Trazado_901334" data-name="Trazado 901334" d="M0,178.688H0Z" transform="translate(298.553 9997.407)"/>
      <path id="Línea_1909" data-name="Línea 1909" d="M24.644.209H0V-.375H24.644Z" transform="translate(298.553 10176.178)"/>
      <path id="Trazado_904892" data-name="Trazado 904892" d="M0,0H985.259V894.678H0Z" transform="translate(298.553 10036.883)" fill="none"/>
      <path id="Trazado_904893" data-name="Trazado 904893" d="M2.82-4.453V0H1.32V-11.375h4.2a4.215,4.215,0,0,1,2.926.953A3.231,3.231,0,0,1,9.5-7.9,3.189,3.189,0,0,1,8.465-5.348,4.4,4.4,0,0,1,5.5-4.453Zm0-1.227h2.7a2.7,2.7,0,0,0,1.844-.567A2.075,2.075,0,0,0,8-7.887a2.143,2.143,0,0,0-.641-1.628A2.525,2.525,0,0,0,5.6-10.148H2.82Z" transform="translate(573.028 10190.22)"/>
      <path id="Trazado_904894" data-name="Trazado 904894" d="M3.047-6.391H4.133A2.387,2.387,0,0,0,5.742-6.93a1.8,1.8,0,0,0,.586-1.414,1.764,1.764,0,0,0-1.992-2,2.072,2.072,0,0,0-1.5.535,1.873,1.873,0,0,0-.559,1.418H.836a2.9,2.9,0,0,1,.988-2.246,3.6,3.6,0,0,1,2.512-.895,3.558,3.558,0,0,1,2.523.852,3.076,3.076,0,0,1,.914,2.367,2.5,2.5,0,0,1-.48,1.438A2.9,2.9,0,0,1,5.984-5.836a2.8,2.8,0,0,1,1.449.984,2.734,2.734,0,0,1,.512,1.68,3.1,3.1,0,0,1-1,2.43,3.745,3.745,0,0,1-2.6.9A3.844,3.844,0,0,1,1.738-.711,2.877,2.877,0,0,1,.734-3H2.188a1.859,1.859,0,0,0,.586,1.438,2.229,2.229,0,0,0,1.57.539,2.187,2.187,0,0,0,1.6-.547A2.108,2.108,0,0,0,6.5-3.141a1.912,1.912,0,0,0-.609-1.523,2.655,2.655,0,0,0-1.758-.547H3.047ZM15.6-11.383v1.227h-.266a3.805,3.805,0,0,0-2.687,1A4.161,4.161,0,0,0,11.492-6.43a3.085,3.085,0,0,1,2.453-1.031,2.95,2.95,0,0,1,2.371,1.047,4.038,4.038,0,0,1,.887,2.7A4.025,4.025,0,0,1,16.246-.9,3.3,3.3,0,0,1,13.68.156,3.247,3.247,0,0,1,11.031-1.1a4.97,4.97,0,0,1-1.016-3.23v-.555a7.488,7.488,0,0,1,1.34-4.8,4.921,4.921,0,0,1,3.988-1.7ZM13.7-6.258a2.306,2.306,0,0,0-1.367.445A2.32,2.32,0,0,0,11.469-4.7v.531A3.731,3.731,0,0,0,12.1-1.9a1.9,1.9,0,0,0,1.578.859,1.838,1.838,0,0,0,1.535-.719,2.982,2.982,0,0,0,.559-1.883,2.983,2.983,0,0,0-.566-1.895A1.816,1.816,0,0,0,13.7-6.258Z" transform="translate(568.603 10212.255)"/>
      <path id="Trazado_904895" data-name="Trazado 904895" d="M5.7,0H4.242V-9.633L1.328-8.562V-9.875L5.469-11.43H5.7Z" transform="translate(523.015 10195.512)"/>
      <path id="Trazado_904896" data-name="Trazado 904896" d="M7.6-2.977H2.836L1.766,0H.219L4.563-11.375H5.875L10.227,0H8.688ZM3.289-4.2H7.156L5.219-9.523Z" transform="translate(917.496 10050.194)"/>
      <path id="Trazado_904897" data-name="Trazado 904897" d="M0,0H985.259V894.678H0Z" transform="translate(298.553 10036.883)" fill="none"/>
      <path id="Trazado_901335" data-name="Trazado 901335" d="M343.55,204.294h0Z" transform="translate(222.655 9991.75)"/>
      <path id="Línea_1910" data-name="Línea 1910" d="M24.644.209H0V-.375H24.644Z" transform="translate(566.205 10196.127)"/>
      <path id="Trazado_904898" data-name="Trazado 904898" d="M5.562-6.483h3.37V-5.03H5.562v3.818H4.018V-5.03H.647V-6.483h3.37v-3.528H5.562Zm7.313-.307h1.154a2.536,2.536,0,0,0,1.71-.573,1.914,1.914,0,0,0,.623-1.5,1.875,1.875,0,0,0-2.117-2.125,2.2,2.2,0,0,0-1.59.569,1.99,1.99,0,0,0-.594,1.507H10.525a3.083,3.083,0,0,1,1.05-2.386,3.825,3.825,0,0,1,2.669-.95,3.78,3.78,0,0,1,2.681.9A3.269,3.269,0,0,1,17.9-8.832a2.653,2.653,0,0,1-.51,1.527A3.082,3.082,0,0,1,16-6.2a2.97,2.97,0,0,1,1.54,1.046,2.9,2.9,0,0,1,.544,1.785A3.3,3.3,0,0,1,17.017-.789a3.979,3.979,0,0,1-2.764.955,4.084,4.084,0,0,1-2.768-.921,3.056,3.056,0,0,1-1.067-2.432h1.544a1.975,1.975,0,0,0,.623,1.527,2.368,2.368,0,0,0,1.668.573,2.324,2.324,0,0,0,1.7-.581,2.239,2.239,0,0,0,.589-1.668A2.032,2.032,0,0,0,15.9-4.956a2.821,2.821,0,0,0-1.868-.581H12.875Zm7.5,5.985a.962.962,0,0,1,.237-.664.9.9,0,0,1,.71-.266.928.928,0,0,1,.718.266.942.942,0,0,1,.245.664.891.891,0,0,1-.245.639.945.945,0,0,1-.718.257.917.917,0,0,1-.71-.257A.909.909,0,0,1,20.378-.805ZM25.367-6.06l.614-6.026h6.192v1.419H27.285l-.365,3.3a3.9,3.9,0,0,1,2.017-.523A3.334,3.334,0,0,1,31.56-6.8a4.278,4.278,0,0,1,.971,2.951A4.129,4.129,0,0,1,31.522-.909,3.676,3.676,0,0,1,28.7.166a3.82,3.82,0,0,1-2.615-.888,3.545,3.545,0,0,1-1.154-2.457h1.453a2.439,2.439,0,0,0,.739,1.565,2.3,2.3,0,0,0,1.577.527,2.072,2.072,0,0,0,1.681-.73A3.054,3.054,0,0,0,31-3.835a2.8,2.8,0,0,0-.66-1.947,2.245,2.245,0,0,0-1.756-.735A2.532,2.532,0,0,0,27-6.076l-.407.332Z" transform="translate(979.306 10553.512)"/>
      <path id="Trazado_904899" data-name="Trazado 904899" d="M8.923,0H1V-1.1L5.188-5.752A9.939,9.939,0,0,0,6.47-7.467a2.861,2.861,0,0,0,.353-1.365,2.169,2.169,0,0,0-.573-1.552,2,2,0,0,0-1.527-.606,2.372,2.372,0,0,0-1.781.652,2.489,2.489,0,0,0-.635,1.814H.772a3.565,3.565,0,0,1,1.075-2.7,3.985,3.985,0,0,1,2.876-1.029,3.829,3.829,0,0,1,2.665.884,3.015,3.015,0,0,1,.979,2.353q0,1.785-2.274,4.25L2.855-1.253H8.923Zm1.735,2.407-.872-.6A4.006,4.006,0,0,0,10.6-.432V-1.818h1.5v1.2a3.781,3.781,0,0,1-.411,1.677A3.926,3.926,0,0,1,10.658,2.407ZM14.593-6.06l.614-6.026H21.4v1.419H16.51l-.365,3.3a3.9,3.9,0,0,1,2.017-.523A3.334,3.334,0,0,1,20.785-6.8a4.278,4.278,0,0,1,.971,2.951A4.129,4.129,0,0,1,20.748-.909,3.676,3.676,0,0,1,17.93.166a3.82,3.82,0,0,1-2.615-.888,3.545,3.545,0,0,1-1.154-2.457h1.453a2.439,2.439,0,0,0,.739,1.565,2.3,2.3,0,0,0,1.577.527,2.072,2.072,0,0,0,1.681-.73,3.054,3.054,0,0,0,.61-2.017,2.8,2.8,0,0,0-.66-1.947,2.245,2.245,0,0,0-1.756-.735,2.532,2.532,0,0,0-1.577.44l-.407.332Z" transform="translate(583.158 10407.248)"/>
      <path id="Trazado_904900" data-name="Trazado 904900" d="M8.078-4.852a6.61,6.61,0,0,1-.867,3.773A3.084,3.084,0,0,1,4.5.156,3.107,3.107,0,0,1,1.8-1.051,6.274,6.274,0,0,1,.9-4.656v-1.93a6.463,6.463,0,0,1,.867-3.727,3.108,3.108,0,0,1,2.719-1.219,3.136,3.136,0,0,1,2.7,1.176,6.237,6.237,0,0,1,.891,3.629ZM6.633-6.828A5.3,5.3,0,0,0,6.117-9.5a1.775,1.775,0,0,0-1.633-.84,1.751,1.751,0,0,0-1.617.836,5.171,5.171,0,0,0-.523,2.57v2.313A5.381,5.381,0,0,0,2.879-1.9,1.771,1.771,0,0,0,4.5-1.023a1.747,1.747,0,0,0,1.59-.828,5.186,5.186,0,0,0,.543-2.609Zm3.477,6.07a.905.905,0,0,1,.223-.625A.848.848,0,0,1,11-1.633a.874.874,0,0,1,.676.25.887.887,0,0,1,.23.625.839.839,0,0,1-.23.6A.89.89,0,0,1,11,.086a.863.863,0,0,1-.668-.242A.855.855,0,0,1,10.109-.758Zm9.7-10.625v1.227h-.266a3.805,3.805,0,0,0-2.687,1A4.161,4.161,0,0,0,15.7-6.43a3.085,3.085,0,0,1,2.453-1.031,2.95,2.95,0,0,1,2.371,1.047,4.038,4.038,0,0,1,.887,2.7A4.025,4.025,0,0,1,20.457-.9,3.3,3.3,0,0,1,17.891.156,3.247,3.247,0,0,1,15.242-1.1a4.97,4.97,0,0,1-1.016-3.23v-.555a7.488,7.488,0,0,1,1.34-4.8,4.921,4.921,0,0,1,3.988-1.7Zm-1.9,5.125a2.306,2.306,0,0,0-1.367.445A2.32,2.32,0,0,0,15.68-4.7v.531A3.731,3.731,0,0,0,16.313-1.9a1.9,1.9,0,0,0,1.578.859,1.838,1.838,0,0,0,1.535-.719,2.982,2.982,0,0,0,.559-1.883,2.983,2.983,0,0,0-.566-1.895A1.816,1.816,0,0,0,17.914-6.258Z" transform="translate(689.813 10295.457)"/>
      <path id="Trazado_904901" data-name="Trazado 904901" d="M8.078-4.852a6.61,6.61,0,0,1-.867,3.773A3.084,3.084,0,0,1,4.5.156,3.107,3.107,0,0,1,1.8-1.051,6.274,6.274,0,0,1,.9-4.656v-1.93a6.463,6.463,0,0,1,.867-3.727,3.108,3.108,0,0,1,2.719-1.219,3.136,3.136,0,0,1,2.7,1.176,6.237,6.237,0,0,1,.891,3.629ZM6.633-6.828A5.3,5.3,0,0,0,6.117-9.5a1.775,1.775,0,0,0-1.633-.84,1.751,1.751,0,0,0-1.617.836,5.171,5.171,0,0,0-.523,2.57v2.313A5.381,5.381,0,0,0,2.879-1.9,1.771,1.771,0,0,0,4.5-1.023a1.747,1.747,0,0,0,1.59-.828,5.186,5.186,0,0,0,.543-2.609Zm3.477,6.07a.905.905,0,0,1,.223-.625A.848.848,0,0,1,11-1.633a.874.874,0,0,1,.676.25.887.887,0,0,1,.23.625.839.839,0,0,1-.23.6A.89.89,0,0,1,11,.086a.863.863,0,0,1-.668-.242A.855.855,0,0,1,10.109-.758Zm10.93-7.648a2.641,2.641,0,0,1-.449,1.516,3.057,3.057,0,0,1-1.215,1.039,3.26,3.26,0,0,1,1.41,1.117A2.811,2.811,0,0,1,21.3-3.07a2.972,2.972,0,0,1-1,2.352,3.827,3.827,0,0,1-2.621.875,3.81,3.81,0,0,1-2.629-.879A2.986,2.986,0,0,1,14.07-3.07a2.9,2.9,0,0,1,.5-1.664,3.136,3.136,0,0,1,1.395-1.125,2.981,2.981,0,0,1-1.2-1.039,2.679,2.679,0,0,1-.437-1.508,2.94,2.94,0,0,1,.922-2.281,3.458,3.458,0,0,1,2.43-.844,3.461,3.461,0,0,1,2.426.844A2.934,2.934,0,0,1,21.039-8.406Zm-1.18,5.3a2.1,2.1,0,0,0-.605-1.555,2.147,2.147,0,0,0-1.582-.6,2.11,2.11,0,0,0-1.566.594,2.12,2.12,0,0,0-.59,1.563,2.019,2.019,0,0,0,.574,1.523,2.2,2.2,0,0,0,1.6.555,2.2,2.2,0,0,0,1.594-.559A2.014,2.014,0,0,0,19.859-3.1Zm-2.172-7.242a1.865,1.865,0,0,0-1.379.527,1.937,1.937,0,0,0-.527,1.434,1.928,1.928,0,0,0,.52,1.4,1.844,1.844,0,0,0,1.387.535,1.844,1.844,0,0,0,1.387-.535,1.928,1.928,0,0,0,.52-1.4A1.929,1.929,0,0,0,19.055-9.8,1.839,1.839,0,0,0,17.688-10.344Z" transform="translate(723.191 10214.595)"/>
      <path id="Trazado_904902" data-name="Trazado 904902" d="M6.051,0H4.507V-10.235L1.411-9.1v-1.395l4.4-1.652h.241Zm4.607,2.407-.872-.6A4.006,4.006,0,0,0,10.6-.432V-1.818h1.5v1.2a3.781,3.781,0,0,1-.411,1.677A3.926,3.926,0,0,1,10.658,2.407ZM14.593-6.06l.614-6.026H21.4v1.419H16.51l-.365,3.3a3.9,3.9,0,0,1,2.017-.523A3.334,3.334,0,0,1,20.785-6.8a4.278,4.278,0,0,1,.971,2.951A4.129,4.129,0,0,1,20.748-.909,3.676,3.676,0,0,1,17.93.166a3.82,3.82,0,0,1-2.615-.888,3.545,3.545,0,0,1-1.154-2.457h1.453a2.439,2.439,0,0,0,.739,1.565,2.3,2.3,0,0,0,1.577.527,2.072,2.072,0,0,0,1.681-.73,3.054,3.054,0,0,0,.61-2.017,2.8,2.8,0,0,0-.66-1.947,2.245,2.245,0,0,0-1.756-.735,2.532,2.532,0,0,0-1.577.44l-.407.332Z" transform="translate(883.687 10202.572)"/>
      <path id="Trazado_904903" data-name="Trazado 904903" d="M8.583-5.155a7.023,7.023,0,0,1-.921,4.009A3.277,3.277,0,0,1,4.781.166,3.3,3.3,0,0,1,1.917-1.116,6.666,6.666,0,0,1,.955-4.947V-7a6.867,6.867,0,0,1,.921-3.959,3.3,3.3,0,0,1,2.889-1.295A3.332,3.332,0,0,1,7.637-11a6.627,6.627,0,0,1,.946,3.856Zm-1.536-2.1A5.627,5.627,0,0,0,6.5-10.1a1.886,1.886,0,0,0-1.735-.892,1.861,1.861,0,0,0-1.718.888A5.494,5.494,0,0,0,2.49-7.371v2.457a5.717,5.717,0,0,0,.569,2.893,1.882,1.882,0,0,0,1.722.934,1.856,1.856,0,0,0,1.689-.88A5.51,5.51,0,0,0,7.047-4.74Zm3.611,9.662-.872-.6A4.006,4.006,0,0,0,10.6-.432V-1.818h1.5v1.2a3.781,3.781,0,0,1-.411,1.677A3.926,3.926,0,0,1,10.658,2.407ZM21.217-8.932a2.807,2.807,0,0,1-.477,1.61,3.248,3.248,0,0,1-1.291,1.1,3.464,3.464,0,0,1,1.5,1.187A2.987,2.987,0,0,1,21.5-3.262a3.158,3.158,0,0,1-1.058,2.5,4.066,4.066,0,0,1-2.785.93,4.048,4.048,0,0,1-2.793-.934,3.173,3.173,0,0,1-1.05-2.494,3.076,3.076,0,0,1,.535-1.768,3.332,3.332,0,0,1,1.482-1.2,3.167,3.167,0,0,1-1.27-1.1,2.846,2.846,0,0,1-.465-1.6,3.124,3.124,0,0,1,.979-2.424,3.674,3.674,0,0,1,2.582-.9,3.678,3.678,0,0,1,2.577.9A3.117,3.117,0,0,1,21.217-8.932ZM19.963-3.3a2.228,2.228,0,0,0-.643-1.652,2.281,2.281,0,0,0-1.681-.639,2.241,2.241,0,0,0-1.664.631,2.253,2.253,0,0,0-.627,1.66,2.145,2.145,0,0,0,.61,1.619,2.342,2.342,0,0,0,1.7.589,2.335,2.335,0,0,0,1.693-.594A2.14,2.14,0,0,0,19.963-3.3ZM17.656-10.99a1.981,1.981,0,0,0-1.465.56,2.058,2.058,0,0,0-.56,1.523,2.048,2.048,0,0,0,.552,1.49,1.959,1.959,0,0,0,1.473.569,1.959,1.959,0,0,0,1.473-.569,2.048,2.048,0,0,0,.552-1.49,2.049,2.049,0,0,0-.573-1.5A1.953,1.953,0,0,0,17.656-10.99Z" transform="translate(952.142 10082.101)"/>
      <path id="Trazado_904904" data-name="Trazado 904904" d="M8.078-4.852a6.61,6.61,0,0,1-.867,3.773A3.084,3.084,0,0,1,4.5.156,3.107,3.107,0,0,1,1.8-1.051,6.274,6.274,0,0,1,.9-4.656v-1.93a6.463,6.463,0,0,1,.867-3.727,3.108,3.108,0,0,1,2.719-1.219,3.136,3.136,0,0,1,2.7,1.176,6.237,6.237,0,0,1,.891,3.629ZM6.633-6.828A5.3,5.3,0,0,0,6.117-9.5a1.775,1.775,0,0,0-1.633-.84,1.751,1.751,0,0,0-1.617.836,5.171,5.171,0,0,0-.523,2.57v2.313A5.381,5.381,0,0,0,2.879-1.9,1.771,1.771,0,0,0,4.5-1.023a1.747,1.747,0,0,0,1.59-.828,5.186,5.186,0,0,0,.543-2.609Zm3.477,6.07a.905.905,0,0,1,.223-.625A.848.848,0,0,1,11-1.633a.874.874,0,0,1,.676.25.887.887,0,0,1,.23.625.839.839,0,0,1-.23.6A.89.89,0,0,1,11,.086a.863.863,0,0,1-.668-.242A.855.855,0,0,1,10.109-.758Zm6.133-5.633h1.086a2.387,2.387,0,0,0,1.609-.539,1.8,1.8,0,0,0,.586-1.414,1.764,1.764,0,0,0-1.992-2,2.072,2.072,0,0,0-1.5.535,1.873,1.873,0,0,0-.559,1.418H14.031a2.9,2.9,0,0,1,.988-2.246,3.6,3.6,0,0,1,2.512-.895,3.558,3.558,0,0,1,2.523.852,3.076,3.076,0,0,1,.914,2.367,2.5,2.5,0,0,1-.48,1.438A2.9,2.9,0,0,1,19.18-5.836a2.8,2.8,0,0,1,1.449.984,2.734,2.734,0,0,1,.512,1.68,3.1,3.1,0,0,1-1,2.43,3.745,3.745,0,0,1-2.6.9,3.844,3.844,0,0,1-2.605-.867A2.877,2.877,0,0,1,13.93-3h1.453a1.859,1.859,0,0,0,.586,1.438,2.229,2.229,0,0,0,1.57.539,2.187,2.187,0,0,0,1.6-.547,2.108,2.108,0,0,0,.555-1.57,1.912,1.912,0,0,0-.609-1.523,2.655,2.655,0,0,0-1.758-.547H16.242Z" transform="translate(1162.489 10111.733)"/>
      <path id="Trazado_904905" data-name="Trazado 904905" d="M8.077-3.163H3.013L1.876,0H.232L4.848-12.086H6.242L10.866,0H9.23Zm-4.582-1.3H7.6L5.545-10.119Zm11.953-.042H11.4V-5.761h4.051Zm8.915-.647a7.023,7.023,0,0,1-.921,4.009A3.277,3.277,0,0,1,20.561.166,3.3,3.3,0,0,1,17.7-1.116a6.666,6.666,0,0,1-.963-3.831V-7a6.867,6.867,0,0,1,.921-3.959,3.3,3.3,0,0,1,2.889-1.295A3.332,3.332,0,0,1,23.417-11a6.627,6.627,0,0,1,.946,3.856Zm-1.536-2.1a5.627,5.627,0,0,0-.548-2.843,1.886,1.886,0,0,0-1.735-.892,1.861,1.861,0,0,0-1.718.888,5.494,5.494,0,0,0-.556,2.731v2.457a5.717,5.717,0,0,0,.569,2.893,1.882,1.882,0,0,0,1.722.934,1.856,1.856,0,0,0,1.689-.88,5.51,5.51,0,0,0,.577-2.772Zm3.694,6.45a.962.962,0,0,1,.237-.664.9.9,0,0,1,.71-.266.928.928,0,0,1,.718.266.942.942,0,0,1,.245.664.891.891,0,0,1-.245.639.945.945,0,0,1-.718.257.917.917,0,0,1-.71-.257A.909.909,0,0,1,26.521-.805ZM38.607-11.223,33.6,0h-1.61L36.98-10.824H30.439v-1.262h8.168Z" transform="translate(594.411 10099.928)"/>
      <path id="Trazado_904906" data-name="Trazado 904906" d="M1.609-5.7l.578-5.672H8.016v1.336h-4.6l-.344,3.1a3.671,3.671,0,0,1,1.9-.492A3.138,3.138,0,0,1,7.438-6.4a4.026,4.026,0,0,1,.914,2.777A3.886,3.886,0,0,1,7.4-.855,3.46,3.46,0,0,1,4.75.156,3.6,3.6,0,0,1,2.289-.68,3.337,3.337,0,0,1,1.2-2.992H2.57a2.3,2.3,0,0,0,.7,1.473,2.162,2.162,0,0,0,1.484.5,1.95,1.95,0,0,0,1.582-.687,2.874,2.874,0,0,0,.574-1.9,2.638,2.638,0,0,0-.621-1.832,2.113,2.113,0,0,0-1.652-.691,2.383,2.383,0,0,0-1.484.414l-.383.313Z" transform="translate(539.214 10356.199)"/>
      <path id="Trazado_904907" data-name="Trazado 904907" d="M2.82-4.453V0H1.32V-11.375h4.2a4.215,4.215,0,0,1,2.926.953A3.231,3.231,0,0,1,9.5-7.9,3.189,3.189,0,0,1,8.465-5.348,4.4,4.4,0,0,1,5.5-4.453Zm0-1.227h2.7a2.7,2.7,0,0,0,1.844-.567A2.075,2.075,0,0,0,8-7.887a2.143,2.143,0,0,0-.641-1.628A2.525,2.525,0,0,0,5.6-10.148H2.82Z" transform="translate(958.084 10542.795)"/>
      <path id="Trazado_904908" data-name="Trazado 904908" d="M8.4,0H.945V-1.039L4.883-5.414A9.354,9.354,0,0,0,6.09-7.027a2.693,2.693,0,0,0,.332-1.285,2.041,2.041,0,0,0-.539-1.461,1.885,1.885,0,0,0-1.437-.57A2.232,2.232,0,0,0,2.77-9.73a2.343,2.343,0,0,0-.6,1.707H.727a3.355,3.355,0,0,1,1.012-2.539,3.751,3.751,0,0,1,2.707-.969,3.6,3.6,0,0,1,2.508.832,2.838,2.838,0,0,1,.922,2.215q0,1.68-2.141,4L2.688-1.18H8.4Z" transform="translate(958.716 10564.83)"/>
      <path id="Trazado_901336" data-name="Trazado 901336" d="M838.042,656.85h0Z" transform="translate(113.411 9891.771)"/>
      <path id="Línea_1911" data-name="Línea 1911" d="M24.644.209H0V-.375H24.644Z" transform="translate(951.452 10548.704)"/>
      <path id="Trazado_904909" data-name="Trazado 904909" d="M5.234-6.1H8.406v1.367H5.234v3.594H3.781V-4.734H.609V-6.1H3.781v-3.32H5.234Zm12.125-4.461L12.648,0H11.133l4.7-10.187H9.672v-1.187h7.688Z" transform="translate(1200.735 10325.089)"/>
      <path id="Trazado_904910" data-name="Trazado 904910" d="M2.82-4.453V0H1.32V-11.375h4.2a4.215,4.215,0,0,1,2.926.953A3.231,3.231,0,0,1,9.5-7.9,3.189,3.189,0,0,1,8.465-5.348,4.4,4.4,0,0,1,5.5-4.453Zm0-1.227h2.7a2.7,2.7,0,0,0,1.844-.567A2.075,2.075,0,0,0,8-7.887a2.143,2.143,0,0,0-.641-1.628A2.525,2.525,0,0,0,5.6-10.148H2.82Z" transform="translate(1179.513 10315.372)"/>
      <path id="Trazado_904911" data-name="Trazado 904911" d="M6.617-11.383v1.227H6.352a3.805,3.805,0,0,0-2.687,1A4.161,4.161,0,0,0,2.508-6.43,3.085,3.085,0,0,1,4.961-7.461,2.95,2.95,0,0,1,7.332-6.414a4.038,4.038,0,0,1,.887,2.7A4.025,4.025,0,0,1,7.262-.9,3.3,3.3,0,0,1,4.7.156,3.247,3.247,0,0,1,2.047-1.1a4.97,4.97,0,0,1-1.016-3.23v-.555a7.488,7.488,0,0,1,1.34-4.8,4.921,4.921,0,0,1,3.988-1.7Zm-1.9,5.125a2.306,2.306,0,0,0-1.367.445A2.32,2.32,0,0,0,2.484-4.7v.531A3.731,3.731,0,0,0,3.117-1.9,1.9,1.9,0,0,0,4.7-1.039,1.838,1.838,0,0,0,6.23-1.758a2.982,2.982,0,0,0,.559-1.883,2.983,2.983,0,0,0-.566-1.895A1.816,1.816,0,0,0,4.719-6.258Z" transform="translate(1180.146 10337.407)"/>
      <path id="Trazado_901337" data-name="Trazado 901337" d="M1122.261,364.937h0Z" transform="translate(50.62 9956.261)"/>
      <path id="Línea_1912" data-name="Línea 1912" d="M24.644.209H0V-.375H24.644Z" transform="translate(1172.881 10321.281)"/>
      <path id="Trazado_904912" data-name="Trazado 904912" d="M4.358-4.507H.307V-5.761H4.358Zm8.915-.647a7.023,7.023,0,0,1-.921,4.009A3.277,3.277,0,0,1,9.471.166,3.3,3.3,0,0,1,6.607-1.116a6.666,6.666,0,0,1-.963-3.831V-7a6.867,6.867,0,0,1,.921-3.959,3.3,3.3,0,0,1,2.889-1.295A3.332,3.332,0,0,1,12.327-11a6.627,6.627,0,0,1,.946,3.856Zm-1.536-2.1a5.627,5.627,0,0,0-.548-2.843,1.886,1.886,0,0,0-1.735-.892,1.861,1.861,0,0,0-1.718.888A5.494,5.494,0,0,0,7.18-7.371v2.457a5.717,5.717,0,0,0,.569,2.893,1.882,1.882,0,0,0,1.722.934,1.856,1.856,0,0,0,1.689-.88,5.51,5.51,0,0,0,.577-2.772Zm3.694,6.45a.962.962,0,0,1,.237-.664.9.9,0,0,1,.71-.266.928.928,0,0,1,.718.266.942.942,0,0,1,.245.664.891.891,0,0,1-.245.639.945.945,0,0,1-.718.257.917.917,0,0,1-.71-.257A.909.909,0,0,1,15.431-.805Zm10.31-11.289v1.3h-.282A4.043,4.043,0,0,0,22.6-9.729a4.421,4.421,0,0,0-1.229,2.9,3.278,3.278,0,0,1,2.606-1.1A3.134,3.134,0,0,1,26.5-6.815a4.29,4.29,0,0,1,.942,2.872A4.277,4.277,0,0,1,26.426-.955,3.5,3.5,0,0,1,23.7.166a3.45,3.45,0,0,1-2.814-1.332A5.28,5.28,0,0,1,19.806-4.6v-.589a7.956,7.956,0,0,1,1.424-5.1,5.228,5.228,0,0,1,4.238-1.805ZM23.724-6.649a2.45,2.45,0,0,0-1.453.473,2.465,2.465,0,0,0-.921,1.187v.564a3.965,3.965,0,0,0,.672,2.407A2.015,2.015,0,0,0,23.7-1.1a1.952,1.952,0,0,0,1.631-.764,3.169,3.169,0,0,0,.594-2,3.17,3.17,0,0,0-.6-2.013A1.929,1.929,0,0,0,23.724-6.649Z" transform="translate(812.915 10085.598)"/>
      <path id="Trazado_904913" data-name="Trazado 904913" d="M2.82-4.453V0H1.32V-11.375h4.2a4.215,4.215,0,0,1,2.926.953A3.231,3.231,0,0,1,9.5-7.9,3.189,3.189,0,0,1,8.465-5.348,4.4,4.4,0,0,1,5.5-4.453Zm0-1.227h2.7a2.7,2.7,0,0,0,1.844-.567A2.075,2.075,0,0,0,8-7.887a2.143,2.143,0,0,0-.641-1.628A2.525,2.525,0,0,0,5.6-10.148H2.82Z" transform="translate(791.692 10074.881)"/>
      <path id="Trazado_904914" data-name="Trazado 904914" d="M3.047-6.391H4.133A2.387,2.387,0,0,0,5.742-6.93a1.8,1.8,0,0,0,.586-1.414,1.764,1.764,0,0,0-1.992-2,2.072,2.072,0,0,0-1.5.535,1.873,1.873,0,0,0-.559,1.418H.836a2.9,2.9,0,0,1,.988-2.246,3.6,3.6,0,0,1,2.512-.895,3.558,3.558,0,0,1,2.523.852,3.076,3.076,0,0,1,.914,2.367,2.5,2.5,0,0,1-.48,1.438A2.9,2.9,0,0,1,5.984-5.836a2.8,2.8,0,0,1,1.449.984,2.734,2.734,0,0,1,.512,1.68,3.1,3.1,0,0,1-1,2.43,3.745,3.745,0,0,1-2.6.9A3.844,3.844,0,0,1,1.738-.711,2.877,2.877,0,0,1,.734-3H2.188a1.859,1.859,0,0,0,.586,1.438,2.229,2.229,0,0,0,1.57.539,2.187,2.187,0,0,0,1.6-.547A2.108,2.108,0,0,0,6.5-3.141a1.912,1.912,0,0,0-.609-1.523,2.655,2.655,0,0,0-1.758-.547H3.047ZM15.6-11.383v1.227h-.266a3.805,3.805,0,0,0-2.687,1A4.161,4.161,0,0,0,11.492-6.43a3.085,3.085,0,0,1,2.453-1.031,2.95,2.95,0,0,1,2.371,1.047,4.038,4.038,0,0,1,.887,2.7A4.025,4.025,0,0,1,16.246-.9,3.3,3.3,0,0,1,13.68.156,3.247,3.247,0,0,1,11.031-1.1a4.97,4.97,0,0,1-1.016-3.23v-.555a7.488,7.488,0,0,1,1.34-4.8,4.921,4.921,0,0,1,3.988-1.7ZM13.7-6.258a2.306,2.306,0,0,0-1.367.445A2.32,2.32,0,0,0,11.469-4.7v.531A3.731,3.731,0,0,0,12.1-1.9a1.9,1.9,0,0,0,1.578.859,1.838,1.838,0,0,0,1.535-.719,2.982,2.982,0,0,0,.559-1.883,2.983,2.983,0,0,0-.566-1.895A1.816,1.816,0,0,0,13.7-6.258Z" transform="translate(786.87 10096.916)"/>
      <path id="Trazado_901338" data-name="Trazado 901338" d="M624.467,56.251h0Z" transform="translate(160.594 10024.456)"/>
      <path id="Línea_1913" data-name="Línea 1913" d="M24.644.209H0V-.375H24.644Z" transform="translate(785.061 10080.79)"/>
      <path id="Trazado_904915" data-name="Trazado 904915" d="M2.82-4.453V0H1.32V-11.375h4.2a4.215,4.215,0,0,1,2.926.953A3.231,3.231,0,0,1,9.5-7.9,3.189,3.189,0,0,1,8.465-5.348,4.4,4.4,0,0,1,5.5-4.453Zm0-1.227h2.7a2.7,2.7,0,0,0,1.844-.567A2.075,2.075,0,0,0,8-7.887a2.143,2.143,0,0,0-.641-1.628A2.525,2.525,0,0,0,5.6-10.148H2.82Z" transform="translate(1071.964 10066.118)"/>
      <path id="Trazado_904916" data-name="Trazado 904916" d="M3.047-6.391H4.133A2.387,2.387,0,0,0,5.742-6.93a1.8,1.8,0,0,0,.586-1.414,1.764,1.764,0,0,0-1.992-2,2.072,2.072,0,0,0-1.5.535,1.873,1.873,0,0,0-.559,1.418H.836a2.9,2.9,0,0,1,.988-2.246,3.6,3.6,0,0,1,2.512-.895,3.558,3.558,0,0,1,2.523.852,3.076,3.076,0,0,1,.914,2.367,2.5,2.5,0,0,1-.48,1.438A2.9,2.9,0,0,1,5.984-5.836a2.8,2.8,0,0,1,1.449.984,2.734,2.734,0,0,1,.512,1.68,3.1,3.1,0,0,1-1,2.43,3.745,3.745,0,0,1-2.6.9A3.844,3.844,0,0,1,1.738-.711,2.877,2.877,0,0,1,.734-3H2.188a1.859,1.859,0,0,0,.586,1.438,2.229,2.229,0,0,0,1.57.539,2.187,2.187,0,0,0,1.6-.547A2.108,2.108,0,0,0,6.5-3.141a1.912,1.912,0,0,0-.609-1.523,2.655,2.655,0,0,0-1.758-.547H3.047ZM15.6-11.383v1.227h-.266a3.805,3.805,0,0,0-2.687,1A4.161,4.161,0,0,0,11.492-6.43a3.085,3.085,0,0,1,2.453-1.031,2.95,2.95,0,0,1,2.371,1.047,4.038,4.038,0,0,1,.887,2.7A4.025,4.025,0,0,1,16.246-.9,3.3,3.3,0,0,1,13.68.156,3.247,3.247,0,0,1,11.031-1.1a4.97,4.97,0,0,1-1.016-3.23v-.555a7.488,7.488,0,0,1,1.34-4.8,4.921,4.921,0,0,1,3.988-1.7ZM13.7-6.258a2.306,2.306,0,0,0-1.367.445A2.32,2.32,0,0,0,11.469-4.7v.531A3.731,3.731,0,0,0,12.1-1.9a1.9,1.9,0,0,0,1.578.859,1.838,1.838,0,0,0,1.535-.719,2.982,2.982,0,0,0,.559-1.883,2.983,2.983,0,0,0-.566-1.895A1.816,1.816,0,0,0,13.7-6.258Z" transform="translate(1067.141 10088.153)"/>
      <path id="Trazado_901339" data-name="Trazado 901339" d="M984.215,45h0Z" transform="translate(81.118 10026.941)"/>
      <path id="Línea_1914" data-name="Línea 1914" d="M24.644.209H0V-.375H24.644Z" transform="translate(1065.333 10072.025)"/>
      <path id="Trazado_904917" data-name="Trazado 904917" d="M2.82-4.453V0H1.32V-11.375h4.2a4.215,4.215,0,0,1,2.926.953A3.231,3.231,0,0,1,9.5-7.9,3.189,3.189,0,0,1,8.465-5.348,4.4,4.4,0,0,1,5.5-4.453Zm0-1.227h2.7a2.7,2.7,0,0,0,1.844-.567A2.075,2.075,0,0,0,8-7.887a2.143,2.143,0,0,0-.641-1.628A2.525,2.525,0,0,0,5.6-10.148H2.82Z" transform="translate(1066.904 10155.345)"/>
      <path id="Trazado_904918" data-name="Trazado 904918" d="M5.7,0H4.242V-9.633L1.328-8.562V-9.875L5.469-11.43H5.7ZM17.383,0H9.93V-1.039l3.938-4.375a9.354,9.354,0,0,0,1.207-1.613,2.693,2.693,0,0,0,.332-1.285,2.041,2.041,0,0,0-.539-1.461,1.885,1.885,0,0,0-1.437-.57,2.232,2.232,0,0,0-1.676.613,2.343,2.343,0,0,0-.6,1.707H9.711a3.355,3.355,0,0,1,1.012-2.539,3.751,3.751,0,0,1,2.707-.969,3.6,3.6,0,0,1,2.508.832,2.838,2.838,0,0,1,.922,2.215q0,1.68-2.141,4l-3.047,3.3h5.711Z" transform="translate(1062.081 10177.38)"/>
      <path id="Trazado_901340" data-name="Trazado 901340" d="M977.72,159.529h0Z" transform="translate(82.553 10001.64)"/>
      <path id="Línea_1915" data-name="Línea 1915" d="M24.644.209H0V-.375H24.644Z" transform="translate(1060.273 10161.252)"/>
      <path id="Línea_1916" data-name="Línea 1916" d="M.209,43.094H-.375V0H.209Z" transform="translate(1118.892 10886.771)" fill="#9d9d9c"/>
      <path id="Línea_1917" data-name="Línea 1917" d="M.209,43.094H-.375V0H.209Z" transform="translate(353.013 10886.771)" fill="#9d9d9c"/>
      <path id="Línea_1918" data-name="Línea 1918" d="M331.877.209H0V-.375H331.877Z" transform="translate(786.932 10908.4)" fill="#9d9d9c"/>
      <path id="Línea_1919" data-name="Línea 1919" d="M344.744.209H0V-.375H344.744Z" transform="translate(353.389 10908.4)" fill="#9d9d9c"/>
      <path id="Línea_1920" data-name="Línea 1920" d="M43.094.209H0V-.375H43.094Z" transform="translate(1240.717 10819.39)" fill="#9d9d9c"/>
      <path id="Línea_1921" data-name="Línea 1921" d="M43.094.209H0V-.375H43.094Z" transform="translate(1240.717 10139.288)" fill="#9d9d9c"/>
      <path id="Trazado_904919" data-name="Trazado 904919" d="M0,0H985.259V894.678H0Z" transform="translate(298.553 10036.883)" fill="none"/>
      <path id="Línea_1922" data-name="Línea 1922" d="M.209,267.664H-.375V0H.209Z" transform="translate(1262.347 10551.644)" fill="#9d9d9c"/>
      <path id="Línea_1923" data-name="Línea 1923" d="M.209,265.74H-.375V0H.209Z" transform="translate(1262.347 10139.663)" fill="#9d9d9c"/>
      <path id="Línea_1924" data-name="Línea 1924" d="M43.094.209H0V-.375H43.094Z" transform="translate(1179.189 10139.288)" fill="#9d9d9c"/>
      <path id="Línea_1925" data-name="Línea 1925" d="M.209,144.9H-.375V0H.209Z" transform="translate(1200.819 10139.663)" fill="#9d9d9c"/>
      <path id="Línea_1926" data-name="Línea 1926" d="M43.094.209H0V-.375H43.094Z" transform="translate(1179.19 10465.146)" fill="#9d9d9c"/>
      <path id="Línea_1927" data-name="Línea 1927" d="M.209,116.735H-.375V0H.209Z" transform="translate(1200.82 10347.96)" fill="#9d9d9c"/>
      <path id="Línea_1928" data-name="Línea 1928" d="M43.34.837H0V-1.5H43.34Z" transform="translate(607.537 10426.993)"/>
      <path id="Trazado_901341" data-name="Trazado 901341" d="M736.408,81.882a.39.39,0,0,1,.343.205,46.433,46.433,0,0,0,13.267,15.055,71.353,71.353,0,0,0,16.259,8.978,90.281,90.281,0,0,0,19.544,5.434h51.088a.39.39,0,0,1,.39.39V795.636a.39.39,0,0,1-.39.39H69.688a.39.39,0,0,1-.39-.392l3.861-585.792a.39.39,0,0,1,.3-.377c.194-.045,19.67-4.575,42.916-11.442,13.649-4.032,25.907-8.069,36.434-12,13.147-4.908,23.61-9.66,31.1-14.123a57.674,57.674,0,0,0,18.457-17.409,65.689,65.689,0,0,0,8.746-19.329,78.271,78.271,0,0,0,2.615-15.7,54.5,54.5,0,0,0,.072-6.476.39.39,0,0,1,.491-.4c14.3,3.882,29.188,8.325,44.251,13.2,14.6,4.73,29.812,10.013,45.2,15.7,14.874,5.5,30.372,11.545,46.066,17.971,15.107,6.186,30.867,12.918,46.841,20.008a.39.39,0,0,1,.21.483c-9.132,26.45-22.072,68.967-31.319,99.977-9.98,33.466-17.918,61.078-18.06,61.573h0c-.008.028-.786,2.9-1.577,7.582a125.219,125.219,0,0,0-1.714,18.967,97.937,97.937,0,0,0,2.666,24.679,66.945,66.945,0,0,0,11.537,24.729c13.8,18.087,37.255,27.258,69.7,27.258a221.979,221.979,0,0,0,31.752-2.491l.013,0c33.679-3.774,60.045-18.213,78.364-42.915,10.515-14.179,18.452-31.854,23.588-52.534a255.815,255.815,0,0,0,6.946-55.012c.2-7.838.1-15.92-.274-24.021-.3-6.481-.785-12.989-1.437-19.343-1.081-10.539-2.277-17.175-2.35-17.573l-23.163-79.548a.389.389,0,0,1,.244-.476l194.5-68.9A.389.389,0,0,1,736.408,81.882ZM836.52,112.334H785.8a.393.393,0,0,1-.05,0c-.023,0-2.309-.3-5.868-1.128a95.746,95.746,0,0,1-13.891-4.359,72.129,72.129,0,0,1-16.437-9.078A47.342,47.342,0,0,1,736.224,82.75L542.387,151.414l23.066,79.214a.36.36,0,0,1,.009.038c.012.067,1.247,6.794,2.36,17.638.654,6.367,1.138,12.889,1.441,19.384.378,8.119.471,16.22.276,24.077a256.625,256.625,0,0,1-6.967,55.188,172.974,172.974,0,0,1-9.259,27.588,129.648,129.648,0,0,1-14.461,25.231,107.818,107.818,0,0,1-14.069,15.591,102.161,102.161,0,0,1-17.6,12.834,109.831,109.831,0,0,1-21.494,9.427A134.219,134.219,0,0,1,459.953,443a222.729,222.729,0,0,1-31.858,2.5c-32.7,0-56.365-9.275-70.323-27.568A67.728,67.728,0,0,1,346.1,392.9a98.737,98.737,0,0,1-2.685-24.884,126.034,126.034,0,0,1,1.728-19.085c.8-4.717,1.583-7.609,1.591-7.638v0c.079-.276,8.043-27.98,18.064-61.585,9.21-30.885,22.083-73.184,31.212-99.67-15.855-7.033-31.5-13.712-46.493-19.854-15.685-6.423-31.175-12.466-46.041-17.961-15.38-5.686-30.578-10.966-45.172-15.693-14.87-4.816-29.568-9.207-43.7-13.052.038.948.083,3.085-.1,6.01a79.069,79.069,0,0,1-2.636,15.856,66.485,66.485,0,0,1-8.849,19.57,58.448,58.448,0,0,1-18.714,17.657c-7.53,4.487-18.037,9.26-31.228,14.184-10.544,3.936-22.821,7.979-36.488,12.017-21.693,6.408-40.108,10.783-42.657,11.382L70.08,795.246H836.52Z" transform="translate(283.243 10018.794)"/>
      <path id="Trazado_901342" data-name="Trazado 901342" d="M262.757,1040.135h-.031v-.584h.031c1.308,0,2.634-.006,3.941-.018l.005.584C265.394,1040.129,264.066,1040.135,262.757,1040.135Zm-1.623,0c-1.317-.005-2.652-.016-3.968-.034l.008-.584c1.315.017,2.648.029,3.963.034Zm7.156-.033-.007-.584c1.321-.017,2.66-.041,3.981-.07l.013.584C270.953,1040.059,269.612,1040.082,268.29,1040.1Zm-12.72-.025c-1.317-.022-2.651-.051-3.967-.085l.015-.584c1.314.034,2.647.063,3.962.085Zm18.289-.083-.015-.584c1.316-.034,2.65-.075,3.966-.121l.021.584C276.513,1039.916,275.177,1039.957,273.859,1039.991Zm-23.848-.047c-1.32-.039-2.658-.086-3.978-.137l.023-.584c1.318.052,2.654.1,3.972.137Zm29.417-.134-.023-.584c1.312-.051,2.643-.109,3.956-.172l.028.584C282.074,1039.7,280.742,1039.76,279.428,1039.811Zm-34.976-.068c-1.321-.057-2.66-.12-3.98-.189l.031-.583c1.318.069,2.656.132,3.975.189Zm40.527-.184-.03-.583c1.316-.068,2.65-.143,3.965-.224l.036.583C287.632,1039.416,286.3,1039.491,284.979,1039.559Zm-46.093-.092c-1.317-.074-2.653-.155-3.97-.241l.038-.583c1.315.086,2.649.167,3.964.24Zm51.647-.232-.038-.583c1.318-.085,2.654-.178,3.971-.276l.043.583C293.191,1039.057,291.853,1039.15,290.533,1039.235Zm-57.2-.115c-1.314-.091-2.646-.189-3.959-.292l.046-.583c1.311.1,2.641.2,3.953.292Zm62.761-.281-.045-.583c1.312-.1,2.642-.212,3.953-.326l.051.582C298.735,1038.628,297.4,1038.737,296.09,1038.839Zm-68.311-.139c-1.31-.108-2.639-.223-3.948-.343l.053-.582c1.307.12,2.634.235,3.943.343Zm73.86-.328-.053-.582c1.309-.119,2.635-.245,3.944-.376l.058.582C304.278,1038.126,302.949,1038.253,301.639,1038.372Zm-79.4-.163c-1.312-.125-2.642-.258-3.953-.4l.061-.581c1.309.137,2.637.27,3.947.4Zm84.932-.374-.06-.581c1.312-.136,2.642-.28,3.953-.428l.066.581C309.816,1037.554,308.484,1037.7,307.171,1037.834Zm-90.464-.19c-1.313-.143-2.644-.293-3.956-.448l.068-.58c1.31.155,2.639.305,3.951.448Zm96-.419-.068-.58c1.309-.153,2.637-.313,3.946-.478l.073.58C315.344,1036.911,314.014,1037.072,312.7,1037.225Zm-101.524-.217c-1.313-.16-2.643-.328-3.954-.5l.076-.579c1.309.172,2.638.34,3.949.5Zm107.058-.464-.075-.579c1.3-.169,2.622-.346,3.923-.526l.08.579C320.862,1036.2,319.541,1036.375,318.237,1036.544Zm-112.583-.246c-1.309-.177-2.636-.362-3.943-.551l.084-.578c1.305.189,2.63.374,3.938.551Zm118.09-.5-.082-.578c1.3-.186,2.625-.38,3.928-.578l.088.578C326.372,1035.414,325.049,1035.609,323.743,1035.8Zm-123.6-.279c-1.305-.194-2.628-.4-3.932-.6l.091-.577c1.3.206,2.622.408,3.926.6Zm129.105-.541-.09-.577c1.3-.2,2.626-.414,3.929-.629l.095.576C331.875,1034.561,330.551,1034.772,329.245,1034.975Zm-134.607-.312c-1.3-.211-2.621-.431-3.92-.653l.1-.576c1.3.222,2.615.442,3.915.652Zm140.109-.578-.1-.576c1.3-.218,2.609-.445,3.9-.675l.1.575C337.36,1033.639,336.044,1033.866,334.747,1034.085Zm-145.6-.347c-1.3-.227-2.613-.464-3.908-.7l.106-.575c1.294.239,2.607.476,3.9.7Zm151.077-.611-.1-.575c1.295-.235,2.607-.479,3.9-.725l.109.574C342.836,1032.647,341.522,1032.891,340.226,1033.127Zm-156.553-.386c-1.294-.245-2.605-.5-3.9-.755l.114-.573c1.29.256,2.6.51,3.891.754Zm162.018-.64-.111-.574c1.3-.252,2.609-.513,3.9-.777l.117.573C348.3,1031.586,346.988,1031.848,345.691,1032.1Zm-167.48-.429c-1.291-.261-2.6-.533-3.885-.806l.121-.572c1.286.273,2.591.544,3.88.8ZM351.155,1031l-.119-.572c1.287-.267,2.591-.543,3.877-.821l.124.571C353.749,1030.46,352.443,1030.736,351.155,1031Zm-178.391-.473c-1.287-.278-2.59-.567-3.874-.857l.129-.57c1.282.29,2.583.578,3.868.856Zm183.831-.69-.126-.571c1.285-.283,2.587-.576,3.871-.87l.131.57C359.186,1029.264,357.881,1029.557,356.595,1029.841Zm-189.264-.523c-1.283-.3-2.583-.6-3.862-.908l.136-.568c1.278.307,2.575.612,3.857.907Zm194.686-.707-.133-.569c1.285-.3,2.588-.609,3.872-.921l.138.568C364.609,1028,363.3,1028.312,362.018,1028.611Zm-200.1-.578c-1.28-.312-2.575-.635-3.851-.96l.144-.566c1.274.324,2.567.646,3.845.958Zm205.523-.721-.14-.567c1.275-.314,2.568-.638,3.842-.963l.145.566C370.01,1026.674,368.715,1027,367.439,1027.312Zm-210.922-.635c-1.276-.33-2.568-.67-3.839-1.011l.151-.564c1.27.341,2.559.68,3.834,1.01Zm216.312-.727-.147-.566c1.275-.33,2.567-.671,3.84-1.013l.151.564C375.4,1025.279,374.105,1025.62,372.829,1025.951Zm-221.692-.7c-1.272-.347-2.56-.7-3.827-1.063l.159-.562c1.266.358,2.551.715,3.822,1.062Zm227.068-.726-.153-.564c1.272-.346,2.561-.7,3.832-1.06l.158.562C380.769,1023.82,379.478,1024.177,378.2,1024.523Zm-232.428-.773c-1.269-.364-2.553-.74-3.816-1.115l.167-.56c1.261.375,2.543.75,3.81,1.114Zm237.8-.724-.16-.562c1.261-.359,2.539-.73,3.8-1.1l.165.561C386.122,1022.3,384.842,1022.667,383.579,1023.026Zm-243.14-.848c-1.265-.382-2.544-.775-3.8-1.168l.174-.558c1.257.393,2.534.785,3.8,1.166Zm248.47-.706-.167-.56c1.264-.377,2.546-.765,3.809-1.153l.172.559C391.458,1020.707,390.175,1021.1,388.909,1021.473Zm-253.782-.937c-1.261-.4-2.536-.81-3.789-1.221l.182-.555c1.252.41,2.525.82,3.784,1.219Zm259.108-.685-.173-.558c1.256-.391,2.53-.793,3.785-1.195l.178.557C396.768,1019.058,395.493,1019.46,394.235,1019.851Zm-264.4-1.03c-1.255-.417-2.523-.845-3.77-1.272l.19-.553c1.245.427,2.512.854,3.765,1.27Zm269.707-.655-.18-.556c1.25-.4,2.516-.821,3.765-1.237l.185.554C402.065,1017.344,400.8,1017.761,399.545,1018.166Zm-274.987-1.139c-1.247-.433-2.507-.878-3.745-1.323l.2-.55c1.236.443,2.494.888,3.74,1.321Zm280.263-.6-.187-.554c1.251-.421,2.519-.854,3.768-1.287l.191.552C407.342,1015.568,406.073,1016,404.821,1016.423Zm-285.511-1.261c-1.243-.452-2.5-.915-3.73-1.377l.205-.547c1.23.462,2.483.924,3.724,1.375Zm290.785-.549-.193-.552c1.239-.433,2.494-.878,3.732-1.323l.2.55C412.591,1013.733,411.334,1014.178,410.094,1014.612ZM114.1,1013.226c-1.237-.47-2.485-.952-3.71-1.432l.213-.544c1.223.479,2.469.96,3.7,1.429Zm301.228-.479-.2-.549c1.239-.449,2.5-.911,3.733-1.372l.2.548C417.827,1011.835,416.569,1012.3,415.329,1012.747Zm-306.423-1.539c-1.231-.489-2.472-.989-3.689-1.487l.221-.541c1.215.5,2.454,1,3.683,1.485Zm311.643-.389-.206-.547c1.232-.463,2.48-.938,3.711-1.412l.21.545C423.033,1009.88,421.783,1010.356,420.549,1010.819Zm-316.8-1.7c-1.222-.507-2.454-1.025-3.659-1.541l.23-.537c1.2.515,2.433,1.033,3.653,1.539Zm322.005-.287-.212-.545c1.224-.476,2.465-.964,3.688-1.451l.216.543C428.222,1007.864,426.979,1008.353,425.754,1008.829ZM98.62,1006.943c-1.218-.528-2.444-1.067-3.641-1.6l.238-.533c1.2.535,2.419,1.073,3.635,1.6Zm332.3-.155-.218-.542c1.224-.492,2.465-1,3.687-1.5l.222.54C433.388,1005.79,432.145,1006.3,430.92,1006.787Zm-337.376-2.093c-1.217-.551-2.437-1.113-3.627-1.67l.248-.529c1.188.556,2.406,1.117,3.621,1.667Zm342.542-.016-.224-.54c1.211-.5,2.438-1.017,3.648-1.53l.228.538C438.527,1003.661,437.3,1004.176,436.086,1004.678Zm5.116-2.155-.23-.537c1.214-.519,2.445-1.052,3.658-1.582l.234.535C443.649,1001.471,442.417,1002,441.2,1002.524Zm-352.712-.171c-1.21-.574-2.42-1.157-3.595-1.734l.257-.525c1.173.576,2.38,1.158,3.588,1.731Zm357.822-2.048-.236-.535c1.2-.53,2.42-1.072,3.621-1.612l.24.533C448.734,999.232,447.515,999.775,446.311,1000.3Zm-362.827-.383c-1.206-.6-2.4-1.207-3.558-1.8l.268-.519c1.152.6,2.346,1.2,3.55,1.8Zm367.9-1.888-.241-.532c.738-.335,1.486-.677,2.224-1.015l.244.531C452.878,997.357,452.128,997.7,451.389,998.034Zm-372.881-.655c-1.206-.633-2.382-1.265-3.5-1.876l.281-.512c1.11.61,2.283,1.239,3.486,1.871Zm-4.878-2.644c-2.245-1.259-3.432-2-3.443-2l.308-.5c.012.007,1.189.737,3.421,1.989Z" transform="translate(283.047 9817.677)" fill="#9d9d9c"/>
      <path id="Trazado_901343" data-name="Trazado 901343" d="M143.071,571.753c-.7,0-1.4-.009-2.09-.027l.015-.584c1.313.034,2.644.035,3.958,0l.014.584C144.338,571.746,143.7,571.753,143.071,571.753Zm3.49-.074-.025-.584c1.31-.056,2.639-.144,3.949-.264l.053.582C149.219,571.534,147.881,571.623,146.561,571.679Zm-7.174-.009c-1.32-.059-2.658-.152-3.977-.276l.054-.582c1.309.123,2.638.215,3.949.274Zm12.74-.417-.064-.581c1.3-.144,2.622-.321,3.924-.527l.091.577C154.768,570.93,153.438,571.109,152.127,571.254Zm-18.3-.023c-1.312-.148-2.64-.331-3.949-.543l.093-.577c1.3.21,2.619.392,3.922.539Zm23.825-.772-.1-.575c1.288-.229,2.593-.492,3.88-.782l.128.57C160.26,569.964,158.945,570.229,157.649,570.459Zm-29.346-.041c-1.3-.235-2.611-.505-3.9-.8l.131-.569c1.285.3,2.589.564,3.878.8Zm34.8-1.111-.139-.568c1.27-.31,2.557-.655,3.826-1.025l.164.561C165.681,568.648,164.386,569,163.107,569.307Zm-40.259-.064c-1.278-.319-2.571-.673-3.843-1.052l.167-.56c1.264.377,2.549.729,3.818,1.045Zm45.637-1.427-.173-.558c1.246-.387,2.51-.808,3.754-1.252l.2.55C171.01,567,169.739,567.427,168.485,567.816Zm-51-.095c-1.254-.4-2.522-.832-3.77-1.289l.2-.549c1.239.454,2.5.885,3.745,1.281Zm56.28-1.714-.205-.547c1.222-.459,2.461-.952,3.681-1.467l.227.538C176.236,565.05,174.99,565.546,173.76,566.008Zm-61.541-.136c-1.228-.474-2.469-.982-3.688-1.513l.233-.536c1.212.527,2.446,1.033,3.666,1.5Zm66.7-1.968-.235-.535c1.195-.525,2.405-1.085,3.6-1.663l.255.526C181.342,562.813,180.125,563.375,178.924,563.9Zm-71.85-.191c-1.2-.544-2.405-1.122-3.592-1.719l.263-.522c1.18.594,2.381,1.169,3.571,1.709Zm76.9-2.186-.262-.522c1.165-.586,2.345-1.205,3.507-1.841l.281.513C186.326,560.315,185.14,560.937,183.969,561.526Zm-81.905-.26c-1.166-.61-2.342-1.254-3.5-1.915l.29-.507c1.147.657,2.317,1.3,3.476,1.9Zm86.826-2.367-.287-.509c1.134-.641,2.283-1.315,3.414-2l.3.5C191.183,557.578,190.029,558.255,188.889,558.9Zm-91.7-.35c-1.132-.671-2.272-1.376-3.389-2.094l.316-.491c1.11.715,2.244,1.416,3.371,2.083Zm96.489-2.5-.31-.5c1.1-.691,2.221-1.415,3.322-2.151l.325.486C195.911,554.625,194.788,555.352,193.68,556.046Zm-101.211-.464c-1.1-.729-2.2-1.491-3.278-2.263l.34-.475c1.071.768,2.169,1.526,3.261,2.251Zm105.871-2.593-.331-.482c1.074-.737,2.161-1.506,3.233-2.286l.344.472C200.51,551.477,199.418,552.249,198.34,552.989ZM87.9,552.382c-1.063-.785-2.127-1.6-3.162-2.423l.364-.457c1.03.818,2.088,1.629,3.145,2.41Zm114.966-2.635-.349-.468c1.046-.779,2.1-1.59,3.148-2.411l.361.459C204.983,548.151,203.919,548.965,202.87,549.747ZM83.5,548.958c-1.028-.841-2.05-1.708-3.037-2.576l.386-.439c.982.864,2,1.726,3.021,2.562Zm123.773-2.62-.366-.456c1.018-.818,2.049-1.667,3.065-2.524l.377.446C209.33,544.665,208.3,545.518,207.274,546.338Zm-128-1.015c-1-.906-1.977-1.826-2.9-2.734l.409-.417c.921.9,1.892,1.817,2.886,2.718Zm132.28-2.546-.381-.443c.465-.4.935-.809,1.4-1.217l.386.439C212.5,541.965,212.023,542.376,211.557,542.777ZM75.248,541.465c-1.764-1.792-2.711-2.914-2.72-2.925l.447-.376c.009.011.943,1.118,2.689,2.891Z" transform="translate(282.53 9917.991)" fill="#9d9d9c"/>
      <path id="Trazado_901344" data-name="Trazado 901344" d="M316.241,563.41c-1.322-.01-2.663-.056-3.984-.137l.036-.583c1.311.081,2.64.126,3.952.136Zm1.6-.005-.008-.584c1.311-.018,2.641-.073,3.952-.162l.04.583C320.5,563.332,319.159,563.387,317.838,563.405Zm-7.172-.247c-1.316-.109-2.65-.256-3.964-.436l.079-.579c1.3.179,2.627.324,3.933.433Zm12.747-.041-.052-.582c1.3-.116,2.626-.27,3.93-.456l.082.578C326.059,562.846,324.726,563,323.412,563.117Zm-18.289-.628c-1.3-.207-2.622-.451-3.921-.727l.121-.572c1.289.274,2.6.517,3.891.722Zm23.827-.073-.095-.577c1.29-.211,2.6-.46,3.887-.74l.124.571C331.568,561.952,330.25,562.2,328.951,562.416Zm-29.305-1c-1.282-.3-2.579-.638-3.857-1.006l.162-.562c1.268.365,2.556.7,3.828,1Zm34.779-.1-.135-.568c1.27-.3,2.557-.642,3.826-1.01l.163.561C337,560.67,335.7,561.012,334.424,561.317Zm-40.164-1.364c-1.257-.389-2.529-.816-3.78-1.27l.2-.549c1.242.451,2.5.875,3.753,1.261Zm45.543-.112-.174-.558c1.245-.387,2.507-.812,3.751-1.263l.2.549C342.327,559.022,341.057,559.45,339.8,559.84Zm-50.817-1.716c-1.227-.471-2.467-.981-3.685-1.515l.234-.535c1.211.53,2.442,1.036,3.661,1.5Zm56.088-.113-.209-.546c1.218-.466,2.452-.97,3.668-1.5l.233.536C347.542,557.035,346.3,557.542,345.074,558.011Zm-61.228-2.054c-1.194-.549-2.4-1.135-3.584-1.742l.267-.52c1.177.6,2.375,1.186,3.561,1.731Zm66.375-.1-.241-.532c1.186-.538,2.387-1.113,3.57-1.709l.263.522C352.622,554.738,351.414,555.317,350.221,555.858Zm-71.371-2.383c-1.159-.62-2.328-1.277-3.475-1.952l.3-.5c1.14.671,2.3,1.324,3.454,1.94Zm76.383-.065-.271-.518c1.154-.6,2.323-1.244,3.475-1.9l.29.507C357.568,552.159,356.393,552.8,355.232,553.41ZM274.009,550.7c-1.122-.685-2.252-1.407-3.358-2.144l.324-.486c1.1.733,2.223,1.45,3.339,2.131ZM360.1,550.7l-.3-.5c1.122-.664,2.259-1.363,3.378-2.079l.315.492C362.372,549.327,361.229,550.03,360.1,550.7Zm4.729-2.954-.321-.488c1.088-.716,2.19-1.467,3.276-2.233l.337.478C367.031,546.268,365.923,547.023,364.83,547.742Zm-95.5-.076c-1.085-.747-2.174-1.528-3.238-2.322l.349-.468c1.058.789,2.142,1.566,3.221,2.309Zm100.086-3.094-.343-.473c1.055-.763,2.123-1.561,3.175-2.371l.356.463C371.55,543.005,370.477,543.806,369.417,544.573Zm-104.6-.191c-1.046-.8-2.092-1.64-3.11-2.485l.373-.45c1.013.84,2.053,1.671,3.093,2.471Zm109.042-3.169-.362-.459c1.023-.806,2.059-1.646,3.08-2.5l.374.449C375.931,539.56,374.891,540.4,373.864,541.213Zm-113.373-.344c-1.009-.862-2.011-1.752-2.98-2.644l.4-.43c.963.887,1.96,1.772,2.964,2.629Zm117.683-3.187-.379-.445c.993-.845,2-1.723,2.99-2.609l.39.435C380.18,535.953,379.171,536.834,378.174,537.682Zm-121.826-.544c-.976-.927-1.93-1.869-2.834-2.8l.419-.407c.9.925,1.847,1.861,2.818,2.783Zm126-3.139-.394-.432c.225-.205.452-.414.678-.622l-1.367-2.18.495-.31,1.625,2.591-.178.165C382.926,533.473,382.637,533.739,382.352,534Zm-129.942-.817c-1.714-1.829-2.634-2.977-2.643-2.988l.456-.365c.009.011.917,1.143,2.613,2.953Zm128.014-3.763-2.111-3.365.5-.31,2.111,3.365Zm-2.955-4.712-2.111-3.365.495-.31,2.111,3.365ZM374.514,520,372.4,516.63l.495-.31,2.111,3.365Zm-2.955-4.712-2.111-3.365.495-.311,2.111,3.365Zm-2.955-4.712-2.111-3.365.495-.31,2.111,3.365Zm-2.955-4.712-2.111-3.365.5-.31,2.111,3.365Zm-2.955-4.712-2.111-3.365.495-.31,2.111,3.365Zm21.322-2.782-3.347-1.439.231-.537,3.347,1.439Zm-24.277-1.929-2.111-3.365.5-.311,2.111,3.365Zm19.47-.138-3.649-1.569.231-.537,3.649,1.569Zm-5.109-2.2-3.649-1.569.231-.537,3.649,1.569Zm-5.109-2.2-3.649-1.569.231-.537,3.649,1.569Zm-12.206-.18-2.111-3.365.495-.31,2.111,3.365Zm7.1-2.017-3.649-1.569.231-.537,3.649,1.569Zm-5.109-2.2-3.649-1.569.231-.537L359,486.973Zm-4.943-.5-1.945-3.1,2.009.864-.231.537-.287-.123.949,1.513Z" transform="translate(243.374 9929.977)" fill="#9d9d9c"/>
      <path id="Trazado_901345" data-name="Trazado 901345" d="M752.093,1040.135h-.031v-.584h.031c1.308,0,2.634-.006,3.941-.018l.005.584C754.73,1040.129,753.4,1040.135,752.093,1040.135Zm-1.623,0c-1.317-.005-2.652-.016-3.968-.034l.008-.584c1.314.017,2.648.029,3.962.034Zm7.156-.033-.008-.584c1.321-.017,2.66-.041,3.981-.07l.013.584C760.289,1040.059,758.948,1040.082,757.626,1040.1Zm-12.72-.025c-1.317-.022-2.651-.051-3.967-.085l.015-.584c1.314.034,2.647.063,3.962.085Zm18.289-.083-.015-.584c1.316-.034,2.65-.075,3.966-.121l.021.584C765.849,1039.916,764.512,1039.957,763.195,1039.991Zm-23.848-.047c-1.32-.039-2.658-.086-3.977-.137l.023-.584c1.318.052,2.654.1,3.972.137Zm29.417-.134-.023-.584c1.312-.051,2.643-.109,3.956-.172l.028.584C771.41,1039.7,770.078,1039.76,768.763,1039.811Zm-34.976-.068c-1.321-.057-2.66-.12-3.981-.189l.031-.583c1.318.069,2.656.132,3.975.189Zm40.527-.184-.03-.583c1.316-.068,2.65-.143,3.965-.224l.036.583C776.968,1039.416,775.632,1039.491,774.315,1039.559Zm-46.093-.092c-1.317-.074-2.653-.155-3.97-.241l.038-.583c1.315.086,2.649.167,3.964.24Zm51.647-.232-.038-.583c1.318-.085,2.654-.178,3.971-.276l.043.583C782.527,1039.057,781.189,1039.15,779.869,1039.235Zm-57.2-.115c-1.314-.091-2.646-.189-3.959-.292l.046-.583c1.311.1,2.641.2,3.954.292Zm62.761-.281-.045-.583c1.312-.1,2.642-.212,3.953-.326l.051.582C788.071,1038.628,786.739,1038.737,785.426,1038.839Zm-68.311-.139c-1.311-.108-2.639-.223-3.948-.343l.053-.582c1.307.12,2.634.235,3.943.343Zm73.86-.328-.053-.582c1.309-.119,2.636-.245,3.944-.376l.058.582C793.614,1038.126,792.285,1038.253,790.975,1038.372Zm-79.4-.163c-1.312-.125-2.642-.258-3.953-.4l.061-.581c1.309.137,2.637.27,3.947.4Zm84.933-.374-.06-.581c1.312-.136,2.642-.28,3.953-.428l.066.581C799.152,1037.554,797.82,1037.7,796.507,1037.834Zm-90.465-.19c-1.313-.143-2.644-.293-3.956-.448l.068-.58c1.31.155,2.639.305,3.951.448Zm96-.419-.068-.58c1.309-.153,2.637-.313,3.946-.478l.073.58C804.68,1036.911,803.35,1037.072,802.039,1037.225Zm-101.524-.217c-1.313-.16-2.643-.328-3.954-.5l.076-.579c1.309.172,2.638.34,3.949.5Zm107.058-.464-.075-.579c1.3-.169,2.622-.346,3.923-.526l.08.579C810.2,1036.2,808.877,1036.375,807.573,1036.544ZM694.99,1036.3c-1.309-.177-2.636-.362-3.943-.551l.084-.578c1.305.189,2.63.374,3.938.551Zm118.089-.5-.082-.578c1.3-.186,2.625-.38,3.928-.578l.088.578C815.708,1035.414,814.385,1035.609,813.079,1035.8Zm-123.6-.279c-1.306-.194-2.628-.4-3.932-.6l.091-.577c1.3.206,2.622.408,3.926.6Zm129.105-.541-.09-.577c1.3-.2,2.626-.414,3.929-.629l.095.576C821.211,1034.561,819.887,1034.772,818.581,1034.975Zm-134.607-.312c-1.3-.211-2.621-.431-3.92-.653l.1-.576c1.3.222,2.615.442,3.915.652Zm140.109-.578-.1-.576c1.3-.218,2.609-.445,3.9-.675l.1.575C826.7,1033.639,825.38,1033.866,824.083,1034.085Zm-145.6-.347c-1.3-.227-2.613-.464-3.908-.7l.106-.575c1.294.239,2.607.476,3.9.7Zm151.077-.611-.1-.575c1.295-.235,2.607-.479,3.9-.725l.109.574C832.172,1032.647,830.858,1032.891,829.562,1033.127Zm-156.553-.386c-1.294-.245-2.605-.5-3.9-.755l.114-.573c1.29.256,2.6.51,3.891.754Zm162.018-.64-.111-.574c1.3-.252,2.609-.513,3.9-.777l.117.573C837.64,1031.586,836.324,1031.848,835.027,1032.1Zm-167.48-.429c-1.291-.261-2.6-.533-3.885-.806l.121-.572c1.286.273,2.591.544,3.88.8ZM840.491,1031l-.119-.572c1.287-.267,2.591-.543,3.877-.821l.124.571C843.085,1030.46,841.779,1030.736,840.491,1031ZM662.1,1030.53c-1.287-.278-2.59-.567-3.874-.857l.129-.57c1.282.29,2.583.578,3.868.856Zm183.831-.69-.126-.571c1.285-.283,2.587-.576,3.871-.87l.131.57C848.521,1029.264,847.217,1029.557,845.931,1029.841Zm-189.264-.523c-1.283-.3-2.583-.6-3.862-.908l.136-.568c1.278.307,2.575.612,3.857.907Zm194.686-.707-.133-.569c1.285-.3,2.588-.609,3.872-.921l.138.568C853.945,1028,852.64,1028.312,851.354,1028.611Zm-200.1-.578c-1.28-.312-2.575-.635-3.851-.96l.144-.566c1.274.324,2.567.646,3.845.958Zm205.523-.721-.14-.567c1.275-.314,2.568-.638,3.842-.963l.145.566C859.346,1026.674,858.051,1027,856.775,1027.312Zm-210.922-.635c-1.276-.33-2.568-.67-3.839-1.011l.151-.564c1.27.341,2.559.68,3.834,1.01Zm216.312-.727-.147-.566c1.275-.33,2.567-.671,3.84-1.013l.151.564C864.735,1025.279,863.441,1025.62,862.165,1025.951Zm-221.692-.7c-1.272-.347-2.56-.7-3.827-1.063l.159-.562c1.266.358,2.551.715,3.822,1.062Zm227.068-.726-.153-.564c1.272-.346,2.561-.7,3.832-1.06l.158.563C870.105,1023.82,868.814,1024.177,867.541,1024.523Zm-232.428-.773c-1.269-.364-2.553-.74-3.815-1.115l.167-.56c1.261.375,2.543.75,3.81,1.114Zm237.8-.724-.16-.562c1.261-.359,2.539-.73,3.8-1.1l.165.561C875.458,1022.3,874.178,1022.667,872.915,1023.026Zm-243.14-.848c-1.265-.382-2.544-.775-3.8-1.168l.174-.558c1.257.393,2.534.785,3.8,1.166Zm248.47-.706-.167-.56c1.264-.377,2.546-.765,3.809-1.153l.172.559C880.794,1020.707,879.511,1021.1,878.245,1021.473Zm-253.782-.937c-1.261-.4-2.536-.81-3.789-1.221l.182-.555c1.252.41,2.525.82,3.784,1.219Zm259.108-.685-.173-.558c1.256-.391,2.53-.793,3.785-1.195l.178.557C886.1,1019.058,884.829,1019.46,883.571,1019.851Zm-264.4-1.03c-1.255-.417-2.523-.845-3.77-1.272l.19-.553c1.245.427,2.512.854,3.765,1.27Zm269.707-.655-.18-.556c1.25-.4,2.516-.821,3.765-1.237l.185.554C891.4,1017.344,890.132,1017.761,888.881,1018.166Zm-274.987-1.139c-1.247-.433-2.507-.878-3.745-1.323l.2-.55c1.236.443,2.494.888,3.74,1.321Zm280.263-.6-.187-.554c1.251-.421,2.519-.854,3.768-1.287l.191.552C896.678,1015.568,895.409,1016,894.156,1016.423Zm-285.511-1.261c-1.243-.452-2.5-.915-3.73-1.377l.205-.547c1.23.462,2.483.924,3.724,1.375Zm290.785-.549-.193-.552c1.239-.433,2.494-.878,3.732-1.323l.2.55C901.927,1013.733,900.67,1014.178,899.43,1014.612Zm-295.993-1.386c-1.237-.47-2.485-.952-3.71-1.432l.213-.544c1.223.479,2.469.96,3.7,1.429Zm301.228-.479-.2-.549c1.239-.45,2.5-.911,3.733-1.372l.2.548C907.163,1011.835,905.905,1012.3,904.664,1012.747Zm-306.423-1.539c-1.231-.489-2.472-.989-3.689-1.487l.221-.541c1.215.5,2.454,1,3.683,1.485Zm311.643-.389-.206-.547c1.232-.463,2.48-.938,3.711-1.412l.21.545C912.368,1009.88,911.118,1010.356,909.885,1010.819Zm-316.8-1.7c-1.222-.507-2.454-1.025-3.659-1.541l.23-.537c1.2.515,2.433,1.033,3.653,1.539Zm322.005-.287-.212-.545c1.224-.476,2.465-.964,3.688-1.451l.216.543C917.558,1007.864,916.315,1008.353,915.09,1008.829Zm-327.134-1.887c-1.218-.528-2.444-1.067-3.641-1.6l.239-.533c1.2.535,2.419,1.073,3.635,1.6Zm332.3-.155-.218-.542c1.224-.492,2.465-1,3.687-1.5l.222.54C922.723,1005.79,921.481,1006.3,920.256,1006.787Zm-337.376-2.093c-1.217-.551-2.437-1.113-3.627-1.67l.248-.529c1.188.556,2.406,1.117,3.621,1.667Zm342.542-.016-.224-.54c1.211-.5,2.438-1.017,3.648-1.53l.228.538C927.863,1003.661,926.634,1004.176,925.422,1004.679Zm5.116-2.155-.23-.537c1.214-.519,2.445-1.052,3.658-1.582l.234.535C932.985,1001.471,931.753,1002,930.537,1002.524Zm-352.712-.171c-1.21-.574-2.42-1.157-3.595-1.734l.257-.525c1.173.576,2.38,1.158,3.588,1.731Zm357.822-2.048-.236-.535c1.2-.53,2.42-1.072,3.621-1.612l.24.533C938.07,999.232,936.851,999.775,935.647,1000.305Zm-362.827-.383c-1.206-.6-2.4-1.207-3.557-1.8l.268-.519c1.152.6,2.346,1.2,3.55,1.8Zm367.9-1.888-.241-.532c.738-.335,1.486-.677,2.224-1.015l.244.531C942.214,997.357,941.464,997.7,940.725,998.034Zm-372.881-.655c-1.206-.633-2.382-1.265-3.5-1.876l.281-.512c1.11.61,2.283,1.239,3.486,1.871Zm-4.878-2.644c-2.245-1.259-3.432-2-3.443-2l.308-.5c.012.007,1.189.737,3.421,1.989Z" transform="translate(174.942 9817.677)" fill="#9d9d9c"/>
      <path id="Línea_1929" data-name="Línea 1929" d="M267.586.279H-.11A.39.39,0,0,1-.5-.11.39.39,0,0,1-.11-.5h267.7a.39.39,0,0,1,.39.39A.39.39,0,0,1,267.586.279Z" transform="translate(852.566 10297.704)"/>
      <path id="Trazado_901346" data-name="Trazado 901346" d="M215.312,218.865H74.379V121.4H838.032v.584H74.963v96.3H215.312Z" transform="translate(282.121 10010.064)" fill="#9d9d9c"/>
      <path id="Trazado_901347" data-name="Trazado 901347" d="M732.062,478.968l-.427.623-35.568,51.851-.249-.263-33.773-35.7Zm-36.069,51.547,34.732-50.632L663.166,495.82Z" transform="translate(152.292 9931.069)" fill="#9d9d9c"/>
      <path id="Trazado_901348" data-name="Trazado 901348" d="M799.374,635.57a199.309,199.309,0,0,1-26.042-12.709,178.775,178.775,0,0,1-20.983-14.323,161.169,161.169,0,0,1-28.742-29.409,145.673,145.673,0,0,1-8.738-13.048c-2.1-3.535-3.992-7.1-5.636-10.585a76.841,76.841,0,0,1-3.927-9.711l.56-.166a76.412,76.412,0,0,0,3.906,9.65A137.6,137.6,0,0,0,724.092,578.8c12.668,16.887,36.049,40.35,75.5,56.225Z" transform="translate(142.735 9916.344)" fill="#9d9d9c"/>
      <path id="Trazado_901349" data-name="Trazado 901349" d="M932.572,637.6l-.221-.541c49.233-20.112,72.425-41.411,83.211-55.737a64,64,0,0,0,10.29-19.136,27.208,27.208,0,0,0,1.432-7.368l.584-.005a27.088,27.088,0,0,1-1.442,7.495,53.569,53.569,0,0,1-3.5,8.46,75.309,75.309,0,0,1-6.855,10.847c-6.891,9.169-16.407,18.118-28.282,26.6a223.3,223.3,0,0,1-23.679,14.626A328.729,328.729,0,0,1,932.572,637.6Z" transform="translate(92.576 9914.313)" fill="#9d9d9c"/>
      <path id="Trazado_901350" data-name="Trazado 901350" d="M167.468,630.891a199.763,199.763,0,0,1-26.3-13.084,180.479,180.479,0,0,1-21.195-14.745,164.5,164.5,0,0,1-29.031-30.275,150.2,150.2,0,0,1-8.825-13.432c-2.117-3.639-4.032-7.305-5.692-10.9a80.035,80.035,0,0,1-3.966-10l.561-.163a79.578,79.578,0,0,0,3.945,9.936,142.231,142.231,0,0,0,14.464,24.227c12.8,17.386,36.414,41.542,76.264,57.885Z" transform="translate(282.546 9917.961)" fill="#9d9d9c"/>
      <path id="Trazado_901351" data-name="Trazado 901351" d="M298.993,628.3l-.225-.539c49.733-20.706,73.159-42.635,84.055-57.385a66.338,66.338,0,0,0,10.394-19.7,28.5,28.5,0,0,0,1.446-7.587l.584-.005a28.353,28.353,0,0,1-1.456,7.712,55.7,55.7,0,0,1-3.533,8.708,77.744,77.744,0,0,1-6.923,11.166c-6.961,9.439-16.572,18.651-28.566,27.38A224.9,224.9,0,0,1,330.852,613.1,329.228,329.228,0,0,1,298.993,628.3Z" transform="translate(232.548 9916.905)" fill="#9d9d9c"/>
      <path id="Trazado_901352" data-name="Trazado 901352" d="M1054.715,287.773l-.39-.435c.87-.78,1.737-1.574,2.577-2.362l.4.426C1056.458,286.193,1055.588,286.991,1054.715,287.773Zm3.749-3.472-.4-.422c.957-.917,1.907-1.852,2.824-2.78l.416.411C1060.379,282.441,1059.424,283.381,1058.464,284.3Zm3.947-3.928-.42-.406c.922-.954,1.835-1.927,2.714-2.893l.432.393C1064.253,278.437,1063.336,279.415,1062.41,280.373Zm3.789-4.086-.437-.388c.88-.99,1.751-2,2.588-3l.449.374C1067.958,274.277,1067.083,275.292,1066.2,276.286Zm3.614-4.248-.453-.369c.834-1.026,1.657-2.073,2.445-3.111l.465.353C1071.478,269.955,1070.651,271.007,1069.813,272.038Zm3.416-4.407-.47-.347c.785-1.064,1.557-2.149,2.294-3.226l.482.33C1074.793,265.471,1074.018,266.562,1073.228,267.631Zm3.2-4.567-.487-.323c.731-1.1,1.447-2.224,2.128-3.338l.5.3C1077.881,260.828,1077.162,261.958,1076.427,263.065Zm2.962-4.725-.5-.3c.671-1.137,1.326-2.3,1.946-3.447l.514.277C1080.722,256.03,1080.064,257.2,1079.388,258.34Zm2.7-4.878-.519-.269c.607-1.171,1.2-2.365,1.75-3.549l.529.248C1083.295,251.084,1082.7,252.285,1082.092,253.462Zm2.426-5.022-.533-.239c.539-1.2,1.057-2.429,1.541-3.644l.543.216C1085.581,246,1085.059,247.23,1084.517,248.44Zm2.129-5.155-.547-.207c.466-1.232.911-2.487,1.322-3.732l.555.183C1087.564,240.782,1087.116,242.045,1086.646,243.285Zm1.816-5.273-.558-.173c.391-1.257.758-2.538,1.093-3.808l.565.149C1089.226,235.458,1088.856,236.747,1088.463,238.013Zm1.492-5.377-.568-.139c.312-1.276.6-2.577.856-3.865l.573.114C1090.559,230.042,1090.269,231.351,1089.955,232.636Zm1.158-5.458-.575-.1c.233-1.291.44-2.607.616-3.91l.579.078C1091.556,224.554,1091.347,225.878,1091.113,227.178Zm.82-5.517-.58-.068c.153-1.3.28-2.629.377-3.943l.583.043C1092.215,219.015,1092.088,220.35,1091.933,221.661Zm.484-5.559-.583-.033c.074-1.307.122-2.638.141-3.956l.584.009C1092.539,213.448,1092.492,214.787,1092.417,216.1Zm-.433-5.575c0-1.309-.033-2.641-.09-3.96l.584-.025c.057,1.327.087,2.667.09,3.984Zm-.17-5.542c-.077-1.305-.182-2.633-.311-3.948l.582-.057c.13,1.322.236,2.658.313,3.971Zm-.479-5.525c-.148-1.3-.324-2.62-.524-3.927l.578-.088c.2,1.314.377,2.643.527,3.949Zm-.774-5.492c-.216-1.289-.46-2.6-.725-3.895l.573-.117c.266,1.3.511,2.62.728,3.915Zm-1.053-5.445c-.28-1.276-.587-2.574-.914-3.856l.566-.144c.329,1.289.638,2.593.919,3.875Zm-1.316-5.39c-.339-1.262-.707-2.543-1.092-3.81l.559-.17c.387,1.272.756,2.56,1.1,3.828Zm-1.562-5.323c-.4-1.245-.819-2.51-1.258-3.758l.552-.194c.441,1.254.866,2.524,1.263,3.775Zm-1.793-5.251c-.448-1.228-.923-2.474-1.413-3.7l.543-.216c.492,1.235.969,2.486,1.419,3.72Zm-2.008-5.175c-.5-1.209-1.021-2.436-1.558-3.646l.534-.237c.539,1.215,1.065,2.446,1.564,3.66Zm-2.209-5.092c-.543-1.19-1.113-2.4-1.694-3.585l.525-.256c.583,1.193,1.155,2.4,1.7,3.6Zm-2.4-5.007c-.586-1.17-1.2-2.356-1.821-3.523l.516-.275c.624,1.171,1.239,2.361,1.828,3.536Zm-2.574-4.919c-.627-1.15-1.28-2.314-1.941-3.458l.506-.292c.663,1.148,1.318,2.316,1.948,3.47Zm-2.74-4.829c-.666-1.129-1.356-2.27-2.052-3.389l.5-.308c.7,1.124,1.391,2.268,2.059,3.4Zm-2.9-4.733c-.7-1.111-1.433-2.231-2.165-3.328l.486-.324c.734,1.1,1.465,2.224,2.172,3.339Zm-3.051-4.644c-.742-1.09-1.505-2.185-2.269-3.254l.475-.34c.766,1.072,1.532,2.171,2.276,3.265Zm-3.2-4.54c-.78-1.071-1.578-2.139-2.371-3.175l.464-.355c.8,1.04,1.6,2.111,2.38,3.186Zm-3.344-4.432c-.829-1.061-1.665-2.1-2.483-3.092l.45-.372c.822,1,1.661,2.04,2.493,3.1Zm-3.5-4.309c-1.617-1.91-2.6-2.951-2.611-2.962l.424-.4c.01.01,1,1.062,2.633,2.986Z" transform="translate(65.633 10010.038)" fill="#9d9d9c"/>
      <path id="Trazado_901353" data-name="Trazado 901353" d="M1054.715,500.641l-.39-.435c.87-.78,1.737-1.574,2.577-2.362l.4.426C1056.458,499.06,1055.588,499.858,1054.715,500.641Zm3.749-3.472-.4-.422c.957-.917,1.907-1.852,2.824-2.78l.416.411C1060.379,495.308,1059.424,496.248,1058.463,497.168Zm3.947-3.928-.42-.406c.922-.954,1.835-1.927,2.714-2.893l.432.394C1064.253,491.3,1063.336,492.282,1062.41,493.24Zm3.789-4.086-.437-.388c.88-.99,1.751-2,2.588-3l.449.374C1067.958,487.144,1067.083,488.159,1066.2,489.154Zm3.614-4.248-.453-.369c.834-1.026,1.657-2.073,2.445-3.111l.465.353C1071.478,482.822,1070.651,483.874,1069.813,484.905Zm3.416-4.407-.47-.347c.785-1.064,1.557-2.149,2.294-3.226l.482.33C1074.793,478.338,1074.018,479.429,1073.228,480.5Zm3.2-4.567-.487-.323c.731-1.1,1.447-2.224,2.128-3.338l.5.3C1077.881,473.7,1077.162,474.825,1076.427,475.932Zm2.962-4.725-.5-.3c.672-1.137,1.326-2.3,1.946-3.447l.514.277C1080.722,468.9,1080.064,470.064,1079.388,471.207Zm2.7-4.878-.519-.269c.607-1.171,1.2-2.365,1.75-3.549l.529.248C1083.295,463.951,1082.7,465.152,1082.092,466.329Zm2.426-5.022-.533-.239c.539-1.2,1.057-2.429,1.541-3.644l.543.216C1085.581,458.863,1085.059,460.1,1084.517,461.307Zm2.129-5.155-.547-.207c.466-1.232.911-2.487,1.322-3.732l.555.183C1087.564,453.649,1087.116,454.913,1086.646,456.152Zm1.816-5.273-.558-.173c.391-1.257.758-2.538,1.093-3.808l.565.149C1089.226,448.325,1088.856,449.615,1088.463,450.88Zm1.492-5.377-.568-.139c.312-1.276.6-2.577.856-3.865l.573.114C1090.559,442.909,1090.269,444.218,1089.955,445.5Zm1.158-5.458-.575-.1c.233-1.291.44-2.607.616-3.91l.579.078C1091.556,437.421,1091.347,438.745,1091.113,440.044Zm.82-5.517-.58-.068c.153-1.3.28-2.629.377-3.943l.583.043C1092.215,431.882,1092.088,433.217,1091.933,434.528Zm.484-5.559-.583-.033c.074-1.307.122-2.638.141-3.956l.584.009C1092.539,426.315,1092.492,427.654,1092.417,428.969Zm-.433-5.575c0-1.309-.033-2.641-.09-3.96l.584-.025c.057,1.327.087,2.667.09,3.984Zm-.17-5.542c-.077-1.305-.182-2.633-.311-3.948l.582-.057c.13,1.322.236,2.658.313,3.971Zm-.479-5.525c-.148-1.3-.324-2.62-.524-3.927l.578-.088c.2,1.314.377,2.643.527,3.949Zm-.774-5.492c-.216-1.289-.46-2.6-.725-3.895l.573-.117c.266,1.3.511,2.62.728,3.915Zm-1.053-5.445c-.28-1.276-.587-2.574-.914-3.856l.566-.144c.329,1.289.638,2.593.919,3.875Zm-1.316-5.39c-.339-1.262-.707-2.543-1.092-3.81l.559-.17c.387,1.272.756,2.56,1.1,3.828Zm-1.562-5.323c-.4-1.245-.819-2.51-1.258-3.758l.552-.194c.441,1.254.866,2.524,1.263,3.775Zm-1.793-5.251c-.448-1.228-.924-2.474-1.413-3.7l.543-.216c.492,1.235.969,2.487,1.419,3.72Zm-2.008-5.175c-.5-1.209-1.021-2.436-1.558-3.646l.534-.237c.539,1.215,1.065,2.446,1.564,3.66Zm-2.209-5.092c-.543-1.19-1.113-2.4-1.694-3.585l.525-.256c.583,1.193,1.155,2.4,1.7,3.6Zm-2.4-5.007c-.586-1.17-1.2-2.356-1.821-3.523l.516-.275c.624,1.171,1.239,2.361,1.828,3.536Zm-2.574-4.919c-.627-1.15-1.28-2.314-1.941-3.458l.506-.292c.663,1.148,1.318,2.316,1.948,3.47Zm-2.74-4.829c-.666-1.129-1.356-2.269-2.052-3.389l.5-.308c.7,1.124,1.391,2.268,2.059,3.4Zm-2.9-4.733c-.7-1.111-1.433-2.231-2.165-3.328l.486-.324c.734,1.1,1.465,2.224,2.172,3.339Zm-3.051-4.644c-.742-1.09-1.505-2.185-2.269-3.254l.475-.34c.766,1.072,1.532,2.171,2.276,3.265Zm-3.2-4.54c-.78-1.071-1.578-2.139-2.371-3.175l.464-.355c.8,1.04,1.6,2.112,2.38,3.186Zm-3.344-4.432c-.829-1.061-1.665-2.1-2.483-3.092l.45-.372c.822,1,1.661,2.04,2.493,3.1Zm-3.5-4.309c-1.617-1.91-2.6-2.951-2.611-2.962l.424-.4c.01.01,1,1.062,2.633,2.986Z" transform="translate(65.633 9963.011)" fill="#9d9d9c"/>
      <path id="Línea_1930" data-name="Línea 1930" d="M764.761,6.986h0L-.114.279A.389.389,0,0,1-.5-.114.39.39,0,0,1-.107-.5L764.764,6.207a.39.39,0,0,1,0,.779Z" transform="translate(355.392 10461.211)"/>
      <path id="Trazado_901354" data-name="Trazado 901354" d="M441.481,561.876c-.572,0-1.15-.027-1.715-.082l.056-.582c.548.052,1.106.079,1.66.079a17.434,17.434,0,0,0,2.239-.144l.075.579A18.01,18.01,0,0,1,441.481,561.876Zm-3.315-.309a17.318,17.318,0,0,1-3.848-1.2l.238-.533a16.733,16.733,0,0,0,3.718,1.162Zm7.22-.122-.128-.57a16.65,16.65,0,0,0,3.675-1.291l.257.525A17.238,17.238,0,0,1,445.386,561.445Zm-12.511-1.81a16.432,16.432,0,0,1-3.241-2.4l.4-.423a15.846,15.846,0,0,0,3.125,2.318Zm17.731-.307-.306-.5a15.729,15.729,0,0,0,3.037-2.43l.419.407A16.314,16.314,0,0,1,450.606,559.329Zm-22.084-3.272a15.1,15.1,0,0,1-2.191-3.393l.529-.248a14.523,14.523,0,0,0,2.107,3.261Zm26.3-.466-.459-.362a14.385,14.385,0,0,0,1.973-3.342l.539.226A14.968,14.968,0,0,1,454.823,555.59Zm-29.1-4.43a14.268,14.268,0,0,1-.739-3.974l.584-.024a13.685,13.685,0,0,0,.709,3.811Zm31.691-.576-.561-.164a13.7,13.7,0,0,0,.547-3.838h.584A14.28,14.28,0,0,1,457.417,550.583Z" transform="translate(204.664 9916.132)" fill="#9d9d9c"/>
      <path id="Trazado_901355" data-name="Trazado 901355" d="M486.856,561.865l-.018-.584a24.041,24.041,0,0,0,3.9-.435l.113.573A24.639,24.639,0,0,1,486.856,561.865Zm-1.608,0a24.6,24.6,0,0,1-3.989-.46l.115-.573a24.008,24.008,0,0,0,3.894.449Zm7.167-.806-.151-.564a21.664,21.664,0,0,0,3.675-1.347l.251.528A22.252,22.252,0,0,1,492.414,561.056Zm-12.722-.023a22.187,22.187,0,0,1-3.769-1.4l.253-.527a21.622,21.622,0,0,0,3.669,1.362Zm17.924-2.109-.291-.507a18.064,18.064,0,0,0,3.159-2.291l.394.432A18.653,18.653,0,0,1,497.616,558.924ZM474.5,558.88a18.587,18.587,0,0,1-3.25-2.38l.4-.43a18.007,18.007,0,0,0,3.147,2.305Zm27.52-3.467-.434-.392a13.989,13.989,0,0,0,2.188-3.2l.525.257A14.571,14.571,0,0,1,502.019,555.413Zm-31.906-.065A14.517,14.517,0,0,1,467.854,552l.526-.254a13.929,13.929,0,0,0,2.169,3.215Zm34.809-4.772-.553-.19a11.684,11.684,0,0,0,.639-3.8h.584A12.267,12.267,0,0,1,504.922,550.577Zm-37.682-.083a12.261,12.261,0,0,1-.643-3.911h.584a11.678,11.678,0,0,0,.612,3.725Z" transform="translate(195.471 9916.132)" fill="#9d9d9c"/>
      <path id="Trazado_901356" data-name="Trazado 901356" d="M536.542,561.876a27.934,27.934,0,0,1-3.883-.27l.081-.579a27.324,27.324,0,0,0,3.919.264l0,.584Zm1.725-.053-.036-.583a26.63,26.63,0,0,0,3.89-.526l.121.572A27.24,27.24,0,0,1,538.266,561.823Zm-7.191-.489a25.336,25.336,0,0,1-3.86-1.1l.205-.547a24.742,24.742,0,0,0,3.771,1.078ZM543.8,560.9l-.156-.563a23.557,23.557,0,0,0,3.677-1.356l.248.529A24.135,24.135,0,0,1,543.8,560.9Zm-18.075-1.289a21.191,21.191,0,0,1-3.489-2l.339-.476a20.609,20.609,0,0,0,3.393,1.945ZM549,558.778l-.286-.509a18.963,18.963,0,0,0,3.2-2.243l.385.44A19.552,19.552,0,0,1,549,558.778Zm-28.039-2.156a16.08,16.08,0,0,1-2.734-2.968l.478-.336a15.5,15.5,0,0,0,2.635,2.86Zm32.5-1.277-.425-.4a13.942,13.942,0,0,0,2.261-3.151l.519.269A14.52,14.52,0,0,1,553.465,555.346Zm-36.09-3.07a12.181,12.181,0,0,1-1.324-3.828l.577-.094A11.6,11.6,0,0,0,517.889,552Zm39.1-1.7-.549-.2a11.076,11.076,0,0,0,.674-3.792h.584A11.661,11.661,0,0,1,556.474,550.573ZM515.9,546.825q0-.121,0-.243h.584q0,.115,0,.23Z" transform="translate(184.579 9916.132)" fill="#9d9d9c"/>
      <path id="Línea_1931" data-name="Línea 1931" d="M.068,13.366l-.189-.553L38.311-.355,38.5.2Z" transform="translate(459.026 10182.438)" fill="#9d9d9c"/>
      <path id="Línea_1932" data-name="Línea 1932" d="M25.287,12.991-.169.187.094-.335l25.456,12.8Z" transform="translate(493.202 10175.371)" fill="#9d9d9c"/>
      <path id="Línea_1933" data-name="Línea 1933" d="M30.575,16.2-.173.186.1-.333,30.845,15.683Z" transform="translate(685.305 10192.433)" fill="#9d9d9c"/>
      <path id="Línea_1934" data-name="Línea 1934" d="M36.961,1.857-.017.209.009-.375,36.987,1.273Z" transform="translate(651.103 10289.71)" fill="#9d9d9c"/>
      <path id="Trazado_901357" data-name="Trazado 901357" d="M255.431,111.743l-.433-.393a73.194,73.194,0,0,1,5.9-5.557,124.46,124.46,0,0,1,17.1-12.23,129.119,129.119,0,0,1,27.452-12.3A126.491,126.491,0,0,1,342.4,75.485l0,.584a127.318,127.318,0,0,0-64.1,18,123.862,123.862,0,0,0-17.022,12.171A72.542,72.542,0,0,0,255.431,111.743Z" transform="translate(242.218 10020.207)" fill="#9d9d9c"/>
      <path id="Trazado_901358" data-name="Trazado 901358" d="M459.277,168.111l-.356-.1L327.392,131.326l.157-.563L458.72,167.349c.689-21.62-11.072-42.395-21.093-56.048a177.119,177.119,0,0,0-15.306-18.077c-4.148-4.279-6.978-6.748-7.006-6.772l.383-.441c.028.025,2.878,2.509,7.043,6.807A177.714,177.714,0,0,1,438.1,110.955a127.093,127.093,0,0,1,15.061,26.094,84.726,84.726,0,0,1,4.724,14.981,64.4,64.4,0,0,1,1.408,15.71Z" transform="translate(226.225 10017.882)" fill="#9d9d9c"/>
      <path id="Trazado_901359" data-name="Trazado 901359" d="M413.884,454.009H413.3V158.255l-14.092,7.932-22.065,13.657,36.741-55.27Zm-.584-327.5-34.189,51.43,19.8-12.258,14.384-8.1Z" transform="translate(215.233 10009.362)" fill="#9d9d9c"/>
      <path id="Trazado_901360" data-name="Trazado 901360" d="M401.947,428.834c-12.28-19.2-30.748-26.389-44.079-29.044a90.141,90.141,0,0,0-18.619-1.679,64.341,64.341,0,0,0-7.638.5l-.086-.578a64.983,64.983,0,0,1,7.716-.51,90.725,90.725,0,0,1,18.742,1.69,73.484,73.484,0,0,1,23.25,8.719,63.427,63.427,0,0,1,11.271,8.508,64.729,64.729,0,0,1,9.936,12.076Z" transform="translate(225.312 9949.063)" fill="#9d9d9c"/>
      <path id="Trazado_901361" data-name="Trazado 901361" d="M384.777,519.97a193.253,193.253,0,0,1-26.9-16.086,138,138,0,0,1-19.251-16.671,96.346,96.346,0,0,1-20.556-31.74,77.565,77.565,0,0,1-3.8-13.385,68.568,68.568,0,0,1-1.161-10.606,44.768,44.768,0,0,1,.585-9.522l.572.122a44.276,44.276,0,0,0-.571,9.419,73.157,73.157,0,0,0,4.941,23.8c6.709,17.51,23.675,42.852,66.4,64.145Z" transform="translate(229.386 9943.663)" fill="#9d9d9c"/>
      <path id="Línea_1935" data-name="Línea 1935" d="M.209,332.7l-.584-.005L2.741,0,3.326,0Z" transform="translate(851.86 10131.755)" fill="#9d9d9c"/>
      <path id="Trazado_901362" data-name="Trazado 901362" d="M24.03,143.851l-.406-.42a88.121,88.121,0,0,1,14.128-11.1,89.93,89.93,0,0,1,12.789-6.719,68.641,68.641,0,0,1,12.866-4.21l.106.575a68.106,68.106,0,0,0-12.76,4.181A89.148,89.148,0,0,0,24.03,143.851Z" transform="translate(293.334 10010.063)" fill="#9d9d9c"/>
      <path id="Trazado_901363" data-name="Trazado 901363" d="M204.04,452.574h-.584V122.17L63.191,218.794l-.1-.005a39.291,39.291,0,0,1-15.07-4.317,76.229,76.229,0,0,1-13.141-8.414,104.611,104.611,0,0,1-12.844-11.9l.44-.385A104,104,0,0,0,35.249,205.6c6.943,5.426,17.388,12.007,27.775,12.6L204.04,121.058Z" transform="translate(293.684 10010.139)" fill="#9d9d9c"/>
      <path id="Trazado_901364" data-name="Trazado 901364" d="M728.372,161.178l-55.885-25.07.03-.217c.008-.058.835-5.938,3.076-15.038.993-4.031,2.113-8.09,3.342-12.114L661.8,69.094l24.21,19.834q.7-1.7,1.419-3.363a168.683,168.683,0,0,1,24.511-40.877A122.809,122.809,0,0,1,730.179,26.74a105.358,105.358,0,0,1,22.89-13.832l.235.535C718.536,28.732,698.58,61.228,687.961,85.8q-.765,1.771-1.482,3.519l9.986,8.181-.37.452-9.846-8.067c-2.746,6.748-4.951,13.166-6.688,18.83l.1.23Zm-55.245-25.423,52.844,23.706L679.335,109.45c-1.331,4.389-2.376,8.305-3.174,11.543C674.166,129.089,673.3,134.619,673.127,135.755Zm-9.839-64.684L679.2,107.88q.475-1.532.97-3.055c1.7-5.226,3.578-10.365,5.6-15.331Z" transform="translate(152.347 10034.032)" fill="#9d9d9c"/>
      <path id="Trazado_901365" data-name="Trazado 901365" d="M934.623,130.354c-11.633-6.08-20.1-12.568-25.172-19.283a17.846,17.846,0,0,1-3.6-10.341,18.491,18.491,0,0,1,2.987-10.568l29.2-44.928L902.372,66.723l-.107-.362C895,41.8,873.387,27.8,856.534,20.385a148.425,148.425,0,0,0-24.55-8.211c-6.419-1.544-10.628-2.1-10.67-2.106l.076-.579c.042.005,4.282.566,10.731,2.117A149.021,149.021,0,0,1,856.77,19.85,100.454,100.454,0,0,1,884.1,37.085a69.28,69.28,0,0,1,11.148,12.892,60.381,60.381,0,0,1,7.472,15.857l37.2-22.411L909.327,90.48a17.684,17.684,0,0,0,.59,20.238c5.017,6.646,13.421,13.078,24.977,19.117Z" transform="translate(117.106 10034.787)" fill="#9d9d9c"/>
      <path id="Trazado_901366" data-name="Trazado 901366" d="M1026.556,149.221l-.42-.406,52.258-54.027-29.938,19.517-.319-.489,34.284-22.35Z" transform="translate(71.856 10016.677)" fill="#9d9d9c"/>
      <path id="Trazado_901367" data-name="Trazado 901367" d="M903.9,80.926,875,58.195,906.13,70.517l-.215.543-27.4-10.847,25.748,20.254Z" transform="translate(105.246 10024.027)" fill="#9d9d9c"/>
      <path id="Trazado_901368" data-name="Trazado 901368" d="M854.271,115.74l-.2-.549,58.22-21.308v21.728h-.584V94.719Z" transform="translate(109.87 10016.143)" fill="#9d9d9c"/>
      <path id="Trazado_904920" data-name="Trazado 904920" d="M0,0H985.259V894.678H0Z" transform="translate(298.553 10036.883)" fill="none"/>
      <path id="Trazado_904921" data-name="Trazado 904921" d="M3.258-11.375,6.977-2.094,10.7-11.375h1.945V0h-1.5V-4.43l.141-4.781L7.547,0H6.4L2.672-9.187,2.82-4.43V0H1.32V-11.375ZM18.57.156a3.693,3.693,0,0,1-2.8-1.129A4.19,4.19,0,0,1,14.7-3.992v-.266a5.073,5.073,0,0,1,.48-2.246A3.748,3.748,0,0,1,16.52-8.051a3.378,3.378,0,0,1,1.871-.559,3.166,3.166,0,0,1,2.563,1.086,4.7,4.7,0,0,1,.914,3.109v.6H16.141a3,3,0,0,0,.73,2.02,2.3,2.3,0,0,0,1.777.77,2.517,2.517,0,0,0,1.3-.312,3.259,3.259,0,0,0,.93-.828l.883.688A3.55,3.55,0,0,1,18.57.156Zm-.18-7.578a1.928,1.928,0,0,0-1.469.637A3.1,3.1,0,0,0,16.188-5h4.234v-.109a2.753,2.753,0,0,0-.594-1.707A1.815,1.815,0,0,0,18.391-7.422Zm4.8,3.125a4.952,4.952,0,0,1,.922-3.129,2.915,2.915,0,0,1,2.414-1.184,2.932,2.932,0,0,1,2.352,1.016V-12H30.32V0H28.992l-.07-.906A2.943,2.943,0,0,1,26.508.156a2.887,2.887,0,0,1-2.395-1.2,5.008,5.008,0,0,1-.926-3.141Zm1.445.164a3.749,3.749,0,0,0,.594,2.25,1.92,1.92,0,0,0,1.641.813A2.108,2.108,0,0,0,28.875-2.3V-6.187a2.125,2.125,0,0,0-1.992-1.2,1.929,1.929,0,0,0-1.656.82A4.128,4.128,0,0,0,24.633-4.133ZM34.133,0H32.688V-8.453h1.445ZM32.57-10.7a.863.863,0,0,1,.215-.594.807.807,0,0,1,.637-.242.819.819,0,0,1,.641.242.854.854,0,0,1,.219.594.826.826,0,0,1-.219.586.834.834,0,0,1-.641.234.821.821,0,0,1-.637-.234A.834.834,0,0,1,32.57-10.7Zm3.523,6.4a4.952,4.952,0,0,1,.922-3.129A2.915,2.915,0,0,1,39.43-8.609a2.932,2.932,0,0,1,2.352,1.016V-12h1.445V0H41.9l-.07-.906A2.943,2.943,0,0,1,39.414.156a2.887,2.887,0,0,1-2.395-1.2,5.008,5.008,0,0,1-.926-3.141Zm1.445.164a3.749,3.749,0,0,0,.594,2.25,1.92,1.92,0,0,0,1.641.813A2.108,2.108,0,0,0,41.781-2.3V-6.187a2.125,2.125,0,0,0-1.992-1.2,1.929,1.929,0,0,0-1.656.82A4.128,4.128,0,0,0,37.539-4.133ZM50.688,0a3.036,3.036,0,0,1-.2-.891A3.225,3.225,0,0,1,48.078.156a2.984,2.984,0,0,1-2.051-.707,2.287,2.287,0,0,1-.8-1.793,2.39,2.39,0,0,1,1-2.051,4.733,4.733,0,0,1,2.824-.73h1.406v-.664A1.623,1.623,0,0,0,50.008-7a1.821,1.821,0,0,0-1.336-.449,2.107,2.107,0,0,0-1.3.391,1.151,1.151,0,0,0-.523.945H45.4a2,2,0,0,1,.449-1.223,3.066,3.066,0,0,1,1.219-.934,4.1,4.1,0,0,1,1.691-.344,3.342,3.342,0,0,1,2.289.73,2.635,2.635,0,0,1,.859,2.012v3.891a4.757,4.757,0,0,0,.3,1.852V0Zm-2.4-1.1a2.54,2.54,0,0,0,1.289-.352,2.127,2.127,0,0,0,.883-.914V-4.1H49.328q-2.656,0-2.656,1.555a1.316,1.316,0,0,0,.453,1.063A1.742,1.742,0,0,0,48.289-1.1ZM61.141-4.242H57.328v-1.18h3.813ZM69.9-1.023a2.082,2.082,0,0,0,1.352-.469,1.649,1.649,0,0,0,.641-1.172h1.367a2.621,2.621,0,0,1-.5,1.383,3.293,3.293,0,0,1-1.23,1.047A3.55,3.55,0,0,1,69.9.156,3.482,3.482,0,0,1,67.152-1a4.59,4.59,0,0,1-1.02-3.152v-.242a5.089,5.089,0,0,1,.453-2.2,3.451,3.451,0,0,1,1.3-1.492,3.7,3.7,0,0,1,2-.531,3.39,3.39,0,0,1,2.363.852,3.043,3.043,0,0,1,1,2.211H71.891a1.992,1.992,0,0,0-.621-1.348,1.932,1.932,0,0,0-1.379-.527,2.023,2.023,0,0,0-1.707.793,3.724,3.724,0,0,0-.605,2.293v.273a3.65,3.65,0,0,0,.6,2.25A2.033,2.033,0,0,0,69.9-1.023ZM78.391.156a3.693,3.693,0,0,1-2.8-1.129,4.19,4.19,0,0,1-1.078-3.02v-.266A5.073,5.073,0,0,1,75-6.5,3.748,3.748,0,0,1,76.34-8.051a3.378,3.378,0,0,1,1.871-.559,3.166,3.166,0,0,1,2.563,1.086,4.7,4.7,0,0,1,.914,3.109v.6H75.961a3,3,0,0,0,.73,2.02,2.3,2.3,0,0,0,1.777.77,2.517,2.517,0,0,0,1.3-.312,3.259,3.259,0,0,0,.93-.828l.883.688A3.55,3.55,0,0,1,78.391.156Zm-.18-7.578a1.928,1.928,0,0,0-1.469.637A3.1,3.1,0,0,0,76.008-5h4.234v-.109a2.753,2.753,0,0,0-.594-1.707A1.815,1.815,0,0,0,78.211-7.422Zm6.516-1.031.047,1.063A3.08,3.08,0,0,1,87.3-8.609q2.68,0,2.7,3.023V0H88.563V-5.594a1.946,1.946,0,0,0-.418-1.352,1.675,1.675,0,0,0-1.277-.437,2.086,2.086,0,0,0-1.234.375,2.546,2.546,0,0,0-.828.984V0H83.359V-8.453ZM94.148-10.5v2.047h1.578v1.117H94.148v5.249a1.173,1.173,0,0,0,.211.763.888.888,0,0,0,.719.254,3.5,3.5,0,0,0,.688-.094V0a4.215,4.215,0,0,1-1.109.155A1.8,1.8,0,0,1,93.2-.43,2.517,2.517,0,0,1,92.7-2.094V-7.336H91.164V-8.453H92.7V-10.5ZM98.984,0H97.531V-8.453h1.453ZM99-11.977h1.75l-2.094,2.3-1.164,0Zm3.727,3.523.039.938a3.122,3.122,0,0,1,2.508-1.094,2.417,2.417,0,0,1,2.414,1.359,3.2,3.2,0,0,1,1.1-.984,3.242,3.242,0,0,1,1.6-.375q2.781,0,2.828,2.945V0h-1.445V-5.578a1.941,1.941,0,0,0-.414-1.355,1.823,1.823,0,0,0-1.391-.449,1.916,1.916,0,0,0-1.336.48,1.949,1.949,0,0,0-.617,1.293V0h-1.453V-5.539a1.613,1.613,0,0,0-1.8-1.844A1.934,1.934,0,0,0,102.8-6.172V0h-1.445V-8.453ZM118.9.156a3.693,3.693,0,0,1-2.8-1.129,4.19,4.19,0,0,1-1.078-3.02v-.266A5.073,5.073,0,0,1,115.5-6.5a3.748,3.748,0,0,1,1.344-1.547,3.378,3.378,0,0,1,1.871-.559,3.166,3.166,0,0,1,2.563,1.086,4.7,4.7,0,0,1,.914,3.109v.6h-5.727a3,3,0,0,0,.73,2.02,2.3,2.3,0,0,0,1.777.77,2.517,2.517,0,0,0,1.3-.312,3.259,3.259,0,0,0,.93-.828l.883.688A3.55,3.55,0,0,1,118.9.156Zm-.18-7.578a1.928,1.928,0,0,0-1.469.637A3.1,3.1,0,0,0,116.516-5h4.234v-.109a2.753,2.753,0,0,0-.594-1.707A1.815,1.815,0,0,0,118.719-7.422Zm7.109-3.078v2.047h1.578v1.117h-1.578v5.249a1.173,1.173,0,0,0,.211.763.888.888,0,0,0,.719.254,3.5,3.5,0,0,0,.688-.094V0a4.215,4.215,0,0,1-1.109.155,1.8,1.8,0,0,1-1.461-.586,2.517,2.517,0,0,1-.492-1.664V-7.336h-1.539V-8.453h1.539V-10.5Zm7.352,3.344a4.331,4.331,0,0,0-.711-.055A1.9,1.9,0,0,0,130.539-6V0h-1.445V-8.453H130.5l.023.977a2.251,2.251,0,0,1,2.016-1.133,1.477,1.477,0,0,1,.641.109Zm.789,2.852a4.993,4.993,0,0,1,.488-2.234,3.642,3.642,0,0,1,1.359-1.531,3.7,3.7,0,0,1,1.988-.539,3.565,3.565,0,0,1,2.793,1.2,4.6,4.6,0,0,1,1.066,3.18v.1a5.036,5.036,0,0,1-.473,2.215A3.589,3.589,0,0,1,139.84-.391a3.743,3.743,0,0,1-2.02.547,3.556,3.556,0,0,1-2.785-1.2A4.575,4.575,0,0,1,133.969-4.2Zm1.453.172a3.616,3.616,0,0,0,.652,2.258,2.088,2.088,0,0,0,1.746.852,2.075,2.075,0,0,0,1.75-.863,3.954,3.954,0,0,0,.648-2.418,3.61,3.61,0,0,0-.66-2.254,2.1,2.1,0,0,0-1.754-.863,2.075,2.075,0,0,0-1.727.852A3.925,3.925,0,0,0,135.422-4.133ZM148.4-2.242a1.064,1.064,0,0,0-.441-.91,4.249,4.249,0,0,0-1.539-.559,7.277,7.277,0,0,1-1.742-.562,2.479,2.479,0,0,1-.953-.781,1.869,1.869,0,0,1-.309-1.078,2.193,2.193,0,0,1,.879-1.758,3.432,3.432,0,0,1,2.246-.719,3.532,3.532,0,0,1,2.332.742,2.357,2.357,0,0,1,.895,1.9h-1.453a1.3,1.3,0,0,0-.5-1.023,1.888,1.888,0,0,0-1.27-.43,1.976,1.976,0,0,0-1.234.344,1.082,1.082,0,0,0-.445.9.877.877,0,0,0,.414.789,5.1,5.1,0,0,0,1.5.508,7.8,7.8,0,0,1,1.754.578,2.558,2.558,0,0,1,1,.809,1.988,1.988,0,0,1,.324,1.152,2.163,2.163,0,0,1-.906,1.816,3.8,3.8,0,0,1-2.352.684,4.257,4.257,0,0,1-1.8-.359,2.922,2.922,0,0,1-1.223-1,2.42,2.42,0,0,1-.441-1.395h1.445a1.5,1.5,0,0,0,.582,1.152,2.258,2.258,0,0,0,1.434.426,2.331,2.331,0,0,0,1.316-.332A1.02,1.02,0,0,0,148.4-2.242ZM2.82,14.547V19H1.32V7.625h4.2a4.215,4.215,0,0,1,2.926.953A3.231,3.231,0,0,1,9.5,11.1a3.189,3.189,0,0,1-1.035,2.551,4.4,4.4,0,0,1-2.965.895Zm0-1.227h2.7a2.7,2.7,0,0,0,1.844-.567A2.075,2.075,0,0,0,8,11.113a2.143,2.143,0,0,0-.641-1.628A2.525,2.525,0,0,0,5.6,8.852H2.82Zm18.938-.68H15.242V11.383h6.516Zm0,3.242H15.242v-1.25h6.516Zm9.523,2.094a2.082,2.082,0,0,0,1.352-.469,1.649,1.649,0,0,0,.641-1.172h1.367a2.621,2.621,0,0,1-.5,1.383,3.293,3.293,0,0,1-1.23,1.047,3.55,3.55,0,0,1-1.629.391A3.482,3.482,0,0,1,28.535,18a4.59,4.59,0,0,1-1.02-3.152v-.242a5.089,5.089,0,0,1,.453-2.2,3.451,3.451,0,0,1,1.3-1.492,3.7,3.7,0,0,1,2-.531,3.39,3.39,0,0,1,2.363.852,3.043,3.043,0,0,1,1,2.211H33.273a1.992,1.992,0,0,0-.621-1.348,1.932,1.932,0,0,0-1.379-.527,2.023,2.023,0,0,0-1.707.793,3.724,3.724,0,0,0-.605,2.293v.273a3.65,3.65,0,0,0,.6,2.25A2.033,2.033,0,0,0,31.281,17.977Zm4.6-3.281a4.993,4.993,0,0,1,.488-2.234A3.643,3.643,0,0,1,37.73,10.93a3.7,3.7,0,0,1,1.988-.539,3.565,3.565,0,0,1,2.793,1.2,4.6,4.6,0,0,1,1.066,3.18v.1a5.036,5.036,0,0,1-.473,2.215,3.589,3.589,0,0,1-1.352,1.527,3.743,3.743,0,0,1-2.02.547,3.556,3.556,0,0,1-2.785-1.2A4.575,4.575,0,0,1,35.883,14.8Zm1.453.172a3.616,3.616,0,0,0,.652,2.258,2.211,2.211,0,0,0,3.5-.012,3.955,3.955,0,0,0,.648-2.418,3.61,3.61,0,0,0-.66-2.254,2.1,2.1,0,0,0-1.754-.863,2.075,2.075,0,0,0-1.727.852A3.925,3.925,0,0,0,37.336,14.867Zm9.422-4.32.047,1.063a3.08,3.08,0,0,1,2.531-1.219q2.68,0,2.7,3.023V19H50.594V13.406a1.946,1.946,0,0,0-.418-1.352,1.675,1.675,0,0,0-1.277-.437,2.086,2.086,0,0,0-1.234.375,2.546,2.546,0,0,0-.828.984V19H45.391V10.547ZM56.18,8.5v2.047h1.578v1.117H56.18v5.249a1.173,1.173,0,0,0,.211.763.888.888,0,0,0,.719.254,3.5,3.5,0,0,0,.688-.094V19a4.215,4.215,0,0,1-1.109.155,1.8,1.8,0,0,1-1.461-.586,2.517,2.517,0,0,1-.492-1.664V11.664H53.2V10.547h1.539V8.5Zm2.727,6.2a4.993,4.993,0,0,1,.488-2.234,3.643,3.643,0,0,1,1.359-1.531,3.7,3.7,0,0,1,1.988-.539,3.565,3.565,0,0,1,2.793,1.2,4.6,4.6,0,0,1,1.066,3.18v.1a5.036,5.036,0,0,1-.473,2.215,3.589,3.589,0,0,1-1.352,1.527,3.743,3.743,0,0,1-2.02.547,3.556,3.556,0,0,1-2.785-1.2A4.575,4.575,0,0,1,58.906,14.8Zm1.453.172a3.616,3.616,0,0,0,.652,2.258,2.211,2.211,0,0,0,3.5-.012,3.955,3.955,0,0,0,.648-2.418,3.61,3.61,0,0,0-.66-2.254,2.1,2.1,0,0,0-1.754-.863,2.075,2.075,0,0,0-1.727.852A3.925,3.925,0,0,0,60.359,14.867ZM72.5,11.844a4.331,4.331,0,0,0-.711-.055A1.9,1.9,0,0,0,69.859,13v6H68.414V10.547H69.82l.023.977a2.251,2.251,0,0,1,2.016-1.133,1.477,1.477,0,0,1,.641.109Zm2.7-1.3.047,1.063a3.08,3.08,0,0,1,2.531-1.219q2.68,0,2.7,3.023V19H79.031V13.406a1.946,1.946,0,0,0-.418-1.352,1.675,1.675,0,0,0-1.277-.437,2.086,2.086,0,0,0-1.234.375,2.546,2.546,0,0,0-.828.984V19H73.828V10.547ZM82.273,14.7a4.993,4.993,0,0,1,.488-2.234,3.643,3.643,0,0,1,1.359-1.531,3.7,3.7,0,0,1,1.988-.539,3.565,3.565,0,0,1,2.793,1.2,4.6,4.6,0,0,1,1.066,3.18v.1a5.036,5.036,0,0,1-.473,2.215,3.589,3.589,0,0,1-1.352,1.527,3.743,3.743,0,0,1-2.02.547,3.556,3.556,0,0,1-2.785-1.2A4.575,4.575,0,0,1,82.273,14.8Zm1.453.172a3.616,3.616,0,0,0,.652,2.258,2.211,2.211,0,0,0,3.5-.012,3.955,3.955,0,0,0,.648-2.418,3.61,3.61,0,0,0-.66-2.254,2.1,2.1,0,0,0-1.754-.863,2.075,2.075,0,0,0-1.727.852A3.925,3.925,0,0,0,83.727,14.867ZM95.391,14.7a4.952,4.952,0,0,1,.922-3.129,3.137,3.137,0,0,1,4.766-.168V7h1.445V19H101.2l-.07-.906a2.943,2.943,0,0,1-2.414,1.063,2.887,2.887,0,0,1-2.395-1.2,5.008,5.008,0,0,1-.926-3.141Zm1.445.164a3.749,3.749,0,0,0,.594,2.25,1.92,1.92,0,0,0,1.641.813,2.109,2.109,0,0,0,2.008-1.234V12.813a2.125,2.125,0,0,0-1.992-1.2,1.929,1.929,0,0,0-1.656.82A4.128,4.128,0,0,0,96.836,14.867Zm11.438,4.289a3.693,3.693,0,0,1-2.8-1.129,4.19,4.19,0,0,1-1.078-3.02v-.266a5.073,5.073,0,0,1,.48-2.246,3.748,3.748,0,0,1,1.344-1.547,3.378,3.378,0,0,1,1.871-.559,3.166,3.166,0,0,1,2.563,1.086,4.7,4.7,0,0,1,.914,3.109v.6h-5.727a3,3,0,0,0,.73,2.02,2.3,2.3,0,0,0,1.777.77,2.517,2.517,0,0,0,1.3-.312,3.259,3.259,0,0,0,.93-.828l.883.688A3.55,3.55,0,0,1,108.273,19.156Zm-.18-7.578a1.928,1.928,0,0,0-1.469.637A3.1,3.1,0,0,0,105.891,14h4.234v-.109a2.753,2.753,0,0,0-.594-1.707A1.815,1.815,0,0,0,108.094,11.578Zm16.25,3.289a5.062,5.062,0,0,1-.883,3.109,2.829,2.829,0,0,1-2.391,1.18,3.1,3.1,0,0,1-2.422-.977v4.07H117.2v-11.7h1.32l.07.938a2.977,2.977,0,0,1,2.453-1.094,2.882,2.882,0,0,1,2.41,1.148,5.117,5.117,0,0,1,.887,3.2ZM122.9,14.7a3.735,3.735,0,0,0-.609-2.258,1.963,1.963,0,0,0-1.672-.828,2.125,2.125,0,0,0-1.969,1.164V16.82a2.129,2.129,0,0,0,1.984,1.156,1.954,1.954,0,0,0,1.652-.824A4.077,4.077,0,0,0,122.9,14.7Zm6.789,4.453a3.693,3.693,0,0,1-2.8-1.129,4.19,4.19,0,0,1-1.078-3.02v-.266a5.073,5.073,0,0,1,.48-2.246,3.748,3.748,0,0,1,1.344-1.547,3.378,3.378,0,0,1,1.871-.559,3.166,3.166,0,0,1,2.563,1.086,4.7,4.7,0,0,1,.914,3.109v.6h-5.727a3,3,0,0,0,.73,2.02,2.3,2.3,0,0,0,1.777.77,2.517,2.517,0,0,0,1.3-.312,3.258,3.258,0,0,0,.93-.828l.883.688A3.55,3.55,0,0,1,129.688,19.156Zm-.18-7.578a1.928,1.928,0,0,0-1.469.637A3.1,3.1,0,0,0,127.3,14h4.234v-.109a2.753,2.753,0,0,0-.594-1.707A1.815,1.815,0,0,0,129.508,11.578Zm8.539,6.4a2.082,2.082,0,0,0,1.352-.469,1.649,1.649,0,0,0,.641-1.172h1.367a2.621,2.621,0,0,1-.5,1.383,3.293,3.293,0,0,1-1.23,1.047,3.55,3.55,0,0,1-1.629.391A3.482,3.482,0,0,1,135.3,18a4.59,4.59,0,0,1-1.02-3.152v-.242a5.089,5.089,0,0,1,.453-2.2,3.451,3.451,0,0,1,1.3-1.492,3.7,3.7,0,0,1,2-.531,3.39,3.39,0,0,1,2.363.852,3.043,3.043,0,0,1,1,2.211h-1.367a1.992,1.992,0,0,0-.621-1.348,1.932,1.932,0,0,0-1.379-.527,2.023,2.023,0,0,0-1.707.793,3.724,3.724,0,0,0-.605,2.293v.273a3.65,3.65,0,0,0,.6,2.25A2.033,2.033,0,0,0,138.047,17.977Zm6.43-6.406a3.073,3.073,0,0,1,2.5-1.18q2.68,0,2.7,3.023V19h-1.445V13.406a1.946,1.946,0,0,0-.418-1.352,1.675,1.675,0,0,0-1.277-.437,2.086,2.086,0,0,0-1.234.375,2.546,2.546,0,0,0-.828.984V19h-1.445V7h1.445Zm6.984,3.125a4.993,4.993,0,0,1,.488-2.234,3.642,3.642,0,0,1,1.359-1.531,3.7,3.7,0,0,1,1.988-.539,3.565,3.565,0,0,1,2.793,1.2,4.6,4.6,0,0,1,1.066,3.18v.1a5.036,5.036,0,0,1-.473,2.215,3.589,3.589,0,0,1-1.352,1.527,3.743,3.743,0,0,1-2.02.547,3.556,3.556,0,0,1-2.785-1.2,4.575,4.575,0,0,1-1.066-3.164Zm1.453.172a3.616,3.616,0,0,0,.652,2.258,2.211,2.211,0,0,0,3.5-.012,3.954,3.954,0,0,0,.648-2.418,3.61,3.61,0,0,0-.66-2.254,2.1,2.1,0,0,0-1.754-.863,2.075,2.075,0,0,0-1.727.852A3.925,3.925,0,0,0,152.914,14.867ZM9.688,34.391a4.185,4.185,0,0,1-1.332,2.785,4.365,4.365,0,0,1-2.98.98,4.008,4.008,0,0,1-3.23-1.445A5.815,5.815,0,0,1,.93,32.844V31.75A6.481,6.481,0,0,1,1.5,28.961,4.231,4.231,0,0,1,3.1,27.113a4.47,4.47,0,0,1,2.406-.645A4.11,4.11,0,0,1,8.414,27.48a4.235,4.235,0,0,1,1.273,2.8H8.18a3.268,3.268,0,0,0-.848-1.975A2.565,2.565,0,0,0,5.508,27.7a2.684,2.684,0,0,0-2.254,1.063,4.882,4.882,0,0,0-.816,3.026v1.1a5.018,5.018,0,0,0,.773,2.948A2.5,2.5,0,0,0,5.375,36.93a2.886,2.886,0,0,0,1.918-.566,3.143,3.143,0,0,0,.887-1.973Zm1.438-.7a4.993,4.993,0,0,1,.488-2.234,3.643,3.643,0,0,1,1.359-1.531,3.7,3.7,0,0,1,1.988-.539,3.565,3.565,0,0,1,2.793,1.2,4.6,4.6,0,0,1,1.066,3.18v.1a5.036,5.036,0,0,1-.473,2.215A3.589,3.589,0,0,1,17,37.609a3.743,3.743,0,0,1-2.02.547,3.556,3.556,0,0,1-2.785-1.2A4.575,4.575,0,0,1,11.125,33.8Zm1.453.172a3.616,3.616,0,0,0,.652,2.258,2.211,2.211,0,0,0,3.5-.012,3.955,3.955,0,0,0,.648-2.418,3.61,3.61,0,0,0-.66-2.254,2.1,2.1,0,0,0-1.754-.863,2.075,2.075,0,0,0-1.727.852A3.925,3.925,0,0,0,12.578,33.867Zm12.977,1.891a1.064,1.064,0,0,0-.441-.91,4.249,4.249,0,0,0-1.539-.559,7.277,7.277,0,0,1-1.742-.562,2.479,2.479,0,0,1-.953-.781,1.869,1.869,0,0,1-.309-1.078,2.193,2.193,0,0,1,.879-1.758,3.432,3.432,0,0,1,2.246-.719,3.532,3.532,0,0,1,2.332.742,2.357,2.357,0,0,1,.895,1.9H25.469a1.3,1.3,0,0,0-.5-1.023,1.888,1.888,0,0,0-1.27-.43,1.976,1.976,0,0,0-1.234.344,1.082,1.082,0,0,0-.445.9.877.877,0,0,0,.414.789,5.1,5.1,0,0,0,1.5.508,7.8,7.8,0,0,1,1.754.578,2.558,2.558,0,0,1,1,.809A1.988,1.988,0,0,1,27,35.656a2.163,2.163,0,0,1-.906,1.816,3.8,3.8,0,0,1-2.352.684,4.257,4.257,0,0,1-1.8-.359,2.922,2.922,0,0,1-1.223-1,2.42,2.42,0,0,1-.441-1.395h1.445a1.5,1.5,0,0,0,.582,1.152,2.258,2.258,0,0,0,1.434.426,2.331,2.331,0,0,0,1.316-.332A1.02,1.02,0,0,0,25.555,35.758ZM30.844,27.5v2.047h1.578v1.117H30.844v5.249a1.173,1.173,0,0,0,.211.763.888.888,0,0,0,.719.254,3.5,3.5,0,0,0,.688-.094V38a4.215,4.215,0,0,1-1.109.155,1.8,1.8,0,0,1-1.461-.586,2.517,2.517,0,0,1-.492-1.664V30.664H27.859V29.547H29.4V27.5Zm8.484,9.664a3.07,3.07,0,0,1-2.477.992,2.628,2.628,0,0,1-2.059-.785,3.4,3.4,0,0,1-.715-2.324v-5.5h1.445v5.461q0,1.922,1.563,1.922a2.163,2.163,0,0,0,2.2-1.234V29.547h1.445V38H39.359Zm7.688-6.32a4.331,4.331,0,0,0-.711-.055A1.9,1.9,0,0,0,44.375,32v6H42.93V29.547h1.406l.023.977a2.251,2.251,0,0,1,2.016-1.133,1.477,1.477,0,0,1,.641.109ZM53.25,38a3.036,3.036,0,0,1-.2-.891,3.225,3.225,0,0,1-2.406,1.047,2.984,2.984,0,0,1-2.051-.707,2.287,2.287,0,0,1-.8-1.793,2.39,2.39,0,0,1,1-2.051,4.733,4.733,0,0,1,2.824-.73h1.406v-.664A1.623,1.623,0,0,0,52.57,31a1.821,1.821,0,0,0-1.336-.449,2.107,2.107,0,0,0-1.3.391,1.151,1.151,0,0,0-.523.945H47.961a2,2,0,0,1,.449-1.223,3.066,3.066,0,0,1,1.219-.934,4.1,4.1,0,0,1,1.691-.344,3.342,3.342,0,0,1,2.289.73,2.635,2.635,0,0,1,.859,2.012v3.891a4.757,4.757,0,0,0,.3,1.852V38Zm-2.4-1.1a2.54,2.54,0,0,0,1.289-.352,2.127,2.127,0,0,0,.883-.914V33.9H51.891q-2.656,0-2.656,1.555a1.316,1.316,0,0,0,.453,1.063A1.742,1.742,0,0,0,50.852,36.9ZM63.7,33.758H59.891v-1.18H63.7Zm6.734-4.211.047,1.063a3.08,3.08,0,0,1,2.531-1.219q2.68,0,2.7,3.023V38H74.273V32.406a1.946,1.946,0,0,0-.418-1.352,1.675,1.675,0,0,0-1.277-.437,2.086,2.086,0,0,0-1.234.375,2.546,2.546,0,0,0-.828.984V38H69.07V29.547ZM77.516,33.7A4.993,4.993,0,0,1,78,31.461a3.643,3.643,0,0,1,1.359-1.531,3.7,3.7,0,0,1,1.988-.539,3.565,3.565,0,0,1,2.793,1.2,4.6,4.6,0,0,1,1.066,3.18v.1a5.036,5.036,0,0,1-.473,2.215,3.589,3.589,0,0,1-1.352,1.527,3.743,3.743,0,0,1-2.02.547,3.556,3.556,0,0,1-2.785-1.2A4.575,4.575,0,0,1,77.516,33.8Zm1.453.172a3.616,3.616,0,0,0,.652,2.258,2.211,2.211,0,0,0,3.5-.012,3.955,3.955,0,0,0,.648-2.418,3.61,3.61,0,0,0-.66-2.254,2.1,2.1,0,0,0-1.754-.863,2.075,2.075,0,0,0-1.727.852A3.925,3.925,0,0,0,78.969,33.867ZM92.555,38H91.109V29.547h1.445ZM90.992,27.3a.863.863,0,0,1,.215-.594.807.807,0,0,1,.637-.242.819.819,0,0,1,.641.242.854.854,0,0,1,.219.594.826.826,0,0,1-.219.586.834.834,0,0,1-.641.234.821.821,0,0,1-.637-.234A.834.834,0,0,1,90.992,27.3Zm5.242,2.242.047,1.063a3.08,3.08,0,0,1,2.531-1.219q2.68,0,2.7,3.023V38H100.07V32.406a1.946,1.946,0,0,0-.418-1.352,1.675,1.675,0,0,0-1.277-.437,2.086,2.086,0,0,0-1.234.375,2.546,2.546,0,0,0-.828.984V38H94.867V29.547Zm10.852,7.43a2.082,2.082,0,0,0,1.352-.469,1.649,1.649,0,0,0,.641-1.172h1.367a2.621,2.621,0,0,1-.5,1.383,3.293,3.293,0,0,1-1.23,1.047,3.55,3.55,0,0,1-1.629.391A3.482,3.482,0,0,1,104.34,37a4.59,4.59,0,0,1-1.02-3.152v-.242a5.089,5.089,0,0,1,.453-2.2,3.451,3.451,0,0,1,1.3-1.492,3.7,3.7,0,0,1,2-.531,3.39,3.39,0,0,1,2.363.852,3.043,3.043,0,0,1,1,2.211h-1.367a1.992,1.992,0,0,0-.621-1.348,1.932,1.932,0,0,0-1.379-.527,2.023,2.023,0,0,0-1.707.793,3.724,3.724,0,0,0-.605,2.293v.273a3.65,3.65,0,0,0,.6,2.25A2.033,2.033,0,0,0,107.086,36.977ZM113.641,38H112.2V26h1.445Zm7.531-.836a3.07,3.07,0,0,1-2.477.992,2.628,2.628,0,0,1-2.059-.785,3.4,3.4,0,0,1-.715-2.324v-5.5h1.445v5.461q0,1.922,1.563,1.922a2.163,2.163,0,0,0,2.2-1.234V29.547h1.445V38H121.2Zm5.172.836h-1.453V29.547h1.453Zm.016-11.977h1.75l-2.094,2.3-1.164,0Zm2.016,7.68a4.952,4.952,0,0,1,.922-3.129,3.137,3.137,0,0,1,4.766-.168V26h1.445V38H134.18l-.07-.906a2.943,2.943,0,0,1-2.414,1.063,2.887,2.887,0,0,1-2.395-1.2,5.008,5.008,0,0,1-.926-3.141Zm1.445.164a3.749,3.749,0,0,0,.594,2.25,1.919,1.919,0,0,0,1.641.813,2.108,2.108,0,0,0,2.008-1.234V31.813a2.125,2.125,0,0,0-1.992-1.2,1.929,1.929,0,0,0-1.656.82A4.128,4.128,0,0,0,129.82,33.867ZM142.969,38a3.036,3.036,0,0,1-.2-.891,3.225,3.225,0,0,1-2.406,1.047,2.984,2.984,0,0,1-2.051-.707,2.287,2.287,0,0,1-.8-1.793,2.39,2.39,0,0,1,1-2.051,4.733,4.733,0,0,1,2.824-.73h1.406v-.664A1.623,1.623,0,0,0,142.289,31a1.821,1.821,0,0,0-1.336-.449,2.107,2.107,0,0,0-1.3.391,1.151,1.151,0,0,0-.523.945H137.68a2,2,0,0,1,.449-1.223,3.066,3.066,0,0,1,1.219-.934,4.1,4.1,0,0,1,1.691-.344,3.342,3.342,0,0,1,2.289.73,2.635,2.635,0,0,1,.859,2.012v3.891a4.757,4.757,0,0,0,.3,1.852V38Zm-2.4-1.1a2.54,2.54,0,0,0,1.289-.352,2.127,2.127,0,0,0,.883-.914V33.9h-1.133q-2.656,0-2.656,1.555a1.316,1.316,0,0,0,.453,1.063A1.742,1.742,0,0,0,140.57,36.9Z" transform="translate(392.508 10991.926)"/>
      <path id="Trazado_904922" data-name="Trazado 904922" d="M1.5,0A1.5,1.5,0,1,1,0,1.5,1.5,1.5,0,0,1,1.5,0Z" transform="translate(384.553 10985)"/>
      <path id="Trazado_904923" data-name="Trazado 904923" d="M1.5,0A1.5,1.5,0,1,1,0,1.5,1.5,1.5,0,0,1,1.5,0Z" transform="translate(384.553 11005)"/>
      <path id="Trazado_904924" data-name="Trazado 904924" d="M1.5,0A1.5,1.5,0,1,1,0,1.5,1.5,1.5,0,0,1,1.5,0Z" transform="translate(384.553 11024)"/>
      <path id="Trazado_901526" data-name="Trazado 901526" d="M-4268.552-1017.065v349.9" transform="translate(5009.552 11481.337)" fill="none" stroke="#000" stroke-width="1"/>
    </g>
  </g>
</svg>
