<svg xmlns="http://www.w3.org/2000/svg" xmlns:xlink="http://www.w3.org/1999/xlink" width="503.396" height="143.688" viewBox="0 0 503.396 143.688">
  <defs>
    <clipPath id="clip-path">
      <rect id="Rectángulo_407883" data-name="Rectángulo 407883" width="5.638" height="10.957" fill="none"/>
    </clipPath>
  </defs>
  <g id="Grupo_1115006" data-name="Grupo 1115006" transform="translate(-862.226 -2295.865)">
    <g id="Trazado_904695" data-name="Trazado 904695" transform="translate(872.514 2337)" fill="none">
      <path d="M7,0H483a7,7,0,0,1,7,7V51a7,7,0,0,1-7,7H7a7,7,0,0,1-7-7V7A7,7,0,0,1,7,0Z" stroke="none"/>
      <path d="M 7 3 C 4.79437255859375 3 3 4.794376373291016 3 7 L 3 51 C 3 53.20562362670898 4.79437255859375 55 7 55 L 483 55 C 485.2056274414062 55 487 53.20562362670898 487 51 L 487 7 C 487 4.794376373291016 485.2056274414062 3 483 3 L 7 3 M 7 0 L 483 0 C 486.8659973144531 0 490 3.133998870849609 490 7 L 490 51 C 490 54.86600112915039 486.8659973144531 58 483 58 L 7 58 C 3.134002685546875 58 0 54.86600112915039 0 51 L 0 7 C 0 3.133998870849609 3.134002685546875 0 7 0 Z" stroke="none" fill="#000"/>
    </g>
    <g id="Trazado_904702" data-name="Trazado 904702" transform="translate(882.514 2354)" fill="none">
      <path d="M14.5,0C22.508,0,29,5.82,29,13S22.508,26,14.5,26,0,20.18,0,13,6.492,0,14.5,0Z" stroke="none"/>
      <path d="M 14.5 2 C 7.607479095458984 2 2 6.934579849243164 2 13 C 2 19.06542015075684 7.607479095458984 24 14.5 24 C 21.39252090454102 24 27 19.06542015075684 27 13 C 27 6.934579849243164 21.39252090454102 2 14.5 2 M 14.5 0 C 22.50812911987305 0 29 5.82029914855957 29 13 C 29 20.1796989440918 22.50812911987305 26 14.5 26 C 6.491870880126953 26 0 20.1796989440918 0 13 C 0 5.82029914855957 6.491870880126953 0 14.5 0 Z" stroke="none" fill="#000"/>
    </g>
    <g id="Trazado_904699" data-name="Trazado 904699" transform="translate(936.514 2354)" fill="none">
      <path d="M15,0c8.284,0,15,5.82,15,13S23.284,26,15,26,0,20.18,0,13,6.716,0,15,0Z" stroke="none"/>
      <path d="M 15 2 C 7.831779479980469 2 2 6.934579849243164 2 13 C 2 19.06542015075684 7.831779479980469 24 15 24 C 22.16822052001953 24 28 19.06542015075684 28 13 C 28 6.934579849243164 22.16822052001953 2 15 2 M 15 0 C 23.28426933288574 0 30 5.82029914855957 30 13 C 30 20.1796989440918 23.28426933288574 26 15 26 C 6.715730667114258 26 0 20.1796989440918 0 13 C 0 5.82029914855957 6.715730667114258 0 15 0 Z" stroke="none" fill="#000"/>
    </g>
    <path id="Trazado_904703" data-name="Trazado 904703" d="M4,0A3.775,3.775,0,0,1,8,3.5,3.775,3.775,0,0,1,4,7,3.775,3.775,0,0,1,0,3.5,3.775,3.775,0,0,1,4,0Z" transform="translate(892.514 2363)"/>
    <path id="Trazado_904700" data-name="Trazado 904700" d="M4,0A3.775,3.775,0,0,1,8,3.5,3.775,3.775,0,0,1,4,7,3.775,3.775,0,0,1,0,3.5,3.775,3.775,0,0,1,4,0Z" transform="translate(947.514 2364)"/>
    <path id="Trazado_900972" data-name="Trazado 900972" d="M2564.469-9223h31.867" transform="translate(-1258.193 11589.035)" fill="none" stroke="#000" stroke-width="3"/>
    <path id="Trazado_904696" data-name="Trazado 904696" d="M6,0a5.766,5.766,0,0,1,6,5.5A5.766,5.766,0,0,1,6,11,5.766,5.766,0,0,1,0,5.5,5.766,5.766,0,0,1,6,0Z" transform="translate(1333.514 2361)"/>
    <path id="Trazado_900973" data-name="Trazado 900973" d="M2779.354-9200.514v124.286H2291.138v-124.286" transform="translate(-1416.313 11515.28)" fill="none" stroke="#707070" stroke-width="1" stroke-dasharray="6"/>
    <path id="Trazado_900975" data-name="Trazado 900975" d="M2316.25-9260.431v48.529" transform="translate(-974.006 11575.196)" fill="none" stroke="#707070" stroke-width="1" stroke-dasharray="6 5"/>
    <path id="Trazado_900976" data-name="Trazado 900976" d="M2316.25-9260.43v77.551" transform="translate(-1400.396 11575.196)" fill="none" stroke="#707070" stroke-width="1" stroke-dasharray="6 5"/>
    <path id="Trazado_901610" data-name="Trazado 901610" d="M2316.25-9260.43v39.311" transform="translate(-1419.736 11641.119)" fill="none" stroke="#707070" stroke-width="1" stroke-dasharray="6 5"/>
    <path id="Trazado_901611" data-name="Trazado 901611" d="M2316.25-9260.431v23" transform="translate(-1387.736 11655.431)" fill="none" stroke="#707070" stroke-width="1" stroke-dasharray="6 5"/>
    <path id="Trazado_904704" data-name="Trazado 904704" d="M4.03-8.777H5.609A2.225,2.225,0,0,0,7.28-9.341a2.067,2.067,0,0,0,.543-1.5,1.827,1.827,0,0,0-.538-1.4,2.086,2.086,0,0,0-1.482-.5,2.187,2.187,0,0,0-1.425.467A1.492,1.492,0,0,0,3.8-11.064H.841a3.644,3.644,0,0,1,.631-2.1,4.2,4.2,0,0,1,1.764-1.451,5.886,5.886,0,0,1,2.5-.523A5.582,5.582,0,0,1,9.444-14a3.866,3.866,0,0,1,1.343,3.122,3.141,3.141,0,0,1-.625,1.887A4.064,4.064,0,0,1,8.521-7.67,3.71,3.71,0,0,1,10.4-6.316a3.672,3.672,0,0,1,.62,2.133A3.93,3.93,0,0,1,9.572-.995a5.834,5.834,0,0,1-3.84,1.2A5.531,5.531,0,0,1,2.076-.974,3.851,3.851,0,0,1,.656-4.091H3.62A1.717,1.717,0,0,0,4.25-2.717,2.324,2.324,0,0,0,5.8-2.184,2.335,2.335,0,0,0,7.46-2.743a1.929,1.929,0,0,0,.6-1.482Q8.06-6.46,5.6-6.46H4.03Z" transform="translate(887.514 2311)" fill="#12263f"/>
    <path id="Trazado_904701" data-name="Trazado 904701" d="M9.782-5.619h1.692V-3.23H9.782V0H6.819V-3.23H.7L.564-5.1,6.788-14.93H9.782Zm-6.265,0h3.3V-10.89l-.195.338Z" transform="translate(912.514 2415)" fill="#12263f"/>
    <path id="Trazado_904705" data-name="Trazado 904705" d="M1.456-7.342l.861-7.588h8.367v2.471H4.748L4.378-9.249a4.7,4.7,0,0,1,2.246-.564A4.3,4.3,0,0,1,9.967-8.49a5.284,5.284,0,0,1,1.21,3.7,5.413,5.413,0,0,1-.61,2.589A4.306,4.306,0,0,1,8.818-.426,5.458,5.458,0,0,1,6.132.205,5.8,5.8,0,0,1,3.62-.344a4.456,4.456,0,0,1-1.83-1.543,4.206,4.206,0,0,1-.713-2.266H4.009A2.19,2.19,0,0,0,4.66-2.7a2.064,2.064,0,0,0,1.461.518A1.822,1.822,0,0,0,7.67-2.907a3.349,3.349,0,0,0,.543-2.046A2.769,2.769,0,0,0,7.588-6.9a2.3,2.3,0,0,0-1.774-.677A2.565,2.565,0,0,0,4.1-7.024l-.287.267Z" transform="translate(882.514 2415)" fill="#12263f"/>
    <path id="Trazado_904706" data-name="Trazado 904706" d="M8.213,0H5.25V-11.439L1.712-10.346v-2.389L7.9-14.95h.318Z" transform="translate(860.514 2413)" fill="#12263f"/>
    <path id="Trazado_904697" data-name="Trazado 904697" d="M4.605-10.031h1.8a2.543,2.543,0,0,0,1.91-.645,2.362,2.362,0,0,0,.621-1.711,2.088,2.088,0,0,0-.615-1.605,2.384,2.384,0,0,0-1.693-.574A2.5,2.5,0,0,0,5-14.033a1.7,1.7,0,0,0-.656,1.389H.961a4.165,4.165,0,0,1,.721-2.4A4.8,4.8,0,0,1,3.7-16.7a6.727,6.727,0,0,1,2.854-.6A6.38,6.38,0,0,1,10.793-16a4.418,4.418,0,0,1,1.535,3.568,3.59,3.59,0,0,1-.715,2.156A4.644,4.644,0,0,1,9.738-8.766a4.24,4.24,0,0,1,2.15,1.547A4.2,4.2,0,0,1,12.6-4.781a4.491,4.491,0,0,1-1.658,3.645A6.667,6.667,0,0,1,6.551.234,6.322,6.322,0,0,1,2.373-1.113,4.4,4.4,0,0,1,.75-4.676H4.137a1.962,1.962,0,0,0,.721,1.57A2.656,2.656,0,0,0,6.633-2.5a2.668,2.668,0,0,0,1.893-.639,2.2,2.2,0,0,0,.686-1.693q0-2.555-2.812-2.555H4.605ZM15.434-8.391l.984-8.672H25.98v2.824H19.2l-.422,3.668a5.369,5.369,0,0,1,2.566-.645A4.918,4.918,0,0,1,25.16-9.7a6.038,6.038,0,0,1,1.383,4.23,6.186,6.186,0,0,1-.7,2.959,4.921,4.921,0,0,1-2,2.027,6.237,6.237,0,0,1-3.07.721,6.624,6.624,0,0,1-2.871-.627,5.093,5.093,0,0,1-2.092-1.764A4.807,4.807,0,0,1,15-4.746h3.352A2.5,2.5,0,0,0,19.1-3.088a2.359,2.359,0,0,0,1.67.592,2.082,2.082,0,0,0,1.77-.826,3.827,3.827,0,0,0,.621-2.338,3.165,3.165,0,0,0-.715-2.227,2.623,2.623,0,0,0-2.027-.773,2.932,2.932,0,0,0-1.957.633l-.328.3ZM29.719,4.277l-1.77-.926.422-.762A6.089,6.089,0,0,0,29.18-.258V-2.883h2.859L32.027-.539a6.088,6.088,0,0,1-.656,2.625A6.729,6.729,0,0,1,29.719,4.277Zm14.859-10.7h1.934v2.73H44.578V0H41.191V-3.691h-7l-.152-2.133,7.113-11.238h3.422Zm-7.16,0h3.773v-6.023l-.223.387Z" transform="translate(1108.514 2427)" fill="#12263f"/>
    <path id="Trazado_904698" data-name="Trazado 904698" d="M8.213,0H5.25V-11.439L1.712-10.346v-2.389L7.9-14.95h.318Zm5.742,3.743-1.548-.81.369-.667a5.328,5.328,0,0,0,.708-2.492v-2.3h2.5l-.01,2.051a5.327,5.327,0,0,1-.574,2.3A5.888,5.888,0,0,1,13.956,3.743ZM18.631-7.342l.861-7.588H27.86v2.471H21.923l-.369,3.209A4.7,4.7,0,0,1,23.8-9.813,4.3,4.3,0,0,1,27.142-8.49a5.284,5.284,0,0,1,1.21,3.7,5.413,5.413,0,0,1-.61,2.589A4.306,4.306,0,0,1,25.994-.426a5.458,5.458,0,0,1-2.687.631,5.8,5.8,0,0,1-2.512-.549,4.456,4.456,0,0,1-1.83-1.543,4.206,4.206,0,0,1-.713-2.266h2.933A2.19,2.19,0,0,0,21.836-2.7a2.064,2.064,0,0,0,1.461.518,1.822,1.822,0,0,0,1.548-.723,3.349,3.349,0,0,0,.543-2.046A2.769,2.769,0,0,0,24.763-6.9a2.3,2.3,0,0,0-1.774-.677,2.565,2.565,0,0,0-1.712.554l-.287.267Z" transform="translate(1331.514 2311)" fill="#12263f"/>
    <g id="Grupo_1114903" data-name="Grupo 1114903" transform="translate(905.004 2318.819) rotate(-90)">
      <g id="Grupo_1114890" data-name="Grupo 1114890" transform="translate(0 0)">
        <g id="Grupo_1114889" data-name="Grupo 1114889" clip-path="url(#clip-path)">
          <path id="Línea_1907" data-name="Línea 1907" d="M-.834,4.8H-3V-3H-.834Z" transform="translate(4.813 6.162)"/>
        </g>
      </g>
      <path id="Trazado_901607" data-name="Trazado 901607" d="M2.941,0,0,4.245H5.638Z" transform="translate(0 -0.001)"/>
    </g>
    <g id="Grupo_1114904" data-name="Grupo 1114904" transform="translate(884.961 2313.182) rotate(90)">
      <g id="Grupo_1114890-2" data-name="Grupo 1114890" transform="translate(0 0)">
        <g id="Grupo_1114889-2" data-name="Grupo 1114889" clip-path="url(#clip-path)">
          <path id="Línea_1907-2" data-name="Línea 1907" d="M-.834,4.8H-3V-3H-.834Z" transform="translate(4.813 6.162)"/>
        </g>
      </g>
      <path id="Trazado_901607-2" data-name="Trazado 901607" d="M2.941,0,0,4.245H5.638Z" transform="translate(0 -0.001)"/>
    </g>
    <g id="Grupo_1114910" data-name="Grupo 1114910" transform="translate(1331.514 2318.819) rotate(-90)">
      <g id="Grupo_1114890-3" data-name="Grupo 1114890" transform="translate(0 0)">
        <g id="Grupo_1114889-3" data-name="Grupo 1114889" clip-path="url(#clip-path)">
          <path id="Línea_1907-3" data-name="Línea 1907" d="M-.834,4.8H-3V-3H-.834Z" transform="translate(4.813 6.162)"/>
        </g>
      </g>
      <path id="Trazado_901607-3" data-name="Trazado 901607" d="M2.941,0,0,4.245H5.638Z" transform="translate(0 -0.001)"/>
    </g>
    <g id="Grupo_1114911" data-name="Grupo 1114911" transform="translate(1365.622 2313.182) rotate(90)">
      <g id="Grupo_1114890-4" data-name="Grupo 1114890" transform="translate(0 0)">
        <g id="Grupo_1114889-4" data-name="Grupo 1114889" clip-path="url(#clip-path)">
          <path id="Línea_1907-4" data-name="Línea 1907" d="M-.834,4.8H-3V-3H-.834Z" transform="translate(4.813 6.162)"/>
        </g>
      </g>
      <path id="Trazado_901607-4" data-name="Trazado 901607" d="M2.941,0,0,4.245H5.638Z" transform="translate(0 -0.001)"/>
    </g>
  </g>
</svg>
