<svg xmlns="http://www.w3.org/2000/svg" xmlns:xlink="http://www.w3.org/1999/xlink" width="525" height="338" viewBox="0 0 525 338">
  <defs>
    <clipPath id="clip-path">
      <rect id="Rectángulo_407542" data-name="Rectángulo 407542" width="426.827" height="268.929" fill="none"/>
    </clipPath>
  </defs>
  <g id="Grupo_1114940" data-name="Grupo 1114940" transform="translate(-265.051 -4531)">
    <g id="Rectángulo_407541" data-name="Rectángulo 407541" transform="translate(265.051 4531)" fill="#ebefeb" stroke="#2f5e34" stroke-width="2">
      <rect width="525" height="338" rx="20" stroke="none"/>
      <rect x="1" y="1" width="523" height="336" rx="19" fill="none"/>
    </g>
    <g id="Grupo_1101470" data-name="Grupo 1101470" transform="translate(314.137 4567.036)">
      <g id="Grupo_1101469" data-name="Grupo 1101469" clip-path="url(#clip-path)">
        <path id="Trazado_890617" data-name="Trazado 890617" d="M450.509,173.06c-1.161-35.311-8.131-70.39-11.616-98.268s-9.292-38.1-9.292-38.1c-.988-.341-2.04-.716-3.128-1.114.036-.092.072-.189.109-.28H425.7c-12.965-4.766-31.336-12.621-31.336-12.621-4.569-1.749-16.726-9.843-16.726-9.843l.219.713-.671-.734a3.31,3.31,0,0,0,1.265-1.209c-1.51-1.858-5.227-5.692-7.2-8.711S356.614.569,356.614.569,338.145.453,332.1,1.731c-4.629.979-9.259,7.485-11.168,10.471a1.461,1.461,0,0,0-.04,1.5c-6.51,4.01-15.31,8.49-15.31,8.49S281.079,32.28,268.3,36.694c0,0-5.807,10.222-9.292,38.1s-10.454,62.957-11.616,98.268-4.414,72.714-3.949,88.279a23.955,23.955,0,0,0,7.415,2.68l.1-1.705a9.17,9.17,0,0,0,2.435,1.653l.007.524a62.378,62.378,0,0,0,20.474-.6s4.781-72.958,5.807-85.491c1.161-14.171,8.169-60.256,8.169-60.256l.4-1.209q.549,4.669,1.031,9.428c4.879,48.321-2.788,131.72-2.788,131.72s5.03,7.173,45.917,9.472c7.331.412,13.686.67,19.2.818v0c25.26.682,32.683-.96,32.683-.96,20.444-1.2,28.575-6.543,29.039-8.4S407.3,157.031,408,140.3c.189-4.533.907-12.482,2.053-22.156,0,.023,7.008,46.087,8.169,60.255,1.027,12.533,5.807,85.491,5.807,85.491a62.378,62.378,0,0,0,20.474.6l.019-1.329c.774-.069,1.614-.164,2.456-.293l.068,1.15a23.942,23.942,0,0,0,7.415-2.68c.464-15.565-2.788-52.967-3.949-88.279" transform="translate(-28.119 -0.058)" fill="#fff"/>
        <path id="Trazado_890618" data-name="Trazado 890618" d="M476.97,273.126s-1.665.457-1.918-1.714,1.219-3.028,2.522-2.457S479.014,272.9,476.97,273.126Z" transform="translate(-54.877 -31.051)" fill="none" stroke="#202020" stroke-linecap="round" stroke-linejoin="round" stroke-width="1"/>
        <path id="Trazado_890619" data-name="Trazado 890619" d="M476.859,273.108s-2.419.75-2.752-1.581,1.2-3.339,2.921-2.726" transform="translate(-54.766 -31.033)" fill="none" stroke="#202020" stroke-linecap="round" stroke-linejoin="round" stroke-width="1"/>
        <path id="Trazado_890620" data-name="Trazado 890620" d="M476.987,272.289s-.918.252-1.058-.946.673-1.67,1.391-1.355S478.114,272.163,476.987,272.289Z" transform="translate(-54.98 -31.18)" fill="none" stroke="#202020" stroke-linecap="round" stroke-linejoin="round" stroke-width="1"/>
        <path id="Trazado_890621" data-name="Trazado 890621" d="M477.224,271.205c0,.126.075.23.169.23s.169-.1.169-.23-.076-.229-.169-.229S477.224,271.079,477.224,271.205Z" transform="translate(-55.131 -31.305)" fill="none" stroke="#202020" stroke-linecap="round" stroke-linejoin="round" stroke-width="1"/>
        <path id="Trazado_890622" data-name="Trazado 890622" d="M476.464,271.205c0,.126.075.23.169.23s.169-.1.169-.23-.076-.229-.169-.229S476.464,271.079,476.464,271.205Z" transform="translate(-55.044 -31.305)" fill="none" stroke="#202020" stroke-linecap="round" stroke-linejoin="round" stroke-width="1"/>
        <path id="Trazado_890623" data-name="Trazado 890623" d="M477.436,280.609s-1.63.57-2.03-1.58,1.01-3.1,2.349-2.623S479.46,280.242,477.436,280.609Z" transform="translate(-54.913 -31.918)" fill="none" stroke="#202020" stroke-linecap="round" stroke-linejoin="round" stroke-width="1"/>
        <path id="Trazado_890624" data-name="Trazado 890624" d="M477.325,280.6s-2.362.913-2.853-1.389.97-3.413,2.729-2.919" transform="translate(-54.802 -31.905)" fill="none" stroke="#202020" stroke-linecap="round" stroke-linejoin="round" stroke-width="1"/>
        <path id="Trazado_890625" data-name="Trazado 890625" d="M477.388,279.78s-.9.314-1.12-.871.557-1.712,1.3-1.447S478.5,279.578,477.388,279.78Z" transform="translate(-55.017 -32.046)" fill="none" stroke="#202020" stroke-linecap="round" stroke-linejoin="round" stroke-width="1"/>
        <path id="Trazado_890626" data-name="Trazado 890626" d="M477.543,278.69c.009.126.091.224.184.218s.162-.114.153-.241-.091-.224-.184-.218S477.534,278.563,477.543,278.69Z" transform="translate(-55.168 -32.168)" fill="none" stroke="#202020" stroke-linecap="round" stroke-linejoin="round" stroke-width="1"/>
        <path id="Trazado_890627" data-name="Trazado 890627" d="M476.784,278.742c.009.126.091.224.184.218s.162-.114.153-.241-.091-.224-.184-.218S476.775,278.615,476.784,278.742Z" transform="translate(-55.081 -32.174)" fill="none" stroke="#202020" stroke-linecap="round" stroke-linejoin="round" stroke-width="1"/>
        <path id="Trazado_890628" data-name="Trazado 890628" d="M478.3,287.739s-1.63.57-2.03-1.58,1.01-3.1,2.349-2.622S480.324,287.372,478.3,287.739Z" transform="translate(-55.013 -32.742)" fill="none" stroke="#202020" stroke-linecap="round" stroke-linejoin="round" stroke-width="1"/>
        <path id="Trazado_890629" data-name="Trazado 890629" d="M478.189,287.726s-2.362.913-2.853-1.389.97-3.413,2.729-2.918" transform="translate(-54.902 -32.729)" fill="none" stroke="#202020" stroke-linecap="round" stroke-linejoin="round" stroke-width="1"/>
        <path id="Trazado_890630" data-name="Trazado 890630" d="M478.252,286.911s-.9.314-1.12-.871.557-1.712,1.3-1.447S479.368,286.709,478.252,286.911Z" transform="translate(-55.116 -32.87)" fill="none" stroke="#202020" stroke-linecap="round" stroke-linejoin="round" stroke-width="1"/>
        <path id="Trazado_890631" data-name="Trazado 890631" d="M478.407,285.821c.009.126.091.224.184.218s.162-.114.153-.241-.091-.224-.184-.218S478.4,285.694,478.407,285.821Z" transform="translate(-55.268 -32.992)" fill="none" stroke="#202020" stroke-linecap="round" stroke-linejoin="round" stroke-width="1"/>
        <path id="Trazado_890632" data-name="Trazado 890632" d="M477.648,285.872c.009.126.091.224.184.218s.162-.114.153-.241-.091-.224-.184-.218S477.639,285.746,477.648,285.872Z" transform="translate(-55.18 -32.998)" fill="none" stroke="#202020" stroke-linecap="round" stroke-linejoin="round" stroke-width="1"/>
        <path id="Trazado_890633" data-name="Trazado 890633" d="M478.693,294.816s-1.63.57-2.03-1.58,1.01-3.1,2.349-2.622S480.717,294.449,478.693,294.816Z" transform="translate(-55.059 -33.559)" fill="none" stroke="#202020" stroke-linecap="round" stroke-linejoin="round" stroke-width="1"/>
        <path id="Trazado_890634" data-name="Trazado 890634" d="M478.582,294.8s-2.362.913-2.853-1.39.97-3.413,2.729-2.918" transform="translate(-54.948 -33.546)" fill="none" stroke="#202020" stroke-linecap="round" stroke-linejoin="round" stroke-width="1"/>
        <path id="Trazado_890635" data-name="Trazado 890635" d="M478.645,293.987s-.9.314-1.12-.871.557-1.712,1.3-1.447S479.761,293.785,478.645,293.987Z" transform="translate(-55.162 -33.687)" fill="none" stroke="#202020" stroke-linecap="round" stroke-linejoin="round" stroke-width="1"/>
        <path id="Trazado_890636" data-name="Trazado 890636" d="M478.8,292.9c.009.126.091.224.184.218s.162-.114.153-.241-.091-.224-.184-.218S478.79,292.77,478.8,292.9Z" transform="translate(-55.313 -33.809)" fill="none" stroke="#202020" stroke-linecap="round" stroke-linejoin="round" stroke-width="1"/>
        <path id="Trazado_890637" data-name="Trazado 890637" d="M478.041,292.949c.009.126.091.224.184.218s.162-.114.153-.241-.091-.224-.184-.218S478.032,292.822,478.041,292.949Z" transform="translate(-55.226 -33.815)" fill="none" stroke="#202020" stroke-linecap="round" stroke-linejoin="round" stroke-width="1"/>
        <path id="Trazado_890638" data-name="Trazado 890638" d="M395.171,14.445s12.158,8.094,16.726,9.843c0,0,22.46,9.6,35.237,14.016,0,0,5.807,10.222,9.292,38.1s10.454,62.957,11.616,98.268,4.414,72.714,3.949,88.279a23.943,23.943,0,0,1-7.415,2.679l-2.035-34.2-.509,34.669a62.372,62.372,0,0,1-20.473-.6s-4.781-72.958-5.807-85.491c-1.162-14.171-8.17-60.256-8.17-60.256" transform="translate(-45.652 -1.669)" fill="none" stroke="#202020" stroke-linecap="round" stroke-linejoin="round" stroke-width="1"/>
        <line id="Línea_621" data-name="Línea 621" y1="0.783" x2="2.469" transform="translate(416.391 262.901)" fill="none" stroke="#202020" stroke-linecap="round" stroke-linejoin="round" stroke-width="1"/>
        <path id="Trazado_890639" data-name="Trazado 890639" d="M249.048,273.126s1.665.457,1.918-1.714-1.219-3.028-2.523-2.457S247,272.9,249.048,273.126Z" transform="translate(-28.591 -31.051)" fill="none" stroke="#202020" stroke-linecap="round" stroke-linejoin="round" stroke-width="1"/>
        <path id="Trazado_890640" data-name="Trazado 890640" d="M249.23,273.108s2.419.75,2.752-1.581-1.2-3.339-2.921-2.726" transform="translate(-28.773 -31.033)" fill="none" stroke="#202020" stroke-linecap="round" stroke-linejoin="round" stroke-width="1"/>
        <path id="Trazado_890641" data-name="Trazado 890641" d="M249.236,272.289s.918.252,1.058-.946-.672-1.67-1.391-1.355S248.11,272.163,249.236,272.289Z" transform="translate(-28.693 -31.18)" fill="none" stroke="#202020" stroke-linecap="round" stroke-linejoin="round" stroke-width="1"/>
        <path id="Trazado_890642" data-name="Trazado 890642" d="M249.208,271.205c0,.126-.076.23-.169.23s-.169-.1-.169-.23.076-.229.169-.229S249.208,271.079,249.208,271.205Z" transform="translate(-28.751 -31.305)" fill="none" stroke="#202020" stroke-linecap="round" stroke-linejoin="round" stroke-width="1"/>
        <path id="Trazado_890643" data-name="Trazado 890643" d="M249.969,271.205c0,.126-.075.23-.169.23s-.169-.1-.169-.23.076-.229.169-.229S249.969,271.079,249.969,271.205Z" transform="translate(-28.839 -31.305)" fill="none" stroke="#202020" stroke-linecap="round" stroke-linejoin="round" stroke-width="1"/>
        <path id="Trazado_890644" data-name="Trazado 890644" d="M248.581,280.609s1.63.57,2.03-1.58-1.01-3.1-2.349-2.623S246.558,280.242,248.581,280.609Z" transform="translate(-28.553 -31.918)" fill="none" stroke="#202020" stroke-linecap="round" stroke-linejoin="round" stroke-width="1"/>
        <path id="Trazado_890645" data-name="Trazado 890645" d="M248.767,280.6s2.362.913,2.853-1.389-.97-3.413-2.729-2.919" transform="translate(-28.739 -31.905)" fill="none" stroke="#202020" stroke-linecap="round" stroke-linejoin="round" stroke-width="1"/>
        <path id="Trazado_890646" data-name="Trazado 890646" d="M248.836,279.78s.9.314,1.12-.871-.557-1.712-1.3-1.447S247.719,279.578,248.836,279.78Z" transform="translate(-28.656 -32.046)" fill="none" stroke="#202020" stroke-linecap="round" stroke-linejoin="round" stroke-width="1"/>
        <path id="Trazado_890647" data-name="Trazado 890647" d="M248.89,278.69c-.009.126-.091.224-.184.218s-.162-.114-.153-.241.091-.224.184-.218S248.9,278.563,248.89,278.69Z" transform="translate(-28.714 -32.168)" fill="none" stroke="#202020" stroke-linecap="round" stroke-linejoin="round" stroke-width="1"/>
        <path id="Trazado_890648" data-name="Trazado 890648" d="M249.649,278.742c-.009.126-.091.224-.184.218s-.162-.114-.153-.241.091-.224.184-.218S249.658,278.615,249.649,278.742Z" transform="translate(-28.802 -32.174)" fill="none" stroke="#202020" stroke-linecap="round" stroke-linejoin="round" stroke-width="1"/>
        <path id="Trazado_890649" data-name="Trazado 890649" d="M247.716,287.739s1.63.57,2.03-1.58-1.01-3.1-2.349-2.622S245.693,287.372,247.716,287.739Z" transform="translate(-28.453 -32.742)" fill="none" stroke="#202020" stroke-linecap="round" stroke-linejoin="round" stroke-width="1"/>
        <path id="Trazado_890650" data-name="Trazado 890650" d="M247.9,287.726s2.362.913,2.853-1.389-.97-3.413-2.729-2.918" transform="translate(-28.639 -32.729)" fill="none" stroke="#202020" stroke-linecap="round" stroke-linejoin="round" stroke-width="1"/>
        <path id="Trazado_890651" data-name="Trazado 890651" d="M247.971,286.911s.9.314,1.12-.871-.557-1.712-1.3-1.447S246.854,286.709,247.971,286.911Z" transform="translate(-28.556 -32.87)" fill="none" stroke="#202020" stroke-linecap="round" stroke-linejoin="round" stroke-width="1"/>
        <path id="Trazado_890652" data-name="Trazado 890652" d="M248.026,285.821c-.01.126-.092.224-.185.218s-.162-.114-.153-.241.091-.224.184-.218S248.034,285.694,248.026,285.821Z" transform="translate(-28.614 -32.992)" fill="none" stroke="#202020" stroke-linecap="round" stroke-linejoin="round" stroke-width="1"/>
        <path id="Trazado_890653" data-name="Trazado 890653" d="M248.784,285.872c-.009.126-.091.224-.184.218s-.162-.114-.153-.241.091-.224.184-.218S248.793,285.746,248.784,285.872Z" transform="translate(-28.702 -32.998)" fill="none" stroke="#202020" stroke-linecap="round" stroke-linejoin="round" stroke-width="1"/>
        <path id="Trazado_890654" data-name="Trazado 890654" d="M247.324,294.816s1.63.57,2.03-1.58-1.01-3.1-2.349-2.622S245.3,294.449,247.324,294.816Z" transform="translate(-28.408 -33.559)" fill="none" stroke="#202020" stroke-linecap="round" stroke-linejoin="round" stroke-width="1"/>
        <path id="Trazado_890655" data-name="Trazado 890655" d="M247.51,294.8s2.362.913,2.853-1.39-.97-3.413-2.729-2.918" transform="translate(-28.594 -33.546)" fill="none" stroke="#202020" stroke-linecap="round" stroke-linejoin="round" stroke-width="1"/>
        <path id="Trazado_890656" data-name="Trazado 890656" d="M247.579,293.987s.9.314,1.12-.871-.557-1.712-1.3-1.447S246.462,293.785,247.579,293.987Z" transform="translate(-28.511 -33.687)" fill="none" stroke="#202020" stroke-linecap="round" stroke-linejoin="round" stroke-width="1"/>
        <path id="Trazado_890657" data-name="Trazado 890657" d="M247.633,292.9c-.009.126-.091.224-.184.218s-.162-.114-.153-.241.091-.224.184-.218S247.642,292.77,247.633,292.9Z" transform="translate(-28.569 -33.809)" fill="none" stroke="#202020" stroke-linecap="round" stroke-linejoin="round" stroke-width="1"/>
        <path id="Trazado_890658" data-name="Trazado 890658" d="M248.392,292.949c-.009.126-.091.224-.184.218s-.162-.114-.153-.241.091-.224.184-.218S248.4,292.822,248.392,292.949Z" transform="translate(-28.657 -33.815)" fill="none" stroke="#202020" stroke-linecap="round" stroke-linejoin="round" stroke-width="1"/>
        <path id="Trazado_890659" data-name="Trazado 890659" d="M320.823,15.8s-11.715,6.9-16.283,8.648c0,0-22.46,9.6-35.237,14.016,0,0-5.807,10.221-9.292,38.1s-10.454,62.956-11.616,98.268-4.414,72.713-3.949,88.278a23.926,23.926,0,0,0,7.415,2.68l2.035-34.2.509,34.668a62.353,62.353,0,0,0,20.474-.6s4.781-72.958,5.807-85.49c1.161-14.171,8.169-60.256,8.169-60.256" transform="translate(-28.234 -1.825)" fill="none" stroke="#202020" stroke-linecap="round" stroke-linejoin="round" stroke-width="1"/>
        <line id="Línea_622" data-name="Línea 622" x1="2.469" y1="0.783" transform="translate(223.689 262.901)" fill="none" stroke="#202020" stroke-linecap="round" stroke-linejoin="round" stroke-width="1"/>
        <path id="Trazado_890660" data-name="Trazado 890660" d="M277.681,39.643a729.354,729.354,0,0,1,15.565,91.245c4.879,48.321-2.788,131.72-2.788,131.72s5.03,7.173,45.917,9.472,51.886-.141,51.886-.141c20.444-1.2,28.575-6.543,29.039-8.4s-6.04-101.984-5.343-118.712,8.6-79.915,18.585-105" transform="translate(-32.079 -4.58)" fill="none" stroke="#202020" stroke-linecap="round" stroke-linejoin="round" stroke-width="1"/>
        <path id="Trazado_890661" data-name="Trazado 890661" d="M364.083,12.615s.234,229.665,1.475,257.163" transform="translate(-42.061 -1.457)" fill="none" stroke="#202020" stroke-linecap="round" stroke-linejoin="round" stroke-width="1"/>
        <path id="Trazado_890662" data-name="Trazado 890662" d="M371.241,10.923s-28.562.22-38.951,3.391a.924.924,0,0,1-.532,0,1.4,1.4,0,0,1-.724-2.109c1.91-2.985,6.539-9.491,11.168-10.47C348.242.453,366.711.569,366.711.569s12.661-.7,14.635,2.324,5.692,6.853,7.2,8.711c0,0-.93,1.531-1.742,1.23A82.682,82.682,0,0,0,371.241,10.923Z" transform="translate(-38.216 -0.058)" fill="none" stroke="#202020" stroke-linecap="round" stroke-linejoin="round" stroke-width="1"/>
        <path id="Trazado_890663" data-name="Trazado 890663" d="M206.53,173.959c-1.161-35.311-8.131-70.39-11.616-98.268s-9.292-38.1-9.292-38.1c-.975-.337-2.03-.708-3.134-1.1.038-.1.076-.2.114-.294l-.17.274c-13.37-4.751-34.9-13.039-34.9-13.039l-.078-1.406c-9.732-5.11-14.334-15.332-14.334-15.332s-2.636-4.491-7.515-5.539l.023.1a16.767,16.767,0,0,0-3.817-.521C116.482.5,89.368.685,89.368.685a22.532,22.532,0,0,0-4.19.5l.008-.029c-5.034.192-8.575,5.539-8.575,5.539s-5.054,10.222-15.74,15.332l-.058.955C59.617,23.52,37.827,33.3,25.4,37.592c0,0-5.807,10.222-9.292,38.1S5.656,138.648,4.5,173.959.081,246.672.545,262.237c0,0,9.525,6.272,30.433,2.555,0,0,4.781-72.958,5.808-85.491,1.014-12.386,6.5-49.15,7.86-58.216q.344,3.071.659,6.178c1.39,13.763,1.76,30.371,1.581,47.088l-1.091-.16-1.548,16.726s.9.369,2.269.888c-1.095,35.572-4,67.179-4,67.179s9.292,8.363,32.059,9.292c11.381.464,17.881-3.315,22.033-9.615l.008,0s1.152,1.063,17.3.016c5.407,7.708,12.324,10.461,26.4,9.635,20.443-1.2,28.574-6.543,29.038-8.4.273-1.091-1.859-36.1-3.523-68.186,1.251-.478,2.064-.81,2.064-.81l-1.549-16.726-1.376.2c-.719-15.357-1.171-28.116-.96-33.191.189-4.533.907-12.482,2.053-22.156,0,.023,7.008,46.087,8.169,60.255,1.028,12.533,5.807,85.491,5.807,85.491,20.908,3.717,30.433-2.555,30.433-2.555.464-15.565-2.788-52.968-3.949-88.278" transform="translate(-0.058 -0.071)" fill="#fff"/>
        <path id="Trazado_890664" data-name="Trazado 890664" d="M166.738,26.414s25.311,9.745,38.088,14.159c0,0,5.807,10.222,9.292,38.1s10.454,62.957,11.615,98.268,4.414,72.714,3.95,88.279c0,0-9.525,6.272-30.433,2.555,0,0-4.781-72.958-5.807-85.491-1.162-14.171-8.17-60.256-8.17-60.256" transform="translate(-19.262 -3.051)" fill="none" stroke="#202020" stroke-linecap="round" stroke-linejoin="round" stroke-width="1"/>
        <path id="Trazado_890665" data-name="Trazado 890665" d="M60.87,25.874S38.18,36.1,25.4,40.51c0,0-5.808,10.221-9.293,38.1S5.656,141.565,4.494,176.876.08,249.59.545,265.154c0,0,9.524,6.272,30.432,2.555,0,0,4.781-72.958,5.808-85.491,1.161-14.171,7.906-57.311,7.906-57.311" transform="translate(-0.058 -2.989)" fill="none" stroke="#202020" stroke-linecap="round" stroke-linejoin="round" stroke-width="1"/>
        <path id="Trazado_890666" data-name="Trazado 890666" d="M124.878,185.7s-3.41.688-3.926-2.582,2.5-4.561,5.164-3.7A3.279,3.279,0,0,1,124.878,185.7Z" transform="translate(-13.966 -20.697)" fill="none" stroke="#202020" stroke-linecap="round" stroke-linejoin="round" stroke-width="1"/>
        <path id="Trazado_890667" data-name="Trazado 890667" d="M124.912,184.436a1.763,1.763,0,0,1-2.165-1.424c-.285-1.8,1.376-2.515,2.848-2.041A1.808,1.808,0,0,1,124.912,184.436Z" transform="translate(-14.177 -20.89)" fill="none" stroke="#202020" stroke-linecap="round" stroke-linejoin="round" stroke-width="1"/>
        <path id="Trazado_890668" data-name="Trazado 890668" d="M125.4,182.8a.346.346,0,1,0,.346-.346A.346.346,0,0,0,125.4,182.8Z" transform="translate(-14.487 -21.078)" fill="none" stroke="#202020" stroke-linecap="round" stroke-linejoin="round" stroke-width="1"/>
        <path id="Trazado_890669" data-name="Trazado 890669" d="M123.841,182.8a.346.346,0,1,0,.346-.346A.346.346,0,0,0,123.841,182.8Z" transform="translate(-14.307 -21.078)" fill="none" stroke="#202020" stroke-linecap="round" stroke-linejoin="round" stroke-width="1"/>
        <path id="Trazado_890670" data-name="Trazado 890670" d="M129.017,182.438s2.415-.4,2.443,0a4.945,4.945,0,0,1,0,.7s-2.151.071-2.4,0" transform="translate(-14.905 -21.056)" fill="none" stroke="#202020" stroke-linecap="round" stroke-linejoin="round" stroke-width="1"/>
        <path id="Trazado_890671" data-name="Trazado 890671" d="M124.878,227.027s-3.41.688-3.926-2.582,2.5-4.561,5.164-3.7A3.279,3.279,0,0,1,124.878,227.027Z" transform="translate(-13.966 -25.472)" fill="none" stroke="#202020" stroke-linecap="round" stroke-linejoin="round" stroke-width="1"/>
        <path id="Trazado_890672" data-name="Trazado 890672" d="M124.912,225.767a1.763,1.763,0,0,1-2.165-1.424c-.285-1.8,1.376-2.515,2.848-2.041A1.808,1.808,0,0,1,124.912,225.767Z" transform="translate(-14.177 -25.665)" fill="none" stroke="#202020" stroke-linecap="round" stroke-linejoin="round" stroke-width="1"/>
        <path id="Trazado_890673" data-name="Trazado 890673" d="M125.4,224.133a.346.346,0,1,0,.346-.346A.346.346,0,0,0,125.4,224.133Z" transform="translate(-14.487 -25.853)" fill="none" stroke="#202020" stroke-linecap="round" stroke-linejoin="round" stroke-width="1"/>
        <path id="Trazado_890674" data-name="Trazado 890674" d="M123.841,224.133a.346.346,0,1,0,.346-.346A.346.346,0,0,0,123.841,224.133Z" transform="translate(-14.307 -25.853)" fill="none" stroke="#202020" stroke-linecap="round" stroke-linejoin="round" stroke-width="1"/>
        <path id="Trazado_890675" data-name="Trazado 890675" d="M129.017,223.768s2.415-.4,2.443,0a4.945,4.945,0,0,1,0,.7s-2.151.071-2.4,0" transform="translate(-14.905 -25.83)" fill="none" stroke="#202020" stroke-linecap="round" stroke-linejoin="round" stroke-width="1"/>
        <path id="Trazado_890676" data-name="Trazado 890676" d="M115.922,143.835a125.067,125.067,0,0,0-4.575-15.41c-5.463-14.4-21.02-83.632-24.274-106.4-1.626-11.383.814-16.591,3.659-18.953S99.309.684,99.309.684,126.423.5,131.755.732c0,0,4.909-.019,7.5,2.343s4.356,7.646,2.875,19.029c-2.961,22.766-17.122,91.77-21.648,106.321-4.12,13.245-4.859,17.11-4.859,17.11s-2.918,13.632-2.763,19.6c0,0,2.827-9.935,4.764-13.939C129.787,126.05,157.4,63.843,157.4,63.843L138.3,47.751" transform="translate(-9.999 -0.071)" fill="none" stroke="#202020" stroke-linecap="round" stroke-linejoin="round" stroke-width="1"/>
        <path id="Trazado_890677" data-name="Trazado 890677" d="M77.715,56.851,66.654,52.763,68.513,22.1C79.2,16.986,84.252,6.765,84.252,6.765s3.542-5.347,8.576-5.539" transform="translate(-7.7 -0.142)" fill="none" stroke="#202020" stroke-linecap="round" stroke-linejoin="round" stroke-width="1"/>
        <path id="Trazado_890678" data-name="Trazado 890678" d="M89.722,53.908,68.756,70s30.2,62.259,43.674,87.349" transform="translate(-7.943 -6.228)" fill="none" stroke="#202020" stroke-linecap="round" stroke-linejoin="round" stroke-width="1"/>
        <path id="Trazado_890679" data-name="Trazado 890679" d="M155.417,56.851l10.072-4.088L163.8,22.1c-9.732-5.11-14.333-15.332-14.333-15.332s-2.637-4.491-7.514-5.539" transform="translate(-16.399 -0.142)" fill="none" stroke="#202020" stroke-linecap="round" stroke-linejoin="round" stroke-width="1"/>
        <path id="Trazado_890680" data-name="Trazado 890680" d="M86.593,14.946s8.383-4.249,28.672-3.786,27.258,2.556,27.258,2.556" transform="translate(-10.004 -1.285)" fill="none" stroke="#202020" stroke-linecap="round" stroke-linejoin="round" stroke-width="1"/>
        <path id="Trazado_890681" data-name="Trazado 890681" d="M87.577,8.871a108.1,108.1,0,0,1,16.305-2.9A117.733,117.733,0,0,1,141.84,7.753" transform="translate(-10.117 -0.601)" fill="none" stroke="#202020" stroke-linecap="round" stroke-linejoin="round" stroke-width="1"/>
        <line id="Línea_623" data-name="Línea 623" x1="0.732" y1="4.473" transform="translate(93.765 5.368)" fill="none" stroke="#202020" stroke-linecap="round" stroke-linejoin="round" stroke-width="1"/>
        <line id="Línea_624" data-name="Línea 624" x1="0.479" y2="4.919" transform="translate(115.987 4.922)" fill="none" stroke="#202020" stroke-linecap="round" stroke-linejoin="round" stroke-width="1"/>
        <line id="Línea_625" data-name="Línea 625" x1="0.67" y2="128.59" transform="translate(104.592 9.876)" fill="none" stroke="#202020" stroke-linecap="round" stroke-linejoin="round" stroke-width="1"/>
        <path id="Trazado_890682" data-name="Trazado 890682" d="M33.56,40.643a729.355,729.355,0,0,1,15.565,91.245c1.372,13.588,1.744,30.586,1.581,47.088" transform="translate(-3.877 -4.695)" fill="none" stroke="#202020" stroke-linecap="round" stroke-linejoin="round" stroke-width="1"/>
        <path id="Trazado_890683" data-name="Trazado 890683" d="M186.327,179.041c-.724-15.449-1.172-28.093-.96-33.191.7-16.726,8.6-79.915,18.585-105" transform="translate(-21.408 -4.719)" fill="none" stroke="#202020" stroke-linecap="round" stroke-linejoin="round" stroke-width="1"/>
        <path id="Trazado_890684" data-name="Trazado 890684" d="M52.006,216.778c-1.087,35.71-4,67.178-4,67.178s9.292,8.364,32.059,9.292,25.744-14.78,29.694-34.061" transform="translate(-5.546 -25.043)" fill="none" stroke="#202020" stroke-linecap="round" stroke-linejoin="round" stroke-width="1"/>
        <path id="Trazado_890685" data-name="Trazado 890685" d="M116.191,186.619s-3.483,61.795,4.066,79.915S133.15,291,153.593,289.8s28.575-6.543,29.039-8.4c.272-1.091-1.856-36.041-3.519-68.108" transform="translate(-13.33 -21.559)" fill="none" stroke="#202020" stroke-linecap="round" stroke-linejoin="round" stroke-width="1"/>
        <path id="Trazado_890686" data-name="Trazado 890686" d="M51.511,196.862l23.669,3.485s-.5,13.241-1.576,15.8-5.945,2.061-10.259,1.612-13.383-4.167-13.383-4.167Z" transform="translate(-5.772 -22.743)" fill="none" stroke="#202020" stroke-linecap="round" stroke-linejoin="round" stroke-width="1"/>
        <line id="Línea_626" data-name="Línea 626" x2="23.856" y2="3.063" transform="translate(45.396 177.824)" fill="none" stroke="#202020" stroke-linecap="round" stroke-linejoin="round" stroke-width="1"/>
        <path id="Trazado_890687" data-name="Trazado 890687" d="M68.755,124.37s3.252,39.749,0,66.337" transform="translate(-7.943 -14.368)" fill="none" stroke="#202020" stroke-linecap="round" stroke-linejoin="round" stroke-width="1"/>
        <path id="Trazado_890688" data-name="Trazado 890688" d="M184.924,196.862l-23.669,3.485s.5,13.241,1.575,15.8,5.945,2.061,10.259,1.612,13.383-4.167,13.383-4.167Z" transform="translate(-18.629 -22.743)" fill="none" stroke="#202020" stroke-linecap="round" stroke-linejoin="round" stroke-width="1"/>
        <line id="Línea_627" data-name="Línea 627" x1="23.856" y2="3.063" transform="translate(142.781 177.824)" fill="none" stroke="#202020" stroke-linecap="round" stroke-linejoin="round" stroke-width="1"/>
        <path id="Trazado_890689" data-name="Trazado 890689" d="M170.784,124.37s-3.252,39.749,0,66.337" transform="translate(-19.563 -14.368)" fill="none" stroke="#202020" stroke-linecap="round" stroke-linejoin="round" stroke-width="1"/>
        <line id="Línea_628" data-name="Línea 628" y2="21.847" transform="translate(104.708 236.985)" fill="none" stroke="#202020" stroke-linecap="round" stroke-linejoin="round" stroke-width="1"/>
        <path id="Trazado_890690" data-name="Trazado 890690" d="M109.171,292.37s1.159,1.075,17.552,0" transform="translate(-12.612 -33.776)" fill="none" stroke="#202020" stroke-linecap="round" stroke-linejoin="round" stroke-width="1"/>
      </g>
    </g>
  </g>
</svg>
