<svg id="Grupo_1100072" data-name="Grupo 1100072" xmlns="http://www.w3.org/2000/svg" xmlns:xlink="http://www.w3.org/1999/xlink" width="49.162" height="120.689" viewBox="0 0 49.162 120.689">
  <defs>
    <clipPath id="clip-path">
      <rect id="Rect치ngulo_401652" data-name="Rect치ngulo 401652" width="49.162" height="120.689" fill="none"/>
    </clipPath>
  </defs>
  <g id="Grupo_1100065" data-name="Grupo 1100065" clip-path="url(#clip-path)">
    <path id="Trazado_879317" data-name="Trazado 879317" d="M62.9,40.7h0c-.69-6.68-8.559-3.6-13.353-10.991a2.084,2.084,0,0,1-.334-1.143c.032-5.505.927-5.695-4.723-7.056a1.149,1.149,0,0,1-.849-1.206,1.122,1.122,0,0,1,.1-.463c4.858-10.708-10.02-11.009-5.43.205.911,2.227-5.368,1.777-5.368,3.952,0,5.314.058,5.083-.162,5.435C27.628,37.7,15.42,34.273,20.3,44.77c1.7,3.567,9.892,21.3,7.879,24.751-1.921,3.3-10.573,13.175-10.6,27.986a2.067,2.067,0,0,0,1.127,1.837c8.336,4.277,19.258,1.249,19.258,3.974v16.911c0,2.928-9.288-.595-11.45,4.429a4.527,4.527,0,0,0,4.224,6.228c23.9.039,24.41.681,24.787-2.175.733-5.541,1.964-6.567-9.4-7.343a2.066,2.066,0,0,1-1.925-2.054c-.082-23.069-3.253-15.408,13.289-18.159l-.037.184c2.226-.582,7.105-1.566,7.131-3.218.175-10.962-3.973-19.2-10.6-28.626-2.638-3.765,9.232-25.863,8.921-28.8" transform="translate(-15.427 -10.286)" fill="#dbb295" style="mix-blend-mode: multiply;isolation: isolate"/>
    <path id="Trazado_879318" data-name="Trazado 879318" d="M45.324,28.978h0c-.631-6.116-7.281-4.049-12.079-9.329a6.169,6.169,0,0,1-1.58-4.33c.118-4.03.322-4.308-4.752-5.53a1.149,1.149,0,0,1-.849-1.206,1.124,1.124,0,0,1,.1-.463c4.858-10.708-10.02-11.009-5.43.205.912,2.227-5.375,1.777-5.368,3.952.014,4.091.136,4.929-.4,5.8C10.04,26.107-2.088,22.709,2.719,33.05c1.7,3.567,9.892,21.3,7.879,24.751C8.652,61.141-.206,71.24,0,86.379a1.115,1.115,0,0,0,.576.952c8.4,4.707,19.805,1.483,19.805,4.268v16.911c0,3.348-12.147-1.739-11.892,7.166a3.6,3.6,0,0,0,3.6,3.49c24.953.021,25.474.724,25.857-2.174.751-5.68,2.026-6.616-10.282-7.4a1.113,1.113,0,0,1-1.041-1.11c0-24.149-3.463-16.259,13.288-19.044l-.037.184C42.1,89.037,46.978,88.054,47,86.4c.175-10.962-3.973-19.2-10.6-28.626-2.638-3.765,9.232-25.863,8.921-28.8" transform="translate(0.001 0)" fill="#fff"/>
    <path id="Trazado_879319" data-name="Trazado 879319" d="M179.646,22.352v6.411h-1.424V22.58s-1.939-4.206-.536-5.639a1.8,1.8,0,0,1,1.337-.469,1.976,1.976,0,0,1,1.067.258c1.852,1.121-.444,5.622-.444,5.622" transform="translate(-155.49 -14.456)" fill="#bf926f"/>
    <path id="Trazado_879320" data-name="Trazado 879320" d="M194.853,24.2v3.791l-.191.274-.158-4.036a5,5,0,0,0,.365-.486,6.973,6.973,0,0,0,.494-5.012c-.021-.054-.042-.1-.067-.154,1.852,1.121-.444,5.622-.444,5.622" transform="translate(-170.696 -16.302)" fill="#996d4d"/>
    <path id="Trazado_879321" data-name="Trazado 879321" d="M178.567,25.745l-.158,4.036-.187-.27V25.944s-1.939-4.206-.536-5.639a7.02,7.02,0,0,0,.515,4.954,4.96,4.96,0,0,0,.365.486" transform="translate(-155.49 -17.82)" fill="#996d4d"/>
    <rect id="Rect치ngulo_401651" data-name="Rect치ngulo 401651" width="2.419" height="30.946" transform="translate(22.294 82.808)" fill="#bf926f"/>
    <path id="Trazado_879322" data-name="Trazado 879322" d="M85.7,915.494h24.47a.592.592,0,0,0,.587-.514l.453-3.423a.661.661,0,0,0-.54-.739A79.367,79.367,0,0,0,98.2,909.574a68.583,68.583,0,0,0-12.513,1.461.717.717,0,0,0-.572.7v3.179a.577.577,0,0,0,.577.577" transform="translate(-74.699 -798.239)" fill="#bf926f"/>
    <path id="Trazado_879323" data-name="Trazado 879323" d="M182.135,725.309a3.344,3.344,0,0,1,2.419,1.546v-2.806h-2.419Z" transform="translate(-159.841 -635.423)" fill="#996d4d"/>
    <path id="Trazado_879324" data-name="Trazado 879324" d="M58.6,167.55a12.285,12.285,0,0,1-3.633,1.262c-8.915,1.968-28.668,1.935-36.819-.2a10.016,10.016,0,0,1-2.761-1.067c-.295-9.808,4.31-18.577,10.273-27.061a3.713,3.713,0,0,0,.669-2.521c-.789-7.325-4.534-16.107-8.915-25.209-.029-.058-.054-.116-.079-.174a3.626,3.626,0,0,1,2.309-4.879c5.016-1.424,8.878-3.986,11.128-8.143V94.357a10.874,10.874,0,0,1,2.6-.934A15.617,15.617,0,0,1,37,93a15.2,15.2,0,0,1,4.825.764,8.807,8.807,0,0,1,1.4.59v5.207c2.251,4.156,6.112,6.718,11.128,8.143a3.62,3.62,0,0,1,2.234,5.053c-4.381,9.1-8.13,17.884-8.915,25.209a3.714,3.714,0,0,0,.669,2.521C54.292,148.972,58.9,157.742,58.6,167.55" transform="translate(-13.494 -81.619)" fill="#d1f1ff"/>
    <path id="Trazado_879325" data-name="Trazado 879325" d="M110.222,941.643H84.407a.1.1,0,1,1,0-.208h25.816a.1.1,0,1,1,0,.208" transform="translate(-73.984 -826.201)" fill="#996d4d"/>
    <path id="Trazado_879326" data-name="Trazado 879326" d="M44.3,103.907a12.79,12.79,0,0,1-6.61,6.013c-1.972.781-4.132,1.063-6.038,1.989a6.977,6.977,0,0,0-2.392,1.889,3.576,3.576,0,0,1,2.57-3.085c4.2-1.194,7.6-3.187,9.911-6.248a6.04,6.04,0,0,0,1.217-3.642v-3.46a10.877,10.877,0,0,1,2.6-.934,12.8,12.8,0,0,1-1.258,7.478" transform="translate(-25.677 -84.626)" fill="#a7c1cc"/>
    <path id="Trazado_879327" data-name="Trazado 879327" d="M23.756,288.089c-4.64,5.873-7.026,13.6-5.606,20.928a10.016,10.016,0,0,1-2.761-1.067c-.295-9.808,4.31-18.578,10.273-27.061a3.714,3.714,0,0,0,.669-2.52c-.789-7.325-4.534-16.107-8.915-25.209-.029-.058-.054-.116-.079-.174,5.618,5.693,8.634,12.875,10.319,20.7,1.047,4.86.349,9.031-3.9,14.409" transform="translate(-13.494 -222.019)" fill="#a7c1cc"/>
    <path id="Trazado_879328" data-name="Trazado 879328" d="M222.072,103.907a12.79,12.79,0,0,0,6.61,6.013c1.972.781,4.132,1.063,6.038,1.989a6.977,6.977,0,0,1,2.392,1.889,3.576,3.576,0,0,0-2.57-3.085c-4.5-1.277-8.067-3.469-10.379-6.9a4.5,4.5,0,0,1-.749-2.517V97.363a10.877,10.877,0,0,0-2.6-.934,12.8,12.8,0,0,0,1.258,7.478" transform="translate(-193.685 -84.626)" fill="#a7c1cc"/>
    <path id="Trazado_879329" data-name="Trazado 879329" d="M269.156,288.089c4.64,5.873,7.026,13.6,5.606,20.928a10.016,10.016,0,0,0,2.761-1.067c.295-9.808-4.31-18.578-10.273-27.061a3.714,3.714,0,0,1-.669-2.52c.789-7.325,4.534-16.107,8.915-25.209.029-.058.054-.116.079-.174-5.618,5.693-8.634,12.875-10.319,20.7-1.047,4.86-.349,9.031,3.9,14.409" transform="translate(-232.41 -222.019)" fill="#a7c1cc"/>
    <path id="Trazado_879330" data-name="Trazado 879330" d="M114.027,460.748h0c-1.816,0-10.873-.091-10.873-1.881a.208.208,0,1,1,.415,0c0,.062.089.621,3.154,1.049a55.983,55.983,0,0,0,7.3.416h0a55.984,55.984,0,0,0,7.3-.416c3.068-.427,3.157-.987,3.157-1.049a.208.208,0,1,1,.415,0c0,.417-.364,1.022-3.515,1.461a56.4,56.4,0,0,1-7.362.42" transform="translate(-90.524 -402.518)" fill="#a7c1cc"/>
    <path id="Trazado_879331" data-name="Trazado 879331" d="M105.419,350.408a.208.208,0,0,1-.208-.208c0-.014-.032-.074-.174-.156-2.633-1.52-24.192-1.52-26.824,0-.142.082-.174.141-.174.156a.208.208,0,1,1-.415,0,.624.624,0,0,1,.382-.515c1.533-.885,8.3-1.2,13.62-1.2s12.086.314,13.62,1.2a.623.623,0,0,1,.382.515.208.208,0,0,1-.208.208" transform="translate(-68.123 -305.83)" fill="#a7c1cc"/>
    <path id="Trazado_879332" data-name="Trazado 879332" d="M49.777,606.2a103.614,103.614,0,0,1-13.447-.762c-4.225-.585-6.278-1.4-6.278-2.487a.208.208,0,0,1,.415,0c0,.377.577,1.335,5.92,2.075a103.222,103.222,0,0,0,13.39.758,103.222,103.222,0,0,0,13.39-.758c5.343-.74,5.92-1.7,5.92-2.075a.208.208,0,0,1,.415,0c0,1.088-2.054,1.9-6.278,2.487a103.614,103.614,0,0,1-13.447.762" transform="translate(-26.374 -528.969)" fill="#a7c1cc"/>
    <path id="Trazado_879333" data-name="Trazado 879333" d="M69.693,238.227a.208.208,0,0,1-.208-.208c0-.081-.167-.808-5.935-1.352-3.545-.334-8.319-.518-13.441-.518H50.1c-5.123,0-9.9.184-13.439.519-5.762.544-5.929,1.271-5.929,1.352a.208.208,0,1,1-.415,0c0-.32,0-1.17,6.3-1.765,3.556-.336,8.343-.521,13.478-.521h.009c5.135,0,9.922.185,13.48.52,6.311.6,6.312,1.446,6.312,1.766a.208.208,0,0,1-.208.208" transform="translate(-26.606 -206.878)" fill="#a7c1cc"/>
    <path id="Trazado_879334" data-name="Trazado 879334" d="M235.853,172.182h0a.208.208,0,0,1-.2-.212c.195-9.051-2.349-19.526-6.979-28.738a5.083,5.083,0,0,1-.5-2.63c.581-7.581,3.414-16.621,6.389-25.26.654-1.9-.065-4.231-1.479-4.793-4.672-1.854-7.318-4.567-8.088-8.294a45.946,45.946,0,0,1-.233-6.029.208.208,0,0,1,.208-.2h0a.208.208,0,0,1,.2.211,46.915,46.915,0,0,0,.224,5.938c.74,3.579,3.3,6.193,7.835,7.992,1.632.649,2.451,3.181,1.718,5.314-2.966,8.613-5.79,17.622-6.368,25.157a4.66,4.66,0,0,0,.457,2.412c4.659,9.271,7.219,19.817,7.023,28.933a.207.207,0,0,1-.207.2" transform="translate(-197.237 -84.269)" fill="#a7c1cc"/>
    <path id="Trazado_879335" data-name="Trazado 879335" d="M65.944,172.182a.207.207,0,0,1-.207-.2c-.193-8.964,2.414-19.51,7.153-28.933a4.661,4.661,0,0,0,.457-2.411c-.582-7.546-3.4-16.55-6.368-25.157-.736-2.132.081-4.665,1.715-5.314,4.531-1.8,7.094-4.412,7.835-7.992a47.067,47.067,0,0,0,.229-5.938.208.208,0,0,1,.2-.211h0a.208.208,0,0,1,.207.2,46.09,46.09,0,0,1-.238,6.029c-.772,3.727-3.418,6.44-8.089,8.293-1.415.562-2.132,2.891-1.476,4.793,2.973,8.633,5.8,17.668,6.389,25.26a5.081,5.081,0,0,1-.5,2.629c-4.709,9.365-7.3,19.84-7.109,28.738a.207.207,0,0,1-.2.212h0" transform="translate(-57.681 -84.269)" fill="#a7c1cc"/>
    <path id="Trazado_879336" data-name="Trazado 879336" d="M207.013,169.375h0a.208.208,0,0,1-.206-.209,166.786,166.786,0,0,0-2.6-29.61,12.536,12.536,0,0,1-.181-2.564c.215-7.567,1.266-16.6,2.37-25.229.272-2.134-.066-4.379-.539-4.885-1.742-1.862-2.727-4.567-3.011-8.268-.112-1.458-.089-6.3-.088-6.505a.208.208,0,0,1,.208-.207h0a.208.208,0,0,1,.206.209c0,.05-.023,5.031.087,6.471.277,3.6,1.225,6.226,2.9,8.017.681.729.888,3.337.648,5.221-1.1,8.621-2.152,17.639-2.367,25.188a12.122,12.122,0,0,0,.174,2.477,167.2,167.2,0,0,1,2.606,29.689.208.208,0,0,1-.208.206" transform="translate(-177.935 -80.648)" fill="#a7c1cc"/>
    <path id="Trazado_879337" data-name="Trazado 879337" d="M143.883,169.435a.208.208,0,0,1-.208-.206,167.177,167.177,0,0,1,2.659-29.694,12.116,12.116,0,0,0,.174-2.477c-.216-7.56-1.265-16.574-2.366-25.188-.241-1.884-.035-4.492.647-5.221,1.674-1.79,2.623-4.412,2.9-8.017.111-1.441.089-6.414.089-6.464a.208.208,0,0,1,.207-.209h0a.208.208,0,0,1,.208.207c0,.205.022,5.04-.09,6.5-.285,3.7-1.27,6.407-3.011,8.269-.473.507-.811,2.751-.538,4.885,1.1,8.625,2.153,17.651,2.37,25.229a12.54,12.54,0,0,1-.181,2.565,166.731,166.731,0,0,0-2.652,29.615.208.208,0,0,1-.206.209Z" transform="translate(-126.086 -80.703)" fill="#a7c1cc"/>
  </g>
</svg>
