<svg id="Grupo_1100071" data-name="Grupo 1100071" xmlns="http://www.w3.org/2000/svg" xmlns:xlink="http://www.w3.org/1999/xlink" width="64.085" height="77.784" viewBox="0 0 64.085 77.784">
  <defs>
    <clipPath id="clip-path">
      <rect id="Rectángulo_401653" data-name="Rectángulo 401653" width="64.085" height="77.785" fill="none"/>
    </clipPath>
  </defs>
  <g id="Grupo_1100069" data-name="Grupo 1100069" clip-path="url(#clip-path)">
    <path id="Trazado_879338" data-name="Trazado 879338" d="M40.951,11.72c-30.817,0-31.117,45.923-1.145,45.923,30.218,0,28.411-45.923,1.145-45.923" transform="translate(-12.949 -8.633)" fill="#dbb295" style="mix-blend-mode: multiply;isolation: isolate"/>
    <path id="Trazado_879339" data-name="Trazado 879339" d="M23.372,0C-7.445,0-7.745,45.923,22.227,45.923,52.444,45.923,50.638,0,23.372,0" transform="translate(0)" fill="#fff"/>
    <path id="Trazado_879340" data-name="Trazado 879340" d="M49.087,26.852A21.359,21.359,0,0,0,37.845,14.02c-5.54-2.681-10.92-1.037-16.174,1.832a19.344,19.344,0,0,0-7.515,7.274,19.607,19.607,0,0,0-.09,18.98,19.615,19.615,0,0,0,16.254,9.8,19.155,19.155,0,0,0,10.544-2.85c7.2-4.477,10.634-14.074,8.221-22.205m-22,6.666a1.445,1.445,0,0,1-2.029,0,1.434,1.434,0,1,1,2.029-2.028,1.446,1.446,0,0,1,0,2.028m4.468,4.468a1.431,1.431,0,1,1,0-2.02,1.429,1.429,0,0,1,0,2.02m.429-9.374a1.434,1.434,0,1,1-2.028-2.029,1.445,1.445,0,0,1,2.028,0,1.429,1.429,0,0,1,0,2.029m4.477,4.477a1.434,1.434,0,1,1,0-2.028,1.445,1.445,0,0,1,0,2.028" transform="translate(-8.59 -9.326)" fill="#f6a5b6"/>
    <path id="Trazado_879341" data-name="Trazado 879341" d="M45.976,61.969c-.117,0-.234,0-.352,0a13.754,13.754,0,0,1-11.568-20.59,13.77,13.77,0,0,1,5.382-5.21c3.116-1.7,7.249-3.383,11.6-1.284a15.315,15.315,0,0,1,8.018,9.166,14.364,14.364,0,0,1-5.878,15.878,13.761,13.761,0,0,1-7.2,2.044M34.638,41.708h0a13.084,13.084,0,0,0,11,19.586,13.079,13.079,0,0,0,7.178-1.939,13.674,13.674,0,0,0,5.59-15.118,14.634,14.634,0,0,0-7.667-8.753c-4.07-1.966-8.008-.355-10.983,1.268a13.106,13.106,0,0,0-5.122,4.955" transform="translate(-23.771 -24.973)" fill="#f0849b"/>
    <path id="Trazado_879342" data-name="Trazado 879342" d="M97.312,83.386a1.657,1.657,0,1,1,1.172-.485,1.644,1.644,0,0,1-1.172.485m0-2.868a1.211,1.211,0,1,0,.856.355,1.2,1.2,0,0,0-.856-.355" transform="translate(-70.458 -58.98)" fill="#f0849b"/>
    <path id="Trazado_879343" data-name="Trazado 879343" d="M78.71,101.989a1.658,1.658,0,1,1,1.172-.485,1.644,1.644,0,0,1-1.172.485m0-2.868a1.211,1.211,0,1,0,.856.355,1.2,1.2,0,0,0-.856-.355" transform="translate(-56.756 -72.683)" fill="#f0849b"/>
    <path id="Trazado_879344" data-name="Trazado 879344" d="M80.325,66.4a1.658,1.658,0,1,1,1.172-.485,1.645,1.645,0,0,1-1.172.485m0-2.868a1.211,1.211,0,1,0,.856.355,1.2,1.2,0,0,0-.856-.355" transform="translate(-57.946 -46.468)" fill="#f0849b"/>
    <path id="Trazado_879345" data-name="Trazado 879345" d="M61.722,85a1.657,1.657,0,1,1,1.172-.485A1.645,1.645,0,0,1,61.722,85m0-2.868a1.211,1.211,0,1,0,.856.355,1.2,1.2,0,0,0-.856-.355" transform="translate(-44.243 -60.17)" fill="#f0849b"/>
    <path id="Trazado_879346" data-name="Trazado 879346" d="M100.056,178.864c30.363,9.54,38.214-39.98,6.178-39.98-26.377,0-27.4,33.346-6.178,39.98" transform="translate(-62.752 -102.3)" fill="#dbb295" style="mix-blend-mode: multiply;isolation: isolate"/>
    <path id="Trazado_879347" data-name="Trazado 879347" d="M84.87,168.74c30.363,9.54,38.214-39.98,6.178-39.98-26.377,0-27.4,33.346-6.178,39.98" transform="translate(-51.567 -94.843)" fill="#fff"/>
    <path id="Trazado_879348" data-name="Trazado 879348" d="M116.325,151c-4.416-8.391-14.212-10.321-22.642-7.635a14.679,14.679,0,0,0-6.654,4.431,16.631,16.631,0,0,0-3.613,12.691,18.181,18.181,0,0,0,12.3,14.791,17.813,17.813,0,0,0,18.45-5.265A17.478,17.478,0,0,0,116.325,151M96.7,160.49a1.578,1.578,0,1,1,0-2.231,1.575,1.575,0,0,1,0,2.231m4.917,4.917a1.578,1.578,0,1,1,0-2.231,1.575,1.575,0,0,1,0,2.231m.471-10.313a1.578,1.578,0,1,1,0-2.231,1.575,1.575,0,0,1,0,2.231m4.925,4.925a1.577,1.577,0,1,1,0-2.231,1.574,1.574,0,0,1,0,2.231" transform="translate(-61.346 -104.77)" fill="#82b9c4"/>
    <path id="Trazado_879349" data-name="Trazado 879349" d="M108.116,180.612a14.269,14.269,0,0,1-4.268-.642,15.529,15.529,0,0,1-10.434-12.552,14.19,14.19,0,0,1,3.072-10.783,12.513,12.513,0,0,1,5.673-3.777c6.722-2.145,15.262-.969,19.19,6.491a14.788,14.788,0,0,1-1.838,16.152,15.143,15.143,0,0,1-11.4,5.111m.11-28.13a19.512,19.512,0,0,0-5.889.928,11.923,11.923,0,0,0-5.407,3.6,13.6,13.6,0,0,0-2.94,10.337,14.932,14.932,0,0,0,10.033,12.071,14.557,14.557,0,0,0,15.05-4.292,14.2,14.2,0,0,0,1.765-15.506c-2.686-5.1-7.64-7.137-12.612-7.137m-11.518,4.341h0Z" transform="translate(-68.727 -111.89)" fill="#6ba7b3"/>
    <path id="Trazado_879350" data-name="Trazado 879350" d="M163.911,202.157a1.867,1.867,0,1,1,1.32-.547h0a1.855,1.855,0,0,1-1.32.547m0-3.155a1.288,1.288,0,1,0,.91,2.2h0a1.288,1.288,0,0,0-.91-2.2" transform="translate(-119.359 -146.155)" fill="#6ba7b3"/>
    <path id="Trazado_879351" data-name="Trazado 879351" d="M143.446,222.622a1.867,1.867,0,1,1,1.32-.547,1.854,1.854,0,0,1-1.32.547m0-3.155a1.288,1.288,0,1,0,.91.377,1.278,1.278,0,0,0-.91-.377" transform="translate(-104.285 -161.23)" fill="#6ba7b3"/>
    <path id="Trazado_879352" data-name="Trazado 879352" d="M145.225,183.471a1.865,1.865,0,1,1,1.32-.546,1.863,1.863,0,0,1-1.32.546m0-3.153a1.287,1.287,0,1,0,.911.377,1.284,1.284,0,0,0-.911-.377" transform="translate(-105.597 -132.393)" fill="#6ba7b3"/>
    <path id="Trazado_879353" data-name="Trazado 879353" d="M124.758,203.934a1.866,1.866,0,1,1,1.32-.546,1.861,1.861,0,0,1-1.32.546m0-3.153a1.287,1.287,0,1,0,.911.377,1.283,1.283,0,0,0-.911-.377m1.115,2.4h0Z" transform="translate(-90.52 -147.465)" fill="#6ba7b3"/>
  </g>
</svg>
