<svg xmlns="http://www.w3.org/2000/svg" xmlns:xlink="http://www.w3.org/1999/xlink" width="75.537" height="75.785" viewBox="0 0 75.537 75.785">
  <defs>
    <clipPath id="clip-path">
      <path id="Trazado_878600" data-name="Trazado 878600" d="M866.5,129.845c-1.358-.3-2.719-.582-4.073-.9a11.131,11.131,0,0,0-7.316.765,32.8,32.8,0,0,0-6.669,4.333c-1.219.956-2.4,1.954-3.631,2.9a26.427,26.427,0,0,1-7.383,4.087c-6.905,2.432-11.818-1.3-14.35-5.808a14.814,14.814,0,0,1-1.765-8.965c.14-1.346-2.062-29.175-2.078-37.149-.026-12.772,8.271-34.9,65.809-15.361a7.542,7.542,0,0,1,6.014,6.712,22.782,22.782,0,0,1-.473,7.232c-.351,1.785-.819,3.546-1.029,5.359a20.3,20.3,0,0,0,1.782,10.491c.59,1.371,1.188,2.74,1.816,4.1,3.615,7.8.872,14.374-5.262,18.978a21.3,21.3,0,0,1-17.8,3.991c-1.2-.253-2.39-.525-3.585-.788l-.006.029" transform="translate(-639.258 1961.893)" fill="#2f5e34"/>
    </clipPath>
  </defs>
  <g id="Grupo_1114953" data-name="Grupo 1114953" transform="translate(-343.122 -10888.622)">
    <path id="Trazado_878599" data-name="Trazado 878599" d="M866.5,129.845c-1.358-.3-2.719-.582-4.073-.9a11.131,11.131,0,0,0-7.316.765,32.8,32.8,0,0,0-6.669,4.333c-1.219.956-2.4,1.954-3.631,2.9a26.427,26.427,0,0,1-7.383,4.087c-6.905,2.432-11.818-1.3-14.35-5.808a14.814,14.814,0,0,1-1.765-8.965c.536-5.157,2.256-9.762,6.488-13.124a19.473,19.473,0,0,1,4.936-2.711c1.646-.662,3.33-1.237,4.959-1.937,3.6-1.546,4.982-4.075,4.4-7.942a19.253,19.253,0,0,0-1.814-5.316,21.957,21.957,0,0,1-1.466-3.517,8.053,8.053,0,0,1,2.8-8.906,13.959,13.959,0,0,1,7.609-3.046,69.526,69.526,0,0,1,8.159-.184A36.2,36.2,0,0,0,872.28,76.5c1.774-.783,3.571-1.529,5.4-2.168a12.554,12.554,0,0,1,7.366-.589,7.542,7.542,0,0,1,6.014,6.712,22.782,22.782,0,0,1-.473,7.232c-.351,1.785-.819,3.546-1.029,5.359a20.3,20.3,0,0,0,1.782,10.491c.59,1.371,1.188,2.74,1.816,4.1,3.615,7.8.872,14.374-5.262,18.978a21.3,21.3,0,0,1-17.8,3.991c-1.2-.253-2.39-.525-3.585-.788l-.006.029" transform="translate(-476.116 10822.609)" fill="#2f5e34"/>
    <g id="Enmascarar_grupo_1098706" data-name="Enmascarar grupo 1098706" transform="translate(163.142 8860.717)" clip-path="url(#clip-path)">
      <g id="mockup-design_3977917" transform="translate(185.367 2033.142)">
        <g id="Grupo_1114717" data-name="Grupo 1114717" transform="translate(0.919 3.512)">
          <path id="Trazado_903627" data-name="Trazado 903627" d="M135.922,13.685V68.829a1.552,1.552,0,0,1-1.552,1.552h-35.9a1.552,1.552,0,0,1-1.552-1.552V13.685l10.847-3.592h17.306Z" transform="translate(-85.959 -10.093)" fill="#ffd15b"/>
          <path id="Trazado_903628" data-name="Trazado 903628" d="M305.96,10.093h-2.881l10.847,3.592V68.829a1.552,1.552,0,0,1-1.552,1.552h2.881a1.552,1.552,0,0,0,1.552-1.552V13.685Z" transform="translate(-266.844 -10.093)" fill="#ffc344"/>
          <path id="Trazado_903629" data-name="Trazado 903629" d="M202.71,10.094v.743a7.86,7.86,0,0,1-7.865,7.866H193.27a7.86,7.86,0,0,1-7.866-7.866v-.743Z" transform="translate(-163.594 -10.094)" fill="#739ad6"/>
          <path id="Trazado_903630" data-name="Trazado 903630" d="M251.457,10.094v.743a7.86,7.86,0,0,1-7.212,7.839c.215.018.433.027.653.027h1.575a7.86,7.86,0,0,0,7.865-7.866v-.743Z" transform="translate(-215.222 -10.094)" fill="#5a84c8"/>
          <g id="Grupo_1114716" data-name="Grupo 1114716" transform="translate(17.206 17.818)">
            <path id="Trazado_903631" data-name="Trazado 903631" d="M165.038,172.634h22.4v23.8h-22.4Z" transform="translate(-162.931 -170.527)" fill="#fcf3e3"/>
            <path id="Trazado_903632" data-name="Trazado 903632" d="M322.608,172.634h3.082v23.8h-3.082Z" transform="translate(-301.185 -170.527)" fill="#fee8c7"/>
            <path id="Trazado_903633" data-name="Trazado 903633" d="M151.256,159.66h-2.6a.808.808,0,0,1-.808-.808v-2.6a.808.808,0,0,1,.808-.808h2.6a.808.808,0,0,1,.808.808v2.6A.808.808,0,0,1,151.256,159.66Z" transform="translate(-147.85 -155.446)" fill="#df75a5"/>
            <path id="Trazado_903634" data-name="Trazado 903634" d="M160.554,155.447h-2.107a.808.808,0,0,1,.808.808v2.6a.808.808,0,0,1-.808.808h2.107a.808.808,0,0,0,.808-.808v-2.6a.808.808,0,0,0-.808-.808Z" transform="translate(-157.148 -155.447)" fill="#dd5790"/>
            <path id="Trazado_903635" data-name="Trazado 903635" d="M333.969,159.66h-2.6a.808.808,0,0,1-.808-.808v-2.6a.808.808,0,0,1,.808-.808h2.6a.808.808,0,0,1,.808.808v2.6A.808.808,0,0,1,333.969,159.66Z" transform="translate(-308.165 -155.446)" fill="#df75a5"/>
            <path id="Trazado_903636" data-name="Trazado 903636" d="M343.267,155.447H341.16a.808.808,0,0,1,.808.808v2.6a.808.808,0,0,1-.808.808h2.107a.808.808,0,0,0,.808-.808v-2.6a.808.808,0,0,0-.808-.808Z" transform="translate(-317.463 -155.447)" fill="#dd5790"/>
            <path id="Trazado_903637" data-name="Trazado 903637" d="M151.256,353.817h-2.6a.808.808,0,0,1-.808-.808v-2.6a.808.808,0,0,1,.808-.808h2.6a.808.808,0,0,1,.808.808v2.6A.808.808,0,0,1,151.256,353.817Z" transform="translate(-147.85 -325.802)" fill="#df75a5"/>
            <path id="Trazado_903638" data-name="Trazado 903638" d="M160.554,349.6h-2.107a.808.808,0,0,1,.808.808v2.6a.808.808,0,0,1-.808.808h2.107a.808.808,0,0,0,.808-.808v-2.6A.808.808,0,0,0,160.554,349.6Z" transform="translate(-157.148 -325.803)" fill="#dd5790"/>
            <path id="Trazado_903639" data-name="Trazado 903639" d="M333.969,353.817h-2.6a.808.808,0,0,1-.808-.808v-2.6a.808.808,0,0,1,.808-.808h2.6a.808.808,0,0,1,.808.808v2.6A.808.808,0,0,1,333.969,353.817Z" transform="translate(-308.165 -325.802)" fill="#df75a5"/>
            <path id="Trazado_903640" data-name="Trazado 903640" d="M343.267,349.6H341.16a.808.808,0,0,1,.808.808v2.6a.808.808,0,0,1-.808.808h2.107a.808.808,0,0,0,.808-.808v-2.6A.808.808,0,0,0,343.267,349.6Z" transform="translate(-317.463 -325.803)" fill="#dd5790"/>
          </g>
          <path id="Trazado_903641" data-name="Trazado 903641" d="M202.711,10.094v.743a7.832,7.832,0,0,1-.532,2.848H185.937a7.835,7.835,0,0,1-.532-2.848v-.743Z" transform="translate(-163.595 -10.094)" fill="#01c0fa"/>
          <path id="Trazado_903642" data-name="Trazado 903642" d="M299.269,10.094v.743a7.832,7.832,0,0,1-.532,2.848h2.881a7.834,7.834,0,0,0,.532-2.848v-.743Z" transform="translate(-263.034 -10.094)" fill="#08a9f1"/>
          <path id="Trazado_903643" data-name="Trazado 903643" d="M18.456,39.4l-2.592,1.226a11.586,11.586,0,0,0-6.339,7.884l-2,8.727a1.187,1.187,0,0,0,.867,1.416l10.065,2.531Z" transform="translate(-7.493 -35.806)" fill="#ffd15b"/>
          <path id="Trazado_903644" data-name="Trazado 903644" d="M73.712,40.624q-.146.069-.289.142V60.458l2.881.724V39.4Z" transform="translate(-65.341 -35.806)" fill="#ffc344"/>
          <path id="Trazado_903645" data-name="Trazado 903645" d="M415.064,39.4l2.592,1.226a11.586,11.586,0,0,1,6.339,7.884l2,8.727a1.187,1.187,0,0,1-.867,1.416l-10.065,2.531Z" transform="translate(-365.101 -35.806)" fill="#ffd15b"/>
          <path id="Trazado_903646" data-name="Trazado 903646" d="M426,57.233l-2-8.727a11.586,11.586,0,0,0-6.339-7.884L415.064,39.4v1.368a11.586,11.586,0,0,1,6.05,7.742l2,8.727a1.187,1.187,0,0,1-.867,1.416l-7.184,1.807v.724l10.065-2.531A1.187,1.187,0,0,0,426,57.233Z" transform="translate(-365.101 -35.805)" fill="#ffc344"/>
        </g>
        <g id="Grupo_1114718" data-name="Grupo 1114718" transform="translate(0 2.592)">
          <path id="Trazado_903647" data-name="Trazado 903647" d="M144.676,147.947h-2.6a1.729,1.729,0,0,0-1.727,1.727v2.6A1.838,1.838,0,0,0,142.457,154v.306a.919.919,0,1,0,1.839,0V154a1.866,1.866,0,0,0,2.107-2.107h.306a.919.919,0,1,0,0-1.839H146.4A1.844,1.844,0,0,0,144.676,147.947Zm-.112,4.214h-2.375v-2.375h2.375Z" transform="translate(-123.145 -130.128)"/>
          <path id="Trazado_903648" data-name="Trazado 903648" d="M275.643,166.972h1.226a.919.919,0,1,0,0-1.839h-1.226a.919.919,0,0,0,0,1.839Z" transform="translate(-241.046 -145.208)"/>
          <path id="Trazado_903649" data-name="Trazado 903649" d="M225.643,166.972h1.226a.919.919,0,1,0,0-1.839h-1.226a.919.919,0,1,0,0,1.839Z" transform="translate(-197.176 -145.208)"/>
          <path id="Trazado_903650" data-name="Trazado 903650" d="M140.35,337.845a1.729,1.729,0,0,0,1.727,1.727h2.6a1.838,1.838,0,0,0,1.727-2.107h.306a.919.919,0,1,0,0-1.839H146.4a1.866,1.866,0,0,0-2.107-2.107v-.28a.919.919,0,0,0-1.839,0v.28a1.844,1.844,0,0,0-2.107,1.727v2.6Zm1.839-2.486h2.375v2.375h-2.375Z" transform="translate(-123.145 -291.9)"/>
          <path id="Trazado_903651" data-name="Trazado 903651" d="M323.064,337.846a1.729,1.729,0,0,0,1.727,1.727h2.6a1.729,1.729,0,0,0,1.727-1.727v-2.6a1.838,1.838,0,0,0-2.107-1.727v-.28a.919.919,0,0,0-1.839,0v.28a1.844,1.844,0,0,0-2.107,1.727Zm1.839-2.486h2.375v2.375H324.9Z" transform="translate(-283.46 -291.9)"/>
          <path id="Trazado_903652" data-name="Trazado 903652" d="M275.643,361.13h1.226a.919.919,0,1,0,0-1.839h-1.226a.919.919,0,0,0,0,1.839Z" transform="translate(-241.046 -315.564)"/>
          <path id="Trazado_903653" data-name="Trazado 903653" d="M225.643,361.13h1.226a.919.919,0,1,0,0-1.839h-1.226a.919.919,0,1,0,0,1.839Z" transform="translate(-197.176 -315.564)"/>
          <path id="Trazado_903654" data-name="Trazado 903654" d="M158.457,282.321a.919.919,0,0,0-.919.919v1.226a.919.919,0,1,0,1.839,0V283.24A.919.919,0,0,0,158.457,282.321Z" transform="translate(-138.226 -248.03)"/>
          <path id="Trazado_903655" data-name="Trazado 903655" d="M159.377,233.24a.919.919,0,1,0-1.839,0v1.226a.919.919,0,1,0,1.839,0Z" transform="translate(-138.226 -204.159)"/>
          <path id="Trazado_903656" data-name="Trazado 903656" d="M342.09,233.24a.919.919,0,0,0-1.839,0v1.226a.919.919,0,0,0,1.839,0Z" transform="translate(-298.541 -204.159)"/>
          <path id="Trazado_903657" data-name="Trazado 903657" d="M341.17,282.321a.919.919,0,0,0-.919.919v1.226a.919.919,0,1,0,1.839,0V283.24A.919.919,0,0,0,341.17,282.321Z" transform="translate(-298.541 -248.03)"/>
          <path id="Trazado_903658" data-name="Trazado 903658" d="M327.009,154a1.844,1.844,0,0,0,2.107-1.727v-2.6a1.729,1.729,0,0,0-1.727-1.727h-2.6a1.729,1.729,0,0,0-1.727,1.727v2.6A1.838,1.838,0,0,0,325.17,154v.306a.919.919,0,1,0,1.839,0Zm-2.107-4.214h2.375v2.375H324.9Z" transform="translate(-283.46 -130.128)"/>
          <path id="Trazado_903659" data-name="Trazado 903659" d="M62.71,24.735l-2-8.727A12.434,12.434,0,0,0,53.867,7.5c-.089-.035-2.558-1.223-2.7-1.268L40.324,2.639a1.06,1.06,0,0,0-.289-.047H22.729a1.02,1.02,0,0,0-.289.047L11.593,6.231C6.26,8.418,3.287,11.047,2.054,16.008l-2,8.727a2.118,2.118,0,0,0,1.539,2.514l9.37,2.356V53.652a.919.919,0,0,0,1.839,0V7.768l9.025-2.989a8.812,8.812,0,0,0,8.768,8.262h1.575a8.8,8.8,0,0,0,8.767-8.262l9.026,2.989v54.48a.634.634,0,0,1-.633.633h-35.9a.634.634,0,0,1-.633-.633V57.985a.919.919,0,0,0-1.839,0v4.262a2.475,2.475,0,0,0,2.472,2.472h35.9A2.475,2.475,0,0,0,51.8,62.248V8.556a11.072,11.072,0,0,1,7.115,7.863l2,8.727a.269.269,0,0,1-.2.319L55.25,26.841a.919.919,0,1,0,.449,1.783l5.473-1.376a2.118,2.118,0,0,0,1.539-2.514Zm-60.67.731a.269.269,0,0,1-.2-.319l2-8.727a11.159,11.159,0,0,1,7.115-7.863V27.709ZM32.17,11.2H30.594A6.964,6.964,0,0,1,23.65,4.431H39.113a6.363,6.363,0,0,1-.269,1.753H27.737a.919.919,0,1,0,0,1.839H38.009A6.9,6.9,0,0,1,32.17,11.2Z" transform="translate(0 -2.592)"/>
        </g>
      </g>
    </g>
  </g>
</svg>
