<svg xmlns="http://www.w3.org/2000/svg" xmlns:xlink="http://www.w3.org/1999/xlink" width="525" height="338" viewBox="0 0 525 338">
  <defs>
    <clipPath id="clip-path">
      <rect id="Rect치ngulo_407771" data-name="Rect치ngulo 407771" width="451" height="212.187" fill="none"/>
    </clipPath>
  </defs>
  <g id="Grupo_1114944" data-name="Grupo 1114944" transform="translate(-265.051 -1547)">
    <g id="Rect치ngulo_407551" data-name="Rect치ngulo 407551" transform="translate(265.051 1547)" fill="#ebefeb" stroke="#2f5e34" stroke-width="2">
      <rect width="525" height="338" rx="20" stroke="none"/>
      <rect x="1" y="1" width="523" height="336" rx="19" fill="none"/>
    </g>
    <g id="Grupo_1114625" data-name="Grupo 1114625" transform="translate(304.051 1618.438)">
      <g id="Grupo_1114624" data-name="Grupo 1114624" clip-path="url(#clip-path)">
        <path id="Trazado_901105" data-name="Trazado 901105" d="M182.864,35.214a1.017,1.017,0,0,0-.088-.061.852.852,0,0,0-.078-.058c-15.868-9.519-38.012-19.544-41.065-20.914C138.579,9.211,131.3,1.725,130.979,1.4c-.022-.024-.046-.043-.069-.064a.248.248,0,0,0-.02-.017,1.2,1.2,0,0,0-.172-.122l-.03-.017a1.1,1.1,0,0,0-.2-.086.192.192,0,0,0-.029-.009,1.293,1.293,0,0,0-.218-.048l-.011,0A251,251,0,0,0,105.037,0a251.017,251.017,0,0,0-25.2,1.034l-.011,0a1.18,1.18,0,0,0-.218.047l-.03.01a1.175,1.175,0,0,0-.195.086l-.031.019a1.151,1.151,0,0,0-.171.12l-.02.017c-.024.021-.047.041-.069.064-.316.324-7.6,7.81-10.654,12.78-3.053,1.37-25.2,11.4-41.065,20.914-.029.017-.052.04-.079.058s-.06.037-.087.061c-6.391,5.448-12.116,23.718-17.013,54.3C5.5,118.805,1.979,157.3,0,200.832a1.236,1.236,0,0,0,1.073,1.281L26,205.4a1.207,1.207,0,0,0,.162.011,1.235,1.235,0,0,0,1.215-1.017L43.164,116.7c-.5,39.562-2.8,80.169-2.83,80.624a1.232,1.232,0,0,0,.606,1.135c.239.141,6,3.5,16.817,6.893,18.018,5.649,35.655,6.835,47.279,6.835a159.114,159.114,0,0,0,47.278-6.835c10.82-3.392,16.578-6.752,16.817-6.893a1.232,1.232,0,0,0,.606-1.135c-.026-.455-2.329-41.062-2.83-80.624L182.7,204.393a1.235,1.235,0,0,0,1.214,1.017,1.211,1.211,0,0,0,.164-.011L209,202.113a1.237,1.237,0,0,0,1.073-1.281c-1.978-43.535-5.5-82.026-10.195-111.314-4.9-30.586-10.623-48.856-17.013-54.3m14.573,54.694c4.065,25.374,7.251,57.7,9.312,94.24l-24.438,4.16-15.5-86.082A142.386,142.386,0,0,1,174.948,54.2a98.184,98.184,0,0,1,7.35-16.067c5.412,6.169,10.752,24.384,15.139,51.778m-92.4-70a80.049,80.049,0,0,1-9.83-5.521h19.662a79.938,79.938,0,0,1-9.832,5.521M130.2,4.161A93.346,93.346,0,0,1,139.292,15.1c-2.238,3.085-11.948,16.209-20.271,23.367l-12.1-16.708c4.021-1.926,15.713-8.062,23.28-17.6m-2.475-.877a53.987,53.987,0,0,1-9.317,8.629H91.666a54.038,54.038,0,0,1-9.318-8.629c3.6-.3,11.441-.812,22.69-.812s19.089.515,22.687.812m-47.851.877c7.567,9.534,19.258,15.67,23.28,17.6l-12.1,16.708C82.729,31.307,73.019,18.184,70.78,15.1A93.468,93.468,0,0,1,79.874,4.161M12.635,89.908c4.388-27.393,9.727-45.609,15.14-51.778A98.184,98.184,0,0,1,35.125,54.2a142.386,142.386,0,0,1,8.134,48.028l-15.5,86.082-24.438-4.16c2.061-36.542,5.247-68.865,9.311-94.24m12.52,112.886L2.522,199.81q.307-6.672.665-13.178l24.138,4.109Zm17.689-6.106c.365-6.6,2.887-53.8,2.887-94.356v-.03h0a144.783,144.783,0,0,0-8.316-49.039,98.134,98.134,0,0,0-7.686-16.692c14.887-8.8,34.7-17.865,39.154-19.879C71.458,20.251,81.744,34.121,90.5,41.223a1.244,1.244,0,0,0,.779.275,1.445,1.445,0,0,0,.162-.01,1.234,1.234,0,0,0,.838-.5L103.8,25.075V209.71a156.216,156.216,0,0,1-45.207-6.686,93.59,93.59,0,0,1-15.75-6.335m108.636,6.335a158.419,158.419,0,0,1-45.207,6.687V25.075L117.8,40.987a1.234,1.234,0,0,0,.838.5,1.427,1.427,0,0,0,.162.01,1.244,1.244,0,0,0,.779-.275c8.753-7.1,19.037-20.972,21.615-24.531,4.456,2.014,24.267,11.083,39.154,19.879a98.135,98.135,0,0,0-7.686,16.692,144.783,144.783,0,0,0-8.316,49.039h0v.03c0,40.555,2.522,87.759,2.887,94.356a93.638,93.638,0,0,1-15.75,6.335m33.439-.229-2.17-12.054,24.138-4.109q.355,6.506.665,13.178Z" transform="translate(0 0)"/>
        <path id="Trazado_901106" data-name="Trazado 901106" d="M92.3,38.522a2,2,0,1,0,2,2,2.005,2.005,0,0,0-2-2" transform="translate(21.667 9.243)"/>
        <path id="Trazado_901107" data-name="Trazado 901107" d="M92.3,60.407a2,2,0,1,0,2,2,2.005,2.005,0,0,0-2-2" transform="translate(21.667 14.495)"/>
        <path id="Trazado_901108" data-name="Trazado 901108" d="M92.3,82.292a2,2,0,1,0,2,2,2.005,2.005,0,0,0-2-2" transform="translate(21.667 19.746)"/>
        <path id="Trazado_901109" data-name="Trazado 901109" d="M92.3,104.177a2,2,0,1,0,2,2,2.005,2.005,0,0,0-2-2" transform="translate(21.667 24.997)"/>
        <path id="Trazado_901110" data-name="Trazado 901110" d="M92.3,126.062a2.005,2.005,0,1,0,2,2.005,2.005,2.005,0,0,0-2-2.005" transform="translate(21.667 30.248)"/>
        <path id="Trazado_901111" data-name="Trazado 901111" d="M92.3,147.947a2,2,0,1,0,2,2,2.005,2.005,0,0,0-2-2" transform="translate(21.667 35.5)"/>
        <path id="Trazado_901112" data-name="Trazado 901112" d="M280.465,38.522a2,2,0,1,0,2.005,2,2.005,2.005,0,0,0-2.005-2" transform="translate(66.816 9.243)"/>
        <path id="Trazado_901113" data-name="Trazado 901113" d="M280.465,60.407a2,2,0,1,0,2.005,2,2.005,2.005,0,0,0-2.005-2" transform="translate(66.816 14.495)"/>
        <path id="Trazado_901114" data-name="Trazado 901114" d="M280.465,82.292a2,2,0,1,0,2.005,2,2.005,2.005,0,0,0-2.005-2" transform="translate(66.816 19.746)"/>
        <path id="Trazado_901115" data-name="Trazado 901115" d="M280.465,104.177a2,2,0,1,0,2.005,2,2.005,2.005,0,0,0-2.005-2" transform="translate(66.816 24.997)"/>
        <path id="Trazado_901116" data-name="Trazado 901116" d="M280.465,126.062a2.005,2.005,0,1,0,2.005,2.005,2.005,2.005,0,0,0-2.005-2.005" transform="translate(66.816 30.248)"/>
        <path id="Trazado_901117" data-name="Trazado 901117" d="M280.465,147.947a2,2,0,1,0,2.005,2,2.005,2.005,0,0,0-2.005-2" transform="translate(66.816 35.5)"/>
        <path id="Trazado_901118" data-name="Trazado 901118" d="M290.125,47.569a1.235,1.235,0,0,0-1.236,1.235V74.667a1.237,1.237,0,0,0,.572,1.043l14.06,8.965a1.236,1.236,0,0,0,1.328,0l14.06-8.965a1.237,1.237,0,0,0,.572-1.043V48.8a1.235,1.235,0,0,0-1.235-1.235ZM317.009,73.99l-12.824,8.177L291.36,73.99V50.04h25.648Z" transform="translate(69.318 11.414)"/>
        <path id="Trazado_901119" data-name="Trazado 901119" d="M182.715,99.945l43.995,21.331a1.227,1.227,0,0,0,.539.124,1.232,1.232,0,0,0,1.152-.791l4.471-11.585c-.265,41.8-2.875,87.817-2.9,88.3a1.233,1.233,0,0,0,.606,1.136c.239.141,6,3.5,16.817,6.893,18.018,5.649,35.655,6.835,47.278,6.835a159.107,159.107,0,0,0,47.278-6.835c10.821-3.392,16.579-6.752,16.819-6.893a1.235,1.235,0,0,0,.606-1.136c-.027-.484-2.637-46.5-2.9-88.3l4.471,11.585a1.236,1.236,0,0,0,1.693.667l43.995-21.331a1.237,1.237,0,0,0,.572-1.654c-1.141-2.339-27.976-57.231-34.667-63.045l-.035-.031c-.027-.024-.058-.04-.088-.061a.909.909,0,0,0-.078-.058c-15.868-9.519-38.012-19.544-41.065-20.914C328.214,9.211,320.931,1.723,320.614,1.4c-.022-.022-.046-.043-.071-.064l-.019-.016a1.109,1.109,0,0,0-.172-.122l-.03-.017a1.1,1.1,0,0,0-.2-.086l-.029-.01a1.178,1.178,0,0,0-.218-.047l-.011,0A251.017,251.017,0,0,0,294.671,0a251,251,0,0,0-25.2,1.034l-.011,0a1.179,1.179,0,0,0-.218.047l-.03.01a1.175,1.175,0,0,0-.195.086l-.031.017a1.365,1.365,0,0,0-.171.12l-.02.019c-.024.021-.047.041-.069.063-.316.324-7.6,7.812-10.654,12.781-3.053,1.37-25.2,11.4-41.065,20.914-.029.017-.053.04-.079.058s-.06.037-.087.061c-.011.009-.022.02-.033.03h0c-6.692,5.817-33.524,60.707-34.665,63.045a1.237,1.237,0,0,0,.572,1.654m34.721-61.768a98.272,98.272,0,0,1,7.323,16.02,142.338,142.338,0,0,1,8.134,47.909l-2.151,5.575L190.028,87.939c8.88-17.711,22.226-43.423,27.408-49.763m77.235-18.269a80.2,80.2,0,0,1-9.832-5.523H304.5a80.008,80.008,0,0,1-9.832,5.523m77.235,18.269c5.183,6.34,18.529,32.051,27.409,49.763L358.6,107.681l-2.151-5.575A142.342,142.342,0,0,1,364.583,54.2a98.488,98.488,0,0,1,7.323-16.02m-9.142,80.29-3.27-8.473L400.421,90.15c1.524,3.053,2.887,5.81,4.014,8.111Zm-.47-65.2a144.8,144.8,0,0,0-8.316,49.03h0v.038c0,40.555,2.523,87.759,2.887,94.356a93.559,93.559,0,0,1-15.749,6.335,158.419,158.419,0,0,1-45.207,6.687V25.075l11.525,15.912a1.228,1.228,0,0,0,.838.5,1.192,1.192,0,0,0,.162.011,1.237,1.237,0,0,0,.779-.277c8.753-7.1,19.037-20.971,21.615-24.53,4.456,2.012,24.267,11.083,39.154,19.879a98.035,98.035,0,0,0-7.686,16.692m-53.638-14.8-12.1-16.71c4.021-1.924,15.713-8.062,23.28-17.595A93.246,93.246,0,0,1,328.927,15.1c-2.238,3.085-11.948,16.209-20.271,23.367m8.7-35.181a53.987,53.987,0,0,1-9.317,8.629H281.3a54.076,54.076,0,0,1-9.317-8.629c3.6-.3,11.441-.812,22.689-.812s19.09.513,22.689.812m-47.851.877c7.567,9.533,19.258,15.67,23.28,17.595l-12.1,16.71c-8.323-7.158-18.033-20.282-20.272-23.368a93.447,93.447,0,0,1,9.094-10.936M258.517,16.692c2.577,3.559,12.862,17.429,21.615,24.53a1.238,1.238,0,0,0,.779.277,1.175,1.175,0,0,0,.161-.011,1.228,1.228,0,0,0,.839-.5l11.525-15.912V209.71a156.216,156.216,0,0,1-45.207-6.686,93.819,93.819,0,0,1-15.75-6.335c.365-6.6,2.887-53.8,2.887-94.356v-.038a144.8,144.8,0,0,0-8.316-49.031,98.132,98.132,0,0,0-7.686-16.692c14.887-8.8,34.7-17.866,39.154-19.879M188.922,90.15l40.927,19.843-3.27,8.474L184.908,98.261c1.127-2.3,2.49-5.058,4.014-8.111" transform="translate(43.675 0)"/>
      </g>
    </g>
  </g>
</svg>
