<svg id="Grupo_1114656" data-name="Grupo 1114656" xmlns="http://www.w3.org/2000/svg" xmlns:xlink="http://www.w3.org/1999/xlink" width="331.206" height="209.025" viewBox="0 0 331.206 209.025">
  <defs>
    <clipPath id="clip-path">
      <rect id="Rectángulo_407858" data-name="Rectángulo 407858" width="331.206" height="209.025" fill="none"/>
    </clipPath>
  </defs>
  <g id="Grupo_1114655" data-name="Grupo 1114655" clip-path="url(#clip-path)">
    <path id="Trazado_903192" data-name="Trazado 903192" d="M385.771,51.169h0a6.249,6.249,0,0,1-6.249-6.249V31.62h12.5v13.3a6.249,6.249,0,0,1-6.249,6.249" transform="translate(-92.734 -7.726)" fill="#f3a396"/>
    <path id="Trazado_903193" data-name="Trazado 903193" d="M399.26,22.885a2.088,2.088,0,0,1,2.587-.683c1.742.661.954,4.893-1.659,5.432a2.066,2.066,0,0,1-1.672-.437s.642-3.125.744-4.312" transform="translate(-97.375 -5.38)" fill="#f3a396"/>
    <path id="Trazado_903194" data-name="Trazado 903194" d="M374.76,22.885a2.088,2.088,0,0,0-2.587-.683c-1.742.661-.954,4.893,1.659,5.432A2.066,2.066,0,0,0,375.5,27.2s-.642-3.125-.744-4.312" transform="translate(-90.711 -5.38)" fill="#f3a396"/>
    <path id="Trazado_903195" data-name="Trazado 903195" d="M394.783,8.65a7.115,7.115,0,0,0-.175-1.363C394.1,5.433,392.894,2.816,388.6.864c-7.091-3.225-11.873,3.624-11.873,3.624-1.911-.2-2.946.529-3.361,2.25a15.707,15.707,0,0,0,.382,5.448l1.786,7.492v-.01a16.956,16.956,0,0,0,1.326,4.554c1.906,3.86,4.285,5.09,7.477,4.995a7.811,7.811,0,0,0,7.1-4.67,18.533,18.533,0,0,0,1.466-5.528v0l1.689-7.484a12.531,12.531,0,0,0,.186-2.887" transform="translate(-91.199 0)" fill="#1a1a1a"/>
    <path id="Trazado_903196" data-name="Trazado 903196" d="M399.366,133.032H364.955l1.127-17.448h31.783Z" transform="translate(-89.174 -28.242)" fill="#04162e"/>
    <path id="Trazado_903197" data-name="Trazado 903197" d="M364.623,135.91l-1.025,40.3a6.443,6.443,0,0,0,12.848.889l4.052-40.089a7.961,7.961,0,1,0-15.875-1.1" transform="translate(-88.842 -31.329)" fill="#04162e"/>
    <path id="Trazado_903198" data-name="Trazado 903198" d="M357.449,263.959s1.468-4.64-.248-5.413C354.745,257.442,355.171,261.39,357.449,263.959Z" transform="translate(-86.874 -63.128)" fill="none" stroke="#fff" stroke-linecap="round" stroke-linejoin="round" stroke-width="0.461"/>
    <path id="Trazado_903199" data-name="Trazado 903199" d="M358,265.034s3.731-3.126,5.1-1.833C365.054,265.05,361.242,266.161,358,265.034Z" transform="translate(-87.475 -64.235)" fill="none" stroke="#fff" stroke-linecap="round" stroke-linejoin="round" stroke-width="0.461"/>
    <path id="Trazado_903200" data-name="Trazado 903200" d="M363.017,257.836l.807-13.274,6.215.029-.793,13.25Z" transform="translate(-88.701 -59.757)" fill="#fff"/>
    <path id="Trazado_903201" data-name="Trazado 903201" d="M357.238,262.125l-7.763,4.227-4.369.854a4.609,4.609,0,0,0-3.706,4.1l-.088.953,23.55.107.046-10.2Z" transform="translate(-83.397 -64.049)" fill="#1a1a1a"/>
    <rect id="Rectángulo_407851" data-name="Rectángulo 407851" width="2.096" height="23.741" transform="translate(257.818 208.367) rotate(-89.741)" fill="#fff"/>
    <path id="Trazado_903202" data-name="Trazado 903202" d="M375.992,190.886l-5.124,46.682h-9.083l1.393-47.587a6.428,6.428,0,1,1,12.814.905" transform="translate(-88.4 -44.895)" fill="#04162e"/>
    <path id="Trazado_903203" data-name="Trazado 903203" d="M405.268,135.91l1.024,40.3a6.443,6.443,0,0,1-12.848.889l-4.051-40.089a7.961,7.961,0,1,1,15.875-1.1" transform="translate(-95.135 -31.329)" fill="#04162e"/>
    <path id="Trazado_903204" data-name="Trazado 903204" d="M415.6,263s-1.468-4.64.249-5.413C418.309,256.484,417.883,260.432,415.6,263Z" transform="translate(-101.408 -62.894)" fill="none" stroke="#fff" stroke-linecap="round" stroke-linejoin="round" stroke-width="0.461"/>
    <path id="Trazado_903205" data-name="Trazado 903205" d="M414.041,264.076s-3.731-3.126-5.1-1.833C406.985,264.092,410.8,265.2,414.041,264.076Z" transform="translate(-99.792 -64.001)" fill="none" stroke="#fff" stroke-linecap="round" stroke-linejoin="round" stroke-width="0.461"/>
    <path id="Trazado_903206" data-name="Trazado 903206" d="M409.531,257.836l-.807-13.274-6.215.029.793,13.25Z" transform="translate(-98.35 -59.757)" fill="#fff"/>
    <path id="Trazado_903207" data-name="Trazado 903207" d="M409.95,262.125l7.763,4.227,4.369.854a4.61,4.61,0,0,1,3.707,4.1l.088.953-23.551.107-.046-10.2Z" transform="translate(-98.295 -64.049)" fill="#1a1a1a"/>
    <rect id="Rectángulo_407852" data-name="Rectángulo 407852" width="23.741" height="2.096" transform="translate(303.929 206.378) rotate(-0.259)" fill="#fff"/>
    <path id="Trazado_903208" data-name="Trazado 903208" d="M394.773,190.886l5.124,46.682h9.083l-1.393-47.587a6.428,6.428,0,1,0-12.814.905" transform="translate(-96.45 -44.895)" fill="#04162e"/>
    <path id="Trazado_903209" data-name="Trazado 903209" d="M354.943,59.552c-1.636,8.181-6,26.461-8.211,35.642A5.9,5.9,0,0,0,358.2,97.987l8.851-35.894a6.186,6.186,0,1,0-12.107-2.541" transform="translate(-84.681 -13.337)" fill="#007ddc"/>
    <path id="Trazado_903210" data-name="Trazado 903210" d="M341.79,154.373h0a2.761,2.761,0,0,1-2.148-3.261l1.428-6.731a2.761,2.761,0,0,1,5.409,1.114l-1.428,6.731a2.761,2.761,0,0,1-3.261,2.148" transform="translate(-82.975 -34.74)" fill="#f3a396"/>
    <path id="Trazado_903211" data-name="Trazado 903211" d="M345.7,156.037a3.971,3.971,0,0,0-1.3-1.851,2.294,2.294,0,0,0-1.849-2.772l-.919-.158A2.294,2.294,0,0,0,339.007,153l-.016.068a20.372,20.372,0,0,0-2.066,7.261c-.49,5.419,1.805,8.172,3.5,8.2,1.6.023,2.5-6.331,2.867-8.685l.994,2.393a.752.752,0,0,0,1.441-.195l.35-2.782a6.446,6.446,0,0,0-.379-3.224" transform="translate(-82.309 -36.95)" fill="#f3a396"/>
    <path id="Trazado_903212" data-name="Trazado 903212" d="M344.331,106.739l-7.545,30.829,11.46,3.13,7.68-31.527a5.923,5.923,0,1,0-11.594-2.432" transform="translate(-82.292 -24.918)" fill="#007ddc"/>
    <path id="Trazado_903213" data-name="Trazado 903213" d="M413.474,59.552c1.636,8.181,6,26.461,8.211,35.642a5.9,5.9,0,0,1-11.467,2.793l-8.851-35.894a6.186,6.186,0,1,1,12.107-2.541" transform="translate(-98.036 -13.337)" fill="#007ddc"/>
    <path id="Trazado_903214" data-name="Trazado 903214" d="M431.049,154.373h0a2.761,2.761,0,0,0,2.148-3.261l-1.428-6.731a2.761,2.761,0,0,0-5.409,1.114l1.428,6.731a2.761,2.761,0,0,0,3.261,2.148" transform="translate(-104.164 -34.74)" fill="#f3a396"/>
    <path id="Trazado_903215" data-name="Trazado 903215" d="M426.394,156.037a3.971,3.971,0,0,1,1.3-1.851,2.294,2.294,0,0,1,1.849-2.772l.919-.158A2.294,2.294,0,0,1,433.082,153l.016.068a20.372,20.372,0,0,1,2.066,7.261c.49,5.419-1.805,8.172-3.5,8.2-1.6.023-2.5-6.331-2.867-8.685l-.994,2.393a.752.752,0,0,1-1.441-.195l-.35-2.782a6.446,6.446,0,0,1,.379-3.224" transform="translate(-104.08 -36.95)" fill="#f3a396"/>
    <path id="Trazado_903216" data-name="Trazado 903216" d="M424.523,106.739l7.545,30.829-11.46,3.13-7.68-31.527a5.923,5.923,0,1,1,11.594-2.432" transform="translate(-100.863 -24.918)" fill="#007ddc"/>
    <path id="Trazado_903217" data-name="Trazado 903217" d="M387.857,47.888l-6.306.09-5.806-.085L363.3,53.209l2.374,45.834h31.9l2.374-45.834Z" transform="translate(-88.771 -11.701)" fill="#007ddc"/>
    <line id="Línea_792" data-name="Línea 792" x1="1.001" y1="19.463" transform="translate(275.197 54.319)" fill="none" stroke="#005f99" stroke-miterlimit="10" stroke-width="0.719"/>
    <line id="Línea_793" data-name="Línea 793" y1="19.463" x2="1.001" transform="translate(309.503 54.319)" fill="none" stroke="#005f99" stroke-miterlimit="10" stroke-width="0.719"/>
    <path id="Trazado_903218" data-name="Trazado 903218" d="M274.465,48.542h0a5.634,5.634,0,0,1-5.634-5.634v-15.3H280.1v15.3a5.634,5.634,0,0,1-5.634,5.634" transform="translate(-65.687 -6.747)" fill="#f3a396"/>
    <path id="Trazado_903219" data-name="Trazado 903219" d="M275.431,31.347s.573,7.024,6.207,9.065V35.418l-6.51-3.83" transform="translate(-67.226 -7.659)" fill="#1a1a1a"/>
    <path id="Trazado_903220" data-name="Trazado 903220" d="M287.23,8.2c-.5-1.848-1.668-4.455-5.847-6.4-6.9-3.213-10.539,3.611-10.539,3.611a3.942,3.942,0,0,0-4.292,2.241c-.83,1.677-.017,4.83.234,5.928l1.514,6.963,1.328-6.623c1.306-4.357,3.29-6.131,3.29-6.131l6.309-.512,3.227,8.822,4.488-3.451c.608-.549.512-2.128.459-3.09a7.244,7.244,0,0,0-.17-1.358" transform="translate(-65.041 -0.23)" fill="#1a1a1a"/>
    <path id="Trazado_903221" data-name="Trazado 903221" d="M283,31.459h0a8.381,8.381,0,0,1-8.381-8.381V7.923l7.737-.8c2.876,0,6.734,4.953,6.734,7.829V25.369a6.09,6.09,0,0,1-6.09,6.09" transform="translate(-67.101 -1.741)" fill="#f3a396"/>
    <path id="Trazado_903222" data-name="Trazado 903222" d="M292.453,20.848l2.75,4.688a.713.713,0,0,1-.585,1.12l-4.131,0Z" transform="translate(-70.979 -5.094)" fill="#f3a396"/>
    <path id="Trazado_903223" data-name="Trazado 903223" d="M288.748,7.629c-.159.078-5.288-2.012-5.288-2.012l-4.5,2.012,0,.01c-3.957,1.575-2.6,7.962-2.6,7.962a7.406,7.406,0,0,0,5.23-6.442c.719,1.392,4.715,4.189,8.109,4.093l.091-2.35a22.538,22.538,0,0,0-1.047-3.273" transform="translate(-67.473 -1.372)" fill="#1a1a1a"/>
    <path id="Trazado_903224" data-name="Trazado 903224" d="M277.106,13.441l-.525,8.5-3.434-2.022L274.458,14Z" transform="translate(-66.742 -3.284)" fill="#1a1a1a"/>
    <path id="Trazado_903225" data-name="Trazado 903225" d="M291.119,22.174a.847.847,0,1,1-.847-.847.847.847,0,0,1,.847.847" transform="translate(-70.719 -5.211)" fill="#1a1a1a"/>
    <path id="Trazado_903226" data-name="Trazado 903226" d="M290.951,19.231l.031-1.61L288,17.675a1.649,1.649,0,0,0-1.028.385l-1.727,1.449,2.516-.375Z" transform="translate(-69.697 -4.306)" fill="#1a1a1a"/>
    <path id="Trazado_903227" data-name="Trazado 903227" d="M291.684,29.846a5.257,5.257,0,0,1-1.017.414,5.788,5.788,0,0,1-1.035.206,4.648,4.648,0,0,1-2.062-.232.257.257,0,0,1,.123-.5l.01,0a3.954,3.954,0,0,0,1.764-.132,4.809,4.809,0,0,0,.815-.33,4.185,4.185,0,0,0,.705-.452.621.621,0,1,1,.8.948.7.7,0,0,1-.105.072" transform="translate(-70.224 -7.007)" fill="#1a1a1a"/>
    <line id="Línea_794" data-name="Línea 794" x2="1.95" transform="translate(219.884 23.929)" fill="none" stroke="#d26665" stroke-linecap="round" stroke-linejoin="round" stroke-width="0.495"/>
    <path id="Trazado_903228" data-name="Trazado 903228" d="M292.163,33.512a2.087,2.087,0,0,0,.859,0" transform="translate(-71.388 -8.188)" fill="none" stroke="#d26665" stroke-linecap="round" stroke-linejoin="round" stroke-width="0.371"/>
    <path id="Trazado_903229" data-name="Trazado 903229" d="M279.122,1.259a8.362,8.362,0,0,0-9.694,2.49c-2.3-.392-4.3,1.528-4.3,1.528-7.97,6.989,1.085,15.745,1.085,15.745v6.894c5.652,0,7.609-6.073,7.609-6.073L273.474,11.3l.046-.04,1.418-3.419,3.228-.638s7.155-3.655.955-5.946" transform="translate(-63.98 -0.156)" fill="#1a1a1a"/>
    <path id="Trazado_903230" data-name="Trazado 903230" d="M276.628,24.994a2.459,2.459,0,1,1-4.582,1.427,2.459,2.459,0,1,1,4.582-1.427" transform="translate(-66.432 -5.561)" fill="#f3a396"/>
    <path id="Trazado_903231" data-name="Trazado 903231" d="M274.356,25.075s1.454-.485,2.486,1.656" transform="translate(-67.037 -6.115)" fill="none" stroke="#d26665" stroke-linecap="round" stroke-linejoin="round" stroke-width="0.495"/>
    <path id="Trazado_903232" data-name="Trazado 903232" d="M276.423,25.9s-1.582.846-.537,2.118" transform="translate(-67.324 -6.328)" fill="none" stroke="#d26665" stroke-linecap="round" stroke-linejoin="round" stroke-width="0.495"/>
    <path id="Trazado_903233" data-name="Trazado 903233" d="M286.4,134.445l-1.678-18.492H263.439l2.392,17.719Z" transform="translate(-64.37 -28.333)" fill="#03101e"/>
    <path id="Trazado_903234" data-name="Trazado 903234" d="M276.71,178.057a7.162,7.162,0,0,0,9.053,5.821,7.334,7.334,0,0,0,5.169-7.489l-2.747-38.64a8.719,8.719,0,1,0-17.326,1.768Z" transform="translate(-66.158 -31.637)" fill="#03101e"/>
    <path id="Trazado_903235" data-name="Trazado 903235" d="M296.258,258.566l-.807-13.274-6.215.029.795,13.273Z" transform="translate(-70.673 -59.935)" fill="#fff"/>
    <path id="Trazado_903236" data-name="Trazado 903236" d="M296.458,262.855l7.763,4.227,4.369.854a4.61,4.61,0,0,1,3.707,4.1l.088.953-24.275.107.678-10.2Z" transform="translate(-70.398 -64.227)" fill="#1a1a1a"/>
    <path id="Trazado_903237" data-name="Trazado 903237" d="M303.29,263.73s-1.468-4.64.248-5.413C305.994,257.213,305.568,261.161,303.29,263.73Z" transform="translate(-73.964 -63.072)" fill="none" stroke="#fff" stroke-linecap="round" stroke-linejoin="round" stroke-width="0.461"/>
    <path id="Trazado_903238" data-name="Trazado 903238" d="M301.726,264.806s-3.731-3.126-5.1-1.833C294.669,264.822,298.482,265.933,301.726,264.806Z" transform="translate(-72.348 -64.179)" fill="none" stroke="#fff" stroke-linecap="round" stroke-linejoin="round" stroke-width="0.461"/>
    <rect id="Rectángulo_407853" data-name="Rectángulo 407853" width="24.465" height="2.096" transform="matrix(1, -0.004, 0.004, 1, 217.609, 206.929)" fill="#fff"/>
    <path id="Trazado_903239" data-name="Trazado 903239" d="M278.856,193.056l6.6,45.371h9.4l-1.947-46.686a7.066,7.066,0,1,0-14.051,1.315" transform="translate(-68.118 -45.196)" fill="#03101e"/>
    <path id="Trazado_903240" data-name="Trazado 903240" d="M262.711,115.954s-5.114,5.7.073,17.719l17.453.188,3.754-17.908Z" transform="translate(-63.642 -28.333)" fill="#04162e"/>
    <path id="Trazado_903241" data-name="Trazado 903241" d="M260.692,175.4a7.163,7.163,0,0,0,7.668,7.553,7.334,7.334,0,0,0,6.595-6.27l5.337-40.329a8.967,8.967,0,0,0-8.8-10.206c-5.652,0-8.379,5.708-8.631,10.331Z" transform="translate(-63.696 -30.823)" fill="#04162e"/>
    <path id="Trazado_903242" data-name="Trazado 903242" d="M264.254,258.566l1.365-13.274-6.215.029-1.377,13.273Z" transform="translate(-63.047 -59.935)" fill="#fff"/>
    <path id="Trazado_903243" data-name="Trazado 903243" d="M264.2,262.855l7.763,4.227,4.369.854a4.61,4.61,0,0,1,3.707,4.1l.088.953-24.274.107.678-10.2Z" transform="translate(-62.515 -64.227)" fill="#1a1a1a"/>
    <path id="Trazado_903244" data-name="Trazado 903244" d="M271.029,263.73s-1.468-4.64.248-5.413C273.733,257.213,273.307,261.161,271.029,263.73Z" transform="translate(-66.081 -63.072)" fill="none" stroke="#fff" stroke-linecap="round" stroke-linejoin="round" stroke-width="0.461"/>
    <path id="Trazado_903245" data-name="Trazado 903245" d="M269.465,264.806s-3.731-3.126-5.1-1.833C262.409,264.822,266.221,265.933,269.465,264.806Z" transform="translate(-64.466 -64.179)" fill="none" stroke="#fff" stroke-linecap="round" stroke-linejoin="round" stroke-width="0.461"/>
    <rect id="Rectángulo_407854" data-name="Rectángulo 407854" width="24.465" height="2.096" transform="translate(193.231 206.929) rotate(-0.251)" fill="#fff"/>
    <path id="Trazado_903246" data-name="Trazado 903246" d="M259.6,191.094l-2.927,47.21,9.389-.011,7.561-45.605a7.066,7.066,0,1,0-14.023-1.593" transform="translate(-62.716 -45.073)" fill="#04162e"/>
    <path id="Trazado_903247" data-name="Trazado 903247" d="M267.716,47.195s-5.42.988-8.2,8.33c-5.394,14.234,2.506,43.627,2.506,43.627H283.3s1.484-40.672-5.938-51.459Z" transform="translate(-62.95 -11.532)" fill="#007ddc"/>
    <path id="Trazado_903248" data-name="Trazado 903248" d="M281.31,49.6l-.929,3.048a1.394,1.394,0,0,1-1.624.648l-14.543-4.2a.658.658,0,0,1-.236-1.124l2.5-2.135a.623.623,0,0,1,.484-.146l13.232,1.64A1.527,1.527,0,0,1,281.31,49.6" transform="translate(-64.446 -11.163)" fill="#289de5"/>
    <path id="Trazado_903249" data-name="Trazado 903249" d="M292.138,155.781h0a2.761,2.761,0,0,0,2.237-3.2l-1.24-6.768a2.761,2.761,0,1,0-5.438.962l1.24,6.769a2.761,2.761,0,0,0,3.2,2.238" transform="translate(-70.287 -35.071)" fill="#f3a396"/>
    <path id="Trazado_903250" data-name="Trazado 903250" d="M287.4,157.334a3.972,3.972,0,0,1,1.346-1.815,2.3,2.3,0,0,1,1.926-2.72l.923-.132a2.3,2.3,0,0,1,2.576,1.821l.014.069a20.36,20.36,0,0,1,1.863,7.316c.339,5.43-2.032,8.118-3.724,8.1-1.6-.021-2.325-6.4-2.624-8.762l-1.061,2.364a.752.752,0,0,1-1.435-.235l-.272-2.79a6.445,6.445,0,0,1,.469-3.212" transform="translate(-70.101 -37.298)" fill="#f3a396"/>
    <path id="Trazado_903251" data-name="Trazado 903251" d="M275.192,110.993l6.824,31,11.665-2.244-7.01-31.682a5.923,5.923,0,1,0-11.478,2.93" transform="translate(-67.193 -25.302)" fill="#007ddc"/>
    <path id="Trazado_903252" data-name="Trazado 903252" d="M264.176,63.8c2.139,8.064,6.286,26.394,8.348,35.61a5.9,5.9,0,0,0,11.524-2.55l-7.886-36.119A6.185,6.185,0,1,0,264.176,63.8" transform="translate(-64.499 -13.69)" fill="#007ddc"/>
    <line id="Línea_795" data-name="Línea 795" x2="6.755" y2="30.808" transform="translate(213.38 54.914)" fill="none" stroke="#005f99" stroke-miterlimit="10" stroke-width="0.719"/>
    <line id="Línea_796" data-name="Línea 796" x1="8.53" y1="37.312" transform="translate(199.677 50.108)" fill="none" stroke="#005f99" stroke-miterlimit="10" stroke-width="0.719"/>
    <path id="Trazado_903253" data-name="Trazado 903253" d="M200.986,59.552c1.636,8.181,6,26.461,8.212,35.642a5.9,5.9,0,0,1-11.468,2.793l-8.85-35.894a6.185,6.185,0,1,1,12.106-2.541" transform="translate(-46.116 -13.337)" fill="#007ddc"/>
    <path id="Trazado_903254" data-name="Trazado 903254" d="M218.562,154.373h0a2.761,2.761,0,0,0,2.148-3.261l-1.428-6.731a2.761,2.761,0,0,0-5.409,1.114l1.428,6.731a2.761,2.761,0,0,0,3.261,2.148" transform="translate(-52.244 -34.74)" fill="#f3a396"/>
    <path id="Trazado_903255" data-name="Trazado 903255" d="M213.906,156.037a3.971,3.971,0,0,1,1.3-1.851,2.294,2.294,0,0,1,1.849-2.772l.919-.158A2.294,2.294,0,0,1,220.594,153l.016.068a20.373,20.373,0,0,1,2.066,7.261c.49,5.419-1.805,8.172-3.5,8.2-1.6.023-2.5-6.331-2.867-8.685l-.994,2.393a.752.752,0,0,1-1.441-.195l-.35-2.782a6.446,6.446,0,0,1,.379-3.224" transform="translate(-52.16 -36.95)" fill="#f3a396"/>
    <path id="Trazado_903256" data-name="Trazado 903256" d="M212.035,106.739l7.545,30.829-11.46,3.13-7.68-31.527a5.923,5.923,0,1,1,11.594-2.432" transform="translate(-48.943 -24.918)" fill="#007ddc"/>
    <path id="Trazado_903257" data-name="Trazado 903257" d="M177.252,47.894l-5.964.085-5.806-.085L154,53.147l1.42,45.9h31.9l.162-46.017Z" transform="translate(-37.628 -11.703)" fill="#007ddc"/>
    <line id="Línea_797" data-name="Línea 797" y2="43.136" transform="translate(136.086 44.311)" fill="none" stroke="#005f99" stroke-miterlimit="10" stroke-width="0.719"/>
    <path id="Trazado_903258" data-name="Trazado 903258" d="M178.124,64.664a.677.677,0,1,1-.678-.678.678.678,0,0,1,.678.678" transform="translate(-43.192 -15.635)" fill="#289de5"/>
    <path id="Trazado_903259" data-name="Trazado 903259" d="M178.124,75.284a.677.677,0,1,1-.678-.678.678.678,0,0,1,.678.678" transform="translate(-43.192 -18.229)" fill="#289de5"/>
    <path id="Trazado_903260" data-name="Trazado 903260" d="M178.124,85.9a.677.677,0,1,1-.678-.678.678.678,0,0,1,.678.678" transform="translate(-43.192 -20.824)" fill="#289de5"/>
    <path id="Trazado_903261" data-name="Trazado 903261" d="M178.124,96.523a.677.677,0,1,1-.678-.678.678.678,0,0,1,.678.678" transform="translate(-43.192 -23.419)" fill="#289de5"/>
    <path id="Trazado_903262" data-name="Trazado 903262" d="M178.124,107.143a.677.677,0,1,1-.678-.678.678.678,0,0,1,.678.678" transform="translate(-43.192 -26.014)" fill="#289de5"/>
    <line id="Línea_798" data-name="Línea 798" y1="22.896" transform="translate(149.791 54.362)" fill="none" stroke="#005f99" stroke-miterlimit="10" stroke-width="0.719"/>
    <path id="Trazado_903263" data-name="Trazado 903263" d="M145.33,59.552c-1.636,8.181-6,26.461-8.211,35.642a5.9,5.9,0,0,0,11.467,2.793l8.85-35.894a6.185,6.185,0,1,0-12.106-2.541" transform="translate(-33.464 -13.337)" fill="#007ddc"/>
    <line id="Línea_799" data-name="Línea 799" x1="5.415" y2="21.964" transform="translate(117.176 54.361)" fill="none" stroke="#005f99" stroke-miterlimit="10" stroke-width="0.719"/>
    <path id="Trazado_903264" data-name="Trazado 903264" d="M132.177,154.373h0a2.761,2.761,0,0,1-2.148-3.261l1.428-6.731a2.761,2.761,0,0,1,5.409,1.114l-1.428,6.731a2.761,2.761,0,0,1-3.261,2.148" transform="translate(-31.758 -34.74)" fill="#f3a396"/>
    <path id="Trazado_903265" data-name="Trazado 903265" d="M136.082,156.037a3.971,3.971,0,0,0-1.3-1.851,2.294,2.294,0,0,0-1.849-2.772l-.919-.158A2.294,2.294,0,0,0,129.394,153l-.016.068a20.372,20.372,0,0,0-2.066,7.261c-.49,5.419,1.805,8.172,3.5,8.2,1.6.023,2.5-6.331,2.867-8.685l.994,2.393a.752.752,0,0,0,1.441-.195l.35-2.782a6.446,6.446,0,0,0-.379-3.224" transform="translate(-31.091 -36.95)" fill="#f3a396"/>
    <path id="Trazado_903266" data-name="Trazado 903266" d="M134.718,106.739l-7.545,30.829,11.46,3.13,7.68-31.527a5.923,5.923,0,1,0-11.594-2.432" transform="translate(-31.074 -24.918)" fill="#007ddc"/>
    <path id="Trazado_903267" data-name="Trazado 903267" d="M189.054,133.032H155.446l.324-17.448h31.783Z" transform="translate(-37.982 -28.242)" fill="#04162e"/>
    <path id="Trazado_903268" data-name="Trazado 903268" d="M155.01,135.91l-1.024,40.3a6.443,6.443,0,0,0,12.848.889l4.051-40.089a7.961,7.961,0,1,0-15.875-1.1" transform="translate(-37.625 -31.329)" fill="#04162e"/>
    <path id="Trazado_903269" data-name="Trazado 903269" d="M153.4,257.836l.807-13.274,6.215.029-.985,13.25Z" transform="translate(-37.483 -59.757)" fill="#fff"/>
    <path id="Trazado_903270" data-name="Trazado 903270" d="M157.631,262.027h-7.077l-4.731,3.875a4.537,4.537,0,0,0-1.846,3.706v.832l15.9-.093v-2.111a4.717,4.717,0,0,0-.551-2.222Z" transform="translate(-35.18 -64.025)" fill="#1a1a1a"/>
    <path id="Trazado_903271" data-name="Trazado 903271" d="M143.541,275.186,160.1,275.1l-.009-2.157-16.562.087Z" transform="translate(-35.071 -66.692)" fill="#fff"/>
    <path id="Trazado_903272" data-name="Trazado 903272" d="M155.267,263.185s1.248-4.7,3.111-4.436C161.043,259.133,158.568,262.238,155.267,263.185Z" transform="translate(-37.938 -63.221)" fill="none" stroke="#fff" stroke-linecap="round" stroke-linejoin="round" stroke-width="0.461"/>
    <path id="Trazado_903273" data-name="Trazado 903273" d="M153.923,263.233s-1.474-4.639-3.321-4.281C147.958,259.464,150.58,262.446,153.923,263.233Z" transform="translate(-36.534 -63.269)" fill="none" stroke="#fff" stroke-linecap="round" stroke-linejoin="round" stroke-width="0.461"/>
    <path id="Trazado_903274" data-name="Trazado 903274" d="M166.379,190.886l-5.124,46.682h-9.083l1.393-47.587a6.428,6.428,0,1,1,12.814.905" transform="translate(-37.182 -44.895)" fill="#04162e"/>
    <path id="Trazado_903275" data-name="Trazado 903275" d="M194.7,135.91l1.748,40.3a6.443,6.443,0,0,1-12.848.889l-4.775-40.089a7.961,7.961,0,1,1,15.875-1.1" transform="translate(-43.683 -31.329)" fill="#04162e"/>
    <path id="Trazado_903276" data-name="Trazado 903276" d="M199.918,257.836l-.807-13.274-6.215.029.795,13.273Z" transform="translate(-47.133 -59.757)" fill="#fff"/>
    <path id="Trazado_903277" data-name="Trazado 903277" d="M200.337,262.125l7.763,4.227,4.369.854a4.609,4.609,0,0,1,3.706,4.1l.088.953-23.55.107-.046-10.2Z" transform="translate(-47.077 -64.049)" fill="#1a1a1a"/>
    <path id="Trazado_903278" data-name="Trazado 903278" d="M206.95,263s-1.468-4.64.248-5.413C209.654,256.484,209.228,260.432,206.95,263Z" transform="translate(-50.424 -62.894)" fill="none" stroke="#fff" stroke-linecap="round" stroke-linejoin="round" stroke-width="0.461"/>
    <path id="Trazado_903279" data-name="Trazado 903279" d="M205.386,264.076s-3.731-3.126-5.1-1.833C198.33,264.092,202.142,265.2,205.386,264.076Z" transform="translate(-48.808 -64.001)" fill="none" stroke="#fff" stroke-linecap="round" stroke-linejoin="round" stroke-width="0.461"/>
    <rect id="Rectángulo_407855" data-name="Rectángulo 407855" width="23.741" height="2.096" transform="translate(145.533 206.378) rotate(-0.259)" fill="#fff"/>
    <path id="Trazado_903280" data-name="Trazado 903280" d="M185.16,190.886l5.123,46.682h9.083l-1.393-47.587a6.428,6.428,0,1,0-12.814.905" transform="translate(-45.232 -44.895)" fill="#04162e"/>
    <path id="Trazado_903281" data-name="Trazado 903281" d="M187.118,46.022H184.13l1.063,2.522Z" transform="translate(-44.991 -11.245)" fill="#007ddc"/>
    <path id="Trazado_903282" data-name="Trazado 903282" d="M176.22,51.169h0a6.249,6.249,0,0,1-6.249-6.249V31.62h12.5v13.3a6.249,6.249,0,0,1-6.249,6.249" transform="translate(-41.531 -7.726)" fill="#f3a396"/>
    <path id="Trazado_903283" data-name="Trazado 903283" d="M169.971,32.8s3.019,7.232,7.746,7.18c6.093-.067,4.69-7.971,4.69-7.971s-2.356,5.022-6.083,5.027c-4.156.005-6.353-4.235-6.353-4.235" transform="translate(-41.531 -7.821)" fill="#1a1a1a"/>
    <path id="Trazado_903284" data-name="Trazado 903284" d="M164.263,57.411l6.652-7.7,5.21,6.166,4.532-6.52,6.979,8.052Z" transform="translate(-40.137 -12.061)" fill="#007ddc"/>
    <path id="Trazado_903285" data-name="Trazado 903285" d="M176.547,54.688l-3.75-5.214a6.977,6.977,0,0,0-2.039-2.186L169.2,46.209a1.064,1.064,0,0,0-1.118-.054l-1.573.877a.994.994,0,0,0-.511,1l.646,4.866a.6.6,0,0,0,1.019.325l3.441-3.482a.445.445,0,0,1,.676.053l4.767,5.762Z" transform="translate(-40.558 -11.245)" fill="#289de5"/>
    <path id="Trazado_903286" data-name="Trazado 903286" d="M179.961,54.689l5.908-8.481c.165-.234.172-.249.46-.054l1.285.876a1.072,1.072,0,0,1,.418,1l.2,4.866c-.052.481-.55.675-.833.325l-2.513-3.464a.325.325,0,0,0-.552.053l-4.368,5.747Z" transform="translate(-43.972 -11.244)" fill="#289de5"/>
    <path id="Trazado_903287" data-name="Trazado 903287" d="M185.45,7.287c-.5-1.854-1.675-4.471-5.868-6.423C172.652-2.361,169,4.488,169,4.488a3.955,3.955,0,0,0-4.308,2.25c-.833,1.683-.017,4.848.235,5.95l1.52,6.989,1.333-6.648c1.31-4.373,3.3-6.154,3.3-6.154l6.332-.515,6.715,12.681,1.307-7.5a12.741,12.741,0,0,0,.182-2.887,7.288,7.288,0,0,0-.171-1.363" transform="translate(-40.153 0)" fill="#1a1a1a"/>
    <path id="Trazado_903288" data-name="Trazado 903288" d="M188.751,22.885a2.087,2.087,0,0,1,2.587-.683c1.742.661.954,4.893-1.659,5.432a2.066,2.066,0,0,1-1.671-.437s.642-3.125.744-4.312" transform="translate(-45.938 -5.38)" fill="#e88e85"/>
    <path id="Trazado_903289" data-name="Trazado 903289" d="M166.269,22.833a2.312,2.312,0,0,0-2.686-.635c-1.723.71-.954,4.892,1.659,5.432a2.07,2.07,0,0,0,1.672-.437s-.543-3.174-.645-4.36" transform="translate(-39.745 -5.376)" fill="#f3a396"/>
    <path id="Trazado_903290" data-name="Trazado 903290" d="M164.339,24.222s1.459-.487,2.494,1.662" transform="translate(-40.155 -5.907)" fill="none" stroke="#d26665" stroke-linecap="round" stroke-linejoin="round" stroke-width="0.497"/>
    <path id="Trazado_903291" data-name="Trazado 903291" d="M166.413,25.045s-1.588.849-.539,2.126" transform="translate(-40.443 -6.12)" fill="none" stroke="#d26665" stroke-linecap="round" stroke-linejoin="round" stroke-width="0.497"/>
    <path id="Trazado_903292" data-name="Trazado 903292" d="M185.25,14.921c0,2.55-.249,7.888-1.818,11.054a7.811,7.811,0,0,1-7.1,4.67c-3.193.1-5.571-1.135-7.477-4.995s-1.815-10.682-1.815-10.682,0-9.112,9.006-9.112c9.486,0,9.2,9.065,9.2,9.065" transform="translate(-40.815 -1.431)" fill="#f3a396"/>
    <path id="Trazado_903293" data-name="Trazado 903293" d="M184.142,6.711c-.235.079-7.806-2.02-7.806-2.02l-6.645,2.02,0,.01c-5.841,1.58-3.267,7.112-3.267,7.112,3.666-1.412,3.674-3.765,4.13-5.586,1.063,1.4,5.859,3.942,10.868,3.846,5.129-.1,4.261-2.1,4.261-2.1s-1.31-3.363-1.545-3.285" transform="translate(-40.528 -1.146)" fill="#1a1a1a"/>
    <path id="Trazado_903294" data-name="Trazado 903294" d="M182.6,21.15v4.068a.691.691,0,0,1-.049.257.677.677,0,0,1-.809.376l-.7-.186" transform="translate(-44.235 -5.168)" fill="none" stroke="#d26665" stroke-linecap="round" stroke-linejoin="round" stroke-width="0.497"/>
    <path id="Trazado_903295" data-name="Trazado 903295" d="M177.363,21.31a.85.85,0,1,1-.85-.85.85.85,0,0,1,.85.85" transform="translate(-42.922 -4.999)" fill="#1a1a1a"/>
    <path id="Trazado_903296" data-name="Trazado 903296" d="M177.195,18.356l.031-1.616-3,.054a1.657,1.657,0,0,0-1.033.386l-1.733,1.455,2.526-.376Z" transform="translate(-41.896 -4.09)" fill="#1a1a1a"/>
    <path id="Trazado_903297" data-name="Trazado 903297" d="M185.334,21.31a.85.85,0,1,0,.85-.85.85.85,0,0,0-.85.85" transform="translate(-45.285 -4.999)" fill="#1a1a1a"/>
    <path id="Trazado_903298" data-name="Trazado 903298" d="M184.623,18.355l-.008-1.615,2.364.023a1.131,1.131,0,0,1,.812.376l1.353,1.436-1.99-.351Z" transform="translate(-45.109 -4.09)" fill="#1a1a1a"/>
    <path id="Trazado_903299" data-name="Trazado 903299" d="M179.9,29.011a5.247,5.247,0,0,1-1.021.416,5.762,5.762,0,0,1-1.039.207,4.658,4.658,0,0,1-2.07-.233.258.258,0,0,1,.124-.5l.009,0a3.961,3.961,0,0,0,1.771-.132,4.784,4.784,0,0,0,.818-.332,4.134,4.134,0,0,0,.707-.453.624.624,0,1,1,.806.951.69.69,0,0,1-.106.073" transform="translate(-42.906 -6.802)" fill="#1a1a1a"/>
    <path id="Trazado_903300" data-name="Trazado 903300" d="M183.563,28.052a3.414,3.414,0,0,0,.59.435,3.833,3.833,0,0,0,.7.323,3.022,3.022,0,0,0,1.539.124l.009,0a.241.241,0,0,1,.131.462,3.667,3.667,0,0,1-1.859.218,4.74,4.74,0,0,1-.928-.221,4.447,4.447,0,0,1-.9-.422.584.584,0,0,1,.613-1,.651.651,0,0,1,.1.079" transform="translate(-44.61 -6.814)" fill="#1a1a1a"/>
    <line id="Línea_800" data-name="Línea 800" x2="4.11" transform="translate(135.465 23.302)" fill="none" stroke="#d26665" stroke-linecap="round" stroke-linejoin="round" stroke-width="0.497"/>
    <path id="Trazado_903301" data-name="Trazado 903301" d="M180.6,32.69a3.888,3.888,0,0,0,2.1,0" transform="translate(-44.129 -7.988)" fill="none" stroke="#d26665" stroke-linecap="round" stroke-linejoin="round" stroke-width="0.373"/>
    <path id="Trazado_903302" data-name="Trazado 903302" d="M167.3,13.676l.3,7.581-1.208-1.038-.923-6.937Z" transform="translate(-40.431 -3.245)" fill="#1a1a1a"/>
    <path id="Trazado_903303" data-name="Trazado 903303" d="M62.58,133.032H28.169L29.3,115.583H61.079Z" transform="translate(-6.883 -28.242)" fill="#04162e"/>
    <path id="Trazado_903304" data-name="Trazado 903304" d="M27.838,135.91l-1.024,40.3a6.443,6.443,0,0,0,12.848.889l4.051-40.089a7.961,7.961,0,1,0-15.875-1.1" transform="translate(-6.551 -31.329)" fill="#04162e"/>
    <path id="Trazado_903305" data-name="Trazado 903305" d="M26.231,257.836l.807-13.274,6.215.029-.793,13.25Z" transform="translate(-6.409 -59.757)" fill="#fff"/>
    <path id="Trazado_903306" data-name="Trazado 903306" d="M20.453,262.125l-7.763,4.227-4.369.854a4.609,4.609,0,0,0-3.706,4.1l-.089.953,23.55.107.046-10.2Z" transform="translate(-1.106 -64.049)" fill="#1a1a1a"/>
    <path id="Trazado_903307" data-name="Trazado 903307" d="M20.664,263s1.468-4.64-.248-5.413C17.96,256.484,18.386,260.432,20.664,263Z" transform="translate(-4.583 -62.894)" fill="none" stroke="#fff" stroke-linecap="round" stroke-linejoin="round" stroke-width="0.461"/>
    <path id="Trazado_903308" data-name="Trazado 903308" d="M21.212,264.076s3.731-3.126,5.1-1.833C28.268,264.092,24.456,265.2,21.212,264.076Z" transform="translate(-5.183 -64.001)" fill="none" stroke="#fff" stroke-linecap="round" stroke-linejoin="round" stroke-width="0.461"/>
    <rect id="Rectángulo_407856" data-name="Rectángulo 407856" width="2.096" height="23.741" transform="translate(3.323 208.367) rotate(-89.741)" fill="#fff"/>
    <path id="Trazado_903309" data-name="Trazado 903309" d="M39.206,190.886l-5.124,46.682H25l1.394-47.587a6.428,6.428,0,1,1,12.814.905" transform="translate(-6.108 -44.895)" fill="#04162e"/>
    <path id="Trazado_903310" data-name="Trazado 903310" d="M68.483,135.91l1.024,40.3a6.443,6.443,0,0,1-12.848.889l-4.051-40.089a7.961,7.961,0,1,1,15.875-1.1" transform="translate(-12.844 -31.329)" fill="#04162e"/>
    <path id="Trazado_903311" data-name="Trazado 903311" d="M72.745,257.836l-.807-13.274-6.215.029.793,13.25Z" transform="translate(-16.059 -59.757)" fill="#fff"/>
    <path id="Trazado_903312" data-name="Trazado 903312" d="M73.164,262.125l7.763,4.227,4.369.854A4.609,4.609,0,0,1,89,271.3l.088.953-23.55.107-.046-10.2Z" transform="translate(-16.003 -64.049)" fill="#1a1a1a"/>
    <path id="Trazado_903313" data-name="Trazado 903313" d="M79.777,263s-1.468-4.64.248-5.413C82.481,256.484,82.055,260.432,79.777,263Z" transform="translate(-19.35 -62.894)" fill="none" stroke="#fff" stroke-linecap="round" stroke-linejoin="round" stroke-width="0.461"/>
    <path id="Trazado_903314" data-name="Trazado 903314" d="M78.214,264.076s-3.731-3.126-5.1-1.833C71.158,264.092,74.97,265.2,78.214,264.076Z" transform="translate(-17.735 -64.001)" fill="none" stroke="#fff" stroke-linecap="round" stroke-linejoin="round" stroke-width="0.461"/>
    <rect id="Rectángulo_407857" data-name="Rectángulo 407857" width="23.741" height="2.096" transform="matrix(1, -0.005, 0.005, 1, 49.434, 206.378)" fill="#fff"/>
    <path id="Trazado_903315" data-name="Trazado 903315" d="M57.987,190.886l5.124,46.682h9.083L70.8,189.981a6.428,6.428,0,1,0-12.814.905" transform="translate(-14.159 -44.895)" fill="#04162e"/>
    <path id="Trazado_903316" data-name="Trazado 903316" d="M18.157,59.552c-1.636,8.181-6,26.461-8.212,35.642a5.9,5.9,0,0,0,11.468,2.793l8.85-35.894a6.185,6.185,0,1,0-12.106-2.541" transform="translate(-2.39 -13.337)" fill="#007ddc"/>
    <path id="Trazado_903317" data-name="Trazado 903317" d="M5.005,154.373h0a2.761,2.761,0,0,1-2.148-3.261l1.428-6.731a2.761,2.761,0,0,1,5.409,1.114l-1.428,6.731a2.761,2.761,0,0,1-3.261,2.148" transform="translate(-0.684 -34.74)" fill="#f3a396"/>
    <path id="Trazado_903318" data-name="Trazado 903318" d="M8.909,156.037a3.971,3.971,0,0,0-1.3-1.851,2.294,2.294,0,0,0-1.849-2.772l-.919-.158A2.294,2.294,0,0,0,2.221,153l-.016.068a20.372,20.372,0,0,0-2.066,7.261c-.49,5.419,1.805,8.172,3.5,8.2,1.6.023,2.5-6.331,2.867-8.685l.994,2.393a.752.752,0,0,0,1.441-.195l.35-2.782a6.446,6.446,0,0,0-.379-3.224" transform="translate(-0.018 -36.95)" fill="#f3a396"/>
    <path id="Trazado_903319" data-name="Trazado 903319" d="M7.545,106.739,0,137.568l11.46,3.13,7.68-31.527a5.923,5.923,0,1,0-11.594-2.432" transform="translate(0 -24.918)" fill="#007ddc"/>
    <path id="Trazado_903320" data-name="Trazado 903320" d="M76.688,59.552c1.636,8.181,6,26.461,8.211,35.642a5.9,5.9,0,0,1-11.467,2.793l-8.85-35.894a6.185,6.185,0,1,1,12.106-2.541" transform="translate(-15.745 -13.337)" fill="#007ddc"/>
    <path id="Trazado_903321" data-name="Trazado 903321" d="M94.264,154.373h0a2.761,2.761,0,0,0,2.147-3.261l-1.428-6.731a2.761,2.761,0,0,0-5.409,1.114L91,152.225a2.762,2.762,0,0,0,3.262,2.148" transform="translate(-21.873 -34.74)" fill="#f3a396"/>
    <path id="Trazado_903322" data-name="Trazado 903322" d="M89.608,156.037a3.971,3.971,0,0,1,1.3-1.851,2.294,2.294,0,0,1,1.849-2.772l.919-.158A2.294,2.294,0,0,1,96.3,153l.016.068a20.373,20.373,0,0,1,2.066,7.261c.49,5.419-1.805,8.172-3.5,8.2-1.6.023-2.5-6.331-2.867-8.685l-.994,2.393a.752.752,0,0,1-1.441-.195l-.35-2.782a6.446,6.446,0,0,1,.379-3.224" transform="translate(-21.789 -36.95)" fill="#f3a396"/>
    <path id="Trazado_903323" data-name="Trazado 903323" d="M87.737,106.739l7.545,30.829-11.46,3.13-7.68-31.527a5.923,5.923,0,1,1,11.594-2.432" transform="translate(-18.571 -24.918)" fill="#007ddc"/>
    <path id="Trazado_903324" data-name="Trazado 903324" d="M50.729,47.894l-5.964.085-5.806-.085L26.519,53.21l2.374,45.834h31.9L63.169,53.21Z" transform="translate(-6.48 -11.703)" fill="#007ddc"/>
    <line id="Línea_801" data-name="Línea 801" y2="43.136" transform="translate(38.596 44.311)" fill="none" stroke="#005f99" stroke-miterlimit="10" stroke-width="0.719"/>
    <path id="Trazado_903325" data-name="Trazado 903325" d="M49.111,64.664a.677.677,0,1,1-.678-.678.678.678,0,0,1,.678.678" transform="translate(-11.669 -15.635)" fill="#289de5"/>
    <path id="Trazado_903326" data-name="Trazado 903326" d="M49.111,75.284a.677.677,0,1,1-.678-.678.678.678,0,0,1,.678.678" transform="translate(-11.669 -18.229)" fill="#289de5"/>
    <path id="Trazado_903327" data-name="Trazado 903327" d="M49.111,85.9a.677.677,0,1,1-.678-.678.678.678,0,0,1,.678.678" transform="translate(-11.669 -20.824)" fill="#289de5"/>
    <path id="Trazado_903328" data-name="Trazado 903328" d="M49.111,96.523a.677.677,0,1,1-.678-.678.678.678,0,0,1,.678.678" transform="translate(-11.669 -23.419)" fill="#289de5"/>
    <path id="Trazado_903329" data-name="Trazado 903329" d="M49.111,107.143a.677.677,0,1,1-.678-.678.678.678,0,0,1,.678.678" transform="translate(-11.669 -26.014)" fill="#289de5"/>
    <line id="Línea_802" data-name="Línea 802" x1="0.999" y1="19.42" transform="translate(20.705 54.361)" fill="none" stroke="#005f99" stroke-miterlimit="10" stroke-width="0.719"/>
    <line id="Línea_803" data-name="Línea 803" y1="19.42" x2="0.999" transform="translate(55.009 54.361)" fill="none" stroke="#005f99" stroke-miterlimit="10" stroke-width="0.719"/>
    <path id="Trazado_903330" data-name="Trazado 903330" d="M48.985,51.169h0a6.249,6.249,0,0,1-6.249-6.249V31.62h12.5v13.3a6.249,6.249,0,0,1-6.249,6.249" transform="translate(-10.442 -7.726)" fill="#f3a396"/>
    <path id="Trazado_903331" data-name="Trazado 903331" d="M42.736,33.944s3.439,6.391,7.368,6.078c6.074-.484,5.067-8.012,5.067-8.012s-2.356,5.022-6.083,5.027a8.155,8.155,0,0,1-6.353-3.093" transform="translate(-10.442 -7.821)" fill="#1a1a1a"/>
    <path id="Trazado_903332" data-name="Trazado 903332" d="M37.08,57.525l6.391-7.7L47.869,56l4.1-6.168,7.571,7.7Z" transform="translate(-9.06 -12.175)" fill="#007ddc"/>
    <path id="Trazado_903333" data-name="Trazado 903333" d="M47.979,54.69,45,49.474a6.875,6.875,0,0,0-1.975-2.186l-1.511-1.079a1,1,0,0,0-1.084-.054l-1.523.877a1,1,0,0,0-.5,1l.626,4.866a.576.576,0,0,0,.988.324l3.335-3.482a.423.423,0,0,1,.654.054l3.967,5.764Z" transform="translate(-9.383 -11.245)" fill="#289de5"/>
    <path id="Trazado_903334" data-name="Trazado 903334" d="M51.076,54.69l2.981-5.216a6.883,6.883,0,0,1,1.975-2.186l1.511-1.079a1,1,0,0,1,1.084-.054l1.523.877a1,1,0,0,1,.5,1L60.02,52.9a.576.576,0,0,1-.988.324L55.7,49.738a.424.424,0,0,0-.655.054l-3.966,5.764Z" transform="translate(-12.48 -11.245)" fill="#289de5"/>
    <path id="Trazado_903335" data-name="Trazado 903335" d="M57.821,7.287C57.31,5.433,56.108,2.816,51.816.864,44.725-2.361,39.943,4.488,39.943,4.488c-1.911-.2-2.946.529-3.36,2.25a15.69,15.69,0,0,0,.382,5.448l1.414,7.492,1.364-6.648c1.341-4.373,3.38-6.154,3.38-6.154L49.6,6.36,56.473,19.04l1.337-7.5A12.488,12.488,0,0,0,58,8.65a7.116,7.116,0,0,0-.175-1.363" transform="translate(-8.908 0)" fill="#1a1a1a"/>
    <path id="Trazado_903336" data-name="Trazado 903336" d="M62.474,22.885a2.087,2.087,0,0,1,2.587-.683c1.742.661.954,4.893-1.659,5.432A2.066,2.066,0,0,1,61.73,27.2s.642-3.125.744-4.312" transform="translate(-15.083 -5.38)" fill="#f3a396"/>
    <path id="Trazado_903337" data-name="Trazado 903337" d="M64.873,24.222s-1.459-.487-2.5,1.662" transform="translate(-15.242 -5.907)" fill="none" stroke="#d26665" stroke-linecap="round" stroke-linejoin="round" stroke-width="0.497"/>
    <path id="Trazado_903338" data-name="Trazado 903338" d="M63.316,25.045s1.588.849.54,2.126" transform="translate(-15.471 -6.12)" fill="none" stroke="#d26665" stroke-linecap="round" stroke-linejoin="round" stroke-width="0.497"/>
    <path id="Trazado_903339" data-name="Trazado 903339" d="M37.975,22.885a2.088,2.088,0,0,0-2.587-.683c-1.742.661-.954,4.893,1.659,5.432a2.066,2.066,0,0,0,1.672-.437s-.642-3.125-.744-4.312" transform="translate(-8.419 -5.38)" fill="#f3a396"/>
    <path id="Trazado_903340" data-name="Trazado 903340" d="M36.146,24.222s1.458-.487,2.494,1.662" transform="translate(-8.832 -5.907)" fill="none" stroke="#d26665" stroke-linecap="round" stroke-linejoin="round" stroke-width="0.497"/>
    <path id="Trazado_903341" data-name="Trazado 903341" d="M38.22,25.045s-1.588.849-.539,2.126" transform="translate(-9.119 -6.12)" fill="none" stroke="#d26665" stroke-linecap="round" stroke-linejoin="round" stroke-width="0.497"/>
    <path id="Trazado_903342" data-name="Trazado 903342" d="M57.057,14.921c0,2.55-.249,7.888-1.818,11.054a7.81,7.81,0,0,1-7.1,4.67c-3.193.1-5.571-1.135-7.477-4.995s-1.815-10.682-1.815-10.682,0-9.112,9.006-9.112c9.486,0,9.2,9.065,9.2,9.065" transform="translate(-9.492 -1.431)" fill="#f3a396"/>
    <path id="Trazado_903343" data-name="Trazado 903343" d="M55.949,6.711c-.235.079-7.806-2.02-7.806-2.02L41.5,6.711l0,.01c-5.841,1.58-3.267,7.112-3.267,7.112,2.4-1.235,2.226-3.765,2.682-5.586,1.063,1.4,5.135,3.942,10.144,3.846,5.129-.1,5.709-2.1,5.709-2.1s-.586-3.363-.821-3.285" transform="translate(-9.204 -1.146)" fill="#1a1a1a"/>
    <path id="Trazado_903344" data-name="Trazado 903344" d="M50.046,21.15v4.068a.691.691,0,0,0,.049.257.678.678,0,0,0,.81.376l.7-.186" transform="translate(-12.228 -5.168)" fill="none" stroke="#d26665" stroke-linecap="round" stroke-linejoin="round" stroke-width="0.497"/>
    <path id="Trazado_903345" data-name="Trazado 903345" d="M46,21.31a.85.85,0,1,1-.85-.85.85.85,0,0,1,.85.85" transform="translate(-10.824 -4.999)" fill="#1a1a1a"/>
    <path id="Trazado_903346" data-name="Trazado 903346" d="M45.828,18.356l.031-1.616-3,.054a1.657,1.657,0,0,0-1.033.386L40.1,18.634l2.526-.376Z" transform="translate(-9.797 -4.09)" fill="#1a1a1a"/>
    <path id="Trazado_903347" data-name="Trazado 903347" d="M54.558,21.31a.85.85,0,1,0,.85-.85.85.85,0,0,0-.85.85" transform="translate(-13.331 -4.999)" fill="#1a1a1a"/>
    <path id="Trazado_903348" data-name="Trazado 903348" d="M53.413,18.356l-.031-1.616,3,.054a1.657,1.657,0,0,1,1.033.386l1.733,1.455-2.526-.376Z" transform="translate(-13.044 -4.09)" fill="#1a1a1a"/>
    <path id="Trazado_903349" data-name="Trazado 903349" d="M48.581,29.011a5.261,5.261,0,0,1-1.02.416,5.784,5.784,0,0,1-1.04.207,4.658,4.658,0,0,1-2.07-.233.258.258,0,0,1,.124-.5l.009,0a3.961,3.961,0,0,0,1.771-.132,4.784,4.784,0,0,0,.818-.332,4.1,4.1,0,0,0,.707-.453.624.624,0,1,1,.806.951.692.692,0,0,1-.106.073" transform="translate(-10.819 -6.802)" fill="#1a1a1a"/>
    <path id="Trazado_903350" data-name="Trazado 903350" d="M52.224,27.986a4.211,4.211,0,0,0,.707.454,4.843,4.843,0,0,0,.818.331,3.962,3.962,0,0,0,1.771.132h.01a.258.258,0,0,1,.123.5,4.667,4.667,0,0,1-2.069.232,5.758,5.758,0,0,1-1.04-.207,5.248,5.248,0,0,1-1.021-.416.624.624,0,0,1,.595-1.1.689.689,0,0,1,.106.073" transform="translate(-12.51 -6.802)" fill="#1a1a1a"/>
    <line id="Línea_804" data-name="Línea 804" x2="4.653" transform="translate(35.925 23.302)" fill="none" stroke="#d26665" stroke-linecap="round" stroke-linejoin="round" stroke-width="0.497"/>
    <path id="Trazado_903351" data-name="Trazado 903351" d="M49.149,32.69a4.471,4.471,0,0,0,2.222,0" transform="translate(-12.009 -7.988)" fill="none" stroke="#d26665" stroke-linecap="round" stroke-linejoin="round" stroke-width="0.373"/>
  </g>
</svg>
