<svg id="Grupo_1100067" data-name="Grupo 1100067" xmlns="http://www.w3.org/2000/svg" xmlns:xlink="http://www.w3.org/1999/xlink" width="132.537" height="110.292" viewBox="0 0 132.537 110.292">
  <defs>
    <clipPath id="clip-path">
      <rect id="Rectángulo_401650" data-name="Rectángulo 401650" width="132.537" height="110.292" fill="none" style="mix-blend-mode: multiply;isolation: isolate"/>
    </clipPath>
  </defs>
  <g id="Grupo_1100063" data-name="Grupo 1100063" clip-path="url(#clip-path)">
    <path id="Trazado_879289" data-name="Trazado 879289" d="M129.356,70.564l.008-.016c2.371-1.615,8.491-.055,17.543-12.829a3.109,3.109,0,0,0-.786-4.353c-34.823-23.939-15.557-23.222-41.285-36.23C99.683,14.531,86.544,29.318,82.781,33.7c-4.236,4.93-9.1-7.212-22.16-15.7-4.874-3.244-5.136-1.988-7.964-4.674a3.113,3.113,0,0,0-3.767-.409C27,26.322,37.485,29.188,25.71,40.139c-3.515,3.268-9.609,9.7-5.808,12.628C30.716,61.1,26.69,61.938,44.148,75.31c6.44,4.932-15.161,15.657-9.92,21.044,14.555,14.959,26.019,17.459,33.6,23.153,3.341,2.511,4.949-2.048,6.912-3.338l.186-.363a72.864,72.864,0,0,1,11.953-9.921c15.094-10.353,7.885-4.107,18-18.935a3.115,3.115,0,0,1,2.062-1.312c23.209-3.84,15.9-9.211,22.418-15.074" transform="translate(-14.937 -9.958)" fill="#dbb295" style="mix-blend-mode: multiply;isolation: isolate"/>
    <path id="Trazado_879290" data-name="Trazado 879290" d="M110.659,58.1l.008-.016c2.371-1.615,8.491-.055,17.543-12.829a3.109,3.109,0,0,0-.786-4.353C92.6,16.963,111.868,17.679,86.139,4.671,80.986,2.065,67.847,16.853,64.084,21.233c-4.236,4.93-9.1-7.212-22.16-15.7C37.05,2.292,36.787,3.547,33.96.862A3.113,3.113,0,0,0,30.193.453c-21.887,13.4-11.4,16.27-23.18,27.221C3.5,30.942-2.6,37.371,1.205,40.3c10.813,8.336,6.788,9.171,24.246,22.544,6.44,4.932-15.161,15.657-9.92,21.044,14.555,14.959,26.019,17.459,33.6,23.153,3.341,2.511,4.949-2.048,6.912-3.338l.186-.363a72.865,72.865,0,0,1,11.953-9.921c15.094-10.353,7.885-4.107,18-18.935a3.115,3.115,0,0,1,2.062-1.312c23.209-3.84,15.9-9.211,22.418-15.074" transform="translate(0 0)" fill="#fff"/>
    <path id="Trazado_879291" data-name="Trazado 879291" d="M343.222,74.111c-2.982,4.643-7.328,8.765-12.632,10.274a12.115,12.115,0,0,0-4.215,1.64c-1.763,1.371-2.329,3.737-3.366,5.71a15.652,15.652,0,0,1-7.35,6.617c-.305.145-.6.283-.907.413a25.146,25.146,0,0,1-7.219,1.458c-1.219.123-2.445.247-3.65.45-1.915-4.571-5.949-7.887-10.056-10.651s-8.511-5.267-11.776-9c-3.287-3.744-4.875-9.323-9.4-11.413a84.063,84.063,0,0,1,9-12.392c1.117-1.328,2.249-2.641,3.381-3.947,3.591-4.15,7.306-8.387,11.674-11.623a30.373,30.373,0,0,1,5.841-3.432c4.273,2.111,9.033,4.484,12.305,7.952,3.453,3.642,5.434,8.46,8.315,12.552a22.142,22.142,0,0,0,2.975,3.512,23.062,23.062,0,0,0,2.053,1.705c.878.66,1.785,1.27,2.692,1.879q6.171,4.147,12.342,8.3" transform="translate(-217.823 -30.527)" fill="#82b9c4"/>
    <path id="Trazado_879292" data-name="Trazado 879292" d="M418.732,58.723a69.356,69.356,0,0,1-7.382,5.62c-1.724,1.133-3.7,2.241-5.733,1.882-2.385-.415-3.946-2.668-5.148-4.777a86.994,86.994,0,0,1-8.194-19.8,30.463,30.463,0,0,1,5.834-3.43c4.279,2.108,9.037,4.481,12.31,7.949,3.449,3.644,5.431,8.465,8.314,12.555" transform="translate(-313.394 -30.534)" fill="#aacfd7"/>
    <path id="Trazado_879293" data-name="Trazado 879293" d="M495.045,176.305c-2.983,4.644-7.332,8.767-12.637,10.277a12.063,12.063,0,0,0-4.21,1.636c-1.768,1.372-2.329,3.738-3.367,5.714a15.7,15.7,0,0,1-7.351,6.614c-.239-.371-.472-.749-.7-1.126-3.021-5.1-4.833-11.152-3.814-17,1.391-7.942,8.219-14.469,16.111-16.124.308-.063.617-.119.931-.17.875.655,1.787,1.265,2.694,1.876q6.164,4.153,12.341,8.3" transform="translate(-369.643 -132.723)" fill="#aacfd7"/>
    <path id="Trazado_879294" data-name="Trazado 879294" d="M337.136,135.711a7.935,7.935,0,0,1-6.61-.036,17.512,17.512,0,0,1-3.874-2.358c-.609-.464-1.2-.951-1.785-1.429l-5.275-4.317a11.949,11.949,0,0,1-3.838-4.382c-1.6-3.882,2.445-7.176,4.019-10.382.058-.109.109-.218.159-.327a18.59,18.59,0,0,1,2.808-5.137c1.313-1.466,3.388-2.445,5.26-1.828,1.72.559,2.779,2.257,3.686,3.824l5.42,9.381a28.456,28.456,0,0,1,3.352,7.328c.871,3.57-.058,7.974-3.323,9.664" transform="translate(-251.968 -84.147)" fill="#aacfd7"/>
    <path id="Trazado_879295" data-name="Trazado 879295" d="M307.534,175.716c-1.219.123-2.445.247-3.65.45-1.915-4.571-5.949-7.887-10.056-10.651s-8.511-5.267-11.775-9c-3.287-3.744-4.876-9.323-9.4-11.413a84.066,84.066,0,0,1,9-12.392,54.75,54.75,0,0,1,10.789,6.378c.951.726,1.959,1.632,2,2.829a4.509,4.509,0,0,1-.406,1.691,29.341,29.341,0,0,0-1.792,8.155,8.71,8.71,0,0,0,.239,3.33,10.322,10.322,0,0,0,1.567,2.779,25.6,25.6,0,0,0,3.134,3.875c1.843,1.756,4.179,2.924,6.044,4.658a26.539,26.539,0,0,1,3.8,4.81,5.079,5.079,0,0,1,.965,2,4.959,4.959,0,0,1-.45,2.5" transform="translate(-217.824 -106.021)" fill="#6ba7b3"/>
    <path id="Trazado_879296" data-name="Trazado 879296" d="M326.376,159.6a8.713,8.713,0,0,0,.239,3.33.564.564,0,0,0,.037.1c-.609-.464-1.2-.95-1.785-1.429q-2.634-2.155-5.275-4.317a11.944,11.944,0,0,1-3.838-4.382c-1.6-3.882,2.445-7.176,4.02-10.382a55.047,55.047,0,0,1,6.805,4.4c.951.726,1.959,1.632,2,2.829a4.514,4.514,0,0,1-.406,1.691,29.35,29.35,0,0,0-1.792,8.155" transform="translate(-251.967 -113.861)" fill="#82b9c4"/>
    <path id="Trazado_879297" data-name="Trazado 879297" d="M160.133,231.975c-4.07,3.932-6.733,9.062-9.766,13.843a21.8,21.8,0,0,1-3.475,4.484,25.983,25.983,0,0,1-4.027,2.873c-.167.109-.334.21-.5.312-2.626,1.662-5.173,3.367-7.626,5.166a73.341,73.341,0,0,0-7.306,6.1q-1.241,1.175-2.431,2.452-1.208,1.284-2.336,2.663c-2.576-2.5-6.218-3.461-9.469-4.985a55.917,55.917,0,0,1-7-4.157c-.479-.312-.951-.631-1.422-.943-5.42-3.628-10.818-7.546-15.236-12.3a9.355,9.355,0,0,1,1.045-1.654,33.017,33.017,0,0,1,3.483-3.577,50.527,50.527,0,0,0,4.462-4.861c.674-.835,1.313-1.691,1.93-2.568.523-.733,1.016-1.487,1.546-2.22.058-.094.13-.189.2-.283a19.2,19.2,0,0,1,2.22-2.684,44.01,44.01,0,0,1,5.63-4.128,33.578,33.578,0,0,0,9.084-9.621c-.015-.3,1.349-.167,1.632-.268s.588-.123.863-.247a2.383,2.383,0,0,0,.581-.457q2.851-2.742,5.688-5.492c.566-.551,1.5-1.1,1.487-1.886a47.248,47.248,0,0,0,9.657,8.612q1.883,1.273,3.874,2.351c.377.21.762.406,1.154.6a41.233,41.233,0,0,1,4.985,2.692c2.8,1.937,4.81,4.578,7.125,6.922a21.036,21.036,0,0,0,3.954,3.258" transform="translate(-71.533 -165.806)" fill="#f6a5b6"/>
    <path id="Trazado_879298" data-name="Trazado 879298" d="M155.313,339.832c.036.907-.871,1.531-1.669,1.966-2.568,1.393-5.122,2.793-7.69,4.194-1.662.9-3.722,1.814-5.34.842a5.5,5.5,0,0,1-1.836-2.329q-2.264-4.331-4.535-8.641c.675-.834,1.313-1.691,1.93-2.568.522-.733,1.016-1.487,1.546-2.22.058-.094.131-.189.2-.283,1.952.914,3.9,2.046,5.637,2.815l9.925,4.4c.174.072.348.159.522.247a2.042,2.042,0,0,1,1.313,1.582" transform="translate(-107.249 -264.274)" fill="#ffccd7"/>
    <path id="Trazado_879299" data-name="Trazado 879299" d="M104.76,411.921c-5.417-3.628-10.813-7.547-15.238-12.3a9.655,9.655,0,0,1,1.048-1.655c2.943,1.137,5.947,2.151,8.89,3.255a8.4,8.4,0,0,1,3.116,1.7c1.382,1.366,1.644,3.467,1.834,5.4l.351,3.6" transform="translate(-71.52 -317.944)" fill="#ffccd7"/>
    <path id="Trazado_879300" data-name="Trazado 879300" d="M199.7,426.575c-.83.786-1.644,1.605-2.43,2.452q-7.884-5.97-15.773-11.928a3.443,3.443,0,0,1-1.444-1.7c-.34-1.276.814-2.419,1.845-3.244,1.443-1.148,3.143-2.363,4.949-2,1.589.318,2.664,1.756,3.59,3.088q4.632,6.663,9.263,13.332" transform="translate(-143.8 -327.627)" fill="#ffccd7"/>
    <path id="Trazado_879301" data-name="Trazado 879301" d="M276,398.473c-.167.106-.334.206-.5.312-2.631,1.661-5.178,3.361-7.625,5.167l-5.88-.5a4.055,4.055,0,0,1-4.52-4.37q-.619-3.837-1.232-7.664c-.106-.663-.145-1.488.418-1.856.507-.334,1.182-.067,1.722.2q8.812,4.356,17.618,8.711" transform="translate(-204.661 -311.101)" fill="#ffccd7"/>
    <path id="Trazado_879302" data-name="Trazado 879302" d="M239.924,276.559c-.726.791-2.024.073-2.815-.653q-4.4-4.005-8.786-8.017-2.677-2.449-5.354-4.89a11.678,11.678,0,0,1-2.315-2.583,3.914,3.914,0,0,1-.442-3.33,5.943,5.943,0,0,1,2.634-2.554l6.131-3.8c1.466-.907,3.947-2.249,5.21-.4,1.117,1.64,1.226,5.086,1.7,7,.3,1.226.595,2.46.9,3.686q1.643,6.8,3.308,13.611a2.13,2.13,0,0,1-.167,1.93" transform="translate(-175.767 -199.252)" fill="#ffccd7"/>
    <path id="Trazado_879303" data-name="Trazado 879303" d="M366.951,272.265q-4.941,6.437-9.893,12.875c-.624.808-1.51,1.711-2.486,1.416-1.042-.312-1.221-1.689-1.21-2.776q.167-10.869.323-21.737c.379.212.764.412,1.154.607a41.7,41.7,0,0,1,4.988,2.687c2.8,1.94,4.81,4.582,7.123,6.928" transform="translate(-282.306 -209.35)" fill="#ffccd7"/>
    <path id="Trazado_879304" data-name="Trazado 879304" d="M188.565,216.151a7.252,7.252,0,0,0-2,2.757c-.631,1.415-.994,2.938-1.618,4.361-1.487,3.41-4.368,6.007-7.342,8.249s-6.16,4.252-8.677,7c-1.154,1.27-2.213,2.728-3.766,3.468-2.017-.813-2.561-3.454-4.23-4.839a8.726,8.726,0,0,0-1.814-1.059q-3.014-1.415-6.029-2.808c-.508-.232-1.03-.472-1.56-.675.058-.094.13-.189.2-.283a19.2,19.2,0,0,1,2.22-2.684,44.012,44.012,0,0,1,5.63-4.128,33.578,33.578,0,0,0,9.084-9.621c-.015-.3,1.349-.167,1.632-.268s.588-.123.863-.247a2.384,2.384,0,0,0,.581-.457q2.851-2.742,5.688-5.492c.566-.551,1.5-1.1,1.487-1.886a47.248,47.248,0,0,0,9.657,8.612" transform="translate(-121.056 -165.806)" fill="#f58ea4"/>
    <path id="Trazado_879305" data-name="Trazado 879305" d="M167.285,338c.174.073.348.16.523.247a8.58,8.58,0,0,1-2.648,2.206c-2.017-.813-2.561-3.453-4.23-4.839a8.736,8.736,0,0,0-1.814-1.059q-3.014-1.415-6.029-2.808c-.508-.232-1.03-.472-1.56-.675.058-.094.13-.189.2-.283,1.952.914,3.9,2.046,5.637,2.815Z" transform="translate(-121.056 -264.273)" fill="#f6a5b6"/>
    <path id="Trazado_879306" data-name="Trazado 879306" d="M236.783,261.018a32.135,32.135,0,0,1-4.469,3.947c-1.313.987-2.67,1.93-3.991,2.924q-2.677-2.449-5.354-4.89a11.679,11.679,0,0,1-2.315-2.583,3.914,3.914,0,0,1-.442-3.33,5.943,5.943,0,0,1,2.634-2.554q3.069-1.9,6.131-3.8c1.466-.907,3.947-2.249,5.21-.4,1.117,1.64,1.226,5.086,1.7,7,.3,1.226.595,2.459.9,3.686" transform="translate(-175.768 -199.253)" fill="#f6a5b6"/>
    <path id="Trazado_879307" data-name="Trazado 879307" d="M88.034,49.349A26.309,26.309,0,0,1,83.071,59.8c-1.339,1.539-2.882,2.9-4.191,4.471-2.3,2.769-3.824,6.135-5.818,9.121-.267.4-.534.78-.817,1.159a18.525,18.525,0,0,1-1.935,2.227A65.794,65.794,0,0,1,64.232,81.4a24.671,24.671,0,0,0-2.644,2.3c-.209.213-.409.434-.6.655a8.554,8.554,0,0,0-1.831,3.153c-.484-.179-.959-.379-1.422-.6-.225-.108-.446-.217-.663-.334-3.662-1.923-6.665-5.009-9.826-7.778q-.275-.244-.55-.476c-.138-.125-.28-.246-.421-.363-3.4-2.857-7.174-5.238-10.623-8.033-.3-.238-.588-.484-.876-.734q-.482-.407-.951-.838c-1.568-1.418-3.057-2.957-4.521-4.542-.421-.455-.838-.909-1.26-1.372-3.591-3.962-7.111-8.054-11.294-11.136,1.426-4.15,5.284-6.773,8.366-9.968.2-.209.4-.425.6-.642a17.7,17.7,0,0,0,1.447-1.781,23.587,23.587,0,0,0,2.394-4.542c.113-.259.221-.521.325-.784.713-1.739,1.38-3.5,2.252-5.159.129-.259.271-.513.413-.763s.3-.5.455-.746c2.369-3.687,6.027-6.264,9.805-8.566.329-.2.659-.4.988-.6.425-.254.851-.5,1.276-.755a12.837,12.837,0,0,0,4.471,2.757c.242.109.484.217.722.33a18.755,18.755,0,0,1,1.681.859c.517.309,1.03.626,1.531.959.225.146.446.3.667.446Q55.945,23.6,57.63,25c.221.184.442.367.663.555,2.023,1.718,3.95,3.574,5.851,5.459.209.213.421.421.63.63,1.468,1.464,2.924,2.94,4.4,4.383l.538.525c1.26,1.214,2.536,2.4,3.85,3.524.192.167.384.33.58.492a45.839,45.839,0,0,0,4.792,3.549c.221.146.446.284.676.421a32.068,32.068,0,0,0,4.1,2.131c.1.046.2.087.3.133.221.092.438.184.659.28a7.669,7.669,0,0,1,3.362,2.265" transform="translate(-13.385 -13.586)" fill="#ffb871"/>
    <path id="Trazado_879308" data-name="Trazado 879308" d="M87.223,135.975a3.688,3.688,0,0,1-4.237.221,11.227,11.227,0,0,1-2.39-1.96c-.254-.25-.509-.5-.767-.742a6.226,6.226,0,0,0-4.2-1.964,3.262,3.262,0,0,0-2.281,1.059,2.2,2.2,0,0,0-.609,1.652,2.742,2.742,0,0,0,.229.855q-.482-.407-.951-.838a2.92,2.92,0,0,1,.788-2.152,4.028,4.028,0,0,1,2.807-1.3,6.894,6.894,0,0,1,4.709,2.156c.271.246.53.5.792.759a10.327,10.327,0,0,0,2.227,1.839,2.974,2.974,0,0,0,3.386-.1c1.064-1.022.646-3-.375-4.329-1.477-1.914-3.829-3.274-7.411-4.279-.817-.229-1.66-.434-2.477-.634a31.357,31.357,0,0,1-6.127-1.956c-3.207-1.539-5.347-4.1-5.718-6.848s.918-5.288,2.164-7.753l.221-.438c1.226-2.431,2.348-5.259,1.372-7.782a5.268,5.268,0,0,0-.63-1.159c.113-.259.221-.521.325-.784a6.3,6.3,0,0,1,.98,1.681c1.089,2.8-.175,5.947-1.4,8.375l-.221.438c-1.2,2.365-2.436,4.8-2.094,7.324s2.327,4.859,5.313,6.293a30.9,30.9,0,0,0,5.989,1.906c.822.2,1.672.409,2.5.642,3.741,1.047,6.214,2.486,7.791,4.533,1.2,1.56,1.71,3.941.3,5.293" transform="translate(-51.569 -79.485)" fill="#ff8345"/>
    <path id="Trazado_879309" data-name="Trazado 879309" d="M49.785,157.951c-.421-.455-.838-.909-1.26-1.372a7.021,7.021,0,0,0-.521-.867,18.8,18.8,0,0,0-2.119-2.377c-.425-.425-.863-.867-1.276-1.326a7.335,7.335,0,0,1-2.223-4.717,9.232,9.232,0,0,1,1.647-4.65A20.593,20.593,0,0,0,45.1,140.6a8.943,8.943,0,0,0,.5-5.13c.2-.209.4-.426.6-.642a9.737,9.737,0,0,1-.43,6.056,20.644,20.644,0,0,1-1.1,2.11,8.614,8.614,0,0,0-1.552,4.279,6.658,6.658,0,0,0,2.035,4.246c.4.446.834.88,1.251,1.3a19.194,19.194,0,0,1,2.2,2.473,7.066,7.066,0,0,1,1.189,2.657" transform="translate(-33.862 -107.72)" fill="#ff8345"/>
    <path id="Trazado_879310" data-name="Trazado 879310" d="M172.159,51.523a11,11,0,0,1-4.663,4.125,23.224,23.224,0,0,1-2.59.951c-1.877.609-3.645,1.18-4.775,2.6-1.326,1.668-1.3,3.871-1.264,6.206.029,2.119.063,4.313-.988,6.152a6.85,6.85,0,0,1-6.11,3.182,8.185,8.185,0,0,1-3.082-.584c-3.478-1.418-5.63-4.721-6.819-7.244a25.986,25.986,0,0,1-.292-21.274c.672-1.53,1.5-3.007,2.306-4.437a43.058,43.058,0,0,0,2.565-5.067,14.438,14.438,0,0,0,1.114-5.418c.242.108.484.217.721.329a15.312,15.312,0,0,1-1.159,5.359,44.877,44.877,0,0,1-2.606,5.155c-.8,1.409-1.618,2.874-2.277,4.371a25.266,25.266,0,0,0,.284,20.674c1.139,2.4,3.174,5.551,6.435,6.882,2.728,1.114,6.673.559,8.291-2.286.951-1.668.922-3.762.892-5.785-.033-2.356-.067-4.792,1.418-6.664,1.268-1.593,3.228-2.227,5.121-2.84a23.626,23.626,0,0,0,2.511-.922,10.311,10.311,0,0,0,4.387-3.958c.192.167.384.329.58.492" transform="translate(-111.402 -24.539)" fill="#ff8345"/>
    <path id="Trazado_879311" data-name="Trazado 879311" d="M185.994,56.039a6.579,6.579,0,0,1-4.083,3.04,12.616,12.616,0,0,1-2.152.25,8.251,8.251,0,0,0-2.744.463c-2.832,1.189-3.2,4.984-3.245,6.118-.038.9,0,1.831.042,2.732a18.4,18.4,0,0,1-.242,5.034c-.576,2.452-2.632,4.834-5.1,4.834a3.691,3.691,0,0,1-.671-.058c-2.211-.388-3.508-2.523-4.079-3.762-2.953-6.368-.659-13.9,1.322-19.018.35-.9.713-1.8,1.076-2.7A51.7,51.7,0,0,0,169.758,41.4c.225.146.446.3.667.446a53.774,53.774,0,0,1-3.637,11.4c-.363.9-.726,1.8-1.072,2.694-1.935,4.988-4.179,12.333-1.343,18.451.513,1.109,1.66,3.02,3.545,3.353,2.273.392,4.392-1.864,4.946-4.225a17.732,17.732,0,0,0,.225-4.838c-.042-.918-.083-1.864-.046-2.8.134-3.316,1.514-5.839,3.687-6.752a8.882,8.882,0,0,1,2.986-.521,12.112,12.112,0,0,0,2.031-.229,5.808,5.808,0,0,0,3.708-2.861l.538.525" transform="translate(-129.667 -33.072)" fill="#ff8345"/>
    <path id="Trazado_879312" data-name="Trazado 879312" d="M195.221,63.41a4.769,4.769,0,0,1-2.29,3.391,7.848,7.848,0,0,1-2.277.692,9.277,9.277,0,0,0-1.627.413c-2.586,1-3.682,4.066-3.845,6.606a31.78,31.78,0,0,0,.071,3.833,26.4,26.4,0,0,1,0,4.667,4.547,4.547,0,0,1-.817,2.348,2.367,2.367,0,0,1-1.768.9,1.7,1.7,0,0,1-.721-.154,2.817,2.817,0,0,1-1.339-1.823c-1.752-5.48.788-11.227,3.541-16.649,1.8-3.545,3.512-7.24,3.925-10.864.221.183.442.367.663.555-.513,3.578-2.181,7.174-3.941,10.639-2.686,5.284-5.163,10.881-3.5,16.1a2.091,2.091,0,0,0,.947,1.385,1.452,1.452,0,0,0,1.622-.538,3.959,3.959,0,0,0,.667-1.977,26.638,26.638,0,0,0-.008-4.542,30.655,30.655,0,0,1-.071-3.92c.175-2.765,1.4-6.118,4.3-7.24a10.571,10.571,0,0,1,1.752-.446,7.111,7.111,0,0,0,2.069-.617,4.21,4.21,0,0,0,2.006-3.382c.209.213.421.421.63.63" transform="translate(-143.832 -45.351)" fill="#ff8345"/>
    <path id="Trazado_879313" data-name="Trazado 879313" d="M254.386,152.26a1.122,1.122,0,0,1-.017.117,10.347,10.347,0,0,1-4.321,7.228,15.234,15.234,0,0,1-4.988,1.71c-.63.133-1.28.275-1.906.446-1.614.434-4.425,1.522-5.117,3.962-.634,2.231.738,4.317,2.19,6.523s2.961,4.509,2.34,7.036a8.833,8.833,0,0,1-2.924,4.087,17.268,17.268,0,0,0-1.81,1.9,7.93,7.93,0,0,0-1.468,6.152c-.209.213-.409.434-.6.655a8.644,8.644,0,0,1,1.489-7.249,17.725,17.725,0,0,1,1.889-1.985c1.21-1.151,2.352-2.24,2.719-3.733.542-2.223-.813-4.283-2.248-6.465-1.476-2.248-3-4.571-2.277-7.119.788-2.786,3.862-4,5.626-4.467.638-.175,1.3-.317,1.939-.454a14.475,14.475,0,0,0,4.754-1.618,9.608,9.608,0,0,0,3.991-6.727c.021-.142.042-.279.058-.421.221.146.446.284.676.421" transform="translate(-188.161 -121.306)" fill="#ff8345"/>
    <path id="Trazado_879314" data-name="Trazado 879314" d="M292.577,165.476a14.5,14.5,0,0,1-7.557,7.987c-.588.25-1.209.475-1.814.688-1.964.709-4,1.439-4.951,3.161a6.345,6.345,0,0,0,.021,5.126c.275.755.626,1.51.968,2.235a22.208,22.208,0,0,1,1.21,2.932,12.659,12.659,0,0,1,.513,4.179c-.267.4-.534.78-.817,1.159a12.484,12.484,0,0,0-.388-5.125,22.441,22.441,0,0,0-1.172-2.836c-.35-.742-.709-1.51-1-2.3-.567-1.556-1.026-3.816.029-5.722,1.084-1.964,3.249-2.74,5.338-3.491.6-.213,1.209-.434,1.777-.676a13.761,13.761,0,0,0,7.182-7.6c.221.092.438.184.659.28" transform="translate(-221.289 -131.977)" fill="#ff8345"/>
    <path id="Trazado_879315" data-name="Trazado 879315" d="M181.49,265.582c-.4,1.214-1.618,2.023-3.628,2.406l-.35.067a5.348,5.348,0,0,0-3.249,1.347c-.922,1.093-.659,2.778-.1,3.991a16.607,16.607,0,0,0,1.039,1.839,15.489,15.489,0,0,1,1.209,2.215,7.86,7.86,0,0,1,.3,4.9c-.225-.108-.446-.217-.663-.334a7.067,7.067,0,0,0-.313-4.292,14.3,14.3,0,0,0-1.155-2.106,17.574,17.574,0,0,1-1.08-1.923c-.646-1.414-.934-3.407.209-4.763a5.958,5.958,0,0,1,3.674-1.589l.342-.067c1.735-.329,2.769-.976,3.078-1.918a2.321,2.321,0,0,0-1.147-2.578,4.031,4.031,0,0,0-3.149-.2c-2.682.809-4.521,3.37-5.826,5.509-.192.321-.388.642-.58.968a20.482,20.482,0,0,1-3.879,5.184q-.275-.244-.55-.475a19.655,19.655,0,0,0,3.808-5.08c.192-.325.388-.651.584-.972,1.368-2.252,3.316-4.95,6.235-5.83a4.745,4.745,0,0,1,3.72.275,3.012,3.012,0,0,1,1.472,3.428" transform="translate(-132.357 -209.02)" fill="#ff8345"/>
    <path id="Trazado_879316" data-name="Trazado 879316" d="M101.74,29.347a26.032,26.032,0,0,1-.559,7.424A26.1,26.1,0,0,1,98.6,42.439c-.367.659-.747,1.339-1.1,2.014-1.618,3.149-2.131,5.651-1.618,7.874.075.317.171.638.267.951a9.239,9.239,0,0,1,.4,1.647,2.936,2.936,0,0,1-.98,2.715,2.028,2.028,0,0,1-1.2.392,2.471,2.471,0,0,1-.659-.1,4.219,4.219,0,0,1-2.531-2.4c-1.185-2.861-.417-6.068.379-8.537q.237-.726.488-1.451a20.077,20.077,0,0,0,1.46-6.636,16.955,16.955,0,0,0-2.4-7.482c.13-.259.271-.513.413-.763.021.034.042.071.058.1,1.347,2.507,2.6,5.226,2.653,8.129a20.577,20.577,0,0,1-1.5,6.886c-.167.48-.329.955-.484,1.435-.763,2.356-1.5,5.4-.4,8.041A3.5,3.5,0,0,0,93.9,57.236a1.39,1.39,0,0,0,1.243-.183,2.225,2.225,0,0,0,.68-2.044,8.653,8.653,0,0,0-.367-1.522c-.1-.321-.2-.655-.279-1-.559-2.4-.025-5.059,1.681-8.366.35-.688.734-1.372,1.105-2.039a25.351,25.351,0,0,0,2.519-5.505,25.5,25.5,0,0,0,.534-7.219c-.021-.993-.046-2.019-.016-3.024a17.961,17.961,0,0,1,.776-4.98c.329-.2.659-.4.988-.6a16.185,16.185,0,0,0-1.038,5.593c-.029.993,0,2.01.017,2.995" transform="translate(-72.351 -16.585)" fill="#ff8345"/>
  </g>
</svg>
