<svg id="Layer_x0020_1" xmlns="http://www.w3.org/2000/svg" width="74.655" height="74.655" viewBox="0 0 74.655 74.655">
  <path id="Trazado_893753" data-name="Trazado 893753" d="M59.392,74.655H15.263A15.277,15.277,0,0,1,0,59.392V15.263A15.249,15.249,0,0,1,15.263,0H59.392A15.277,15.277,0,0,1,74.655,15.263V59.392A15.305,15.305,0,0,1,59.392,74.655ZM18.5,63.415a.611.611,0,0,0,.394-.131L56.549,37.918a.765.765,0,0,0,.306-.612.919.919,0,0,0-.306-.612L18.893,11.371a.657.657,0,0,0-.743-.044.741.741,0,0,0-.394.612V62.672a.754.754,0,0,0,.394.656A1.029,1.029,0,0,0,18.5,63.415Zm.743-50.076,35.6,23.967-35.6,24.01Z" fill="#2f5e34" fill-rule="evenodd"/>
  <path id="Trazado_893754" data-name="Trazado 893754" d="M440,305v47.977l35.6-24.01Z" transform="translate(-420.757 -291.661)" fill="#ffbc01" fill-rule="evenodd"/>
</svg>
