<svg xmlns="http://www.w3.org/2000/svg" width="435.078" height="393.727" viewBox="0 0 435.078 393.727">
  <g id="Grupo_1117492" data-name="Grupo 1117492" transform="translate(-899.922 -8731)">
    <path id="Trazado_905172" data-name="Trazado 905172" d="M275.457.674,383.8,38.4s-32.881,170.319,50.67,175.034L403.748,393.19H209.155V69.325S260.365,68.277,275.457.674Z" transform="translate(899.922 8731)" fill="none" stroke="#000" stroke-miterlimit="10" stroke-width="1.026"/>
    <path id="Trazado_905844" data-name="Trazado 905844" d="M0,0V324.9" transform="translate(984.269 8799.285)" fill="none" stroke="#000" stroke-width="0.948" stroke-dasharray="5.686 5.686"/>
    <path id="Trazado_905845" data-name="Trazado 905845" d="M0,0V324.9" transform="translate(1039.904 8799.285)" fill="none" stroke="#000" stroke-width="0.989" stroke-dasharray="5.934 5.934"/>
    <path id="Trazado_905846" data-name="Trazado 905846" d="M0,0V324.9" transform="translate(924.384 8799.285)" fill="none" stroke="#000" stroke-width="0.948" stroke-dasharray="5.686 5.686"/>
    <path id="Trazado_905847" data-name="Trazado 905847" d="M0,0V324.9" transform="translate(1117.514 8799.285)" fill="none" stroke="#000" stroke-width="0.948" stroke-dasharray="5.686 5.686"/>
    <path id="Trazado_905848" data-name="Trazado 905848" d="M3.809-7.988H5.166a2.984,2.984,0,0,0,2.012-.674A2.251,2.251,0,0,0,7.91-10.43a2.205,2.205,0,0,0-2.49-2.5,2.59,2.59,0,0,0-1.87.669,2.341,2.341,0,0,0-.7,1.772H1.045A3.627,3.627,0,0,1,2.28-13.3a4.5,4.5,0,0,1,3.14-1.118A4.447,4.447,0,0,1,8.574-13.35a3.845,3.845,0,0,1,1.143,2.959,3.121,3.121,0,0,1-.6,1.8,3.626,3.626,0,0,1-1.636,1.3,3.494,3.494,0,0,1,1.812,1.23,3.417,3.417,0,0,1,.64,2.1A3.879,3.879,0,0,1,8.682-.928,4.681,4.681,0,0,1,5.43.2,4.8,4.8,0,0,1,2.173-.889,3.6,3.6,0,0,1,.918-3.75H2.734a2.324,2.324,0,0,0,.732,1.8,2.786,2.786,0,0,0,1.963.674,2.734,2.734,0,0,0,2-.684,2.634,2.634,0,0,0,.693-1.963,2.391,2.391,0,0,0-.762-1.9,3.319,3.319,0,0,0-2.2-.684H3.809ZM21.787-1.279a2.6,2.6,0,0,0,1.689-.586,2.061,2.061,0,0,0,.8-1.465h1.709A3.276,3.276,0,0,1,25.361-1.6,4.116,4.116,0,0,1,23.823-.293,4.438,4.438,0,0,1,21.787.2a4.353,4.353,0,0,1-3.433-1.44,5.737,5.737,0,0,1-1.274-3.94v-.3a6.361,6.361,0,0,1,.566-2.744A4.314,4.314,0,0,1,19.272-10.1a4.619,4.619,0,0,1,2.5-.664A4.238,4.238,0,0,1,24.731-9.7a3.8,3.8,0,0,1,1.255,2.764H24.277A2.49,2.49,0,0,0,23.5-8.618a2.415,2.415,0,0,0-1.724-.659,2.529,2.529,0,0,0-2.134.991,4.655,4.655,0,0,0-.757,2.866v.342a4.562,4.562,0,0,0,.752,2.813A2.541,2.541,0,0,0,21.787-1.279Zm7.93-9.287.049,1.172A3.9,3.9,0,0,1,32.9-10.762a3.021,3.021,0,0,1,3.018,1.7,4,4,0,0,1,1.372-1.23,4.052,4.052,0,0,1,2-.469q3.477,0,3.535,3.682V0H41.016V-6.973A2.426,2.426,0,0,0,40.5-8.667a2.279,2.279,0,0,0-1.738-.562,2.4,2.4,0,0,0-1.67.6,2.436,2.436,0,0,0-.771,1.616V0H34.5V-6.924a2.016,2.016,0,0,0-2.256-2.3,2.417,2.417,0,0,0-2.432,1.514V0H28.008V-10.566Z" transform="translate(961.582 8999.286) rotate(-90)"/>
    <path id="Trazado_905849" data-name="Trazado 905849" d="M0,0H22.529V44.18H0Z" transform="translate(944.472 8955.107)" fill="none"/>
    <path id="Trazado_905850" data-name="Trazado 905850" d="M0,0H22.529V44.18H0Z" transform="translate(944.472 8955.107)" fill="none"/>
    <path id="Trazado_905851" data-name="Trazado 905851" d="M3.809-7.988H5.166a2.984,2.984,0,0,0,2.012-.674A2.251,2.251,0,0,0,7.91-10.43a2.205,2.205,0,0,0-2.49-2.5,2.59,2.59,0,0,0-1.87.669,2.341,2.341,0,0,0-.7,1.772H1.045A3.627,3.627,0,0,1,2.28-13.3a4.5,4.5,0,0,1,3.14-1.118A4.447,4.447,0,0,1,8.574-13.35a3.845,3.845,0,0,1,1.143,2.959,3.121,3.121,0,0,1-.6,1.8,3.626,3.626,0,0,1-1.636,1.3,3.494,3.494,0,0,1,1.812,1.23,3.417,3.417,0,0,1,.64,2.1A3.879,3.879,0,0,1,8.682-.928,4.681,4.681,0,0,1,5.43.2,4.8,4.8,0,0,1,2.173-.889,3.6,3.6,0,0,1,.918-3.75H2.734a2.324,2.324,0,0,0,.732,1.8,2.786,2.786,0,0,0,1.963.674,2.734,2.734,0,0,0,2-.684,2.634,2.634,0,0,0,.693-1.963,2.391,2.391,0,0,0-.762-1.9,3.319,3.319,0,0,0-2.2-.684H3.809ZM21.787-1.279a2.6,2.6,0,0,0,1.689-.586,2.061,2.061,0,0,0,.8-1.465h1.709A3.276,3.276,0,0,1,25.361-1.6,4.116,4.116,0,0,1,23.823-.293,4.438,4.438,0,0,1,21.787.2a4.353,4.353,0,0,1-3.433-1.44,5.737,5.737,0,0,1-1.274-3.94v-.3a6.361,6.361,0,0,1,.566-2.744A4.314,4.314,0,0,1,19.272-10.1a4.619,4.619,0,0,1,2.5-.664A4.238,4.238,0,0,1,24.731-9.7a3.8,3.8,0,0,1,1.255,2.764H24.277A2.49,2.49,0,0,0,23.5-8.618a2.415,2.415,0,0,0-1.724-.659,2.529,2.529,0,0,0-2.134.991,4.655,4.655,0,0,0-.757,2.866v.342a4.562,4.562,0,0,0,.752,2.813A2.541,2.541,0,0,0,21.787-1.279Zm7.93-9.287.049,1.172A3.9,3.9,0,0,1,32.9-10.762a3.021,3.021,0,0,1,3.018,1.7,4,4,0,0,1,1.372-1.23,4.052,4.052,0,0,1,2-.469q3.477,0,3.535,3.682V0H41.016V-6.973A2.426,2.426,0,0,0,40.5-8.667a2.279,2.279,0,0,0-1.738-.562,2.4,2.4,0,0,0-1.67.6,2.436,2.436,0,0,0-.771,1.616V0H34.5V-6.924a2.016,2.016,0,0,0-2.256-2.3,2.417,2.417,0,0,0-2.432,1.514V0H28.008V-10.566Z" transform="translate(1019.12 8999.286) rotate(-90)"/>
    <path id="Trazado_905852" data-name="Trazado 905852" d="M0,0H22.529V44.18H0Z" transform="translate(1002.011 8955.107)" fill="none"/>
    <path id="Trazado_905853" data-name="Trazado 905853" d="M0,0H22.529V44.18H0Z" transform="translate(1002.011 8955.107)" fill="none"/>
    <path id="Trazado_905854" data-name="Trazado 905854" d="M10.1-6.064A8.263,8.263,0,0,1,9.014-1.348,3.855,3.855,0,0,1,5.625.2,3.883,3.883,0,0,1,2.256-1.313,7.843,7.843,0,0,1,1.123-5.82V-8.232a8.079,8.079,0,0,1,1.084-4.658,3.885,3.885,0,0,1,3.4-1.523,3.92,3.92,0,0,1,3.379,1.47A7.8,7.8,0,0,1,10.1-8.408ZM8.291-8.535a6.62,6.62,0,0,0-.645-3.345,2.218,2.218,0,0,0-2.041-1.05,2.189,2.189,0,0,0-2.021,1.045A6.464,6.464,0,0,0,2.93-8.672v2.891a6.726,6.726,0,0,0,.669,3.4,2.214,2.214,0,0,0,2.026,1.1A2.184,2.184,0,0,0,7.612-2.314a6.483,6.483,0,0,0,.679-3.262ZM12.637-.947a1.131,1.131,0,0,1,.278-.781,1.061,1.061,0,0,1,.835-.312,1.092,1.092,0,0,1,.845.313,1.109,1.109,0,0,1,.288.781,1.048,1.048,0,0,1-.288.752,1.112,1.112,0,0,1-.845.3,1.079,1.079,0,0,1-.835-.3A1.069,1.069,0,0,1,12.637-.947Zm5.869-6.182.723-7.09h7.285v1.67H20.762l-.43,3.877a4.588,4.588,0,0,1,2.373-.615A3.923,3.923,0,0,1,25.791-8a5.033,5.033,0,0,1,1.143,3.472,4.858,4.858,0,0,1-1.187,3.462A4.325,4.325,0,0,1,22.432.2,4.494,4.494,0,0,1,19.355-.85,4.171,4.171,0,0,1,18-3.74h1.709A2.869,2.869,0,0,0,20.576-1.9a2.7,2.7,0,0,0,1.855.62,2.438,2.438,0,0,0,1.978-.859,3.593,3.593,0,0,0,.718-2.373,3.3,3.3,0,0,0-.776-2.29,2.641,2.641,0,0,0-2.065-.864,2.978,2.978,0,0,0-1.855.518l-.479.391Zm19.775,5.85a2.6,2.6,0,0,0,1.689-.586,2.061,2.061,0,0,0,.8-1.465H42.48A3.276,3.276,0,0,1,41.855-1.6,4.116,4.116,0,0,1,40.317-.293,4.438,4.438,0,0,1,38.281.2a4.353,4.353,0,0,1-3.433-1.44,5.737,5.737,0,0,1-1.274-3.94v-.3a6.361,6.361,0,0,1,.566-2.744A4.314,4.314,0,0,1,35.767-10.1a4.619,4.619,0,0,1,2.5-.664A4.238,4.238,0,0,1,41.226-9.7,3.8,3.8,0,0,1,42.48-6.934H40.771A2.49,2.49,0,0,0,40-8.618a2.415,2.415,0,0,0-1.724-.659,2.529,2.529,0,0,0-2.134.991,4.655,4.655,0,0,0-.757,2.866v.342a4.562,4.562,0,0,0,.752,2.813A2.541,2.541,0,0,0,38.281-1.279Zm7.93-9.287.049,1.172a3.9,3.9,0,0,1,3.135-1.367,3.021,3.021,0,0,1,3.018,1.7,4,4,0,0,1,1.372-1.23,4.052,4.052,0,0,1,2-.469q3.477,0,3.535,3.682V0H57.51V-6.973a2.426,2.426,0,0,0-.518-1.694,2.279,2.279,0,0,0-1.738-.562,2.4,2.4,0,0,0-1.67.6,2.436,2.436,0,0,0-.771,1.616V0H51V-6.924a2.016,2.016,0,0,0-2.256-2.3,2.417,2.417,0,0,0-2.432,1.514V0H44.5V-10.566Z" transform="translate(1080.559 8780.586)"/>
    <path id="Trazado_905855" data-name="Trazado 905855" d="M0,0H59.336V22.529H0Z" transform="translate(1080.558 8763.477)" fill="none"/>
    <path id="Trazado_905856" data-name="Trazado 905856" d="M0,0H59.336V22.529H0Z" transform="translate(1080.558 8763.477)" fill="none"/>
    <path id="Trazado_905857" data-name="Trazado 905857" d="M7.119,0H5.3V-12.041L1.66-10.7v-1.641l5.176-1.943h.283ZM21.787-1.279a2.6,2.6,0,0,0,1.689-.586,2.061,2.061,0,0,0,.8-1.465h1.709A3.276,3.276,0,0,1,25.361-1.6,4.116,4.116,0,0,1,23.823-.293,4.438,4.438,0,0,1,21.787.2a4.353,4.353,0,0,1-3.433-1.44,5.737,5.737,0,0,1-1.274-3.94v-.3a6.361,6.361,0,0,1,.566-2.744A4.314,4.314,0,0,1,19.272-10.1a4.619,4.619,0,0,1,2.5-.664A4.238,4.238,0,0,1,24.731-9.7a3.8,3.8,0,0,1,1.255,2.764H24.277A2.49,2.49,0,0,0,23.5-8.618a2.415,2.415,0,0,0-1.724-.659,2.529,2.529,0,0,0-2.134.991,4.655,4.655,0,0,0-.757,2.866v.342a4.562,4.562,0,0,0,.752,2.813A2.541,2.541,0,0,0,21.787-1.279Zm7.93-9.287.049,1.172A3.9,3.9,0,0,1,32.9-10.762a3.021,3.021,0,0,1,3.018,1.7,4,4,0,0,1,1.372-1.23,4.052,4.052,0,0,1,2-.469q3.477,0,3.535,3.682V0H41.016V-6.973A2.426,2.426,0,0,0,40.5-8.667a2.279,2.279,0,0,0-1.738-.562,2.4,2.4,0,0,0-1.67.6,2.436,2.436,0,0,0-.771,1.616V0H34.5V-6.924a2.016,2.016,0,0,0-2.256-2.3,2.417,2.417,0,0,0-2.432,1.514V0H28.008V-10.566Z" transform="translate(1063.285 8997.384) rotate(-90)"/>
    <path id="Trazado_905858" data-name="Trazado 905858" d="M0,0H22.529V44.18H0Z" transform="translate(1046.176 8953.204)" fill="none"/>
    <path id="Trazado_905859" data-name="Trazado 905859" d="M0,0H22.529V44.18H0Z" transform="translate(1046.176 8953.204)" fill="none"/>
    <path id="Trazado_905860" data-name="Trazado 905860" d="M0,0H168.625V324.9H0Z" transform="translate(900.457 8799.287)" fill="none" stroke="#000" stroke-width="1.069"/>
    <path id="Trazado_905861" data-name="Trazado 905861" d="M1.733,0V-14.93H6.614a5.666,5.666,0,0,1,3.656,1,3.622,3.622,0,0,1,1.225,2.974A3.032,3.032,0,0,1,10.9-9.1,3.855,3.855,0,0,1,9.28-7.854a3.462,3.462,0,0,1,1.912,1.287,3.693,3.693,0,0,1,.7,2.261,3.993,3.993,0,0,1-1.3,3.158A5.385,5.385,0,0,1,6.911,0ZM3.7-6.983V-1.61h3.25a3.13,3.13,0,0,0,2.169-.713,2.5,2.5,0,0,0,.795-1.964q0-2.7-2.933-2.7Zm0-1.579H6.675a3.117,3.117,0,0,0,2.066-.647,2.17,2.17,0,0,0,.774-1.757A2.134,2.134,0,0,0,8.8-12.76a3.525,3.525,0,0,0-2.184-.56H3.7ZM14.007-5.65a6.553,6.553,0,0,1,.641-2.933,4.781,4.781,0,0,1,1.784-2.01,4.857,4.857,0,0,1,2.61-.708,4.679,4.679,0,0,1,3.666,1.569,6.036,6.036,0,0,1,1.4,4.173v.133a6.61,6.61,0,0,1-.62,2.907,4.71,4.71,0,0,1-1.774,2,4.913,4.913,0,0,1-2.651.718,4.667,4.667,0,0,1-3.656-1.569,6.005,6.005,0,0,1-1.4-4.153Zm1.907.226a4.746,4.746,0,0,0,.856,2.963,2.74,2.74,0,0,0,2.292,1.118,2.724,2.724,0,0,0,2.3-1.133A5.19,5.19,0,0,0,22.21-5.65a4.738,4.738,0,0,0-.866-2.958,2.755,2.755,0,0,0-2.3-1.133,2.724,2.724,0,0,0-2.266,1.118A5.152,5.152,0,0,0,15.914-5.424ZM29.06-13.781v2.687h2.071v1.466H29.06v6.889a1.54,1.54,0,0,0,.277,1,1.165,1.165,0,0,0,.943.334,4.593,4.593,0,0,0,.9-.123V0a5.532,5.532,0,0,1-1.456.2,2.362,2.362,0,0,1-1.917-.769,3.3,3.3,0,0,1-.646-2.184v-6.88h-2.02v-1.466h2.02v-2.687Zm3.39,8.131a6.553,6.553,0,0,1,.641-2.933,4.781,4.781,0,0,1,1.784-2.01,4.857,4.857,0,0,1,2.61-.708A4.679,4.679,0,0,1,41.15-9.731a6.036,6.036,0,0,1,1.4,4.173v.133a6.61,6.61,0,0,1-.62,2.907,4.71,4.71,0,0,1-1.774,2A4.913,4.913,0,0,1,37.5.205a4.667,4.667,0,0,1-3.656-1.569,6.005,6.005,0,0,1-1.4-4.153Zm1.907.226a4.746,4.746,0,0,0,.856,2.963A2.74,2.74,0,0,0,37.5-1.343a2.724,2.724,0,0,0,2.3-1.133,5.19,5.19,0,0,0,.851-3.174,4.738,4.738,0,0,0-.866-2.958,2.755,2.755,0,0,0-2.3-1.133,2.724,2.724,0,0,0-2.266,1.118A5.152,5.152,0,0,0,34.356-5.424Zm12.366-5.67L46.784-9.7a4.043,4.043,0,0,1,3.322-1.6q3.517,0,3.548,3.968V0h-1.9V-7.342a2.554,2.554,0,0,0-.549-1.774,2.2,2.2,0,0,0-1.677-.574,2.738,2.738,0,0,0-1.62.492,3.342,3.342,0,0,0-1.087,1.292V0h-1.9V-11.095Zm14.4,11.3a4.848,4.848,0,0,1-3.671-1.482A5.5,5.5,0,0,1,56.033-5.24v-.349a6.658,6.658,0,0,1,.631-2.948,4.919,4.919,0,0,1,1.764-2.03,4.434,4.434,0,0,1,2.456-.733,4.155,4.155,0,0,1,3.363,1.425,6.171,6.171,0,0,1,1.2,4.081V-5H57.93a3.944,3.944,0,0,0,.959,2.651,3.014,3.014,0,0,0,2.333,1.01,3.3,3.3,0,0,0,1.7-.41,4.277,4.277,0,0,0,1.22-1.087l1.159.9A4.659,4.659,0,0,1,61.119.205Zm-.236-9.946a2.53,2.53,0,0,0-1.928.836,4.062,4.062,0,0,0-.964,2.343h5.558v-.144a3.613,3.613,0,0,0-.779-2.24A2.382,2.382,0,0,0,60.883-9.741ZM73-9.393a5.685,5.685,0,0,0-.933-.072,2.5,2.5,0,0,0-2.533,1.589V0h-1.9V-11.095h1.846l.031,1.282A2.954,2.954,0,0,1,72.163-11.3a1.938,1.938,0,0,1,.841.144ZM80.787,0a3.985,3.985,0,0,1-.267-1.169A4.233,4.233,0,0,1,77.362.205a3.916,3.916,0,0,1-2.692-.928A3,3,0,0,1,73.62-3.076a3.136,3.136,0,0,1,1.318-2.692,6.212,6.212,0,0,1,3.707-.959H80.49V-7.6a2.131,2.131,0,0,0-.595-1.584,2.39,2.39,0,0,0-1.753-.59,2.766,2.766,0,0,0-1.7.513,1.511,1.511,0,0,0-.687,1.241H73.845a2.618,2.618,0,0,1,.59-1.6,4.024,4.024,0,0,1,1.6-1.225,5.381,5.381,0,0,1,2.22-.451,4.386,4.386,0,0,1,3,.959A3.458,3.458,0,0,1,82.387-7.7v5.106a6.243,6.243,0,0,0,.39,2.43V0ZM77.639-1.446a3.334,3.334,0,0,0,1.692-.461,2.791,2.791,0,0,0,1.159-1.2V-5.383H79q-3.486,0-3.486,2.041a1.727,1.727,0,0,0,.595,1.395A2.286,2.286,0,0,0,77.639-1.446Zm19.38-1.5a1.4,1.4,0,0,0-.579-1.195,5.576,5.576,0,0,0-2.02-.733,9.551,9.551,0,0,1-2.287-.738,3.253,3.253,0,0,1-1.251-1.025,2.453,2.453,0,0,1-.405-1.415,2.878,2.878,0,0,1,1.154-2.307,4.505,4.505,0,0,1,2.948-.943,4.636,4.636,0,0,1,3.061.974,3.094,3.094,0,0,1,1.174,2.492H96.906a1.713,1.713,0,0,0-.661-1.343,2.478,2.478,0,0,0-1.666-.564,2.593,2.593,0,0,0-1.62.451,1.42,1.42,0,0,0-.584,1.179,1.151,1.151,0,0,0,.543,1.036,6.687,6.687,0,0,0,1.964.667,10.231,10.231,0,0,1,2.3.759A3.358,3.358,0,0,1,98.49-4.589a2.609,2.609,0,0,1,.426,1.512A2.839,2.839,0,0,1,97.726-.692a4.989,4.989,0,0,1-3.086.9,5.587,5.587,0,0,1-2.358-.472,3.836,3.836,0,0,1-1.6-1.318,3.176,3.176,0,0,1-.579-1.83h1.9A1.964,1.964,0,0,0,92.758-1.9a2.964,2.964,0,0,0,1.882.559,3.059,3.059,0,0,0,1.728-.436A1.339,1.339,0,0,0,97.019-2.943ZM105.991.205a4.848,4.848,0,0,1-3.671-1.482,5.5,5.5,0,0,1-1.415-3.963v-.349a6.658,6.658,0,0,1,.631-2.948,4.919,4.919,0,0,1,1.764-2.03,4.434,4.434,0,0,1,2.456-.733,4.155,4.155,0,0,1,3.363,1.425,6.171,6.171,0,0,1,1.2,4.081V-5H102.8a3.944,3.944,0,0,0,.959,2.651,3.014,3.014,0,0,0,2.333,1.01,3.3,3.3,0,0,0,1.7-.41,4.277,4.277,0,0,0,1.22-1.087l1.159.9A4.659,4.659,0,0,1,105.991.205Zm-.236-9.946a2.53,2.53,0,0,0-1.928.836,4.062,4.062,0,0,0-.964,2.343h5.558v-.144a3.613,3.613,0,0,0-.779-2.24A2.382,2.382,0,0,0,105.755-9.741Zm16.129,4.317a6.643,6.643,0,0,1-1.159,4.081A3.714,3.714,0,0,1,117.588.205a4.069,4.069,0,0,1-3.179-1.282V4.266h-1.9v-15.36h1.733l.092,1.23a3.908,3.908,0,0,1,3.22-1.436,3.783,3.783,0,0,1,3.163,1.507A6.716,6.716,0,0,1,121.885-5.6Zm-1.9-.215a4.9,4.9,0,0,0-.8-2.963,2.576,2.576,0,0,0-2.194-1.087,2.789,2.789,0,0,0-2.584,1.528v5.3a2.794,2.794,0,0,0,2.6,1.518,2.564,2.564,0,0,0,2.169-1.082A5.351,5.351,0,0,0,119.988-5.64ZM131.144,0a3.985,3.985,0,0,1-.267-1.169A4.233,4.233,0,0,1,127.719.205a3.916,3.916,0,0,1-2.692-.928,3,3,0,0,1-1.051-2.353,3.136,3.136,0,0,1,1.318-2.692A6.212,6.212,0,0,1,129-6.727h1.846V-7.6a2.131,2.131,0,0,0-.595-1.584,2.39,2.39,0,0,0-1.753-.59,2.766,2.766,0,0,0-1.7.513,1.511,1.511,0,0,0-.687,1.241H124.2a2.618,2.618,0,0,1,.59-1.6,4.024,4.024,0,0,1,1.6-1.225,5.381,5.381,0,0,1,2.22-.451,4.386,4.386,0,0,1,3,.959,3.458,3.458,0,0,1,1.128,2.64v5.106a6.243,6.243,0,0,0,.39,2.43V0ZM128-1.446a3.334,3.334,0,0,0,1.692-.461,2.791,2.791,0,0,0,1.159-1.2V-5.383H129.36q-3.486,0-3.486,2.041a1.727,1.727,0,0,0,.595,1.395A2.286,2.286,0,0,0,128-1.446ZM141.08-9.393a5.685,5.685,0,0,0-.933-.072,2.5,2.5,0,0,0-2.533,1.589V0h-1.9V-11.095h1.846l.031,1.282a2.954,2.954,0,0,1,2.646-1.487,1.938,1.938,0,0,1,.841.144ZM148.864,0a3.985,3.985,0,0,1-.267-1.169A4.233,4.233,0,0,1,145.439.205a3.916,3.916,0,0,1-2.692-.928A3,3,0,0,1,141.7-3.076a3.136,3.136,0,0,1,1.318-2.692,6.212,6.212,0,0,1,3.707-.959h1.846V-7.6a2.131,2.131,0,0,0-.595-1.584,2.39,2.39,0,0,0-1.753-.59,2.766,2.766,0,0,0-1.7.513,1.511,1.511,0,0,0-.687,1.241h-1.907a2.618,2.618,0,0,1,.59-1.6,4.024,4.024,0,0,1,1.6-1.225,5.381,5.381,0,0,1,2.22-.451,4.386,4.386,0,0,1,3,.959,3.458,3.458,0,0,1,1.128,2.64v5.106a6.243,6.243,0,0,0,.39,2.43V0Zm-3.148-1.446a3.334,3.334,0,0,0,1.692-.461,2.791,2.791,0,0,0,1.159-1.2V-5.383h-1.487q-3.486,0-3.486,2.041a1.727,1.727,0,0,0,.595,1.395A2.286,2.286,0,0,0,145.716-1.446Zm7.26-4.194a6.5,6.5,0,0,1,1.21-4.107,3.826,3.826,0,0,1,3.168-1.553,3.848,3.848,0,0,1,3.086,1.333V-15.75h1.9V0h-1.743L160.5-1.189A3.863,3.863,0,0,1,157.333.205a3.789,3.789,0,0,1-3.143-1.579A6.573,6.573,0,0,1,152.975-5.5Zm1.9.215a4.921,4.921,0,0,0,.779,2.953A2.519,2.519,0,0,0,157.8-1.4a2.767,2.767,0,0,0,2.635-1.62v-5.1a2.789,2.789,0,0,0-2.615-1.569,2.531,2.531,0,0,0-2.174,1.077A5.418,5.418,0,0,0,154.872-5.424ZM172.13,0a3.985,3.985,0,0,1-.267-1.169A4.233,4.233,0,0,1,168.7.205a3.916,3.916,0,0,1-2.692-.928,3,3,0,0,1-1.051-2.353,3.136,3.136,0,0,1,1.318-2.692,6.212,6.212,0,0,1,3.707-.959h1.846V-7.6a2.131,2.131,0,0,0-.595-1.584,2.39,2.39,0,0,0-1.753-.59,2.766,2.766,0,0,0-1.7.513,1.511,1.511,0,0,0-.687,1.241h-1.907a2.618,2.618,0,0,1,.59-1.6,4.024,4.024,0,0,1,1.6-1.225,5.381,5.381,0,0,1,2.22-.451,4.386,4.386,0,0,1,3,.959,3.458,3.458,0,0,1,1.128,2.64v5.106a6.243,6.243,0,0,0,.39,2.43V0Zm-3.148-1.446a3.334,3.334,0,0,0,1.692-.461,2.791,2.791,0,0,0,1.159-1.2V-5.383h-1.487q-3.486,0-3.486,2.041a1.727,1.727,0,0,0,.595,1.395A2.286,2.286,0,0,0,168.982-1.446Z" transform="translate(1133.932 8996.165)"/>
    <path id="Trazado_905862" data-name="Trazado 905862" d="M0,0H176.255V23.656H0Z" transform="translate(1133.931 8978.201)" fill="none"/>
    <path id="Trazado_905863" data-name="Trazado 905863" d="M0,0H176.255V23.656H0Z" transform="translate(1133.931 8978.201)" fill="none"/>
    <path id="Trazado_905864" data-name="Trazado 905864" d="M0,58.481V0" transform="translate(1214.946 9048.887)" fill="none" stroke="#000" stroke-width="1"/>
    <path id="Trazado_905173" data-name="Trazado 905173" d="M307.893,375.411h14.263l-7.131,7.128Z" transform="translate(899.922 8731)"/>
    <path id="Trazado_905174" data-name="Trazado 905174" d="M307.893,318.842h14.263l-7.131-7.128Z" transform="translate(899.922 8731)"/>
    <path id="Trazado_905865" data-name="Trazado 905865" d="M0,0H435.078V393.726H0Z" transform="translate(899.922 8731)" fill="none"/>
  </g>
</svg>
