<svg xmlns="http://www.w3.org/2000/svg" width="408.854" height="257.411" viewBox="0 0 408.854 257.411">
  <g id="Grupo_1114945" data-name="Grupo 1114945" transform="translate(2838.552 4084.244)">
    <path id="Trazado_904023" data-name="Trazado 904023" d="M.908,0V-7.82H3.115a3.554,3.554,0,0,1,1.8.451A3.051,3.051,0,0,1,6.131-6.085a4.178,4.178,0,0,1,.432,1.912v.5a4.193,4.193,0,0,1-.427,1.939A3,3,0,0,1,4.917-.457,3.78,3.78,0,0,1,3.072,0ZM1.939-6.977V-.843H3.024A2.361,2.361,0,0,0,4.88-1.585,3.065,3.065,0,0,0,5.543-3.7v-.457a3.114,3.114,0,0,0-.626-2.072,2.227,2.227,0,0,0-1.775-.75ZM7.7-2.959A3.433,3.433,0,0,1,8.038-4.5a2.5,2.5,0,0,1,.935-1.053,2.544,2.544,0,0,1,1.367-.371,2.451,2.451,0,0,1,1.92.822,3.162,3.162,0,0,1,.733,2.186v.07a3.462,3.462,0,0,1-.325,1.523,2.467,2.467,0,0,1-.929,1.05A2.573,2.573,0,0,1,10.35.107,2.445,2.445,0,0,1,8.435-.714,3.146,3.146,0,0,1,7.7-2.89Zm1,.118A2.486,2.486,0,0,0,9.15-1.289a1.435,1.435,0,0,0,1.2.585,1.427,1.427,0,0,0,1.2-.594A2.719,2.719,0,0,0,12-2.959a2.482,2.482,0,0,0-.454-1.55A1.443,1.443,0,0,0,10.339-5.1a1.427,1.427,0,0,0-1.187.585A2.7,2.7,0,0,0,8.7-2.841Zm10.458,0A3.455,3.455,0,0,1,18.546-.7,1.956,1.956,0,0,1,16.9.107a2.026,2.026,0,0,1-1.7-.779L15.152,0h-.913V-8.25h.994v3.078a2.014,2.014,0,0,1,1.66-.747,1.968,1.968,0,0,1,1.662.8,3.559,3.559,0,0,1,.6,2.191Zm-.994-.113a2.685,2.685,0,0,0-.392-1.568,1.3,1.3,0,0,0-1.128-.553,1.459,1.459,0,0,0-1.413.913v2.514a1.5,1.5,0,0,0,1.423.913,1.291,1.291,0,0,0,1.112-.553A2.855,2.855,0,0,0,18.165-2.954ZM21.49,0H20.5V-8.25h.994Zm4,.107a2.539,2.539,0,0,1-1.923-.776,2.881,2.881,0,0,1-.741-2.076v-.183a3.487,3.487,0,0,1,.33-1.544,2.577,2.577,0,0,1,.924-1.063,2.323,2.323,0,0,1,1.286-.384,2.177,2.177,0,0,1,1.762.747,3.232,3.232,0,0,1,.628,2.138v.414H23.821a2.066,2.066,0,0,0,.5,1.388A1.579,1.579,0,0,0,25.545-.7a1.731,1.731,0,0,0,.892-.215,2.24,2.24,0,0,0,.639-.569l.607.473A2.44,2.44,0,0,1,25.491.107ZM25.368-5.1a1.325,1.325,0,0,0-1.01.438,2.128,2.128,0,0,0-.5,1.227h2.911v-.075a1.893,1.893,0,0,0-.408-1.174A1.248,1.248,0,0,0,25.368-5.1ZM29.842-.811h3.4V0H28.628V-.73L31.834-4.99H28.676v-.822h4.4v.7Zm7-2.143a3.4,3.4,0,0,1,.634-2.151,2,2,0,0,1,1.66-.814,2.016,2.016,0,0,1,1.617.7V-8.25h.994V0h-.913l-.048-.623a2.024,2.024,0,0,1-1.66.73A1.985,1.985,0,0,1,37.477-.72a3.443,3.443,0,0,1-.636-2.159Zm.994.113a2.578,2.578,0,0,0,.408,1.547,1.32,1.32,0,0,0,1.128.559,1.45,1.45,0,0,0,1.38-.849V-4.254a1.461,1.461,0,0,0-1.37-.822,1.326,1.326,0,0,0-1.139.564A2.838,2.838,0,0,0,37.834-2.841ZM45.7.107a2.539,2.539,0,0,1-1.923-.776,2.881,2.881,0,0,1-.741-2.076v-.183a3.487,3.487,0,0,1,.33-1.544,2.577,2.577,0,0,1,.924-1.063,2.323,2.323,0,0,1,1.286-.384,2.177,2.177,0,0,1,1.762.747,3.232,3.232,0,0,1,.628,2.138v.414H44.027a2.066,2.066,0,0,0,.5,1.388A1.579,1.579,0,0,0,45.751-.7a1.731,1.731,0,0,0,.892-.215,2.24,2.24,0,0,0,.639-.569l.607.473A2.44,2.44,0,0,1,45.7.107ZM45.574-5.1a1.325,1.325,0,0,0-1.01.438,2.128,2.128,0,0,0-.5,1.227H46.97v-.075a1.893,1.893,0,0,0-.408-1.174A1.248,1.248,0,0,0,45.574-5.1ZM54.167-.7a1.431,1.431,0,0,0,.929-.322,1.134,1.134,0,0,0,.44-.806h.94a1.8,1.8,0,0,1-.344.951,2.264,2.264,0,0,1-.846.72,2.441,2.441,0,0,1-1.12.269A2.394,2.394,0,0,1,52.28-.685a3.155,3.155,0,0,1-.7-2.167v-.167a3.5,3.5,0,0,1,.312-1.509,2.373,2.373,0,0,1,.894-1.026,2.54,2.54,0,0,1,1.378-.365,2.331,2.331,0,0,1,1.625.585,2.092,2.092,0,0,1,.69,1.52h-.94a1.369,1.369,0,0,0-.427-.927,1.328,1.328,0,0,0-.948-.363,1.391,1.391,0,0,0-1.174.545,2.56,2.56,0,0,0-.416,1.576v.188a2.509,2.509,0,0,0,.414,1.547A1.4,1.4,0,0,0,54.167-.7Zm7.015.129a2.111,2.111,0,0,1-1.7.682,1.807,1.807,0,0,1-1.415-.54,2.336,2.336,0,0,1-.491-1.6V-5.812h.994v3.754q0,1.321,1.074,1.321a1.487,1.487,0,0,0,1.515-.849V-5.812h.994V0H61.2ZM66.07.107a2.539,2.539,0,0,1-1.923-.776,2.881,2.881,0,0,1-.741-2.076v-.183a3.487,3.487,0,0,1,.33-1.544,2.577,2.577,0,0,1,.924-1.063,2.323,2.323,0,0,1,1.286-.384,2.177,2.177,0,0,1,1.762.747,3.232,3.232,0,0,1,.628,2.138v.414H64.4a2.066,2.066,0,0,0,.5,1.388A1.579,1.579,0,0,0,66.124-.7a1.731,1.731,0,0,0,.892-.215,2.24,2.24,0,0,0,.639-.569l.607.473A2.44,2.44,0,0,1,66.07.107ZM65.946-5.1a1.325,1.325,0,0,0-1.01.438,2.128,2.128,0,0,0-.5,1.227h2.911v-.075a1.893,1.893,0,0,0-.408-1.174A1.248,1.248,0,0,0,65.946-5.1ZM70.565,0h-.994V-8.25h.994Zm2.669,0h-.994V-8.25h.994Zm1.327-2.959A3.433,3.433,0,0,1,74.9-4.5a2.5,2.5,0,0,1,.935-1.053A2.544,2.544,0,0,1,77.2-5.919a2.451,2.451,0,0,1,1.92.822,3.162,3.162,0,0,1,.733,2.186v.07a3.462,3.462,0,0,1-.325,1.523A2.467,2.467,0,0,1,78.6-.269a2.573,2.573,0,0,1-1.388.376,2.445,2.445,0,0,1-1.915-.822,3.146,3.146,0,0,1-.733-2.175Zm1,.118a2.486,2.486,0,0,0,.448,1.552,1.435,1.435,0,0,0,1.2.585,1.427,1.427,0,0,0,1.2-.594,2.719,2.719,0,0,0,.446-1.662,2.482,2.482,0,0,0-.454-1.55A1.443,1.443,0,0,0,77.2-5.1a1.427,1.427,0,0,0-1.187.585A2.7,2.7,0,0,0,75.561-2.841Z" transform="translate(-2774.151 -4075.692)"/>
    <path id="Trazado_904024" data-name="Trazado 904024" d="M0,0H408.854V257.411H0Z" transform="translate(-2838.552 -4084.244)" fill="none"/>
    <path id="Trazado_904025" data-name="Trazado 904025" d="M.908,0V-7.82H3.464a2.968,2.968,0,0,1,1.915.526,1.9,1.9,0,0,1,.642,1.558,1.588,1.588,0,0,1-.312.969,2.02,2.02,0,0,1-.849.653,1.814,1.814,0,0,1,1,.674A1.935,1.935,0,0,1,6.23-2.256,2.092,2.092,0,0,1,5.548-.6,2.821,2.821,0,0,1,3.62,0ZM1.939-3.658V-.843h1.7a1.639,1.639,0,0,0,1.136-.373,1.311,1.311,0,0,0,.416-1.029q0-1.413-1.536-1.413Zm0-.827H3.5a1.633,1.633,0,0,0,1.082-.339,1.137,1.137,0,0,0,.406-.92,1.118,1.118,0,0,0-.376-.939,1.846,1.846,0,0,0-1.144-.293H1.939ZM11.188,0a2.087,2.087,0,0,1-.14-.612,2.217,2.217,0,0,1-1.654.72,2.051,2.051,0,0,1-1.41-.486,1.573,1.573,0,0,1-.551-1.233,1.643,1.643,0,0,1,.69-1.41,3.254,3.254,0,0,1,1.942-.5h.967V-3.98a1.116,1.116,0,0,0-.312-.83A1.252,1.252,0,0,0,9.8-5.119a1.449,1.449,0,0,0-.892.269.791.791,0,0,0-.36.65h-1a1.371,1.371,0,0,1,.309-.841A2.108,2.108,0,0,1,8.7-5.683a2.819,2.819,0,0,1,1.163-.236,2.3,2.3,0,0,1,1.574.5,1.812,1.812,0,0,1,.591,1.383v2.675a3.27,3.27,0,0,0,.2,1.273V0ZM9.539-.757A1.746,1.746,0,0,0,10.425-1a1.462,1.462,0,0,0,.607-.628V-2.82h-.779q-1.826,0-1.826,1.069a.9.9,0,0,0,.312.73A1.2,1.2,0,0,0,9.539-.757Zm7.428-.784a.732.732,0,0,0-.3-.626,2.921,2.921,0,0,0-1.058-.384,5,5,0,0,1-1.2-.387,1.7,1.7,0,0,1-.655-.537,1.285,1.285,0,0,1-.212-.741,1.508,1.508,0,0,1,.6-1.208,2.36,2.36,0,0,1,1.544-.494,2.428,2.428,0,0,1,1.6.51A1.621,1.621,0,0,1,17.907-4.1h-1a.9.9,0,0,0-.346-.7,1.3,1.3,0,0,0-.873-.3,1.358,1.358,0,0,0-.849.236.744.744,0,0,0-.306.618.6.6,0,0,0,.285.542,3.5,3.5,0,0,0,1.029.349,5.359,5.359,0,0,1,1.206.4,1.759,1.759,0,0,1,.685.556,1.367,1.367,0,0,1,.223.792,1.487,1.487,0,0,1-.623,1.249,2.613,2.613,0,0,1-1.617.47A2.926,2.926,0,0,1,14.486-.14a2.009,2.009,0,0,1-.841-.69,1.664,1.664,0,0,1-.3-.959h.994a1.029,1.029,0,0,0,.4.792,1.552,1.552,0,0,0,.986.293,1.6,1.6,0,0,0,.905-.228A.7.7,0,0,0,16.967-1.542Zm4.7,1.649a2.539,2.539,0,0,1-1.923-.776A2.881,2.881,0,0,1,19-2.745v-.183a3.487,3.487,0,0,1,.33-1.544,2.577,2.577,0,0,1,.924-1.063,2.323,2.323,0,0,1,1.286-.384,2.177,2.177,0,0,1,1.762.747,3.232,3.232,0,0,1,.628,2.138v.414H20a2.066,2.066,0,0,0,.5,1.388A1.579,1.579,0,0,0,21.721-.7a1.731,1.731,0,0,0,.892-.215,2.24,2.24,0,0,0,.639-.569l.607.473A2.44,2.44,0,0,1,21.667.107ZM21.543-5.1a1.325,1.325,0,0,0-1.01.438,2.128,2.128,0,0,0-.5,1.227H22.94v-.075a1.893,1.893,0,0,0-.408-1.174A1.248,1.248,0,0,0,21.543-5.1Z" transform="translate(-2650.289 -4008.533)"/>
    <path id="Trazado_904026" data-name="Trazado 904026" d="M1.939-3.062V0H.908V-7.82H3.792A2.9,2.9,0,0,1,5.8-7.165,2.222,2.222,0,0,1,6.531-5.43,2.192,2.192,0,0,1,5.82-3.677a3.027,3.027,0,0,1-2.038.615Zm0-.843H3.792a1.853,1.853,0,0,0,1.268-.39A1.426,1.426,0,0,0,5.5-5.422a1.474,1.474,0,0,0-.44-1.119,1.736,1.736,0,0,0-1.208-.436H1.939ZM8.771,0H7.777V-5.812h.994ZM7.7-7.353a.593.593,0,0,1,.148-.408.555.555,0,0,1,.438-.167.563.563,0,0,1,.44.167.587.587,0,0,1,.15.408.568.568,0,0,1-.15.4.573.573,0,0,1-.44.161.565.565,0,0,1-.438-.161A.573.573,0,0,1,7.7-7.353ZM12.772.107A2.539,2.539,0,0,1,10.85-.669a2.881,2.881,0,0,1-.741-2.076v-.183a3.487,3.487,0,0,1,.33-1.544,2.577,2.577,0,0,1,.924-1.063,2.323,2.323,0,0,1,1.286-.384,2.177,2.177,0,0,1,1.762.747,3.232,3.232,0,0,1,.628,2.138v.414H11.1a2.066,2.066,0,0,0,.5,1.388A1.579,1.579,0,0,0,12.826-.7a1.731,1.731,0,0,0,.892-.215,2.24,2.24,0,0,0,.639-.569l.607.473A2.44,2.44,0,0,1,12.772.107ZM12.649-5.1a1.325,1.325,0,0,0-1.01.438,2.128,2.128,0,0,0-.5,1.227h2.911v-.075a1.893,1.893,0,0,0-.408-1.174A1.248,1.248,0,0,0,12.649-5.1ZM18.67-2.954A3.4,3.4,0,0,1,19.3-5.105a2,2,0,0,1,1.66-.814,2.016,2.016,0,0,1,1.617.7V-8.25h.994V0h-.913l-.048-.623a2.024,2.024,0,0,1-1.66.73A1.985,1.985,0,0,1,19.306-.72a3.443,3.443,0,0,1-.636-2.159Zm.994.113a2.578,2.578,0,0,0,.408,1.547A1.32,1.32,0,0,0,21.2-.736a1.45,1.45,0,0,0,1.38-.849V-4.254a1.461,1.461,0,0,0-1.37-.822,1.326,1.326,0,0,0-1.139.564A2.838,2.838,0,0,0,19.664-2.841ZM27.527.107A2.539,2.539,0,0,1,25.6-.669a2.881,2.881,0,0,1-.741-2.076v-.183a3.487,3.487,0,0,1,.33-1.544,2.577,2.577,0,0,1,.924-1.063A2.323,2.323,0,0,1,27.4-5.919a2.177,2.177,0,0,1,1.762.747,3.232,3.232,0,0,1,.628,2.138v.414H25.856a2.066,2.066,0,0,0,.5,1.388A1.579,1.579,0,0,0,27.581-.7a1.731,1.731,0,0,0,.892-.215,2.24,2.24,0,0,0,.639-.569l.607.473A2.44,2.44,0,0,1,27.527.107ZM27.4-5.1a1.325,1.325,0,0,0-1.01.438,2.128,2.128,0,0,0-.5,1.227H28.8v-.075a1.893,1.893,0,0,0-.408-1.174A1.248,1.248,0,0,0,27.4-5.1ZM36-.7a1.431,1.431,0,0,0,.929-.322,1.134,1.134,0,0,0,.44-.806h.94a1.8,1.8,0,0,1-.344.951,2.264,2.264,0,0,1-.846.72A2.441,2.441,0,0,1,36,.107a2.394,2.394,0,0,1-1.888-.792,3.155,3.155,0,0,1-.7-2.167v-.167a3.5,3.5,0,0,1,.312-1.509,2.373,2.373,0,0,1,.894-1.026,2.54,2.54,0,0,1,1.378-.365,2.331,2.331,0,0,1,1.625.585,2.092,2.092,0,0,1,.69,1.52h-.94a1.369,1.369,0,0,0-.427-.927,1.328,1.328,0,0,0-.948-.363,1.391,1.391,0,0,0-1.174.545A2.56,2.56,0,0,0,34.4-2.981v.188a2.509,2.509,0,0,0,.414,1.547A1.4,1.4,0,0,0,36-.7Zm7.015.129a2.111,2.111,0,0,1-1.7.682,1.807,1.807,0,0,1-1.415-.54,2.336,2.336,0,0,1-.491-1.6V-5.812H40.4v3.754q0,1.321,1.074,1.321a1.487,1.487,0,0,0,1.515-.849V-5.812h.994V0h-.945ZM47.9.107a2.539,2.539,0,0,1-1.923-.776,2.881,2.881,0,0,1-.741-2.076v-.183a3.487,3.487,0,0,1,.33-1.544,2.577,2.577,0,0,1,.924-1.063,2.323,2.323,0,0,1,1.286-.384,2.177,2.177,0,0,1,1.762.747,3.232,3.232,0,0,1,.628,2.138v.414H46.229a2.066,2.066,0,0,0,.5,1.388A1.579,1.579,0,0,0,47.953-.7a1.731,1.731,0,0,0,.892-.215,2.24,2.24,0,0,0,.639-.569l.607.473A2.44,2.44,0,0,1,47.9.107ZM47.776-5.1a1.325,1.325,0,0,0-1.01.438,2.128,2.128,0,0,0-.5,1.227h2.911v-.075a1.893,1.893,0,0,0-.408-1.174A1.248,1.248,0,0,0,47.776-5.1ZM52.4,0H51.4V-8.25H52.4Zm2.669,0h-.994V-8.25h.994Zm1.327-2.959A3.433,3.433,0,0,1,56.727-4.5a2.5,2.5,0,0,1,.935-1.053,2.544,2.544,0,0,1,1.367-.371,2.451,2.451,0,0,1,1.92.822,3.162,3.162,0,0,1,.733,2.186v.07a3.463,3.463,0,0,1-.325,1.523,2.467,2.467,0,0,1-.929,1.05,2.573,2.573,0,0,1-1.388.376,2.445,2.445,0,0,1-1.915-.822,3.146,3.146,0,0,1-.733-2.175Zm1,.118a2.486,2.486,0,0,0,.448,1.552,1.435,1.435,0,0,0,1.2.585,1.427,1.427,0,0,0,1.2-.594,2.719,2.719,0,0,0,.446-1.662,2.482,2.482,0,0,0-.454-1.55A1.443,1.443,0,0,0,59.028-5.1a1.427,1.427,0,0,0-1.187.585A2.7,2.7,0,0,0,57.39-2.841Z" transform="translate(-2838.552 -3980.293)"/>
    <path id="Trazado_904027" data-name="Trazado 904027" d="M5.328-3.615H1.939V-.843H5.876V0H.908V-7.82H5.822v.843H1.939v2.519H5.328Zm2.616-2.2.032.73a2.118,2.118,0,0,1,1.74-.838q1.842,0,1.858,2.079V0h-.994V-3.846a1.338,1.338,0,0,0-.287-.929,1.152,1.152,0,0,0-.878-.3,1.434,1.434,0,0,0-.849.258A1.751,1.751,0,0,0,8-4.141V0H7V-5.812Zm8.513,4.27a.732.732,0,0,0-.3-.626A2.921,2.921,0,0,0,15.1-2.551a5,5,0,0,1-1.2-.387,1.7,1.7,0,0,1-.655-.537,1.285,1.285,0,0,1-.212-.741,1.508,1.508,0,0,1,.6-1.208,2.36,2.36,0,0,1,1.544-.494,2.428,2.428,0,0,1,1.6.51A1.621,1.621,0,0,1,17.4-4.1h-1a.9.9,0,0,0-.346-.7,1.3,1.3,0,0,0-.873-.3,1.358,1.358,0,0,0-.849.236.744.744,0,0,0-.306.618.6.6,0,0,0,.285.542,3.5,3.5,0,0,0,1.029.349,5.359,5.359,0,0,1,1.206.4,1.759,1.759,0,0,1,.685.556,1.367,1.367,0,0,1,.223.792,1.487,1.487,0,0,1-.623,1.249,2.613,2.613,0,0,1-1.617.47A2.926,2.926,0,0,1,13.976-.14a2.009,2.009,0,0,1-.841-.69,1.664,1.664,0,0,1-.3-.959h.994a1.029,1.029,0,0,0,.4.792,1.552,1.552,0,0,0,.986.293,1.6,1.6,0,0,0,.905-.228A.7.7,0,0,0,16.457-1.542ZM22.333,0a2.087,2.087,0,0,1-.14-.612,2.217,2.217,0,0,1-1.654.72,2.051,2.051,0,0,1-1.41-.486,1.573,1.573,0,0,1-.551-1.233,1.643,1.643,0,0,1,.69-1.41,3.254,3.254,0,0,1,1.942-.5h.967V-3.98a1.116,1.116,0,0,0-.312-.83,1.252,1.252,0,0,0-.918-.309,1.449,1.449,0,0,0-.892.269.791.791,0,0,0-.36.65h-1a1.371,1.371,0,0,1,.309-.841,2.108,2.108,0,0,1,.838-.642,2.819,2.819,0,0,1,1.163-.236,2.3,2.3,0,0,1,1.574.5,1.812,1.812,0,0,1,.591,1.383v2.675a3.27,3.27,0,0,0,.2,1.273V0ZM20.684-.757A1.746,1.746,0,0,0,21.57-1a1.462,1.462,0,0,0,.607-.628V-2.82H21.4q-1.826,0-1.826,1.069a.9.9,0,0,0,.312.73A1.2,1.2,0,0,0,20.684-.757Zm4.984-5.054.032.73a2.118,2.118,0,0,1,1.74-.838q1.842,0,1.858,2.079V0h-.994V-3.846a1.338,1.338,0,0,0-.287-.929,1.152,1.152,0,0,0-.878-.3,1.434,1.434,0,0,0-.849.258,1.751,1.751,0,0,0-.569.677V0h-.994V-5.812ZM33.129-.7a1.431,1.431,0,0,0,.929-.322,1.134,1.134,0,0,0,.44-.806h.94a1.8,1.8,0,0,1-.344.951,2.264,2.264,0,0,1-.846.72,2.441,2.441,0,0,1-1.12.269,2.394,2.394,0,0,1-1.888-.792,3.155,3.155,0,0,1-.7-2.167v-.167a3.5,3.5,0,0,1,.312-1.509,2.373,2.373,0,0,1,.894-1.026,2.54,2.54,0,0,1,1.378-.365,2.331,2.331,0,0,1,1.625.585,2.092,2.092,0,0,1,.69,1.52H34.5a1.369,1.369,0,0,0-.427-.927,1.328,1.328,0,0,0-.948-.363,1.391,1.391,0,0,0-1.174.545,2.56,2.56,0,0,0-.416,1.576v.188a2.509,2.509,0,0,0,.414,1.547A1.4,1.4,0,0,0,33.129-.7Zm4.42-4.4a2.113,2.113,0,0,1,1.719-.811q1.842,0,1.858,2.079V0h-.994V-3.846a1.338,1.338,0,0,0-.287-.929,1.152,1.152,0,0,0-.878-.3,1.434,1.434,0,0,0-.849.258,1.751,1.751,0,0,0-.569.677V0h-.994V-8.25h.994ZM45.026.107A2.539,2.539,0,0,1,43.1-.669a2.881,2.881,0,0,1-.741-2.076v-.183a3.487,3.487,0,0,1,.33-1.544,2.577,2.577,0,0,1,.924-1.063A2.323,2.323,0,0,1,44.9-5.919a2.177,2.177,0,0,1,1.762.747,3.232,3.232,0,0,1,.628,2.138v.414H43.355a2.066,2.066,0,0,0,.5,1.388A1.579,1.579,0,0,0,45.08-.7a1.731,1.731,0,0,0,.892-.215,2.24,2.24,0,0,0,.639-.569l.607.473A2.44,2.44,0,0,1,45.026.107ZM44.9-5.1a1.325,1.325,0,0,0-1.01.438,2.128,2.128,0,0,0-.5,1.227H46.3v-.075a1.893,1.893,0,0,0-.408-1.174A1.248,1.248,0,0,0,44.9-5.1Z" transform="translate(-2668.3 -3835.605)"/>
    <path id="Trazado_904028" data-name="Trazado 904028" d="M0,0H408.854V257.411H0Z" transform="translate(-2838.552 -4084.244)" fill="none"/>
    <path id="Trazado_904029" data-name="Trazado 904029" d="M1.944-.843H5.65V0H.908V-7.82H1.944ZM10.259,0a2.087,2.087,0,0,1-.14-.612,2.217,2.217,0,0,1-1.654.72,2.051,2.051,0,0,1-1.41-.486A1.573,1.573,0,0,1,6.5-1.611a1.643,1.643,0,0,1,.69-1.41,3.254,3.254,0,0,1,1.942-.5H10.1V-3.98a1.116,1.116,0,0,0-.312-.83,1.252,1.252,0,0,0-.918-.309,1.449,1.449,0,0,0-.892.269.791.791,0,0,0-.36.65h-1a1.371,1.371,0,0,1,.309-.841,2.108,2.108,0,0,1,.838-.642,2.819,2.819,0,0,1,1.163-.236,2.3,2.3,0,0,1,1.574.5A1.812,1.812,0,0,1,11.1-4.034v2.675a3.27,3.27,0,0,0,.2,1.273V0ZM8.61-.757A1.746,1.746,0,0,0,9.5-1a1.462,1.462,0,0,0,.607-.628V-2.82H9.324Q7.5-2.82,7.5-1.751a.9.9,0,0,0,.312.73A1.2,1.2,0,0,0,8.61-.757ZM15.463-4.92a2.978,2.978,0,0,0-.489-.038,1.309,1.309,0,0,0-1.327.833V0h-.994V-5.812h.967l.016.671a1.547,1.547,0,0,1,1.386-.779,1.015,1.015,0,0,1,.44.075Zm.476,1.966a3.416,3.416,0,0,1,.628-2.162,2.01,2.01,0,0,1,1.665-.8,2,2,0,0,1,1.66.752l.048-.645h.908V-.14a2.364,2.364,0,0,1-.669,1.778,2.468,2.468,0,0,1-1.8.65,2.989,2.989,0,0,1-1.23-.269,2.117,2.117,0,0,1-.918-.736l.516-.6a1.943,1.943,0,0,0,1.563.79,1.522,1.522,0,0,0,1.131-.408,1.56,1.56,0,0,0,.406-1.149v-.5a2.042,2.042,0,0,1-1.627.688A1.985,1.985,0,0,1,16.57-.714,3.591,3.591,0,0,1,15.939-2.954Zm1,.113a2.606,2.606,0,0,0,.4,1.544,1.309,1.309,0,0,0,1.128.561,1.456,1.456,0,0,0,1.38-.854V-4.243a1.473,1.473,0,0,0-1.37-.833,1.321,1.321,0,0,0-1.133.564A2.838,2.838,0,0,0,16.938-2.841Zm5.146-.118A3.433,3.433,0,0,1,22.419-4.5a2.5,2.5,0,0,1,.935-1.053,2.544,2.544,0,0,1,1.367-.371,2.451,2.451,0,0,1,1.92.822,3.162,3.162,0,0,1,.733,2.186v.07a3.462,3.462,0,0,1-.325,1.523,2.467,2.467,0,0,1-.929,1.05,2.573,2.573,0,0,1-1.388.376,2.445,2.445,0,0,1-1.915-.822,3.146,3.146,0,0,1-.733-2.175Zm1,.118a2.486,2.486,0,0,0,.448,1.552,1.435,1.435,0,0,0,1.2.585,1.427,1.427,0,0,0,1.2-.594,2.719,2.719,0,0,0,.446-1.662,2.482,2.482,0,0,0-.454-1.55A1.443,1.443,0,0,0,24.721-5.1a1.427,1.427,0,0,0-1.187.585A2.7,2.7,0,0,0,23.083-2.841Z" transform="translate(-2498.227 -3925.414)"/>
    <path id="Trazado_904030" data-name="Trazado 904030" d="M.51-2.954a3.4,3.4,0,0,1,.634-2.151A2,2,0,0,1,2.8-5.919a2.016,2.016,0,0,1,1.617.7V-8.25h.994V0H4.5L4.453-.623a2.024,2.024,0,0,1-1.66.73A1.985,1.985,0,0,1,1.147-.72,3.443,3.443,0,0,1,.51-2.879Zm.994.113a2.578,2.578,0,0,0,.408,1.547A1.32,1.32,0,0,0,3.04-.736a1.45,1.45,0,0,0,1.38-.849V-4.254a1.461,1.461,0,0,0-1.37-.822,1.326,1.326,0,0,0-1.139.564A2.838,2.838,0,0,0,1.5-2.841ZM9.367.107A2.539,2.539,0,0,1,7.444-.669,2.881,2.881,0,0,1,6.7-2.745v-.183a3.487,3.487,0,0,1,.33-1.544,2.577,2.577,0,0,1,.924-1.063,2.323,2.323,0,0,1,1.286-.384,2.177,2.177,0,0,1,1.762.747,3.232,3.232,0,0,1,.628,2.138v.414H7.7a2.066,2.066,0,0,0,.5,1.388A1.579,1.579,0,0,0,9.421-.7a1.731,1.731,0,0,0,.892-.215,2.24,2.24,0,0,0,.639-.569l.607.473A2.44,2.44,0,0,1,9.367.107ZM9.244-5.1a1.325,1.325,0,0,0-1.01.438,2.128,2.128,0,0,0-.5,1.227H10.64v-.075a1.893,1.893,0,0,0-.408-1.174A1.248,1.248,0,0,0,9.244-5.1ZM20.416-2.841A3.48,3.48,0,0,1,19.809-.7a1.945,1.945,0,0,1-1.644.811A2.131,2.131,0,0,1,16.5-.564v2.8h-.994V-5.812h.908l.048.645a2.047,2.047,0,0,1,1.687-.752,1.982,1.982,0,0,1,1.657.79,3.518,3.518,0,0,1,.61,2.2Zm-.994-.113A2.568,2.568,0,0,0,19-4.506a1.35,1.35,0,0,0-1.149-.569,1.461,1.461,0,0,0-1.354.8V-1.5A1.464,1.464,0,0,0,17.864-.7,1.343,1.343,0,0,0,19-1.27,2.8,2.8,0,0,0,19.422-2.954ZM25.266-.575a2.111,2.111,0,0,1-1.7.682,1.807,1.807,0,0,1-1.415-.54,2.336,2.336,0,0,1-.491-1.6V-5.812h.994v3.754q0,1.321,1.074,1.321a1.487,1.487,0,0,0,1.515-.849V-5.812h.994V0h-.945Zm3.416-5.237.032.73a2.118,2.118,0,0,1,1.74-.838q1.842,0,1.858,2.079V0h-.994V-3.846a1.338,1.338,0,0,0-.287-.929,1.152,1.152,0,0,0-.878-.3,1.434,1.434,0,0,0-.849.258,1.751,1.751,0,0,0-.569.677V0h-.994V-5.812Zm6.478-1.407v1.407h1.085v.768H35.159v3.609a.807.807,0,0,0,.145.524.61.61,0,0,0,.494.175A2.406,2.406,0,0,0,36.271-.8V0a2.9,2.9,0,0,1-.763.107,1.237,1.237,0,0,1-1-.4,1.731,1.731,0,0,1-.338-1.144v-3.6H33.107v-.768h1.058V-7.219ZM40.992,0a2.087,2.087,0,0,1-.14-.612A2.217,2.217,0,0,1,39.2.107a2.051,2.051,0,0,1-1.41-.486,1.573,1.573,0,0,1-.551-1.233,1.643,1.643,0,0,1,.69-1.41,3.254,3.254,0,0,1,1.942-.5h.967V-3.98a1.116,1.116,0,0,0-.312-.83,1.252,1.252,0,0,0-.918-.309,1.449,1.449,0,0,0-.892.269.791.791,0,0,0-.36.65h-1a1.371,1.371,0,0,1,.309-.841,2.108,2.108,0,0,1,.838-.642,2.819,2.819,0,0,1,1.163-.236,2.3,2.3,0,0,1,1.574.5,1.812,1.812,0,0,1,.591,1.383v2.675a3.27,3.27,0,0,0,.2,1.273V0ZM39.343-.757A1.746,1.746,0,0,0,40.229-1a1.462,1.462,0,0,0,.607-.628V-2.82h-.779q-1.826,0-1.826,1.069a.9.9,0,0,0,.312.73A1.2,1.2,0,0,0,39.343-.757Zm7.428-.784a.731.731,0,0,0-.3-.626,2.921,2.921,0,0,0-1.058-.384,5,5,0,0,1-1.2-.387,1.7,1.7,0,0,1-.655-.537,1.285,1.285,0,0,1-.212-.741,1.508,1.508,0,0,1,.6-1.208,2.36,2.36,0,0,1,1.544-.494,2.428,2.428,0,0,1,1.6.51A1.621,1.621,0,0,1,47.711-4.1h-1a.9.9,0,0,0-.346-.7,1.3,1.3,0,0,0-.873-.3,1.359,1.359,0,0,0-.849.236.744.744,0,0,0-.306.618.6.6,0,0,0,.285.542,3.5,3.5,0,0,0,1.029.349,5.359,5.359,0,0,1,1.206.4,1.759,1.759,0,0,1,.685.556,1.367,1.367,0,0,1,.223.792,1.487,1.487,0,0,1-.623,1.249,2.613,2.613,0,0,1-1.617.47A2.926,2.926,0,0,1,44.29-.14a2.009,2.009,0,0,1-.841-.69,1.663,1.663,0,0,1-.3-.959h.994a1.029,1.029,0,0,0,.4.792,1.552,1.552,0,0,0,.986.293,1.6,1.6,0,0,0,.905-.228A.7.7,0,0,0,46.771-1.542Z" transform="translate(-2498.227 -3910.032)"/>
    <path id="Trazado_903352" data-name="Trazado 903352" d="M219.5,157.219c-24.944-19.126-50.108-38.044-73.762-58.775-.8-.821-3.2-2.91-3.984-3.744a79.915,79.915,0,0,1-6-6.889c-9.213-11.349-12.572-22.676,1.93-31.41,8.366-5.163,18.342-6.763,27.869-8.433A386.647,386.647,0,0,1,223.5,43.641c24.14.158,48.759,1.328,72.041,8.354a71.02,71.02,0,0,1,13.472,5.665,11.671,11.671,0,0,1,5.174,5.565c6.023,14.741-14.841,33.326-24.741,42.186-22,18.972-45.842,35.646-69.938,51.807m0,0c23.838-16.481,47.373-33.557,69.22-52.62,9.851-9.076,22.685-20.4,25.011-34.055.648-4.523-1.246-9.46-5.42-11.57-28.957-15.224-81.053-14.518-113.748-12.613-9.625.689-19.244,1.617-28.761,3.149-11.509,2.018-24.265,3.884-32.867,12.506-7.748,7.82-1.841,17.9,3.81,25.023a67.768,67.768,0,0,0,7.142,8.077c24.088,21.991,50.092,41.814,75.613,62.1" transform="translate(-2856.542 -4090.386)"/>
    <path id="Trazado_903353" data-name="Trazado 903353" d="M216.9,163.117c-3.879,9.625-11.642,28.992-15.572,38.592-5.263,12.834-10.465,25.693-15.777,38.507a.746.746,0,0,1-1.221.227c-20.829-22.022-41.248-44.5-59.418-68.8-5.875-8.286-12.313-16.624-15.59-26.372a297.127,297.127,0,0,1,9.924-45.078c1.428-4.924,3.05-9.79,4.7-14.643-1.5,4.9-2.957,9.813-4.288,14.759a323.855,323.855,0,0,0-9.09,45.091l-.028-.257a67.437,67.437,0,0,0,6.961,13.221c19.74,29.246,44.042,55.16,67.9,81.057l-1.22.227c5.366-12.791,10.841-25.536,16.256-38.307,4.046-9.546,12.35-28.7,16.462-38.221" transform="translate(-2853.938 -4096.284)"/>
    <path id="Trazado_903354" data-name="Trazado 903354" d="M115.333,152.483s.511.757,1.448,2.128" transform="translate(-2854.784 -4105.704)" fill="none" stroke="#000" stroke-linecap="round" stroke-linejoin="round" stroke-width="2"/>
    <path id="Trazado_903355" data-name="Trazado 903355" d="M120.323,159.778c11.925,17.308,45.564,65.26,60.221,77.061" transform="translate(-2855.486 -4106.731)" fill="none" stroke="#000" stroke-linecap="round" stroke-linejoin="round" stroke-width="2" stroke-dasharray="5.847 5.847"/>
    <path id="Trazado_903356" data-name="Trazado 903356" d="M192.773,250.974a7.965,7.965,0,0,0,2.325,1.086l1.045-2.357" transform="translate(-2865.683 -4119.387)" fill="none" stroke="#000" stroke-linecap="round" stroke-linejoin="round" stroke-width="2"/>
    <path id="Trazado_904031" data-name="Trazado 904031" d="M0,51.73,22.923,0" transform="translate(-2667.547 -3925.912)" fill="none" stroke="#000" stroke-linecap="round" stroke-width="2" stroke-dasharray="5.726 5.726"/>
    <path id="Trazado_904032" data-name="Trazado 904032" d="M0,2.357,1.044,0" transform="translate(-2643.627 -3930.518)" fill="none" stroke="#000" stroke-linecap="round" stroke-width="2"/>
    <path id="Trazado_903357" data-name="Trazado 903357" d="M236.213,163.117c11.13,23.9,24.162,52.486,35.039,76.5l-1.236-.236c22-21.976,43.706-44.382,63.367-68.485,6.155-7.663,13.4-17.418,16.844-25.492a304.659,304.659,0,0,0-9.773-45.127c-1.429-4.94-2.993-9.84-4.6-14.73q5.359,14.49,9.363,29.429c2.58,10.069,5.034,20.236,6.252,30.567-3.846,9.853-10.494,18.069-16.854,26.337-12.988,16.255-27.1,31.553-41.552,46.491q-10.847,11.2-21.978,22.108a.765.765,0,0,1-1.081-.007.827.827,0,0,1-.156-.229l-8.477-19.251c-7.537-17.158-17.78-40.652-25.162-57.875" transform="translate(-2871.796 -4096.284)"/>
    <path id="Trazado_903358" data-name="Trazado 903358" d="M363.723,152.483s-.555.766-1.572,2.154" transform="translate(-2889.521 -4105.704)" fill="none" stroke="#000" stroke-linecap="round" stroke-linejoin="round" stroke-width="2.071"/>
    <path id="Trazado_903359" data-name="Trazado 903359" d="M348.009,159.831c-12.836,17.379-48.959,65.4-64.61,77.081" transform="translate(-2878.437 -4106.738)" fill="none" stroke="#000" stroke-linecap="round" stroke-linejoin="round" stroke-width="2.071" stroke-dasharray="6.013 6.013"/>
    <path id="Trazado_903360" data-name="Trazado 903360" d="M280.317,251a8.749,8.749,0,0,1-2.439,1.054l-1.145-2.411" transform="translate(-2877.499 -4119.378)" fill="none" stroke="#000" stroke-linecap="round" stroke-linejoin="round" stroke-width="2.071"/>
    <path id="Trazado_904033" data-name="Trazado 904033" d="M24.527,51.635,0,0" transform="translate(-2627.426 -3925.862)" fill="none" stroke="#000" stroke-linecap="round" stroke-width="2.071" stroke-dasharray="5.785 5.785"/>
    <path id="Trazado_904034" data-name="Trazado 904034" d="M1.145,2.411,0,0" transform="translate(-2629.638 -3930.518)" fill="none" stroke="#000" stroke-linecap="round" stroke-width="2.071"/>
    <path id="Trazado_903361" data-name="Trazado 903361" d="M128.118,93.467c.037-.1-2.794,35.637-2.855,34.611a322.074,322.074,0,0,0,39.356,45.966A204.319,204.319,0,0,0,200.337,201.8a124.364,124.364,0,0,0,13.337,6.81,36.059,36.059,0,0,0,12.689.568,30.2,30.2,0,0,0,9.228-2.646c.911-.357,1.989-1.074,2.85-1.521a.087.087,0,0,1,.123.03,27.492,27.492,0,0,1-12.076,4.973,36.662,36.662,0,0,1-13.2-.15,121.273,121.273,0,0,1-13.771-6.656,156.052,156.052,0,0,1-24.73-17.79,307.833,307.833,0,0,1-50.11-56.953c-.232-.177,3.337-34.794,3.266-35.014.006-.109.185-.093.171.015" transform="translate(-2856.098 -4097.386)"/>
    <path id="Trazado_903362" data-name="Trazado 903362" d="M166.415,114.334c33.33-9.524,73.213-8.555,107.129-2.262,3.5.719,7.45,1.5,10.929,2.262-4.922-.644-9.8-1.512-14.715-2.111-2.52-.3-8.642-1.019-11.058-1.313-2.3-.193-8.693-.76-11.086-.973-7.09-.485-15.077-.832-22.221-.947-19.742-.056-39.657,1.063-58.977,5.344" transform="translate(-2861.973 -4099.34)"/>
    <path id="Trazado_903363" data-name="Trazado 903363" d="M241.931,207.851a7.437,7.437,0,1,1-12.474-5.474,7.46,7.46,0,0,1,12.474,5.474m0,0A6.571,6.571,0,1,0,230.5,212.28a6.583,6.583,0,0,0,11.428-4.429" transform="translate(-2870.514 -4112.449)"/>
    <path id="Trazado_903364" data-name="Trazado 903364" d="M165.04,77.749c12.666-3.113,60.025-12.66,122.644.172" transform="translate(-2861.78 -4094.294)" fill="none" stroke="#000" stroke-linecap="round" stroke-linejoin="round" stroke-width="1"/>
    <path id="Trazado_903365" data-name="Trazado 903365" d="M165.531,81.363a3.23,3.23,0,1,1,2.326-3.933,3.232,3.232,0,0,1-2.326,3.933" transform="translate(-2861.281 -4094.8)" fill="#fff"/>
    <path id="Trazado_903366" data-name="Trazado 903366" d="M165.567,81.709a3.66,3.66,0,1,0-4.455-2.635,3.665,3.665,0,0,0,4.455,2.635h0m-1.607-6.258a2.8,2.8,0,1,1-2.017,3.41,2.8,2.8,0,0,1,2.017-3.41h0" transform="translate(-2861.21 -4094.729)"/>
    <path id="Trazado_903367" data-name="Trazado 903367" d="M306.411,81.656a3.231,3.231,0,1,0-2.558-3.785,3.232,3.232,0,0,0,2.558,3.785" transform="translate(-2881.308 -4094.835)" fill="#fff"/>
    <path id="Trazado_903368" data-name="Trazado 903368" d="M306.259,82.008a3.66,3.66,0,1,1,4.289-2.9,3.665,3.665,0,0,1-4.289,2.9h0m1.227-6.344a2.8,2.8,0,1,0,2.218,3.282,2.8,2.8,0,0,0-2.218-3.282h0" transform="translate(-2881.237 -4094.765)"/>
    <path id="Trazado_904035" data-name="Trazado 904035" d="M0,0H58.885" transform="translate(-2664.08 -3852.57)" fill="none" stroke="#000" stroke-linecap="round" stroke-width="1"/>
    <path id="Trazado_903369" data-name="Trazado 903369" d="M202.733,272.322a3.231,3.231,0,1,1,3.231-3.231,3.231,3.231,0,0,1-3.231,3.231" transform="translate(-2866.63 -4121.661)" fill="#fff"/>
    <path id="Trazado_903370" data-name="Trazado 903370" d="M202.662,272.681a3.66,3.66,0,1,0-3.66-3.66,3.665,3.665,0,0,0,3.66,3.66h0m0-6.462a2.8,2.8,0,1,1-2.8,2.8,2.8,2.8,0,0,1,2.8-2.8h0" transform="translate(-2866.559 -4121.59)"/>
    <path id="Trazado_903371" data-name="Trazado 903371" d="M270.837,272.322a3.231,3.231,0,1,0-3.231-3.231,3.231,3.231,0,0,0,3.231,3.231" transform="translate(-2876.214 -4121.661)" fill="#fff"/>
    <path id="Trazado_903372" data-name="Trazado 903372" d="M270.766,272.681a3.66,3.66,0,1,1,3.66-3.66,3.665,3.665,0,0,1-3.66,3.66h0m0-6.462a2.8,2.8,0,1,0,2.8,2.8,2.8,2.8,0,0,0-2.8-2.8h0" transform="translate(-2876.144 -4121.59)"/>
    <path id="Trazado_904036" data-name="Trazado 904036" d="M0,0,24.7,53.452" transform="translate(-2616.151 -3934.643)" fill="none" stroke="#000" stroke-linecap="round" stroke-width="1"/>
    <path id="Trazado_903373" data-name="Trazado 903373" d="M255.456,175.124a3.231,3.231,0,1,1,4.288,1.578,3.231,3.231,0,0,1-4.288-1.578" transform="translate(-2874.462 -4108.245)" fill="#fff"/>
    <path id="Trazado_903374" data-name="Trazado 903374" d="M255,175.234a3.661,3.661,0,1,0,1.787-4.858A3.664,3.664,0,0,0,255,175.234h0m5.865-2.711a2.8,2.8,0,1,1-3.718-1.367,2.8,2.8,0,0,1,3.718,1.367h0" transform="translate(-2874.392 -4108.175)"/>
    <path id="Trazado_903375" data-name="Trazado 903375" d="M284.028,236.945a3.231,3.231,0,1,0,1.577-4.288,3.231,3.231,0,0,0-1.577,4.288" transform="translate(-2878.484 -4116.946)" fill="#fff"/>
    <path id="Trazado_903376" data-name="Trazado 903376" d="M283.568,237.055a3.661,3.661,0,1,1,4.858,1.786,3.665,3.665,0,0,1-4.858-1.786c-.846-1.832.847,1.832,0,0m5.865-2.711a2.8,2.8,0,1,0-1.367,3.718,2.8,2.8,0,0,0,1.367-3.718h0" transform="translate(-2878.413 -4116.875)"/>
    <path id="Trazado_904037" data-name="Trazado 904037" d="M0,27.014V0" transform="translate(-2717.477 -4060.434)" fill="none" stroke="#000" stroke-linecap="round" stroke-width="1.191"/>
    <path id="Trazado_903377" data-name="Trazado 903377" d="M144.123,58.265a3.848,3.848,0,1,1-3.848-3.848,3.848,3.848,0,0,1,3.848,3.848" transform="translate(-2857.753 -4091.903)" fill="#fff"/>
    <path id="Trazado_903378" data-name="Trazado 903378" d="M144.552,58.181a4.36,4.36,0,1,0-4.36,4.36,4.366,4.366,0,0,0,4.36-4.36h0m-7.7,0a3.337,3.337,0,1,1,3.337,3.337,3.34,3.34,0,0,1-3.337-3.337h0" transform="translate(-2857.669 -4091.819)"/>
    <path id="Trazado_903379" data-name="Trazado 903379" d="M144.123,27.3a3.848,3.848,0,1,0-3.848,3.848,3.848,3.848,0,0,0,3.848-3.848" transform="translate(-2857.753 -4087.545)"/>
    <path id="Trazado_904038" data-name="Trazado 904038" d="M80.264,0H0" transform="translate(-2799.13 -3966.844)" fill="none" stroke="#000" stroke-linecap="round" stroke-width="1.453"/>
    <path id="Trazado_903380" data-name="Trazado 903380" d="M138.211,131.167a4.694,4.694,0,1,1-4.693,4.694,4.695,4.695,0,0,1,4.693-4.694" transform="translate(-2857.343 -4102.704)" fill="#fff"/>
    <path id="Trazado_903381" data-name="Trazado 903381" d="M138.109,130.441a5.318,5.318,0,1,0,5.317,5.318,5.324,5.324,0,0,0-5.317-5.318h0m0,9.387a4.069,4.069,0,1,1,4.069-4.069,4.073,4.073,0,0,1-4.069,4.069h0" transform="translate(-2857.241 -4102.602)"/>
    <path id="Trazado_903382" data-name="Trazado 903382" d="M45.384,131.167a4.694,4.694,0,1,0,4.693,4.694,4.695,4.695,0,0,0-4.693-4.694" transform="translate(-2844.279 -4102.704)"/>
    <path id="Trazado_904039" data-name="Trazado 904039" d="M0,0H80.264" transform="translate(-2589.665 -3917.464)" fill="none" stroke="#000" stroke-linecap="round" stroke-width="1.453"/>
    <path id="Trazado_903383" data-name="Trazado 903383" d="M289.192,198.022a4.693,4.693,0,1,1,4.693-4.693,4.694,4.694,0,0,1-4.693,4.693" transform="translate(-2878.592 -4110.792)" fill="#fff"/>
    <path id="Trazado_903384" data-name="Trazado 903384" d="M289.09,198.544a5.318,5.318,0,1,0-5.317-5.318,5.324,5.324,0,0,0,5.317,5.318h0m0-9.387a4.069,4.069,0,1,1-4.069,4.069,4.073,4.073,0,0,1,4.069-4.069h0" transform="translate(-2878.49 -4110.69)"/>
    <path id="Trazado_903385" data-name="Trazado 903385" d="M382.019,198.022a4.693,4.693,0,1,0-4.693-4.693,4.694,4.694,0,0,0,4.693,4.693" transform="translate(-2891.656 -4110.792)"/>
    <path id="Trazado_904040" data-name="Trazado 904040" d="M0,0H408.854V257.411H0Z" transform="translate(-2838.552 -4084.244)" fill="none"/>
  </g>
</svg>
