<svg xmlns="http://www.w3.org/2000/svg" width="758.723" height="862.714" viewBox="0 0 758.723 862.714">
  <g id="Grupo_1117500" data-name="Grupo 1117500" transform="translate(-421.553 -13076.983)">
    <g id="Grupo_1117499" data-name="Grupo 1117499">
      <g id="Grupo_1117498" data-name="Grupo 1117498">
        <path id="Línea_1907" data-name="Línea 1907" d="M717.021.038h-2.21V-1h2.21Zm-3.268,0h-2.645V-1h2.645Zm-3.7,0H707.4V-1h2.645Zm-3.7,0H703.7V-1h2.645Zm-3.7,0H700V-1h2.645Zm-3.7,0h-2.645V-1h2.645Zm-3.7,0h-2.645V-1h2.645Zm-3.7,0h-2.645V-1h2.645Zm-3.7,0h-2.645V-1h2.645Zm-3.7,0h-2.645V-1h2.645Zm-3.7,0h-2.645V-1h2.645Zm-3.7,0H674.07V-1h2.645Zm-3.7,0h-2.645V-1h2.645Zm-3.7,0h-2.645V-1h2.645Zm-3.7,0h-2.645V-1H665.6Zm-3.7,0h-2.645V-1H661.9Zm-3.7,0h-2.645V-1H658.2Zm-3.7,0h-2.645V-1h2.645Zm-3.7,0h-2.645V-1h2.645Zm-3.7,0h-2.645V-1h2.645Zm-3.7,0h-2.645V-1h2.645Zm-3.7,0h-2.645V-1h2.645Zm-3.7,0H633.33V-1h2.645Zm-3.7,0h-2.645V-1h2.645Zm-3.7,0h-2.645V-1h2.645Zm-3.7,0h-2.645V-1h2.645Zm-3.7,0h-2.645V-1h2.645Zm-3.7,0h-2.645V-1h2.645Zm-3.7,0h-2.645V-1h2.645Zm-3.7,0H607.4V-1h2.645Zm-3.7,0H603.7V-1h2.645Zm-3.7,0H600V-1h2.645Zm-3.7,0h-2.645V-1h2.645Zm-3.7,0h-2.645V-1h2.645Zm-3.7,0h-2.645V-1h2.645Zm-3.7,0h-2.645V-1h2.645Zm-3.7,0h-2.645V-1h2.645Zm-3.7,0h-2.645V-1h2.645Zm-3.7,0h-2.645V-1h2.645Zm-3.7,0h-2.645V-1h2.645Zm-3.7,0h-2.645V-1h2.645Zm-3.7,0H562.96V-1H565.6Zm-3.7,0h-2.645V-1H561.9Zm-3.7,0h-2.645V-1H558.2Zm-3.7,0h-2.645V-1h2.645Zm-3.7,0h-2.645V-1h2.645Zm-3.7,0h-2.645V-1h2.645Zm-3.7,0h-2.645V-1h2.645Zm-3.7,0h-2.645V-1h2.645Zm-3.7,0H533.33V-1h2.645Zm-3.7,0h-2.645V-1h2.645Zm-3.7,0h-2.645V-1h2.645Zm-3.7,0h-2.645V-1h2.645Zm-3.7,0h-2.645V-1h2.645Zm-3.7,0h-2.645V-1h2.645Zm-3.7,0h-2.645V-1h2.645Zm-3.7,0H507.4V-1h2.645Zm-3.7,0H503.7V-1h2.645Zm-3.7,0H500V-1h2.645Zm-3.7,0h-2.645V-1h2.645Zm-3.7,0H492.59V-1h2.645Zm-3.7,0h-2.645V-1h2.645Zm-3.7,0h-2.645V-1h2.645Zm-3.7,0h-2.645V-1h2.645Zm-3.7,0h-2.645V-1h2.645Zm-3.7,0h-2.645V-1h2.645Zm-3.7,0h-2.645V-1h2.645Zm-3.7,0h-2.645V-1h2.645Zm-3.7,0H462.96V-1h2.645Zm-3.7,0h-2.645V-1H461.9Zm-3.7,0h-2.645V-1H458.2Zm-3.7,0h-2.645V-1h2.645Zm-3.7,0h-2.645V-1h2.645Zm-3.7,0h-2.645V-1h2.645Zm-3.7,0h-2.645V-1h2.645Zm-3.7,0h-2.645V-1h2.645Zm-3.7,0h-2.645V-1h2.645Zm-3.7,0h-2.645V-1h2.645Zm-3.7,0h-2.645V-1h2.645Zm-3.7,0H422.22V-1h2.645Zm-3.7,0h-2.645V-1h2.645Zm-3.7,0h-2.645V-1h2.645Zm-3.7,0h-2.645V-1h2.645Zm-3.7,0H407.4V-1h2.645Zm-3.7,0H403.7V-1h2.645Zm-3.7,0H400V-1h2.645Zm-3.7,0h-2.645V-1h2.645Zm-3.7,0H392.59V-1h2.645Zm-3.7,0h-2.645V-1h2.645Zm-3.7,0h-2.645V-1h2.645Zm-3.7,0h-2.645V-1h2.645Zm-3.7,0h-2.645V-1h2.645Zm-3.7,0h-2.645V-1h2.645Zm-3.7,0h-2.645V-1h2.645Zm-3.7,0h-2.645V-1h2.645Zm-3.7,0h-2.645V-1h2.645Zm-3.7,0h-2.645V-1H361.9Zm-3.7,0h-2.645V-1H358.2Zm-3.7,0H351.85V-1H354.5Zm-3.7,0h-2.645V-1h2.645Zm-3.7,0h-2.645V-1h2.645Zm-3.7,0h-2.645V-1h2.645Zm-3.7,0h-2.645V-1h2.645Zm-3.7,0h-2.645V-1h2.645Zm-3.7,0h-2.645V-1h2.645Zm-3.7,0h-2.645V-1h2.645Zm-3.7,0H322.22V-1h2.645Zm-3.7,0h-2.645V-1h2.645Zm-3.7,0h-2.645V-1h2.645Zm-3.7,0h-2.645V-1h2.645Zm-3.7,0h-2.645V-1h2.645Zm-3.7,0H303.7V-1h2.645Zm-3.7,0H300V-1h2.645Zm-3.7,0h-2.645V-1h2.645Zm-3.7,0h-2.645V-1h2.645Zm-3.7,0h-2.645V-1h2.645Zm-3.7,0h-2.645V-1h2.645Zm-3.7,0H281.48V-1h2.645Zm-3.7,0h-2.645V-1h2.645Zm-3.7,0h-2.645V-1h2.645Zm-3.7,0h-2.645V-1h2.645Zm-3.7,0h-2.645V-1h2.645Zm-3.7,0h-2.645V-1h2.645Zm-3.7,0h-2.645V-1H261.9Zm-3.7,0h-2.645V-1H258.2Zm-3.7,0H251.85V-1H254.5Zm-3.7,0h-2.645V-1h2.645Zm-3.7,0h-2.645V-1h2.645Zm-3.7,0h-2.645V-1h2.645Zm-3.7,0h-2.645V-1h2.645Zm-3.7,0h-2.645V-1h2.645Zm-3.7,0h-2.645V-1h2.645Zm-3.7,0h-2.645V-1h2.645Zm-3.7,0h-2.645V-1h2.645Zm-3.7,0h-2.645V-1h2.645Zm-3.7,0h-2.645V-1h2.645Zm-3.7,0H211.11V-1h2.645Zm-3.7,0h-2.645V-1h2.645Zm-3.7,0H203.7V-1h2.645Zm-3.7,0H200V-1h2.645Zm-3.7,0H196.3V-1h2.645Zm-3.7,0h-2.645V-1h2.645Zm-3.7,0h-2.645V-1h2.645Zm-3.7,0h-2.645V-1h2.645Zm-3.7,0H181.48V-1h2.645Zm-3.7,0h-2.645V-1h2.645Zm-3.7,0h-2.645V-1h2.645Zm-3.7,0h-2.645V-1h2.645Zm-3.7,0h-2.645V-1h2.645Zm-3.7,0h-2.645V-1h2.645Zm-3.7,0h-2.645V-1H161.9Zm-3.7,0h-2.645V-1H158.2Zm-3.7,0h-2.645V-1H154.5Zm-3.7,0h-2.645V-1h2.645Zm-3.7,0h-2.645V-1h2.645Zm-3.7,0H140.74V-1h2.645Zm-3.7,0h-2.645V-1h2.645Zm-3.7,0h-2.645V-1h2.645Zm-3.7,0h-2.645V-1h2.645Zm-3.7,0h-2.645V-1h2.645Zm-3.7,0h-2.645V-1h2.645Zm-3.7,0h-2.645V-1h2.645Zm-3.7,0h-2.645V-1h2.645Zm-3.7,0H111.11V-1h2.645Zm-3.7,0h-2.645V-1h2.645Zm-3.7,0H103.7V-1h2.645Zm-3.7,0H100V-1h2.645Zm-3.7,0H96.3V-1h2.645Zm-3.7,0H92.592V-1h2.645Zm-3.7,0H88.888V-1h2.645Zm-3.7,0H85.185V-1H87.83Zm-3.7,0H81.481V-1h2.645Zm-3.7,0H77.777V-1h2.645Zm-3.7,0H74.074V-1h2.645Zm-3.7,0H70.37V-1h2.645Zm-3.7,0H66.666V-1h2.645Zm-3.7,0H62.963V-1h2.645Zm-3.7,0H59.259V-1H61.9Zm-3.7,0H55.555V-1H58.2Zm-3.7,0H51.852V-1H54.5Zm-3.7,0H48.148V-1h2.645Zm-3.7,0H44.444V-1H47.09Zm-3.7,0H40.741V-1h2.645Zm-3.7,0H37.037V-1h2.645Zm-3.7,0H33.333V-1h2.645Zm-3.7,0H29.629V-1h2.645Zm-3.7,0H25.926V-1h2.645Zm-3.7,0H22.222V-1h2.645Zm-3.7,0H18.518V-1h2.645Zm-3.7,0H14.815V-1H17.46Zm-3.7,0H11.111V-1h2.645Zm-3.7,0H7.407V-1h2.645Zm-3.7,0H3.7V-1H6.349Zm-3.7,0H0V-1H2.645Z" transform="translate(425.604 13571.074)" fill="#9d9d9c"/>
        <path id="Trazado_901527" data-name="Trazado 901527" d="M289.4,862.6h-2.522v-.389H289.4Zm-3.531,0h-2.522v-.389h2.522Zm-3.531,0h-2.522v-.389h2.522Zm-3.531,0h-2.522v-.389h2.522Zm-3.531,0h-2.522v-.389h2.522Zm-3.531,0h-2.522v-.389h2.522Zm-3.531,0h-2.522v-.389h2.522Zm-3.531,0h-2.522v-.389h2.522Zm-3.531,0h-2.522v-.389h2.522Zm-3.531,0H255.1v-.389h2.522Zm-3.531,0H251.57v-.389h2.522Zm-3.531,0h-2.522v-.389h2.522Zm-3.531,0h-2.522v-.389h2.522Zm-3.531,0h-2.522v-.389H243.5Zm-3.531,0h-2.522v-.389h2.522Zm-3.531,0h-2.522v-.389h2.522Zm-3.531,0h-2.522v-.389h2.522Zm-3.531,0h-2.522v-.389h2.522Zm-3.531,0h-2.522v-.389h2.522Zm-3.531,0h-2.522v-.389h2.522Zm-3.531,0H216.26v-.389h2.522Zm-3.531,0h-2.522v-.389h2.522Zm-3.531,0H209.2v-.389h2.522Zm-3.531,0h-2.522v-.389h2.522Zm-3.531,0h-2.522v-.389h2.522Zm-3.531,0h-2.522v-.389h2.522Zm-3.531,0h-2.522v-.389H197.6Zm-3.531,0h-2.522v-.389h2.522Zm-3.531,0h-2.522v-.389h2.522Zm-3.531,0h-2.522v-.389H187Zm-3.531,0h-2.522v-.389h2.522Zm-3.531,0H177.42v-.389h2.522Zm-3.531,0h-2.522v-.389h2.522Zm-3.531,0h-2.522v-.389h2.522Zm-3.531,0h-2.522v-.389h2.522Zm-3.531,0H163.3v-.389h2.522Zm-3.531,0h-2.522v-.389h2.522Zm-3.531,0h-2.522v-.389h2.522Zm-3.531,0H152.7v-.389h2.522Zm-3.531,0h-2.522v-.389h2.522Zm-3.531,0h-2.522v-.389h2.522Zm-3.531,0h-2.522v-.389h2.522Zm-3.531,0H138.58v-.389H141.1Zm-3.531,0h-2.522v-.389h2.522Zm-3.531,0h-2.522v-.389h2.522Zm-3.531,0h-2.522v-.389h2.522Zm-3.531,0h-2.522v-.389h2.522Zm-3.531,0h-2.522v-.389h2.522Zm-3.531,0h-2.522v-.389h2.522Zm-3.531,0h-2.522v-.389h2.522Zm-3.531,0h-2.522v-.389h2.522Zm-3.531,0H106.8v-.389h2.522Zm-3.531,0h-2.522v-.389h2.522Zm-3.531,0H99.74v-.389h2.522Zm-3.531,0H96.209v-.389h2.522Zm-3.531,0H92.678v-.389H95.2Zm-3.531,0H89.147v-.389h2.522Zm-3.531,0H85.616v-.389h2.522Zm-3.531,0H82.085v-.389h2.522Zm-3.531,0H78.554v-.389h2.522Zm-3.531,0H75.023v-.389h2.522Zm-3.531,0H71.493v-.389h2.522Zm-3.531,0H67.962v-.389h2.522Zm-3.531,0H64.431v-.389h2.522Zm-3.531,0H60.9v-.389h2.522Zm-3.531,0H57.369v-.389h2.522Zm-3.531,0H53.838v-.389H56.36Zm-3.531,0H50.307v-.389h2.522Zm-3.531,0H46.776v-.389H49.3Zm-3.531,0H43.245v-.389h2.522Zm-3.531,0H39.714v-.389h2.522Zm-3.531,0H36.183v-.389h2.522Zm-3.531,0H32.652v-.389h2.522Zm-3.531,0H29.121v-.389h2.522Zm-3.531,0H25.591v-.389h2.522Zm-3.531,0H22.06v-.389h2.522Zm-3.531,0H18.529v-.389H21.05Zm-3.531,0H15v-.389H17.52Zm-3.531,0H11.467v-.389h2.522Zm-3.531,0H7.936v-.389h2.522Zm-2.636-.895H7.433v-2.522h.389Zm0-3.531H7.433v-2.522h.389Zm0-3.531H7.433v-2.522h.389Zm0-3.531H7.433v-2.522h.389Zm0-3.531H7.433V845.06h.389Zm0-3.531H7.433v-2.522h.389Zm0-3.531H7.433V838h.389Zm0-3.531H7.433v-2.522h.389Zm0-3.531H7.433v-2.522h.389Zm0-3.531H7.433v-2.522h.389Zm0-3.531H7.433v-2.522h.389Zm0-3.531H7.433v-2.522h.389Zm0-3.531H7.433v-2.522h.389Zm0-3.531H7.433v-2.522h.389Zm0-3.531H7.433v-2.522h.389Zm0-3.531H7.433V806.22h.389Zm0-3.531H7.433v-2.522h.389Zm0-3.531H7.433v-2.522h.389Zm0-3.531H7.433v-2.522h.389Zm0-3.531H7.433V792.1h.389Zm0-3.531H7.433v-2.522h.389Zm0-3.531H7.433v-2.522h.389Zm0-3.531H7.433V781.5h.389Zm0-3.531H7.433v-2.522h.389Zm0-3.531H7.433v-2.522h.389Zm0-3.531H7.433v-2.522h.389Zm0-3.531H7.433V767.38h.389Zm0-3.531H7.433v-2.522h.389Zm0-3.531H7.433v-2.522h.389Zm0-3.531H7.433v-2.522h.389Zm0-3.531H7.433v-2.522h.389Zm0-3.531H7.433v-2.522h.389Zm0-3.531H7.433v-2.522h.389Zm0-3.531H7.433v-2.522h.389Zm0-3.531H7.433v-2.522h.389Zm0-3.531H7.433V735.6h.389Zm0-3.531H7.433V732.07h.389Zm0-3.531H7.433V728.54h.389Zm0-3.531H7.433v-2.522h.389Zm0-3.531H7.433v-2.522h.389Zm0-3.531H7.433v-2.522h.389Zm0-3.531H7.433v-2.522h.389Zm0-3.531H7.433v-2.522h.389Zm0-3.531H7.433v-2.522h.389Zm0-3.531H7.433v-2.522h.389Zm0-3.531H7.433v-2.522h.389Zm0-3.531H7.433v-2.522h.389Zm0-3.531H7.433V693.23h.389Zm0-3.531H7.433V689.7h.389Zm0-3.531H7.433v-2.522h.389Zm0-3.531H7.433v-2.522h.389Zm0-3.531H7.433v-2.522h.389Zm0-3.531H7.433v-2.522h.389Zm0-3.531H7.433v-2.522h.389Zm0-3.531H7.433v-2.522h.389Zm0-3.531H7.433v-2.522h.389Zm0-3.531H7.433v-2.522h.389Zm0-3.531H7.433v-2.522h.389Zm0-3.531H7.433V654.39h.389Zm0-3.531H7.433v-2.522h.389Zm0-3.531H7.433v-2.522h.389Zm0-3.531H7.433V643.8h.389Zm0-3.531H7.433v-2.522h.389Zm0-3.531H7.433v-2.522h.389Zm0-3.531H7.433V633.2h.389Zm0-3.531H7.433v-2.522h.389Zm0-3.531H7.433v-2.522h.389Zm0-3.531H7.433v-2.522h.389Zm0-3.531H7.433v-2.522h.389Zm0-3.531H7.433V615.55h.389Zm0-3.531H7.433v-2.522h.389Zm0-3.531H7.433v-2.522h.389Zm0-3.531H7.433v-2.522h.389Zm0-3.531H7.433v-2.522h.389Zm0-3.531H7.433V597.9h.389Zm0-3.531H7.433v-2.522h.389Zm0-3.531H7.433v-2.522h.389Zm0-3.531H7.433V587.3h.389Zm0-3.531H7.433v-2.522h.389Zm0-3.531H7.433v-2.522h.389Zm0-3.531H7.433V576.71h.389Zm0-3.531H7.433v-2.522h.389Zm0-3.531H7.433v-2.522h.389Zm0-3.531H7.433v-2.522h.389Zm0-3.531H7.433v-2.522h.389Zm0-3.531H7.433v-2.522h.389Zm0-3.531H7.433v-2.522h.389Zm0-3.531H7.433v-2.522h.389Zm0-3.531H7.433v-2.522h.389Zm0-3.531H7.433v-2.522h.389Zm0-3.531H7.433V541.4h.389Zm0-3.531H7.433V537.87h.389Zm0-3.531H7.433v-2.522h.389Zm0-3.531H7.433v-2.522h.389Zm0-3.531H7.433v-2.522h.389Zm0-3.531H7.433v-2.522h.389Zm0-3.531H7.433v-2.522h.389Zm0-3.531H7.433v-2.522h.389Zm0-3.531H7.433v-2.522h.389Zm0-3.531H7.433v-2.522h.389Zm0-3.531H7.433v-2.522h.389Zm0-3.531H7.433v-2.522h.389Zm0-3.531H7.433V499.03h.389Zm0-3.531H7.433V495.5h.389Zm0-3.531H7.433v-2.522h.389Zm0-3.531H7.433v-2.522h.389Zm0-3.531H7.433v-2.522h.389Zm0-3.531H7.433v-2.522h.389Zm0-3.531H7.433v-2.522h.389Zm0-3.531H7.433v-2.522h.389Zm0-3.531H7.433v-2.522h.389Zm0-3.531H7.433v-2.522h.389Zm0-3.531H7.433V463.72h.389Zm0-3.531H7.433v-2.522h.389Zm0-3.531H7.433v-2.522h.389Zm0-3.531H7.433v-2.522h.389Zm0-3.531H7.433V449.6h.389Zm0-3.531H7.433v-2.522h.389Zm0-3.531H7.433v-2.522h.389Zm0-3.531H7.433V439h.389Zm0-3.531H7.433v-2.522h.389Zm0-3.531H7.433v-2.522h.389Zm0-3.531H7.433v-2.522h.389Zm0-3.531H7.433V424.88h.389Zm0-3.531H7.433v-2.522h.389Zm0-3.531H7.433v-2.522h.389Zm0-3.531H7.433v-2.522h.389Zm0-3.531H7.433v-2.522h.389Zm0-3.531H7.433v-2.522h.389Zm0-3.531H7.433v-2.522h.389Zm0-3.531H7.433v-2.522h.389Zm0-3.531H7.433v-2.522h.389Zm0-3.531H7.433V393.1h.389Zm0-3.531H7.433v-2.522h.389Zm0-3.531H7.433V386.04h.389Zm0-3.531H7.433v-2.522h.389Zm0-3.531H7.433v-2.522h.389Zm0-3.531H7.433v-2.522h.389Zm0-3.531H7.433v-2.522h.389Zm0-3.531H7.433v-2.522h.389Zm0-3.531H7.433v-2.522h.389Zm0-3.531H7.433v-2.522h.389Zm0-3.531H7.433v-2.522h.389Zm0-3.531H7.433v-2.522h.389Zm0-3.531H7.433v-2.522h.389Zm0-3.531H7.433V347.2h.389Zm0-3.531H7.433v-2.522h.389Zm0-3.531H7.433v-2.522h.389Zm0-3.531H7.433v-2.522h.389Zm0-3.531H7.433v-2.522h.389Zm0-3.531H7.433v-2.522h.389Zm0-3.531H7.433v-2.522h.389Zm0-3.531H7.433v-2.522h.389Zm0-3.531H7.433v-2.522h.389Zm0-3.531H7.433v-2.522h.389Zm0-3.531H7.433v-2.522h.389Zm0-3.531H7.433V308.36h.389Zm0-3.531H7.433v-2.522h.389Zm0-3.531H7.433V301.3h.389Zm0-3.531H7.433v-2.522h.389Zm0-3.531H7.433v-2.522h.389Zm0-3.531H7.433v-2.522h.389Zm0-3.531H7.433v-2.522h.389Zm0-3.531H7.433v-2.522h.389Zm0-3.531H7.433v-2.522h.389Zm0-3.531H7.433v-2.522h.389Zm0-3.531H7.433v-2.522h.389Zm0-3.531H7.433V269.52h.389Zm0-3.531H7.433v-2.522h.389Zm0-3.531H7.433v-2.522h.389Zm0-3.531H7.433v-2.522h.389Zm0-3.531H7.433V255.4h.389Zm0-3.531H7.433v-2.522h.389ZM113.2,252.312l-.224-.318.611-.429.224.318Zm1.436-1.01-.224-.318,2.063-1.451.224.318ZM7.822,250.856H7.433v-2.522h.389Zm109.7-1.585-.224-.318,2.063-1.451.224.318Zm-109.7-1.946H7.433V244.8h.389Zm112.593-.085-.224-.318,2.063-1.451.224.318Zm2.888-2.031-.224-.318,2.063-1.451.224.318ZM7.822,243.794H7.433v-2.522h.389Zm118.369-.617-.224-.318,2.063-1.451.224.318Zm2.888-2.031-.224-.318,2.063-1.451.224.318ZM7.822,240.263H7.433v-2.522h.389Zm124.146-1.148-.224-.318,2.063-1.451.224.318Zm2.888-2.031-.224-.318,2.063-1.451.224.318ZM7.822,236.732H7.433V234.21h.389Zm129.922-1.68-.224-.318,2.063-1.451.224.318ZM7.822,233.2H7.433v-2.522h.389Zm132.81-.18-.224-.318,2.063-1.451.224.318Zm2.888-2.031-.224-.318,2.063-1.451.224.318Zm-135.7-1.32H7.433v-2.522h.389Zm138.587-.711-.224-.318,2.063-1.451.224.318Zm2.888-2.031-.224-.318,2.063-1.451.224.318ZM7.822,226.14H7.433v-2.522h.389ZM152.185,224.9l-.224-.318,2.063-1.451.224.318Zm2.888-2.031-.224-.318,2.063-1.451.224.318ZM7.822,222.609H7.433v-2.522h.389Zm150.14-1.774-.224-.318,2.063-1.451.224.318ZM7.822,219.078H7.433v-2.522h.389ZM160.85,218.8l-.224-.318,2.063-1.451.224.318Zm2.888-2.031-.224-.318L165.577,215l.224.318ZM7.822,215.547H7.433v-2.522h.389Zm158.8-.806-.224-.318,2.063-1.451.224.318Zm2.888-2.031-.224-.318,2.063-1.451.224.318ZM7.822,212.016H7.433v-2.522h.389ZM172.4,210.679l-.224-.318,2.063-1.451.224.318Zm2.888-2.031-.224-.318,2.063-1.451.224.318ZM7.822,208.485H7.433v-2.522h.389Zm170.357-1.869-.224-.318,2.063-1.451.224.318ZM7.822,204.954H7.433v-2.522h.389Zm173.245-.369-.224-.318,2.063-1.451.224.318Zm2.888-2.031-.224-.318,2.063-1.451.224.318ZM7.822,201.423H7.433V198.9h.389Zm179.022-.9-.224-.318,2.063-1.451.224.318Zm2.888-2.031-.224-.318,2.063-1.451.224.318Zm-181.91-.6H7.433V195.37h.389Zm184.8-1.432-.224-.318,2.063-1.451.224.318Zm2.888-2.031-.224-.318,2.063-1.451.224.318ZM7.822,194.361H7.433v-2.522h.389ZM198.4,192.4l-.224-.318,2.063-1.451.224.318ZM7.822,190.83H7.433v-2.522h.389Zm193.463-.464-.224-.318,2.063-1.451.224.318Zm2.888-2.031-.224-.318,2.063-1.451.224.318ZM7.822,187.3H7.433v-2.522h.389Zm199.239-1-.224-.318,2.063-1.451.224.318Zm2.888-2.031-.224-.318,2.063-1.451.224.318Zm-202.127-.5H7.433v-2.522h.389Zm205.015-1.526-.224-.318,2.063-1.451.224.318Zm-205.015-2H7.433v-2.522h.389Zm207.9-.027-.224-.318,2.063-1.451.224.318Zm2.888-2.031-.224-.318,2.063-1.451.224.318ZM7.822,176.707H7.433v-2.522h.389Zm213.68-.558-.224-.318,2.063-1.451.224.318Zm2.888-2.031-.224-.318,2.063-1.451.224.318ZM7.822,173.176H7.433v-2.522h.389Zm219.456-1.09-.224-.318,2.063-1.451.224.318Zm2.888-2.031-.224-.318,2.063-1.451.224.318Zm-222.345-.41H7.433v-2.522h.389Zm225.233-1.621-.224-.318,2.063-1.451.224.318ZM7.822,166.114H7.433v-2.522h.389Zm228.121-.121-.224-.318,2.063-1.451.224.318Zm2.888-2.031-.224-.318,2.063-1.451.224.318ZM7.822,162.583H7.433v-2.522h.389Zm233.9-.653-.224-.318,2.063-1.451.224.318Zm2.888-2.031-.224-.318,2.063-1.451.224.318ZM7.822,159.052H7.433V156.53h.389ZM247.5,157.868l-.224-.318,2.063-1.451.224.318Zm2.888-2.031-.224-.318,2.063-1.451.224.318ZM7.822,155.521H7.433V153h.389Zm245.45-1.716-.224-.318,2.063-1.451.224.318ZM7.822,151.99H7.433v-2.522h.389Zm248.338-.216-.224-.318L258,150.005l.224.318Zm2.888-2.031-.224-.318,2.063-1.451.224.318Zm167.373-.238H425.4v-.389h.635v-1.5h.389Zm-2.033,0h-2.522v-.389h2.522Zm-3.531,0h-2.522v-.389h2.522Zm-3.531,0h-2.522v-.389h2.522Zm-3.531,0h-2.522v-.389H413.8Zm-3.531,0h-2.522v-.389h2.522Zm-3.531,0h-2.522v-.389h2.522Zm-3.531,0h-2.522v-.389H403.2Zm-3.531,0h-2.522v-.389h2.522Zm-3.531,0H393.62v-.389h2.522Zm-3.531,0h-2.522v-.389h2.522Zm-3.531,0h-2.522v-.389h2.522Zm-3.531,0h-2.522v-.389h2.522Zm-3.531,0H379.5v-.389h2.522Zm-3.531,0h-2.522v-.389h2.522Zm-3.531,0h-2.522v-.389h2.522Zm-3.531,0H368.9v-.389h2.522Zm-3.531,0h-2.522v-.389h2.522Zm-3.531,0h-2.522v-.389h2.522Zm-3.531,0h-2.522v-.389h2.522Zm-3.531,0H354.78v-.389H357.3Zm-3.531,0h-2.522v-.389h2.522Zm-3.531,0h-2.522v-.389h2.522Zm-3.531,0h-2.522v-.389h2.522Zm-3.531,0h-.784v-2.127h.389v1.738h.395ZM7.822,148.459H7.433v-2.522h.389Zm254.115-.747-.224-.318,2.063-1.451.224.318Zm164.485-1.1h-.389v-2.522h.389Zm-83.639-.24h-.389v-2.522h.389Zm-77.958-.688-.224-.318,2.063-1.451.224.318Zm-257-.752H7.433v-2.522h.389Zm259.891-1.279-.224-.318,2.063-1.451.224.318Zm158.709-.572h-.389v-2.522h.389Zm-83.639-.24h-.389v-2.522h.389ZM270.6,141.618l-.224-.318,2.063-1.451.224.318ZM7.822,141.4H7.433v-2.522h.389Zm265.668-1.81-.224-.318,2.063-1.451.224.318Zm152.932-.04h-.389v-2.522h.389Zm-83.639-.24h-.389v-2.522h.389ZM7.822,137.866H7.433v-2.522h.389Zm268.556-.311-.224-.318,2.063-1.451.224.318Zm150.044-1.54h-.389v-2.522h.389Zm-83.639-.24h-.389v-2.522h.389Zm-63.517-.251-.224-.318,2.063-1.451.224.318ZM7.822,134.336H7.433v-2.522h.389Zm274.332-.842-.224-.318,2.063-1.451.224.318Zm144.268-1.009h-.389v-2.522h.389Zm-83.639-.24h-.389v-2.522h.389Zm-57.741-.783-.224-.318,2.063-1.451.224.318ZM7.822,130.8H7.433v-2.522h.389Zm280.109-1.374-.224-.318,2.063-1.451.224.318Zm138.491-.477h-.389v-2.522h.389Zm-83.639-.24h-.389v-2.522h.389ZM290.819,127.4l-.224-.318,2.063-1.451.224.318Zm-283-.126H7.433v-2.522h.389Zm418.6-1.851h-.389V122.9h.389Zm-132.715-.054-.224-.318,2.063-1.451.224.318Zm49.076-.186h-.389v-2.522h.389ZM7.822,123.743H7.433v-2.522h.389Zm288.773-.405-.224-.318,2.063-1.451.224.318Zm129.827-1.446h-.389V119.37h.389Zm-83.639-.24h-.389V119.13h.389Zm-43.3-.346-.224-.318,2.063-1.451.224.318ZM7.822,120.212H7.433V117.69h.389Zm294.55-.937-.224-.318,2.063-1.451.224.318Zm124.05-.914h-.389v-2.522h.389Zm-83.639-.24h-.389V115.6h.389Zm-37.524-.877-.224-.318,2.063-1.451.224.318ZM7.822,116.681H7.433v-2.522h.389Zm300.326-1.468-.224-.318,2.063-1.451.224.318Zm118.274-.383h-.389v-2.522h.389Zm-83.639-.24h-.389v-2.522h.389Zm-31.747-1.409-.224-.318,2.063-1.451.224.318ZM7.822,113.15H7.433v-2.522h.389Zm418.6-1.851h-.389v-2.522h.389Zm-112.5-.149-.224-.318,2.063-1.451.224.318Zm28.859-.091h-.389v-2.522h.389ZM7.822,109.619H7.433V107.1h.389Zm308.99-.5-.224-.318,2.063-1.451.224.318Zm109.61-1.351h-.389v-2.522h.389Zm-83.639-.24h-.389v-2.522h.389Zm-23.083-.44-.224-.318,2.063-1.451.224.318Zm-311.879-1H7.433v-2.522h.389Zm314.767-1.031-.224-.318,2.063-1.451.224.318Zm103.833-.82h-.389v-2.522h.389ZM342.783,104h-.389v-2.522h.389Zm-17.306-.972-.224-.318,2.063-1.451.224.318ZM7.822,102.557H7.433v-2.522h.389Zm320.543-1.563-.224-.318,2.063-1.451.224.318Zm98.057-.288h-.389V98.184h.389Zm-83.639-.24h-.389V97.945h.389ZM7.822,99.026H7.433V96.5h.389Zm323.431-.063-.224-.318,2.063-1.451.224.318Zm95.169-1.788h-.389V94.654h.389Zm-83.639-.24h-.389V94.414h.389Zm-8.642,0-.224-.318,2.063-1.451.224.318ZM7.822,95.5H7.433V92.973h.389ZM337.03,94.9l-.224-.318,2.063-1.451.224.318Zm89.392-1.256h-.389V91.123h.389Zm-83.639-.24h-.389V90.948h-.54v-.389h2.522v.389h-1.593Zm-2.865-.535-.224-.318,2.063-1.451.224.318Zm-332.1-.905H7.433V90.559H8.938v.389H7.822Zm417.765-1.016h-2.522v-.389h2.522Zm-3.531,0h-2.522v-.389h2.522Zm-3.531,0H416v-.389h2.522Zm-3.531,0h-2.522v-.389h2.522Zm-3.531,0h-2.522v-.389h2.522Zm-3.531,0h-2.522v-.389h2.522Zm-3.531,0H401.88v-.389H404.4Zm-3.531,0h-2.522v-.389h2.522Zm-3.531,0h-2.522v-.389h2.522Zm-3.531,0h-2.522v-.389h2.522Zm-3.531,0h-2.522v-.389h2.522Zm-3.531,0h-2.522v-.389h2.522Zm-3.531,0h-2.522v-.389h2.522Zm-3.531,0h-2.522v-.389h2.522Zm-3.531,0h-2.522v-.389h2.522Zm-3.531,0H370.1v-.389h2.522Zm-3.531,0h-2.522v-.389h2.522Zm-3.531,0H363.04v-.389h2.522Zm-3.531,0h-2.522v-.389h2.522Zm-3.531,0h-2.522v-.389H358.5Zm-3.531,0h-2.522v-.389h2.522Zm-3.531,0h-2.522v-.389h2.522Zm-3.531,0h-2.522v-.389h2.522Zm-7.062,0h-2.522v-.389h2.522Zm-3.531,0h-2.522v-.389h2.522Zm-3.531,0h-2.522v-.389h2.522Zm-3.531,0H327.73v-.389h2.522Zm-3.531,0H324.2v-.389h2.522Zm-3.531,0h-2.522v-.389h2.522Zm-3.531,0h-2.522v-.389h2.522Zm-3.531,0h-2.522v-.389h2.522Zm-3.531,0h-2.522v-.389H312.6Zm-3.531,0h-2.522v-.389h2.522Zm-3.531,0h-2.522v-.389h2.522Zm-3.531,0h-2.522v-.389H302Zm-3.531,0h-2.522v-.389h2.522Zm-3.531,0h-2.522v-.389h2.522Zm-3.531,0H288.89v-.389h2.522Zm-3.531,0h-2.522v-.389h2.522Zm-3.531,0h-2.522v-.389h2.522Zm-3.531,0H278.3v-.389h2.522Zm-3.531,0h-2.522v-.389h2.522Zm-3.531,0h-2.522v-.389h2.522Zm-3.531,0H267.7v-.389h2.522Zm-3.531,0h-2.522v-.389H266.7Zm-3.531,0h-2.522v-.389h2.522Zm-3.531,0h-2.522v-.389h2.522Zm-3.531,0h-2.522v-.389H256.1Zm-3.531,0H250.05v-.389h2.522Zm-3.531,0h-2.522v-.389h2.522Zm-3.531,0h-2.522v-.389h2.522Zm-3.531,0h-2.522v-.389h2.522Zm-3.531,0h-2.522v-.389h2.522Zm-3.531,0H232.4v-.389h2.522Zm-3.531,0h-2.522v-.389h2.522Zm-3.531,0h-2.522v-.389h2.522Zm-3.531,0H221.8v-.389h2.522Zm-3.531,0h-2.522v-.389h2.522Zm-3.531,0h-2.522v-.389h2.522Zm-3.531,0H211.21v-.389h2.522Zm-3.531,0h-2.522v-.389H210.2Zm-3.531,0h-2.522v-.389h2.522Zm-3.531,0h-2.522v-.389h2.522Zm-3.531,0h-2.522v-.389h2.522Zm-3.531,0h-2.522v-.389h2.522Zm-3.531,0h-2.522v-.389h2.522Zm-3.531,0h-2.522v-.389h2.522Zm-3.531,0h-2.522v-.389h2.522Zm-3.531,0h-2.522v-.389h2.522Zm-3.531,0H175.9v-.389h2.522Zm-3.531,0H172.37v-.389h2.522Zm-3.531,0h-2.522v-.389h2.522Zm-3.531,0h-2.522v-.389h2.522Zm-3.531,0h-2.522v-.389H164.3Zm-3.531,0h-2.522v-.389h2.522Zm-3.531,0h-2.522v-.389h2.522Zm-3.531,0h-2.522v-.389h2.522Zm-3.531,0h-2.522v-.389h2.522Zm-3.531,0h-2.522v-.389h2.522Zm-3.531,0h-2.522v-.389h2.522Zm-3.531,0h-2.522v-.389h2.522Zm-3.531,0H133.53v-.389h2.522Zm-3.531,0H130v-.389h2.522Zm-3.531,0h-2.522v-.389h2.522Zm-3.531,0h-2.522v-.389h2.522Zm-3.531,0h-2.522v-.389h2.522Zm-3.531,0h-2.522v-.389H118.4Zm-3.531,0h-2.522v-.389h2.522Zm-3.531,0h-2.522v-.389h2.522Zm-3.531,0h-2.522v-.389H107.8Zm-3.531,0h-2.522v-.389h2.522Zm-3.531,0H98.22v-.389h2.522Zm-3.531,0H94.689v-.389h2.522Zm-3.531,0H91.159v-.389H93.68Zm-3.531,0H87.628v-.389H90.15Zm-3.531,0H84.1v-.389h2.522Zm-3.531,0H80.566v-.389h2.522Zm-3.531,0H77.035v-.389h2.522Zm-3.531,0H73.5v-.389h2.522Zm-3.531,0H69.973v-.389h2.522Zm-3.531,0H66.442v-.389h2.522Zm-3.531,0H62.911v-.389h2.522Zm-3.531,0H59.38v-.389H61.9Zm-3.531,0H55.849v-.389h2.522Zm-3.531,0H52.318v-.389H54.84Zm-3.531,0H48.787v-.389h2.522Zm-3.531,0H45.257v-.389h2.522Zm-3.531,0H41.726v-.389h2.522Zm-3.531,0H38.195v-.389h2.522Zm-3.531,0H34.664v-.389h2.522Zm-3.531,0H31.133v-.389h2.522Zm-3.531,0H27.6v-.389h2.522Zm-3.531,0H24.071v-.389h2.522Zm-3.531,0H20.54v-.389h2.522Zm-3.531,0H17.009v-.389h2.522Zm-3.531,0H13.478v-.389H16Zm-3.531,0H9.947v-.389h2.522Z" transform="translate(417.977 13033.404)" fill="#9d9d9c"/>
        <path id="Trazado_901528" data-name="Trazado 901528" d="M388.816,877.268H208.563V35.821h231V64.413h-.389V36.21H208.952V876.878H388.427V831.308l0-.021,9.745-43.038.379.086-9.74,43.016Z" transform="translate(321.191 13059.744)" fill="#9d9d9c"/>
        <path id="Trazado_901529" data-name="Trazado 901529" d="M361.342,1497.549,181.5,1461.214H151.954v-51.149h.389v50.76h29.193l.019,0,179.864,36.338Z" transform="translate(348.432 12398.452)" fill="#9d9d9c"/>
        <path id="Línea_1908" data-name="Línea 1908" d="M247.292.014H0V-.375H247.292Z" transform="translate(529.948 13612.187)" fill="#9d9d9c"/>
        <path id="Trazado_901530" data-name="Trazado 901530" d="M208.952,975.033l-.388-.033,24.765-288.862L209.6,400.125l.388-.032L233.72,686.138v.016Z" transform="translate(321.19 12884.455)" fill="#9d9d9c"/>
        <path id="Trazado_901531" data-name="Trazado 901531" d="M239.43,256.653H7.807v-.389H239.041V36.2h.389Z" transform="translate(417.796 13059.563)" fill="#9d9d9c"/>
        <path id="Trazado_901532" data-name="Trazado 901532" d="M555.033,588.762,517.064,198.62,396.774,334.3l-.291-.258L517.365,197.694l.043.444L555.42,588.724Z" transform="translate(230.764 12981.85)" fill="#9d9d9c"/>
        <path id="Trazado_901533" data-name="Trazado 901533" d="M187.454,317.633l-2.346-.926.143-.362,2.346.926Zm-3.284-1.3-2.346-.926.143-.362,2.346.926Zm-3.284-1.3-2.346-.926.143-.362,2.346.926Zm-3.284-1.3-2.346-.926.143-.362,2.346.926Zm-3.284-1.3-2.346-.926.143-.362,2.346.926Zm-3.284-1.3-2.346-.926.143-.362,2.346.926Zm-3.284-1.3-2.346-.926.143-.362,2.346.926Zm-3.284-1.3-2.346-.926.143-.362,2.346.926Zm-1.744-1.978-.364-.138.892-2.359.364.138Zm1.248-3.3-.364-.138.892-2.359.364.138Zm1.248-3.3-.364-.138.892-2.359.364.138Zm1.248-3.3-.364-.138.892-2.359.364.138Zm1.248-3.3-.364-.138.892-2.359.364.138Zm1.248-3.3-.364-.138.892-2.359.364.138Zm1.248-3.3-.364-.138.892-2.359.364.138Zm1.248-3.3-.364-.138.892-2.359.364.138Zm1.248-3.3-.364-.138.892-2.359.364.138Zm1.248-3.3-.364-.138.892-2.359.364.138Zm1.248-3.3-.364-.138.892-2.359.364.138Zm1.248-3.3-.364-.138.892-2.359.364.138Zm1.248-3.3-.364-.138.892-2.359.364.138Zm1.248-3.3-.364-.138.892-2.359.364.138Zm1.248-3.3-.364-.138.892-2.359.364.138Zm1.248-3.3-.364-.138.892-2.359.364.138Zm1.248-3.3-.364-.138.892-2.359.364.138Zm1.248-3.3-.364-.138.892-2.359.364.138Zm1.248-3.3-.364-.138.892-2.359.364.138Zm1.248-3.3-.364-.138.892-2.359.364.138Zm1.248-3.3-.364-.138.892-2.359.364.138Zm30.721-2.56-.551-.241.156-.356.551.241Zm-1.475-.646-2.31-1.012.156-.356,2.31,1.012Zm-28-.1-.364-.138.892-2.359.364.138ZM213.7,235.9l-2.31-1.012.156-.356,2.31,1.012Zm-3.234-1.417-2.31-1.012.156-.356,2.31,1.012Zm-20.281-.566-.364-.138.892-2.359.364.138Zm17.047-.851-2.31-1.012.156-.356,2.31,1.012Zm-3.234-1.417-2.31-1.012.156-.356,2.31,1.012Zm-12.565-1.035-.364-.138.892-2.359.364.138Zm9.331-.383-2.31-1.012.156-.356,2.31,1.012Zm-3.234-1.417-2.31-1.012.156-.356,2.31,1.012ZM194.29,227.4l-1.413-.619-.2.533-.364-.138.346-.916,1.788.784Z" transform="translate(343.541 12968.104)" fill="#9d9d9c"/>
        <path id="Trazado_901534" data-name="Trazado 901534" d="M76.3,432.487h-.389v-2.522H76.3Zm0-3.531h-.389v-2.522H76.3Zm0-3.531h-.389V422.9H76.3Zm0-3.531h-.389v-2.522H76.3Zm0-3.531h-.389v-2.522H76.3Zm0-3.531h-.389v-2.522H76.3Zm0-3.531h-.389V408.78H76.3Zm0-3.531h-.389v-2.522H76.3Zm0-3.531h-.389v-.985h1.926v.389H76.3Zm68.625-.6H142.4v-.389h2.522Zm-3.531,0h-2.522v-.389h2.522Zm-3.531,0h-2.522v-.389h2.522Zm-3.531,0H131.81v-.389h2.522Zm-3.531,0h-2.522v-.389H130.8Zm-3.531,0h-2.522v-.389h2.522Zm-3.531,0h-2.522v-.389h2.522Zm-3.531,0h-2.522v-.389h2.522Zm-3.531,0h-2.522v-.389h2.522Zm-3.531,0h-2.522v-.389h2.522Zm-3.531,0h-2.522v-.389h2.522Zm-3.531,0h-2.522v-.389h2.522Zm-3.531,0h-2.522v-.389h2.522Zm-3.531,0H96.5v-.389h2.522Zm-3.531,0H92.97v-.389h2.522Zm-3.531,0H89.439v-.389H91.96Zm-3.531,0H85.908v-.389H88.43Zm-3.531,0H82.377v-.389H84.9Zm-3.531,0H78.846v-.389h2.522Z" transform="translate(385.024 12882.934)" fill="#9d9d9c"/>
        <path id="Trazado_901535" data-name="Trazado 901535" d="M216.231,464.353v-.389a20.671,20.671,0,0,0,2.492-.151l.047.386A21.063,21.063,0,0,1,216.231,464.353Zm3.547-.3-.066-.383a20.324,20.324,0,0,0,2.429-.574l.113.372A20.712,20.712,0,0,1,219.778,464.051Zm3.443-.9-.131-.366a20.33,20.33,0,0,0,2.294-.984l.175.347A20.716,20.716,0,0,1,223.222,463.147Zm3.237-1.483-.192-.339a20.478,20.478,0,0,0,2.092-1.362l.232.313A20.866,20.866,0,0,1,226.458,461.664Zm2.935-2.015-.247-.3a20.58,20.58,0,0,0,1.83-1.7l.282.269A20.968,20.968,0,0,1,229.393,459.649Zm2.55-2.484-.294-.255a20.537,20.537,0,0,0,1.515-1.984l.323.217A20.927,20.927,0,0,1,231.943,457.165Zm2.09-2.881-.333-.2a20.389,20.389,0,0,0,1.154-2.214l.355.158A20.788,20.788,0,0,1,234.033,454.283Zm1.568-3.2-.363-.141a20.292,20.292,0,0,0,.757-2.379l.377.095A20.691,20.691,0,0,1,235.6,451.087Zm.995-3.418-.382-.076a20.46,20.46,0,0,0,.337-2.474l.388.029A20.841,20.841,0,0,1,236.6,447.669Zm.394-3.538-.389-.01c0-.177.007-.356.007-.534,0-.654-.031-1.314-.093-1.962l.387-.037c.063.66.095,1.332.095,2C237,443.767,236.994,443.95,236.99,444.131Zm-.595-3.5a20.346,20.346,0,0,0-.51-2.444l.375-.1a20.742,20.742,0,0,1,.52,2.491Zm-.8-3.4a20.315,20.315,0,0,0-.923-2.32l.352-.166a20.709,20.709,0,0,1,.941,2.364Zm-1.371-3.213a20.451,20.451,0,0,0-1.307-2.127l.318-.224a20.845,20.845,0,0,1,1.332,2.168Zm-1.9-2.931a20.57,20.57,0,0,0-1.65-1.874l.276-.274a20.954,20.954,0,0,1,1.681,1.909Zm-2.372-2.565a20.559,20.559,0,0,0-1.944-1.566l.225-.317a20.942,20.942,0,0,1,1.981,1.6ZM227.18,426.4A20.409,20.409,0,0,0,225,425.187l.168-.351a20.811,20.811,0,0,1,2.224,1.235Zm-3.095-1.62a20.288,20.288,0,0,0-2.358-.819l.1-.375a20.684,20.684,0,0,1,2.4.835Zm-3.327-1.064a20.41,20.41,0,0,0-2.464-.4l.039-.387a20.788,20.788,0,0,1,2.511.409Zm-3.461-.477c-.353-.018-.712-.027-1.067-.027h-1.444v-.389h1.444c.362,0,.727.009,1.087.028Zm-3.521-.027h-.913v-.389h.913Z" transform="translate(319.122 12873.518)" fill="#9d9d9c"/>
        <path id="Línea_1909" data-name="Línea 1909" d="M.009,67.951l-.254-.3L78.793-.284l.254.3Z" transform="translate(574.321 13129.799)" fill="#9d9d9c"/>
        <path id="Trazado_901536" data-name="Trazado 901536" d="M286.377,132.466l-.369-.124,22.754-67.781V36.2h.389v28.43l-.01.03Z" transform="translate(283.924 13059.563)" fill="#9d9d9c"/>
        <path id="Trazado_901537" data-name="Trazado 901537" d="M1226.27,869.2H1076.019v-.389h149.862V207.6H1049.459v-.389H1226.27Z" transform="translate(-83.452 12977.271)" fill="#9d9d9c"/>
        <path id="Trazado_901538" data-name="Trazado 901538" d="M931.228,1405.449l-.052-.18-24.619-85.658.194-.05,44.052-11.368.1.377-43.859,11.318,24.457,85.093,75.518-18.787-26.51-102.125.377-.1,26.609,102.506-.191.047Z" transform="translate(-14.687 12459.129)" fill="#9d9d9c"/>
        <path id="Trazado_901539" data-name="Trazado 901539" d="M1014.195,204.587a1.557,1.557,0,0,1,1.2.57c95.684,116.811,149.54,129.422,168.254,129.422a23.061,23.061,0,0,0,6.649-.743,1.561,1.561,0,0,1,2.061,1.6l-19.839,243.859a181.422,181.422,0,0,0-.477,21.168l1.441,39.86,18.873,188.7a1.556,1.556,0,0,1-1.169,1.664L1004.83,877.576a1.556,1.556,0,0,1-1.9-1.159l-20.1-87.09a1.556,1.556,0,0,1,.532-1.556l29.082-23.74L986.916,659.338a246.585,246.585,0,0,1-6.259-39.156l-2.119-27.189c-13.265-119.98,33.649-384.466,34.125-387.123a1.557,1.557,0,0,1,1.532-1.282Zm169.458,133.1c-19.014,0-73.315-12.53-168.509-127.943-5.4,31.108-45.918,270.689-33.507,382.952l2.124,27.239a243.452,243.452,0,0,0,6.179,38.66l25.767,105.646a1.556,1.556,0,0,1-.528,1.574L986.087,789.57l19.523,84.6,183.519-46.179-18.746-187.46-1.448-39.958a184.45,184.45,0,0,1,.485-21.532l19.668-241.751A33.579,33.579,0,0,1,1183.653,337.692Z" transform="translate(-48.188 12978.533)"/>
        <path id="Trazado_901540" data-name="Trazado 901540" d="M609.45,1394.146l-.192-.052-33.768-9.05.1-.376,33.577,9,25.352-103.091-33.627-9.482.106-.375,33.989,9.584Z" transform="translate(144.625 12460.693)" fill="#9d9d9c"/>
        <path id="Trazado_901541" data-name="Trazado 901541" d="M296.809,87.934c1.579,0,3.163.077,4.765.234,1.791-.093,3.8-.136,5.777-.136,71.433-.006,122.218,56.113,122.722,56.68a1.556,1.556,0,0,1,.392.962l13.8,293.548-4.824,63.941a403.57,403.57,0,0,1-10.355,65.165L369.115,813.738a1.556,1.556,0,0,1-1.788,1.162L148.349,775.382a1.557,1.557,0,0,1-1.276-1.643L164.261,534.6,144.638,287.839a1.565,1.565,0,0,1,1.5-1.679c.2-.008,19.991-1.247,33.217-41.963C191.264,207.54,234.925,87.934,296.809,87.934Zm4.681,3.337c-1.719-.153-3.2-.225-4.681-.225-59.785,0-102.749,117.959-114.492,154.112-11.925,36.711-29.1,42.872-34.459,43.905l19.507,245.52L150.278,772.567l216.16,39.01,59.628-243.988a400.445,400.445,0,0,0,10.275-64.661l4.821-63.75-13.78-292.794c-4.671-5.015-53.174-55.239-120.019-55.239C305.425,91.137,303.459,91.186,301.49,91.271Z" transform="translate(351.955 13034.667)"/>
        <path id="Trazado_905920" data-name="Trazado 905920" d="M0,0H758.723V862.713H0Z" transform="translate(421.553 13076.983)" fill="none"/>
        <path id="Trazado_905921" data-name="Trazado 905921" d="M3.56,0H2.651V-6.021L.83-5.352v-.82l2.588-.972H3.56ZM6.621-3.564l.361-3.545h3.643v.835H7.749L7.534-4.336a2.294,2.294,0,0,1,1.187-.308A1.961,1.961,0,0,1,10.264-4a2.516,2.516,0,0,1,.571,1.736,2.429,2.429,0,0,1-.593,1.731A2.162,2.162,0,0,1,8.584.1,2.247,2.247,0,0,1,7.046-.425,2.085,2.085,0,0,1,6.367-1.87h.854a1.435,1.435,0,0,0,.435.92,1.351,1.351,0,0,0,.928.31,1.219,1.219,0,0,0,.989-.43,1.8,1.8,0,0,0,.359-1.187A1.649,1.649,0,0,0,9.543-3.4a1.32,1.32,0,0,0-1.033-.432,1.489,1.489,0,0,0-.928.259l-.239.2ZM11.934-.474a.566.566,0,0,1,.139-.391.53.53,0,0,1,.417-.156.546.546,0,0,1,.422.156.554.554,0,0,1,.144.391.524.524,0,0,1-.144.376.556.556,0,0,1-.422.151A.54.54,0,0,1,12.073-.1.535.535,0,0,1,11.934-.474Zm3.833-3.521h.679a1.492,1.492,0,0,0,1.006-.337,1.126,1.126,0,0,0,.366-.884,1.1,1.1,0,0,0-1.245-1.25,1.3,1.3,0,0,0-.935.334,1.171,1.171,0,0,0-.349.886h-.9A1.814,1.814,0,0,1,15-6.648a2.25,2.25,0,0,1,1.57-.559,2.224,2.224,0,0,1,1.577.532A1.923,1.923,0,0,1,18.721-5.2a1.561,1.561,0,0,1-.3.9,1.813,1.813,0,0,1-.818.649,1.747,1.747,0,0,1,.906.615,1.709,1.709,0,0,1,.32,1.05A1.939,1.939,0,0,1,18.2-.464,2.34,2.34,0,0,1,16.577.1a2.4,2.4,0,0,1-1.628-.542,1.8,1.8,0,0,1-.627-1.431h.908a1.162,1.162,0,0,0,.366.9,1.393,1.393,0,0,0,.981.337,1.367,1.367,0,0,0,1-.342,1.317,1.317,0,0,0,.347-.981,1.2,1.2,0,0,0-.381-.952,1.659,1.659,0,0,0-1.1-.342h-.679Z" transform="translate(1056.462 13175.307)"/>
        <path id="Trazado_905922" data-name="Trazado 905922" d="M3.56,0H2.651V-6.021L.83-5.352v-.82l2.588-.972H3.56ZM9.175,0H8.267V-6.021l-1.821.669v-.82l2.588-.972h.142Zm2.759-.474a.566.566,0,0,1,.139-.391.53.53,0,0,1,.417-.156.546.546,0,0,1,.422.156.554.554,0,0,1,.144.391.524.524,0,0,1-.144.376.556.556,0,0,1-.422.151A.54.54,0,0,1,12.073-.1.535.535,0,0,1,11.934-.474Zm6.333-1.914h.986v.737h-.986V0h-.908V-1.65H14.121v-.532L17.3-7.109h.962Zm-3.12,0h2.212V-5.874l-.107.2Z" transform="translate(1155.995 13242.301)"/>
        <path id="Trazado_905923" data-name="Trazado 905923" d="M0,0H758.723V862.713H0Z" transform="translate(421.553 13076.983)" fill="none"/>
        <path id="Trazado_905924" data-name="Trazado 905924" d="M1.106-3.921l.4-3.9H5.511V-6.9H2.347L2.111-4.77a2.524,2.524,0,0,1,1.305-.338,2.158,2.158,0,0,1,1.7.706,2.768,2.768,0,0,1,.628,1.909,2.672,2.672,0,0,1-.653,1.9,2.379,2.379,0,0,1-1.823.7A2.472,2.472,0,0,1,1.574-.467a2.294,2.294,0,0,1-.747-1.59h.94a1.578,1.578,0,0,0,.478,1.012A1.486,1.486,0,0,0,3.266-.7a1.341,1.341,0,0,0,1.088-.473,1.976,1.976,0,0,0,.395-1.305,1.814,1.814,0,0,0-.427-1.26,1.452,1.452,0,0,0-1.136-.475,1.638,1.638,0,0,0-1.021.285L1.9-3.717ZM6.95-.521A.622.622,0,0,1,7.1-.951a.583.583,0,0,1,.459-.172.6.6,0,0,1,.465.172.61.61,0,0,1,.158.43.577.577,0,0,1-.158.414.612.612,0,0,1-.465.167A.594.594,0,0,1,7.1-.107.588.588,0,0,1,6.95-.521Zm7.9.521H9.722V-.714l2.707-3.008a6.431,6.431,0,0,0,.83-1.109,1.851,1.851,0,0,0,.228-.884,1.4,1.4,0,0,0-.371-1,1.3,1.3,0,0,0-.988-.392,1.535,1.535,0,0,0-1.152.422,1.611,1.611,0,0,0-.411,1.174H9.571a2.307,2.307,0,0,1,.7-1.746,2.579,2.579,0,0,1,1.861-.666,2.478,2.478,0,0,1,1.724.572,1.951,1.951,0,0,1,.634,1.523,4.474,4.474,0,0,1-1.472,2.75L10.919-.811h3.926Z" transform="translate(1107.206 13331.353)"/>
        <path id="Trazado_905925" data-name="Trazado 905925" d="M5.774,0H.65V-.714L3.357-3.722a6.431,6.431,0,0,0,.83-1.109,1.851,1.851,0,0,0,.228-.884,1.4,1.4,0,0,0-.371-1,1.3,1.3,0,0,0-.988-.392A1.535,1.535,0,0,0,1.9-6.69a1.611,1.611,0,0,0-.411,1.174H.5a2.307,2.307,0,0,1,.7-1.746,2.579,2.579,0,0,1,1.861-.666,2.478,2.478,0,0,1,1.724.572,1.951,1.951,0,0,1,.634,1.523,4.474,4.474,0,0,1-1.472,2.75L1.848-.811H5.774Zm6.177,0H6.827V-.714L9.534-3.722a6.431,6.431,0,0,0,.83-1.109,1.851,1.851,0,0,0,.228-.884,1.4,1.4,0,0,0-.371-1,1.3,1.3,0,0,0-.988-.392,1.535,1.535,0,0,0-1.152.422A1.611,1.611,0,0,0,7.67-5.516H6.676a2.307,2.307,0,0,1,.7-1.746,2.579,2.579,0,0,1,1.861-.666,2.478,2.478,0,0,1,1.724.572,1.951,1.951,0,0,1,.634,1.523,4.474,4.474,0,0,1-1.472,2.75L8.024-.811h3.926Z" transform="translate(1156.001 13455.513)"/>
        <path id="Trazado_905926" data-name="Trazado 905926" d="M3.916,0h-1V-6.623l-2,.736v-.9L3.76-7.858h.156ZM6.95-.521A.622.622,0,0,1,7.1-.951a.583.583,0,0,1,.459-.172.6.6,0,0,1,.465.172.61.61,0,0,1,.158.43.577.577,0,0,1-.158.414.612.612,0,0,1-.465.167A.594.594,0,0,1,7.1-.107.588.588,0,0,1,6.95-.521Zm7.514-5.258a1.816,1.816,0,0,1-.309,1.042,2.1,2.1,0,0,1-.835.714,2.241,2.241,0,0,1,.969.768,1.933,1.933,0,0,1,.357,1.144,2.044,2.044,0,0,1-.685,1.617,2.631,2.631,0,0,1-1.8.6,2.619,2.619,0,0,1-1.807-.6,2.053,2.053,0,0,1-.679-1.614,1.991,1.991,0,0,1,.346-1.144,2.156,2.156,0,0,1,.959-.773,2.05,2.05,0,0,1-.822-.714,1.842,1.842,0,0,1-.3-1.037,2.021,2.021,0,0,1,.634-1.568,2.378,2.378,0,0,1,1.67-.58,2.38,2.38,0,0,1,1.668.58A2.017,2.017,0,0,1,14.464-5.779Zm-.811,3.647A1.441,1.441,0,0,0,13.237-3.2a1.476,1.476,0,0,0-1.088-.414,1.45,1.45,0,0,0-1.077.408,1.458,1.458,0,0,0-.406,1.074,1.388,1.388,0,0,0,.395,1.047,1.515,1.515,0,0,0,1.1.381,1.511,1.511,0,0,0,1.1-.384A1.385,1.385,0,0,0,13.653-2.132ZM12.16-7.111a1.282,1.282,0,0,0-.948.363,1.332,1.332,0,0,0-.363.986,1.325,1.325,0,0,0,.357.964,1.268,1.268,0,0,0,.953.368,1.268,1.268,0,0,0,.953-.368,1.325,1.325,0,0,0,.357-.964,1.326,1.326,0,0,0-.371-.972A1.264,1.264,0,0,0,12.16-7.111Z" transform="translate(1156.001 13561.529)"/>
        <path id="Trazado_905927" data-name="Trazado 905927" d="M3.916,0h-1V-6.623l-2,.736v-.9L3.76-7.858h.156Zm7.96-7.262L8.637,0H7.595l3.228-7H6.59V-7.82h5.285Z" transform="translate(1018.774 13561.529)"/>
        <path id="Trazado_905928" data-name="Trazado 905928" d="M5.249,0H.591V-.649L3.052-3.384a5.847,5.847,0,0,0,.754-1.008,1.683,1.683,0,0,0,.208-.8,1.276,1.276,0,0,0-.337-.913,1.178,1.178,0,0,0-.9-.356,1.4,1.4,0,0,0-1.047.383,1.464,1.464,0,0,0-.374,1.067h-.9A2.1,2.1,0,0,1,1.086-6.6a2.344,2.344,0,0,1,1.692-.605,2.252,2.252,0,0,1,1.567.52A1.774,1.774,0,0,1,4.922-5.3,4.067,4.067,0,0,1,3.584-2.8L1.68-.737H5.249Zm5.415-3.032a4.131,4.131,0,0,1-.542,2.358A1.928,1.928,0,0,1,8.428.1,1.942,1.942,0,0,1,6.743-.657,3.921,3.921,0,0,1,6.177-2.91V-4.116a4.039,4.039,0,0,1,.542-2.329,1.942,1.942,0,0,1,1.7-.762,1.96,1.96,0,0,1,1.689.735A3.9,3.9,0,0,1,10.664-4.2Zm-.9-1.235A3.31,3.31,0,0,0,9.438-5.94a1.109,1.109,0,0,0-1.021-.525,1.1,1.1,0,0,0-1.011.522A3.232,3.232,0,0,0,7.08-4.336v1.445a3.363,3.363,0,0,0,.334,1.7A1.107,1.107,0,0,0,8.428-.64a1.092,1.092,0,0,0,.994-.518,3.241,3.241,0,0,0,.339-1.631ZM11.934-.474a.566.566,0,0,1,.139-.391.53.53,0,0,1,.417-.156.546.546,0,0,1,.422.156.554.554,0,0,1,.144.391.524.524,0,0,1-.144.376.556.556,0,0,1-.422.151A.54.54,0,0,1,12.073-.1.535.535,0,0,1,11.934-.474Zm2.935-3.091.361-3.545h3.643v.835H16l-.215,1.938a2.294,2.294,0,0,1,1.187-.308A1.961,1.961,0,0,1,18.511-4a2.516,2.516,0,0,1,.571,1.736,2.429,2.429,0,0,1-.593,1.731A2.162,2.162,0,0,1,16.831.1a2.247,2.247,0,0,1-1.538-.522,2.085,2.085,0,0,1-.679-1.445h.854a1.435,1.435,0,0,0,.435.92,1.351,1.351,0,0,0,.928.31,1.219,1.219,0,0,0,.989-.43,1.8,1.8,0,0,0,.359-1.187A1.649,1.649,0,0,0,17.791-3.4a1.32,1.32,0,0,0-1.033-.432,1.489,1.489,0,0,0-.928.259l-.239.2Z" transform="translate(1155.995 13701.872)"/>
        <path id="Trazado_905929" data-name="Trazado 905929" d="M0,0H758.723V862.713H0Z" transform="translate(421.553 13076.983)" fill="none"/>
        <path id="Trazado_905930" data-name="Trazado 905930" d="M5.554-3.335a4.545,4.545,0,0,1-.6,2.594A2.12,2.12,0,0,1,3.094.107a2.136,2.136,0,0,1-1.853-.83A4.313,4.313,0,0,1,.618-3.2V-4.528a4.443,4.443,0,0,1,.6-2.562,2.137,2.137,0,0,1,1.869-.838,2.156,2.156,0,0,1,1.858.808,4.288,4.288,0,0,1,.612,2.495ZM4.56-4.694a3.641,3.641,0,0,0-.354-1.84,1.22,1.22,0,0,0-1.123-.577,1.2,1.2,0,0,0-1.112.575,3.555,3.555,0,0,0-.36,1.767v1.59a3.7,3.7,0,0,0,.368,1.872,1.218,1.218,0,0,0,1.115.6,1.2,1.2,0,0,0,1.093-.569A3.566,3.566,0,0,0,4.56-3.067ZM6.95-.521A.622.622,0,0,1,7.1-.951a.583.583,0,0,1,.459-.172.6.6,0,0,1,.465.172.61.61,0,0,1,.158.43.577.577,0,0,1-.158.414.612.612,0,0,1-.465.167A.594.594,0,0,1,7.1-.107.588.588,0,0,1,6.95-.521Zm7.9.521H9.722V-.714l2.707-3.008a6.431,6.431,0,0,0,.83-1.109,1.851,1.851,0,0,0,.228-.884,1.4,1.4,0,0,0-.371-1,1.3,1.3,0,0,0-.988-.392,1.535,1.535,0,0,0-1.152.422,1.611,1.611,0,0,0-.411,1.174H9.571a2.307,2.307,0,0,1,.7-1.746,2.579,2.579,0,0,1,1.861-.666,2.478,2.478,0,0,1,1.724.572,1.951,1.951,0,0,1,.634,1.523,4.474,4.474,0,0,1-1.472,2.75L10.919-.811h3.926Z" transform="translate(1155.995 13801.813)"/>
        <path id="Trazado_905931" data-name="Trazado 905931" d="M3.56,0H2.651V-6.021L.83-5.352v-.82l2.588-.972H3.56ZM7.52-3.994H8.2A1.492,1.492,0,0,0,9.2-4.331a1.126,1.126,0,0,0,.366-.884,1.1,1.1,0,0,0-1.245-1.25,1.3,1.3,0,0,0-.935.334,1.171,1.171,0,0,0-.349.886h-.9a1.814,1.814,0,0,1,.618-1.4,2.25,2.25,0,0,1,1.57-.559A2.224,2.224,0,0,1,9.9-6.675,1.923,1.923,0,0,1,10.474-5.2a1.561,1.561,0,0,1-.3.9,1.813,1.813,0,0,1-.818.649,1.747,1.747,0,0,1,.906.615,1.709,1.709,0,0,1,.32,1.05A1.939,1.939,0,0,1,9.956-.464,2.34,2.34,0,0,1,8.33.1,2.4,2.4,0,0,1,6.7-.444a1.8,1.8,0,0,1-.627-1.431h.908a1.162,1.162,0,0,0,.366.9A1.393,1.393,0,0,0,8.33-.64a1.367,1.367,0,0,0,1-.342,1.317,1.317,0,0,0,.347-.981A1.2,1.2,0,0,0,9.3-2.915a1.659,1.659,0,0,0-1.1-.342H7.52ZM11.934-.474a.566.566,0,0,1,.139-.391.53.53,0,0,1,.417-.156.546.546,0,0,1,.422.156.554.554,0,0,1,.144.391.524.524,0,0,1-.144.376.556.556,0,0,1-.422.151A.54.54,0,0,1,12.073-.1.535.535,0,0,1,11.934-.474ZM17.422,0h-.908V-6.021l-1.821.669v-.82l2.588-.972h.142Z" transform="translate(1076.858 13839.18)"/>
        <path id="Trazado_905932" data-name="Trazado 905932" d="M4.458-3.437a2.431,2.431,0,0,1-.744.6,2.018,2.018,0,0,1-.948.226,2.084,2.084,0,0,1-1.179-.333,2.165,2.165,0,0,1-.776-.937A3.2,3.2,0,0,1,.537-5.221a3.256,3.256,0,0,1,.3-1.413,2.19,2.19,0,0,1,.846-.961,2.412,2.412,0,0,1,1.278-.333,2.184,2.184,0,0,1,1.829.867,3.784,3.784,0,0,1,.669,2.366v.29a5.055,5.055,0,0,1-.9,3.333A3.467,3.467,0,0,1,1.832.005H1.638V-.838h.209a2.736,2.736,0,0,0,1.891-.641A2.748,2.748,0,0,0,4.458-3.437Zm-1.531,0a1.534,1.534,0,0,0,.921-.306A1.8,1.8,0,0,0,4.463-4.5v-.4a2.734,2.734,0,0,0-.424-1.59A1.266,1.266,0,0,0,2.965-7.1a1.276,1.276,0,0,0-1.053.5,2.072,2.072,0,0,0-.4,1.324A2.156,2.156,0,0,0,1.9-3.956,1.216,1.216,0,0,0,2.927-3.437Z" transform="translate(984.939 13796.912)"/>
        <path id="Trazado_905933" data-name="Trazado 905933" d="M2.095-4.394h.747a1.641,1.641,0,0,0,1.106-.371,1.238,1.238,0,0,0,.4-.972,1.213,1.213,0,0,0-1.37-1.375,1.425,1.425,0,0,0-1.029.368,1.288,1.288,0,0,0-.384.975H.575a2,2,0,0,1,.679-1.544,2.475,2.475,0,0,1,1.727-.615,2.446,2.446,0,0,1,1.735.585,2.115,2.115,0,0,1,.628,1.627,1.717,1.717,0,0,1-.33.988,1.994,1.994,0,0,1-.9.714,1.922,1.922,0,0,1,1,.677,1.88,1.88,0,0,1,.352,1.155A2.133,2.133,0,0,1,4.775-.51,2.575,2.575,0,0,1,2.986.107,2.643,2.643,0,0,1,1.2-.489,1.978,1.978,0,0,1,.5-2.062h1a1.278,1.278,0,0,0,.4.988A1.532,1.532,0,0,0,2.986-.7a1.5,1.5,0,0,0,1.1-.376,1.449,1.449,0,0,0,.381-1.08A1.315,1.315,0,0,0,4.05-3.207a1.825,1.825,0,0,0-1.208-.376H2.095Z" transform="translate(961.436 13815.774)"/>
        <path id="Trazado_905934" data-name="Trazado 905934" d="M5.7-7.262,2.46,0H1.418L4.646-7H.414V-7.82H5.7ZM6.95-.521A.622.622,0,0,1,7.1-.951a.583.583,0,0,1,.459-.172.6.6,0,0,1,.465.172.61.61,0,0,1,.158.43.577.577,0,0,1-.158.414.612.612,0,0,1-.465.167A.594.594,0,0,1,7.1-.107.588.588,0,0,1,6.95-.521Zm3.228-3.4.4-3.9h4.007V-6.9H11.419L11.183-4.77a2.524,2.524,0,0,1,1.305-.338,2.158,2.158,0,0,1,1.7.706,2.768,2.768,0,0,1,.628,1.909,2.672,2.672,0,0,1-.653,1.9,2.379,2.379,0,0,1-1.823.7,2.472,2.472,0,0,1-1.692-.575A2.294,2.294,0,0,1,9.9-2.057h.94a1.578,1.578,0,0,0,.478,1.012A1.486,1.486,0,0,0,12.337-.7a1.341,1.341,0,0,0,1.088-.473,1.976,1.976,0,0,0,.395-1.305,1.814,1.814,0,0,0-.427-1.26,1.452,1.452,0,0,0-1.136-.475,1.638,1.638,0,0,0-1.021.285l-.263.215Z" transform="translate(915.433 13823.357)"/>
        <path id="Trazado_905935" data-name="Trazado 905935" d="M5.774,0H.65V-.714L3.357-3.722a6.431,6.431,0,0,0,.83-1.109,1.851,1.851,0,0,0,.228-.884,1.4,1.4,0,0,0-.371-1,1.3,1.3,0,0,0-.988-.392A1.535,1.535,0,0,0,1.9-6.69a1.611,1.611,0,0,0-.411,1.174H.5a2.307,2.307,0,0,1,.7-1.746,2.579,2.579,0,0,1,1.861-.666,2.478,2.478,0,0,1,1.724.572,1.951,1.951,0,0,1,.634,1.523,4.474,4.474,0,0,1-1.472,2.75L1.848-.811H5.774Zm6.177,0H6.827V-.714L9.534-3.722a6.431,6.431,0,0,0,.83-1.109,1.851,1.851,0,0,0,.228-.884,1.4,1.4,0,0,0-.371-1,1.3,1.3,0,0,0-.988-.392,1.535,1.535,0,0,0-1.152.422A1.611,1.611,0,0,0,7.67-5.516H6.676a2.307,2.307,0,0,1,.7-1.746,2.579,2.579,0,0,1,1.861-.666,2.478,2.478,0,0,1,1.724.572,1.951,1.951,0,0,1,.634,1.523,4.474,4.474,0,0,1-1.472,2.75L8.024-.811h3.926Z" transform="translate(653.6 13603.916)"/>
        <path id="Trazado_905936" data-name="Trazado 905936" d="M5.774,0H.65V-.714L3.357-3.722a6.431,6.431,0,0,0,.83-1.109,1.851,1.851,0,0,0,.228-.884,1.4,1.4,0,0,0-.371-1,1.3,1.3,0,0,0-.988-.392A1.535,1.535,0,0,0,1.9-6.69a1.611,1.611,0,0,0-.411,1.174H.5a2.307,2.307,0,0,1,.7-1.746,2.579,2.579,0,0,1,1.861-.666,2.478,2.478,0,0,1,1.724.572,1.951,1.951,0,0,1,.634,1.523,4.474,4.474,0,0,1-1.472,2.75L1.848-.811H5.774Zm6.177,0H6.827V-.714L9.534-3.722a6.431,6.431,0,0,0,.83-1.109,1.851,1.851,0,0,0,.228-.884,1.4,1.4,0,0,0-.371-1,1.3,1.3,0,0,0-.988-.392,1.535,1.535,0,0,0-1.152.422A1.611,1.611,0,0,0,7.67-5.516H6.676a2.307,2.307,0,0,1,.7-1.746,2.579,2.579,0,0,1,1.861-.666,2.478,2.478,0,0,1,1.724.572,1.951,1.951,0,0,1,.634,1.523,4.474,4.474,0,0,1-1.472,2.75L8.024-.811h3.926Z" transform="translate(434.021 13445.12)"/>
        <path id="Trazado_905937" data-name="Trazado 905937" d="M3.56,0H2.651V-6.021L.83-5.352v-.82l2.588-.972H3.56ZM9.751-7.114v.767H9.585a2.378,2.378,0,0,0-1.68.625,2.6,2.6,0,0,0-.723,1.7,1.928,1.928,0,0,1,1.533-.645,1.844,1.844,0,0,1,1.482.654,2.524,2.524,0,0,1,.554,1.689,2.516,2.516,0,0,1-.6,1.758A2.06,2.06,0,0,1,8.55.1,2.029,2.029,0,0,1,6.895-.686,3.106,3.106,0,0,1,6.26-2.705v-.347a4.68,4.68,0,0,1,.837-3A3.075,3.075,0,0,1,9.59-7.114Zm-1.187,3.2a1.441,1.441,0,0,0-.854.278,1.45,1.45,0,0,0-.542.7V-2.6a2.332,2.332,0,0,0,.4,1.416,1.185,1.185,0,0,0,.986.537A1.148,1.148,0,0,0,9.509-1.1a1.864,1.864,0,0,0,.349-1.177A1.865,1.865,0,0,0,9.5-3.459,1.135,1.135,0,0,0,8.564-3.911ZM11.934-.474a.566.566,0,0,1,.139-.391.53.53,0,0,1,.417-.156.546.546,0,0,1,.422.156.554.554,0,0,1,.144.391.524.524,0,0,1-.144.376.556.556,0,0,1-.422.151A.54.54,0,0,1,12.073-.1.535.535,0,0,1,11.934-.474Zm6.333-1.914h.986v.737h-.986V0h-.908V-1.65H14.121v-.532L17.3-7.109h.962Zm-3.12,0h2.212V-5.874l-.107.2Z" transform="translate(441.666 13220.988)"/>
        <path id="Trazado_905938" data-name="Trazado 905938" d="M5.7-7.262,2.46,0H1.418L4.646-7H.414V-7.82H5.7ZM6.95-.521A.622.622,0,0,1,7.1-.951a.583.583,0,0,1,.459-.172.6.6,0,0,1,.465.172.61.61,0,0,1,.158.43.577.577,0,0,1-.158.414.612.612,0,0,1-.465.167A.594.594,0,0,1,7.1-.107.588.588,0,0,1,6.95-.521Zm3.228-3.4.4-3.9h4.007V-6.9H11.419L11.183-4.77a2.524,2.524,0,0,1,1.305-.338,2.158,2.158,0,0,1,1.7.706,2.768,2.768,0,0,1,.628,1.909,2.672,2.672,0,0,1-.653,1.9,2.379,2.379,0,0,1-1.823.7,2.472,2.472,0,0,1-1.692-.575A2.294,2.294,0,0,1,9.9-2.057h.94a1.578,1.578,0,0,0,.478,1.012A1.486,1.486,0,0,0,12.337-.7a1.341,1.341,0,0,0,1.088-.473,1.976,1.976,0,0,0,.395-1.305,1.814,1.814,0,0,0-.427-1.26,1.452,1.452,0,0,0-1.136-.475,1.638,1.638,0,0,0-1.021.285l-.263.215Z" transform="translate(516.025 13225.17)"/>
        <path id="Trazado_905939" data-name="Trazado 905939" d="M1.106-3.921l.4-3.9H5.511V-6.9H2.347L2.111-4.77a2.524,2.524,0,0,1,1.305-.338,2.158,2.158,0,0,1,1.7.706,2.768,2.768,0,0,1,.628,1.909,2.672,2.672,0,0,1-.653,1.9,2.379,2.379,0,0,1-1.823.7A2.472,2.472,0,0,1,1.574-.467a2.294,2.294,0,0,1-.747-1.59h.94a1.578,1.578,0,0,0,.478,1.012A1.486,1.486,0,0,0,3.266-.7a1.341,1.341,0,0,0,1.088-.473,1.976,1.976,0,0,0,.395-1.305,1.814,1.814,0,0,0-.427-1.26,1.452,1.452,0,0,0-1.136-.475,1.638,1.638,0,0,0-1.021.285L1.9-3.717ZM6.95-.521A.622.622,0,0,1,7.1-.951a.583.583,0,0,1,.459-.172.6.6,0,0,1,.465.172.61.61,0,0,1,.158.43.577.577,0,0,1-.158.414.612.612,0,0,1-.465.167A.594.594,0,0,1,7.1-.107.588.588,0,0,1,6.95-.521Zm6.966-2.105H15v.811H13.917V0h-1V-1.815H9.356V-2.4l3.5-5.419h1.058Zm-3.432,0h2.433V-6.461l-.118.215Z" transform="translate(558.573 13085.667)"/>
        <path id="Trazado_905940" data-name="Trazado 905940" d="M1.106-3.921l.4-3.9H5.511V-6.9H2.347L2.111-4.77a2.524,2.524,0,0,1,1.305-.338,2.158,2.158,0,0,1,1.7.706,2.768,2.768,0,0,1,.628,1.909,2.672,2.672,0,0,1-.653,1.9,2.379,2.379,0,0,1-1.823.7A2.472,2.472,0,0,1,1.574-.467a2.294,2.294,0,0,1-.747-1.59h.94a1.578,1.578,0,0,0,.478,1.012A1.486,1.486,0,0,0,3.266-.7a1.341,1.341,0,0,0,1.088-.473,1.976,1.976,0,0,0,.395-1.305,1.814,1.814,0,0,0-.427-1.26,1.452,1.452,0,0,0-1.136-.475,1.638,1.638,0,0,0-1.021.285L1.9-3.717ZM6.95-.521A.622.622,0,0,1,7.1-.951a.583.583,0,0,1,.459-.172.6.6,0,0,1,.465.172.61.61,0,0,1,.158.43.577.577,0,0,1-.158.414.612.612,0,0,1-.465.167A.594.594,0,0,1,7.1-.107.588.588,0,0,1,6.95-.521Zm6.966-2.105H15v.811H13.917V0h-1V-1.815H9.356V-2.4l3.5-5.419h1.058Zm-3.432,0h2.433V-6.461l-.118.215Z" transform="translate(624.842 13085.667)"/>
        <path id="Trazado_905941" data-name="Trazado 905941" d="M1.106-3.921l.4-3.9H5.511V-6.9H2.347L2.111-4.77a2.524,2.524,0,0,1,1.305-.338,2.158,2.158,0,0,1,1.7.706,2.768,2.768,0,0,1,.628,1.909,2.672,2.672,0,0,1-.653,1.9,2.379,2.379,0,0,1-1.823.7A2.472,2.472,0,0,1,1.574-.467a2.294,2.294,0,0,1-.747-1.59h.94a1.578,1.578,0,0,0,.478,1.012A1.486,1.486,0,0,0,3.266-.7a1.341,1.341,0,0,0,1.088-.473,1.976,1.976,0,0,0,.395-1.305,1.814,1.814,0,0,0-.427-1.26,1.452,1.452,0,0,0-1.136-.475,1.638,1.638,0,0,0-1.021.285L1.9-3.717ZM6.95-.521A.622.622,0,0,1,7.1-.951a.583.583,0,0,1,.459-.172.6.6,0,0,1,.465.172.61.61,0,0,1,.158.43.577.577,0,0,1-.158.414.612.612,0,0,1-.465.167A.594.594,0,0,1,7.1-.107.588.588,0,0,1,6.95-.521Zm6.58-2.917a2.431,2.431,0,0,1-.744.6,2.018,2.018,0,0,1-.948.226,2.084,2.084,0,0,1-1.179-.333,2.165,2.165,0,0,1-.776-.937,3.2,3.2,0,0,1-.274-1.335,3.256,3.256,0,0,1,.3-1.413,2.19,2.19,0,0,1,.846-.961,2.412,2.412,0,0,1,1.278-.333,2.184,2.184,0,0,1,1.829.867,3.784,3.784,0,0,1,.669,2.366v.29a5.055,5.055,0,0,1-.9,3.333A3.467,3.467,0,0,1,10.9.005H10.71V-.838h.209a2.736,2.736,0,0,0,1.891-.641A2.748,2.748,0,0,0,13.53-3.437ZM12-3.437a1.534,1.534,0,0,0,.921-.306,1.8,1.8,0,0,0,.615-.757v-.4a2.734,2.734,0,0,0-.424-1.59A1.266,1.266,0,0,0,12.037-7.1a1.276,1.276,0,0,0-1.053.5,2.072,2.072,0,0,0-.4,1.324,2.156,2.156,0,0,0,.384,1.319A1.216,1.216,0,0,0,12-3.437Z" transform="translate(724.045 13085.667)"/>
        <path id="Trazado_905942" data-name="Trazado 905942" d="M0,0H758.723V862.713H0Z" transform="translate(421.553 13076.983)" fill="none"/>
        <path id="Trazado_905943" data-name="Trazado 905943" d="M3.916,0h-1V-6.623l-2,.736v-.9L3.76-7.858h.156ZM6.95-.521A.622.622,0,0,1,7.1-.951a.583.583,0,0,1,.459-.172.6.6,0,0,1,.465.172.61.61,0,0,1,.158.43.577.577,0,0,1-.158.414.612.612,0,0,1-.465.167A.594.594,0,0,1,7.1-.107.588.588,0,0,1,6.95-.521Zm6.671-7.3v.843h-.183a2.616,2.616,0,0,0-1.848.688A2.861,2.861,0,0,0,10.8-4.42a2.121,2.121,0,0,1,1.687-.709,2.028,2.028,0,0,1,1.63.72,2.776,2.776,0,0,1,.61,1.858,2.767,2.767,0,0,1-.658,1.934A2.266,2.266,0,0,1,12.3.107a2.232,2.232,0,0,1-1.821-.862,3.417,3.417,0,0,1-.7-2.221v-.381a5.148,5.148,0,0,1,.921-3.3,3.383,3.383,0,0,1,2.742-1.168ZM12.316-4.3a1.585,1.585,0,0,0-.94.306,1.6,1.6,0,0,0-.6.768v.365a2.565,2.565,0,0,0,.435,1.558A1.3,1.3,0,0,0,12.3-.714a1.263,1.263,0,0,0,1.055-.494A2.05,2.05,0,0,0,13.739-2.5a2.051,2.051,0,0,0-.389-1.3A1.248,1.248,0,0,0,12.316-4.3Z" transform="translate(766.868 13145.828)"/>
        <path id="Trazado_905944" data-name="Trazado 905944" d="M3.916,0h-1V-6.623l-2,.736v-.9L3.76-7.858h.156ZM6.95-.521A.622.622,0,0,1,7.1-.951a.583.583,0,0,1,.459-.172.6.6,0,0,1,.465.172.61.61,0,0,1,.158.43.577.577,0,0,1-.158.414.612.612,0,0,1-.465.167A.594.594,0,0,1,7.1-.107.588.588,0,0,1,6.95-.521Zm3.228-3.4.4-3.9h4.007V-6.9H11.419L11.183-4.77a2.524,2.524,0,0,1,1.305-.338,2.158,2.158,0,0,1,1.7.706,2.768,2.768,0,0,1,.628,1.909,2.672,2.672,0,0,1-.653,1.9,2.379,2.379,0,0,1-1.823.7,2.472,2.472,0,0,1-1.692-.575A2.294,2.294,0,0,1,9.9-2.057h.94a1.578,1.578,0,0,0,.478,1.012A1.486,1.486,0,0,0,12.337-.7a1.341,1.341,0,0,0,1.088-.473,1.976,1.976,0,0,0,.395-1.305,1.814,1.814,0,0,0-.427-1.26,1.452,1.452,0,0,0-1.136-.475,1.638,1.638,0,0,0-1.021.285l-.263.215Z" transform="translate(814.919 13176.69)"/>
        <path id="Trazado_905945" data-name="Trazado 905945" d="M1.106-3.921l.4-3.9H5.511V-6.9H2.347L2.111-4.77a2.524,2.524,0,0,1,1.305-.338,2.158,2.158,0,0,1,1.7.706,2.768,2.768,0,0,1,.628,1.909,2.672,2.672,0,0,1-.653,1.9,2.379,2.379,0,0,1-1.823.7A2.472,2.472,0,0,1,1.574-.467a2.294,2.294,0,0,1-.747-1.59h.94a1.578,1.578,0,0,0,.478,1.012A1.486,1.486,0,0,0,3.266-.7a1.341,1.341,0,0,0,1.088-.473,1.976,1.976,0,0,0,.395-1.305,1.814,1.814,0,0,0-.427-1.26,1.452,1.452,0,0,0-1.136-.475,1.638,1.638,0,0,0-1.021.285L1.9-3.717Z" transform="translate(849.281 13155.508)"/>
        <path id="Trazado_905946" data-name="Trazado 905946" d="M2.095-4.394h.747a1.641,1.641,0,0,0,1.106-.371,1.238,1.238,0,0,0,.4-.972,1.213,1.213,0,0,0-1.37-1.375,1.425,1.425,0,0,0-1.029.368,1.288,1.288,0,0,0-.384.975H.575a2,2,0,0,1,.679-1.544,2.475,2.475,0,0,1,1.727-.615,2.446,2.446,0,0,1,1.735.585,2.115,2.115,0,0,1,.628,1.627,1.717,1.717,0,0,1-.33.988,1.994,1.994,0,0,1-.9.714,1.922,1.922,0,0,1,1,.677,1.88,1.88,0,0,1,.352,1.155A2.133,2.133,0,0,1,4.775-.51,2.575,2.575,0,0,1,2.986.107,2.643,2.643,0,0,1,1.2-.489,1.978,1.978,0,0,1,.5-2.062h1a1.278,1.278,0,0,0,.4.988A1.532,1.532,0,0,0,2.986-.7a1.5,1.5,0,0,0,1.1-.376,1.449,1.449,0,0,0,.381-1.08A1.315,1.315,0,0,0,4.05-3.207a1.825,1.825,0,0,0-1.208-.376H2.095Z" transform="translate(667.109 13085.667)"/>
        <path id="Trazado_905947" data-name="Trazado 905947" d="M0,0H758.723V862.713H0Z" transform="translate(421.553 13076.983)" fill="none"/>
        <path id="Trazado_905948" data-name="Trazado 905948" d="M5.774,0H.65V-.714L3.357-3.722a6.431,6.431,0,0,0,.83-1.109,1.851,1.851,0,0,0,.228-.884,1.4,1.4,0,0,0-.371-1,1.3,1.3,0,0,0-.988-.392A1.535,1.535,0,0,0,1.9-6.69a1.611,1.611,0,0,0-.411,1.174H.5a2.307,2.307,0,0,1,.7-1.746,2.579,2.579,0,0,1,1.861-.666,2.478,2.478,0,0,1,1.724.572,1.951,1.951,0,0,1,.634,1.523,4.474,4.474,0,0,1-1.472,2.75L1.848-.811H5.774ZM6.95-.521A.622.622,0,0,1,7.1-.951a.583.583,0,0,1,.459-.172.6.6,0,0,1,.465.172.61.61,0,0,1,.158.43.577.577,0,0,1-.158.414.612.612,0,0,1-.465.167A.594.594,0,0,1,7.1-.107.588.588,0,0,1,6.95-.521Zm3.228-3.4.4-3.9h4.007V-6.9H11.419L11.183-4.77a2.524,2.524,0,0,1,1.305-.338,2.158,2.158,0,0,1,1.7.706,2.768,2.768,0,0,1,.628,1.909,2.672,2.672,0,0,1-.653,1.9,2.379,2.379,0,0,1-1.823.7,2.472,2.472,0,0,1-1.692-.575A2.294,2.294,0,0,1,9.9-2.057h.94a1.578,1.578,0,0,0,.478,1.012A1.486,1.486,0,0,0,12.337-.7a1.341,1.341,0,0,0,1.088-.473,1.976,1.976,0,0,0,.395-1.305,1.814,1.814,0,0,0-.427-1.26,1.452,1.452,0,0,0-1.136-.475,1.638,1.638,0,0,0-1.021.285l-.263.215Z" transform="translate(473.117 13303.433)"/>
        <path id="Trazado_905949" data-name="Trazado 905949" d="M2.095-4.394h.747a1.641,1.641,0,0,0,1.106-.371,1.238,1.238,0,0,0,.4-.972,1.213,1.213,0,0,0-1.37-1.375,1.425,1.425,0,0,0-1.029.368,1.288,1.288,0,0,0-.384.975H.575a2,2,0,0,1,.679-1.544,2.475,2.475,0,0,1,1.727-.615,2.446,2.446,0,0,1,1.735.585,2.115,2.115,0,0,1,.628,1.627,1.717,1.717,0,0,1-.33.988,1.994,1.994,0,0,1-.9.714,1.922,1.922,0,0,1,1,.677,1.88,1.88,0,0,1,.352,1.155A2.133,2.133,0,0,1,4.775-.51,2.575,2.575,0,0,1,2.986.107,2.643,2.643,0,0,1,1.2-.489,1.978,1.978,0,0,1,.5-2.062h1a1.278,1.278,0,0,0,.4.988A1.532,1.532,0,0,0,2.986-.7a1.5,1.5,0,0,0,1.1-.376,1.449,1.449,0,0,0,.381-1.08A1.315,1.315,0,0,0,4.05-3.207a1.825,1.825,0,0,0-1.208-.376H2.095Z" transform="translate(512.704 13344.161)"/>
        <path id="Trazado_905950" data-name="Trazado 905950" d="M5.774,0H.65V-.714L3.357-3.722a6.431,6.431,0,0,0,.83-1.109,1.851,1.851,0,0,0,.228-.884,1.4,1.4,0,0,0-.371-1,1.3,1.3,0,0,0-.988-.392A1.535,1.535,0,0,0,1.9-6.69a1.611,1.611,0,0,0-.411,1.174H.5a2.307,2.307,0,0,1,.7-1.746,2.579,2.579,0,0,1,1.861-.666,2.478,2.478,0,0,1,1.724.572,1.951,1.951,0,0,1,.634,1.523,4.474,4.474,0,0,1-1.472,2.75L1.848-.811H5.774ZM7.283-3.921l.4-3.9h4.007V-6.9H8.524L8.288-4.77a2.524,2.524,0,0,1,1.305-.338,2.158,2.158,0,0,1,1.7.706,2.768,2.768,0,0,1,.628,1.909,2.672,2.672,0,0,1-.653,1.9,2.379,2.379,0,0,1-1.823.7A2.472,2.472,0,0,1,7.75-.467,2.294,2.294,0,0,1,7-2.057h.94a1.578,1.578,0,0,0,.478,1.012A1.486,1.486,0,0,0,9.442-.7a1.341,1.341,0,0,0,1.088-.473,1.976,1.976,0,0,0,.395-1.305,1.814,1.814,0,0,0-.427-1.26,1.452,1.452,0,0,0-1.136-.475,1.638,1.638,0,0,0-1.021.285l-.263.215Z" transform="translate(434.324 13717.657)"/>
        <path id="Trazado_905951" data-name="Trazado 905951" d="M4.845-2.626H5.93v.811H4.845V0h-1V-1.815H.285V-2.4l3.5-5.419H4.845Zm-3.432,0H3.846V-6.461l-.118.215ZM6.95-.521A.622.622,0,0,1,7.1-.951a.583.583,0,0,1,.459-.172.6.6,0,0,1,.465.172.61.61,0,0,1,.158.43.577.577,0,0,1-.158.414.612.612,0,0,1-.465.167A.594.594,0,0,1,7.1-.107.588.588,0,0,1,6.95-.521Zm3.228-3.4.4-3.9h4.007V-6.9H11.419L11.183-4.77a2.524,2.524,0,0,1,1.305-.338,2.158,2.158,0,0,1,1.7.706,2.768,2.768,0,0,1,.628,1.909,2.672,2.672,0,0,1-.653,1.9,2.379,2.379,0,0,1-1.823.7,2.472,2.472,0,0,1-1.692-.575A2.294,2.294,0,0,1,9.9-2.057h.94a1.578,1.578,0,0,0,.478,1.012A1.486,1.486,0,0,0,12.337-.7a1.341,1.341,0,0,0,1.088-.473,1.976,1.976,0,0,0,.395-1.305,1.814,1.814,0,0,0-.427-1.26,1.452,1.452,0,0,0-1.136-.475,1.638,1.638,0,0,0-1.021.285l-.263.215Z" transform="translate(474.246 13837.412)"/>
        <path id="Trazado_905952" data-name="Trazado 905952" d="M4.845-2.626H5.93v.811H4.845V0h-1V-1.815H.285V-2.4l3.5-5.419H4.845Zm-3.432,0H3.846V-6.461l-.118.215ZM6.95-.521A.622.622,0,0,1,7.1-.951a.583.583,0,0,1,.459-.172.6.6,0,0,1,.465.172.61.61,0,0,1,.158.43.577.577,0,0,1-.158.414.612.612,0,0,1-.465.167A.594.594,0,0,1,7.1-.107.588.588,0,0,1,6.95-.521Zm3.228-3.4.4-3.9h4.007V-6.9H11.419L11.183-4.77a2.524,2.524,0,0,1,1.305-.338,2.158,2.158,0,0,1,1.7.706,2.768,2.768,0,0,1,.628,1.909,2.672,2.672,0,0,1-.653,1.9,2.379,2.379,0,0,1-1.823.7,2.472,2.472,0,0,1-1.692-.575A2.294,2.294,0,0,1,9.9-2.057h.94a1.578,1.578,0,0,0,.478,1.012A1.486,1.486,0,0,0,12.337-.7a1.341,1.341,0,0,0,1.088-.473,1.976,1.976,0,0,0,.395-1.305,1.814,1.814,0,0,0-.427-1.26,1.452,1.452,0,0,0-1.136-.475,1.638,1.638,0,0,0-1.021.285l-.263.215Z" transform="translate(724.117 13872.383)"/>
        <path id="Trazado_905953" data-name="Trazado 905953" d="M3.56,0H2.651V-6.021L.83-5.352v-.82l2.588-.972H3.56ZM6.621-3.564l.361-3.545h3.643v.835H7.749L7.534-4.336a2.294,2.294,0,0,1,1.187-.308A1.961,1.961,0,0,1,10.264-4a2.516,2.516,0,0,1,.571,1.736,2.429,2.429,0,0,1-.593,1.731A2.162,2.162,0,0,1,8.584.1,2.247,2.247,0,0,1,7.046-.425,2.085,2.085,0,0,1,6.367-1.87h.854a1.435,1.435,0,0,0,.435.92,1.351,1.351,0,0,0,.928.31,1.219,1.219,0,0,0,.989-.43,1.8,1.8,0,0,0,.359-1.187A1.649,1.649,0,0,0,9.543-3.4a1.32,1.32,0,0,0-1.033-.432,1.489,1.489,0,0,0-.928.259l-.239.2ZM11.934-.474a.566.566,0,0,1,.139-.391.53.53,0,0,1,.417-.156.546.546,0,0,1,.422.156.554.554,0,0,1,.144.391.524.524,0,0,1-.144.376.556.556,0,0,1-.422.151A.54.54,0,0,1,12.073-.1.535.535,0,0,1,11.934-.474ZM19.111,0H14.453V-.649l2.461-2.734a5.846,5.846,0,0,0,.754-1.008,1.683,1.683,0,0,0,.208-.8,1.276,1.276,0,0,0-.337-.913,1.178,1.178,0,0,0-.9-.356,1.4,1.4,0,0,0-1.047.383,1.464,1.464,0,0,0-.374,1.067h-.9A2.1,2.1,0,0,1,14.949-6.6a2.344,2.344,0,0,1,1.692-.605,2.252,2.252,0,0,1,1.567.52A1.774,1.774,0,0,1,18.784-5.3a4.067,4.067,0,0,1-1.338,2.5l-1.9,2.065h3.569Z" transform="translate(622.704 13928.425)"/>
        <path id="Trazado_905954" data-name="Trazado 905954" d="M4.458-3.437a2.431,2.431,0,0,1-.744.6,2.018,2.018,0,0,1-.948.226,2.084,2.084,0,0,1-1.179-.333,2.165,2.165,0,0,1-.776-.937A3.2,3.2,0,0,1,.537-5.221a3.256,3.256,0,0,1,.3-1.413,2.19,2.19,0,0,1,.846-.961,2.412,2.412,0,0,1,1.278-.333,2.184,2.184,0,0,1,1.829.867,3.784,3.784,0,0,1,.669,2.366v.29a5.055,5.055,0,0,1-.9,3.333A3.467,3.467,0,0,1,1.832.005H1.638V-.838h.209a2.736,2.736,0,0,0,1.891-.641A2.748,2.748,0,0,0,4.458-3.437Zm-1.531,0a1.534,1.534,0,0,0,.921-.306A1.8,1.8,0,0,0,4.463-4.5v-.4a2.734,2.734,0,0,0-.424-1.59A1.266,1.266,0,0,0,2.965-7.1a1.276,1.276,0,0,0-1.053.5,2.072,2.072,0,0,0-.4,1.324A2.156,2.156,0,0,0,1.9-3.956,1.216,1.216,0,0,0,2.927-3.437Z" transform="translate(771.286 13811.065)"/>
        <path id="Trazado_905955" data-name="Trazado 905955" d="M2.095-4.394h.747a1.641,1.641,0,0,0,1.106-.371,1.238,1.238,0,0,0,.4-.972,1.213,1.213,0,0,0-1.37-1.375,1.425,1.425,0,0,0-1.029.368,1.288,1.288,0,0,0-.384.975H.575a2,2,0,0,1,.679-1.544,2.475,2.475,0,0,1,1.727-.615,2.446,2.446,0,0,1,1.735.585,2.115,2.115,0,0,1,.628,1.627,1.717,1.717,0,0,1-.33.988,1.994,1.994,0,0,1-.9.714,1.922,1.922,0,0,1,1,.677,1.88,1.88,0,0,1,.352,1.155A2.133,2.133,0,0,1,4.775-.51,2.575,2.575,0,0,1,2.986.107,2.643,2.643,0,0,1,1.2-.489,1.978,1.978,0,0,1,.5-2.062h1a1.278,1.278,0,0,0,.4.988A1.532,1.532,0,0,0,2.986-.7a1.5,1.5,0,0,0,1.1-.376,1.449,1.449,0,0,0,.381-1.08A1.315,1.315,0,0,0,4.05-3.207a1.825,1.825,0,0,0-1.208-.376H2.095Z" transform="translate(509.403 13850.243)"/>
        <path id="Trazado_905956" data-name="Trazado 905956" d="M2.095-4.394h.747a1.641,1.641,0,0,0,1.106-.371,1.238,1.238,0,0,0,.4-.972,1.213,1.213,0,0,0-1.37-1.375,1.425,1.425,0,0,0-1.029.368,1.288,1.288,0,0,0-.384.975H.575a2,2,0,0,1,.679-1.544,2.475,2.475,0,0,1,1.727-.615,2.446,2.446,0,0,1,1.735.585,2.115,2.115,0,0,1,.628,1.627,1.717,1.717,0,0,1-.33.988,1.994,1.994,0,0,1-.9.714,1.922,1.922,0,0,1,1,.677,1.88,1.88,0,0,1,.352,1.155A2.133,2.133,0,0,1,4.775-.51,2.575,2.575,0,0,1,2.986.107,2.643,2.643,0,0,1,1.2-.489,1.978,1.978,0,0,1,.5-2.062h1a1.278,1.278,0,0,0,.4.988A1.532,1.532,0,0,0,2.986-.7a1.5,1.5,0,0,0,1.1-.376,1.449,1.449,0,0,0,.381-1.08A1.315,1.315,0,0,0,4.05-3.207a1.825,1.825,0,0,0-1.208-.376H2.095Z" transform="translate(434.944 13881.33)"/>
        <path id="Trazado_905957" data-name="Trazado 905957" d="M5.774,0H.65V-.714L3.357-3.722a6.431,6.431,0,0,0,.83-1.109,1.851,1.851,0,0,0,.228-.884,1.4,1.4,0,0,0-.371-1,1.3,1.3,0,0,0-.988-.392A1.535,1.535,0,0,0,1.9-6.69a1.611,1.611,0,0,0-.411,1.174H.5a2.307,2.307,0,0,1,.7-1.746,2.579,2.579,0,0,1,1.861-.666,2.478,2.478,0,0,1,1.724.572,1.951,1.951,0,0,1,.634,1.523,4.474,4.474,0,0,1-1.472,2.75L1.848-.811H5.774Z" transform="translate(537.475 13562.635)"/>
        <path id="Línea_1910" data-name="Línea 1910" d="M50.748,59.708-.285.009l.3-.253,51.033,59.7Z" transform="translate(1029.742 13253.869)" fill="#9d9d9c"/>
        <path id="Línea_1911" data-name="Línea 1911" d="M8.2.113H-3V-3H8.2Z" transform="translate(529.402 13354.708)"/>
        <path id="Trazado_901542" data-name="Trazado 901542" d="M199.444,533.054v-8.1l-6.1,3.875Z" transform="translate(328.515 12824.371)"/>
        <path id="Línea_1912" data-name="Línea 1912" d="M8.2.113H-3V-3H8.2Z" transform="translate(502.614 13354.93)"/>
        <path id="Trazado_901543" data-name="Trazado 901543" d="M169.058,524.954v8.1l6.1-3.875Z" transform="translate(340.201 12824.371)"/>
        <path id="Línea_1913" data-name="Línea 1913" d="M.113,8.2H-3V-3H.113Z" transform="translate(428.401 13127.295)"/>
        <path id="Trazado_901544" data-name="Trazado 901544" d="M10.927,109.789h-8.1l3.875,6.1Z" transform="translate(420.192 13024.15)"/>
        <path id="Línea_1914" data-name="Línea 1914" d="M.113,8.2H-3V-3H.113Z" transform="translate(428.624 13307.64)"/>
        <path id="Trazado_901545" data-name="Trazado 901545" d="M2.826,436.164h8.1l-3.875-6.1Z" transform="translate(420.192 12870.032)"/>
        <path id="Línea_1915" data-name="Línea 1915" d="M.113,8.2H-3V-3H.113Z" transform="translate(462.685 13308.116)"/>
        <path id="Trazado_901546" data-name="Trazado 901546" d="M68.478,437.081h8.1l-3.875-6.1Z" transform="translate(388.601 12869.591)"/>
        <path id="Línea_1916" data-name="Línea 1916" d="M.113,8.2H-3V-3H.113Z" transform="translate(462.462 13286.007)"/>
        <path id="Trazado_901547" data-name="Trazado 901547" d="M76.579,415.714h-8.1l3.875,6.1Z" transform="translate(388.601 12876.938)"/>
        <path id="Línea_1917" data-name="Línea 1917" d="M8.2.113H-3V-3H8.2Z" transform="translate(531.873 13288.06)"/>
        <path id="Trazado_901548" data-name="Trazado 901548" d="M225.455,396.058v8.1l6.1-3.875Z" transform="translate(313.063 12886.396)"/>
        <path id="Línea_1918" data-name="Línea 1918" d="M8.2.113H-3V-3H8.2Z" transform="translate(532.868 13098.624)"/>
        <path id="Trazado_901549" data-name="Trazado 901549" d="M227.372,30.913v8.1l6.1-3.875Z" transform="translate(312.14 13062.105)"/>
        <path id="Línea_1919" data-name="Línea 1919" d="M8.2.113H-3V-3H8.2Z" transform="translate(591.35 13098.624)"/>
        <path id="Trazado_901550" data-name="Trazado 901550" d="M340.1,30.913v8.1l6.1-3.875Z" transform="translate(257.896 13062.105)"/>
        <path id="Línea_1920" data-name="Línea 1920" d="M8.2.113H-3V-3H8.2Z" transform="translate(591.35 13098.401)"/>
        <path id="Trazado_901551" data-name="Trazado 901551" d="M318.85,39.014v-8.1l-6.1,3.875Z" transform="translate(271.056 13062.105)"/>
        <path id="Línea_1921" data-name="Línea 1921" d="M8.2.113H-3V-3H8.2Z" transform="translate(653.95 13098.624)"/>
        <path id="Trazado_901552" data-name="Trazado 901552" d="M460.763,30.913v8.1l6.1-3.875Z" transform="translate(199.831 13062.105)"/>
        <path id="Línea_1922" data-name="Línea 1922" d="M8.2.113H-3V-3H8.2Z" transform="translate(653.949 13098.401)"/>
        <path id="Trazado_901553" data-name="Trazado 901553" d="M439.515,39.014v-8.1l-6.1,3.875Z" transform="translate(212.991 13062.105)"/>
        <path id="Línea_1923" data-name="Línea 1923" d="M8.2.113H-3V-3H8.2Z" transform="translate(689.544 13098.624)"/>
        <path id="Trazado_901554" data-name="Trazado 901554" d="M529.372,30.913v8.1l6.1-3.875Z" transform="translate(166.816 13062.105)"/>
        <path id="Línea_1924" data-name="Línea 1924" d="M.113,8.2H-3V-3H.113Z" transform="translate(844.348 13127.306)"/>
        <path id="Trazado_901555" data-name="Trazado 901555" d="M812.68,109.811h-8.1l3.875,6.1Z" transform="translate(34.386 13024.14)"/>
        <path id="Línea_1925" data-name="Línea 1925" d="M.113,8.2H-3V-3H.113Z" transform="translate(844.57 13174.803)"/>
        <path id="Trazado_901556" data-name="Trazado 901556" d="M804.579,180.115h8.1l-3.875-6.1Z" transform="translate(34.386 12993.244)"/>
        <path id="Línea_1926" data-name="Línea 1926" d="M.113,8.2H-3V-3H.113Z" transform="translate(804.651 13178.29)"/>
        <path id="Trazado_901557" data-name="Trazado 901557" d="M736.163,208.085h-8.1l3.875,6.1Z" transform="translate(71.206 12976.85)"/>
        <path id="Línea_1927" data-name="Línea 1927" d="M.113,8.2H-3V-3H.113Z" transform="translate(804.873 13161.652)"/>
        <path id="Trazado_901558" data-name="Trazado 901558" d="M728.062,154.767h8.1l-3.875-6.1Z" transform="translate(71.206 13005.441)"/>
        <path id="Línea_1928" data-name="Línea 1928" d="M8.2.113H-3V-3H8.2Z" transform="translate(689.544 13098.401)"/>
        <path id="Trazado_901559" data-name="Trazado 901559" d="M508.124,39.014v-8.1l-6.1,3.875Z" transform="translate(179.977 13062.105)"/>
        <path id="Línea_1929" data-name="Línea 1929" d="M8.2.113H-3V-3H8.2Z" transform="translate(752.318 13098.401)"/>
        <path id="Trazado_901560" data-name="Trazado 901560" d="M629.124,39.014v-8.1l-6.1,3.875Z" transform="translate(121.751 13062.105)"/>
        <path id="Línea_1930" data-name="Línea 1930" d="M-1.054,7.609l-2.872-1.2L.4-3.925l2.872,1.2Z" transform="translate(507.677 13268.554)"/>
        <path id="Trazado_901561" data-name="Trazado 901561" d="M160.983,358.821l7.473,3.126-1.222-7.122Z" transform="translate(344.087 12906.238)"/>
        <path id="Línea_1931" data-name="Línea 1931" d="M-1.054,7.609l-2.872-1.2L.4-3.925l2.872,1.2Z" transform="translate(535.659 13197.41)"/>
        <path id="Trazado_901562" data-name="Trazado 901562" d="M216.773,243.07l-7.473-3.126,1.222,7.122Z" transform="translate(320.837 12961.52)"/>
        <path id="Línea_1932" data-name="Línea 1932" d="M.113,8.2H-3V-3H.113Z" transform="translate(428.401 13308.635)"/>
        <path id="Trazado_901563" data-name="Trazado 901563" d="M10.927,459.33h-8.1l3.875,6.1Z" transform="translate(420.192 12855.95)"/>
        <path id="Línea_1933" data-name="Línea 1933" d="M.113,8.2H-3V-3H.113Z" transform="translate(427.158 13567.494)"/>
        <path id="Trazado_901564" data-name="Trazado 901564" d="M0,937.045H8.1l-3.875-6.1Z" transform="translate(421.553 12629.006)"/>
        <path id="Línea_1934" data-name="Línea 1934" d="M.113,8.2H-3V-3H.113Z" transform="translate(426.936 13568.489)"/>
        <path id="Trazado_901565" data-name="Trazado 901565" d="M8.1,960.21H0l3.875,6.1Z" transform="translate(421.553 12614.924)"/>
        <path id="Línea_1935" data-name="Línea 1935" d="M.113,8.2H-3V-3H.113Z" transform="translate(427.158 13857.761)"/>
        <path id="Trazado_901566" data-name="Trazado 901566" d="M0,1496.545H8.1l-3.875-6.1Z" transform="translate(421.553 12359.772)"/>
        <path id="Línea_1936" data-name="Línea 1936" d="M.113,8.2H-3V-3H.113Z" transform="translate(427.158 13889.165)"/>
        <path id="Trazado_901567" data-name="Trazado 901567" d="M0,1557.078H8.1l-3.875-6.1Z" transform="translate(421.553 12330.644)"/>
        <path id="Línea_1937" data-name="Línea 1937" d="M.113,8.2H-3V-3H.113Z" transform="translate(499.926 13850.692)"/>
        <path id="Trazado_901568" data-name="Trazado 901568" d="M140.264,1482.92h8.1l-3.875-6.1Z" transform="translate(354.058 12366.329)"/>
        <path id="Línea_1938" data-name="Línea 1938" d="M8.2.113H-3V-3H8.2Z" transform="translate(500.017 13861.479)"/>
        <path id="Trazado_901569" data-name="Trazado 901569" d="M164.05,1501.349v8.1l6.1-3.875Z" transform="translate(342.611 12354.525)"/>
        <path id="Línea_1939" data-name="Línea 1939" d="M8.2.113H-3V-3H8.2Z" transform="translate(531.393 13937.201)"/>
        <path id="Trazado_901570" data-name="Trazado 901570" d="M224.529,1647.306v8.1l6.1-3.875Z" transform="translate(313.509 12284.29)"/>
        <path id="Línea_1940" data-name="Línea 1940" d="M8.2.113H-3V-3H8.2Z" transform="translate(701.927 13936.979)"/>
        <path id="Trazado_901571" data-name="Trazado 901571" d="M531.993,1655.406v-8.1l-6.1,3.875Z" transform="translate(168.49 12284.29)"/>
        <path id="Línea_1941" data-name="Línea 1941" d="M-.75,7.891-3.733,7-.528-3.733l2.983.891Z" transform="translate(709.978 13884.058)"/>
        <path id="Trazado_901572" data-name="Trazado 901572" d="M552.974,1567.3l-7.762-2.318,1.969,6.953Z" transform="translate(159.194 12323.907)"/>
        <path id="Línea_1942" data-name="Línea 1942" d="M-.75,7.891-3.733,7-.528-3.733l2.983.891Z" transform="translate(719.264 13849.607)"/>
        <path id="Trazado_901573" data-name="Trazado 901573" d="M570.873,1500.891l-7.762-2.317,1.969,6.953Z" transform="translate(150.581 12355.861)"/>
        <path id="Línea_1943" data-name="Línea 1943" d="M-.75,7.891-3.733,7-.528-3.733l2.983.891Z" transform="translate(755.739 13847.421)"/>
        <path id="Trazado_901574" data-name="Trazado 901574" d="M637.471,1475l7.762,2.318-1.969-6.953Z" transform="translate(114.799 12369.437)"/>
        <path id="Línea_1944" data-name="Línea 1944" d="M-.75,7.891-3.733,7-.528-3.733l2.983.891Z" transform="translate(779.138 13754.504)"/>
        <path id="Trazado_901575" data-name="Trazado 901575" d="M686.285,1317.575l-7.762-2.318,1.969,6.953Z" transform="translate(95.045 12444.073)"/>
        <path id="Línea_1945" data-name="Línea 1945" d="M-.544,7.9-3.729-2.844l2.984-.885L2.44,7.01Z" transform="translate(895.679 13781.522)"/>
        <path id="Trazado_901576" data-name="Trazado 901576" d="M915.358,1367.239l-7.766,2.3,5.45,4.745Z" transform="translate(-15.185 12419.06)"/>
        <path id="Línea_1946" data-name="Línea 1946" d="M-.544,7.9-3.729-2.844l2.984-.885L2.44,7.01Z" transform="translate(916.995 13856.869)"/>
        <path id="Trazado_901577" data-name="Trazado 901577" d="M943.837,1495.549l7.766-2.3-5.45-4.745Z" transform="translate(-32.626 12360.708)"/>
        <path id="Línea_1947" data-name="Línea 1947" d="M-2.844,2.441-3.729-.544,7.01-3.729,7.9-.745Z" transform="translate(951.74 13826.219)"/>
        <path id="Trazado_901578" data-name="Trazado 901578" d="M1031.166,1433.038l2.3,7.766,4.745-5.45Z" transform="translate(-74.648 12387.397)"/>
        <path id="Línea_1948" data-name="Línea 1948" d="M-2.844,2.44-3.729-.544,7.01-3.729,7.9-.745Z" transform="translate(977.814 13819.748)"/>
        <path id="Trazado_901579" data-name="Trazado 901579" d="M1064.5,1433.174l-2.3-7.766-4.745,5.45Z" transform="translate(-87.299 12391.068)"/>
        <path id="Línea_1949" data-name="Línea 1949" d="M8.138.282-3.061.051-3-3.061,8.2-2.83Z" transform="translate(1134.367 13845.971)"/>
        <path id="Trazado_901580" data-name="Trazado 901580" d="M1365.4,1479.928l.168-8.1-6.178,3.749Z" transform="translate(-232.591 12368.73)"/>
        <path id="Línea_1950" data-name="Línea 1950" d="M8.138.282-3.061.051-3-3.061,8.2-2.83Z" transform="translate(1138.474 13809.937)"/>
        <path id="Trazado_901581" data-name="Trazado 901581" d="M1373.315,1410.47l.168-8.1-6.178,3.749Z" transform="translate(-236.4 12402.154)"/>
        <path id="Línea_1951" data-name="Línea 1951" d="M8.138.282-3.061.051-3-3.061,8.2-2.83Z" transform="translate(1138.404 13809.992)"/>
        <path id="Trazado_901582" data-name="Trazado 901582" d="M1394.52,1402.371l-.167,8.1,6.178-3.749Z" transform="translate(-249.416 12402.154)"/>
        <path id="Línea_1952" data-name="Línea 1952" d="M.051,8.2l-3.112-.064.231-11.2L.282-3Z" transform="translate(1142.397 13837.995)"/>
        <path id="Trazado_901583" data-name="Trazado 901583" d="M1378.922,1458.306l8.1.167-3.749-6.178Z" transform="translate(-241.99 12378.131)"/>
        <path id="Línea_1953" data-name="Línea 1953" d="M.051,8.2l-3.112-.064.231-11.2L.282-3Z" transform="translate(1143.258 13806.004)"/>
        <path id="Trazado_901584" data-name="Trazado 901584" d="M1380.58,1396.642l8.1.167-3.749-6.178Z" transform="translate(-242.788 12407.804)"/>
        <path id="Línea_1954" data-name="Línea 1954" d="M.051,8.2l-3.112-.064.231-11.2L.282-3Z" transform="translate(1143.313 13806.999)"/>
        <path id="Trazado_901585" data-name="Trazado 901585" d="M1388.893,1419.9l-8.1-.167,3.749,6.178Z" transform="translate(-242.892 12393.8)"/>
        <path id="Línea_1955" data-name="Línea 1955" d="M.051,8.2l-3.112-.064.231-11.2L.282-3Z" transform="translate(1143.313 13572.065)"/>
        <path id="Trazado_901586" data-name="Trazado 901586" d="M1388.893,967.054l-8.1-.168,3.749,6.178Z" transform="translate(-242.892 12611.711)"/>
        <path id="Línea_1956" data-name="Línea 1956" d="M.051,8.2l-3.112-.064.231-11.2L.282-3Z" transform="translate(1143.369 13568.022)"/>
        <path id="Trazado_901587" data-name="Trazado 901587" d="M1380.794,937.922l8.1.167-3.749-6.178Z" transform="translate(-242.892 12628.542)"/>
        <path id="Línea_1957" data-name="Línea 1957" d="M8.138.282-3.061.051-3-3.061,8.2-2.83Z" transform="translate(1135.393 13572.633)"/>
        <path id="Trazado_901588" data-name="Trazado 901588" d="M1367.375,953.057l.167-8.1-6.178,3.749Z" transform="translate(-233.542 12622.264)"/>
        <path id="Línea_1958" data-name="Línea 1958" d="M8.138.282-3.061.051-3-3.061,8.2-2.83Z" transform="translate(1113.264 13572.633)"/>
        <path id="Trazado_901589" data-name="Trazado 901589" d="M1324.721,953.057l.167-8.1-6.178,3.749Z" transform="translate(-213.017 12622.264)"/>
        <path id="Línea_1959" data-name="Línea 1959" d="M7,2.455-3.733-.75l.891-2.983L7.891-.528Z" transform="translate(735.202 13740.885)"/>
        <path id="Trazado_901590" data-name="Trazado 901590" d="M594.516,1276.726l2.318-7.762-6.953,1.969Z" transform="translate(137.699 12466.351)"/>
        <path id="Línea_1960" data-name="Línea 1960" d="M8.2.113H-3V-3H8.2Z" transform="translate(524.487 13861.258)"/>
        <path id="Trazado_901591" data-name="Trazado 901591" d="M189.971,1509.45v-8.1l-6.1,3.875Z" transform="translate(333.072 12354.525)"/>
        <path id="Línea_1961" data-name="Línea 1961" d="M.113,8.2H-3V-3H.113Z" transform="translate(501.913 13809.613)"/>
        <path id="Trazado_901592" data-name="Trazado 901592" d="M152.622,1424.987h-8.1l3.875,6.1Z" transform="translate(352.008 12391.271)"/>
        <path id="Línea_1962" data-name="Línea 1962" d="M8.2.113H-3V-3H8.2Z" transform="translate(526.354 13613.339)"/>
        <path id="Trazado_901593" data-name="Trazado 901593" d="M193.567,1031.576v-8.1l-6.1,3.875Z" transform="translate(331.343 12584.48)"/>
        <path id="Línea_1963" data-name="Línea 1963" d="M8.2.113H-3V-3H8.2Z" transform="translate(528.112 13571.113)"/>
        <path id="Trazado_901594" data-name="Trazado 901594" d="M196.959,950.185v-8.1l-6.1,3.875Z" transform="translate(329.711 12623.646)"/>
        <path id="Línea_1964" data-name="Línea 1964" d="M8.2.113H-3V-3H8.2Z" transform="translate(555.442 13571.336)"/>
        <path id="Trazado_901595" data-name="Trazado 901595" d="M270.885,942.084v8.1l6.1-3.875Z" transform="translate(291.201 12623.646)"/>
        <path id="Línea_1965" data-name="Línea 1965" d="M8.2.113H-3V-3H8.2Z" transform="translate(786.772 13613.561)"/>
        <path id="Trazado_901596" data-name="Trazado 901596" d="M716.785,1023.475v8.1l6.1-3.875Z" transform="translate(76.633 12584.48)"/>
        <path id="Línea_1966" data-name="Línea 1966" d="M8.2.113H-3V-3H8.2Z" transform="translate(927.479 13572.147)"/>
        <path id="Trazado_901597" data-name="Trazado 901597" d="M988,943.649v8.1l6.1-3.875Z" transform="translate(-53.878 12622.894)"/>
        <path id="Línea_1967" data-name="Línea 1967" d="M8.2.113H-3V-3H8.2Z" transform="translate(1082.082 13316.257)"/>
        <path id="Trazado_901598" data-name="Trazado 901598" d="M1286.007,450.41v8.1l6.1-3.875Z" transform="translate(-197.279 12860.242)"/>
        <path id="Línea_1968" data-name="Línea 1968" d="M.113,8.2H-3V-3H.113Z" transform="translate(1144.179 13182.42)"/>
        <path id="Trazado_901599" data-name="Trazado 901599" d="M1382.087,194.8h8.1l-3.875-6.1Z" transform="translate(-243.514 12986.18)"/>
        <path id="Línea_1969" data-name="Línea 1969" d="M.113,8.2H-3V-3H.113Z" transform="translate(1143.956 13183.728)"/>
        <path id="Trazado_901600" data-name="Trazado 901600" d="M1390.188,218.567h-8.1l3.875,6.1Z" transform="translate(-243.514 12971.806)"/>
        <path id="Línea_1970" data-name="Línea 1970" d="M8.2.113H-3V-3H8.2Z" transform="translate(1135.769 13186.353)"/>
        <path id="Trazado_901601" data-name="Trazado 901601" d="M1368.241,208.543v-8.1l-6.1,3.875Z" transform="translate(-233.916 12980.527)"/>
        <path id="Línea_1971" data-name="Línea 1971" d="M8.2.113H-3V-3H8.2Z" transform="translate(968.64 13186.575)"/>
        <path id="Trazado_901602" data-name="Trazado 901602" d="M1067.342,200.443v8.1l6.1-3.875Z" transform="translate(-92.057 12980.527)"/>
        <path id="Línea_1972" data-name="Línea 1972" d="M.113,8.2H-3V-3H.113Z" transform="translate(426.936 13858.756)"/>
        <path id="Trazado_901603" data-name="Trazado 901603" d="M8.1,1519.71H0l3.875,6.1Z" transform="translate(421.553 12345.689)"/>
        <path id="Trazado_901604" data-name="Trazado 901604" d="M678.25,177.932h-.389v-2.522h.389Zm0-3.531h-.389V171.88h.389Zm0-3.531h-.389v-2.522h.389Zm0-3.531h-.389v-2.522h.389Zm0-3.531h-.389v-2.522h.389Zm0-3.531h-.389v-2.522h.389Zm0-3.531h-.389v-2.522h.389Zm0-3.531h-.389v-2.522h.389Zm-.785-2.745h-2.522v-.389h2.522Zm-3.531,0h-2.522v-.389h2.522Zm-3.531,0h-2.522v-.389H670.4Zm-3.531,0H664.35v-.389h2.522Zm-3.531,0h-2.522v-.389h2.522Zm-3.531,0h-2.522v-.389h2.522Zm-3.531,0h-2.522v-.389h2.522Zm-3.531,0h-2.522v-.389h2.522Zm-3.531,0H646.7v-.389h2.522Zm-3.531,0h-2.522v-.389h2.522Zm-3.531,0h-2.522v-.389h2.522Z" transform="translate(113.759 13004.762)" fill="#9d9d9c"/>
        <path id="Línea_1973" data-name="Línea 1973" d="M8.2.113H-3V-3H8.2Z" transform="translate(779.07 13156.481)"/>
        <path id="Trazado_901605" data-name="Trazado 901605" d="M701.937,142.435v8.1l6.1-3.875Z" transform="translate(83.777 13008.441)"/>
        <path id="Línea_1974" data-name="Línea 1974" d="M8.2.113H-3V-3H8.2Z" transform="translate(762.432 13156.259)"/>
        <path id="Trazado_901606" data-name="Trazado 901606" d="M648.619,150.536v-8.1l-6.1,3.875Z" transform="translate(112.369 13008.44)"/>
        <path id="Trazado_901607" data-name="Trazado 901607" d="M704.512,190.788h-.389v-2.522h.389Zm0-3.531h-.389v-2.522h.389Zm0-3.531h-.389V181.2h.389Zm0-3.531h-.389v-2.522h.389Zm-.48-3.051H701.51v-.389h2.522Zm-3.531,0h-2.522v-.389H700.5Zm-3.531,0h-2.522v-.389h2.522Zm-3.531,0h-2.522v-.389h2.522Zm-3.531,0h-2.522v-.389h2.522Zm-3.531,0h-2.522v-.389h2.522Zm-3.531,0h-2.522v-.389h2.522Zm-3.531,0h-2.522v-.389h2.522Zm-3.531,0h-2.522v-.389h2.522Zm-3.531,0h-1.136v-.389h1.136Z" transform="translate(98.608 12991.926)" fill="#9d9d9c"/>
        <path id="Línea_1975" data-name="Línea 1975" d="M19.311.014H0V-.375H19.311Z" transform="translate(954.368 13761.193)" fill="#9d9d9c"/>
        <path id="Línea_1976" data-name="Línea 1976" d="M1.5,290.909-.375,0,.014,0,1.891,290.906Z" transform="translate(784.294 13279.685)" fill="#9d9d9c"/>
        <path id="Trazado_905958" data-name="Trazado 905958" d="M0,0H758.723V862.713H0Z" transform="translate(421.553 13076.983)" fill="none"/>
      </g>
    </g>
  </g>
</svg>
