<svg xmlns="http://www.w3.org/2000/svg" xmlns:xlink="http://www.w3.org/1999/xlink" width="75.537" height="75.785" viewBox="0 0 75.537 75.785">
  <defs>
    <clipPath id="clip-path">
      <path id="Trazado_878600" data-name="Trazado 878600" d="M866.5,129.845c-1.358-.3-2.719-.582-4.073-.9a11.131,11.131,0,0,0-7.316.765,32.8,32.8,0,0,0-6.669,4.333c-1.219.956-2.4,1.954-3.631,2.9a26.427,26.427,0,0,1-7.383,4.087c-6.905,2.432-11.818-1.3-14.35-5.808a14.814,14.814,0,0,1-1.765-8.965c.14-1.346-2.062-29.175-2.078-37.149-.026-12.772,8.271-34.9,65.809-15.361a7.542,7.542,0,0,1,6.014,6.712,22.782,22.782,0,0,1-.473,7.232c-.351,1.785-.819,3.546-1.029,5.359a20.3,20.3,0,0,0,1.782,10.491c.59,1.371,1.188,2.74,1.816,4.1,3.615,7.8.872,14.374-5.262,18.978a21.3,21.3,0,0,1-17.8,3.991c-1.2-.253-2.39-.525-3.585-.788l-.006.029" transform="translate(-639.258 1961.893)" fill="#2f5e34"/>
    </clipPath>
  </defs>
  <g id="Grupo_1101497" data-name="Grupo 1101497" transform="translate(-179.98 -1960.906)">
    <path id="Trazado_878599" data-name="Trazado 878599" d="M866.5,129.845c-1.358-.3-2.719-.582-4.073-.9a11.131,11.131,0,0,0-7.316.765,32.8,32.8,0,0,0-6.669,4.333c-1.219.956-2.4,1.954-3.631,2.9a26.427,26.427,0,0,1-7.383,4.087c-6.905,2.432-11.818-1.3-14.35-5.808a14.814,14.814,0,0,1-1.765-8.965c.536-5.157,2.256-9.762,6.488-13.124a19.473,19.473,0,0,1,4.936-2.711c1.646-.662,3.33-1.237,4.959-1.937,3.6-1.546,4.982-4.075,4.4-7.942a19.253,19.253,0,0,0-1.814-5.316,21.957,21.957,0,0,1-1.466-3.517,8.053,8.053,0,0,1,2.8-8.906,13.959,13.959,0,0,1,7.609-3.046,69.526,69.526,0,0,1,8.159-.184A36.2,36.2,0,0,0,872.28,76.5c1.774-.783,3.571-1.529,5.4-2.168a12.554,12.554,0,0,1,7.366-.589,7.542,7.542,0,0,1,6.014,6.712,22.782,22.782,0,0,1-.473,7.232c-.351,1.785-.819,3.546-1.029,5.359a20.3,20.3,0,0,0,1.782,10.491c.59,1.371,1.188,2.74,1.816,4.1,3.615,7.8.872,14.374-5.262,18.978a21.3,21.3,0,0,1-17.8,3.991c-1.2-.253-2.39-.525-3.585-.788l-.006.029" transform="translate(-639.258 1894.893)" fill="#2f5e34"/>
    <g id="Enmascarar_grupo_1098706" data-name="Enmascarar grupo 1098706" transform="translate(0 -67)" clip-path="url(#clip-path)">
      <g id="camisa-polo" transform="translate(181.285 2014.321)">
        <g id="Grupo_1099919" data-name="Grupo 1099919" transform="translate(1.092 26.143)">
          <path id="Trazado_878609" data-name="Trazado 878609" d="M79.789,65.115,77.484,80.632a.678.678,0,0,1-.82.558L65.3,78.595a.33.33,0,0,0-.4.321v38.7a.873.873,0,0,1-.874.872H23.268a.872.872,0,0,1-.873-.871v-38.7a.33.33,0,0,0-.4-.321L10.633,81.19a.678.678,0,0,1-.82-.558L7.507,65.115a.672.672,0,0,1,.34-.686l5.218-2.894a41.294,41.294,0,0,1,20.028-5.181H54.2a41.3,41.3,0,0,1,20.029,5.181l5.218,2.894A.672.672,0,0,1,79.789,65.115Z" transform="translate(-7.5 -56.354)" fill="#0573ce"/>
        </g>
        <g id="Grupo_1099920" data-name="Grupo 1099920" transform="translate(43.431 26.143)">
          <path id="Trazado_878610" data-name="Trazado 878610" d="M369.538,210.931c-2.609-.2-2.572,1.823-2.572,2.035V249.7a.873.873,0,0,1-.874.872h4.364a.873.873,0,0,0,.874-.872V211.143Z" transform="translate(-356.268 -188.433)" fill="#0067c5"/>
          <path id="Trazado_878611" data-name="Trazado 878611" d="M328.163,64.429l-5.218-2.894a41.3,41.3,0,0,0-20.029-5.181h-4.364a41.3,41.3,0,0,1,20.029,5.181l5.218,2.894a.672.672,0,0,1,.34.686l-2.27,15.273,3.507.8a.678.678,0,0,0,.82-.558L328.5,65.115A.672.672,0,0,0,328.163,64.429Z" transform="translate(-298.552 -56.354)" fill="#0067c5"/>
        </g>
        <path id="Trazado_878612" data-name="Trazado 878612" d="M184.615,30.17S188.155,28.5,195,28.5s10.384,1.67,10.384,1.67S204.114,35.944,195,35.944,184.615,30.17,184.615,30.17Z" transform="translate(-157.758 -6.409)" fill="#98bce5"/>
        <path id="Trazado_878613" data-name="Trazado 878613" d="M165.968,39.98a35.523,35.523,0,0,0,10.384,5.774,6.539,6.539,0,0,1-2.627,4.2,2.3,2.3,0,0,1-2.4.065,29.989,29.989,0,0,1-8.441-7.193.425.425,0,0,1,.081-.6Z" transform="translate(-139.111 -16.219)" fill="#eaf6ff"/>
        <path id="Trazado_878614" data-name="Trazado 878614" d="M266.382,39.98A35.524,35.524,0,0,1,256,45.754a6.539,6.539,0,0,0,2.627,4.2,2.3,2.3,0,0,0,2.4.065,29.988,29.988,0,0,0,8.44-7.193.425.425,0,0,0-.081-.6Z" transform="translate(-218.758 -16.219)" fill="#eaf6ff"/>
        <rect id="Rectángulo_401549" data-name="Rectángulo 401549" width="42.505" height="5.819" transform="translate(15.988 60.268)" fill="#fea3ce"/>
        <rect id="Rectángulo_401550" data-name="Rectángulo 401550" width="4.364" height="5.819" transform="translate(54.129 60.268)" fill="#fe7ab6"/>
        <rect id="Rectángulo_401551" data-name="Rectángulo 401551" width="42.505" height="5.819" transform="translate(15.988 71.695)" fill="#ffe07d"/>
        <rect id="Rectángulo_401552" data-name="Rectángulo 401552" width="4.364" height="5.819" transform="translate(54.129 71.695)" fill="#ffc250"/>
        <circle id="Elipse_11530" data-name="Elipse 11530" cx="2.764" cy="2.764" r="2.764" transform="translate(47.116 39.062)" fill="#fea3ce"/>
        <g id="Grupo_1099922" data-name="Grupo 1099922" transform="translate(0.002 21)">
          <g id="Grupo_1099921" data-name="Grupo 1099921" transform="translate(0 4.161)">
            <path id="Trazado_878615" data-name="Trazado 878615" d="M80.311,54.148a1.091,1.091,0,0,1-.372-2.117A42.387,42.387,0,0,1,91.3,49.608a1.091,1.091,0,1,1,.159,2.176,40.2,40.2,0,0,0-10.773,2.3A1.089,1.089,0,0,1,80.311,54.148Z" transform="translate(-67.696 -49.605)"/>
            <path id="Trazado_878616" data-name="Trazado 878616" d="M45.759,139.6h-28.9a1.965,1.965,0,0,1-1.964-1.962V99.888L4.469,102.27a1.769,1.769,0,0,1-2.142-1.46L.021,85.292a1.77,1.77,0,0,1,.894-1.8L6.129,80.6q.653-.362,1.317-.7a1.091,1.091,0,0,1,.991,1.944q-.63.321-1.25.665L2.222,85.259l2.2,14.784,10.924-2.495a1.421,1.421,0,0,1,1.737,1.385v38.481H45.759a1.091,1.091,0,1,1,0,2.182Z" transform="translate(-0.002 -75.388)"/>
            <path id="Trazado_878617" data-name="Trazado 878617" d="M350.009,113.95h-6.754a1.091,1.091,0,0,1,0-2.182h6.536V73.285A1.421,1.421,0,0,1,351.53,71.9l10.924,2.5,2.2-14.784-4.965-2.754a39.932,39.932,0,0,0-16.28-4.915,1.091,1.091,0,0,1,.175-2.175,42.1,42.1,0,0,1,17.164,5.182l5.218,2.894a1.768,1.768,0,0,1,.891,1.8l-2.306,15.518a1.769,1.769,0,0,1-2.141,1.462l-10.43-2.383v37.746A1.966,1.966,0,0,1,350.009,113.95Z" transform="translate(-292.392 -49.741)"/>
          </g>
          <path id="Trazado_878618" data-name="Trazado 878618" d="M166.07,35.2a3.431,3.431,0,0,1-1.7-.452,31.3,31.3,0,0,1-8.761-7.469,1.5,1.5,0,0,1-.309-1.133,1.526,1.526,0,0,1,.6-1.015l3-2.248a1.091,1.091,0,0,1,.188-.113c.154-.072,3.841-1.774,10.85-1.774s10.7,1.7,10.85,1.774a1.09,1.09,0,0,1,.188.113l3,2.248a1.526,1.526,0,0,1,.6,1.015,1.5,1.5,0,0,1-.309,1.133,31.305,31.305,0,0,1-8.761,7.469,3.372,3.372,0,0,1-3.54-.1,6.782,6.782,0,0,1-2.026-2.114,6.782,6.782,0,0,1-2.026,2.114A3.339,3.339,0,0,1,166.07,35.2Zm-8.307-8.738a29.286,29.286,0,0,0,7.689,6.388,1.216,1.216,0,0,0,1.26-.026,5.122,5.122,0,0,0,1.915-2.582,37.265,37.265,0,0,1-9.084-5.113Zm13.491,3.781a5.118,5.118,0,0,0,1.916,2.582,1.216,1.216,0,0,0,1.26.026,29.291,29.291,0,0,0,7.689-6.388l-1.78-1.333A37.072,37.072,0,0,1,171.254,30.248Zm-9.382-6.114a32.247,32.247,0,0,0,8.069,4.257,32.108,32.108,0,0,0,8.07-4.257,34.683,34.683,0,0,0-16.139,0Z" transform="translate(-132.702 -21)"/>
          <path id="Línea_593" data-name="Línea 593" d="M-6.409,10.248A1.091,1.091,0,0,1-7.5,9.157V-6.409A1.091,1.091,0,0,1-6.409-7.5,1.091,1.091,0,0,1-5.318-6.409V9.157A1.091,1.091,0,0,1-6.409,10.248Z" transform="translate(43.648 14.944)"/>
          <path id="Rectángulo_401553" data-name="Rectángulo 401553" d="M-6.409-7.5H36.013A1.091,1.091,0,0,1,37.1-6.409V-.59A1.091,1.091,0,0,1,36.013.5H-6.409A1.091,1.091,0,0,1-7.5-.59V-6.409A1.091,1.091,0,0,1-6.409-7.5ZM34.922-5.318H-5.318v3.637h40.24Z" transform="translate(22.395 45.677)"/>
          <path id="Elipse_11531" data-name="Elipse 11531" d="M-3.645-7.5A3.859,3.859,0,0,1,.21-3.645,3.859,3.859,0,0,1-3.645.21,3.859,3.859,0,0,1-7.5-3.645,3.859,3.859,0,0,1-3.645-7.5Zm0,5.528A1.675,1.675,0,0,0-1.972-3.645,1.675,1.675,0,0,0-3.645-5.318,1.675,1.675,0,0,0-5.318-3.645,1.675,1.675,0,0,0-3.645-1.972Z" transform="translate(53.524 24.471)"/>
          <path id="Rectángulo_401554" data-name="Rectángulo 401554" d="M-6.409-7.5H36.013A1.091,1.091,0,0,1,37.1-6.409V-.59A1.091,1.091,0,0,1,36.013.5H-6.409A1.091,1.091,0,0,1-7.5-.59V-6.409A1.091,1.091,0,0,1-6.409-7.5ZM34.922-5.318H-5.318v3.637h40.24Z" transform="translate(22.395 57.104)"/>
        </g>
      </g>
    </g>
  </g>
</svg>
